<svg version="1.1" id="Layer_1" xmlns="http://www.w3.org/2000/svg" x="0" y="0" viewBox="0 0 178.3 25" xml:space="preserve"><style>.st0{fill:#86cca6}</style><path id="star-5" class="st0" d="M21.3 25l-8.1-4.3L5 25l1.6-9L0 9.6l9.1-1.3L13.2 0l4.1 8.2 9.1 1.3-6.7 6.5 1.6 9zm-8.1-5.4l6.8 3.6-1.3-7.6 5.5-5.4-7.6-1.1-3.4-6.9-3.4 6.9-7.6 1.1 5.5 5.4-1.3 7.6 6.8-3.6z"/><path id="star-4" class="st0" d="M43 25l1.6-9L38 9.6l9.1-1.3 4-8.3 4.1 8.2 9.1 1.3-6.6 6.5 1.6 9-8.1-4.3L43 25zm8.1-5.4l6.8 3.6-1.3-7.6 5.5-5.4-7.6-1.1-3.4-6.9-3.4 6.9-7.6 1.1 5.5 5.4-1.3 7.6 6.8-3.6z"/><path id="star-3" class="st0" d="M97.3 25l-8.1-4.3L81 25l1.6-9L76 9.6l9.1-1.3 4-8.3 4.1 8.2 9.1 1.3-6.6 6.5 1.6 9zM78.1 10.3l5.5 5.4-1.3 7.6 6.8-3.6 6.8 3.6-1.3-7.6 5.5-5.4-7.6-1.1-3.4-6.9-3.4 6.9-7.6 1.1z"/><path id="star-2" class="st0" d="M135.3 25l-8.1-4.3L119 25l1.6-9-6.6-6.4 9.1-1.3 4.1-8.2 4.1 8.2 9.1 1.3-6.6 6.4 1.5 9zm-8.2-5.4l6.8 3.6-1.3-7.6 5.5-5.4-7.6-1.1-3.4-6.9-3.4 6.9-7.6 1.1 5.5 5.4-1.3 7.6 6.8-3.6z"/><path id="star-1" class="st0" d="M173.3 25l-8.1-4.3L157 25l1.6-9-6.6-6.4 9.1-1.3 4.1-8.2 4.1 8.2 9.1 1.3-6.6 6.4 1.5 9zm-19.2-14.7l5.5 5.4-1.3 7.6 6.8-3.6 6.8 3.6-1.3-7.6 5.5-5.4-7.6-1.1-3.4-6.9-3.4 6.9-7.6 1.1z"/></svg>