<svg version="1.1" id="Layer_1" xmlns="http://www.w3.org/2000/svg" x="0" y="0" viewBox="0 0 421 624" xml:space="preserve"><style>.st1{fill:#fff}.st2{fill:none;stroke:#1e315e;stroke-miterlimit:10}.st3{fill:#8d9394}.st4{fill:#86cca6}.st5{fill:#b68c59}</style><path fill="none" stroke="#1e305e" stroke-miterlimit="10" d="M.5 624V.5h420V624"/><path class="st1" d="M48.5 48.4h324v209.4h-324z"/><circle class="st2" cx="211.1" cy="191.9" r="42.6"/><path class="st2" d="M198.7 208.9h23.6v3.5h-23.6zm19.1 0h-14.6v-3.4h14.6zm-7.3-27.6v24.1m4-27.1l19.9 5.7m-47.9-13.6l20 5.7m-6.8 12.9c0 4.3-3.5 7.7-7.7 7.7s-7.7-3.5-7.7-7.7 7.7-17 7.7-17 7.7 12.7 7.7 17zm-15.4.8h15.4m37 9.7c0 4.3-3.5 7.7-7.7 7.7s-7.7-3.5-7.7-7.7 7.7-16.9 7.7-16.9 7.7 12.7 7.7 16.9zm-15.4.9h15.4"/><circle class="st2" cx="210.5" cy="177.2" r="4.1"/><path class="st3" d="M120.3 90v12.5h-2.4l-7.2-10.9v10.9H109V90h2.6l7 10.6V90h1.7zm13 10.9v1.6H124V90h9.2v1.6h-7.4v3.5h6.9v1.6h-6.9v4.2h7.5zm11.7-.1v1.7h-8.8V90h1.8v10.8h7zm1.4.5v-1.9c1.4 1.1 3 1.7 4.9 1.7 2 0 3.1-.7 3.1-2.1 0-.9-.5-1.4-2.2-1.9l-2.7-.7c-2.2-.6-3-1.8-3-3.2 0-2.1 1.8-3.6 4.9-3.6 2 0 3.4.6 4.4 1.3v1.8c-1.2-1-2.6-1.5-4.4-1.5-1.9 0-3.1.7-3.1 1.8 0 .8.5 1.3 1.9 1.7l2.8.7c2.4.7 3.3 1.8 3.3 3.4 0 2.3-1.9 3.8-4.9 3.8-1.9.2-3.7-.4-5-1.3zm11.6-5c0-3.7 2.9-6.6 6.9-6.6s6.9 2.9 6.9 6.6-2.9 6.6-6.9 6.6-6.9-3-6.9-6.6zm11.9 0c0-2.8-2-4.9-5-4.9-3.1 0-5.1 2.1-5.1 4.9s2 4.9 5.1 4.9c3.1 0 5-2.1 5-4.9zm16-6.3v12.5h-2.4l-7.2-10.9v10.9h-1.7V90h2.6l7 10.6V90h1.7zm21.4 6.5h-2.5v6h-1.6v-2.7c-.7 2-2.7 3-4.9 3-2.8 0-4.6-1.5-4.6-3.6 0-1.6 1.1-2.8 2.6-3.2-1.2-.3-2.1-1.4-2.1-2.8 0-2 1.8-3.5 4.9-3.5 1.3 0 2.4.3 3.4.8v1.7c-.7-.5-1.8-1-3.3-1-2 0-3.1.8-3.1 2 0 1.1 1 1.8 2.9 1.8h4.4v-2.1l1.6-.5V95h2.5v1.5zm-4.1 0h-4.7c-2.2 0-3.1 1.1-3.1 2.3 0 1.4 1.2 2.4 3.3 2.4 2.3 0 4.5-1.3 4.5-4.7zm23.6 6l-.9-11-4.1 11h-2l-4.1-11.1-.9 11.1h-1.7l1-12.5h2.8l3.8 10.4 3.9-10.4h2.7l1.2 12.5h-1.7zm4.9-5V90h1.8v7.4c0 2.4 1.4 3.8 3.8 3.8 2.3 0 3.7-1.4 3.7-3.8V90h1.8v7.4c0 3.3-2.2 5.4-5.5 5.4-3.4.1-5.6-2-5.6-5.3zm22.3 5l-6-5.7v5.7h-1.8V90h6.1c2.3 0 3.9 1.5 3.9 3.6 0 2.2-1.5 3.7-4.2 3.7h-1.2l5.8 5.2H254zm-5.9-6.6h3.8c1.7 0 2.6-.8 2.6-2.2 0-1.3-.9-2.1-2.4-2.1h-4v4.3zm11-5.9h5.5c4.3 0 6.5 2.6 6.5 6.2 0 3.7-2.5 6.3-7 6.3h-5V90zm5 10.9c3.3 0 5.2-1.7 5.2-4.7 0-2.7-1.5-4.6-4.8-4.6H261v9.3h3.1zm8.9-4.6c0-3.7 2.9-6.6 6.9-6.6s6.9 2.9 6.9 6.6-2.9 6.6-6.9 6.6-6.9-3-6.9-6.6zm11.9 0c0-2.8-2-4.9-5-4.9-3.1 0-5.1 2.1-5.1 4.9s2 4.9 5.1 4.9c3.1 0 5-2.1 5-4.9zm3.7 0c0-3.9 3-6.7 7.2-6.7 1.9 0 3.5.5 4.6 1.4v1.9c-1.2-.9-2.6-1.6-4.5-1.6-3.3 0-5.4 2.1-5.4 4.9 0 2.8 2.1 4.9 5.4 4.9 1.8 0 3.4-.6 4.6-1.7v1.8c-1.3 1.1-2.9 1.6-4.8 1.6-4.4.1-7.1-2.8-7.1-6.5zm23.1 6.2l-6.7-6.2v6.2h-1.8V90h1.8v5.5l6.6-5.5h2.5l-7.1 5.8 7.3 6.7h-2.6zm-138.3 21v1.7h-8.8v-12.5h1.8v10.8h7zm9.8-1.7h-5.9l-1.3 3.4h-1.9l5-12.5h2.4l4.9 12.5h-1.9l-1.3-3.4zm-.6-1.5l-2.4-6.1-2.4 6.1h4.8zm22.4-7.6l-3.6 12.5h-2.2l-3.2-10.9-3.3 10.9h-2.3l-3.4-12.5h1.9l2.7 10.6 3.2-10.6h2.4l3.1 10.6 2.8-10.6h1.9zm8.6 1.6v3.5h6.9v1.6h-6.9v5.8h-1.8v-12.5h9.2v1.6h-7.4zm10-1.6h1.8v12.5h-1.8v-12.5zm13.3 12.5l-6-5.7v5.7h-1.8v-12.5h6.1c2.3 0 3.9 1.5 3.9 3.6 0 2.2-1.5 3.7-4.2 3.7h-1.2l5.8 5.2h-2.6zm-6-6.6h3.8c1.7 0 2.6-.8 2.6-2.2 0-1.3-.9-2.1-2.4-2.1h-4v4.3zm24.2 6.6l-.9-11-4.1 11h-2L244 114l-.9 11.1h-1.7l1-12.5h2.8L249 123l3.9-10.4h2.7l1.2 12.5h-1.7z"/><path class="st1" d="M48.5 264.5h324V624h-324z"/><path class="st3" d="M71.3 359.1c0-3.9 2.7-6.7 6.6-6.7 1.7 0 3 .5 3.8 1.1v1.9c-.8-.7-2-1.4-3.8-1.4-3 0-4.8 2.1-4.8 5 0 2.8 1.9 5 4.9 5 1.6 0 2.9-.6 3.8-1.3v1.8c-1 .8-2.4 1.2-3.9 1.2-4.2 0-6.6-2.9-6.6-6.6zm19.6 2.9h-5l-1.1 3.3H83l4.3-12.6h2.4l4.3 12.6h-1.9l-1.2-3.3zm-.4-1.4l-2.1-6.2-2 6.2h4.1zm4.7 3.7v-1.8c1.1 1 2.4 1.6 3.9 1.6 1.6 0 2.4-.7 2.4-1.9 0-1-.5-1.5-2.3-2.2l-1.2-.5c-1.9-.8-2.8-1.9-2.8-3.5 0-2.1 1.5-3.5 4.1-3.5 1.7 0 2.9.6 3.5 1.2v1.9c-1-.9-2-1.5-3.5-1.5s-2.3.6-2.3 1.7c0 1 .7 1.5 2.1 2.2l1.3.6c2.1 1 3 2 3 3.5 0 2.2-1.6 3.7-4.2 3.7-1.3-.1-2.8-.5-4-1.5zm18.7-.5v1.6H106v-12.6h7.8v1.6h-6v3.6h5.7v1.5h-5.7v4.3h6.1zm6.7-4.4c0-3.8 1.8-6.3 4.6-6.3s4.6 2.4 4.6 6.3-1.8 6.2-4.6 6.2-4.6-2.4-4.6-6.2zm7.4 0c0-2.8-1-4.7-2.8-4.7-1.8 0-2.8 1.9-2.8 4.7 0 2.9 1 4.7 2.8 4.7 1.8-.1 2.8-1.9 2.8-4.7zm3.7 0c0-3.8 1.8-6.3 4.6-6.3s4.6 2.4 4.6 6.3-1.8 6.2-4.6 6.2-4.6-2.4-4.6-6.2zm7.5 0c0-2.8-1-4.7-2.8-4.7-1.8 0-2.8 1.9-2.8 4.7 0 2.9 1 4.7 2.8 4.7 1.7-.1 2.8-1.9 2.8-4.7zm8-6v12h-1.7v-10l-3.2 2.2v-1.7l3.5-2.5h1.4zm2.7 4.7c0-.7.5-1.1 1.1-1.1s1 .5 1.1 1.1c0 .6-.4 1.1-1.1 1.1-.7 0-1.1-.5-1.1-1.1zm0 6.3c0-.7.5-1.1 1.1-1.1s1 .5 1.1 1.1c0 .6-.4 1.1-1.1 1.1-.7.1-1.1-.4-1.1-1.1zm-75.7 12.8h1.6v8.1c0 3.2-1.6 4.2-3.7 4.2-.6 0-1.3-.1-1.7-.3l.2-1.3c.3.1.8.2 1.3.2 1.4 0 2.2-.6 2.2-3v-7.9zm12 7.7c0 3.2-2.2 4.6-4.3 4.6-2.4 0-4.2-1.7-4.2-4.5 0-2.9 1.9-4.6 4.3-4.6 2.5 0 4.2 1.9 4.2 4.5zm-6.9.1c0 1.9 1.1 3.3 2.6 3.3s2.6-1.4 2.6-3.4c0-1.5-.7-3.3-2.6-3.3-1.8 0-2.6 1.8-2.6 3.4zm8.9-2c0-.9 0-1.6-.1-2.4h1.4l.1 1.4c.4-.8 1.4-1.6 2.9-1.6 1.2 0 3.1.7 3.1 3.7v5.2H94v-5c0-1.4-.5-2.6-2-2.6-1 0-1.9.7-2.1 1.6-.1.2-.1.5-.1.7v5.2h-1.6V383zm10.9 2.3c0 2.1 1.4 3 3 3 1.1 0 1.8-.2 2.4-.5l.3 1.1c-.6.3-1.5.5-2.9.5-2.7 0-4.3-1.8-4.3-4.4s1.5-4.7 4.1-4.7c2.8 0 3.6 2.5 3.6 4.1 0 .3 0 .6-.1.7h-6.1zm4.6-1.1c0-1-.4-2.6-2.2-2.6-1.6 0-2.3 1.5-2.4 2.6h4.6zm3.3 3.5c.5.3 1.3.6 2.1.6 1.2 0 1.7-.6 1.7-1.3 0-.8-.5-1.2-1.6-1.6-1.6-.6-2.3-1.4-2.3-2.5 0-1.4 1.1-2.6 3-2.6.9 0 1.7.3 2.1.5l-.4 1.2c-.3-.2-1-.5-1.8-.5-.9 0-1.5.5-1.5 1.2s.5 1 1.7 1.5c1.5.6 2.3 1.3 2.3 2.6 0 1.5-1.2 2.6-3.3 2.6-1 0-1.8-.2-2.4-.6l.4-1.1zm11.8-7.1l1.7 4.9c.3.8.5 1.5.7 2.2h.1c.2-.7.5-1.4.7-2.2l1.7-4.9h1.7l-3.4 8.7h-1.5l-3.3-8.7h1.6zm7.7 7.1c.5.3 1.3.6 2.1.6 1.2 0 1.7-.6 1.7-1.3 0-.8-.5-1.2-1.6-1.6-1.6-.6-2.3-1.4-2.3-2.5 0-1.4 1.1-2.6 3-2.6.9 0 1.7.3 2.1.5l-.4 1.2c-.3-.2-1-.5-1.8-.5-.9 0-1.5.5-1.5 1.2s.5 1 1.7 1.5c1.5.6 2.3 1.3 2.3 2.6 0 1.5-1.2 2.6-3.3 2.6-1 0-1.8-.2-2.4-.6l.4-1.1zm11-.3c.7.4 1.7.8 2.8.8 1.6 0 2.5-.8 2.5-2.1 0-1.1-.6-1.8-2.3-2.4-2-.7-3.2-1.7-3.2-3.4 0-1.9 1.6-3.3 3.9-3.3 1.2 0 2.1.3 2.7.6l-.4 1.3c-.4-.2-1.2-.6-2.3-.6-1.7 0-2.3 1-2.3 1.8 0 1.1.7 1.7 2.4 2.3 2.1.8 3.1 1.8 3.1 3.6 0 1.9-1.4 3.5-4.2 3.5-1.2 0-2.4-.3-3.1-.8l.4-1.3zm9-4.4c0-.9 0-1.6-.1-2.4h1.4l.1 1.4h.1c.5-.8 1.3-1.6 2.7-1.6 1.2 0 2.1.7 2.5 1.7.3-.5.6-.9 1-1.1.5-.4 1.1-.6 1.9-.6 1.2 0 2.9.8 2.9 3.8v5.1h-1.5v-4.9c0-1.7-.6-2.7-1.9-2.7-.9 0-1.6.7-1.9 1.4-.1.2-.1.5-.1.8v5.4H152v-5.2c0-1.4-.6-2.4-1.8-2.4-1 0-1.7.8-2 1.6-.1.2-.1.5-.1.8v5.3h-1.5V383zm16.8-4.8c0 .5-.4 1-1 1s-1-.4-1-1 .4-1 1-1 1 .4 1 1zm-1.7 11.2v-8.7h1.6v8.7h-1.6zm6.1-11.3v2.5h2.3v1.2h-2.3v4.7c0 1.1.3 1.7 1.2 1.7.4 0 .7-.1.9-.1l.1 1.2c-.3.1-.8.2-1.4.2-.7 0-1.3-.2-1.7-.7-.5-.5-.6-1.2-.6-2.3v-4.8h-1.4v-1.2h1.4v-2.1l1.5-.3zm4-1.5h1.6v5.4c.3-.4.6-.8 1.1-1.1.5-.3 1-.4 1.6-.4 1.2 0 3 .7 3 3.7v5.2h-1.6v-5c0-1.4-.5-2.6-2-2.6-1 0-1.8.7-2.1 1.6-.1.2-.1.5-.1.8v5.3h-1.6v-12.9zM71.3 312.3c0-3.9 3-6.7 7.2-6.7 1.9 0 3.5.5 4.6 1.4v1.9c-1.2-.9-2.6-1.6-4.5-1.6-3.3 0-5.4 2.1-5.4 4.9 0 2.8 2.1 4.9 5.4 4.9 1.8 0 3.4-.6 4.6-1.7v1.8c-1.3 1.1-2.9 1.6-4.8 1.6-4.4.1-7.1-2.8-7.1-6.5zm22.2 2.8h-5.9l-1.3 3.4h-1.9l5-12.5h2.4l4.9 12.5h-1.9l-1.3-3.4zm-.5-1.5l-2.4-6.1-2.4 6.1H93zm5.1 3.7v-1.9c1.4 1.1 3 1.7 4.9 1.7 2 0 3.1-.7 3.1-2.1 0-.9-.5-1.4-2.2-1.9l-2.7-.7c-2.2-.6-3-1.8-3-3.2 0-2.1 1.8-3.6 4.9-3.6 2 0 3.4.6 4.4 1.3v1.8c-1.2-1-2.6-1.5-4.4-1.5-1.9 0-3.1.7-3.1 1.8 0 .8.5 1.3 1.9 1.7l2.8.7c2.4.7 3.3 1.8 3.3 3.4 0 2.3-1.9 3.8-4.9 3.8-1.9.2-3.7-.4-5-1.3zm21.8-.4v1.6h-9.3V306h9.2v1.6h-7.4v3.5h6.9v1.6h-6.9v4.2h7.5zM139 306v12.5h-2.4l-7.2-10.9v10.9h-1.7V306h2.6l7 10.6V306h1.7zm11.4 9.1h-5.9l-1.3 3.4h-1.9l5-12.5h2.4l4.9 12.5h-1.9l-1.3-3.4zm-.5-1.5l-2.4-6.1-2.4 6.1h4.8zm19.2 4.9l-.9-11-4.1 11h-2l-4.1-11.1-.9 11.1h-1.7l1-12.5h2.8l3.8 10.4 3.9-10.4h2.7l1.2 12.5h-1.7zm14.3-1.6v1.6h-9.3V306h9.2v1.6H176v3.5h6.9v1.6H176v4.2h7.4z"/><path class="st4" d="M227.8 366.5l-.6-9.3-3 9.3h-1.7l-2.9-9.3-.5 9.3h-1.4l.6-10.5h2.3l2.8 8.9 2.9-8.9h2.2l.8 10.5h-1.5zm10.6-1.3v1.3h-6.5V356h6.5v1.3h-5v3h4.7v1.3h-4.7v3.6h5zm7.9 1.3l-4.1-5v5h-1.5V356h4.1c1.9 0 3.2 1.3 3.2 3 0 1.8-1.3 3-3.4 3h-.3l3.9 4.5h-1.9zm-4.1-5.6h2.1c1.4 0 2.2-.7 2.2-1.8s-.7-1.7-1.9-1.7h-2.3v3.5zm7.9-4.9h1.5v10.5h-1.5V356zm10.9 1.3h-3.2v9.2h-1.5v-9.2h-3.1V356h7.7v1.3zm12.7-1.3l-3.8 10.5h-1.7l-3.8-10.5h1.6l3 8.9 3-8.9h1.7zm6.8 7.7h-4.2l-.9 2.8h-1.5l3.6-10.5h2l3.6 10.5h-1.5l-1.1-2.8zm-.4-1.2l-1.7-5.2-1.7 5.2h3.4zm11 2.6v1.4h-6.2V356h1.5v9.1h4.7zm1.6-9.1h1.5v10.5h-1.5V356zm4.4 0h3.6c3.3 0 5.1 2.1 5.1 5.2s-1.9 5.2-5.4 5.2h-3.3V356zm3.3 9.2c2.6 0 3.8-1.5 3.8-3.9s-1.1-3.9-3.7-3.9h-2v7.8h1.9zm12.9-1.5h-4.2l-.9 2.8h-1.5l3.6-10.5h2l3.6 10.5h-1.5l-1.1-2.8zm-.4-1.2l-1.7-5.2-1.7 5.2h3.4zm10.5-5.2h-3.2v9.2h-1.5v-9.2h-3.1V356h7.7v1.3zm8.3 7.9v1.3h-6.5V356h6.5v1.3h-5v3h4.7v1.3h-4.7v3.6h5zm2.3-9.2h3.6c3.3 0 5.1 2.1 5.1 5.2s-1.9 5.2-5.4 5.2H334V356zm3.2 9.2c2.6 0 3.8-1.5 3.8-3.9s-1.1-3.9-3.7-3.9h-2v7.8h1.9zm-109.4 91.3l-.6-9.3-3 9.3h-1.7l-2.9-9.3-.5 9.3h-1.4l.6-10.5h2.3l2.8 8.9 2.9-8.9h2.2l.8 10.5h-1.5zm10.6-1.3v1.3h-6.5V446h6.5v1.3h-5v3h4.7v1.3h-4.7v3.6h5zm7.9 1.3l-4.1-5v5h-1.5V446h4.1c1.9 0 3.2 1.3 3.2 3 0 1.8-1.3 3-3.4 3h-.3l3.9 4.5h-1.9zm-4.1-5.6h2.1c1.4 0 2.2-.7 2.2-1.8s-.7-1.7-1.9-1.7h-2.3v3.5zm7.9-4.9h1.5v10.5h-1.5V446zm10.9 1.3h-3.2v9.2h-1.5v-9.2h-3.1V446h7.7v1.3zm12.7-1.3l-3.8 10.5h-1.7l-3.8-10.5h1.6l3 8.9 3-8.9h1.7zm6.8 7.7h-4.2l-.9 2.8h-1.5l3.6-10.5h2l3.6 10.5h-1.5l-1.1-2.8zm-.4-1.2l-1.7-5.2-1.7 5.2h3.4zm11 2.6v1.4h-6.2V446h1.5v9.1h4.7zm1.6-9.1h1.5v10.5h-1.5V446zm4.4 0h3.6c3.3 0 5.1 2.1 5.1 5.2s-1.9 5.2-5.4 5.2h-3.3V446zm3.3 9.2c2.6 0 3.8-1.5 3.8-3.9s-1.1-3.9-3.7-3.9h-2v7.8h1.9zm12.9-1.5h-4.2l-.9 2.8h-1.5l3.6-10.5h2l3.6 10.5h-1.5l-1.1-2.8zm-.4-1.2l-1.7-5.2-1.7 5.2h3.4zm10.5-5.2h-3.2v9.2h-1.5v-9.2h-3.1V446h7.7v1.3zm8.3 7.9v1.3h-6.5V446h6.5v1.3h-5v3h4.7v1.3h-4.7v3.6h5zm2.3-9.2h3.6c3.3 0 5.1 2.1 5.1 5.2s-1.9 5.2-5.4 5.2H334V446zm3.2 9.2c2.6 0 3.8-1.5 3.8-3.9s-1.1-3.9-3.7-3.9h-2v7.8h1.9z"/><path class="st5" d="M238.5 536v10.5h-2l-5.2-9.1v9.1H230V536h2.2l5 8.8V536h1.3zm2.2 5.2c0-3.2 2.2-5.5 5.2-5.5s5.2 2.4 5.2 5.5-2.2 5.5-5.2 5.5-5.2-2.3-5.2-5.5zm9 0c0-2.4-1.4-4.2-3.7-4.2s-3.7 1.8-3.7 4.2 1.4 4.2 3.7 4.2 3.7-1.8 3.7-4.2zm9.8-3.9h-3.2v9.2h-1.5v-9.2h-3.1V536h7.7v1.3zm12.8-1.3l-3.8 10.5h-1.7L263 536h1.6l3 8.9 3-8.9h1.7zm6.7 7.7h-4.2l-.9 2.8h-1.5L276 536h2l3.6 10.5h-1.5l-1.1-2.8zm-.4-1.2l-1.7-5.2-1.7 5.2h3.4zm11 2.6v1.4h-6.2V536h1.5v9.1h4.7zm1.7-9.1h1.5v10.5h-1.5V536zm4.4 0h3.6c3.3 0 5.1 2.1 5.1 5.2s-1.9 5.2-5.4 5.2h-3.3V536zm3.2 9.2c2.6 0 3.8-1.5 3.8-3.9s-1.1-3.9-3.7-3.9h-2v7.8h1.9zm12.9-1.5h-4.2l-.9 2.8h-1.5l3.6-10.5h2l3.6 10.5h-1.5l-1.1-2.8zm-.4-1.2l-1.7-5.2-1.7 5.2h3.4zm10.5-5.2h-3.2v9.2h-1.5v-9.2h-3.1V536h7.7v1.3zm8.3 7.9v1.3h-6.5V536h6.5v1.3h-5v3h4.7v1.3h-4.7v3.6h5zm2.3-9.2h3.6c3.3 0 5.1 2.1 5.1 5.2s-1.9 5.2-5.4 5.2h-3.3V536zm3.3 9.2c2.6 0 3.8-1.5 3.8-3.9s-1.1-3.9-3.7-3.9h-2v7.8h1.9z"/><path class="st3" d="M71.3 539.2c0-3.9 2.7-6.7 6.6-6.7 1.7 0 3 .5 3.8 1.1v1.9c-.8-.7-2-1.4-3.8-1.4-3 0-4.8 2.1-4.8 5 0 2.8 1.9 5 4.9 5 1.6 0 2.9-.6 3.8-1.3v1.8c-1 .8-2.4 1.2-3.9 1.2-4.2 0-6.6-2.9-6.6-6.6zm19.6 2.9h-5l-1.1 3.3H83l4.3-12.6h2.4l4.3 12.6h-1.9l-1.2-3.3zm-.4-1.4l-2.1-6.2-2 6.2h4.1zm4.7 3.7v-1.8c1.1 1 2.4 1.6 3.9 1.6 1.6 0 2.4-.7 2.4-1.9 0-1-.5-1.5-2.3-2.3l-1.2-.5c-1.9-.8-2.8-1.9-2.8-3.5 0-2.1 1.5-3.5 4.1-3.5 1.7 0 2.9.6 3.5 1.2v1.9c-1-.9-2-1.5-3.5-1.5s-2.3.6-2.3 1.7c0 1 .7 1.5 2.1 2.2l1.3.6c2.1 1 3 2 3 3.5 0 2.2-1.6 3.7-4.2 3.7-1.3 0-2.8-.4-4-1.4zm18.7-.5v1.6H106v-12.6h7.8v1.6h-6v3.6h5.7v1.5h-5.7v4.3h6.1zm6.7-4.4c0-3.8 1.8-6.3 4.6-6.3s4.6 2.4 4.6 6.3-1.8 6.2-4.6 6.2c-2.8.1-4.6-2.3-4.6-6.2zm7.4 0c0-2.8-1-4.7-2.8-4.7-1.8 0-2.8 1.9-2.8 4.7 0 2.9 1 4.7 2.8 4.7 1.8 0 2.8-1.8 2.8-4.7zm3.7 0c0-3.8 1.8-6.3 4.6-6.3s4.6 2.4 4.6 6.3-1.8 6.2-4.6 6.2c-2.8.1-4.6-2.3-4.6-6.2zm7.5 0c0-2.8-1-4.7-2.8-4.7-1.8 0-2.8 1.9-2.8 4.7 0 2.9 1 4.7 2.8 4.7 1.7 0 2.8-1.8 2.8-4.7zm11.3 2.5c0 2.1-1.7 3.7-4.3 3.7-1.3 0-2.3-.3-3.3-.9v-1.7c.6.6 1.5 1.1 3.1 1.1 1.7 0 2.8-.9 2.8-2.2 0-1-.6-2-2.6-2h-2.4l.2-1.4h2.1c1.7 0 2.3-.9 2.3-2s-.8-1.8-2.5-1.8c-1.5 0-2.5.6-2.9 1.1v-1.7c1-.6 2-1 3.2-1 2.4 0 3.9 1.3 3.9 3.1 0 1.3-.7 2.4-2 2.7 1.5.4 2.4 1.6 2.4 3zm1.9-3.8c0-.7.5-1.1 1.1-1.1s1 .5 1.1 1.1c0 .6-.4 1.1-1.1 1.1-.7 0-1.1-.5-1.1-1.1zm0 6.4c0-.7.5-1.1 1.1-1.1s1 .5 1.1 1.1c0 .6-.4 1.1-1.1 1.1-.7 0-1.1-.5-1.1-1.1zM81 568.9c-.7.3-2.1.7-3.7.7-1.8 0-3.3-.5-4.5-1.6-1-1-1.7-2.6-1.7-4.5 0-3.6 2.5-6.3 6.6-6.3 1.4 0 2.5.3 3 .6l-.4 1.3c-.6-.3-1.5-.5-2.7-.5-3 0-4.9 1.8-4.9 4.9 0 3.1 1.9 4.9 4.7 4.9 1 0 1.7-.1 2.1-.3v-3.6H77v-1.3h4v5.7zm10.3-3.8c0 3.2-2.2 4.6-4.3 4.6-2.4 0-4.2-1.7-4.2-4.5 0-2.9 1.9-4.6 4.3-4.6 2.5 0 4.2 1.8 4.2 4.5zm-6.9 0c0 1.9 1.1 3.3 2.6 3.3s2.6-1.4 2.6-3.4c0-1.5-.7-3.3-2.6-3.3-1.8.1-2.6 1.8-2.6 3.4zm16.8 0c0 3.2-2.2 4.6-4.3 4.6-2.4 0-4.2-1.7-4.2-4.5 0-2.9 1.9-4.6 4.3-4.6 2.5 0 4.2 1.8 4.2 4.5zm-6.9 0c0 1.9 1.1 3.3 2.6 3.3s2.6-1.4 2.6-3.4c0-1.5-.7-3.3-2.6-3.3-1.8.1-2.6 1.8-2.6 3.4zm16.4-8.4v10.5c0 .8 0 1.7.1 2.3h-1.4l-.1-1.5c-.5 1-1.5 1.7-3 1.7-2.1 0-3.7-1.8-3.7-4.4 0-2.9 1.8-4.7 3.9-4.7 1.3 0 2.2.6 2.6 1.3v-5.2h1.6zm-1.6 7.6c0-.2 0-.5-.1-.7-.2-1-1.1-1.8-2.3-1.8-1.6 0-2.6 1.4-2.6 3.4 0 1.8.9 3.2 2.6 3.2 1.1 0 2-.7 2.3-1.9.1-.2.1-.4.1-.7v-1.5zm4.2-1.2c0-.9 0-1.6-.1-2.4h1.4l.1 1.4h.1c.5-.8 1.3-1.6 2.7-1.6 1.2 0 2.1.7 2.5 1.7.3-.5.6-.9 1-1.1.5-.4 1.1-.6 1.9-.6 1.2 0 2.9.8 2.9 3.8v5.1h-1.5v-4.9c0-1.7-.6-2.7-1.9-2.7-.9 0-1.6.7-1.9 1.4-.1.2-.1.5-.1.8v5.4h-1.5v-5.2c0-1.4-.6-2.4-1.8-2.4-1 0-1.7.8-2 1.6-.1.2-.1.5-.1.8v5.3h-1.5v-6.4zm19.9 6.4l-.1-1.1h-.1c-.5.7-1.4 1.3-2.7 1.3-1.8 0-2.7-1.2-2.7-2.5 0-2.1 1.9-3.3 5.2-3.2v-.2c0-.7-.2-2-2-2-.8 0-1.7.3-2.3.6l-.4-1c.7-.5 1.8-.8 2.9-.8 2.7 0 3.3 1.8 3.3 3.6v3.3c0 .8 0 1.5.1 2.1h-1.2zm-.3-4.5c-1.7 0-3.7.3-3.7 2 0 1 .7 1.5 1.5 1.5 1.1 0 1.9-.7 2.1-1.5.1-.2.1-.3.1-.5V565zm4.1-1.9c0-.9 0-1.6-.1-2.4h1.4l.1 1.4c.4-.8 1.4-1.6 2.9-1.6 1.2 0 3.1.7 3.1 3.7v5.2h-1.6v-5c0-1.4-.5-2.6-2-2.6-1 0-1.9.7-2.1 1.6-.1.2-.1.5-.1.7v5.2H137v-6.2zm14.4-2.3l1.7 4.9c.3.8.5 1.5.7 2.2h.1c.2-.7.5-1.4.7-2.2l1.7-4.9h1.7l-3.4 8.7H153l-3.3-8.7h1.7zm7.7 7.1c.5.3 1.3.6 2.1.6 1.2 0 1.7-.6 1.7-1.3 0-.8-.5-1.2-1.6-1.6-1.6-.6-2.3-1.4-2.3-2.5 0-1.4 1.1-2.6 3-2.6.9 0 1.7.3 2.1.5l-.4 1.2c-.3-.2-1-.5-1.8-.5-.9 0-1.5.5-1.5 1.2s.5 1 1.7 1.5c1.5.6 2.3 1.3 2.3 2.6 0 1.5-1.2 2.6-3.3 2.6-1 0-1.8-.2-2.4-.6l.4-1.1zm11.3-10.4c.8-.2 1.9-.3 3-.3 1.7 0 2.8.3 3.5 1 .6.5 1 1.4 1 2.3 0 1.6-1 2.7-2.3 3.1v.1c.9.3 1.5 1.2 1.8 2.4.4 1.7.7 2.9.9 3.3h-1.6c-.2-.3-.5-1.4-.8-2.9-.4-1.7-1-2.3-2.4-2.4H172v5.3h-1.6v-11.9zm1.5 5.5h1.6c1.7 0 2.7-.9 2.7-2.3 0-1.6-1.1-2.2-2.8-2.3-.8 0-1.3.1-1.5.1v4.5zm13.1 6.5l-.1-1.1h-.1c-.5.7-1.4 1.3-2.7 1.3-1.8 0-2.7-1.2-2.7-2.5 0-2.1 1.9-3.3 5.2-3.2v-.2c0-.7-.2-2-2-2-.8 0-1.7.3-2.3.6l-.4-1c.7-.5 1.8-.8 2.9-.8 2.7 0 3.3 1.8 3.3 3.6v3.3c0 .8 0 1.5.1 2.1H185zm-.2-4.5c-1.7 0-3.7.3-3.7 2 0 1 .7 1.5 1.5 1.5 1.1 0 1.9-.7 2.1-1.5.1-.2.1-.3.1-.5V565zm11.6-8.3v10.5c0 .8 0 1.7.1 2.3h-1.4l-.1-1.5c-.5 1-1.5 1.7-3 1.7-2.1 0-3.7-1.8-3.7-4.4 0-2.9 1.8-4.7 3.9-4.7 1.3 0 2.2.6 2.6 1.3v-5.2h1.6zm-1.6 7.6c0-.2 0-.5-.1-.7-.2-1-1.1-1.8-2.3-1.8-1.6 0-2.6 1.4-2.6 3.4 0 1.8.9 3.2 2.6 3.2 1.1 0 2-.7 2.3-1.9.1-.2.1-.4.1-.7v-1.5zm6-6c0 .5-.4 1-1 1s-1-.4-1-1 .4-1 1-1 1 .5 1 1zm-1.8 11.2v-8.7h1.6v8.7H199zm9.1 0l-.1-1.1h-.1c-.5.7-1.4 1.3-2.7 1.3-1.8 0-2.7-1.2-2.7-2.5 0-2.1 1.9-3.3 5.2-3.2v-.2c0-.7-.2-2-2-2-.8 0-1.7.3-2.3.6l-.4-1c.7-.5 1.8-.8 2.9-.8 2.7 0 3.3 1.8 3.3 3.6v3.3c0 .8 0 1.5.1 2.1h-1.2zm-.3-4.5c-1.7 0-3.7.3-3.7 2 0 1 .7 1.5 1.5 1.5 1.1 0 1.9-.7 2.1-1.5.1-.2.1-.3.1-.5V565zm4.1-8.3h1.6v12.8h-1.6v-12.8zm16.6 12.4c-.6.3-1.7.6-3.2.6-3.4 0-6-2.2-6-6.1 0-3.8 2.6-6.4 6.3-6.4 1.5 0 2.5.3 2.9.5l-.4 1.3c-.6-.3-1.4-.5-2.4-.5-2.8 0-4.7 1.8-4.7 5 0 3 1.7 4.9 4.7 4.9 1 0 1.9-.2 2.6-.5l.2 1.2zm9.6-4c0 3.2-2.2 4.6-4.3 4.6-2.4 0-4.2-1.7-4.2-4.5 0-2.9 1.9-4.6 4.3-4.6 2.5 0 4.2 1.8 4.2 4.5zm-6.9 0c0 1.9 1.1 3.3 2.6 3.3s2.6-1.4 2.6-3.4c0-1.5-.7-3.3-2.6-3.3s-2.6 1.8-2.6 3.4zm8.1 3.4c0-.7.4-1.1 1.1-1.1.6 0 1.1.5 1.1 1.1 0 .6-.4 1.1-1.1 1.1-.7.1-1.1-.4-1.1-1.1zm-166-119.4c0-3.9 2.7-6.7 6.6-6.7 1.7 0 3 .5 3.8 1.1v1.9c-.8-.7-2-1.4-3.8-1.4-3 0-4.8 2.1-4.8 5 0 2.8 1.9 5 4.9 5 1.6 0 2.9-.6 3.8-1.3v1.8c-1 .8-2.4 1.2-3.9 1.2-4.1 0-6.6-2.9-6.6-6.6zM93 452h-5l-1.1 3.3h-1.8l4.3-12.6h2.4l4.3 12.6h-1.9L93 452zm-.4-1.4l-2.1-6.2-2 6.2h4.1zm4.7 3.7v-1.8c1.1 1 2.4 1.6 3.9 1.6 1.6 0 2.4-.7 2.4-1.9 0-1-.5-1.5-2.3-2.2l-1.2-.5c-1.9-.8-2.8-1.9-2.8-3.5 0-2.1 1.5-3.5 4.1-3.5 1.7 0 2.9.6 3.5 1.2v1.9c-1-.9-2-1.5-3.5-1.5s-2.3.6-2.3 1.7c0 1 .7 1.5 2.1 2.2l1.3.6c2.1 1 3 2 3 3.5 0 2.2-1.6 3.7-4.2 3.7-1.3-.1-2.8-.5-4-1.5zm18.7-.5v1.6h-7.9v-12.6h7.8v1.6h-6v3.6h5.7v1.5h-5.7v4.3h6.1zm6.7-4.4c0-3.8 1.8-6.3 4.6-6.3s4.6 2.4 4.6 6.3-1.8 6.2-4.6 6.2c-2.9 0-4.6-2.4-4.6-6.2zm7.4 0c0-2.8-1-4.7-2.8-4.7-1.8 0-2.8 1.9-2.8 4.7 0 2.9 1 4.7 2.8 4.7 1.8-.1 2.8-1.9 2.8-4.7zm3.7 0c0-3.8 1.8-6.3 4.6-6.3s4.6 2.4 4.6 6.3-1.8 6.2-4.6 6.2-4.6-2.4-4.6-6.2zm7.4 0c0-2.8-1-4.7-2.8-4.7-1.8 0-2.8 1.9-2.8 4.7 0 2.9 1 4.7 2.8 4.7 1.8-.1 2.8-1.9 2.8-4.7zm11.2 4.4v1.6H145V454l3.6-3.5c1.4-1.4 1.9-2.4 1.9-3.4 0-1.3-.9-2.2-2.5-2.2-1.4 0-2.4.6-3.1 1.4v-1.8c.9-.8 2-1.2 3.4-1.2 2.4 0 3.9 1.5 3.9 3.6 0 1.5-.7 2.8-2.2 4.3l-2.9 2.7h5.3zm1.9-5.7c0-.7.5-1.1 1.1-1.1s1 .5 1.1 1.1c0 .6-.4 1.1-1.1 1.1-.7 0-1.1-.5-1.1-1.1zm0 6.3c0-.7.5-1.1 1.1-1.1s1 .5 1.1 1.1c0 .6-.4 1.1-1.1 1.1-.7.1-1.1-.4-1.1-1.1zm-78.5 25l-3.1-12.1h1.7l1.4 6.1c.4 1.5.7 3 .9 4.2.2-1.2.6-2.6 1-4.2l1.6-6.1H81l1.5 6.2c.3 1.4.7 2.9.8 4.2.3-1.3.6-2.7 1-4.2l1.6-6.1h1.6l-3.4 12.1h-1.6l-1.5-6.3c-.4-1.5-.6-2.7-.8-4-.2 1.2-.5 2.4-.9 4l-1.7 6.3h-1.8zm20.5-4.5c0 3.2-2.2 4.6-4.3 4.6-2.4 0-4.2-1.7-4.2-4.5 0-2.9 1.9-4.6 4.3-4.6 2.5 0 4.2 1.9 4.2 4.5zm-6.9.1c0 1.9 1.1 3.3 2.6 3.3s2.6-1.4 2.6-3.4c0-1.5-.7-3.3-2.6-3.3-1.8 0-2.6 1.8-2.6 3.4zm8.9-8.4h1.6v12.8h-1.6v-12.8zm4.4 12.8v-7.5h-1.2v-1.2h1.2v-.4c0-1.2.3-2.3 1-3 .6-.6 1.4-.8 2.1-.8.6 0 1 .1 1.4.3l-.2 1.2c-.2-.1-.6-.2-1-.2-1.4 0-1.7 1.2-1.7 2.5v.5h2.1v1.2h-2.1v7.5h-1.6zm5.1-6c0-1 0-1.9-.1-2.7h1.4l.1 1.7h.1c.4-1.2 1.4-1.9 2.4-1.9.2 0 .3 0 .5.1v1.5c-.2 0-.3-.1-.5-.1-1.1 0-1.9.8-2.1 2 0 .2-.1.5-.1.7v4.6h-1.6v-5.9zm10.6 6l-.1-1.1h-.1c-.5.7-1.4 1.3-2.7 1.3-1.8 0-2.7-1.2-2.7-2.5 0-2.1 1.9-3.3 5.2-3.2v-.2c0-.7-.2-2-2-2-.8 0-1.7.3-2.3.6l-.4-1c.7-.5 1.8-.8 2.9-.8 2.7 0 3.3 1.8 3.3 3.6v3.3c0 .8 0 1.5.1 2.1h-1.2zm-.2-4.5c-1.7 0-3.7.3-3.7 2 0 1 .7 1.5 1.5 1.5 1.1 0 1.9-.7 2.1-1.5.1-.2.1-.3.1-.5v-1.5zm4.1-1.9c0-.9 0-1.6-.1-2.4h1.4l.1 1.4h.1c.5-.8 1.3-1.6 2.7-1.6 1.2 0 2.1.7 2.5 1.7.3-.5.6-.9 1-1.1.5-.4 1.1-.6 1.9-.6 1.2 0 2.9.8 2.9 3.8v5.1h-1.5v-4.9c0-1.7-.6-2.7-1.9-2.7-.9 0-1.6.7-1.9 1.4-.1.2-.1.5-.1.8v5.4h-1.5v-5.2c0-1.4-.6-2.4-1.8-2.4-1 0-1.7.8-2 1.6-.1.2-.1.5-.1.8v5.3h-1.5V473zm19.4-2.4l1.7 4.9c.3.8.5 1.5.7 2.2h.1c.2-.7.5-1.4.7-2.2l1.7-4.9h1.7l-3.4 8.7h-1.5l-3.3-8.7h1.6zm7.7 7.1c.5.3 1.3.6 2.1.6 1.2 0 1.7-.6 1.7-1.3 0-.8-.5-1.2-1.6-1.6-1.6-.6-2.3-1.4-2.3-2.5 0-1.4 1.1-2.6 3-2.6.9 0 1.7.3 2.1.5l-.4 1.2c-.3-.2-1-.5-1.8-.5-.9 0-1.5.5-1.5 1.2s.5 1 1.7 1.5c1.5.6 2.3 1.3 2.3 2.6 0 1.5-1.2 2.6-3.3 2.6-1 0-1.8-.2-2.4-.6l.4-1.1zm12.8-10.5v5.1h5.9v-5.1h1.6v12.1h-1.6v-5.7h-5.9v5.7h-1.6v-12.1h1.6zm11 8.1c0 2.1 1.4 3 3 3 1.1 0 1.8-.2 2.4-.5l.3 1.1c-.6.3-1.5.5-2.9.5-2.7 0-4.3-1.8-4.3-4.4s1.5-4.7 4.1-4.7c2.8 0 3.6 2.5 3.6 4.1 0 .3 0 .6-.1.7h-6.1zm4.7-1.1c0-1-.4-2.6-2.2-2.6-1.6 0-2.3 1.5-2.4 2.6h4.6zm8.3 5.2l-.1-1.1h-.1c-.5.7-1.4 1.3-2.7 1.3-1.8 0-2.7-1.2-2.7-2.5 0-2.1 1.9-3.3 5.2-3.2v-.2c0-.7-.2-2-2-2-.8 0-1.7.3-2.3.6l-.4-1c.7-.5 1.8-.8 2.9-.8 2.7 0 3.3 1.8 3.3 3.6v3.3c0 .8 0 1.5.1 2.1h-1.2zm-.3-4.5c-1.7 0-3.7.3-3.7 2 0 1 .7 1.5 1.5 1.5 1.1 0 1.9-.7 2.1-1.5.1-.2.1-.3.1-.5v-1.5zm4.1-1.5c0-1 0-1.9-.1-2.7h1.4l.1 1.7h.1c.4-1.2 1.4-1.9 2.4-1.9.2 0 .3 0 .4.1v1.5c-.2 0-.3-.1-.5-.1-1.1 0-1.9.8-2.1 2 0 .2-.1.5-.1.7v4.6H190v-5.9zm8.2-5.3v2.5h2.3v1.2h-2.3v4.7c0 1.1.3 1.7 1.2 1.7.4 0 .7-.1.9-.1l.1 1.2c-.3.1-.8.2-1.4.2-.7 0-1.3-.2-1.7-.7-.5-.5-.6-1.2-.6-2.3v-4.8h-1.4v-1.2h1.4v-2.1l1.5-.3z"/><path class="st5" d="M331 558.5h11.5v12H331z"/><path class="st4" d="M330.5 468.5h12v12h-12zm0-90h12v12h-12z"/></svg>