<svg version="1.1" id="Layer_1" xmlns="http://www.w3.org/2000/svg" x="0" y="0" viewBox="0 0 600.7 347.7" xml:space="preserve"><style>.st0,.st4{fill:#fff}.st4{stroke:#3d54a4;stroke-miterlimit:10}.st5{fill:#44b6e2}</style><path class="st0" d="M36.1 35.4h528v131.8h-528zm0 144h528v131.8h-528z"/><path d="M69.3 72.2h-3.8v11h-1.7v-11h-3.7v-1.6h9.2v1.6zm7.8 6.8h-6.5c.1 1.9 1.4 3 3.3 3 1.1 0 2.2-.4 2.9-1v1.6c-.7.5-1.9.9-3.1.9-2.9 0-4.8-1.9-4.8-4.8 0-2.7 1.6-4.7 4.4-4.7 2.3 0 3.9 1.4 3.9 3.9V79zm-6.5-1.2h4.9c0-1.5-.9-2.3-2.3-2.3-1.5-.1-2.3.9-2.6 2.3zm8.1.9c0-2.7 1.9-4.7 4.7-4.7 1.3 0 2.2.3 2.8.7v1.8c-.8-.7-1.7-1-2.7-1-1.9 0-3.1 1.3-3.1 3.2 0 1.9 1.1 3.3 3.3 3.3 1 0 2-.4 2.6-.9v1.6c-.9.6-1.8.8-2.9.8-2.8 0-4.7-2.1-4.7-4.8zm17.5-1.1v5.6h-1.7v-5.3c0-1.8-.6-2.5-2-2.5-1.5 0-2.4 1.1-2.4 3v4.9h-1.7v-13h1.7v5.4c.5-1.1 1.5-1.7 3-1.7 1.9-.1 3.1 1.3 3.1 3.6zm10.4 0v5.6H105v-5.3c0-1.8-.6-2.5-2-2.5-1.5 0-2.4 1.1-2.4 3v4.9h-1.7v-9h1.7v1.5c.5-1.2 1.6-1.8 3-1.8 1.8-.1 3 1.3 3 3.6zm2.5-6.1c0-.6.5-1 1.1-1s1.1.5 1.1 1c0 .6-.5 1.1-1.1 1.1s-1.1-.5-1.1-1.1zm.2 2.7h1.7v9h-1.7v-9zm3.9 4.5c0-2.7 1.9-4.7 4.7-4.7 1.3 0 2.2.3 2.8.7v1.8c-.8-.7-1.7-1-2.7-1-1.9 0-3.1 1.3-3.1 3.2 0 1.9 1.1 3.3 3.3 3.3 1 0 2-.4 2.6-.9v1.6c-.9.6-1.8.8-2.9.8-2.8 0-4.7-2.1-4.7-4.8zm16.5-1v5.5H128V82c-.5.9-1.4 1.5-2.6 1.5-1.8 0-3.1-1.3-3.1-3s1.3-2.9 3.3-2.9c1.2 0 2 .5 2.4 1.1v-.8c0-1.6-1-2.5-2.4-2.5-1.1 0-2 .4-2.8 1.2V75c.8-.6 1.7-1 3-1 2.4-.1 3.9 1.4 3.9 3.7zm-1.7 2.7c0-.9-.8-1.6-2-1.6-1.3 0-2 .6-2 1.7 0 1 .7 1.7 2 1.7 1.2 0 2-.8 2-1.8zm4.4-10.1h1.7v13h-1.7v-13zm16.6 1.9h-3.8v11h-1.7v-11h-3.7v-1.6h9.2v1.6zm7.8 6.8h-6.5c.1 1.9 1.4 3 3.3 3 1.1 0 2.2-.4 2.9-1v1.6c-.7.5-1.9.9-3.1.9-2.9 0-4.8-1.9-4.8-4.8 0-2.7 1.6-4.7 4.4-4.7 2.3 0 3.9 1.4 3.9 3.9V79zm-6.5-1.2h4.9c0-1.5-.9-2.3-2.3-2.3-1.5-.1-2.3.9-2.6 2.3zm13.7-3.3v1.6c-.4-.3-.9-.4-1.4-.4-1.1 0-1.9 1-1.9 2.8v4.8H159v-9h1.7V76c.4-1.3 1.2-1.9 2.2-1.9.4 0 .8.1 1.1.4zm14 2.8v5.9h-1.7v-5.7c0-1.5-.6-2.2-1.7-2.2s-1.9.8-1.9 2v5.8H171v-5.8c0-1.3-.6-2-1.7-2s-1.9 1-1.9 2.3v5.5h-1.7v-9h1.7v1.5c.5-1.2 1.4-1.8 2.5-1.8 1.2 0 2.1.6 2.5 1.7.5-1.1 1.4-1.7 2.6-1.7 1.9.1 3 1.4 3 3.5zm2.1 5.1v-1.6c.9.8 2 1.2 3.1 1.2 1.2 0 1.9-.5 1.9-1.3 0-.5-.3-1-1.1-1.2l-1.7-.5c-1.5-.5-2.1-1.3-2.1-2.4 0-1.5 1.3-2.5 3.3-2.5 1.2 0 2.1.4 2.9.8v1.6c-.8-.7-1.8-1-2.8-1-1.1 0-1.7.4-1.7 1 0 .5.4 1 1.1 1.2l1.6.5c1.6.5 2.3 1.4 2.3 2.6 0 1.7-1.4 2.8-3.3 2.8-1.5-.1-2.5-.5-3.5-1.2zM71.3 225.9l2 2.2h-2.1l-1.2-1.3c-.9.5-1.9.7-3 .7-3.7 0-6.3-2.9-6.3-6.7 0-3.8 2.6-6.7 6.3-6.7 3.7 0 6.3 2.9 6.3 6.7 0 2.2-.7 3.9-2 5.1zm-2.5-.3l-2.8-3h2.1l2 2.1c.9-.9 1.4-2.2 1.4-3.8 0-2.8-1.7-5-4.5-5s-4.5 2.1-4.5 5 1.7 5 4.5 5c.7 0 1.3-.1 1.8-.3zm6.3-5.7c0-.7.5-1.1 1.1-1.1s1 .5 1.1 1.1c0 .6-.4 1.1-1.1 1.1-.7.1-1.1-.4-1.1-1.1zm0 6.4c0-.7.5-1.1 1.1-1.1s1 .5 1.1 1.1c0 .6-.4 1.1-1.1 1.1-.7 0-1.1-.5-1.1-1.1zm-11.9 45.1l-1.3 3.8h-1.6l4.1-12.1h1.9l4.1 12.1h-1.7l-1.3-3.8h-4.2zm3.9-1.2l-1.2-3.5c-.3-.8-.5-1.5-.6-2.2-.2.7-.4 1.5-.6 2.2l-1.2 3.5h3.6zm4.7-2.3c0-.7.5-1.1 1.1-1.1s1 .5 1.1 1.1c0 .6-.4 1.1-1.1 1.1-.7.1-1.1-.4-1.1-1.1zm0 6.4c0-.7.5-1.1 1.1-1.1s1 .5 1.1 1.1c0 .6-.4 1.1-1.1 1.1-.7 0-1.1-.5-1.1-1.1z" fill="#1e305e"/><path fill="none" stroke="#1e305e" stroke-miterlimit="10" d="M.5.5h599.7v346.7H.5z"/><path d="M95.8 209.2h444.3v24H95.8zm0 48h444.3v24H95.8z" fill="none" stroke="#3d54a4" stroke-miterlimit="10"/><circle class="st4" cx="131.8" cy="221.2" r="19.5"/><circle class="st4" cx="275.8" cy="221.2" r="19.5"/><circle class="st4" cx="371.8" cy="269.2" r="19.5"/><circle class="st4" cx="419.8" cy="269.2" r="19.5"/><circle class="st4" cx="467.8" cy="269.2" r="19.5"/><path transform="rotate(-45.001 131.904 221.217)" class="st5" d="M125.9 215.2h12v12h-12z"/><path transform="rotate(-90 275.834 221.214)" class="st5" d="M269.8 215.2h12v12h-12z"/><path class="st5" d="M377.9 269.2c0 3.3-2.7 6-6 6s-6-2.7-6-6 2.7-6 6-6 6 2.7 6 6z"/><circle class="st5" cx="152.7" cy="130.4" r="14.2"/><path transform="rotate(-45.001 152.687 130.377)" class="st0" d="M147 124.7h11.4v11.4H147z"/><circle class="st5" cx="198.8" cy="130.4" r="14.2"/><path transform="rotate(-90 198.798 130.374)" class="st0" d="M193.1 124.7h11.4v11.4h-11.4z"/><circle class="st5" cx="106.6" cy="130.4" r="14.2"/><path class="st0" d="M112.3 130.4c0 3.1-2.5 5.7-5.7 5.7-3.1 0-5.7-2.5-5.7-5.7 0-3.1 2.5-5.7 5.7-5.7 3.1 0 5.7 2.5 5.7 5.7z"/><circle class="st5" cx="290.7" cy="130.4" r="14.2"/><path transform="rotate(-45.001 290.703 130.378)" class="st0" d="M285 124.7h11.4v11.4H285z"/><circle class="st5" cx="336.8" cy="130.4" r="14.2"/><path transform="rotate(-90 336.814 130.374)" class="st0" d="M331.1 124.7h11.4v11.4h-11.4z"/><circle class="st5" cx="244.6" cy="130.4" r="14.2"/><path class="st0" d="M250.3 130.4c0 3.1-2.5 5.7-5.7 5.7-3.1 0-5.7-2.5-5.7-5.7 0-3.1 2.5-5.7 5.7-5.7 3.1 0 5.7 2.5 5.7 5.7z"/><circle class="st5" cx="429.3" cy="130.4" r="14.2"/><path transform="rotate(-45.001 429.35 130.38)" class="st0" d="M423.7 124.7h11.4v11.4h-11.4z"/><circle class="st5" cx="475.5" cy="130.4" r="14.2"/><path transform="rotate(-90 475.46 130.374)" class="st0" d="M469.8 124.7h11.4v11.4h-11.4z"/><circle class="st5" cx="383.2" cy="130.4" r="14.2"/><path class="st0" d="M388.9 130.4c0 3.1-2.5 5.7-5.7 5.7-3.1 0-5.7-2.5-5.7-5.7 0-3.1 2.5-5.7 5.7-5.7s5.7 2.5 5.7 5.7z"/><circle class="st5" cx="521.6" cy="130.4" r="14.2"/><path class="st0" d="M527.3 130.4c0 3.1-2.5 5.7-5.7 5.7-3.1 0-5.7-2.5-5.7-5.7 0-3.1 2.5-5.7 5.7-5.7 3.1 0 5.7 2.5 5.7 5.7z"/><path transform="rotate(-45.001 419.833 269.226)" class="st5" d="M413.8 263.2h12v12h-12z"/><path transform="rotate(-90 467.834 268.927)" class="st5" d="M461.8 262.9h12v12h-12z"/></svg>