<svg version="1.1" id="Layer_1" xmlns="http://www.w3.org/2000/svg" x="0" y="0" viewBox="0 0 660.6 441.5" xml:space="preserve"><style>.st1{fill:#1e305e}.st3,.st5{fill:#fff;stroke:#3d54a4;stroke-miterlimit:10}.st5{fill:none}</style><path opacity=".25" fill="#f6f6f6" d="M.6 42.8h658.6V441H.6z"/><ellipse class="st1" cx="25.3" cy="22.3" rx="3.6" ry="3.6"/><ellipse class="st1" cx="39.8" cy="22.3" rx="3.6" ry="3.6"/><ellipse class="st1" cx="54.3" cy="22.3" rx="3.6" ry="3.6"/><path fill="none" stroke="#1e305e" stroke-miterlimit="10" d="M.6 42.5l660 .2"/><path class="st1" d="M659.5 1v439.5H1V1h658.5m1-1H0v441.5h660.5V0z"/><path class="st3" d="M61.7 83.3h538.9V441H61.7z"/><path class="st3" d="M61.7 83.6h538.9v15.2H61.7z"/><path fill="#f8f8f8" stroke="#3d54a4" stroke-miterlimit="10" d="M33.6 98.8h73.1v87.1H33.6z"/><path class="st5" d="M66.1 136.2v14.1h-6.7l10.7 15.6 10.7-15.6H74v-14.1z"/><path class="st5" d="M92.6 162.8v10H46.9v-10"/><path d="M49.2 132.2h-20c-5.7 0-10.3-4.6-10.3-10.3 0-5.7 4.6-10.3 10.3-10.3h19.9c5.7 0 10.3 4.6 10.3 10.3 0 5.7-4.6 10.3-10.2 10.3z" fill="#3d54a4"/><path class="st1" d="M197.2 150.5h6.5c6 0 9.2 3.8 9.2 9.3s-3.4 9.3-9.8 9.3h-6v-18.6zm6 16.2c4.7 0 7-2.7 7-6.9s-2-6.9-6.7-6.9h-3.6v13.9h3.3zm20.7-10.5v2.3c-.7-.5-1.4-.6-2.2-.6-1.6 0-2.9 1.5-2.9 4.1v7.1h-2.5v-13.3h2.5v2.6c.6-1.9 1.8-2.9 3.3-2.9.7 0 1.3.2 1.8.7zm.4 11.4c0-1 .8-1.8 1.9-1.8 1.1 0 1.8.8 1.8 1.8 0 1.1-.8 1.8-1.8 1.8-1.1 0-1.9-.7-1.9-1.8zm12 1V166c.7.6 1.7 1.1 3.4 1.1 1.8 0 3-1.1 3-3.5v-13.1h2.7v13.3c0 3.9-2.3 5.8-5.5 5.8-1.6 0-2.9-.5-3.6-1zm12.4-6.2c0-4 2.6-7 6.7-7s6.7 3.1 6.7 7c0 4-2.6 7-6.7 7s-6.7-3-6.7-7zm10.8 0c0-2.8-1.5-4.8-4.1-4.8-2.6 0-4.1 2-4.1 4.8s1.5 4.8 4.1 4.8c2.6 0 4.1-2 4.1-4.8zm17.7-1.7v8.3h-2.5v-7.8c0-2.6-.9-3.7-3.1-3.7-2.3 0-3.7 1.6-3.7 4.4v7.2h-2.5V150h2.5v8c.8-1.6 2.4-2.5 4.5-2.5 2.9-.1 4.8 1.8 4.8 5.2zm15.9 0v8.3h-2.5v-7.8c0-2.6-.9-3.7-3.1-3.7-2.3 0-3.7 1.6-3.7 4.4v7.2h-2.5v-13.3h2.5v2.3c.8-1.7 2.4-2.7 4.5-2.7 2.9 0 4.8 1.9 4.8 5.3zM315 169l-7.5-8.8v8.8h-2.7v-18.6h7.4c3.5 0 5.8 2.3 5.8 5.3 0 3.2-2.4 5.3-6.2 5.3h-.5l7.2 8H315zm-7.5-9.9h3.8c2.6 0 4-1.2 4-3.2 0-1.9-1.2-3.1-3.5-3.1h-4.2v6.3zm13.3 8.5c0-1 .8-1.8 1.9-1.8 1.1 0 1.8.8 1.8 1.8 0 1.1-.8 1.8-1.8 1.8-1.1 0-1.9-.7-1.9-1.8zm15-17.1h6.5c6 0 9.2 3.8 9.2 9.3s-3.4 9.3-9.8 9.3h-6v-18.6zm5.9 16.2c4.7 0 7-2.7 7-6.9s-2-6.9-6.7-6.9h-3.6v13.9h3.3zm12.4-4.3c0-4 2.6-7 6.7-7s6.7 3.1 6.7 7c0 4-2.6 7-6.7 7s-6.7-3-6.7-7zm10.8 0c0-2.8-1.5-4.8-4.1-4.8-2.6 0-4.1 2-4.1 4.8s1.5 4.8 4.1 4.8c2.6 0 4.1-2 4.1-4.8zm17.5.4h-9.9c.2 2.8 2.1 4.4 5 4.4 1.6 0 3.4-.6 4.4-1.5v2.3c-1 .8-2.8 1.4-4.7 1.4-4.4 0-7.3-2.8-7.3-7.1 0-4 2.4-7 6.7-7 3.5 0 5.9 2.1 5.9 5.7v1.8zm-9.9-1.8h7.4c0-2.3-1.4-3.5-3.5-3.5-2.3.1-3.5 1.5-3.9 3.5zm13.2 4.9h3.3l-2.6 7.2h-2l1.3-7.2zm27.6-9.6c0 3.6-2.4 6-6.7 6H403v6.7h-2.7v-18.6h6.9c3.8.1 6.1 2.4 6.1 5.9zm-2.7 0c0-2.2-1.4-3.5-3.8-3.5h-3.7v7.3h3.3c2.8 0 4.2-1.4 4.2-3.8zm21.3-5.8V169h-2.7v-8.3h-9.8v8.3h-2.7v-18.6h2.7v7.9h9.8v-7.9h2.7zm4.2 17.1c0-1 .8-1.8 1.9-1.8 1.1 0 1.8.8 1.8 1.8 0 1.1-.8 1.8-1.8 1.8-1.1 0-1.9-.7-1.9-1.8zm7.8-17.1h6.5c6 0 9.2 3.8 9.2 9.3s-3.4 9.3-9.8 9.3h-6v-18.6zm6 16.2c4.7 0 7-2.7 7-6.9s-2-6.9-6.7-6.9h-3.6v13.9h3.3zm11.7.9c0-1 .8-1.8 1.9-1.8 1.1 0 1.8.8 1.8 1.8 0 1.1-.8 1.8-1.8 1.8-1.2 0-1.9-.7-1.9-1.8zm-304.9 28.6c0 3.6-2.4 6-6.7 6h-3.6v6.7h-2.7v-18.6h6.9c3.8 0 6.1 2.3 6.1 5.9zm-2.7 0c0-2.2-1.4-3.5-3.8-3.5h-3.7v7.3h3.3c2.8-.1 4.2-1.5 4.2-3.8zm17 6.5h-9.9c.2 2.8 2.1 4.4 5 4.4 1.6 0 3.4-.6 4.4-1.5v2.3c-1 .8-2.8 1.4-4.7 1.4-4.4 0-7.3-2.8-7.3-7.1 0-4 2.4-7 6.7-7 3.5 0 5.9 2.1 5.9 5.7v1.8zm-9.9-1.8h7.4c0-2.3-1.4-3.5-3.5-3.5-2.3 0-3.5 1.4-3.9 3.5zM182 196v2.3c-.7-.5-1.4-.6-2.2-.6-1.6 0-2.9 1.5-2.9 4.1v7.1h-2.5v-13.3h2.5v2.6c.6-1.9 1.8-2.9 3.3-2.9.6.1 1.2.3 1.8.7zm1.6 11.7v-2.3c1.4 1.1 3 1.8 4.8 1.8 1.8 0 2.8-.7 2.8-2 0-.8-.4-1.4-1.7-1.8l-2.6-.8c-2.2-.7-3.2-2-3.2-3.6 0-2.2 1.9-3.7 5-3.7 1.8 0 3.2.5 4.4 1.2v2.4c-1.2-1-2.8-1.5-4.3-1.5-1.7 0-2.5.5-2.5 1.5 0 .8.6 1.4 1.6 1.7l2.4.7c2.5.7 3.5 2 3.5 3.8 0 2.5-2.1 4.2-5 4.2-2.1 0-3.7-.5-5.2-1.6zm12.3-5.4c0-4 2.6-7 6.7-7s6.7 3.1 6.7 7-2.6 7-6.7 7-6.7-3.1-6.7-7zm10.8 0c0-2.8-1.5-4.8-4.1-4.8-2.6 0-4.1 2-4.1 4.8s1.5 4.8 4.1 4.8c2.6 0 4.1-2 4.1-4.8zm17.7-1.7v8.3h-2.5v-7.8c0-2.6-.9-3.7-3.1-3.7-2.3 0-3.7 1.6-3.7 4.4v7.2h-2.5v-13.3h2.5v2.3c.8-1.7 2.4-2.7 4.5-2.7 2.9-.1 4.8 1.9 4.8 5.3zm14.3.2v8.1h-2.5v-1.8c-.7 1.4-2.1 2.2-3.9 2.2-2.8 0-4.8-1.9-4.8-4.4 0-2.5 2-4.3 5-4.3 1.8 0 3 .7 3.7 1.7v-1.2c0-2.3-1.5-3.7-3.7-3.7-1.6 0-3.1.6-4.2 1.8v-2.5c1.2-.9 2.6-1.5 4.6-1.5 3.6 0 5.8 2.1 5.8 5.6zm-2.5 4c0-1.4-1.2-2.4-3-2.4-1.9 0-3 1-3 2.4 0 1.5 1.1 2.5 3 2.5 1.8 0 3-1.1 3-2.5zm6.7-15h2.5v19.1h-2.5v-19.1zm14.5.5h2.7v18.6h-2.7v-18.6zm19.1 10.3v8.3H274v-7.8c0-2.6-.9-3.7-3.1-3.7-2.3 0-3.7 1.6-3.7 4.4v7.2h-2.5v-13.3h2.5v2.3c.8-1.7 2.4-2.7 4.5-2.7 2.9-.1 4.8 1.9 4.8 5.3zm.8 13.2v-2.2c.3.3 1.1.6 1.9.6 1 0 1.6-.6 1.6-1.9v-14.6h2.5v15c0 2.2-1.5 3.8-3.8 3.8-1-.2-1.8-.5-2.2-.7zm3-22.2c0-.9.7-1.5 1.7-1.5.9 0 1.6.7 1.6 1.5 0 .9-.7 1.6-1.6 1.6-.9 0-1.7-.7-1.7-1.6zm18.8 4v13.3h-2.5v-2.5c-.8 1.9-2.3 2.8-4.3 2.8-3 0-4.9-1.8-4.9-5.2v-8.5h2.5v7.8c0 2.5 1.1 3.7 3.2 3.7 2.2 0 3.5-1.7 3.5-4.6v-6.9h2.5zm11.9.4v2.3c-.7-.5-1.4-.6-2.2-.6-1.6 0-2.9 1.5-2.9 4.1v7.1h-2.5v-13.3h2.5v2.6c.6-1.9 1.8-2.9 3.3-2.9.6.1 1.2.3 1.8.7zm14.4-.4l-8.6 18.3H314l3.2-6.4-5.2-12h2.7l3.9 9.2 4.1-9.2h2.7zm21.6 11v2.3h-12v-18.6h11.8v2.3h-9.1v5.3h8.6v2.3h-8.6v6.3h9.3zm11.8 2.3l-3.5-5.3-3.5 5.3h-2.9l4.9-6.9-4.6-6.3h3l3.2 4.8 3.3-4.8h2.9L357 202l4.9 6.9h-3.1zm18.7-6.8c0 4.3-2.9 7.1-6.3 7.1-2 0-3.7-1-4.5-2.6v7.2h-2.5v-18.3h2.5v2.7c.8-1.6 2.3-3.1 4.8-3.1 3.6.1 6 3.1 6 7zm-2.6.2c0-2.8-1.6-4.8-4.1-4.8-2.5 0-4.1 2-4.1 4.9 0 2.7 1.5 4.7 4 4.7 2.6 0 4.2-2 4.2-4.8zm17.5.4h-9.9c.2 2.8 2.1 4.4 5 4.4 1.6 0 3.4-.6 4.4-1.5v2.3c-1 .8-2.8 1.4-4.7 1.4-4.4 0-7.3-2.8-7.3-7.1 0-4 2.4-7 6.7-7 3.5 0 5.9 2.1 5.9 5.7v1.8zm-9.8-1.8h7.4c0-2.3-1.4-3.5-3.5-3.5-2.3 0-3.6 1.4-3.9 3.5zm20.8-4.9v2.3c-.7-.5-1.4-.6-2.2-.6-1.6 0-2.9 1.5-2.9 4.1v7.1h-2.5v-13.3h2.5v2.6c.6-1.9 1.8-2.9 3.3-2.9.7.1 1.2.3 1.8.7zm10.5 1.7h-3.7v11.2h-2.5v-11.2h-3.3v-2.1h3.3v-3.3l2.5-.8v4.1h3.7v2.1zm32.5-7.4l-5.1 18.6H438l-4.3-16.2-4.3 16.2H426l-4.9-18.6h2.8l3.7 15.7 4.2-15.7h3.6l4.1 15.8 3.9-15.8h3zm2.5 1.3c0-.9.7-1.5 1.7-1.5.9 0 1.6.7 1.6 1.5 0 .9-.7 1.6-1.6 1.6-.9 0-1.7-.7-1.7-1.6zm.4 4h2.5v13.3h-2.5v-13.3zm14.8 2.1h-3.7v11.2h-2.5v-11.2h-3.3v-2.1h3.3v-3.3l2.5-.8v4.1h3.7v2.1zm14.3 2.9v8.3h-2.5v-7.8c0-2.6-.9-3.7-3.1-3.7-2.3 0-3.7 1.6-3.7 4.4v7.2h-2.5v-13.3h2.5v2.3c.8-1.7 2.4-2.7 4.5-2.7 2.9-.1 4.8 1.9 4.8 5.3zm15.7 2.1h-9.9c.2 2.8 2.1 4.4 5 4.4 1.6 0 3.4-.6 4.4-1.5v2.3c-1 .8-2.8 1.4-4.7 1.4-4.4 0-7.3-2.8-7.3-7.1 0-4 2.4-7 6.7-7 3.5 0 5.9 2.1 5.9 5.7v1.8zm-9.9-1.8h7.4c0-2.3-1.4-3.5-3.5-3.5-2.3 0-3.5 1.4-3.9 3.5zm12.4 6.8v-2.3c1.4 1.1 3 1.8 4.8 1.8 1.8 0 2.8-.7 2.8-2 0-.8-.4-1.4-1.7-1.8l-2.6-.8c-2.2-.7-3.2-2-3.2-3.6 0-2.2 1.9-3.7 5-3.7 1.8 0 3.2.5 4.4 1.2v2.4c-1.2-1-2.8-1.5-4.3-1.5-1.7 0-2.5.5-2.5 1.5 0 .8.6 1.4 1.6 1.7l2.4.7c2.5.7 3.5 2 3.5 3.8 0 2.5-2.1 4.2-5 4.2-2.1 0-3.7-.5-5.2-1.6zm12.4 0v-2.3c1.4 1.1 3 1.8 4.8 1.8 1.8 0 2.8-.7 2.8-2 0-.8-.4-1.4-1.7-1.8l-2.6-.8c-2.2-.7-3.2-2-3.2-3.6 0-2.2 1.9-3.7 5-3.7 1.8 0 3.2.5 4.4 1.2v2.4c-1.2-1-2.8-1.5-4.3-1.5-1.7 0-2.5.5-2.5 1.5 0 .8.6 1.4 1.6 1.7l2.4.7c2.5.7 3.5 2 3.5 3.8 0 2.5-2.1 4.2-5 4.2-2.1 0-3.7-.5-5.2-1.6zm-273.6 37.8c0 2.4-1.6 4-4.4 4h-2.4v4.5h-1.8v-12.4h4.6c2.4 0 4 1.5 4 3.9zm-1.9 0c0-1.5-.9-2.4-2.5-2.4h-2.4v4.9h2.2c1.8 0 2.7-.9 2.7-2.5zm8.7-.1v1.6c-.4-.3-.9-.4-1.5-.4-1.1 0-1.9 1-1.9 2.7v4.7h-1.7v-8.9h1.7v1.8c.4-1.2 1.2-1.9 2.2-1.9.5 0 .9.1 1.2.4zm9.5 4.4h-6.6c.1 1.9 1.4 2.9 3.3 2.9 1.1 0 2.2-.4 2.9-1v1.6c-.7.5-1.9.9-3.1.9-2.9 0-4.9-1.8-4.9-4.7 0-2.7 1.6-4.6 4.5-4.6 2.3 0 3.9 1.4 3.9 3.8v1.1zm-6.6-1.2h4.9c0-1.5-.9-2.3-2.3-2.3-1.5 0-2.4.9-2.6 2.3zm17.5.9c0 2.9-1.9 4.8-4.2 4.8-1.3 0-2.4-.7-3-1.7v4.8h-1.7v-12.2h1.7v1.8c.5-1.1 1.5-2.1 3.2-2.1 2.4 0 4 2 4 4.6zm-1.7 0c0-1.9-1.1-3.2-2.7-3.2-1.7 0-2.7 1.4-2.7 3.3 0 1.8 1 3.2 2.7 3.2s2.7-1.4 2.7-3.3zm10.6-.9v5.4h-1.7v-1.2c-.5.9-1.4 1.5-2.6 1.5-1.8 0-3.2-1.3-3.2-2.9 0-1.7 1.3-2.9 3.3-2.9 1.2 0 2 .5 2.4 1.1v-.8c0-1.6-1-2.4-2.4-2.4-1.1 0-2.1.4-2.8 1.2v-1.7c.8-.6 1.7-1 3.1-1 2.5 0 3.9 1.3 3.9 3.7zm-1.6 2.6c0-.9-.8-1.6-2-1.6-1.3 0-2 .6-2 1.6s.7 1.7 2 1.7c1.2 0 2-.7 2-1.7zm9.2-5.8v1.6c-.4-.3-.9-.4-1.5-.4-1.1 0-1.9 1-1.9 2.7v4.7H274v-8.9h1.7v1.8c.4-1.2 1.2-1.9 2.2-1.9.5 0 .8.1 1.2.4zm9.4 4.4h-6.6c.1 1.9 1.4 2.9 3.3 2.9 1.1 0 2.2-.4 2.9-1v1.6c-.7.5-1.9.9-3.1.9-2.9 0-4.9-1.8-4.9-4.7 0-2.7 1.6-4.6 4.5-4.6 2.3 0 3.9 1.4 3.9 3.8v1.1zm-6.5-1.2h4.9c0-1.5-.9-2.3-2.3-2.3-1.6 0-2.4.9-2.6 2.3zm17-7.4V254h-1.7v-1.8c-.5 1.1-1.5 2.1-3.1 2.1-2.3 0-4-1.9-4-4.6 0-2.9 1.9-4.8 4.2-4.8 1.3 0 2.3.5 3 1.8v-5.4h1.6zm-1.7 8.3c0-1.8-1-3.2-2.7-3.2-1.7 0-2.7 1.3-2.7 3.3 0 1.9 1.1 3.2 2.7 3.2 1.7 0 2.7-1.4 2.7-3.3zm8.6 0c0-2.7 1.7-4.7 4.4-4.7s4.5 2 4.5 4.7-1.7 4.7-4.5 4.7c-2.7 0-4.4-2-4.4-4.7zm7.2 0c0-1.9-1-3.2-2.7-3.2-1.7 0-2.7 1.3-2.7 3.2s1 3.2 2.7 3.2c1.6.1 2.7-1.3 2.7-3.2zm11.6-1.1v5.5H323v-5.2c0-1.8-.6-2.5-2.1-2.5s-2.5 1.1-2.5 2.9v4.8h-1.7V245h1.7v1.5c.5-1.2 1.6-1.8 3-1.8 2.1.2 3.3 1.5 3.3 3.7zm19.8 5.6l-.7-10.9-3.6 10.9H338l-3.5-11-.6 11h-1.7l.8-12.4h2.8l3.4 10.5 3.5-10.5h2.7l1 12.4h-1.9zm11.2-5.4v5.4H354v-1.2c-.5.9-1.4 1.5-2.6 1.5-1.8 0-3.2-1.3-3.2-2.9 0-1.7 1.3-2.9 3.3-2.9 1.2 0 2 .5 2.4 1.1v-.8c0-1.6-1-2.4-2.4-2.4-1.1 0-2.1.4-2.8 1.2v-1.7c.8-.6 1.7-1 3.1-1 2.4 0 3.9 1.3 3.9 3.7zm-1.7 2.6c0-.9-.8-1.6-2-1.6-1.3 0-2 .6-2 1.6s.7 1.7 2 1.7 2-.7 2-1.7zm11.6-6.1l-5.7 12.2h-1.8l2.1-4.3-3.4-8h1.8l2.6 6.1 2.7-6.1h1.7zm10.4-2.9V254h-1.7v-9.8l-3.2 2.2v-1.7l3.6-2.4h1.3zm2.7 5.9c0-3.8 1.8-6.2 4.6-6.2 2.9 0 4.7 2.4 4.7 6.2 0 3.8-1.8 6.1-4.7 6.1-2.9 0-4.6-2.3-4.6-6.1zm7.5 0c0-2.8-1-4.6-2.9-4.6-1.8 0-2.8 1.8-2.8 4.6s1 4.6 2.8 4.6c1.8 0 2.9-1.8 2.9-4.6zm3.9 3.7h2.2l-1.7 4.8h-1.3l.8-4.8zm16.5.6v1.5h-7.5v-1.4l3.7-3.5c1.5-1.4 1.9-2.3 1.9-3.4 0-1.3-.9-2.2-2.5-2.2-1.4 0-2.5.6-3.1 1.4V243c.9-.7 2-1.2 3.5-1.2 2.4 0 3.9 1.4 3.9 3.6 0 1.5-.7 2.8-2.3 4.2l-2.9 2.7h5.3zm1.6-4.3c0-3.8 1.8-6.2 4.6-6.2 2.9 0 4.7 2.4 4.7 6.2 0 3.8-1.8 6.1-4.7 6.1-2.8 0-4.6-2.3-4.6-6.1zm7.5 0c0-2.8-1-4.6-2.9-4.6-1.8 0-2.8 1.8-2.8 4.6s1 4.6 2.8 4.6c1.9 0 2.9-1.8 2.9-4.6zm8.2-5.9V254h-1.7v-9.8l-3.2 2.2v-1.7l3.6-2.4h1.3zm11.3 5.5c0 4.4-2.1 6.6-5.1 6.6-1.2 0-2.2-.3-3.1-1v-1.8c.8.8 1.7 1.2 2.9 1.2 2.1 0 3.5-1.3 3.6-4.9-.7 1.5-1.8 2.1-3.2 2.1-2.3 0-3.9-1.6-3.9-3.8 0-2.3 1.7-4.1 4.4-4.1 2.6-.1 4.4 1.6 4.4 5.7zm-1.8-1.7c0-1.5-1.1-2.6-2.6-2.6s-2.5 1.1-2.5 2.6c0 1.4 1 2.4 2.5 2.4s2.6-1 2.6-2.4z"/><path d="M129.2 284.5h-3.4v8.3h-1.4v-8.3h-3.5v-1.2h8.3v1.2zm8.9 7.1v1.2h-7.3v-9.5h7.2v1.2h-5.8v2.7h5.4v1.2h-5.4v3.2h5.9zm1.7.3v-1.4c1.1.8 2.3 1.3 3.8 1.3 1.6 0 2.4-.5 2.4-1.6 0-.7-.4-1.1-1.7-1.5l-2.2-.5c-1.7-.5-2.4-1.3-2.4-2.4 0-1.6 1.4-2.7 3.8-2.7 1.6 0 2.7.5 3.4 1v1.4c-.9-.7-2.1-1.2-3.4-1.2-1.5 0-2.4.5-2.4 1.4 0 .6.4 1 1.5 1.3l2.2.5c1.9.5 2.6 1.4 2.6 2.6 0 1.7-1.5 2.9-3.8 2.9-1.4.1-2.7-.4-3.8-1.1zm16.8-7.4h-3.4v8.3h-1.4v-8.3h-3.5v-1.2h8.3v1.2zm1.7-1.2h1.4v9.5h-1.4v-9.5zm14.7 9.5l-.7-8.4-3.2 8.4h-1.5l-3.2-8.5-.7 8.5h-1.3l.8-9.5h2.2l3 7.9 3.1-7.9h2.1l.9 9.5H173zm3.3-4.7c0-2.8 2.2-5 5.4-5 3.1 0 5.4 2.2 5.4 5s-2.3 5-5.4 5c-3.2 0-5.4-2.2-5.4-5zm9.3 0c0-2.1-1.5-3.8-4-3.8-2.4 0-4 1.6-4 3.8 0 2.1 1.5 3.8 4 3.8 2.5-.1 4-1.7 4-3.8zm12.6-4.8v9.5h-1.9l-5.7-8.3v8.3h-1.3v-9.5h2.1l5.5 8v-8h1.3zm11.3 0l-4.1 6.2v3.4H204v-3.4l-4-6.2h1.6l3.1 4.9 3.2-4.9h1.6zm10.7 6.9h-4.6l-1.1 2.6H213l4-9.5h1.9l3.9 9.5h-1.5l-1.1-2.6zm-.4-1.1l-1.9-4.6-1.9 4.6h3.8zm4.8-5.8h4.3c3.4 0 5.1 2 5.1 4.7 0 2.9-2 4.8-5.5 4.8h-3.9v-9.5zm3.9 8.3c2.6 0 4-1.3 4-3.6 0-2.1-1.2-3.5-3.8-3.5H226v7.1h2.5zm18.1 1.2l-.7-8.4-3.2 8.4h-1.5l-3.2-8.5-.7 8.5H236l.8-9.5h2.2l3 7.9 3.1-7.9h2.1l.9 9.5h-1.5zm4-9.5h1.4v9.5h-1.4v-9.5zm11.4 1.2h-3.4v8.3h-1.4v-8.3h-3.5v-1.2h8.3v1.2zm8.7 0h-3.4v8.3h-1.4v-8.3h-3.5v-1.2h8.3v1.2zm9 7.1v1.2h-7.3v-9.5h7.2v1.2h-5.8v2.7h5.4v1.2h-5.4v3.2h5.9zm2.3-8.3h4.3c3.4 0 5.1 2 5.1 4.7 0 2.9-2 4.8-5.5 4.8H282v-9.5zm4 8.3c2.6 0 4-1.3 4-3.6 0-2.1-1.2-3.5-3.8-3.5h-2.8v7.1h2.6zm11.5-8.3h1.4v9.5h-1.4v-9.5zm13.3 0v9.5h-1.9l-5.7-8.3v8.3h-1.3v-9.5h2.1l5.5 8v-8h1.3zm14.6 3c0 1.7-1.3 2.9-3.6 2.9H319v3.6h-1.4v-9.5h4.5c2 0 3.3 1.2 3.3 3zm-1.5 0c0-1.1-.8-1.8-2.1-1.8H319v3.5h2.7c1.4 0 2.2-.6 2.2-1.7zm8.6 3.9h-4.6l-1.1 2.6h-1.5l4-9.5h1.9l3.9 9.5h-1.5l-1.1-2.6zm-.5-1.1l-1.9-4.6-1.9 4.6h3.8zm10.9 3.7l-4.7-4.3v4.3h-1.4v-9.5h4.8c1.8 0 3 1.2 3 2.8 0 1.7-1.2 2.8-3.3 2.8h-1l4.5 4h-1.9zm-4.6-5h3c1.3 0 2.1-.6 2.1-1.7 0-1-.7-1.6-1.9-1.6h-3.2v3.3zm15.6-3.3h-3.4v8.3H349v-8.3h-3.5v-1.2h8.3v1.2zm10.6 5.7h-4.6l-1.1 2.6h-1.5l4-9.5h1.9l3.9 9.5h-1.5l-1.1-2.6zm-.5-1.1l-1.9-4.6-1.9 4.6h3.8zm13.7-5.8v9.5h-1.9l-5.7-8.3v8.3h-1.3v-9.5h2.1l5.5 8v-8h1.3zm3 0h4.3c3.4 0 5.1 2 5.1 4.7 0 2.9-2 4.8-5.5 4.8h-3.9v-9.5zm3.9 8.3c2.6 0 4-1.3 4-3.6 0-2.1-1.2-3.5-3.8-3.5H382v7.1h2.6zm18.9 0v1.2h-7.3v-9.5h7.2v1.2h-5.8v2.7h5.4v1.2h-5.4v3.2h5.9zm8.2 1.2l-2.7-4-2.8 4h-1.7l3.5-5-3.4-4.5h1.7l2.6 3.6 2.7-3.6h1.7l-3.5 4.5 3.6 5h-1.7zm2.2-4.7c0-3 2.3-5.1 5.7-5.1 1.5 0 2.8.4 3.6 1.1v1.4c-.9-.7-2-1.2-3.5-1.2-2.6 0-4.3 1.6-4.3 3.7s1.6 3.8 4.3 3.8c1.4 0 2.6-.5 3.6-1.3v1.4c-1.1.9-2.3 1.2-3.7 1.2-3.6 0-5.7-2.2-5.7-5zm18.4 3.5v1.3h-6.9v-9.5h1.4v8.3h5.5zm1.2-2.6v-5.7h1.4v5.6c0 1.8 1.1 2.9 3 2.9 1.8 0 2.9-1 2.9-2.9v-5.6h1.4v5.7c0 2.5-1.7 4.1-4.3 4.1-2.7 0-4.4-1.6-4.4-4.1zm11.4-5.7h4.3c3.4 0 5.1 2 5.1 4.7 0 2.9-2 4.8-5.5 4.8h-3.9v-9.5zm4 8.3c2.6 0 4-1.3 4-3.6 0-2.1-1.2-3.5-3.8-3.5h-2.8v7.1h2.6zm15 0v1.2h-7.3v-9.5h7.2v1.2H458v2.7h5.4v1.2H458v3.2h5.9zm2.3-8.3h4.3c3.4 0 5.1 2 5.1 4.7 0 2.9-2 4.8-5.5 4.8h-3.9v-9.5zm3.9 8.3c2.6 0 4-1.3 4-3.6 0-2.1-1.2-3.5-3.8-3.5h-2.8v7.1h2.6zm11.6-8.3h1.4v9.5h-1.4v-9.5zm13.3 0v9.5h-1.9l-5.7-8.3v8.3h-1.3v-9.5h2.1l5.5 8v-8h1.3zm14.6 3c0 1.7-1.3 2.9-3.6 2.9h-2.8v3.6h-1.4v-9.5h4.5c2 0 3.3 1.2 3.3 3zm-1.5 0c0-1.1-.8-1.8-2.1-1.8h-2.8v3.5h2.7c1.4 0 2.2-.6 2.2-1.7zm8.6 3.9h-4.6l-1.1 2.6h-1.5l4-9.5h1.9l3.9 9.5h-1.5l-1.1-2.6zm-.5-1.1l-1.9-4.6-1.9 4.6h3.8zm10.9 3.7l-4.7-4.3v4.3H521v-9.5h4.8c1.8 0 3 1.2 3 2.8 0 1.7-1.2 2.8-3.3 2.8h-1l4.5 4h-1.9zm-4.6-5h3c1.3 0 2.1-.6 2.1-1.7 0-1-.7-1.6-1.9-1.6h-3.2v3.3zm15.6-3.3h-3.4v8.3h-1.4v-8.3h-3.5v-1.2h8.3v1.2zm-.2 7.6c0-.5.4-.9 1-.9.5 0 .9.4.9.9s-.4.9-.9.9c-.6 0-1-.4-1-.9z" fill="#676767"/><path fill="none" d="M120.6 329.6h420v108h-420z"/><path d="M121.4 335.7c0-3.6 2.5-6.1 6-6.1 1.5 0 2.8.5 3.5 1v1.7c-.8-.6-1.8-1.2-3.4-1.2-2.7 0-4.4 1.9-4.4 4.5s1.7 4.5 4.4 4.5c1.4 0 2.6-.6 3.4-1.2v1.6c-.9.7-2.2 1.1-3.5 1.1-3.8.1-6-2.5-6-5.9zm17.9 2.6h-4.6l-1 3h-1.6l3.9-11.4h2.1l3.9 11.4h-1.7l-1-3zm-.4-1.3l-1.9-5.7-1.8 5.7h3.7zm4.3 3.4v-1.7c1 .9 2.2 1.5 3.6 1.5 1.5 0 2.2-.6 2.2-1.7 0-.9-.5-1.3-2.1-2l-1.1-.5c-1.7-.7-2.5-1.7-2.5-3.2 0-1.9 1.4-3.2 3.7-3.2 1.6 0 2.7.6 3.2 1.1v1.7c-.9-.8-1.8-1.3-3.2-1.3-1.4 0-2.1.6-2.1 1.6 0 .9.7 1.4 1.9 2l1.1.5c1.9.9 2.7 1.8 2.7 3.2 0 2-1.5 3.3-3.8 3.3-1.2 0-2.5-.4-3.6-1.3zm16.9-.5v1.4H153v-11.4h7v1.4h-5.5v3.3h5.1v1.4h-5.1v3.9h5.6zm6.1.5v-1.7c1 .9 2.2 1.5 3.6 1.5 1.5 0 2.2-.6 2.2-1.7 0-.9-.5-1.3-2.1-2l-1.1-.5c-1.7-.7-2.5-1.7-2.5-3.2 0-1.9 1.4-3.2 3.7-3.2 1.6 0 2.7.6 3.2 1.1v1.7c-.9-.8-1.8-1.3-3.2-1.3-1.4 0-2.1.6-2.1 1.6 0 .9.7 1.4 1.9 2l1.1.5c1.9.9 2.7 1.8 2.7 3.2 0 2-1.5 3.3-3.8 3.3-1.2 0-2.5-.4-3.6-1.3zm9-4.7c0-3.4 2.4-6 5.7-6s5.7 2.6 5.7 6-2.4 6-5.7 6-5.7-2.6-5.7-6zm9.8 0c0-2.6-1.6-4.5-4.1-4.5s-4.1 1.9-4.1 4.5 1.6 4.5 4.1 4.5 4.1-2 4.1-4.5zm3.9 1.5V330h1.6v7.2c0 2 1.2 3.1 2.9 3.1s2.9-1.1 2.9-3.1V330h1.6v7.2c0 2.8-1.8 4.5-4.5 4.5s-4.5-1.8-4.5-4.5zm18 4.2l-4.5-5.4v5.4h-1.6V330h4.4c2.1 0 3.4 1.4 3.4 3.3s-1.4 3.2-3.7 3.2h-.3l4.3 4.9h-2zm-4.5-6.2h2.2c1.6 0 2.4-.7 2.4-2 0-1.2-.7-1.9-2.1-1.9h-2.5v3.9zm7.9.5c0-3.6 2.5-6.1 6-6.1 1.5 0 2.8.5 3.5 1v1.7c-.8-.6-1.8-1.2-3.4-1.2-2.7 0-4.4 1.9-4.4 4.5s1.7 4.5 4.4 4.5c1.4 0 2.6-.6 3.4-1.2v1.6c-.9.7-2.2 1.1-3.5 1.1-3.8.1-6-2.5-6-5.9zm19 4.2v1.4h-7.1v-11.4h7v1.4h-5.5v3.3h5.1v1.4h-5.1v3.9h5.6zm2-5.3c0-.6.5-1.1 1.1-1.1.6 0 1.1.5 1.1 1.1 0 .7-.5 1.1-1.1 1.1-.6 0-1.1-.5-1.1-1.1zm0 5.9c0-.6.5-1.1 1.1-1.1.6 0 1.1.5 1.1 1.1 0 .7-.5 1.1-1.1 1.1-.6 0-1.1-.5-1.1-1.1zm8.3-4.8c0-3.4 2.4-6 5.7-6s5.7 2.6 5.7 6-2.4 6-5.7 6-5.7-2.6-5.7-6zm9.8 0c0-2.6-1.6-4.5-4.1-4.5s-4.1 1.9-4.1 4.5 1.6 4.5 4.1 4.5 4.1-2 4.1-4.5zm11.5 1.5c0 2.6-1.7 4.4-3.7 4.4-1.2 0-2.2-.6-2.7-1.6v4.4H253v-11.3h1.5v1.7c.5-1 1.4-1.9 2.9-1.9 2.1.1 3.5 1.9 3.5 4.3zm-1.5.1c0-1.7-1-2.9-2.4-2.9-1.5 0-2.5 1.3-2.5 3s.9 2.9 2.4 2.9 2.5-1.3 2.5-3zm3.3-6.6c0-.5.4-.9 1-.9s1 .4 1 .9-.4 1-1 1c-.5 0-1-.4-1-1zm.3 2.5h1.5v8.2H263v-8.2zm11.1 3.1v5.1h-1.5v-4.8c0-1.6-.6-2.3-1.8-2.3-1.4 0-2.2 1-2.2 2.7v4.4H267v-8.2h1.5v1.4c.5-1.1 1.4-1.6 2.7-1.6 1.8 0 2.9 1.2 2.9 3.3zm2.2-5.6c0-.5.4-.9 1-.9s1 .4 1 .9-.4 1-1 1-1-.4-1-1zm.2 2.5h1.5v8.2h-1.5v-8.2zm3.6 4.1c0-2.4 1.5-4.3 4-4.3s4 1.9 4 4.3-1.5 4.3-4 4.3-4-1.9-4-4.3zm6.4 0c0-1.7-.9-3-2.5-3-1.5 0-2.4 1.2-2.4 3s.9 3 2.4 3c1.6-.1 2.5-1.3 2.5-3zm10.5-1v5.1h-1.5v-4.8c0-1.6-.6-2.3-1.8-2.3-1.4 0-2.2 1-2.2 2.7v4.4H290v-8.2h1.5v1.4c.5-1.1 1.4-1.6 2.7-1.6 1.7 0 2.8 1.2 2.8 3.3zm2.5 3.1h1.9l-1.6 4.4h-1.2l.9-4.4zm15.2-8h-3.4v10h-1.6v-10h-3.3v-1.5h8.4v1.5zm4.7 2.1v1.4c-.4-.3-.8-.4-1.3-.4-1 0-1.7.9-1.7 2.5v4.4h-1.5v-8.2h1.5v1.6c.4-1.1 1.1-1.8 2-1.8.3.1.6.2 1 .5zm1.3-2.8c0-.5.4-.9 1-.9s1 .4 1 .9-.4 1-1 1c-.5 0-1-.4-1-1zm.3 2.5h1.5v8.2H321v-8.2zm10.2 3.2v5h-1.5v-1.1c-.4.8-1.2 1.3-2.3 1.3-1.6 0-2.8-1.2-2.8-2.7 0-1.6 1.2-2.7 3-2.7 1 0 1.8.4 2.2 1v-.7c0-1.4-.9-2.3-2.2-2.3-1 0-1.8.4-2.5 1.1v-1.5c.7-.5 1.6-.9 2.7-.9 2 .1 3.4 1.3 3.4 3.5zm-1.5 2.4c0-.8-.7-1.5-1.8-1.5-1.2 0-1.8.6-1.8 1.5s.6 1.5 1.8 1.5c1.1.1 1.8-.6 1.8-1.5zm3.9-9.2h1.5v11.8h-1.5v-11.8zm16.4 3.9c0 2.2-1.4 3.7-4 3.7h-2.1v4.1h-1.6v-11.4h4.1c2.2 0 3.6 1.5 3.6 3.6zm-1.7 0c0-1.4-.8-2.2-2.3-2.2h-2.2v4.5h2c1.7.1 2.5-.8 2.5-2.3zm3.5-3.9h1.5v11.8h-1.5v-11.8zm11 8h-5.9c.1 1.7 1.2 2.7 3 2.7 1 0 2-.4 2.6-.9v1.4c-.6.5-1.7.8-2.8.8-2.6 0-4.4-1.7-4.4-4.4 0-2.5 1.4-4.3 4-4.3 2.1 0 3.5 1.3 3.5 3.5v1.2zm-5.9-1.2h4.4c0-1.4-.8-2.1-2.1-2.1s-2 .9-2.3 2.1zm14 0v5h-1.5v-1.1c-.4.8-1.2 1.3-2.3 1.3-1.6 0-2.8-1.2-2.8-2.7 0-1.6 1.2-2.7 3-2.7 1 0 1.8.4 2.2 1v-.7c0-1.4-.9-2.3-2.2-2.3-1 0-1.8.4-2.5 1.1v-1.5c.7-.5 1.6-.9 2.7-.9 2.1.1 3.4 1.3 3.4 3.5zm-1.5 2.4c0-.8-.7-1.5-1.8-1.5-1.2 0-1.8.6-1.8 1.5s.6 1.5 1.8 1.5c1.1.1 1.8-.6 1.8-1.5zm11.3-9.2v11.8h-1.5v-1.7c-.4 1-1.3 1.9-2.8 1.9-2.1 0-3.6-1.7-3.6-4.3 0-2.6 1.7-4.4 3.7-4.4 1.2 0 2.1.5 2.7 1.7v-5h1.5zm-1.5 7.6c0-1.7-.9-2.9-2.4-2.9s-2.5 1.2-2.5 3 .9 2.9 2.4 2.9c1.6 0 2.5-1.2 2.5-3zm3.8-6.5c0-.5.4-.9 1-.9s1 .4 1 .9-.4 1-1 1c-.5 0-1-.4-1-1zm.3 2.5h1.5v8.2h-1.5v-8.2zm11.1 3.1v5.1h-1.5v-4.8c0-1.6-.6-2.3-1.8-2.3-1.4 0-2.2 1-2.2 2.7v4.4h-1.5v-8.2h1.5v1.4c.5-1.1 1.4-1.6 2.7-1.6 1.7 0 2.8 1.2 2.8 3.3zm9.7-3.1v7.4c0 2.5-1.6 4.1-4.1 4.1-1.2 0-2.2-.3-2.9-.9v-1.5c.7.8 1.7 1.1 2.8 1.1 2 0 2.7-1.2 2.7-3v-1c-.6 1.2-1.4 1.8-2.7 1.8-2.2 0-3.6-1.6-3.6-4s1.5-4.2 3.7-4.2c1.3 0 2.1.6 2.5 1.7v-1.5h1.6zm-1.5 3.8c0-1.6-1-2.7-2.4-2.7-1.5 0-2.4 1.2-2.4 2.8 0 1.6.9 2.7 2.3 2.7 1.5 0 2.5-1.1 2.5-2.8zm4 2.4h1.9l-1.6 4.4h-1.2l.9-4.4zm8.7-9.5h3.9c3.6 0 5.5 2.3 5.5 5.7s-2 5.7-5.8 5.7h-3.6v-11.4zm3.6 10c2.8 0 4.2-1.7 4.2-4.3 0-2.6-1.2-4.3-4-4.3H417v8.5h1.9zm7.4-2.6c0-2.4 1.5-4.3 4-4.3s4 1.9 4 4.3-1.5 4.3-4 4.3-4-1.9-4-4.3zm6.4 0c0-1.7-.9-3-2.5-3-1.5 0-2.4 1.2-2.4 3s.9 3 2.4 3c1.6-.1 2.5-1.3 2.5-3zm2.9 0c0-2.5 1.7-4.3 4.2-4.3 1.2 0 2 .3 2.5.7v1.6c-.8-.7-1.5-.9-2.5-.9-1.7 0-2.8 1.2-2.8 2.9s1 3 3 3c.9 0 1.8-.3 2.4-.8v1.5c-.8.5-1.6.7-2.6.7-2.5-.1-4.2-2-4.2-4.4zm13.8 4.1l-3.5-4v4h-1.5v-11.8h1.5v7l3.2-3.4h2l-3.8 3.7 4.1 4.5h-2zm9.8-3.8h-5.9c.1 1.7 1.2 2.7 3 2.7 1 0 2-.4 2.6-.9v1.4c-.6.5-1.7.8-2.8.8-2.6 0-4.4-1.7-4.4-4.4 0-2.5 1.4-4.3 4-4.3 2.1 0 3.5 1.3 3.5 3.5v1.2zm-5.9-1.2h4.4c0-1.4-.8-2.1-2.1-2.1s-2.1.9-2.3 2.1zm12.5-1.9h-2.2v6.9h-1.5v-6.9h-2v-1.3h2v-2l1.5-.5v2.5h2.2v1.3zm-344.4 25.6c0-3.6 2.5-6.1 6-6.1 1.5 0 2.8.5 3.5 1v1.7c-.8-.6-1.8-1.2-3.4-1.2-2.7 0-4.4 1.9-4.4 4.5s1.7 4.5 4.4 4.5c1.4 0 2.6-.6 3.4-1.2v1.6c-.9.7-2.2 1.1-3.5 1.1-3.8.1-6-2.5-6-5.9zm17.9 2.7h-4.6l-1 3h-1.6l3.9-11.4h2.1l3.9 11.4h-1.7l-1-3zm-.5-1.3l-1.9-5.7-1.8 5.7h3.7zm4.3 3.3v-1.7c1 .9 2.2 1.5 3.6 1.5 1.5 0 2.2-.6 2.2-1.7 0-.9-.5-1.3-2.1-2l-1.1-.5c-1.7-.7-2.5-1.7-2.5-3.2 0-1.9 1.4-3.2 3.7-3.2 1.6 0 2.7.6 3.2 1.1v1.7c-.9-.8-1.8-1.3-3.2-1.3-1.4 0-2.1.6-2.1 1.6 0 .9.7 1.4 1.9 2l1.1.5c1.9.9 2.7 1.8 2.7 3.2 0 2-1.5 3.3-3.8 3.3-1.2 0-2.5-.4-3.6-1.3zm16.9-.4v1.4h-7.1v-11.4h7v1.4h-5.5v3.3h5.1v1.4h-5.1v3.9h5.6zm5.9-4.3c0-3.6 2.5-6.1 6-6.1 1.5 0 2.8.5 3.5 1v1.7c-.8-.6-1.8-1.2-3.4-1.2-2.7 0-4.4 1.9-4.4 4.5s1.7 4.5 4.4 4.5c1.4 0 2.6-.6 3.4-1.2v1.6c-.9.7-2.2 1.1-3.5 1.1-3.8.1-6-2.5-6-5.9zm17.8 2.7h-4.6l-1 3h-1.6l3.9-11.4h2.1l3.9 11.4h-1.7l-1-3zm-.4-1.3l-1.9-5.7-1.8 5.7h3.7zM196 358c0 2.2-1.4 3.7-4 3.7h-2.1v4.1h-1.6v-11.4h4.1c2.2 0 3.6 1.4 3.6 3.6zm-1.6 0c0-1.4-.8-2.2-2.3-2.2h-2.2v4.5h2c1.7 0 2.5-.9 2.5-2.3zm10.7-2.2h-3.4v10h-1.6v-10h-3.3v-1.5h8.4v1.5zm1.8-1.4h1.6v11.4h-1.6v-11.4zm3.9 5.7c0-3.4 2.4-6 5.7-6s5.7 2.6 5.7 6-2.4 6-5.7 6-5.7-2.6-5.7-6zm9.8 0c0-2.6-1.6-4.5-4.1-4.5s-4.1 1.9-4.1 4.5 1.6 4.5 4.1 4.5 4.1-1.9 4.1-4.5zm13.4-5.7v11.4h-2.2l-5.7-10v10h-1.5v-11.4h2.4l5.4 9.6v-9.6h1.6zm2.6 4.7c0-.6.5-1.1 1.1-1.1.6 0 1.1.5 1.1 1.1 0 .7-.5 1.1-1.1 1.1-.6 0-1.1-.5-1.1-1.1zm0 5.8c0-.6.5-1.1 1.1-1.1.6 0 1.1.5 1.1 1.1 0 .7-.5 1.1-1.1 1.1-.6.1-1.1-.4-1.1-1.1zm16.9-2.4c0 1.9-1.3 3.3-3.8 3.3h-4v-11.4h4.3c1.9 0 3.1 1.3 3.1 2.9 0 1.1-.6 2-1.6 2.4 1.3.4 2 1.5 2 2.8zm-6.3-6.7v3.5h2.5c1.2 0 1.7-.7 1.7-1.7 0-1.1-.7-1.8-1.9-1.8h-2.3zm4.7 6.7c0-1.1-.7-1.9-2.1-1.9h-2.5v3.9h2.3c1.5-.1 2.3-.9 2.3-2zm7.4-2.4c0-3.6 2.5-6.1 6-6.1 1.5 0 2.8.5 3.5 1v1.7c-.8-.6-1.8-1.2-3.4-1.2-2.7 0-4.4 1.9-4.4 4.5s1.7 4.5 4.4 4.5c1.4 0 2.6-.6 3.4-1.2v1.6c-.9.7-2.2 1.1-3.5 1.1-3.8.1-6-2.5-6-5.9zm10.8 1.6c0-2.4 1.5-4.3 4-4.3s4 1.9 4 4.3-1.5 4.3-4 4.3c-2.5.1-4-1.8-4-4.3zm6.4 0c0-1.7-.9-3-2.5-3-1.5 0-2.4 1.2-2.4 3s.9 3 2.4 3c1.6 0 2.5-1.2 2.5-3zm3.5-7.6h1.5v11.8H280v-11.8zm4.1 0h1.5v11.8h-1.5v-11.8zM295 362h-5.9c.1 1.7 1.2 2.7 3 2.7 1 0 2-.4 2.6-.9v1.4c-.6.5-1.7.8-2.8.8-2.6 0-4.4-1.7-4.4-4.4 0-2.5 1.4-4.3 4-4.3 2.1 0 3.5 1.3 3.5 3.5v1.2zm-5.8-1.1h4.4c0-1.4-.8-2.1-2.1-2.1-1.4 0-2.1.8-2.3 2.1zm7.2.8c0-2.5 1.7-4.3 4.2-4.3 1.2 0 2 .3 2.5.7v1.6c-.8-.7-1.5-.9-2.5-.9-1.7 0-2.8 1.2-2.8 2.9s1 3 3 3c.9 0 1.8-.3 2.4-.8v1.5c-.8.5-1.6.7-2.6.7-2.5 0-4.2-1.9-4.2-4.4zm13.5-2.8h-2.2v6.9h-1.5v-6.9h-2v-1.3h2v-2l1.5-.5v2.5h2.2v1.3zm1.2-3.7c0-.5.4-.9 1-.9s1 .4 1 .9-.4 1-1 1c-.5-.1-1-.5-1-1zm.3 2.5h1.5v8.2h-1.5v-8.2zm11.9 4c0 2.6-1.7 4.4-3.7 4.4-1.2 0-2.2-.7-2.7-1.7v1.5h-1.5v-11.8h1.5v5.2c.5-1 1.4-1.9 2.9-1.9 2.1 0 3.5 1.9 3.5 4.3zm-1.5 0c0-1.7-1-2.9-2.4-2.9-1.5 0-2.5 1.3-2.5 3s.9 2.9 2.4 2.9 2.5-1.2 2.5-3zm3.5-7.6h1.5v11.8h-1.5v-11.8zm10.9 7.9h-5.9c.1 1.7 1.2 2.7 3 2.7 1 0 2-.4 2.6-.9v1.4c-.6.5-1.7.8-2.8.8-2.6 0-4.4-1.7-4.4-4.4 0-2.5 1.4-4.3 4-4.3 2.1 0 3.5 1.3 3.5 3.5v1.2zm-5.8-1.1h4.4c0-1.4-.8-2.1-2.1-2.1-1.4 0-2.1.8-2.3 2.1zm7.3 4.2v-1.4c.8.7 1.8 1.1 2.8 1.1 1 0 1.7-.4 1.7-1.2 0-.5-.2-.9-1-1.1l-1.6-.5c-1.3-.4-1.9-1.2-1.9-2.2 0-1.4 1.1-2.3 3-2.3 1.1 0 1.9.3 2.6.8v1.5c-.7-.6-1.7-.9-2.6-.9-1 0-1.5.3-1.5.9 0 .5.3.9 1 1l1.5.4c1.5.4 2.1 1.2 2.1 2.4 0 1.6-1.2 2.6-3 2.6-1.3-.1-2.2-.4-3.1-1.1zm7.8-1.2h1.9l-1.6 4.4h-1.2l.9-4.4zm8.7-9.5h1.6v11.4h-1.6v-11.4zm11.3 6.3v5.1H364V361c0-1.6-.6-2.3-1.8-2.3-1.4 0-2.2 1-2.2 2.7v4.4h-1.5v-8.2h1.5v1.4c.5-1.1 1.4-1.6 2.7-1.6 1.7 0 2.8 1.2 2.8 3.3zm1.8 1c0-2.5 1.7-4.3 4.2-4.3 1.2 0 2 .3 2.5.7v1.6c-.8-.7-1.5-.9-2.5-.9-1.7 0-2.8 1.2-2.8 2.9s1 3 3 3c.9 0 1.8-.3 2.4-.8v1.5c-.8.5-1.6.7-2.6.7-2.4 0-4.2-1.9-4.2-4.4zm8.4 3.2c0-.6.5-1.1 1.1-1.1.6 0 1.1.5 1.1 1.1 0 .7-.5 1.1-1.1 1.1-.6.1-1.1-.4-1.1-1.1zm15.1-7.2l-3.2 8.2h-1.4l-3.2-8.2h1.6l2.3 6.3 2.3-6.3h1.6zm.3 7.2c0-.6.5-1.1 1.1-1.1.6 0 1.1.5 1.1 1.1 0 .7-.5 1.1-1.1 1.1-.6.1-1.1-.4-1.1-1.1zm14.9.9l-4.5-5.4v5.4h-1.6v-11.4h4.4c2.1 0 3.4 1.4 3.4 3.3s-1.4 3.2-3.7 3.2h-.3l4.3 4.9h-2zm-4.5-6.1h2.2c1.6 0 2.4-.7 2.4-2 0-1.2-.7-1.9-2.1-1.9h-2.5v3.9zm15 2.3h-5.9c.1 1.7 1.2 2.7 3 2.7 1 0 2-.4 2.6-.9v1.4c-.6.5-1.7.8-2.8.8-2.6 0-4.4-1.7-4.4-4.4 0-2.5 1.4-4.3 4-4.3 2.1 0 3.5 1.3 3.5 3.5v1.2zm-5.9-1.1h4.4c0-1.4-.8-2.1-2.1-2.1-1.4 0-2.1.8-2.3 2.1zm14.9-.2v5.1H424V361c0-1.6-.6-2.3-1.8-2.3-1.4 0-2.2 1-2.2 2.7v4.4h-1.5v-8.2h1.5v1.4c.5-1.1 1.4-1.6 2.7-1.6 1.6 0 2.8 1.2 2.8 3.3zm8.4.2v5h-1.5v-1.1c-.4.8-1.2 1.3-2.3 1.3-1.6 0-2.8-1.2-2.8-2.7 0-1.6 1.2-2.7 3-2.7 1 0 1.8.4 2.2 1v-.7c0-1.4-.9-2.3-2.2-2.3-1 0-1.8.4-2.5 1.1v-1.5c.7-.5 1.6-.9 2.7-.9 2.1 0 3.4 1.3 3.4 3.5zm-1.4 2.4c0-.8-.7-1.5-1.8-1.5-1.2 0-1.8.6-1.8 1.5s.6 1.5 1.8 1.5c1.1.1 1.8-.6 1.8-1.5zm3.6-8.1c0-.5.4-.9 1-.9s1 .4 1 .9-.4 1-1 1c-.5-.1-1-.5-1-1zm.3 2.5h1.5v8.2h-1.5v-8.2zm3.5 7.4v-1.4c.8.7 1.8 1.1 2.8 1.1 1 0 1.7-.4 1.7-1.2 0-.5-.2-.9-1-1.1l-1.6-.5c-1.3-.4-1.9-1.2-1.9-2.2 0-1.4 1.1-2.3 3-2.3 1.1 0 1.9.3 2.6.8v1.5c-.7-.6-1.7-.9-2.6-.9-1 0-1.5.3-1.5.9 0 .5.3.9 1 1l1.5.4c1.5.4 2.1 1.2 2.1 2.4 0 1.6-1.2 2.6-3 2.6-1.3-.1-2.2-.4-3.1-1.1zm7.3 0v-1.4c.8.7 1.8 1.1 2.8 1.1 1 0 1.7-.4 1.7-1.2 0-.5-.2-.9-1-1.1l-1.6-.5c-1.3-.4-1.9-1.2-1.9-2.2 0-1.4 1.1-2.3 3-2.3 1.1 0 1.9.3 2.6.8v1.5c-.7-.6-1.7-.9-2.6-.9-1 0-1.5.3-1.5.9 0 .5.3.9 1 1l1.5.4c1.5.4 2.1 1.2 2.1 2.4 0 1.6-1.2 2.6-3 2.6-1.2-.1-2.2-.4-3.1-1.1zm14-4.2v5h-1.5v-1.1c-.4.8-1.2 1.3-2.3 1.3-1.6 0-2.8-1.2-2.8-2.7 0-1.6 1.2-2.7 3-2.7 1 0 1.8.4 2.2 1v-.7c0-1.4-.9-2.3-2.2-2.3-1 0-1.8.4-2.5 1.1v-1.5c.7-.5 1.6-.9 2.7-.9 2.1 0 3.4 1.3 3.4 3.5zm-1.5 2.4c0-.8-.7-1.5-1.8-1.5-1.2 0-1.8.6-1.8 1.5s.6 1.5 1.8 1.5c1.1.1 1.8-.6 1.8-1.5zm10.9-2.6v5.1h-1.5V361c0-1.6-.6-2.3-1.8-2.3-1.4 0-2.2 1-2.2 2.7v4.4h-1.5v-8.2h1.5v1.4c.5-1.1 1.4-1.6 2.7-1.6 1.7 0 2.8 1.2 2.8 3.3zm1.8 1c0-2.5 1.7-4.3 4.2-4.3 1.2 0 2 .3 2.5.7v1.6c-.8-.7-1.5-.9-2.5-.9-1.7 0-2.8 1.2-2.8 2.9s1 3 3 3c.9 0 1.8-.3 2.4-.8v1.5c-.8.5-1.6.7-2.6.7-2.5 0-4.2-1.9-4.2-4.4zm15.7.3h-5.9c.1 1.7 1.2 2.7 3 2.7 1 0 2-.4 2.6-.9v1.4c-.6.5-1.7.8-2.8.8-2.6 0-4.4-1.7-4.4-4.4 0-2.5 1.4-4.3 4-4.3 2.1 0 3.5 1.3 3.5 3.5v1.2zm-5.8-1.1h4.4c0-1.4-.8-2.1-2.1-2.1-1.4 0-2.1.8-2.3 2.1zm22.5-1.4v.8c0 3.7-2 5.8-5.2 5.8-3.5 0-5.8-2.6-5.8-6 0-3.3 2.2-6.1 6.1-6.1 1.8 0 3.1.6 4 1.3v1.7c-.8-.7-2.1-1.5-4-1.5-3 0-4.4 2-4.4 4.5 0 2.7 1.6 4.6 4.2 4.6 2.3 0 3.6-1.4 3.7-3.7h-5.8l.3-1.4h6.9zm6.5-1.6v1.4c-.4-.3-.8-.4-1.3-.4-1 0-1.7.9-1.7 2.5v4.4h-1.5v-8.2h1.5v1.6c.4-1.1 1.1-1.8 2-1.8.3.1.7.2 1 .5zm.8 3.8c0-2.4 1.5-4.3 4-4.3s4 1.9 4 4.3-1.5 4.3-4 4.3c-2.5.1-4-1.8-4-4.3zm6.4 0c0-1.7-.9-3-2.5-3-1.5 0-2.4 1.2-2.4 3s.9 3 2.4 3c1.6 0 2.5-1.2 2.5-3zm10.4-4v8.2h-1.5v-1.5c-.5 1.1-1.4 1.7-2.5 1.7-1.8 0-2.9-1.1-2.9-3.2v-5.2h1.5v4.8c0 1.5.7 2.3 1.9 2.3 1.3 0 2.1-1 2.1-2.8v-4.3h1.4zm10.3 4c0 2.6-1.7 4.4-3.7 4.4-1.2 0-2.2-.6-2.7-1.6v4.4h-1.5v-11.3h1.5v1.7c.5-1 1.4-1.9 2.9-1.9 2.1 0 3.5 1.9 3.5 4.3zm-1.5 0c0-1.7-1-2.9-2.4-2.9-1.5 0-2.5 1.3-2.5 3s.9 2.9 2.4 2.9 2.5-1.2 2.5-3zm-415.5 17.1h3.9c3.6 0 5.5 2.3 5.5 5.7s-2 5.7-5.8 5.7h-3.6v-11.4zm3.6 10c2.8 0 4.2-1.7 4.2-4.3 0-2.6-1.2-4.3-4-4.3h-2.1v8.5h1.9zm7.5-4.3c0-3.4 2.4-6 5.7-6s5.7 2.6 5.7 6-2.4 6-5.7 6-5.7-2.5-5.7-6zm9.7 0c0-2.6-1.6-4.5-4.1-4.5s-4.1 1.9-4.1 4.5 1.6 4.5 4.1 4.5 4.1-1.9 4.1-4.5zm3.3.1c0-3.6 2.5-6.1 6-6.1 1.5 0 2.8.5 3.5 1v1.7c-.8-.6-1.8-1.2-3.4-1.2-2.7 0-4.4 1.9-4.4 4.5s1.7 4.5 4.4 4.5c1.4 0 2.6-.6 3.4-1.2v1.6c-.9.7-2.2 1.1-3.5 1.1-3.8.1-6-2.5-6-5.9zm18.4 5.7l-4.9-5.7v5.7h-1.6v-11.4h1.6v5.1l4.8-5.1h2.1l-5.3 5.3 5.4 6.1h-2.1zm10.9-1.5v1.4h-7.1v-11.4h7v1.4H170v3.3h5.1v1.4H170v3.9h5.6zm9.5-8.5h-3.4v10h-1.6v-10h-3.3v-1.5h8.4v1.5zm14.9-1.5v11.4h-2.2l-5.7-10v10h-1.5v-11.4h2.4l5.4 9.6v-9.6h1.6zm3.1 7.2v-7.2h1.6v7.2c0 2 1.2 3.1 2.9 3.1s2.9-1.1 2.9-3.1v-7.2h1.6v7.2c0 2.8-1.8 4.5-4.5 4.5s-4.5-1.7-4.5-4.5zm22.7 4.3l-.7-10.1-3.2 10.1H220l-3.2-10.2-.6 10.2h-1.5l.7-11.4h2.5l3 9.6 3.1-9.6h2.4l.9 11.4h-1.5zM238 387c0 1.9-1.3 3.3-3.8 3.3h-4v-11.4h4.3c1.9 0 3.1 1.3 3.1 2.9 0 1.1-.6 2-1.6 2.4 1.3.3 2 1.4 2 2.8zm-6.3-6.8v3.5h2.5c1.2 0 1.7-.7 1.7-1.7 0-1.1-.7-1.8-1.9-1.8h-2.3zm4.7 6.7c0-1.1-.7-1.9-2.1-1.9h-2.5v3.9h2.3c1.5-.1 2.3-.8 2.3-2zm11.1 1.9v1.4h-7.1v-11.4h7v1.4H242v3.3h5.1v1.4H242v3.9h5.5zm8.6 1.5l-4.5-5.4v5.4H250v-11.4h4.4c2.1 0 3.4 1.4 3.4 3.3s-1.4 3.2-3.7 3.2h-.3l4.3 4.9h-2zm-4.4-6.2h2.2c1.6 0 2.4-.7 2.4-2 0-1.2-.7-1.9-2.1-1.9h-2.5v3.9zm8.1-.6c0-.6.5-1.1 1.1-1.1.6 0 1.1.5 1.1 1.1 0 .7-.5 1.1-1.1 1.1-.6 0-1.1-.5-1.1-1.1zm0 5.9c0-.6.5-1.1 1.1-1.1.6 0 1.1.5 1.1 1.1 0 .7-.5 1.1-1.1 1.1-.6 0-1.1-.5-1.1-1.1zm8.5-4.6c0-3.5 1.6-5.7 4.1-5.7 2.6 0 4.2 2.2 4.2 5.7s-1.6 5.6-4.2 5.6c-2.5.1-4.1-2.1-4.1-5.6zm6.7.1c0-2.6-.9-4.3-2.6-4.3-1.6 0-2.5 1.7-2.5 4.2 0 2.6.9 4.2 2.5 4.2 1.7.1 2.6-1.6 2.6-4.1zm11.3 1.7c0 2.2-1.6 3.9-4 3.9-2.3 0-4-1.5-4-5.2 0-3.9 1.9-6.2 4.8-6.2 1 0 1.9.3 2.6.8v1.6c-.5-.5-1.5-1-2.6-1-2 0-3.3 1.6-3.3 4.2.5-1.1 1.5-1.8 2.9-1.8 2.2.1 3.6 1.6 3.6 3.7zm-1.6.1c0-1.4-1-2.4-2.4-2.4s-2.4 1-2.4 2.4 1 2.5 2.4 2.5c1.4-.1 2.4-1 2.4-2.5zm3.5-2.6h5.3v1.5h-5.3v-1.5zm7.2.5c0-3.6 2.5-6.1 6-6.1 1.5 0 2.8.5 3.5 1v1.7c-.8-.6-1.8-1.2-3.4-1.2-2.7 0-4.4 1.9-4.4 4.5s1.7 4.5 4.4 4.5c1.4 0 2.6-.6 3.4-1.2v1.6c-.9.7-2.2 1.1-3.5 1.1-3.8.1-6-2.5-6-5.9zm20.6-5.8l-4.1 11.4h-1.8l-4.1-11.4h1.7l3.3 9.6 3.3-9.6h1.7zm1 4.9h5.3v1.5H317v-1.5zm11.3-4.3v10.9h-1.5v-9.1l-2.9 2v-1.6l3.2-2.2h1.2zm6.4 0v10.9h-1.5v-9.1l-2.9 2v-1.6l3.2-2.2h1.2zm6.4 0v10.9h-1.5v-9.1l-2.9 2v-1.6l3.2-2.2h1.2zm9.8 7.3c0 2.1-1.6 3.8-4.1 3.8-1.1 0-2.2-.3-3-.9V388c.7.7 1.8 1.1 2.8 1.1 1.8 0 2.7-1 2.7-2.3 0-1.3-.8-2.3-2.6-2.3-1.2 0-2 .4-2.8.7v-5.8h6.4v1.4h-4.9v2.7c.6-.2 1.2-.3 2-.3 2.2.1 3.5 1.7 3.5 3.5zM121.4 409c0-3.6 2.5-6.1 6-6.1 1.5 0 2.8.5 3.5 1v1.7c-.8-.6-1.8-1.2-3.4-1.2-2.7 0-4.4 1.9-4.4 4.5s1.7 4.5 4.4 4.5c1.4 0 2.6-.6 3.4-1.2v1.6c-.9.7-2.2 1.1-3.5 1.1-3.8.1-6-2.5-6-5.9zm17.9 2.7h-4.6l-1 3h-1.6l3.9-11.4h2.1l3.9 11.4h-1.7l-1-3zm-.4-1.3l-1.9-5.7-1.8 5.7h3.7zm4.3 3.3V412c1 .9 2.2 1.5 3.6 1.5 1.5 0 2.2-.6 2.2-1.7 0-.9-.5-1.3-2.1-2l-1.1-.5c-1.7-.7-2.5-1.7-2.5-3.2 0-1.9 1.4-3.2 3.7-3.2 1.6 0 2.7.6 3.2 1.1v1.7c-.9-.8-1.8-1.3-3.2-1.3-1.4 0-2.1.6-2.1 1.6 0 .9.7 1.4 1.9 2l1.1.5c1.9.9 2.7 1.8 2.7 3.2 0 2-1.5 3.3-3.8 3.3-1.2 0-2.5-.4-3.6-1.3zm16.9-.4v1.4H153v-11.4h7v1.4h-5.5v3.3h5.1v1.4h-5.1v3.9h5.6zm6-4.3c0-3.6 2.5-6.1 6-6.1 1.5 0 2.8.5 3.5 1v1.7c-.8-.6-1.8-1.2-3.4-1.2-2.7 0-4.4 1.9-4.4 4.5s1.7 4.5 4.4 4.5c1.4 0 2.6-.6 3.4-1.2v1.6c-.9.7-2.2 1.1-3.5 1.1-3.8.1-6-2.5-6-5.9zm11.8-5.7h1.6v11.4h-1.6v-11.4zm11.8 1.4h-3.4v10h-1.6v-10h-3.3v-1.5h8.4v1.5zm9 8.6v1.4h-7.1v-11.4h7v1.4h-5.5v3.3h5.1v1.4h-5.1v3.9h5.6zm1.7-4.3c0-3.3 1.5-5.8 3.1-7.4h1.8c-1.8 1.5-3.3 4-3.3 7.4 0 3.4 1.5 5.9 3.3 7.7h-1.8c-1.4-1.4-3.1-4-3.1-7.7zm5.3 4.7V412c1 .9 2.2 1.5 3.6 1.5 1.5 0 2.2-.6 2.2-1.7 0-.9-.5-1.3-2.1-2l-1.1-.5c-1.7-.7-2.5-1.7-2.5-3.2 0-1.9 1.4-3.2 3.7-3.2 1.6 0 2.7.6 3.2 1.1v1.7c-.9-.8-1.8-1.3-3.2-1.3-1.4 0-2.1.6-2.1 1.6 0 .9.7 1.4 1.9 2l1.1.5c1.9.9 2.7 1.8 2.7 3.2 0 2-1.5 3.3-3.8 3.3-1.2 0-2.5-.4-3.6-1.3zm12.7-4.4c0 3.3-1.5 5.8-3.1 7.4h-1.8c1.8-1.5 3.3-4 3.3-7.4 0-3.4-1.5-5.9-3.3-7.7h1.8c1.3 1.4 3.1 4 3.1 7.7zm1.8-1.4c0-.6.5-1.1 1.1-1.1.6 0 1.1.5 1.1 1.1 0 .7-.5 1.1-1.1 1.1-.6.1-1.1-.4-1.1-1.1zm0 5.9c0-.6.5-1.1 1.1-1.1.6 0 1.1.5 1.1 1.1 0 .7-.5 1.1-1.1 1.1-.6 0-1.1-.4-1.1-1.1zm15.2-.5v1.4h-6.7v-1.3l3.3-3.2c1.3-1.3 1.7-2.2 1.7-3.1 0-1.2-.8-2-2.2-2-1.2 0-2.2.6-2.8 1.3v-1.6c.8-.7 1.8-1.1 3.1-1.1 2.2 0 3.5 1.3 3.5 3.3 0 1.4-.6 2.6-2 3.9l-2.6 2.5h4.7zm1.7-4c0-3.5 1.6-5.7 4.1-5.7 2.6 0 4.2 2.2 4.2 5.7s-1.6 5.6-4.2 5.6c-2.5 0-4.1-2.1-4.1-5.6zm6.8 0c0-2.6-.9-4.3-2.6-4.3-1.6 0-2.5 1.7-2.5 4.2 0 2.6.9 4.2 2.5 4.2 1.6.1 2.6-1.5 2.6-4.1zm3.3 0c0-3.5 1.6-5.7 4.1-5.7 2.6 0 4.2 2.2 4.2 5.7s-1.6 5.6-4.2 5.6c-2.5 0-4.1-2.1-4.1-5.6zm6.8 0c0-2.6-.9-4.3-2.6-4.3-1.6 0-2.5 1.7-2.5 4.2 0 2.6.9 4.2 2.5 4.2 1.6.1 2.6-1.5 2.6-4.1zm10.9 2.4c0 1.8-1.5 3.2-3.8 3.2s-3.8-1.4-3.8-3.2c0-1.3.8-2.3 2.1-2.8-1.1-.4-1.8-1.3-1.8-2.4 0-1.6 1.4-3 3.5-3s3.5 1.4 3.5 3c0 1.1-.7 2-1.8 2.4 1.3.5 2.1 1.5 2.1 2.8zm-1.6-.1c0-1.1-.8-2-2.2-2-1.4 0-2.2.9-2.2 2s.8 2 2.2 2c1.4 0 2.2-.9 2.2-2zm-4.2-4.9c0 1 .7 1.8 2 1.8 1.2 0 2-.8 2-1.8s-.8-1.7-2-1.7-2 .7-2 1.7zm12.4 3.8v-7.2h1.6v7.2c0 2 1.2 3.1 2.9 3.1s2.9-1.1 2.9-3.1v-7.2h1.6v7.2c0 2.8-1.8 4.5-4.5 4.5s-4.5-1.7-4.5-4.5zm10.8 3.3c0-.6.5-1.1 1.1-1.1.6 0 1.1.5 1.1 1.1 0 .7-.5 1.1-1.1 1.1-.6 0-1.1-.4-1.1-1.1zm4-.1V412c1 .9 2.2 1.5 3.6 1.5 1.5 0 2.2-.6 2.2-1.7 0-.9-.5-1.3-2.1-2l-1.1-.5c-1.7-.7-2.5-1.7-2.5-3.2 0-1.9 1.4-3.2 3.7-3.2 1.6 0 2.7.6 3.2 1.1v1.7c-.9-.8-1.8-1.3-3.2-1.3-1.4 0-2.1.6-2.1 1.6 0 .9.7 1.4 1.9 2l1.1.5c1.9.9 2.7 1.8 2.7 3.2 0 2-1.5 3.3-3.8 3.3-1.2 0-2.6-.4-3.6-1.3zm9 .1c0-.6.5-1.1 1.1-1.1.6 0 1.1.5 1.1 1.1 0 .7-.5 1.1-1.1 1.1-.6 0-1.1-.4-1.1-1.1zm8.9-10.5h3.9c3.6 0 5.5 2.3 5.5 5.7 0 3.4-2 5.7-5.8 5.7h-3.6v-11.4zm3.6 10c2.8 0 4.2-1.7 4.2-4.3 0-2.6-1.2-4.3-4-4.3h-2.1v8.5h1.9zm7.6-9.2c0-.5.4-.9 1-.9s1 .4 1 .9-.4 1-1 1c-.5-.1-1-.5-1-1zm.3 2.4h1.5v8.2h-1.5v-8.2zm3.6 7.5v-1.4c.8.7 1.8 1.1 2.8 1.1 1 0 1.7-.4 1.7-1.2 0-.5-.2-.9-1-1.1l-1.6-.5c-1.3-.4-1.9-1.2-1.9-2.2 0-1.4 1.1-2.3 3-2.3 1.1 0 1.9.3 2.6.8v1.5c-.7-.6-1.7-.9-2.6-.9-1 0-1.5.3-1.5.9 0 .5.3.9 1 1l1.5.4c1.5.4 2.1 1.2 2.1 2.4 0 1.6-1.2 2.6-3 2.6-1.3-.2-2.3-.5-3.1-1.1zm12.6-6.2h-2.2v6.9h-1.5v-6.9h-2v-1.3h2v-2l1.5-.5v2.5h2.2v1.3zm.5 6c0-.6.5-1.1 1.1-1.1.6 0 1.1.5 1.1 1.1 0 .7-.5 1.1-1.1 1.1-.7 0-1.1-.4-1.1-1.1zm15.7-.6v1.5h-6.8v-11.4h1.6v9.9h5.2zm9 .1v1.4H350v-11.4h7v1.4h-5.5v3.3h5.1v1.4h-5.1v3.9h5.6zm8.6 1.4l-2.8-4.8-2.8 4.8h-1.9l3.7-6-3.5-5.4h1.9l2.7 4.3 2.7-4.3h1.9l-3.6 5.4 3.7 6h-2zm3.8-11.4h1.6v11.4h-1.6v-11.4zm4.1 10.4V412c1 .9 2.2 1.5 3.6 1.5 1.5 0 2.2-.6 2.2-1.7 0-.9-.5-1.3-2.1-2l-1.1-.5c-1.7-.7-2.5-1.7-2.5-3.2 0-1.9 1.4-3.2 3.7-3.2 1.6 0 2.7.6 3.2 1.1v1.7c-.9-.8-1.8-1.3-3.2-1.3-1.4 0-2.1.6-2.1 1.6 0 .9.7 1.4 1.9 2l1.1.5c1.9.9 2.7 1.8 2.7 3.2 0 2-1.5 3.3-3.8 3.3-1.2 0-2.6-.4-3.6-1.3zm20.2-2.1c0 1.9-1.5 3.4-3.9 3.4-1.2 0-2.1-.3-3-.8v-1.6c.5.5 1.4 1 2.8 1 1.6 0 2.5-.8 2.5-2 0-.9-.5-1.8-2.4-1.8h-2.2l.2-1.3h1.9c1.6 0 2.1-.8 2.1-1.8s-.7-1.6-2.3-1.6c-1.4 0-2.3.6-2.7 1v-1.5c.9-.6 1.8-.9 2.9-.9 2.2 0 3.5 1.2 3.5 2.8 0 1.1-.6 2.2-1.8 2.4 1.6.3 2.4 1.4 2.4 2.7zm9.5-2.7c0 4-1.9 6.1-4.6 6.1-1.1 0-1.9-.3-2.8-1v-1.6c.7.7 1.6 1.1 2.6 1.1 1.9 0 3.1-1.2 3.2-4.5-.6 1.3-1.6 1.9-2.9 1.9-2.1 0-3.5-1.5-3.5-3.5 0-2.1 1.6-3.8 3.9-3.8 2.4 0 4.1 1.5 4.1 5.3zm-1.6-1.6c0-1.4-1-2.4-2.4-2.4-1.3 0-2.3 1-2.3 2.4 0 1.3.9 2.2 2.2 2.2 1.5.1 2.5-.9 2.5-2.2zm10.3-3.5v1.4l-5.1 9.5h-1.8l5.3-9.5h-5.6v-1.4h7.2zm1.2 5.5c0-3.5 1.6-5.7 4.1-5.7 2.6 0 4.2 2.2 4.2 5.7s-1.6 5.6-4.2 5.6c-2.5 0-4.1-2.1-4.1-5.6zm6.8 0c0-2.6-.9-4.3-2.6-4.3-1.6 0-2.5 1.7-2.5 4.2 0 2.6.9 4.2 2.5 4.2 1.6.1 2.6-1.5 2.6-4.1zm10.1-5.5v1.4l-5.1 9.5h-1.8l5.3-9.5h-5.6v-1.4h7.2zm0 8.9h1.9l-1.6 4.4h-1.2l.9-4.4zm14.8.6v1.4h-6.7v-1.3l3.3-3.2c1.3-1.3 1.7-2.2 1.7-3.1 0-1.2-.8-2-2.2-2-1.2 0-2.2.6-2.8 1.3v-1.6c.8-.7 1.8-1.1 3.1-1.1 2.2 0 3.5 1.3 3.5 3.3 0 1.4-.6 2.6-2 3.9l-2.6 2.5h4.7zm1.7-4c0-3.5 1.6-5.7 4.1-5.7 2.6 0 4.2 2.2 4.2 5.7s-1.6 5.6-4.2 5.6c-2.5 0-4.1-2.1-4.1-5.6zm6.8 0c0-2.6-.9-4.3-2.6-4.3-1.6 0-2.5 1.7-2.5 4.2 0 2.6.9 4.2 2.5 4.2 1.7.1 2.6-1.5 2.6-4.1zm3.4 0c0-3.5 1.6-5.7 4.1-5.7 2.6 0 4.2 2.2 4.2 5.7s-1.6 5.6-4.2 5.6c-2.5 0-4.1-2.1-4.1-5.6zm6.7 0c0-2.6-.9-4.3-2.6-4.3-1.6 0-2.5 1.7-2.5 4.2 0 2.6.9 4.2 2.5 4.2 1.7.1 2.6-1.5 2.6-4.1zm11.3 1.7c0 2.2-1.6 3.9-4 3.9-2.3 0-4-1.5-4-5.2 0-3.9 1.9-6.2 4.8-6.2 1 0 1.9.3 2.6.8v1.6c-.5-.5-1.5-1-2.6-1-2 0-3.3 1.6-3.3 4.2.5-1.1 1.5-1.8 2.9-1.8 2.2.2 3.6 1.6 3.6 3.7zm-1.6.1c0-1.4-1-2.4-2.4-2.4s-2.4 1-2.4 2.4 1 2.5 2.4 2.5 2.4-1 2.4-2.5z" fill="#8d9394"/></svg>