<svg version="1.1" id="Layer_1" xmlns="http://www.w3.org/2000/svg" x="0" y="0" viewBox="0 0 721.7 426.3" xml:space="preserve"><style>.st6{fill:#f6f6f6}.st7{fill:#b58b5a}</style><path fill="#fff" d="M36.2 34.8h642v356h-642z"/><path d="M69.7 85.3c0-3 2.3-5.1 5.5-5.1 1.5 0 2.7.4 3.5 1.1v1.4c-.9-.7-2-1.2-3.4-1.2-2.5 0-4.1 1.6-4.1 3.7s1.6 3.8 4.1 3.8c1.4 0 2.6-.5 3.5-1.3v1.4c-1 .9-2.2 1.2-3.6 1.2-3.5 0-5.5-2.2-5.5-5zm19.8-4.8V90h-1.4v-4.2h-5.9V90h-1.4v-9.5h1.4v4.1h5.9v-4.1h1.4zm8.6 6.9h-4.5l-1 2.6h-1.4l3.8-9.5h1.8l3.8 9.5h-1.4l-1.1-2.6zm-.4-1.1l-1.8-4.6-1.8 4.6h3.6zm11.4 2.4V90h-6.7v-9.5h1.4v8.3h5.3zm8.4 0V90h-6.7v-9.5h1.4v8.3h5.3zm8.7.1V90h-7.1v-9.5h7v1.2h-5.7v2.7h5.3v1.2h-5.3v3.2h5.8zm10.9-8.3V90h-1.8l-5.5-8.3V90h-1.3v-9.5h2l5.4 8v-8h1.2zm12.2 4.3v.7c0 3.1-1.9 4.8-4.7 4.8-3.3 0-5.4-2.2-5.4-5s2-5 5.6-5c1.7 0 2.9.4 3.8 1v1.5c-.9-.7-2.2-1.2-3.8-1.2-2.8 0-4.2 1.6-4.2 3.7 0 2.2 1.6 3.8 4 3.8 2 0 3.3-1.1 3.4-3h-6l.3-1.2h7zm9.2 4V90h-7.1v-9.5h7v1.2h-5.7v2.7h5.3v1.2h-5.3v3.2h5.8zm6-8.3h4.2c3.3 0 5 2 5 4.7 0 2.9-1.9 4.8-5.3 4.8h-3.8v-9.5zm3.8 8.3c2.5 0 3.9-1.3 3.9-3.6 0-2.1-1.1-3.5-3.7-3.5h-2.7v7.1h2.5zm7.5-8.3h1.4V90h-1.4v-9.5zm3.6 8.6v-1.4c1.1.8 2.3 1.3 3.7 1.3 1.5 0 2.4-.5 2.4-1.6 0-.7-.4-1.1-1.7-1.5l-2.1-.5c-1.7-.5-2.3-1.3-2.3-2.4 0-1.6 1.4-2.7 3.7-2.7 1.5 0 2.6.5 3.3 1v1.4c-.9-.7-2-1.2-3.3-1.2-1.5 0-2.3.5-2.3 1.4 0 .6.4 1 1.5 1.3l2.1.5c1.8.5 2.5 1.4 2.5 2.6 0 1.7-1.4 2.9-3.7 2.9-1.5 0-2.8-.4-3.8-1.1zm17.2-5.6c0 1.7-1.3 2.9-3.5 2.9h-2.7V90H189v-9.5h4.4c1.9 0 3.2 1.2 3.2 3zm-1.4 0c0-1.1-.8-1.8-2.1-1.8h-2.8v3.5h2.6c1.4 0 2.3-.6 2.3-1.7zm2.5 1.8c0-2.8 2.2-5 5.3-5 3 0 5.2 2.2 5.2 5s-2.2 5-5.2 5c-3.1 0-5.3-2.2-5.3-5zm9.1 0c0-2.1-1.5-3.8-3.8-3.8-2.4 0-3.9 1.6-3.9 3.8 0 2.1 1.5 3.8 3.9 3.8 2.3-.1 3.8-1.7 3.8-3.8zm2.9 3.8v-1.4c1.1.8 2.3 1.3 3.7 1.3 1.5 0 2.4-.5 2.4-1.6 0-.7-.4-1.1-1.7-1.5l-2.1-.5c-1.7-.5-2.3-1.3-2.3-2.4 0-1.6 1.4-2.7 3.7-2.7 1.5 0 2.6.5 3.3 1v1.4c-.9-.7-2-1.2-3.3-1.2-1.5 0-2.3.5-2.3 1.4 0 .6.4 1 1.5 1.3l2.1.5c1.8.5 2.5 1.4 2.5 2.6 0 1.7-1.4 2.9-3.7 2.9-1.4 0-2.8-.4-3.8-1.1zm9.6-8.6h1.4V90h-1.4v-9.5zm11 1.2H227V90h-1.3v-8.3h-3.4v-1.2h8v1.2zm1.7-1.2h1.4V90H232v-9.5zm3.5 4.8c0-2.8 2.2-5 5.3-5 3 0 5.2 2.2 5.2 5s-2.2 5-5.2 5c-3.1 0-5.3-2.2-5.3-5zm9.1 0c0-2.1-1.5-3.8-3.8-3.8-2.4 0-3.9 1.6-3.9 3.8 0 2.1 1.5 3.8 3.9 3.8 2.3-.1 3.8-1.7 3.8-3.8zm12.2-4.8V90H255l-5.5-8.3V90h-1.3v-9.5h2l5.4 8v-8h1.2z" fill="#676767"/><path d="M87.8 127c0 3.7-2.7 6.5-7.6 6.5h-8.1v-22.8h8.5c3.8 0 6.2 2.6 6.2 5.8 0 2.2-1.1 4-3.3 4.7 2.9.8 4.3 3.1 4.3 5.8zm-12.5-13.5v7h4.9c2.3 0 3.5-1.4 3.5-3.4 0-2.2-1.3-3.6-3.7-3.6h-4.7zm9.3 13.4c0-2.3-1.5-3.9-4.2-3.9h-5v7.7h4.5c3.2 0 4.7-1.5 4.7-3.8zm21.3-9.7l-10.3 22.5h-3.2l3.8-7.8-6.2-14.7h3.2l4.6 11.3 4.9-11.3h3.2zm31.9 3.8v1.7c0 7.4-4.1 11.5-10.4 11.5-6.9 0-11.6-5.2-11.6-12 0-6.7 4.4-12.1 12.1-12.1 3.6 0 6.2 1.1 8 2.6v3.4c-1.6-1.5-4.2-3-8-3-5.9 0-8.9 4-8.9 9 0 5.3 3.3 9.2 8.4 9.2 4.5 0 7.1-2.7 7.4-7.4h-11.6l.7-2.8h13.9zm13-3.3v2.9c-.8-.6-1.6-.8-2.6-.8-2 0-3.4 1.8-3.5 5v8.7h-3v-16.3h3v3.2c.8-2.3 2.2-3.5 3.9-3.5.8 0 1.5.2 2.2.8zm1.6 7.7c0-4.9 3.1-8.6 7.9-8.6 4.9 0 8 3.8 8 8.6 0 4.9-3.1 8.6-8 8.6-4.8 0-7.9-3.7-7.9-8.6zm12.9 0c0-3.5-1.8-5.9-4.9-5.9-3.1 0-4.9 2.4-4.9 5.9 0 3.5 1.8 5.9 4.9 5.9 3 0 4.9-2.5 4.9-5.9zm20.7-8.2v16.3h-3v-3c-.9 2.3-2.7 3.5-5.1 3.5-3.6 0-5.9-2.3-5.9-6.3v-10.4h3v9.6c0 3.1 1.3 4.6 3.8 4.6 2.7 0 4.2-2.1 4.2-5.7v-8.5h3zm19.1 6.1v10.2h-3V124c0-3.2-1.1-4.6-3.7-4.6-2.8 0-4.4 2-4.4 5.4v8.8h-3v-16.3h3v2.8c.9-2.1 2.8-3.3 5.4-3.3 3.5-.1 5.7 2.3 5.7 6.5zm19.6-13.3v23.5h-3v-3.3c-.9 2.1-2.6 3.8-5.6 3.8-4.2 0-7.2-3.5-7.2-8.5 0-5.3 3.4-8.8 7.5-8.8 2.4 0 4.2 1 5.4 3.3v-10h2.9zm-2.9 15.3c0-3.4-1.9-5.8-4.9-5.8-3 0-4.9 2.4-4.9 6s1.9 5.8 4.8 5.8c3 0 5-2.6 5-6zm6.9 6.8v-2.9c1.6 1.4 3.6 2.2 5.7 2.2s3.4-.8 3.4-2.4c0-1-.5-1.8-2-2.3l-3.1-.9c-2.6-.8-3.8-2.4-3.8-4.4 0-2.7 2.3-4.6 5.9-4.6 2.1 0 3.8.7 5.2 1.5v2.9c-1.4-1.2-3.3-1.8-5.2-1.8-2 0-3 .7-3 1.9 0 1 .7 1.7 2 2.1l2.9.8c2.9.8 4.1 2.5 4.1 4.7 0 3.1-2.5 5.2-6 5.2-2.4-.1-4.3-.7-6.1-2zm23.4-10c0-6.9 4.7-12.1 11.4-12.1s11.4 5.2 11.4 12.1c0 6.9-4.7 12.1-11.4 12.1s-11.4-5.2-11.4-12.1zm19.5 0c0-5.2-3.1-9-8.1-9s-8.1 3.9-8.1 9c0 5.2 3.1 9 8.1 9s8.1-3.8 8.1-9zM283 115v2.2h5v2.5h-5v13.8h-3v-13.8h-2.8v-2.5h2.8v-1.9c0-3.6 1.9-5.6 5.2-5.6 1.3 0 2.5.3 3.2.8v2.6c-.8-.5-1.8-.8-2.9-.8-1.7 0-2.5 1-2.5 2.7zm14.7 7.2c0-7.1 5-12.2 11.9-12.2 3.1 0 5.5 1 6.9 2.1v3.5c-1.5-1.3-3.7-2.5-6.8-2.5-5.4 0-8.8 3.8-8.8 9s3.4 9.1 8.8 9.1c2.9 0 5.3-1.1 6.9-2.4v3.3c-1.8 1.4-4.4 2.2-7 2.2-7.5-.1-11.9-5.4-11.9-12.1zm37 1.1v10.2h-3V124c0-3.2-1.1-4.6-3.7-4.6-2.8 0-4.4 2-4.4 5.4v8.8h-3V110h3v9.8c1-2 2.8-3.1 5.4-3.1 3.5 0 5.7 2.4 5.7 6.6zm17.1.3v9.9h-3v-2.2c-.8 1.7-2.4 2.7-4.6 2.7-3.3 0-5.7-2.3-5.7-5.4 0-3.1 2.4-5.3 5.9-5.3 2.1 0 3.6.9 4.4 2.1V124c0-2.9-1.7-4.5-4.4-4.5-2 0-3.7.8-5.1 2.2v-3.1c1.4-1 3.1-1.9 5.5-1.9 4.4 0 7 2.6 7 6.9zm-3 4.9c0-1.7-1.4-2.9-3.6-2.9-2.3 0-3.6 1.2-3.6 3 0 1.9 1.3 3.1 3.6 3.1 2.2-.1 3.6-1.4 3.6-3.2zm7.9-18.5h3v23.5h-3V110zm8.3 0h3v23.5h-3V110zm22 15.9h-11.8c.3 3.5 2.4 5.4 5.9 5.4 2 0 4-.7 5.3-1.8v2.9c-1.2 1-3.4 1.7-5.6 1.7-5.3 0-8.7-3.4-8.7-8.7 0-4.9 2.9-8.5 8-8.5 4.2 0 7 2.5 7 7v2zm-11.8-2.2h8.8c0-2.8-1.7-4.2-4.2-4.2-2.7-.1-4.2 1.6-4.6 4.2zm29.8-.4v10.2h-3V124c0-3.2-1.1-4.6-3.7-4.6-2.8 0-4.4 2-4.4 5.4v8.8h-3v-16.3h3v2.8c.9-2.1 2.8-3.3 5.4-3.3 3.5-.1 5.7 2.3 5.7 6.5zm19.3-6.1V132c0 5.1-3.2 8.2-8.3 8.2-2.3 0-4.3-.5-5.8-1.9v-3.1c1.4 1.5 3.4 2.3 5.6 2.3 3.9 0 5.4-2.5 5.4-6v-2.1c-1.1 2.4-2.8 3.7-5.4 3.7-4.4 0-7.1-3.3-7.1-8 0-4.8 3-8.3 7.5-8.3 2.6 0 4.1 1.1 5.1 3.5v-3h3zm-3 7.6c0-3.3-2-5.4-4.7-5.4-2.9 0-4.8 2.3-4.8 5.6 0 3.2 1.7 5.3 4.6 5.3 3.1.1 4.9-2.2 4.9-5.5zm21.9 1.1h-11.8c.3 3.5 2.4 5.4 5.9 5.4 2 0 4-.7 5.3-1.8v2.9c-1.2 1-3.4 1.7-5.6 1.7-5.3 0-8.7-3.4-8.7-8.7 0-4.9 2.9-8.5 8-8.5 4.2 0 7 2.5 7 7v2zm-11.7-2.2h8.8c0-2.8-1.7-4.2-4.2-4.2-2.7-.1-4.2 1.6-4.6 4.2z" fill="#1e305e"/><path fill="none" stroke="#1e305e" stroke-miterlimit="10" d="M.5.5h720.7v425.3H.5z"/><path d="M305.2 350.9c-2.2 0-3.8-1.3-3.8-3.1 0-1.9 1.6-3.2 3.8-3.2 2.3 0 3.8 1.3 3.8 3.2 0 1.9-1.5 3.1-3.8 3.1zm0-5.2c-1.7 0-2.8.8-2.8 2.1s1.1 2 2.8 2c1.7 0 2.8-.8 2.8-2 0-1.3-1.1-2.1-2.8-2.1zm66.4-.7c1.5 0 2.6 1.1 2.6 2.9 0 .9-.3 1.8-.7 2.4h-1c.5-.7.7-1.4.7-2.2 0-1.3-.7-2-1.6-2-.9 0-1.5.6-1.5 2 0 .9.2 1.6.5 2.1h-3.8v-4.8h1v3.9h1.8c-.2-.5-.3-1-.3-1.7 0-1.7 1-2.6 2.3-2.6zm60.4 5.4h7.2v1h-6.1l1.4 2.3h-1l-1.5-2.4v-.9zm3.7-1.8c-2.2 0-3.8-1.3-3.8-3.1 0-1.9 1.6-3.2 3.8-3.2 2.3 0 3.8 1.3 3.8 3.2-.1 1.8-1.6 3.1-3.8 3.1zm0-5.2c-1.7 0-2.8.8-2.8 2.1s1.1 2 2.8 2c1.7 0 2.8-.8 2.8-2-.1-1.4-1.1-2.1-2.8-2.1zm61.6 6.5h7.2v1h-6.1l1.4 2.3h-1l-1.5-2.4v-.9zm4.8-7.3c1.5 0 2.6 1.1 2.6 2.9 0 .9-.3 1.8-.7 2.4h-1c.5-.7.7-1.4.7-2.2 0-1.3-.7-2-1.6-2-.9 0-1.5.6-1.5 2 0 .9.2 1.6.5 2.1h-3.8V343h1v3.9h1.8c-.2-.5-.3-1-.3-1.7-.1-1.6 1-2.6 2.3-2.6zm66.7 6.4h1v5.1h-.9l-1.9-2.5c-.9-1.2-1.5-1.4-2.2-1.4-.8 0-1.4.6-1.4 1.7 0 .9.4 1.7.9 2.2h-1.2c-.4-.6-.7-1.4-.7-2.4 0-1.6.9-2.6 2.3-2.6.9 0 1.8.4 2.8 1.7l1.4 1.8V349zm-2.7-1.2c-2.2 0-3.8-1.3-3.8-3.1 0-1.9 1.6-3.2 3.8-3.2 2.3 0 3.8 1.3 3.8 3.2 0 1.8-1.5 3.1-3.8 3.1zm0-5.2c-1.7 0-2.8.8-2.8 2.1s1.1 2 2.8 2c1.7 0 2.8-.8 2.8-2 0-1.4-1.1-2.1-2.8-2.1zm67.9 5.9h1v5.1h-.9l-1.9-2.5c-.9-1.2-1.5-1.4-2.2-1.4-.8 0-1.4.6-1.4 1.7 0 .9.4 1.7.9 2.2h-1.2c-.4-.6-.7-1.4-.7-2.4 0-1.6.9-2.6 2.3-2.6.9 0 1.8.4 2.8 1.7l1.4 1.8v-3.6zm-1.5-6.7c1.5 0 2.6 1.1 2.6 2.9 0 .9-.3 1.8-.7 2.4h-1c.5-.7.7-1.4.7-2.2 0-1.3-.7-2-1.6-2-.9 0-1.5.6-1.5 2 0 .9.2 1.6.5 2.1h-3.8v-4.8h1v3.9h1.8c-.2-.5-.3-1-.3-1.7 0-1.6 1.1-2.6 2.3-2.6z" fill="#9fafb8"/><path d="M305.5 337.3V331m65.3 6.3V331m65.2 6.3V331m65.2 6.3V331m65.3 6.3V331m65.2 6.3V331" fill="#b58b5a" stroke="#9fafb8" stroke-miterlimit="10"/><path class="st6" d="M306.5 310.3h323.1c1.3 0 2.3.1 2.3.1v3.6c0 .1-1 .1-2.3.1H306.5c-1.3 0 0-.1 0-.1v-3.6s-1.3-.1 0-.1zm2.3-27.3h320.8c1.3 0 2.3.1 2.3.1v3.6c0 .1-1 .1-2.3.1H308.8c-1.3 0-2.3-.1-2.3-.1v-3.6c0-.1 1-.1 2.3-.1zm-2.3-27.3h323.1c1.3 0 2.3.1 2.3.1v3.6c0 .1-1 .1-2.3.1H306.5c-1.3 0 0-.1 0-.1v-3.6c0-.1-1.3-.1 0-.1zm0-27.3h323.1c1.3 0 2.3.1 2.3.1v3.6c0 .1-1 .1-2.3.1H306.5c-1.3 0 0-.1 0-.1v-3.6c0-.1-1.3-.1 0-.1zm0-27.3h329.1c-4.7 0-3.7.1-3.7.1v3.6c0 .1-1 .1 3.7.1H306.5c-7.3 0 0-.1 0-.1v-3.6c0-.1-7.3-.1 0-.1zm0-27.3h323.1c1.3 0 2.3.1 2.3.1v3.6c0 .1-1 .1-2.3.1H306.5c-1.3 0 0-.1 0-.1v-3.6c0-.1-1.3-.1 0-.1z"/><path class="st7" d="M306.5 310.3h161.3c.5 0 .9.1.9.1v3.6c0 .1-.4.1-.9.1H306.5c-.5 0-.9-.1-.9-.1v-3.6c-.1 0 .4-.1.9-.1zm0-27.3h11.8c.5 0 .9.1.9.1v3.6c0 .1-.4.1-.9.1h-11.8c-.5 0-.9-.1-.9-.1v-3.6c-.1-.1.4-.1.9-.1zm0-27.3h161.3c.5 0 .9.1.9.1v3.6c0 .1-.4.1-.9.1H306.5c-.5 0-.9-.1-.9-.1v-3.6c-.1-.1.4-.1.9-.1zm0-27.3H631c.5 0 .9.1.9.1v3.6c0 .1-.4.1-.9.1H306.5c-.5 0-.9-.1-.9-.1v-3.6c-.1-.1.4-.1.9-.1zm6-27.3h107c-5.5 0 .9.1.9.1v3.6c0 .1-.4.1-.9.1h-113c-.5 0-.9-.1-.9-.1v-3.6c-.1-.1.4-.1 6.9-.1zm-6-27.3h25.4c.5 0 .9.1.9.1v3.6c0 .1-.4.1-.9.1h-25.4c-.5 0-.9-.1-.9-.1v-3.6c-.1-.1.4-.1.9-.1zm-219 4.8l1.8 2h-1.9l-1.1-1.2c-.8.4-1.7.7-2.7.7-3.4 0-5.7-2.6-5.7-6s2.3-6 5.7-6c3.4 0 5.7 2.6 5.7 6 .1 1.8-.6 3.4-1.8 4.5zm-2.2-.4l-2.5-2.7h1.9l1.8 1.9c.8-.8 1.3-2 1.3-3.4 0-2.6-1.6-4.5-4.1-4.5-2.5 0-4.1 1.9-4.1 4.5s1.6 4.5 4.1 4.5c.6.1 1.1-.1 1.6-.3zm12.9-6.6v8.2h-1.5v-1.5c-.5 1.1-1.4 1.7-2.5 1.7-1.8 0-2.9-1.1-2.9-3.2v-5.2h1.5v4.8c0 1.5.7 2.3 1.9 2.3 1.3 0 2.1-1 2.1-2.8v-4.3h1.4zm8.7 3.2v5h-1.5v-1.1c-.4.8-1.2 1.3-2.3 1.3-1.6 0-2.8-1.2-2.8-2.7 0-1.6 1.2-2.7 3-2.7 1 0 1.8.4 2.2 1v-.7c0-1.4-.9-2.3-2.2-2.3-1 0-1.8.4-2.5 1.1v-1.5c.7-.5 1.6-.9 2.7-.9 2 0 3.4 1.3 3.4 3.5zm-1.5 2.4c0-.8-.7-1.5-1.8-1.5-1.2 0-1.8.6-1.8 1.5s.6 1.5 1.8 1.5c1.1.1 1.8-.6 1.8-1.5zm3.9-9.2h1.5v11.7h-1.5V168zm3.9 1.1c0-.5.4-.9 1-.9s1 .4 1 .9-.4 1-1 1-1-.5-1-1zm.2 2.5h1.5v8.2h-1.5v-8.2zm7.2-3.8c.7 0 1.2.2 1.6.4v1.3c-.4-.3-.9-.4-1.4-.4-.9 0-1.3.5-1.3 1.3v1.1h2.5v1.3h-2.5v6.9H118v-6.9h-1.4v-1.3h1.4v-.9c0-1.8 1-2.8 2.6-2.8zm2.7 1.3c0-.5.4-.9 1-.9s1 .4 1 .9-.4 1-1 1-1-.5-1-1zm.2 2.5h1.5v8.2h-1.5v-8.2zm3.5 4c0-2.5 1.7-4.3 4.2-4.3 1.2 0 2 .3 2.5.7v1.6c-.8-.7-1.5-.9-2.5-.9-1.7 0-2.8 1.2-2.8 2.9s1 3 3 3c.9 0 1.8-.3 2.4-.8v1.5c-.8.5-1.6.7-2.6.7-2.5 0-4.2-1.9-4.2-4.4zm14.9-.8v5h-1.5v-1.1c-.4.8-1.2 1.3-2.3 1.3-1.6 0-2.8-1.2-2.8-2.7 0-1.6 1.2-2.7 3-2.7 1 0 1.8.4 2.2 1v-.7c0-1.4-.9-2.3-2.2-2.3-1 0-1.8.4-2.5 1.1v-1.5c.7-.5 1.6-.9 2.7-.9 2.1 0 3.4 1.3 3.4 3.5zm-1.5 2.4c0-.8-.7-1.5-1.8-1.5-1.2 0-1.8.6-1.8 1.5s.6 1.5 1.8 1.5c1.1.1 1.8-.6 1.8-1.5zm8.5-4.3h-2.2v6.9h-1.5v-6.9h-2v-1.3h2v-2l1.5-.5v2.5h2.2v1.3zm1.3-3.8c0-.5.4-.9 1-.9s1 .4 1 .9-.4 1-1 1-1-.5-1-1zm.3 2.5h1.5v8.2h-1.5v-8.2zm3.5 4.1c0-2.4 1.5-4.3 4-4.3s4 1.9 4 4.3-1.5 4.3-4 4.3-4-1.9-4-4.3zm6.4 0c0-1.7-.9-3-2.5-3-1.5 0-2.4 1.2-2.4 3s.9 3 2.4 3c1.6-.1 2.5-1.3 2.5-3zm10.5-1.1v5.1h-1.5V175c0-1.6-.6-2.3-1.8-2.3-1.4 0-2.2 1-2.2 2.7v4.4h-1.5v-8.2h1.5v1.4c.5-1.1 1.4-1.6 2.7-1.6 1.7-.1 2.8 1.2 2.8 3.2zm-81.4 32.9l-.7-10.1-3.2 10.1h-1.9l-3.2-10.1-.6 10.1h-1.5l.7-11.4h2.5l3 9.6 3.1-9.6h2.4l.9 11.4h-1.5zm10.8-3.8h-5.9c.1 1.7 1.2 2.7 3 2.7 1 0 2-.4 2.6-.9v1.4c-.6.5-1.7.8-2.8.8-2.6 0-4.4-1.7-4.4-4.4 0-2.5 1.4-4.3 4-4.3 2.1 0 3.5 1.3 3.5 3.5v1.2zm-5.9-1.1h4.4c0-1.4-.8-2.1-2.1-2.1-1.3-.1-2.1.8-2.3 2.1zm12.5-2h-2.2v6.9h-1.5v-6.9h-2v-1.3h2v-2l1.5-.5v2.5h2.2v1.3zm8.5 1.8v5.1h-1.5v-4.8c0-1.6-.6-2.3-1.8-2.3-1.4 0-2.2 1-2.2 2.7v4.4h-1.5v-11.7h1.5v4.9c.5-1 1.4-1.6 2.7-1.6 1.7 0 2.8 1.2 2.8 3.3zm1.9 1c0-2.4 1.5-4.3 4-4.3s4 1.9 4 4.3-1.5 4.3-4 4.3-4-1.9-4-4.3zm6.4 0c0-1.7-.9-3-2.5-3-1.5 0-2.4 1.2-2.4 3 0 1.7.9 3 2.4 3 1.6 0 2.5-1.3 2.5-3zm10.9-7.7v11.7h-1.5v-1.7c-.4 1-1.3 1.9-2.8 1.9-2.1 0-3.6-1.7-3.6-4.3 0-2.6 1.7-4.4 3.7-4.4 1.2 0 2.1.5 2.7 1.7v-5h1.5zm-1.5 7.7c0-1.7-.9-2.9-2.4-2.9s-2.5 1.2-2.5 3 .9 2.9 2.4 2.9 2.5-1.3 2.5-3zm3.4 0c0-2.4 1.5-4.3 4-4.3s4 1.9 4 4.3-1.5 4.3-4 4.3-4-1.9-4-4.3zm6.4 0c0-1.7-.9-3-2.5-3-1.5 0-2.4 1.2-2.4 3 0 1.7.9 3 2.4 3 1.6 0 2.5-1.3 2.5-3zm3.6-7.7h1.5v11.7h-1.5v-11.7zm3.5 7.7c0-2.4 1.5-4.3 4-4.3s4 1.9 4 4.3-1.5 4.3-4 4.3-4-1.9-4-4.3zm6.4 0c0-1.7-.9-3-2.5-3-1.5 0-2.4 1.2-2.4 3 0 1.7.9 3 2.4 3 1.6 0 2.5-1.3 2.5-3zm10.8-4.1v7.4c0 2.5-1.6 4.1-4.1 4.1-1.2 0-2.2-.3-2.9-.9v-1.5c.7.8 1.7 1.1 2.8 1.1 2 0 2.7-1.2 2.7-3v-1c-.6 1.2-1.4 1.8-2.7 1.8-2.2 0-3.6-1.6-3.6-4s1.5-4.2 3.7-4.2c1.3 0 2.1.6 2.5 1.7v-1.5h1.6zm-1.5 3.8c0-1.6-1-2.7-2.4-2.7-1.5 0-2.4 1.2-2.4 2.8 0 1.6.9 2.7 2.3 2.7 1.5 0 2.5-1.1 2.5-2.8zm11-3.8l-5.1 11.3H170l1.9-3.9-3.1-7.3h1.6l2.3 5.7 2.5-5.7h1.5zm-91.9 35.9l-4.5-5.4v5.4h-1.6v-11.4h4.4c2.1 0 3.4 1.4 3.4 3.3s-1.4 3.2-3.7 3.2h-.3l4.3 4.9h-2zm-4.5-6.1h2.2c1.6 0 2.4-.7 2.4-2 0-1.2-.7-1.9-2.1-1.9h-2.5v3.9zm15 2.3h-5.9c.1 1.7 1.2 2.7 3 2.7 1 0 2-.4 2.6-.9v1.4c-.6.5-1.7.8-2.8.8-2.6 0-4.4-1.7-4.4-4.4 0-2.5 1.4-4.3 4-4.3 2.1 0 3.5 1.3 3.5 3.5v1.2zm-5.9-1.1h4.4c0-1.4-.8-2.1-2.1-2.1s-2.1.8-2.3 2.1zm7.9-6.8h1.5v11.7h-1.5v-11.7zm11 7.9h-5.9c.1 1.7 1.2 2.7 3 2.7 1 0 2-.4 2.6-.9v1.4c-.6.5-1.7.8-2.8.8-2.6 0-4.4-1.7-4.4-4.4 0-2.5 1.4-4.3 4-4.3 2.1 0 3.5 1.3 3.5 3.5v1.2zm-5.9-1.1h4.4c0-1.4-.8-2.1-2.1-2.1s-2 .8-2.3 2.1zm14.6-3.2l-3.2 8.2h-1.4l-3.2-8.2h1.6l2.3 6.3 2.3-6.3h1.6zm7.4 3.2v5H123v-1.1c-.4.8-1.2 1.3-2.3 1.3-1.6 0-2.8-1.2-2.8-2.7 0-1.6 1.2-2.7 3-2.7 1 0 1.8.4 2.2 1v-.7c0-1.4-.9-2.3-2.2-2.3-1 0-1.8.4-2.5 1.1v-1.5c.7-.5 1.6-.9 2.7-.9 2 0 3.3 1.3 3.3 3.5zm-1.4 2.4c0-.8-.7-1.5-1.8-1.5-1.2 0-1.8.6-1.8 1.5s.6 1.5 1.8 1.5c1.1.1 1.8-.6 1.8-1.5zm10.9-2.6v5.1h-1.5v-4.8c0-1.6-.6-2.3-1.8-2.3-1.4 0-2.2 1-2.2 2.7v4.4h-1.5V227h1.5v1.4c.5-1.1 1.4-1.6 2.7-1.6 1.7 0 2.8 1.2 2.8 3.3zm1.8 1c0-2.5 1.7-4.3 4.2-4.3 1.2 0 2 .3 2.5.7v1.6c-.8-.7-1.5-.9-2.5-.9-1.7 0-2.8 1.2-2.8 2.9s1 3 3 3c.9 0 1.8-.3 2.4-.8v1.5c-.8.5-1.6.7-2.6.7-2.4 0-4.2-1.9-4.2-4.4zm15.8.3h-5.9c.1 1.7 1.2 2.7 3 2.7 1 0 2-.4 2.6-.9v1.4c-.6.5-1.7.8-2.8.8-2.6 0-4.4-1.7-4.4-4.4 0-2.5 1.4-4.3 4-4.3 2.1 0 3.5 1.3 3.5 3.5v1.2zm-5.9-1.1h4.4c0-1.4-.8-2.1-2.1-2.1s-2.1.8-2.3 2.1zm-60.1 31.1v1.5h-6.8v-11.4h1.6v9.9h5.2zm8.3-2.3h-5.9c.1 1.7 1.2 2.7 3 2.7 1 0 2-.4 2.6-.9v1.4c-.6.5-1.7.8-2.8.8-2.6 0-4.4-1.7-4.4-4.4 0-2.5 1.4-4.3 4-4.3 2.1 0 3.5 1.3 3.5 3.5v1.2zM88 258h4.4c0-1.4-.8-2.1-2.1-2.1-1.4 0-2.1.9-2.3 2.1zm15.1-3.2v7.4c0 2.5-1.6 4.1-4.1 4.1-1.2 0-2.2-.3-2.9-.9v-1.5c.7.8 1.7 1.1 2.8 1.1 2 0 2.7-1.2 2.7-3v-1c-.6 1.2-1.4 1.8-2.7 1.8-2.2 0-3.6-1.6-3.6-4s1.5-4.2 3.7-4.2c1.3 0 2.1.6 2.5 1.7v-1.5h1.6zm-1.5 3.8c0-1.6-1-2.7-2.4-2.7-1.5 0-2.4 1.2-2.4 2.8 0 1.6.9 2.7 2.3 2.7 1.5 0 2.5-1.2 2.5-2.8zm10.1-.6v5h-1.5v-1.1c-.4.8-1.2 1.3-2.3 1.3-1.6 0-2.8-1.2-2.8-2.7 0-1.6 1.2-2.7 3-2.7 1 0 1.8.4 2.2 1v-.7c0-1.4-.9-2.3-2.2-2.3-1 0-1.8.4-2.5 1.1v-1.5c.7-.5 1.6-.9 2.7-.9 2.1 0 3.4 1.3 3.4 3.5zm-1.5 2.4c0-.8-.7-1.5-1.8-1.5-1.2 0-1.8.6-1.8 1.5s.6 1.5 1.8 1.5c1.1.1 1.8-.6 1.8-1.5zm4-9.2h1.5v11.7h-1.5v-11.7zm7.8 6.1c0-3.6 2.5-6.1 6-6.1 1.5 0 2.8.5 3.5 1v1.7c-.8-.6-1.8-1.2-3.4-1.2-2.7 0-4.4 1.9-4.4 4.5s1.7 4.5 4.4 4.5c1.4 0 2.6-.6 3.4-1.2v1.6c-.9.7-2.2 1.1-3.5 1.1-3.8.1-6-2.6-6-5.9zm10.9 1.6c0-2.4 1.5-4.3 4-4.3s4 1.9 4 4.3-1.5 4.3-4 4.3-4-1.9-4-4.3zm6.4 0c0-1.7-.9-3-2.5-3-1.5 0-2.4 1.2-2.4 3s.9 3 2.4 3c1.6-.1 2.5-1.3 2.5-3zm10.5-1.1v5.1h-1.5v-4.8c0-1.6-.6-2.3-1.8-2.3-1.4 0-2.2 1-2.2 2.7v4.4h-1.5v-8.2h1.5v1.4c.5-1.1 1.4-1.6 2.7-1.6 1.7 0 2.8 1.3 2.8 3.3zm1.9 1c0-2.5 1.7-4.3 4.2-4.3 1.2 0 2 .3 2.5.7v1.6c-.8-.7-1.5-.9-2.5-.9-1.7 0-2.8 1.2-2.8 2.9s1 3 3 3c.9 0 1.8-.3 2.4-.8v1.5c-.8.5-1.6.7-2.6.7-2.5 0-4.2-1.9-4.2-4.4zm8.8-7.6h1.5v11.7h-1.5v-11.7zm11 3.6v8.2H170v-1.5c-.5 1.1-1.4 1.7-2.5 1.7-1.8 0-2.9-1.1-2.9-3.2v-5.2h1.5v4.8c0 1.5.7 2.3 1.9 2.3 1.3 0 2.1-1 2.1-2.8v-4.3h1.4zm2 7.4v-1.4c.8.7 1.8 1.1 2.8 1.1 1 0 1.7-.4 1.7-1.2 0-.5-.2-.9-1-1.1l-1.5-.5c-1.3-.4-1.9-1.2-1.9-2.2 0-1.4 1.1-2.3 3-2.3 1.1 0 1.9.3 2.6.8v1.5c-.7-.6-1.7-.9-2.6-.9-1 0-1.5.3-1.5.9 0 .5.3.9 1 1l1.5.4c1.5.4 2.1 1.2 2.1 2.3 0 1.6-1.2 2.6-3 2.6-1.4 0-2.3-.3-3.2-1zm7.7-9.9c0-.5.4-.9 1-.9s1 .4 1 .9-.4 1-1 1-1-.4-1-1zm.2 2.5h1.5v8.2h-1.5v-8.2zm3.5 4.1c0-2.4 1.5-4.3 4-4.3s4 1.9 4 4.3-1.5 4.3-4 4.3c-2.4 0-4-1.9-4-4.3zm6.5 0c0-1.7-.9-3-2.5-3-1.5 0-2.4 1.2-2.4 3s.9 3 2.4 3c1.5-.1 2.5-1.3 2.5-3zm10.5-1.1v5.1h-1.5v-4.8c0-1.6-.6-2.3-1.8-2.3-1.4 0-2.2 1-2.2 2.7v4.4h-1.5v-8.2h1.5v1.4c.5-1.1 1.4-1.6 2.7-1.6 1.7 0 2.8 1.3 2.8 3.3zM77.9 285c0-3.4 2.3-6 5.7-6 3.4 0 5.7 2.6 5.7 6s-2.3 6-5.7 6c-3.3 0-5.7-2.6-5.7-6zm9.8 0c0-2.6-1.6-4.5-4.1-4.5-2.5 0-4.1 1.9-4.1 4.5s1.6 4.5 4.1 4.5c2.6 0 4.1-1.9 4.1-4.5zm11.6 1.5c0 2.6-1.7 4.4-3.7 4.4-1.2 0-2.2-.7-2.7-1.7v1.5h-1.5V279h1.5v5.2c.5-1 1.4-1.9 2.9-1.9 2 0 3.5 1.8 3.5 4.2zm-1.6.1c0-1.7-1-2.9-2.4-2.9-1.5 0-2.5 1.3-2.5 3s.9 2.9 2.4 2.9 2.5-1.3 2.5-3zm10.1-4.1l-3.2 8.2h-1.4l-3.2-8.2h1.6l2.3 6.3 2.3-6.3h1.6zm1.5-2.5c0-.5.4-.9 1-.9s1 .4 1 .9-.4 1-1 1-1-.4-1-1zm.2 2.5h1.5v8.2h-1.5v-8.2zm3.5 4.1c0-2.4 1.5-4.3 4-4.3s4 1.9 4 4.3-1.5 4.3-4 4.3-4-1.8-4-4.3zm6.4 0c0-1.7-.9-3-2.5-3-1.5 0-2.4 1.2-2.4 3s.9 3 2.4 3c1.6 0 2.5-1.3 2.5-3zm10.4-4.1v8.2h-1.5v-1.5c-.5 1.1-1.4 1.7-2.5 1.7-1.8 0-2.9-1.1-2.9-3.2v-5.2h1.5v4.8c0 1.5.7 2.3 1.9 2.3 1.3 0 2.1-1 2.1-2.8v-4.3h1.4zm2 7.4v-1.4c.8.7 1.8 1.1 2.8 1.1 1 0 1.7-.4 1.7-1.2 0-.5-.2-.9-1-1.1l-1.5-.5c-1.3-.4-1.9-1.2-1.9-2.2 0-1.4 1.1-2.3 3-2.3 1.1 0 1.9.3 2.6.8v1.5c-.7-.6-1.7-.9-2.6-.9-1 0-1.5.3-1.5.9 0 .5.3.9 1 1l1.5.4c1.5.4 2.1 1.2 2.1 2.3 0 1.6-1.2 2.6-3 2.6-1.3 0-2.3-.3-3.2-1zm11.7-4.9c0-3.6 2.5-6.1 6-6.1 1.5 0 2.8.5 3.5 1v1.7c-.8-.6-1.8-1.2-3.4-1.2-2.7 0-4.4 1.9-4.4 4.5s1.7 4.5 4.4 4.5c1.4 0 2.6-.6 3.4-1.2v1.6c-.9.7-2.2 1.1-3.5 1.1-3.8.1-6-2.5-6-5.9zm10.8 1.6c0-2.4 1.5-4.3 4-4.3s4 1.9 4 4.3-1.5 4.3-4 4.3c-2.4 0-4-1.8-4-4.3zm6.5 0c0-1.7-.9-3-2.5-3-1.5 0-2.4 1.2-2.4 3s.9 3 2.4 3c1.6 0 2.5-1.3 2.5-3zm10.5-1v5.1h-1.5v-4.8c0-1.6-.6-2.3-1.8-2.3-1.4 0-2.2 1-2.2 2.7v4.4h-1.5v-8.2h1.5v1.4c.5-1.1 1.4-1.6 2.7-1.6 1.7 0 2.8 1.2 2.8 3.3zm1.9 1c0-2.5 1.7-4.3 4.2-4.3 1.2 0 2 .3 2.5.7v1.6c-.8-.7-1.5-.9-2.5-.9-1.7 0-2.8 1.2-2.8 2.9s1 3 3 3c.9 0 1.8-.3 2.4-.8v1.5c-.8.5-1.6.7-2.6.7-2.5-.1-4.2-1.9-4.2-4.4zm8.8-7.7h1.5v11.7H182v-11.7zm11 3.6v8.2h-1.5v-1.5c-.5 1.1-1.4 1.7-2.5 1.7-1.8 0-2.9-1.1-2.9-3.2v-5.2h1.5v4.8c0 1.5.7 2.3 1.9 2.3 1.3 0 2.1-1 2.1-2.8v-4.3h1.4zm2 7.4v-1.4c.8.7 1.8 1.1 2.8 1.1 1 0 1.7-.4 1.7-1.2 0-.5-.2-.9-1-1.1l-1.5-.5c-1.3-.4-1.9-1.2-1.9-2.2 0-1.4 1.1-2.3 3-2.3 1.1 0 1.9.3 2.6.8v1.5c-.7-.6-1.7-.9-2.6-.9-1 0-1.5.3-1.5.9 0 .5.3.9 1 1l1.5.4c1.5.4 2.1 1.2 2.1 2.3 0 1.6-1.2 2.6-3 2.6-1.4 0-2.3-.3-3.2-1zm7.7-9.9c0-.5.4-.9 1-.9s1 .4 1 .9-.4 1-1 1-1-.4-1-1zm.2 2.5h1.5v8.2h-1.5v-8.2zm3.5 4.1c0-2.4 1.5-4.3 4-4.3s4 1.9 4 4.3-1.5 4.3-4 4.3c-2.4 0-4-1.8-4-4.3zm6.4 0c0-1.7-.9-3-2.5-3-1.5 0-2.4 1.2-2.4 3s.9 3 2.4 3c1.6 0 2.5-1.3 2.5-3zm10.6-1v5.1h-1.5v-4.8c0-1.6-.6-2.3-1.8-2.3-1.4 0-2.2 1-2.2 2.7v4.4h-1.5v-8.2h1.5v1.4c.5-1.1 1.4-1.6 2.7-1.6 1.7 0 2.8 1.2 2.8 3.3zM85.5 316.9v1.5h-6.8V307h1.6v9.9h5.2zm7.6-3.4v5h-1.5v-1.1c-.4.8-1.2 1.3-2.3 1.3-1.6 0-2.8-1.2-2.8-2.7 0-1.6 1.2-2.7 3-2.7 1 0 1.8.4 2.2 1v-.7c0-1.4-.9-2.3-2.2-2.3-1 0-1.8.4-2.5 1.1v-1.5c.7-.5 1.6-.9 2.7-.9 2.1 0 3.4 1.3 3.4 3.5zm-1.4 2.4c0-.8-.7-1.5-1.8-1.5-1.2 0-1.8.6-1.8 1.5s.6 1.5 1.8 1.5c1.1.1 1.8-.6 1.8-1.5zm8.4-4.4h-2.2v6.9h-1.5v-6.9h-2v-1.3h2v-2l1.5-.5v2.5h2.2v1.3zm8.3 3.1h-5.9c.1 1.7 1.2 2.7 3 2.7 1 0 2-.4 2.6-.9v1.4c-.6.5-1.7.8-2.8.8-2.6 0-4.4-1.7-4.4-4.4 0-2.5 1.4-4.3 4-4.3 2.1 0 3.5 1.3 3.5 3.5v1.2zm-5.9-1.1h4.4c0-1.4-.8-2.1-2.1-2.1s-2.1.8-2.3 2.1zM115 307h3.9c3.6 0 5.5 2.3 5.5 5.7 0 3.4-2 5.7-5.8 5.7H115V307zm3.5 10c2.8 0 4.2-1.7 4.2-4.3s-1.2-4.3-4-4.3h-2.1v8.5h1.9zm7.6-9.2c0-.5.4-.9 1-.9s1 .4 1 .9-.4 1-1 1c-.5 0-1-.5-1-1zm.3 2.5h1.5v8.2h-1.5v-8.2zm3.6 7.4v-1.4c.8.7 1.8 1.1 2.8 1.1 1 0 1.7-.4 1.7-1.2 0-.5-.2-.9-1-1.1l-1.5-.5c-1.3-.4-1.9-1.2-1.9-2.2 0-1.4 1.1-2.3 3-2.3 1.1 0 1.9.3 2.6.8v1.5c-.7-.6-1.7-.9-2.6-.9-1 0-1.5.3-1.5.9 0 .5.3.9 1 1l1.5.4c1.5.4 2.1 1.2 2.1 2.3 0 1.6-1.2 2.6-3 2.6-1.4 0-2.4-.3-3.2-1zm7.3-3.4c0-2.5 1.7-4.3 4.2-4.3 1.2 0 2 .3 2.5.7v1.6c-.8-.7-1.5-.9-2.5-.9-1.7 0-2.8 1.2-2.8 2.9s1 3 3 3c.9 0 1.8-.3 2.4-.8v1.5c-.8.5-1.6.7-2.6.7-2.5 0-4.2-1.9-4.2-4.4zm8.8-7.6h1.5v11.7h-1.5v-11.7zm3.5 7.6c0-2.4 1.5-4.3 4-4.3s4 1.9 4 4.3-1.5 4.3-4 4.3c-2.4.1-4-1.8-4-4.3zm6.5 0c0-1.7-.9-3-2.5-3-1.5 0-2.4 1.2-2.4 3s.9 3 2.4 3 2.5-1.2 2.5-3zm3 3.4v-1.4c.8.7 1.8 1.1 2.8 1.1 1 0 1.7-.4 1.7-1.2 0-.5-.2-.9-1-1.1l-1.5-.5c-1.3-.4-1.9-1.2-1.9-2.2 0-1.4 1.1-2.3 3-2.3 1.1 0 1.9.3 2.6.8v1.5c-.7-.6-1.7-.9-2.6-.9-1 0-1.5.3-1.5.9 0 .5.3.9 1 1l1.5.4c1.5.4 2.1 1.2 2.1 2.3 0 1.6-1.2 2.6-3 2.6-1.4 0-2.4-.3-3.2-1zm14.7-7.4v8.2h-1.5V317c-.5 1.1-1.4 1.7-2.5 1.7-1.8 0-2.9-1.1-2.9-3.2v-5.2h1.5v4.8c0 1.5.7 2.3 1.9 2.3 1.3 0 2.1-1 2.1-2.8v-4.3h1.4zm7.1.2v1.4c-.4-.3-.8-.4-1.3-.4-1 0-1.7.9-1.7 2.5v4.4h-1.5v-8.2h1.5v1.6c.4-1.1 1.1-1.8 2-1.8.3.1.6.2 1 .5zm8.3 4.1h-5.9c.1 1.7 1.2 2.7 3 2.7 1 0 2-.4 2.6-.9v1.4c-.6.5-1.7.8-2.8.8-2.6 0-4.4-1.7-4.4-4.4 0-2.5 1.4-4.3 4-4.3 2.1 0 3.5 1.3 3.5 3.5v1.2zm-5.9-1.1h4.4c0-1.4-.8-2.1-2.1-2.1-1.4 0-2.1.8-2.3 2.1zm12-4.7c.6-.1 1.6-.2 2.4-.2 1.3 0 2.2.2 2.8.8.5.4.8 1.1.8 1.9 0 1.3-.8 2.1-1.8 2.5.8.3 1.2 1 1.4 2 .3 1.4.6 2.3.8 2.7h-1.3c-.2-.3-.4-1.1-.7-2.3-.3-1.3-.8-1.9-2-1.9h-1.2v4.2h-1.3v-9.7zm1.2 4.4h1.3c1.3 0 2.2-.7 2.2-1.9 0-1.3-.9-1.8-2.2-1.8-.6 0-1 .1-1.2.1v3.6zm12.4 3.3c0 .7 0 1.4.1 1.9h-1.1l-.1-1.1c-.3.6-1.1 1.3-2.3 1.3-1.1 0-2.4-.6-2.4-3.1v-4.1h1.3v3.9c0 1.3.4 2.2 1.6 2.2.9 0 1.5-.6 1.7-1.2.1-.2.1-.4.1-.7v-4.3h1.3v5.2zm2.1-8.4h1.3v10.3H211v-10.3zm4.1 7c0 1.7 1.1 2.4 2.4 2.4.9 0 1.5-.2 1.9-.4l.2.9c-.4.2-1.2.4-2.3.4-2.2 0-3.5-1.4-3.5-3.5s1.2-3.8 3.3-3.8c2.3 0 2.9 2 2.9 3.3v.6h-4.9zm3.8-.9c0-.8-.3-2.1-1.8-2.1-1.3 0-1.9 1.2-2 2.1h3.8zm5.5 4.2v-.8l1-1c2.4-2.3 3.5-3.5 3.5-4.9 0-1-.5-1.8-1.9-1.8-.9 0-1.6.4-2 .8l-.4-.9c.7-.6 1.6-1 2.7-1 2 0 2.9 1.4 2.9 2.7 0 1.7-1.3 3.1-3.2 5.1l-.8.7h4.2v1.1h-6zm12.8-8.5c-.3 0-.6 0-1 .1-2 .3-3.1 1.8-3.3 3.3.4-.6 1.2-1.1 2.3-1.1 1.7 0 2.8 1.2 2.8 3 0 1.7-1.2 3.3-3.1 3.3-2 0-3.3-1.6-3.3-4 0-1.9.7-3.3 1.6-4.2.8-.8 1.8-1.2 3-1.4.4-.1.7-.1.9-.1v1.1zm-.4 5.4c0-1.3-.8-2.2-1.9-2.2-.8 0-1.5.5-1.8 1.2-.1.1-.1.3-.1.6 0 1.6.7 2.7 2.1 2.7 1 0 1.7-.9 1.7-2.3z"/><path class="st6" d="M363 184.4h-22.4c-4.8 0-8.6-3.9-8.6-8.6v-.8c0-4.8 3.9-8.6 8.6-8.6H363c4.8 0 8.6 3.9 8.6 8.6v.7c0 4.8-3.9 8.7-8.6 8.7zm83 27.4h-22.4c-4.8 0-8.6-3.9-8.6-8.6v-.7c0-4.8 3.9-8.6 8.6-8.6H446c4.8 0 8.6 3.9 8.6 8.6v.7c0 4.7-3.9 8.6-8.6 8.6z"/><path class="st7" d="M356.3 179.3v1.4h-7.1v-1.3l3.5-2.7c1.7-1.3 2-2.2 2-3.1 0-1.1-.9-1.9-2.5-1.9-1.3 0-2.4.6-3.1 1.2v-1.6c.9-.6 1.9-1 3.3-1 2.3 0 3.7 1.2 3.7 3.2 0 1.3-.6 2.5-2.4 3.9l-2.6 2h5.2z"/><path class="st6" d="M500.5 266.3h-22.4c-4.8 0-8.6-3.9-8.6-8.6v-.7c0-4.8 3.9-8.6 8.6-8.6h22.4c4.8 0 8.6 3.9 8.6 8.6v.7c.1 4.8-3.8 8.6-8.6 8.6zm132.4-27h-22.4c-4.8 0-8.6-3.9-8.6-8.6v-.7c0-4.8 3.9-8.6 8.6-8.6h22.4c4.8 0 8.6 3.9 8.6 8.6v.7c.1 4.7-3.8 8.6-8.6 8.6z"/><path class="st7" d="M438.3 205c0 1.8-1.6 3.1-4 3.1s-4.1-1.3-4.1-3.1c0-1.3.8-2.1 2.1-2.5-1.2-.4-1.8-1.2-1.8-2.3 0-1.5 1.5-2.8 3.7-2.8s3.7 1.2 3.7 2.8c0 1.1-.7 1.9-1.8 2.3 1.4.3 2.2 1.2 2.2 2.5zm-1.5-.1c0-1.1-1-1.8-2.5-1.8-1.6 0-2.6.7-2.6 1.8s.9 1.9 2.5 1.9 2.6-.9 2.6-1.9zm-4.8-4.6c0 1 .8 1.7 2.2 1.7 1.4 0 2.2-.7 2.2-1.7s-.8-1.6-2.2-1.6c-1.3 0-2.2.7-2.2 1.6zm189.5 33.4v1.4h-7.1v-1.3l3.5-2.7c1.7-1.3 2-2.2 2-3.1 0-1.2-.9-1.9-2.5-1.9-1.3 0-2.4.6-3.1 1.2v-1.6c.9-.6 1.9-1 3.3-1 2.3 0 3.7 1.2 3.7 3.2 0 1.3-.6 2.5-2.4 3.9l-2.6 2h5.2zm10.2-1.3h-1.9v2.6h-1.4v-2.6h-5.6V231l5-6.2h2v6.4h1.9v1.2zm-3.4-1.2v-5.1l-4.1 5.1h4.1z"/><path class="st6" d="M500.5 321.1h-22.4c-4.8 0-8.6-3.9-8.6-8.6v-.7c0-4.8 3.9-8.6 8.6-8.6h22.4c4.8 0 8.6 3.9 8.6 8.6v.7c.1 4.8-3.8 8.6-8.6 8.6zm-149.4-27.6h-22.4c-4.8 0-8.6-3.9-8.6-8.6v-.7c0-4.8 3.9-8.6 8.6-8.6h22.4c4.8 0 8.6 3.9 8.6 8.6v.7c0 4.8-3.9 8.6-8.6 8.6z"/><path class="st7" d="M485.9 252v10.2h-1.5v-8.6l-3.2 1.9V254l3.4-2.1h1.3zm9.7 8.9v1.4h-7.1V261l3.5-2.7c1.7-1.3 2-2.2 2-3.1 0-1.2-.9-1.9-2.5-1.9-1.3 0-2.4.6-3.1 1.2v-1.6c.9-.6 1.9-1 3.3-1 2.3 0 3.7 1.2 3.7 3.2 0 1.3-.6 2.5-2.4 3.9l-2.6 2h5.2zm-154.8 18.3v10.2h-1.5v-8.6l-3.2 1.9v-1.5l3.4-2.1h1.3zm145.1 28.1v10.2h-1.5v-8.6l-3.2 1.9v-1.5l3.4-2.1h1.3zm9.7 8.8v1.4h-7.1v-1.3l3.5-2.7c1.7-1.3 2-2.2 2-3.1 0-1.2-.9-1.9-2.5-1.9-1.3 0-2.4.6-3.1 1.2v-1.6c.9-.6 1.9-1 3.3-1 2.3 0 3.7 1.2 3.7 3.2 0 1.3-.6 2.5-2.4 3.9l-2.6 2h5.2z"/></svg>