<svg version="1.1" id="Layer_1" xmlns="http://www.w3.org/2000/svg" x="0" y="0" viewBox="0 0 721 421" xml:space="preserve"><style>.st6{fill:#f6f6f6}.st8{fill:#b58b5a}</style><path fill="#fff" d="M36.5 37.3h648v347.2h-648z"/><path d="M72.8 81.6c0-3 2.3-5.1 5.5-5.1 1.5 0 2.7.4 3.5 1.1V79c-.9-.7-2-1.2-3.4-1.2-2.5 0-4.1 1.6-4.1 3.7s1.6 3.8 4.1 3.8c1.4 0 2.6-.5 3.5-1.3v1.4c-1 .9-2.2 1.2-3.6 1.2-3.5 0-5.5-2.2-5.5-5zm19.8-4.8v9.5h-1.4V82h-5.9v4.2H84v-9.5h1.4v4.1h5.9v-4.1h1.3zm8.7 6.9h-4.5l-1 2.6h-1.4l3.8-9.5h1.8l3.8 9.5h-1.4l-1.1-2.6zm-.5-1.1L99 77.9l-1.8 4.6h3.6zm11.4 2.4v1.3h-6.7v-9.5h1.4V85h5.3zm8.4 0v1.3h-6.7v-9.5h1.4V85h5.3zm8.7.1v1.2h-7.1v-9.5h7V78h-5.7v2.7h5.3v1.2h-5.3v3.2h5.8zm10.9-8.3v9.5h-1.8l-5.5-8.3v8.3h-1.3v-9.5h2l5.4 8v-8h1.2zm12.2 4.3v.7c0 3.1-1.9 4.8-4.7 4.8-3.3 0-5.4-2.2-5.4-5s2-5 5.6-5c1.7 0 2.9.4 3.8 1V79c-.9-.7-2.2-1.2-3.8-1.2-2.8 0-4.2 1.6-4.2 3.7 0 2.2 1.6 3.8 4 3.8 2 0 3.3-1.1 3.4-3h-6l.3-1.2h7zm9.2 4v1.2h-7.1v-9.5h7V78h-5.7v2.7h5.3v1.2h-5.3v3.2h5.8zm6-8.3h4.2c3.3 0 5 2 5 4.7 0 2.9-1.9 4.8-5.3 4.8h-3.8v-9.5zm3.8 8.3c2.5 0 3.9-1.3 3.9-3.6 0-2.1-1.1-3.5-3.7-3.5h-2.7v7.1h2.5zm7.5-8.3h1.4v9.5h-1.4v-9.5zm3.6 8.5v-1.4c1.1.8 2.3 1.3 3.7 1.3 1.5 0 2.4-.5 2.4-1.6 0-.7-.4-1.1-1.7-1.5l-2.1-.5c-1.7-.5-2.3-1.3-2.3-2.4 0-1.6 1.4-2.7 3.7-2.7 1.5 0 2.6.5 3.3 1V79c-.9-.7-2-1.2-3.3-1.2-1.5 0-2.3.5-2.3 1.4 0 .6.4 1 1.5 1.3l2.1.5c1.8.5 2.5 1.4 2.5 2.6 0 1.7-1.4 2.9-3.7 2.9-1.4 0-2.8-.4-3.8-1.2zm17.2-5.6c0 1.7-1.3 2.9-3.5 2.9h-2.7v3.6h-1.4v-9.5h4.4c1.9.1 3.2 1.3 3.2 3zm-1.4 0c0-1.1-.8-1.8-2.1-1.8h-2.8v3.5h2.6c1.5.1 2.3-.5 2.3-1.7zm2.5 1.8c0-2.8 2.2-5 5.3-5 3 0 5.2 2.2 5.2 5s-2.2 5-5.2 5c-3.1.1-5.3-2.2-5.3-5zm9.1 0c0-2.1-1.5-3.8-3.8-3.8-2.4 0-3.9 1.6-3.9 3.8 0 2.1 1.5 3.8 3.9 3.8 2.3 0 3.8-1.6 3.8-3.8zm2.9 3.8v-1.4c1.1.8 2.3 1.3 3.7 1.3 1.5 0 2.4-.5 2.4-1.6 0-.7-.4-1.1-1.7-1.5l-2.1-.5c-1.7-.5-2.3-1.3-2.3-2.4 0-1.6 1.4-2.7 3.7-2.7 1.5 0 2.6.5 3.3 1V79c-.9-.7-2-1.2-3.3-1.2-1.5 0-2.3.5-2.3 1.4 0 .6.4 1 1.5 1.3l2.1.5c1.8.5 2.5 1.4 2.5 2.6 0 1.7-1.4 2.9-3.7 2.9-1.4 0-2.8-.4-3.8-1.2zm9.6-8.5h1.4v9.5h-1.4v-9.5zm11.1 1.2h-3.3v8.3h-1.3V78h-3.4v-1.2h8V78zm1.6-1.2h1.4v9.5h-1.4v-9.5zm3.5 4.7c0-2.8 2.2-5 5.3-5 3 0 5.2 2.2 5.2 5s-2.2 5-5.2 5c-3.1.1-5.3-2.2-5.3-5zm9.1 0c0-2.1-1.5-3.8-3.8-3.8-2.4 0-3.9 1.6-3.9 3.8 0 2.1 1.5 3.8 3.9 3.8 2.3 0 3.8-1.6 3.8-3.8zm12.2-4.7v9.5h-1.8l-5.5-8.3v8.3h-1.3v-9.5h2l5.4 8v-8h1.2z" fill="#676767"/><path d="M91 123.3c0 3.7-2.7 6.5-7.6 6.5h-8.1V107h8.5c3.8 0 6.2 2.6 6.2 5.8 0 2.2-1.1 4-3.3 4.7 2.9.8 4.3 3 4.3 5.8zm-12.5-13.5v7h4.9c2.3 0 3.5-1.4 3.5-3.4 0-2.2-1.3-3.6-3.7-3.6h-4.7zm9.2 13.3c0-2.3-1.5-3.9-4.2-3.9h-5v7.7H83c3.2.1 4.7-1.4 4.7-3.8zm21.3-9.6L98.7 136h-3.2l3.8-7.8-6.2-14.7h3.2l4.6 11.3 4.9-11.3h3.2zm9.9 4.9c0-6.9 4.7-12.1 11.4-12.1s11.4 5.2 11.4 12.1c0 6.9-4.7 12.1-11.4 12.1-6.7-.1-11.4-5.2-11.4-12.1zm19.5 0c0-5.2-3.1-9-8.1-9s-8.1 3.9-8.1 9c0 5.2 3.1 9 8.1 9s8.1-3.9 8.1-9zm21.2-4.9v16.3h-3v-3c-.9 2.3-2.7 3.5-5.1 3.5-3.6 0-5.9-2.3-5.9-6.3v-10.4h3v9.6c0 3.1 1.3 4.6 3.8 4.6 2.7 0 4.2-2.1 4.2-5.7v-8.5h3zM174 116h-4.4v13.8h-3V116h-4v-2.5h4v-4.1l3-1v5.1h4.4v2.5zm1.5 5.6c0-5 3.4-8.6 8.5-8.6 2.4 0 3.9.6 5.1 1.3v3.3c-1.5-1.3-3.1-1.9-4.9-1.9-3.4 0-5.6 2.4-5.6 5.8s2 6 5.9 6c1.8 0 3.6-.7 4.8-1.7v2.9c-1.6 1-3.2 1.5-5.3 1.5-5.1.1-8.5-3.7-8.5-8.6zm16.5 0c0-4.9 3.1-8.6 7.9-8.6 4.9 0 8 3.8 8 8.6s-3.1 8.6-8 8.6c-4.8.1-7.9-3.7-7.9-8.6zm12.9 0c0-3.5-1.8-5.9-4.9-5.9-3.1 0-4.9 2.4-4.9 5.9s1.8 5.9 4.9 5.9c3 0 4.9-2.4 4.9-5.9zm29.2-2.5v10.7h-3v-10.2c0-2.6-1.1-3.9-3.1-3.9s-3.5 1.5-3.5 3.6v10.5h-3v-10.5c0-2.3-1.2-3.6-3.2-3.6s-3.4 1.8-3.5 4.2v10h-3v-16.3h3v2.7c.9-2.1 2.4-3.2 4.6-3.2 2.1 0 3.8 1.2 4.5 3.1.9-1.9 2.5-3.1 4.8-3.1 3.4-.1 5.4 2.2 5.4 6zm18.7 3.1H241c.3 3.5 2.4 5.4 5.9 5.4 2 0 4-.7 5.3-1.8v2.9c-1.2 1-3.4 1.7-5.6 1.7-5.3 0-8.7-3.4-8.7-8.7 0-4.9 2.9-8.5 8-8.5 4.2 0 7 2.5 7 7v2zm-11.8-2.3h8.8c0-2.8-1.7-4.2-4.2-4.2-2.7 0-4.2 1.7-4.6 4.2z" fill="#1e305e"/><path fill="none" stroke="#1e305e" stroke-miterlimit="10" d="M.5.5h720v420H.5z"/><path d="M309 347.2c-2.2 0-3.8-1.3-3.8-3.1 0-1.9 1.6-3.2 3.8-3.2 2.3 0 3.8 1.3 3.8 3.2-.1 1.8-1.6 3.1-3.8 3.1zm0-5.2c-1.7 0-2.8.8-2.8 2.1s1.1 2 2.8 2c1.7 0 2.8-.8 2.8-2-.1-1.3-1.1-2.1-2.8-2.1zm66.4-.7c1.5 0 2.6 1.1 2.6 2.9 0 .9-.3 1.8-.7 2.4h-1c.5-.7.7-1.4.7-2.2 0-1.3-.7-2-1.6-2-.9 0-1.5.6-1.5 2 0 .9.2 1.6.5 2.1h-3.8v-4.8h1v3.9h1.8c-.2-.5-.3-1-.3-1.7-.1-1.7 1-2.6 2.3-2.6zm60.4 5.3h7.2v1h-6.1l1.4 2.3h-1l-1.5-2.4v-.9zm3.6-1.8c-2.2 0-3.8-1.3-3.8-3.1 0-1.9 1.6-3.2 3.8-3.2 2.3 0 3.8 1.3 3.8 3.2 0 1.9-1.5 3.1-3.8 3.1zm0-5.2c-1.7 0-2.8.8-2.8 2.1s1.1 2 2.8 2c1.7 0 2.8-.8 2.8-2 0-1.3-1.1-2.1-2.8-2.1zm61.6 6.6h7.2v1h-6.1l1.4 2.3h-1L501 347v-.8zm4.8-7.3c1.5 0 2.6 1.1 2.6 2.9 0 .9-.3 1.8-.7 2.4h-1c.5-.7.7-1.4.7-2.2 0-1.3-.7-2-1.6-2-.9 0-1.5.6-1.5 2 0 .9.2 1.6.5 2.1H501v-4.8h1v3.9h1.8c-.2-.5-.3-1-.3-1.7 0-1.7 1.1-2.6 2.3-2.6zm66.7 6.4h1v5.1h-.9l-1.9-2.5c-.9-1.2-1.5-1.4-2.2-1.4-.8 0-1.4.6-1.4 1.7 0 .9.4 1.7.9 2.2h-1.2c-.4-.6-.7-1.4-.7-2.4 0-1.6.9-2.6 2.3-2.6.9 0 1.8.4 2.8 1.7l1.4 1.8v-3.6zm-2.6-1.3c-2.2 0-3.8-1.3-3.8-3.1 0-1.9 1.6-3.2 3.8-3.2 2.3 0 3.8 1.3 3.8 3.2 0 1.9-1.6 3.1-3.8 3.1zm0-5.2c-1.7 0-2.8.8-2.8 2.1s1.1 2 2.8 2c1.7 0 2.8-.8 2.8-2 0-1.3-1.1-2.1-2.8-2.1zm67.9 6h1v5.1h-.9l-1.9-2.5c-.9-1.2-1.5-1.4-2.2-1.4-.8 0-1.4.6-1.4 1.7 0 .9.4 1.7.9 2.2H632c-.4-.6-.7-1.4-.7-2.4 0-1.6.9-2.6 2.3-2.6.9 0 1.8.4 2.8 1.7l1.4 1.8v-3.6zm-1.5-6.7c1.5 0 2.6 1.1 2.6 2.9 0 .9-.3 1.8-.7 2.4h-1c.5-.7.7-1.4.7-2.2 0-1.3-.7-2-1.6-2-.9 0-1.5.6-1.5 2 0 .9.2 1.6.5 2.1h-3.8v-4.8h1v3.9h1.8c-.2-.5-.3-1-.3-1.7 0-1.7 1-2.6 2.3-2.6z" fill="#9fafb8"/><path d="M309.3 333.6v-6.4m65.2 6.4v-6.4m65.3 6.4v-6.4m65.2 6.4v-6.4m65.2 6.4v-6.4m65.3 6.4v-6.4" fill="#b58b5a" stroke="#9fafb8" stroke-miterlimit="10"/><path class="st6" d="M310.3 306.6h323.1c1.3 0 2.3.1 2.3.1v3.6c0 .1-1 .1-2.3.1H310.3c-1.3 0 0-.1 0-.1v-3.6c0-.1-1.3-.1 0-.1zm2.2-27.4h320.8c1.3 0 2.3.1 2.3.1v3.6c0 .1-1 .1-2.3.1H312.5c-1.3 0-2.3-.1-2.3-.1v-3.6c.1 0 1.1-.1 2.3-.1zm-2.2-27.3h323.1c1.3 0 2.3.1 2.3.1v3.6c0 .1-1 .1-2.3.1H310.3c-1.3 0 0-.1 0-.1V252s-1.3-.1 0-.1zm0-27.3h323.1c1.3 0 2.3.1 2.3.1v3.6c0 .1-1 .1-2.3.1H310.3c-1.3 0 0-.1 0-.1v-3.6s-1.3-.1 0-.1zm0-27.3h329.1c-4.7 0-3.7.1-3.7.1v3.6c0 .1-1 .1 3.7.1H310.3c-7.3 0 0-.1 0-.1v-3.6s-7.3-.1 0-.1zm0-27.3h323.1c1.3 0 2.3.1 2.3.1v3.6c0 .1-1 .1-2.3.1H310.3c-1.3 0 0-.1 0-.1v-3.6s-1.3-.1 0-.1z"/><path d="M311.4 306.6h25.4c.5 0 .9.1.9.1v3.6c0 .1-.4.1-.9.1h-25.4c-.5 0-.9-.1-.9-.1v-3.6c0-.1.4-.1.9-.1zm0-27.3h194c.5 0 .9.1.9.1v3.6c0 .1-.4.1-.9.1h-194c-.5 0-.9-.1-.9-.1v-3.6c0-.1.4-.1.9-.1zm0-27.4h161.3c.5 0 .9.1.9.1v3.6c0 .1-.4.1-.9.1H311.4c-.5 0-.9-.1-.9-.1V252s.4-.1.9-.1zm0-27.3h324.5c.5 0 .9.1.9.1v3.6c0 .1-.4.1-.9.1H311.4c-.5 0-.9-.1-.9-.1v-3.6s.4-.1.9-.1zm0-27.3h107c.5 0 .9.1.9.1v3.6c0 .1-.4.1-.9.1h-107c-.5 0-.9-.1-.9-.1v-3.6s.4-.1.9-.1zm0-27.3h25.4c.5 0 .9.1.9.1v3.6c0 .1-.4.1-.9.1h-25.4c-.5 0-.9-.1-.9-.1v-3.6s.4-.1.9-.1z" fill="#cfa271"/><path class="st8" d="M89.7 173h-4.6l-1 3h-1.6l3.9-11.4h2.1l3.9 11.4h-1.7l-1-3zm-.4-1.3l-1.9-5.7-1.8 5.7h3.7zm12-7.4V176h-1.5v-1.7c-.4 1-1.3 1.9-2.8 1.9-2.1 0-3.6-1.7-3.6-4.3 0-2.6 1.7-4.4 3.7-4.4 1.2 0 2.1.5 2.7 1.7v-5h1.5zm-1.5 7.6c0-1.7-.9-2.9-2.4-2.9s-2.5 1.2-2.5 3 .9 2.9 2.4 2.9 2.5-1.3 2.5-3zm15.1-1.2v5.3h-1.5v-5.1c0-1.3-.5-2-1.5-2s-1.7.8-1.8 1.8v5.3h-1.5v-5.3c0-1.2-.6-1.8-1.6-1.8s-1.7.9-1.7 2.1v5h-1.5v-8.2h1.5v1.4c.4-1 1.2-1.6 2.3-1.6 1.1 0 1.9.6 2.3 1.6.4-1 1.3-1.6 2.4-1.6 1.6 0 2.6 1.2 2.6 3.1zm2.2-5.3c0-.5.4-.9 1-.9s1 .4 1 .9-.4 1-1 1-1-.5-1-1zm.3 2.5h1.5v8.2h-1.5v-8.2zm8.7 1.2h-2.2v6.9h-1.5v-6.9h-2v-1.3h2v-2l1.5-.5v2.5h2.2v1.3zm6.2 0h-2.2v6.9h-1.5v-6.9h-2v-1.3h2v-2l1.5-.5v2.5h2.2v1.3zm8.3 3.1h-5.9c.1 1.7 1.2 2.7 3 2.7 1 0 2-.4 2.6-.9v1.4c-.6.5-1.7.8-2.8.8-2.6 0-4.4-1.7-4.4-4.4 0-2.5 1.4-4.3 4-4.3 2.1 0 3.5 1.3 3.5 3.5v1.2zm-5.9-1.1h4.4c0-1.4-.8-2.1-2.1-2.1-1.4 0-2.1.8-2.3 2.1zm15.2-6.8V176h-1.5v-1.7c-.4 1-1.3 1.9-2.8 1.9-2.1 0-3.6-1.7-3.6-4.3 0-2.6 1.7-4.4 3.7-4.4 1.2 0 2.1.5 2.7 1.7v-5h1.5zm-1.4 7.6c0-1.7-.9-2.9-2.4-2.9s-2.5 1.2-2.5 3 .9 2.9 2.4 2.9 2.5-1.3 2.5-3zm-58.8 28.8h-4.6l-1 3h-1.6l3.9-11.4h2.1l3.9 11.4h-1.7l-1-3zm-.4-1.3l-1.9-5.7-1.8 5.7h3.7zm12-7.4v11.7h-1.5V202c-.4 1-1.3 1.9-2.8 1.9-2.1 0-3.6-1.7-3.6-4.3 0-2.6 1.7-4.4 3.7-4.4 1.2 0 2.1.5 2.7 1.7v-5h1.5zm-1.5 7.6c0-1.7-.9-2.9-2.4-2.9s-2.5 1.2-2.5 3 .9 2.9 2.4 2.9 2.5-1.2 2.5-3zm15.1-1.2v5.3h-1.5v-5.1c0-1.3-.5-2-1.5-2s-1.7.8-1.8 1.8v5.3h-1.5v-5.3c0-1.2-.6-1.8-1.6-1.8s-1.7.9-1.7 2.1v5h-1.5v-8.2h1.5v1.4c.4-1 1.2-1.6 2.3-1.6 1.1 0 1.9.6 2.3 1.6.4-1 1.3-1.6 2.4-1.6 1.6.1 2.6 1.2 2.6 3.1zm2.2-5.3c0-.5.4-.9 1-.9s1 .4 1 .9-.4 1-1 1-1-.4-1-1zm.3 2.5h1.5v8.2h-1.5v-8.2zm8.7 1.3h-2.2v6.9h-1.5v-6.9h-2v-1.3h2v-2l1.5-.5v2.5h2.2v1.3zm6.2 0h-2.2v6.9h-1.5v-6.9h-2v-1.3h2v-2l1.5-.5v2.5h2.2v1.3zm8.3 3h-5.9c.1 1.7 1.2 2.7 3 2.7 1 0 2-.4 2.6-.9v1.4c-.6.5-1.7.8-2.8.8-2.6 0-4.4-1.7-4.4-4.4 0-2.5 1.4-4.3 4-4.3 2.1 0 3.5 1.3 3.5 3.5v1.2zm-5.9-1.1h4.4c0-1.4-.8-2.1-2.1-2.1-1.4 0-2.1.9-2.3 2.1zm15.2-6.8v11.7h-1.5V202c-.4 1-1.3 1.9-2.8 1.9-2.1 0-3.6-1.7-3.6-4.3 0-2.6 1.7-4.4 3.7-4.4 1.2 0 2.1.5 2.7 1.7v-5h1.5zm-1.4 7.6c0-1.7-.9-2.9-2.4-2.9s-2.5 1.2-2.5 3 .9 2.9 2.4 2.9 2.5-1.2 2.5-3zm8.5-7.3h1.6v11.4H157v-11.4zm11.4 6.3v5.1h-1.5V199c0-1.6-.6-2.3-1.8-2.3-1.4 0-2.2 1-2.2 2.7v4.4h-1.5v-8.2h1.5v1.4c.5-1.1 1.4-1.6 2.7-1.6 1.7 0 2.8 1.2 2.8 3.2zm14.7-2.7c0 2.2-1.4 3.7-4 3.7H177v4.1h-1.6v-11.4h4.1c2.2 0 3.6 1.5 3.6 3.6zm-1.7 0c0-1.4-.8-2.2-2.3-2.2H177v4.5h2c1.6 0 2.4-.8 2.4-2.3zm9.5 2.9v5h-1.5v-1.1c-.4.8-1.2 1.3-2.3 1.3-1.6 0-2.8-1.2-2.8-2.7 0-1.6 1.2-2.7 3-2.7 1 0 1.8.4 2.2 1v-.6c0-1.4-.9-2.3-2.2-2.3-1 0-1.8.4-2.5 1.1v-1.5c.7-.5 1.6-.9 2.7-.9 2 0 3.4 1.2 3.4 3.4zm-1.5 2.4c0-.8-.7-1.5-1.8-1.5-1.2 0-1.8.6-1.8 1.5s.6 1.5 1.8 1.5c1.1.1 1.8-.6 1.8-1.5zm8.4-5.4v1.4c-.4-.3-.8-.4-1.3-.4-1 0-1.7.9-1.7 2.5v4.4h-1.5v-8.2h1.5v1.6c.4-1.1 1.1-1.8 2-1.8.3.2.7.3 1 .5zm6.3 1.1h-2.2v6.9h-1.5v-6.9h-2v-1.3h2v-2l1.5-.5v2.5h2.2v1.3zM90.8 230.1v1.4h-7.1v-11.4h7v1.4h-5.4v3.3h5.1v1.4h-5.1v3.9h5.5zm7 1.4l-2.1-3.2-2.1 3.2h-1.7l2.9-4.3-2.7-3.9h1.8l1.9 3 1.9-3h1.7l-2.7 3.9 2.9 4.3h-1.8zm2.4-4.1c0-2.5 1.7-4.3 4.2-4.3 1.2 0 2 .3 2.5.7v1.6c-.8-.7-1.5-.9-2.5-.9-1.7 0-2.8 1.2-2.8 2.9s1 3 3 3c.9 0 1.8-.3 2.4-.8v1.5c-.8.5-1.6.7-2.6.7-2.5-.1-4.2-1.9-4.2-4.4zm8.8-7.7h1.5v11.7H109v-11.7zm11 3.6v8.2h-1.5V230c-.5 1.1-1.4 1.7-2.5 1.7-1.8 0-2.9-1.1-2.9-3.2v-5.2h1.5v4.8c0 1.5.7 2.3 1.9 2.3 1.3 0 2.1-1 2.1-2.8v-4.3h1.4zm9.9-3.6v11.7h-1.5v-1.7c-.4 1-1.3 1.9-2.8 1.9-2.1 0-3.6-1.7-3.6-4.3 0-2.6 1.7-4.4 3.7-4.4 1.2 0 2.1.5 2.7 1.7v-5h1.5zm-1.5 7.7c0-1.7-.9-2.9-2.4-2.9s-2.5 1.2-2.5 3 .9 2.9 2.4 2.9 2.5-1.3 2.5-3zm10.9.3h-5.9c.1 1.7 1.2 2.7 3 2.7 1 0 2-.4 2.6-.9v1.4c-.6.5-1.7.8-2.8.8-2.6 0-4.4-1.7-4.4-4.4 0-2.5 1.4-4.3 4-4.3 2.1 0 3.5 1.3 3.5 3.5v1.2zm-5.9-1.1h4.4c0-1.4-.8-2.1-2.1-2.1-1.3-.1-2.1.8-2.3 2.1zm15.2-6.9v11.7h-1.5v-1.7c-.4 1-1.3 1.9-2.8 1.9-2.1 0-3.6-1.7-3.6-4.3 0-2.6 1.7-4.4 3.7-4.4 1.2 0 2.1.5 2.7 1.7v-5h1.5zm-1.4 7.7c0-1.7-.9-2.9-2.4-2.9s-2.5 1.2-2.5 3 .9 2.9 2.4 2.9 2.5-1.3 2.5-3zM93 247.8v11.4h-2.2l-5.7-10v10h-1.5v-11.4H86l5.4 9.6v-9.6H93zm2.1 7.3c0-2.4 1.5-4.3 4-4.3s4 1.9 4 4.3-1.5 4.3-4 4.3c-2.5.1-4-1.8-4-4.3zm6.4 0c0-1.7-.9-3-2.5-3-1.5 0-2.4 1.2-2.4 3 0 1.7.9 3 2.4 3 1.6 0 2.5-1.2 2.5-3zm14.1 4.1l-4.5-5.4v5.4h-1.6v-11.4h4.4c2.1 0 3.4 1.4 3.4 3.3s-1.4 3.2-3.7 3.2h-.3l4.3 4.9h-2zm-4.4-6.1h2.2c1.6 0 2.4-.7 2.4-2 0-1.2-.7-1.9-2.1-1.9h-2.5v3.9zm15.1-2v8.2h-1.5v-1.5c-.5 1.1-1.4 1.7-2.5 1.7-1.8 0-2.9-1.1-2.9-3.2v-5.2h1.5v4.8c0 1.5.7 2.3 1.9 2.3 1.3 0 2.1-1 2.1-2.8v-4.3h1.4zm2.5-3.6h1.5v11.7h-1.5v-11.7zm3.9 1.1c0-.5.4-.9 1-.9s1 .4 1 .9-.4 1-1 1-1-.5-1-1zm.2 2.5h1.5v8.2h-1.5v-8.2zm11.1 3v5.1h-1.5v-4.8c0-1.6-.6-2.3-1.8-2.3-1.4 0-2.2 1-2.2 2.7v4.4H137V251h1.5v1.4c.5-1.1 1.4-1.6 2.7-1.6 1.7 0 2.8 1.2 2.8 3.3zm9.7-3v7.4c0 2.5-1.6 4.1-4.1 4.1-1.2 0-2.2-.3-2.9-.9v-1.5c.7.8 1.7 1.1 2.8 1.1 2 0 2.7-1.2 2.7-3v-1c-.6 1.2-1.4 1.8-2.7 1.8-2.2 0-3.6-1.6-3.6-4s1.5-4.2 3.7-4.2c1.3 0 2.1.6 2.5 1.7v-1.5h1.6zm-1.5 3.8c0-1.6-1-2.7-2.4-2.7-1.5 0-2.4 1.2-2.4 2.8 0 1.6.9 2.7 2.3 2.7 1.6-.1 2.5-1.2 2.5-2.8zm-69.3 26.3c0-3.4 2.3-6 5.7-6 3.4 0 5.7 2.6 5.7 6s-2.3 6-5.7 6c-3.4.1-5.7-2.5-5.7-6zm9.7 0c0-2.6-1.6-4.5-4.1-4.5-2.5 0-4.1 1.9-4.1 4.5s1.6 4.5 4.1 4.5c2.6.1 4.1-1.9 4.1-4.5zm10.6-2.4v8.2h-1.5v-1.5c-.5 1.1-1.4 1.7-2.5 1.7-1.8 0-2.9-1.1-2.9-3.2v-5.2h1.5v4.8c0 1.5.7 2.3 1.9 2.3 1.3 0 2.1-1 2.1-2.8v-4.3h1.4zm7.3 1.3h-2.2v6.9h-1.5v-6.9h-2v-1.3h2v-2l1.5-.5v2.5h2.2v1.3zm.7 2.7c0-2.5 1.7-4.3 4.2-4.3 1.2 0 2 .3 2.5.7v1.6c-.8-.7-1.5-.9-2.5-.9-1.7 0-2.8 1.2-2.8 2.9s1 3 3 3c.9 0 1.8-.3 2.4-.8v1.5c-.8.5-1.6.7-2.6.7-2.5 0-4.2-1.9-4.2-4.4zm8.2.1c0-2.4 1.5-4.3 4-4.3s4 1.9 4 4.3-1.5 4.3-4 4.3c-2.4 0-4-1.9-4-4.3zm6.5 0c0-1.7-.9-3-2.5-3-1.5 0-2.4 1.2-2.4 3 0 1.7.9 3 2.4 3 1.6-.1 2.5-1.3 2.5-3zm14.6-1.3v5.3H139v-5.1c0-1.3-.5-2-1.5-2s-1.7.8-1.8 1.8v5.3h-1.5v-5.3c0-1.2-.6-1.8-1.6-1.8s-1.7.9-1.7 2.1v5h-1.5v-8.2h1.5v1.4c.4-1 1.2-1.6 2.3-1.6 1.1 0 1.9.6 2.3 1.6.4-1 1.3-1.6 2.4-1.6 1.6.1 2.6 1.2 2.6 3.1zm9.3 1.5h-5.9c.1 1.7 1.2 2.7 3 2.7 1 0 2-.4 2.6-.9v1.4c-.6.5-1.7.8-2.8.8-2.6 0-4.4-1.7-4.4-4.4 0-2.5 1.4-4.3 4-4.3 2.1 0 3.5 1.3 3.5 3.5v1.2zM144 282h4.4c0-1.4-.8-2.1-2.1-2.1-1.4 0-2.1.9-2.3 2.1zm12.3.8v-7.2h1.6v7.2c0 2 1.2 3.1 2.9 3.1s2.9-1.1 2.9-3.1v-7.2h1.6v7.2c0 2.8-1.8 4.5-4.5 4.5s-4.5-1.8-4.5-4.5zm18.5-.9v5.1h-1.5v-4.8c0-1.6-.6-2.3-1.8-2.3-1.4 0-2.2 1-2.2 2.7v4.4h-1.5v-8.2h1.5v1.4c.5-1.1 1.4-1.6 2.7-1.6 1.6 0 2.8 1.2 2.8 3.3zm7.3 5.1l-3.5-4v4h-1.5v-11.7h1.5v6.9l3.1-3.4h2l-3.8 3.7 4.1 4.5h-1.9zm10.3-5.1v5.1h-1.5v-4.8c0-1.6-.6-2.3-1.8-2.3-1.4 0-2.2 1-2.2 2.7v4.4h-1.5v-8.2h1.5v1.4c.5-1.1 1.4-1.6 2.7-1.6 1.7 0 2.8 1.2 2.8 3.3zm1.9 1c0-2.4 1.5-4.3 4-4.3s4 1.9 4 4.3-1.5 4.3-4 4.3-4-1.9-4-4.3zm6.4 0c0-1.7-.9-3-2.5-3-1.5 0-2.4 1.2-2.4 3 0 1.7.9 3 2.4 3 1.6-.1 2.5-1.3 2.5-3zm14.6-4.1l-2.7 8.2h-1.4l-2-6.5-2.1 6.5h-1.4l-2.5-8.2h1.6l1.6 6 1.9-6h1.7l1.9 6.1 1.8-6.1h1.6zm8.6 3.1v5.1h-1.5v-4.8c0-1.6-.6-2.3-1.8-2.3-1.4 0-2.2 1-2.2 2.7v4.4h-1.5v-8.2h1.5v1.4c.5-1.1 1.4-1.6 2.7-1.6 1.7 0 2.8 1.2 2.8 3.3zM93 303.3v11.4h-2.2l-5.7-10v10h-1.5v-11.4H86l5.4 9.6v-9.6H93zm2.1 7.3c0-2.4 1.5-4.3 4-4.3s4 1.9 4 4.3-1.5 4.3-4 4.3-4-1.8-4-4.3zm6.4 0c0-1.7-.9-3-2.5-3-1.5 0-2.4 1.2-2.4 3 0 1.7.9 3 2.4 3 1.6 0 2.5-1.3 2.5-3zm8.1-2.8h-2.2v6.9h-1.5v-6.9h-2v-1.3h2v-2l1.5-.5v2.5h2.2v1.3zm11.7 6.9l-4.5-5.4v5.4h-1.6v-11.4h4.4c2.1 0 3.4 1.4 3.4 3.3s-1.4 3.2-3.7 3.2h-.3l4.3 4.9h-2zm-4.5-6.1h2.2c1.6 0 2.4-.7 2.4-2 0-1.2-.7-1.9-2.1-1.9h-2.5v3.9zm15.1-2.1v8.2h-1.5v-1.5c-.5 1.1-1.4 1.7-2.5 1.7-1.8 0-2.9-1.1-2.9-3.2v-5.2h1.5v4.8c0 1.5.7 2.3 1.9 2.3 1.3 0 2.1-1 2.1-2.8v-4.3h1.4zm2.6-3.6h1.5v11.7h-1.5v-11.7zm11 8h-5.9c.1 1.7 1.2 2.7 3 2.7 1 0 2-.4 2.6-.9v1.4c-.6.5-1.7.8-2.8.8-2.6 0-4.4-1.7-4.4-4.4 0-2.5 1.4-4.3 4-4.3 2.1 0 3.5 1.3 3.5 3.5v1.2zm-5.9-1.1h4.4c0-1.4-.8-2.1-2.1-2.1-1.4-.1-2.1.8-2.3 2.1zm7.4 4.2v-1.4c.8.7 1.8 1.1 2.8 1.1 1 0 1.7-.4 1.7-1.2 0-.5-.2-.9-1-1.1l-1.5-.5c-1.3-.4-1.9-1.2-1.9-2.2 0-1.4 1.1-2.3 3-2.3 1.1 0 1.9.3 2.6.8v1.5c-.7-.6-1.7-.9-2.6-.9-1 0-1.5.3-1.5.9 0 .5.3.9 1 1l1.5.4c1.5.4 2.1 1.2 2.1 2.3 0 1.6-1.2 2.6-3 2.6-1.4-.1-2.4-.4-3.2-1zm12.3-3.5v-7.2h1.6v7.2c0 2 1.2 3.1 2.9 3.1s2.9-1.1 2.9-3.1v-7.2h1.6v7.2c0 2.8-1.8 4.5-4.5 4.5s-4.5-1.7-4.5-4.5zm19.3.1c0 2.6-1.7 4.4-3.7 4.4-1.2 0-2.2-.6-2.7-1.6v4.4h-1.5v-11.3h1.5v1.7c.5-1 1.4-1.9 2.9-1.9 2.1 0 3.5 1.9 3.5 4.3zm-1.5 0c0-1.7-1-2.9-2.4-2.9-1.5 0-2.5 1.3-2.5 3s.9 2.9 2.4 2.9 2.5-1.3 2.5-3zm2.9 0c0-2.4 1.5-4.3 4-4.3s4 1.9 4 4.3-1.5 4.3-4 4.3c-2.4 0-4-1.8-4-4.3zm6.5 0c0-1.7-.9-3-2.5-3-1.5 0-2.4 1.2-2.4 3 0 1.7.9 3 2.4 3 1.6 0 2.5-1.3 2.5-3zm10.5-1v5.1h-1.5v-4.8c0-1.6-.6-2.3-1.8-2.3-1.4 0-2.2 1-2.2 2.7v4.4H190v-8.2h1.5v1.4c.5-1.1 1.4-1.6 2.7-1.6 1.7 0 2.8 1.2 2.8 3.3zm15-6.3l-4.1 7.1v4.3h-1.6v-4.3l-4-7.1h1.7l3 5.6 3.1-5.6h1.9zm7.3 7.6h-5.9c.1 1.7 1.2 2.7 3 2.7 1 0 2-.4 2.6-.9v1.4c-.6.5-1.7.8-2.8.8-2.6 0-4.4-1.7-4.4-4.4 0-2.5 1.4-4.3 4-4.3 2.1 0 3.5 1.3 3.5 3.5v1.2zm-5.9-1.1h4.4c0-1.4-.8-2.1-2.1-2.1-1.3-.1-2.1.8-2.3 2.1zm12.5-2h-2.2v6.9h-1.5v-6.9h-2v-1.3h2v-2l1.5-.5v2.5h2.2v1.3z"/><path class="st6" d="M367.7 180.6h-22.4c-4.8 0-8.6-3.9-8.6-8.6v-.7c0-4.8 3.9-8.6 8.6-8.6h22.4c4.8 0 8.6 3.9 8.6 8.6v.7c.1 4.7-3.8 8.6-8.6 8.6zm84 27.5h-22.4c-4.8 0-8.6-3.9-8.6-8.6v-.7c0-4.8 3.9-8.6 8.6-8.6h22.4c4.8 0 8.6 3.9 8.6 8.6v.7c.1 4.7-3.8 8.6-8.6 8.6zm52.6 54.5h-22.4c-4.8 0-8.6-3.9-8.6-8.6v-.7c0-4.8 3.9-8.6 8.6-8.6h22.4c4.8 0 8.6 3.9 8.6 8.6v.7c.1 4.7-3.8 8.6-8.6 8.6zm134.4-27.1h-22.4c-4.8 0-8.6-3.9-8.6-8.6v-.7c0-4.8 3.9-8.6 8.6-8.6h22.4c4.8 0 8.6 3.9 8.6 8.6v.7c0 4.7-3.8 8.6-8.6 8.6z"/><path class="st8" d="M627.2 229.9v1.4h-7.1V230l3.5-2.7c1.7-1.3 2-2.2 2-3.1 0-1.1-.9-1.9-2.5-1.9-1.3 0-2.4.6-3.1 1.2v-1.6c.9-.6 1.9-1 3.3-1 2.3 0 3.7 1.2 3.7 3.2 0 1.3-.6 2.5-2.4 3.9l-2.6 2h5.2zm10.3-1.2h-1.9v2.6h-1.4v-2.6h-5.6v-1.4l5-6.2h2v6.4h1.9v1.2zm-3.4-1.3v-5.1l-4.1 5.1h4.1z"/><path class="st6" d="M367.7 317.4h-22.4c-4.8 0-8.6-3.9-8.6-8.6v-.8c0-4.8 3.9-8.6 8.6-8.6h22.4c4.8 0 8.6 3.9 8.6 8.6v.7c.1 4.8-3.8 8.7-8.6 8.7zm169.8-27.6h-22.4c-4.8 0-8.6-3.9-8.6-8.6v-.7c0-4.8 3.9-8.6 8.6-8.6h22.4c4.8 0 8.6 3.9 8.6 8.6v.7c0 4.7-3.9 8.6-8.6 8.6z"/><path class="st8" d="M361.2 175.5v1.4h-7.1v-1.3l3.5-2.7c1.7-1.3 2-2.2 2-3.1 0-1.2-.9-1.9-2.5-1.9-1.3 0-2.4.6-3.1 1.2v-1.6c.9-.6 1.9-1 3.3-1 2.3 0 3.7 1.2 3.7 3.2 0 1.3-.6 2.5-2.4 3.9l-2.6 2h5.2zm82 25.9c0 1.8-1.6 3.1-4 3.1s-4.1-1.3-4.1-3.1c0-1.3.8-2.1 2.1-2.5-1.2-.4-1.8-1.2-1.8-2.3 0-1.5 1.5-2.8 3.7-2.8s3.7 1.2 3.7 2.8c0 1.1-.7 1.9-1.8 2.3 1.5.3 2.2 1.2 2.2 2.5zm-1.5-.2c0-1.1-1-1.8-2.5-1.8-1.6 0-2.6.7-2.6 1.8s.9 1.9 2.5 1.9 2.6-.8 2.6-1.9zm-4.7-4.5c0 1 .8 1.7 2.2 1.7 1.4 0 2.2-.7 2.2-1.7s-.8-1.6-2.2-1.6c-1.4 0-2.2.6-2.2 1.6zm53.8 52.5v10.2h-1.5v-8.6l-3.2 1.9v-1.5l3.4-2.1h1.3zm9.7 8.8v1.4h-7.1v-1.3l3.5-2.7c1.7-1.3 2-2.2 2-3.1 0-1.2-.9-1.9-2.5-1.9-1.3 0-2.4.6-3.1 1.2V250c.9-.6 1.9-1 3.3-1 2.3 0 3.7 1.2 3.7 3.2 0 1.3-.6 2.5-2.4 3.9l-2.6 2h5.2zm22.7 18.4v10.2h-1.5V278l-3.2 1.9v-1.5l3.4-2.1h1.3zm10.2 6.7c0 2.1-1.6 3.7-4.2 3.7-1.3 0-2.5-.4-3.3-1v-1.5c1 .8 2 1 3.1 1 1.9 0 2.8-1 2.8-2.3 0-1.2-.9-2.1-2.8-2.1-1.3 0-2.2.3-3 .7v-5.4h6.8v1.3h-5.4v2.6c.7-.3 1.4-.4 2.4-.4 2.3.2 3.6 1.7 3.6 3.4zm-172.2 30.2v1.4h-7.1v-1.3l3.5-2.7c1.7-1.3 2-2.2 2-3.1 0-1.2-.9-1.9-2.5-1.9-1.3 0-2.4.6-3.1 1.2v-1.6c.9-.6 1.9-1 3.3-1 2.3 0 3.7 1.2 3.7 3.2 0 1.3-.6 2.5-2.4 3.9l-2.6 2h5.2z"/></svg>