<svg version="1.1" id="Layer_1" xmlns="http://www.w3.org/2000/svg" x="0" y="0" viewBox="0 0 421 720.5" xml:space="preserve"><style>.st1{fill:none;stroke:#1e305e;stroke-miterlimit:10}.st2{fill:#8d9394}.st3{fill:#1e305e}.st4{fill:#86cca6}.st5{fill:none;stroke:#1e305e;stroke-width:1.5;stroke-miterlimit:10}.st6{fill:#b78d59}.st7,.st8{fill:none;stroke:#b78d59;stroke-miterlimit:10}.st8{fill:#fff}</style><path d="M48.5 48.5h324v126h-324zm0 138h324v126h-324zm0 138h324v396h-324z" fill="#fff"/><path class="st1" d="M.5 719.9V.5h420v719.4"/><path class="st2" d="M73.5 83.3v-1.9c1.4 1.1 3 1.7 4.9 1.7 2 0 3.1-.7 3.1-2.1 0-.9-.5-1.4-2.2-1.9l-2.7-.7c-2.2-.6-3-1.8-3-3.2 0-2.1 1.8-3.6 4.9-3.6 2 0 3.4.6 4.4 1.3v1.8c-1.2-1-2.6-1.5-4.4-1.5-1.9 0-3.1.7-3.1 1.8 0 .8.5 1.3 1.9 1.7l2.8.7c2.4.7 3.3 1.8 3.3 3.4 0 2.3-1.9 3.8-4.9 3.8-1.9.2-3.7-.4-5-1.3zM96 75.9c0 2.3-1.7 3.8-4.6 3.8h-3.6v4.8H86V72h5.8c2.6 0 4.2 1.6 4.2 3.9zm-1.8 0c0-1.5-1-2.3-2.7-2.3h-3.6v4.6h3.4c1.8 0 2.9-.8 2.9-2.3zm13.6 7v1.6h-9.3V72h9.2v1.6h-7.4v3.5h6.9v1.6h-6.9v4.2h7.5zm1.7-4.6c0-3.9 3-6.7 7.2-6.7 1.9 0 3.5.5 4.6 1.4v1.9c-1.2-.9-2.6-1.6-4.5-1.6-3.3 0-5.4 2.1-5.4 4.9 0 2.8 2.1 4.9 5.4 4.9 1.8 0 3.4-.6 4.6-1.7v1.8c-1.3 1.1-2.9 1.6-4.8 1.6-4.4.1-7.1-2.8-7.1-6.5zm14.7-6.3h1.8v12.5h-1.8V72zm13.1 9.1h-5.9l-1.3 3.4h-1.9l5-12.5h2.4l4.9 12.5h-1.9l-1.3-3.4zm-.5-1.5l-2.4-6.1-2.4 6.1h4.8zm14.9 3.2v1.7h-8.8V72h1.8v10.8h7zm9.5-9.2h-4.4v10.9H155V73.6h-4.4V72h10.5v1.6zM174 72l-5.2 8.1v4.4H167v-4.4l-5.1-8.1h2l3.9 6.4 4-6.4h2.2z"/><path class="st3" d="M113.2 118.7h-5l-1.1 3.3h-1.8l4.2-12.5h2.3L116 122h-1.8l-1-3.3zm-.5-1.4l-2-6.2-2 6.2h4zm4.4.2c0-2.7 1.9-4.7 4.6-4.7 1.3 0 2.1.3 2.8.7v1.8c-.8-.7-1.7-1-2.7-1-1.8 0-3 1.3-3 3.2 0 1.9 1.1 3.3 3.2 3.3 1 0 2-.4 2.6-.9v1.6c-.9.6-1.8.8-2.9.8-2.8 0-4.6-2-4.6-4.8zm8.8 0c0-2.7 1.9-4.7 4.6-4.7 1.3 0 2.1.3 2.8.7v1.8c-.8-.7-1.7-1-2.7-1-1.8 0-3 1.3-3 3.2 0 1.9 1.1 3.3 3.2 3.3 1 0 2-.4 2.6-.9v1.6c-.9.6-1.8.8-2.9.8-2.8 0-4.6-2-4.6-4.8zm8.8.1c0-2.7 1.7-4.7 4.3-4.7 2.7 0 4.4 2.1 4.4 4.7 0 2.7-1.7 4.7-4.4 4.7-2.6 0-4.3-2-4.3-4.7zm7 0c0-1.9-1-3.2-2.7-3.2-1.7 0-2.6 1.3-2.6 3.2 0 1.9 1 3.2 2.6 3.2 1.7 0 2.7-1.3 2.7-3.2zm11.2-4.5v8.9h-1.6v-1.7c-.5 1.2-1.5 1.9-2.8 1.9-2 0-3.2-1.2-3.2-3.5V113h1.6v5.3c0 1.7.7 2.5 2.1 2.5 1.5 0 2.3-1.1 2.3-3.1V113h1.6zm10.2 3.4v5.6h-1.6v-5.2c0-1.8-.6-2.5-2-2.5-1.5 0-2.4 1.1-2.4 2.9v4.8h-1.6v-8.9h1.6v1.5c.5-1.2 1.5-1.8 2.9-1.8 1.9 0 3.1 1.3 3.1 3.6zm7.6-2h-2.4v7.5h-1.6v-7.5h-2.2v-1.4h2.2v-2.2l1.6-.5v2.8h2.4v1.3zm1.3-4.1c0-.6.5-1 1.1-1 .6 0 1.1.4 1.1 1s-.5 1.1-1.1 1.1c-.6 0-1.1-.5-1.1-1.1zm.2 2.7h1.6v8.9h-1.6v-8.9zm11.9 3.4v5.6h-1.6v-5.2c0-1.8-.6-2.5-2-2.5-1.5 0-2.4 1.1-2.4 2.9v4.8h-1.6v-8.9h1.6v1.5c.5-1.2 1.5-1.8 2.9-1.8 1.9 0 3.1 1.3 3.1 3.6zm10.4-3.4v8.1c0 2.8-1.8 4.5-4.5 4.5-1.3 0-2.3-.3-3.2-1V123c.8.8 1.8 1.2 3.1 1.2 2.1 0 2.9-1.4 2.9-3.3v-1.1c-.6 1.3-1.5 2-2.9 2-2.4 0-3.9-1.8-3.9-4.4 0-2.6 1.6-4.5 4.1-4.5 1.4 0 2.2.6 2.8 1.9v-1.6h1.6zm-1.6 4.2c0-1.8-1.1-3-2.6-3-1.6 0-2.6 1.3-2.6 3.1 0 1.7.9 2.9 2.5 2.9s2.7-1.2 2.7-3z"/><path class="st4" d="M78.4 108.7h13.4v13.4H78.4z"/><path class="st5" d="M81 116.7l3.1 2.1 5.1-7.2"/><path class="st3" d="M113.2 145.4h-5l-1.1 3.3h-1.8l4.2-12.5h2.3l4.2 12.5h-1.8l-1-3.3zm-.5-1.4l-2-6.2-2 6.2h4zm13.7.2c0 2.9-1.9 4.8-4.1 4.8-1.3 0-2.4-.7-2.9-1.7v4.9h-1.6v-12.3h1.6v1.8c.5-1.1 1.5-2.1 3.1-2.1 2.4-.1 3.9 2 3.9 4.6zm-1.6.1c0-1.9-1-3.2-2.7-3.2-1.7 0-2.7 1.4-2.7 3.3 0 1.8 1 3.2 2.6 3.2 1.7-.1 2.8-1.4 2.8-3.3zm12.3-.1c0 2.9-1.9 4.8-4.1 4.8-1.3 0-2.4-.7-2.9-1.7v4.9h-1.6v-12.3h1.6v1.8c.5-1.1 1.5-2.1 3.1-2.1 2.3-.1 3.9 2 3.9 4.6zm-1.7.1c0-1.9-1-3.2-2.7-3.2-1.7 0-2.7 1.4-2.7 3.3 0 1.8 1 3.2 2.6 3.2 1.7-.1 2.8-1.4 2.8-3.3zm8.6-4.2v1.6c-.4-.3-.9-.4-1.4-.4-1.1 0-1.9 1-1.9 2.7v4.8h-1.6v-8.9h1.6v1.8c.4-1.2 1.2-1.9 2.1-1.9.5-.2.9 0 1.2.3zm8.3 3.2v5.4h-1.6v-1.2c-.4.9-1.3 1.5-2.5 1.5-1.8 0-3.1-1.3-3.1-2.9 0-1.7 1.3-2.9 3.2-2.9 1.1 0 2 .5 2.4 1.1v-.8c0-1.6-.9-2.5-2.4-2.5-1.1 0-2 .4-2.8 1.2v-1.7c.7-.6 1.7-1 3-1 2.4 0 3.8 1.4 3.8 3.8zm-1.6 2.7c0-.9-.7-1.6-2-1.6s-2 .6-2 1.6.7 1.7 2 1.7c1.2 0 2-.8 2-1.7zm3.8-8.9c0-.6.5-1 1.1-1 .6 0 1.1.4 1.1 1s-.5 1.1-1.1 1.1c-.6 0-1.1-.5-1.1-1.1zm.2 2.7h1.6v8.9h-1.6v-8.9zm3.8 8.1v-1.6c.9.7 2 1.2 3.1 1.2s1.8-.5 1.8-1.3c0-.5-.2-1-1.1-1.2l-1.7-.5c-1.4-.4-2.1-1.3-2.1-2.4 0-1.5 1.2-2.5 3.2-2.5 1.2 0 2.1.4 2.8.8v1.6c-.8-.7-1.8-1-2.8-1-1.1 0-1.6.4-1.6 1 0 .5.4.9 1.1 1.1l1.6.4c1.6.4 2.2 1.4 2.2 2.6 0 1.7-1.3 2.8-3.3 2.8-1.2.1-2.3-.2-3.2-1zm15.2-4.6v5.4h-1.6v-1.2c-.4.9-1.3 1.5-2.5 1.5-1.8 0-3.1-1.3-3.1-2.9 0-1.7 1.3-2.9 3.2-2.9 1.1 0 2 .5 2.4 1.1v-.8c0-1.6-.9-2.5-2.4-2.5-1.1 0-2 .4-2.8 1.2v-1.7c.7-.6 1.7-1 3-1 2.4 0 3.8 1.4 3.8 3.8zm-1.6 2.7c0-.9-.7-1.6-2-1.6s-2 .6-2 1.6.7 1.7 2 1.7c1.2 0 2-.8 2-1.7zm4.1-10.1h1.6v12.8h-1.6v-12.8z"/><path class="st1" d="M78.4 135.4h13.4v13.4H78.4z"/><path class="st3" d="M274.4 118.5c0 2-1.5 3.6-4.1 3.6h-4.4v-12.5h4.7c2.1 0 3.4 1.4 3.4 3.2 0 1.2-.6 2.2-1.8 2.6 1.4.3 2.2 1.6 2.2 3.1zm-6.8-7.4v3.8h2.7c1.3 0 1.9-.8 1.9-1.9 0-1.2-.7-2-2-2h-2.6zm5 7.3c0-1.2-.8-2.1-2.3-2.1h-2.7v4.2h2.5c1.7 0 2.5-.8 2.5-2.1zm10.7-1.8v5.4h-1.6v-1.2c-.4.9-1.3 1.5-2.5 1.5-1.8 0-3.1-1.3-3.1-2.9 0-1.7 1.3-2.9 3.2-2.9 1.1 0 2 .5 2.4 1.1v-.8c0-1.6-.9-2.5-2.4-2.5-1.1 0-2 .4-2.8 1.2v-1.7c.7-.6 1.7-1 3-1 2.4.1 3.8 1.4 3.8 3.8zm-1.6 2.7c0-.9-.7-1.6-2-1.6s-2 .6-2 1.6.7 1.7 2 1.7c1.2 0 2-.7 2-1.7zm11.7-2.8v5.6h-1.6v-5.2c0-1.8-.6-2.5-2-2.5-1.5 0-2.4 1.1-2.4 2.9v4.8h-1.6v-8.9h1.6v1.5c.5-1.2 1.5-1.8 2.9-1.8 1.9 0 3.1 1.3 3.1 3.6zm7.9 5.5l-3.8-4.4v4.4h-1.6v-12.8h1.6v7.6l3.4-3.7h2.2l-4.2 4 4.4 4.9h-2zm3.3-11.6c0-.6.5-1 1.1-1 .6 0 1.1.4 1.1 1s-.5 1.1-1.1 1.1c-.6 0-1.1-.5-1.1-1.1zm.3 2.7h1.6v8.9h-1.6v-8.9zm11.9 3.4v5.6h-1.6v-5.2c0-1.8-.6-2.5-2-2.5-1.5 0-2.4 1.1-2.4 2.9v4.8h-1.6v-8.9h1.6v1.5c.5-1.2 1.5-1.8 2.9-1.8 1.9 0 3.1 1.3 3.1 3.6zm10.4-3.4v8.1c0 2.8-1.8 4.5-4.5 4.5-1.3 0-2.3-.3-3.2-1V123c.8.8 1.8 1.2 3.1 1.2 2.1 0 2.9-1.4 2.9-3.3v-1.1c-.6 1.3-1.5 2-2.9 2-2.4 0-3.9-1.8-3.9-4.4 0-2.6 1.6-4.5 4.1-4.5 1.4 0 2.2.6 2.8 1.9v-1.6h1.6zm-1.7 4.2c0-1.8-1.1-3-2.6-3-1.6 0-2.6 1.3-2.6 3.1 0 1.7.9 2.9 2.5 2.9 1.7 0 2.7-1.2 2.7-3z"/><path class="st1" d="M237.6 108.7H251v13.4h-13.4z"/><path class="st3" d="M274.4 145.2c0 2-1.5 3.6-4.1 3.6h-4.4v-12.5h4.7c2.1 0 3.4 1.4 3.4 3.2 0 1.2-.6 2.2-1.8 2.6 1.4.3 2.2 1.6 2.2 3.1zm-6.8-7.4v3.8h2.7c1.3 0 1.9-.8 1.9-1.9 0-1.2-.7-2-2-2h-2.6zm5 7.3c0-1.2-.8-2.1-2.3-2.1h-2.7v4.2h2.5c1.7 0 2.5-.8 2.5-2.1zm11.5-5.3v8.9h-1.6V147c-.5 1.2-1.5 1.9-2.8 1.9-2 0-3.2-1.2-3.2-3.5v-5.7h1.6v5.3c0 1.7.7 2.5 2.1 2.5 1.5 0 2.3-1.1 2.3-3.1v-4.7h1.6zm2.1 8.1v-1.6c.9.7 2 1.2 3.1 1.2s1.8-.5 1.8-1.3c0-.5-.2-1-1.1-1.2l-1.7-.5c-1.4-.4-2.1-1.3-2.1-2.4 0-1.5 1.2-2.5 3.2-2.5 1.2 0 2.1.4 2.8.8v1.6c-.8-.7-1.8-1-2.8-1-1.1 0-1.6.4-1.6 1 0 .5.4.9 1.1 1.1l1.6.4c1.6.4 2.2 1.4 2.2 2.6 0 1.7-1.3 2.8-3.3 2.8-1.2.1-2.2-.2-3.2-1zm8.2-10.8c0-.6.5-1 1.1-1 .6 0 1.1.4 1.1 1s-.5 1.1-1.1 1.1c-.6 0-1.1-.5-1.1-1.1zm.3 2.7h1.6v8.9h-1.6v-8.9zm11.9 3.3v5.6H305v-5.2c0-1.8-.6-2.5-2-2.5-1.5 0-2.4 1.1-2.4 2.9v4.8H299v-8.9h1.6v1.5c.5-1.2 1.5-1.8 2.9-1.8 1.9 0 3.1 1.4 3.1 3.6zm10 1.5h-6.4c.1 1.9 1.3 2.9 3.2 2.9 1.1 0 2.2-.4 2.9-1v1.6c-.7.5-1.8.9-3.1.9-2.9 0-4.8-1.9-4.8-4.8 0-2.7 1.6-4.7 4.4-4.7 2.3 0 3.8 1.4 3.8 3.8v1.3zm-6.4-1.3h4.8c0-1.5-.9-2.3-2.3-2.3s-2.2.9-2.5 2.3zm8.1 4.6v-1.6c.9.7 2 1.2 3.1 1.2s1.8-.5 1.8-1.3c0-.5-.2-1-1.1-1.2l-1.7-.5c-1.4-.4-2.1-1.3-2.1-2.4 0-1.5 1.2-2.5 3.2-2.5 1.2 0 2.1.4 2.8.8v1.6c-.8-.7-1.8-1-2.8-1-1.1 0-1.6.4-1.6 1 0 .5.4.9 1.1 1.1l1.6.4c1.6.4 2.2 1.4 2.2 2.6 0 1.7-1.3 2.8-3.3 2.8-1.3.1-2.3-.2-3.2-1zm8 0v-1.6c.9.7 2 1.2 3.1 1.2s1.8-.5 1.8-1.3c0-.5-.2-1-1.1-1.2l-1.7-.5c-1.4-.4-2.1-1.3-2.1-2.4 0-1.5 1.2-2.5 3.2-2.5 1.2 0 2.1.4 2.8.8v1.6c-.8-.7-1.8-1-2.8-1-1.1 0-1.6.4-1.6 1 0 .5.4.9 1.1 1.1l1.6.4c1.6.4 2.2 1.4 2.2 2.6 0 1.7-1.3 2.8-3.3 2.8-1.2.1-2.3-.2-3.2-1z"/><path class="st1" d="M237.6 135.4H251v13.4h-13.4z"/><path class="st2" d="M83.1 220.8v1.7h-8.8V210h1.8v10.8h7zm.6-4.5c0-3.7 2.9-6.6 6.9-6.6s6.9 2.9 6.9 6.6-2.9 6.6-6.9 6.6-6.9-3-6.9-6.6zm11.9 0c0-2.8-2-4.9-5-4.9-3.1 0-5.1 2.1-5.1 4.9s2 4.9 5.1 4.9c3.1 0 5-2.1 5-4.9zm3.7 0c0-3.9 3-6.7 7.2-6.7 1.9 0 3.5.5 4.6 1.4v1.9c-1.2-.9-2.6-1.6-4.5-1.6-3.3 0-5.4 2.1-5.4 4.9 0 2.8 2.1 4.9 5.4 4.9 1.8 0 3.4-.6 4.6-1.7v1.8c-1.3 1.1-2.9 1.6-4.8 1.6-4.4.1-7.1-2.8-7.1-6.5zm22.3 2.8h-5.9l-1.3 3.4h-1.9l5-12.5h2.4l4.9 12.5h-1.9l-1.3-3.4zm-.6-1.5l-2.4-6.1-2.4 6.1h4.8zm13.9-6h-4.4v10.9h-1.8v-10.9h-4.4V210h10.5v1.6zm2.2-1.6h1.8v12.5h-1.8V210zm4.5 6.3c0-3.7 2.9-6.6 6.9-6.6s6.9 2.9 6.9 6.6-2.9 6.6-6.9 6.6-6.9-3-6.9-6.6zm12 0c0-2.8-2-4.9-5-4.9-3.1 0-5.1 2.1-5.1 4.9s2 4.9 5.1 4.9c3 0 5-2.1 5-4.9zm15.9-6.3v12.5h-2.4l-7.2-10.9v10.9h-1.7V210h2.6l7 10.6V210h1.7z"/><path class="st3" d="M116.8 248.5V261h-2.4l-6.2-10.9V261h-1.6v-12.5h2.6l5.9 10.5v-10.5h1.7zm2.4 8c0-2.7 1.7-4.7 4.3-4.7 2.7 0 4.4 2.1 4.4 4.7 0 2.7-1.7 4.7-4.4 4.7-2.7.1-4.3-2-4.3-4.7zm6.9 0c0-1.9-1-3.2-2.7-3.2-1.7 0-2.6 1.3-2.6 3.2 0 1.9 1 3.2 2.6 3.2 1.8.1 2.7-1.3 2.7-3.2zm8.7-4.2v1.6c-.4-.3-.9-.4-1.4-.4-1.1 0-1.9 1-1.9 2.7v4.8h-1.6v-8.9h1.6v1.8c.4-1.2 1.2-1.9 2.1-1.9.5-.1.8 0 1.2.3zm7.2 1.2h-2.4v7.5H138v-7.5h-2.2v-1.4h2.2v-2.2l1.6-.5v2.8h2.4v1.3zm9.2 1.9v5.6h-1.6v-5.2c0-1.8-.6-2.5-2-2.5-1.5 0-2.4 1.1-2.4 2.9v4.8h-1.6v-12.8h1.6v5.4c.5-1.1 1.5-1.7 2.9-1.7 1.9-.1 3.1 1.2 3.1 3.5zm10.1 1.4h-6.4c.1 1.9 1.3 2.9 3.2 2.9 1.1 0 2.2-.4 2.9-1v1.6c-.7.5-1.8.9-3.1.9-2.9 0-4.8-1.9-4.8-4.8 0-2.7 1.6-4.7 4.4-4.7 2.3 0 3.8 1.4 3.8 3.8v1.3zm-6.4-1.2h4.8c0-1.5-.9-2.3-2.3-2.3-1.5 0-2.3.9-2.5 2.3zm15.2 0v5.4h-1.6v-1.2c-.4.9-1.3 1.5-2.5 1.5-1.8 0-3.1-1.3-3.1-2.9 0-1.7 1.3-2.9 3.2-2.9 1.1 0 2 .5 2.4 1.1v-.8c0-1.6-.9-2.5-2.4-2.5-1.1 0-2 .4-2.8 1.2v-1.7c.7-.6 1.7-1 3-1 2.3 0 3.8 1.4 3.8 3.8zm-1.6 2.6c0-.9-.7-1.6-2-1.6s-2 .6-2 1.6.7 1.7 2 1.7c1.2 0 2-.7 2-1.7zm3.6 2v-1.6c.9.7 2 1.2 3.1 1.2s1.8-.5 1.8-1.3c0-.5-.2-1-1.1-1.2l-1.7-.5c-1.4-.4-2.1-1.3-2.1-2.4 0-1.5 1.2-2.5 3.2-2.5 1.2 0 2.1.4 2.8.8v1.6c-.8-.7-1.8-1-2.8-1-1.1 0-1.6.4-1.6 1 0 .5.4.9 1.1 1.1l1.6.4c1.6.4 2.2 1.4 2.2 2.6 0 1.7-1.3 2.8-3.3 2.8-1.2.1-2.3-.3-3.2-1zm13.7-6.7h-2.4v7.5h-1.6v-7.5h-2.2v-1.4h2.2v-2.2l1.6-.5v2.8h2.4v1.3z"/><path class="st1" d="M78.4 247.6h13.4V261H78.4z"/><path class="st3" d="M105.9 286.6v-1.8c1.1 1 2.3 1.6 3.9 1.6s2.4-.7 2.4-1.9c0-1-.5-1.4-2.3-2.2l-1.2-.5c-1.8-.8-2.8-1.9-2.8-3.4 0-2.1 1.5-3.5 4-3.5 1.7 0 2.9.6 3.5 1.2v1.9c-.9-.9-2-1.5-3.5-1.5s-2.3.6-2.3 1.7c0 1 .7 1.5 2.1 2.1l1.2.6c2.1.9 2.9 1.9 2.9 3.5 0 2.2-1.6 3.6-4.1 3.6-1.2 0-2.7-.4-3.8-1.4zm9.6-3.4c0-2.7 1.7-4.7 4.3-4.7 2.7 0 4.4 2.1 4.4 4.7 0 2.7-1.7 4.7-4.4 4.7-2.6.1-4.3-2-4.3-4.7zm7 0c0-1.9-1-3.2-2.7-3.2-1.7 0-2.6 1.3-2.6 3.2 0 1.9 1 3.2 2.6 3.2 1.7.1 2.7-1.3 2.7-3.2zm11.2-4.4v8.9h-1.6V286c-.5 1.2-1.5 1.9-2.8 1.9-2 0-3.2-1.2-3.2-3.5v-5.7h1.6v5.3c0 1.7.7 2.5 2.1 2.5 1.5 0 2.3-1.1 2.3-3.1v-4.7h1.6zm7.8 1.4h-2.4v7.5h-1.6v-7.5h-2.2v-1.4h2.2v-2.2l1.6-.5v2.8h2.4v1.3zm9.2 1.9v5.6h-1.6v-5.2c0-1.8-.6-2.5-2-2.5-1.5 0-2.4 1.1-2.4 2.9v4.8H143v-12.8h1.6v5.4c.5-1.1 1.5-1.7 2.9-1.7 2-.1 3.2 1.2 3.2 3.5zm10.1 1.4h-6.4c.1 1.9 1.3 2.9 3.2 2.9 1.1 0 2.2-.4 2.9-1v1.6c-.7.5-1.8.9-3.1.9-2.9 0-4.8-1.9-4.8-4.8 0-2.7 1.6-4.7 4.4-4.7 2.3 0 3.8 1.4 3.8 3.8v1.3zm-6.4-1.2h4.8c0-1.5-.9-2.3-2.3-2.3-1.5 0-2.3.9-2.5 2.3zm15.1 0v5.4h-1.6v-1.2c-.4.9-1.3 1.5-2.5 1.5-1.8 0-3.1-1.3-3.1-2.9 0-1.7 1.3-2.9 3.2-2.9 1.1 0 2 .5 2.4 1.1v-.8c0-1.6-.9-2.5-2.4-2.5-1.1 0-2 .4-2.8 1.2v-1.7c.7-.6 1.7-1 3-1 2.4 0 3.8 1.4 3.8 3.8zm-1.6 2.6c0-.9-.7-1.6-2-1.6s-2 .6-2 1.6.7 1.7 2 1.7c1.2 0 2-.7 2-1.7zm3.6 2v-1.6c.9.7 2 1.2 3.1 1.2s1.8-.5 1.8-1.3c0-.5-.2-1-1.1-1.2l-1.7-.5c-1.4-.4-2.1-1.3-2.1-2.4 0-1.5 1.2-2.5 3.2-2.5 1.2 0 2.1.4 2.8.8v1.6c-.8-.7-1.8-1-2.8-1-1.1 0-1.6.4-1.6 1 0 .5.4.9 1.1 1.1l1.6.4c1.6.4 2.2 1.4 2.2 2.6 0 1.7-1.3 2.8-3.3 2.8-1.2.1-2.2-.3-3.2-1zm13.8-6.7h-2.4v7.5h-1.6v-7.5H179v-1.4h2.2v-2.2l1.6-.5v2.8h2.4v1.3zm79.9-21.4V257c1.1 1 2.3 1.6 3.9 1.6s2.4-.7 2.4-1.9c0-1-.5-1.4-2.3-2.2l-1.2-.5c-1.8-.8-2.8-1.9-2.8-3.4 0-2.1 1.5-3.5 4-3.5 1.7 0 2.9.6 3.5 1.2v1.9c-.9-.9-2-1.5-3.5-1.5s-2.3.6-2.3 1.7c0 1 .7 1.5 2.1 2.1l1.2.6c2.1.9 2.9 1.9 2.9 3.5 0 2.2-1.6 3.6-4.1 3.6-1.2 0-2.6-.4-3.8-1.4zm9.7-3.4c0-2.7 1.7-4.7 4.3-4.7 2.7 0 4.4 2.1 4.4 4.7 0 2.7-1.7 4.7-4.4 4.7s-4.3-2-4.3-4.7zm7 0c0-1.9-1-3.2-2.7-3.2-1.7 0-2.6 1.3-2.6 3.2 0 1.9 1 3.2 2.6 3.2 1.7 0 2.7-1.3 2.7-3.2zM293 251v8.9h-1.6v-1.7c-.5 1.2-1.5 1.9-2.8 1.9-2 0-3.2-1.2-3.2-3.5V251h1.6v5.3c0 1.7.7 2.5 2.1 2.5 1.5 0 2.3-1.1 2.3-3.1V251h1.6zm7.8 1.3h-2.4v7.5h-1.6v-7.5h-2.2V251h2.2v-2.2l1.6-.5v2.8h2.4v1.2zm9.2 2v5.6h-1.6v-5.2c0-1.8-.6-2.5-2-2.5-1.5 0-2.4 1.1-2.4 2.9v4.8h-1.6V247h1.6v5.4c.5-1.1 1.5-1.7 2.9-1.7 1.9 0 3.1 1.3 3.1 3.6zm14.4-3.3l-2.9 8.9H320l-2.2-7.2-2.3 7.2H314l-2.7-8.9h1.8l1.7 6.6 2.1-6.6h1.8l2.1 6.6 1.9-6.6h1.7zm9 4.7H327c.1 1.9 1.3 2.9 3.2 2.9 1.1 0 2.2-.4 2.9-1v1.6c-.7.5-1.8.9-3.1.9-2.9 0-4.8-1.9-4.8-4.8 0-2.7 1.6-4.7 4.4-4.7 2.3 0 3.8 1.4 3.8 3.8v1.3zm-6.4-1.2h4.8c0-1.5-.9-2.3-2.3-2.3-1.5 0-2.3.9-2.5 2.3zm8 4.6v-1.6c.9.7 2 1.2 3.1 1.2s1.8-.5 1.8-1.3c0-.5-.2-1-1.1-1.2l-1.7-.5c-1.4-.4-2.1-1.3-2.1-2.4 0-1.5 1.2-2.5 3.2-2.5 1.2 0 2.1.4 2.8.8v1.6c-.8-.7-1.8-1-2.8-1-1.1 0-1.6.4-1.6 1 0 .5.4.9 1.1 1.1l1.6.4c1.6.4 2.2 1.4 2.2 2.6 0 1.7-1.3 2.8-3.3 2.8-1.2 0-2.2-.3-3.2-1zm13.8-6.8h-2.4v7.5h-1.6v-7.5h-2.2V251h2.2v-2.2l1.6-.5v2.8h2.4v1.2z"/><path class="st1" d="M237.7 246.5h13.4v13.4h-13.4z"/><path class="st3" d="M281.2 274.1l-3.3 12.5h-2.2l-2.8-10.9-2.8 10.9H268l-3.2-12.5h1.8l2.4 10.6 2.7-10.6h2.3l2.7 10.6 2.6-10.6h1.9zm8.7 8.3h-6.4c.1 1.9 1.3 2.9 3.2 2.9 1.1 0 2.2-.4 2.9-1v1.6c-.7.5-1.8.9-3.1.9-2.9 0-4.8-1.9-4.8-4.8 0-2.7 1.6-4.7 4.4-4.7 2.3 0 3.8 1.4 3.8 3.8v1.3zm-6.4-1.2h4.8c0-1.5-.9-2.3-2.3-2.3s-2.2.9-2.5 2.3zm8.1 4.6v-1.6c.9.7 2 1.2 3.1 1.2s1.8-.5 1.8-1.3c0-.5-.2-1-1.1-1.2l-1.7-.5c-1.4-.4-2.1-1.3-2.1-2.4 0-1.5 1.2-2.5 3.2-2.5 1.2 0 2.1.4 2.8.8v1.6c-.8-.7-1.8-1-2.8-1-1.1 0-1.6.4-1.6 1 0 .5.4.9 1.1 1.1l1.6.4c1.6.4 2.2 1.4 2.2 2.6 0 1.7-1.3 2.8-3.3 2.8-1.2 0-2.3-.3-3.2-1zm13.7-6.8h-2.4v7.5h-1.6V279h-2.2v-1.4h2.2v-2.2l1.6-.5v2.8h2.4v1.3z"/><path class="st1" d="M237.7 273.2h13.4v13.4h-13.4z"/><path class="st2" d="M71.3 354.7c0-3.9 3-6.7 7.2-6.7 1.9 0 3.5.5 4.6 1.4v1.9c-1.2-.9-2.6-1.6-4.5-1.6-3.3 0-5.4 2.1-5.4 4.9 0 2.8 2.1 4.9 5.4 4.9 1.8 0 3.4-.6 4.6-1.7v1.8c-1.3 1.1-2.9 1.6-4.8 1.6-4.4.1-7.1-2.8-7.1-6.5zm25.9-6.3v12.5h-1.8v-5.6h-7.7v5.6h-1.8v-12.5h1.8v5.3h7.7v-5.3h1.8zm11.4 9.1h-5.9l-1.3 3.4h-1.9l5-12.5h2.4l4.9 12.5h-1.9l-1.3-3.4zm-.6-1.5l-2.4-6.1-2.4 6.1h4.8zm13.9 4.9l-6-5.7v5.7h-1.8v-12.5h6.1c2.3 0 3.9 1.5 3.9 3.6 0 2.2-1.5 3.7-4.2 3.7h-1.2l5.8 5.2h-2.6zm-6-6.5h3.8c1.7 0 2.6-.8 2.6-2.2 0-1.3-.9-2.1-2.4-2.1h-4v4.3zm19.9-4.3h-4.4V361h-1.8v-10.9h-4.4v-1.6h10.5v1.6zm14.1 10.8l-6-5.7v5.7h-1.8v-12.5h6.1c2.3 0 3.9 1.5 3.9 3.6 0 2.2-1.5 3.7-4.2 3.7h-1.2l5.8 5.2h-2.6zm-5.9-6.5h3.8c1.7 0 2.6-.8 2.6-2.2 0-1.3-.9-2.1-2.4-2.1h-4v4.3zm20.3 4.9v1.6H155v-12.5h9.2v1.6h-7.4v3.5h6.9v1.6h-6.9v4.2h7.5zm13.7-10.9l-5.1 12.5h-2l-5.1-12.5h1.9l4.2 10.6 4.2-10.6h1.9zm2.3 0h1.8v12.5h-1.8v-12.5zm14.8 10.9v1.6h-9.3v-12.5h9.2v1.6h-7.4v3.5h6.9v1.6h-6.9v4.2h7.5zm19.6-10.9l-3.6 12.5h-2.2l-3.2-10.9-3.3 10.9h-2.3l-3.4-12.5h1.9l2.7 10.6 3.2-10.6h2.4L210 359l2.8-10.6h1.9zm8.7 1.7v3.5h6.9v1.6h-6.9v5.8h-1.8v-12.5h9.2v1.6h-7.4zm19.2 9.2v1.6h-9.3v-12.5h9.2v1.6h-7.4v3.5h6.9v1.6h-6.9v4.2h7.5zm12.2 0v1.6h-9.3v-12.5h9.2v1.6h-7.4v3.5h6.9v1.6h-6.9v4.2h7.5z"/><path class="st6" d="M134.8 402.8v-1.4c-.8 0-1.6-.3-2-.6l.3-.9c.5.3 1.2.6 1.9.6.9 0 1.6-.5 1.6-1.3 0-.7-.5-1.2-1.5-1.6-1.4-.5-2.2-1.2-2.2-2.3 0-1.1.8-2 2-2.2v-1.4h.8v1.3c.8 0 1.3.2 1.7.5l-.3.9c-.3-.2-.8-.5-1.7-.5-1 0-1.4.6-1.4 1.2 0 .7.5 1 1.7 1.5 1.4.6 2.1 1.3 2.1 2.4 0 1.1-.7 2-2.1 2.3v1.4h-.9zm7.4-10.1v8.9H141v-7.4l-2.4 1.6v-1.3l2.6-1.8h1zm7.9 6c0 1.8-1.3 3.1-3.3 3.1-.9 0-1.8-.3-2.5-.8v-1.3c.6.6 1.5.9 2.3.9 1.4 0 2.2-.8 2.2-1.9 0-1.1-.7-1.9-2.1-1.9-.9 0-1.7.3-2.3.6v-4.8h5.2v1.2h-4v2.2c.5-.2 1-.3 1.6-.3 1.9.2 2.9 1.5 2.9 3zm1.3-1.5c0-2.9 1.3-4.7 3.4-4.7 2.1 0 3.4 1.8 3.4 4.7 0 2.9-1.3 4.6-3.4 4.6-2.1 0-3.4-1.8-3.4-4.6zm5.5 0c0-2.1-.7-3.5-2.1-3.5-1.3 0-2.1 1.4-2.1 3.5s.7 3.5 2.1 3.5c1.3-.1 2.1-1.4 2.1-3.5zm38.6 5.6v-1.4c-.8 0-1.6-.3-2-.6l.3-.9c.5.3 1.2.6 1.9.6.9 0 1.6-.5 1.6-1.3 0-.7-.5-1.2-1.5-1.6-1.4-.5-2.2-1.2-2.2-2.3 0-1.1.8-2 2-2.2v-1.4h.8v1.3c.8 0 1.3.2 1.7.5l-.3.9c-.3-.2-.8-.5-1.7-.5-1 0-1.4.6-1.4 1.2 0 .7.5 1 1.7 1.5 1.4.6 2.1 1.3 2.1 2.4 0 1.1-.7 2-2.1 2.3v1.4h-.9zm9.6-2.4v1.2h-5.5v-1.1l2.7-2.6c1.1-1 1.4-1.8 1.4-2.6 0-1-.6-1.7-1.8-1.7-1 0-1.8.5-2.3 1.1v-1.4c.7-.6 1.5-.9 2.5-.9 1.8 0 2.9 1.1 2.9 2.7 0 1.1-.5 2.1-1.7 3.2l-2.1 2h3.9zm1.3-3.2c0-2.9 1.3-4.7 3.4-4.7 2.1 0 3.4 1.8 3.4 4.7 0 2.9-1.3 4.6-3.4 4.6-2.1 0-3.4-1.8-3.4-4.6zm5.5 0c0-2.1-.7-3.5-2.1-3.5-1.3 0-2.1 1.4-2.1 3.5s.7 3.5 2.1 3.5c1.3-.1 2.1-1.4 2.1-3.5zm2.7 0c0-2.9 1.3-4.7 3.4-4.7 2.1 0 3.4 1.8 3.4 4.7 0 2.9-1.3 4.6-3.4 4.6-2.1 0-3.4-1.8-3.4-4.6zm5.5 0c0-2.1-.7-3.5-2.1-3.5-1.3 0-2.1 1.4-2.1 3.5s.7 3.5 2.1 3.5c1.4-.1 2.1-1.4 2.1-3.5z"/><path class="st7" d="M76.3 416.2h266.2"/><path class="st6" d="M139.5 409.5h13.4v13.4h-13.4z"/><path class="st3" d="M71.3 439.7v-1.4c-.8 0-1.6-.3-2-.6l.3-.9c.5.3 1.2.6 1.9.6.9 0 1.6-.5 1.6-1.3 0-.7-.5-1.2-1.5-1.6-1.4-.5-2.2-1.2-2.2-2.3 0-1.1.8-2 2-2.2v-1.4h.8v1.3c.8 0 1.3.2 1.7.5l-.3.9c-.3-.2-.8-.5-1.7-.5-1 0-1.4.6-1.4 1.2 0 .7.5 1 1.7 1.5 1.4.6 2.1 1.3 2.1 2.4 0 1.1-.7 2-2.1 2.3v1.4h-.9zm7.4-10.1v8.9h-1.2v-7.4l-2.4 1.6v-1.3l2.6-1.8h1zm2 4.5c0-2.9 1.3-4.7 3.4-4.7 2.1 0 3.4 1.8 3.4 4.7 0 2.9-1.3 4.6-3.4 4.6-2.1 0-3.4-1.8-3.4-4.6zm5.4 0c0-2.1-.7-3.5-2.1-3.5-1.3 0-2.1 1.4-2.1 3.5s.7 3.5 2.1 3.5c1.4-.1 2.1-1.4 2.1-3.5zm2.8 0c0-2.9 1.3-4.7 3.4-4.7 2.1 0 3.4 1.8 3.4 4.7 0 2.9-1.3 4.6-3.4 4.6-2.1 0-3.4-1.8-3.4-4.6zm5.5 0c0-2.1-.7-3.5-2.1-3.5-1.3 0-2.1 1.4-2.1 3.5s.7 3.5 2.1 3.5c1.4-.1 2.1-1.4 2.1-3.5zm165 5.6v-1.4c-.8 0-1.6-.3-2-.6l.3-.9c.5.3 1.2.6 1.9.6.9 0 1.6-.5 1.6-1.3 0-.7-.5-1.2-1.5-1.6-1.4-.5-2.2-1.2-2.2-2.3 0-1.1.8-2 2-2.2v-1.4h.8v1.3c.8 0 1.3.2 1.7.5l-.3.9c-.3-.2-.8-.5-1.7-.5-1 0-1.4.6-1.4 1.2 0 .7.5 1 1.7 1.5 1.4.6 2.1 1.3 2.1 2.4 0 1.1-.7 2-2.1 2.3v1.4h-.9zm9.7-2.4v1.2h-5.5v-1.1l2.7-2.6c1.1-1 1.4-1.8 1.4-2.6 0-1-.6-1.7-1.8-1.7-1 0-1.8.5-2.3 1.1v-1.4c.7-.6 1.5-.9 2.5-.9 1.8 0 2.9 1.1 2.9 2.7 0 1.1-.5 2.1-1.7 3.2l-2.1 2h3.9zm7.3-1.7c0 1.8-1.3 3.1-3.3 3.1-.9 0-1.8-.3-2.5-.8v-1.3c.6.6 1.5.9 2.3.9 1.4 0 2.2-.8 2.2-1.9 0-1.1-.7-1.9-2.1-1.9-.9 0-1.7.3-2.3.6v-4.8h5.2v1.2h-4v2.2c.5-.2 1-.3 1.6-.3 1.8.2 2.9 1.5 2.9 3zm1.3-1.5c0-2.9 1.3-4.7 3.4-4.7 2.1 0 3.4 1.8 3.4 4.7 0 2.9-1.3 4.6-3.4 4.6-2.1 0-3.4-1.8-3.4-4.6zm5.4 0c0-2.1-.7-3.5-2.1-3.5-1.3 0-2.1 1.4-2.1 3.5s.7 3.5 2.1 3.5c1.4-.1 2.1-1.4 2.1-3.5zm40.2 5.6v-1.4c-.8 0-1.6-.3-2-.6l.3-.9c.5.3 1.2.6 1.9.6.9 0 1.6-.5 1.6-1.3 0-.7-.5-1.2-1.5-1.6-1.4-.5-2.2-1.2-2.2-2.3 0-1.1.8-2 2-2.2v-1.4h.8v1.3c.8 0 1.3.2 1.7.5l-.3.9c-.3-.2-.8-.5-1.7-.5-1 0-1.4.6-1.4 1.2 0 .7.5 1 1.7 1.5 1.4.6 2.1 1.3 2.1 2.4 0 1.1-.7 2-2.1 2.3v1.4h-.9zm9.9-3.8c0 1.6-1.3 2.8-3.2 2.8-.9 0-1.7-.2-2.4-.7v-1.3c.4.4 1.1.8 2.3.8 1.3 0 2-.6 2-1.7 0-.7-.4-1.5-1.9-1.5h-1.8l.2-1h1.6c1.3 0 1.7-.6 1.7-1.5 0-.8-.6-1.3-1.8-1.3-1.1 0-1.8.5-2.2.8V430c.7-.5 1.5-.7 2.4-.7 1.8 0 2.9 1 2.9 2.3 0 .9-.5 1.8-1.5 2 1.1.4 1.7 1.3 1.7 2.3zm1.4-1.8c0-2.9 1.3-4.7 3.4-4.7 2.1 0 3.4 1.8 3.4 4.7 0 2.9-1.3 4.6-3.4 4.6-2.1 0-3.4-1.8-3.4-4.6zm5.5 0c0-2.1-.7-3.5-2.1-3.5-1.3 0-2.1 1.4-2.1 3.5s.7 3.5 2.1 3.5c1.3-.1 2.1-1.4 2.1-3.5zm2.7 0c0-2.9 1.3-4.7 3.4-4.7 2.1 0 3.4 1.8 3.4 4.7 0 2.9-1.3 4.6-3.4 4.6-2 0-3.4-1.8-3.4-4.6zm5.5 0c0-2.1-.7-3.5-2.1-3.5-1.3 0-2.1 1.4-2.1 3.5s.7 3.5 2.1 3.5c1.4-.1 2.1-1.4 2.1-3.5z"/><path class="st6" d="M202.7 409.5h13.4v13.4h-13.4z"/><path class="st8" d="M76.3 409.5h13.4v13.4H76.3zm189.6 0h13.4v13.4h-13.4zm63.2 0h13.4v13.4h-13.4z"/><path class="st6" d="M152.9 412.9h49.8v6.6h-49.8z"/><path class="st2" d="M72.3 576.1h5.5c4.3 0 6.5 2.6 6.5 6.2 0 3.7-2.5 6.3-7 6.3h-5v-12.5zm4.9 10.9c3.3 0 5.2-1.7 5.2-4.7 0-2.7-1.5-4.6-4.8-4.6H74v9.3h3.2zm19.2 0v1.6h-9.3v-12.5h9.2v1.6h-7.4v3.5h6.9v1.6h-6.9v4.2h7.5zm12.9-7c0 2.3-1.7 3.8-4.6 3.8h-3.6v4.8h-1.8v-12.5h5.8c2.5 0 4.2 1.6 4.2 3.9zm-1.9 0c0-1.5-1-2.3-2.7-2.3h-3.6v4.6h3.4c1.9 0 2.9-.8 2.9-2.3zm3.4 2.4c0-3.7 2.9-6.6 6.9-6.6s6.9 2.9 6.9 6.6-2.9 6.6-6.9 6.6c-4.1 0-6.9-2.9-6.9-6.6zm11.9 0c0-2.8-2-4.9-5-4.9-3.1 0-5.1 2.1-5.1 4.9s2 4.9 5.1 4.9c3.1 0 5-2.1 5-4.9zm3.9 5v-1.9c1.4 1.1 3 1.7 4.9 1.7 2 0 3.1-.7 3.1-2.1 0-.9-.5-1.4-2.2-1.9l-2.7-.7c-2.2-.6-3-1.8-3-3.2 0-2.1 1.8-3.6 4.9-3.6 2 0 3.4.6 4.4 1.3v1.8c-1.2-1-2.6-1.5-4.4-1.5-1.9 0-3.1.7-3.1 1.8 0 .8.5 1.3 1.9 1.7l2.8.7c2.4.7 3.3 1.8 3.3 3.4 0 2.3-1.9 3.8-4.9 3.8-2 .2-3.7-.3-5-1.3zm12.5-11.3h1.8v12.5h-1.8v-12.5zm14.5 1.6h-4.4v10.9h-1.8v-10.9H143v-1.6h10.5v1.6zm2.2-1.6h1.8v12.5h-1.8v-12.5zm4.6 6.3c0-3.7 2.9-6.6 6.9-6.6s6.9 2.9 6.9 6.6-2.9 6.6-6.9 6.6c-4.1 0-6.9-2.9-6.9-6.6zm11.9 0c0-2.8-2-4.9-5-4.9-3.1 0-5.1 2.1-5.1 4.9s2 4.9 5.1 4.9c3 0 5-2.1 5-4.9zm15.9-6.3v12.5h-2.4l-7.2-10.9v10.9h-1.7v-12.5h2.6l7 10.6v-10.6h1.7zm10.5 1.6v3.5h6.9v1.6h-6.9v5.8h-1.8v-12.5h9.2v1.6h-7.4zm19.2 9.3v1.6h-9.3v-12.5h9.2v1.6h-7.4v3.5h6.9v1.6h-6.9v4.2h7.5zm12.2 0v1.6h-9.3v-12.5h9.2v1.6h-7.4v3.5h6.9v1.6h-6.9v4.2h7.5z"/><path class="st6" d="M134.8 630.2v-1.4c-.8 0-1.6-.3-2-.6l.3-.9c.5.3 1.2.6 1.9.6.9 0 1.6-.5 1.6-1.3 0-.7-.5-1.2-1.5-1.6-1.4-.5-2.2-1.2-2.2-2.3 0-1.1.8-2 2-2.2v-1.4h.8v1.3c.8 0 1.3.2 1.7.5l-.3.9c-.3-.2-.8-.5-1.7-.5-1 0-1.4.6-1.4 1.2 0 .7.5 1 1.7 1.5 1.4.6 2.1 1.3 2.1 2.4 0 1.1-.7 2-2.1 2.3v1.4h-.9zm7.4-10.1v8.9H141v-7.4l-2.4 1.6V622l2.6-1.8h1zm7.9 6.1c0 1.8-1.3 3.1-3.3 3.1-.9 0-1.8-.3-2.5-.8v-1.3c.6.6 1.5.9 2.3.9 1.4 0 2.2-.8 2.2-1.9 0-1.1-.7-1.9-2.1-1.9-.9 0-1.7.3-2.3.6v-4.8h5.2v1.2h-4v2.2c.5-.2 1-.3 1.6-.3 1.9.1 2.9 1.4 2.9 3zm1.3-1.6c0-2.9 1.3-4.7 3.4-4.7 2.1 0 3.4 1.8 3.4 4.7 0 2.9-1.3 4.6-3.4 4.6-2.1 0-3.4-1.7-3.4-4.6zm5.5 0c0-2.1-.7-3.5-2.1-3.5-1.3 0-2.1 1.4-2.1 3.5s.7 3.5 2.1 3.5c1.3 0 2.1-1.4 2.1-3.5zm38.6 5.6v-1.4c-.8 0-1.6-.3-2-.6l.3-.9c.5.3 1.2.6 1.9.6.9 0 1.6-.5 1.6-1.3 0-.7-.5-1.2-1.5-1.6-1.4-.5-2.2-1.2-2.2-2.3 0-1.1.8-2 2-2.2v-1.4h.8v1.3c.8 0 1.3.2 1.7.5l-.3.9c-.3-.2-.8-.5-1.7-.5-1 0-1.4.6-1.4 1.2 0 .7.5 1 1.7 1.5 1.4.6 2.1 1.3 2.1 2.4 0 1.1-.7 2-2.1 2.3v1.4h-.9zm9.6-2.3v1.2h-5.5V628l2.7-2.6c1.1-1 1.4-1.8 1.4-2.6 0-1-.6-1.7-1.8-1.7-1 0-1.8.5-2.3 1.1v-1.4c.7-.6 1.5-.9 2.5-.9 1.8 0 2.9 1.1 2.9 2.7 0 1.1-.5 2.1-1.7 3.2l-2.1 2h3.9zm1.3-3.3c0-2.9 1.3-4.7 3.4-4.7 2.1 0 3.4 1.8 3.4 4.7 0 2.9-1.3 4.6-3.4 4.6-2.1 0-3.4-1.7-3.4-4.6zm5.5 0c0-2.1-.7-3.5-2.1-3.5-1.3 0-2.1 1.4-2.1 3.5s.7 3.5 2.1 3.5c1.3 0 2.1-1.4 2.1-3.5zm2.7 0c0-2.9 1.3-4.7 3.4-4.7 2.1 0 3.4 1.8 3.4 4.7 0 2.9-1.3 4.6-3.4 4.6-2.1 0-3.4-1.7-3.4-4.6zm5.5 0c0-2.1-.7-3.5-2.1-3.5-1.3 0-2.1 1.4-2.1 3.5s.7 3.5 2.1 3.5c1.4 0 2.1-1.4 2.1-3.5z"/><path class="st7" d="M76.3 643.6h266.2"/><path class="st6" d="M139.5 636.9h13.4v13.4h-13.4z"/><path class="st3" d="M71.3 667.1v-1.4c-.8 0-1.6-.3-2-.6l.3-.9c.5.3 1.2.6 1.9.6.9 0 1.6-.5 1.6-1.3 0-.7-.5-1.2-1.5-1.6-1.4-.5-2.2-1.2-2.2-2.3 0-1.1.8-2 2-2.2V656h.8v1.3c.8 0 1.3.2 1.7.5l-.3.9c-.3-.2-.8-.5-1.7-.5-1 0-1.4.6-1.4 1.2 0 .7.5 1 1.7 1.5 1.4.6 2.1 1.3 2.1 2.4 0 1.1-.7 2-2.1 2.3v1.4h-.9zm7.4-10.1v8.9h-1.2v-7.4l-2.4 1.6v-1.3l2.6-1.8h1zm2 4.5c0-2.9 1.3-4.7 3.4-4.7 2.1 0 3.4 1.8 3.4 4.7 0 2.9-1.3 4.6-3.4 4.6-2.1 0-3.4-1.7-3.4-4.6zm5.4 0c0-2.1-.7-3.5-2.1-3.5-1.3 0-2.1 1.4-2.1 3.5s.7 3.5 2.1 3.5c1.4 0 2.1-1.4 2.1-3.5zm2.8 0c0-2.9 1.3-4.7 3.4-4.7 2.1 0 3.4 1.8 3.4 4.7 0 2.9-1.3 4.6-3.4 4.6-2.1 0-3.4-1.7-3.4-4.6zm5.5 0c0-2.1-.7-3.5-2.1-3.5-1.3 0-2.1 1.4-2.1 3.5s.7 3.5 2.1 3.5c1.4 0 2.1-1.4 2.1-3.5zm165 5.6v-1.4c-.8 0-1.6-.3-2-.6l.3-.9c.5.3 1.2.6 1.9.6.9 0 1.6-.5 1.6-1.3 0-.7-.5-1.2-1.5-1.6-1.4-.5-2.2-1.2-2.2-2.3 0-1.1.8-2 2-2.2V656h.8v1.3c.8 0 1.3.2 1.7.5l-.3.9c-.3-.2-.8-.5-1.7-.5-1 0-1.4.6-1.4 1.2 0 .7.5 1 1.7 1.5 1.4.6 2.1 1.3 2.1 2.4 0 1.1-.7 2-2.1 2.3v1.4h-.9zm9.7-2.3v1.2h-5.5v-1.1l2.7-2.6c1.1-1 1.4-1.8 1.4-2.6 0-1-.6-1.7-1.8-1.7-1 0-1.8.5-2.3 1.1v-1.4c.7-.6 1.5-.9 2.5-.9 1.8 0 2.9 1.1 2.9 2.7 0 1.1-.5 2.1-1.7 3.2l-2.1 2h3.9zm7.3-1.7c0 1.8-1.3 3.1-3.3 3.1-.9 0-1.8-.3-2.5-.8v-1.3c.6.6 1.5.9 2.3.9 1.4 0 2.2-.8 2.2-1.9 0-1.1-.7-1.9-2.1-1.9-.9 0-1.7.3-2.3.6V657h5.2v1.2h-4v2.2c.5-.2 1-.3 1.6-.3 1.8.1 2.9 1.4 2.9 3zm1.3-1.6c0-2.9 1.3-4.7 3.4-4.7 2.1 0 3.4 1.8 3.4 4.7 0 2.9-1.3 4.6-3.4 4.6-2.1 0-3.4-1.7-3.4-4.6zm5.4 0c0-2.1-.7-3.5-2.1-3.5-1.3 0-2.1 1.4-2.1 3.5s.7 3.5 2.1 3.5c1.4 0 2.1-1.4 2.1-3.5zm40.2 5.6v-1.4c-.8 0-1.6-.3-2-.6l.3-.9c.5.3 1.2.6 1.9.6.9 0 1.6-.5 1.6-1.3 0-.7-.5-1.2-1.5-1.6-1.4-.5-2.2-1.2-2.2-2.3 0-1.1.8-2 2-2.2V656h.8v1.3c.8 0 1.3.2 1.7.5l-.3.9c-.3-.2-.8-.5-1.7-.5-1 0-1.4.6-1.4 1.2 0 .7.5 1 1.7 1.5 1.4.6 2.1 1.3 2.1 2.4 0 1.1-.7 2-2.1 2.3v1.4h-.9zm9.9-3.7c0 1.6-1.3 2.8-3.2 2.8-.9 0-1.7-.2-2.4-.7v-1.3c.4.4 1.1.8 2.3.8 1.3 0 2-.6 2-1.7 0-.7-.4-1.5-1.9-1.5h-1.8l.2-1h1.6c1.3 0 1.7-.6 1.7-1.5 0-.8-.6-1.3-1.8-1.3-1.1 0-1.8.5-2.2.8v-1.3c.7-.5 1.5-.7 2.4-.7 1.8 0 2.9 1 2.9 2.3 0 .9-.5 1.8-1.5 2 1.1.3 1.7 1.2 1.7 2.3zm1.4-1.9c0-2.9 1.3-4.7 3.4-4.7 2.1 0 3.4 1.8 3.4 4.7 0 2.9-1.3 4.6-3.4 4.6-2.1 0-3.4-1.7-3.4-4.6zm5.5 0c0-2.1-.7-3.5-2.1-3.5-1.3 0-2.1 1.4-2.1 3.5s.7 3.5 2.1 3.5c1.3 0 2.1-1.4 2.1-3.5zm2.7 0c0-2.9 1.3-4.7 3.4-4.7 2.1 0 3.4 1.8 3.4 4.7 0 2.9-1.3 4.6-3.4 4.6-2 0-3.4-1.7-3.4-4.6zm5.5 0c0-2.1-.7-3.5-2.1-3.5-1.3 0-2.1 1.4-2.1 3.5s.7 3.5 2.1 3.5c1.4 0 2.1-1.4 2.1-3.5z"/><path class="st6" d="M202.7 636.9h13.4v13.4h-13.4z"/><path class="st8" d="M76.3 636.9h13.4v13.4H76.3zm189.6 0h13.4v13.4h-13.4zm63.2 0h13.4v13.4h-13.4z"/><path class="st6" d="M152.9 640.3h49.8v6.6h-49.8z"/><path class="st2" d="M83.3 463.6h-4.4v10.9h-1.8v-10.9h-4.4V462h10.5v1.6zm9.9 10.9l-6-5.7v5.7h-1.8V462h6.1c2.3 0 3.9 1.5 3.9 3.6 0 2.2-1.5 3.7-4.2 3.7H90l5.8 5.2h-2.6zm-6-6.6H91c1.7 0 2.6-.8 2.6-2.2 0-1.3-.9-2.1-2.4-2.1h-4v4.3zm11.1-5.9h1.8v12.5h-1.8V462zm13.2 9.1h-5.9l-1.3 3.4h-1.9l5-12.5h2.4l4.9 12.5h-1.9l-1.3-3.4zm-.6-1.5l-2.4-6.1-2.4 6.1h4.8zm14.9 3.2v1.7H117V462h1.8v10.8h7zm14.7-9.2h-4.4v10.9h-1.8v-10.9H130V462h10.5v1.6zm11.5 9.3v1.6h-9.3V462h9.2v1.6h-7.4v3.5h6.9v1.6h-6.9v4.2h7.5zm2.1.4v-1.9c1.4 1.1 3 1.7 4.9 1.7 2 0 3.1-.7 3.1-2.1 0-.9-.5-1.4-2.2-1.9l-2.7-.7c-2.2-.6-3-1.8-3-3.2 0-2.1 1.8-3.6 4.9-3.6 2 0 3.4.6 4.4 1.3v1.8c-1.2-1-2.6-1.5-4.4-1.5-1.9 0-3.1.7-3.1 1.8 0 .8.5 1.3 1.9 1.7l2.8.7c2.4.7 3.3 1.8 3.3 3.4 0 2.3-1.9 3.8-4.9 3.8-1.9.2-3.7-.4-5-1.3zm21.4-9.7h-4.4v10.9h-1.8v-10.9H165V462h10.5v1.6zm2.2-1.6h1.8v12.5h-1.8V462zm18.7 12.5l-.9-11-4.1 11h-2l-4.1-11.1-.9 11.1h-1.7l1-12.5h2.8l3.8 10.4 3.9-10.4h2.7l1.2 12.5h-1.7zm4-6.2c0-3.7 2.9-6.6 6.9-6.6s6.9 2.9 6.9 6.6-2.9 6.6-6.9 6.6-6.9-3-6.9-6.6zm12 0c0-2.8-2-4.9-5-4.9-3.1 0-5.1 2.1-5.1 4.9s2 4.9 5.1 4.9c3 0 5-2.1 5-4.9zm15.9-6.3v12.5H226l-7.2-10.9v10.9H217V462h2.6l7 10.6V462h1.7zm14.5 0l-5.2 8.1v4.4h-1.8v-4.4l-5.1-8.1h2l3.9 6.4 4-6.4h2.2zm8.3 1.6v3.5h6.9v1.6h-6.9v5.8h-1.8V462h9.2v1.6h-7.4zm19.2 9.3v1.6H261V462h9.2v1.6h-7.4v3.5h6.9v1.6h-6.9v4.2h7.5zm12.2 0v1.6h-9.3V462h9.2v1.6H275v3.5h6.9v1.6H275v4.2h7.5z"/><path class="st6" d="M134.8 515.9v-1.4c-.8 0-1.6-.3-2-.6l.3-.9c.5.3 1.2.6 1.9.6.9 0 1.6-.5 1.6-1.3 0-.7-.5-1.2-1.5-1.6-1.4-.5-2.2-1.2-2.2-2.3 0-1.1.8-2 2-2.2V505h.8v1.3c.8 0 1.3.2 1.7.5l-.3.9c-.3-.2-.8-.5-1.7-.5-1 0-1.4.6-1.4 1.2 0 .7.5 1 1.7 1.5 1.4.6 2.1 1.3 2.1 2.4 0 1.1-.7 2-2.1 2.3v1.4h-.9zm7.4-10v8.9H141v-7.4l-2.4 1.6v-1.3l2.6-1.8h1zm7.9 6c0 1.8-1.3 3.1-3.3 3.1-.9 0-1.8-.3-2.5-.8v-1.3c.6.6 1.5.9 2.3.9 1.4 0 2.2-.8 2.2-1.9 0-1.1-.7-1.9-2.1-1.9-.9 0-1.7.3-2.3.6v-4.8h5.2v1.2h-4v2.2c.5-.2 1-.3 1.6-.3 1.9.2 2.9 1.5 2.9 3zm1.3-1.6c0-2.8 1.3-4.7 3.4-4.7 2.1 0 3.4 1.8 3.4 4.7 0 2.9-1.3 4.6-3.4 4.6-2.1.1-3.4-1.7-3.4-4.6zm5.5.1c0-2.1-.7-3.5-2.1-3.5-1.3 0-2.1 1.4-2.1 3.5s.7 3.5 2.1 3.5c1.3-.1 2.1-1.4 2.1-3.5zm38.6 5.5v-1.4c-.8 0-1.6-.3-2-.6l.3-.9c.5.3 1.2.6 1.9.6.9 0 1.6-.5 1.6-1.3 0-.7-.5-1.2-1.5-1.6-1.4-.5-2.2-1.2-2.2-2.3 0-1.1.8-2 2-2.2V505h.8v1.3c.8 0 1.3.2 1.7.5l-.3.9c-.3-.2-.8-.5-1.7-.5-1 0-1.4.6-1.4 1.2 0 .7.5 1 1.7 1.5 1.4.6 2.1 1.3 2.1 2.4 0 1.1-.7 2-2.1 2.3v1.4h-.9zm9.6-2.3v1.2h-5.5v-1.1l2.7-2.6c1.1-1 1.4-1.8 1.4-2.6 0-1-.6-1.7-1.8-1.7-1 0-1.8.5-2.3 1.1v-1.4c.7-.6 1.5-.9 2.5-.9 1.8 0 2.9 1.1 2.9 2.7 0 1.1-.5 2.1-1.7 3.2l-2.1 2h3.9zm1.3-3.3c0-2.8 1.3-4.7 3.4-4.7 2.1 0 3.4 1.8 3.4 4.7 0 2.9-1.3 4.6-3.4 4.6-2.1.1-3.4-1.7-3.4-4.6zm5.5.1c0-2.1-.7-3.5-2.1-3.5-1.3 0-2.1 1.4-2.1 3.5s.7 3.5 2.1 3.5c1.3-.1 2.1-1.4 2.1-3.5zm2.7-.1c0-2.8 1.3-4.7 3.4-4.7 2.1 0 3.4 1.8 3.4 4.7 0 2.9-1.3 4.6-3.4 4.6-2.1.1-3.4-1.7-3.4-4.6zm5.5.1c0-2.1-.7-3.5-2.1-3.5-1.3 0-2.1 1.4-2.1 3.5s.7 3.5 2.1 3.5c1.4-.1 2.1-1.4 2.1-3.5z"/><path class="st7" d="M76.3 529.4h266.2"/><path class="st6" d="M139.5 522.7h13.4v13.4h-13.4z"/><path class="st3" d="M71.3 552.8v-1.4c-.8 0-1.6-.3-2-.6l.3-.9c.5.3 1.2.6 1.9.6.9 0 1.6-.5 1.6-1.3 0-.7-.5-1.2-1.5-1.6-1.4-.5-2.2-1.2-2.2-2.3 0-1.1.8-2 2-2.2v-1.4h.8v1.3c.8 0 1.3.2 1.7.5l-.3.9c-.3-.2-.8-.5-1.7-.5-1 0-1.4.6-1.4 1.2 0 .7.5 1 1.7 1.5 1.4.6 2.1 1.3 2.1 2.4 0 1.1-.7 2-2.1 2.3v1.4h-.9zm7.4-10v8.9h-1.2v-7.4l-2.4 1.6v-1.3l2.6-1.8h1zm2 4.4c0-2.8 1.3-4.7 3.4-4.7 2.1 0 3.4 1.8 3.4 4.7 0 2.9-1.3 4.6-3.4 4.6-2.1.1-3.4-1.7-3.4-4.6zm5.4.1c0-2.1-.7-3.5-2.1-3.5-1.3 0-2.1 1.4-2.1 3.5s.7 3.5 2.1 3.5c1.4-.1 2.1-1.4 2.1-3.5zm2.8-.1c0-2.8 1.3-4.7 3.4-4.7 2.1 0 3.4 1.8 3.4 4.7 0 2.9-1.3 4.6-3.4 4.6-2.1.1-3.4-1.7-3.4-4.6zm5.5.1c0-2.1-.7-3.5-2.1-3.5-1.3 0-2.1 1.4-2.1 3.5s.7 3.5 2.1 3.5c1.4-.1 2.1-1.4 2.1-3.5zm165 5.5v-1.4c-.8 0-1.6-.3-2-.6l.3-.9c.5.3 1.2.6 1.9.6.9 0 1.6-.5 1.6-1.3 0-.7-.5-1.2-1.5-1.6-1.4-.5-2.2-1.2-2.2-2.3 0-1.1.8-2 2-2.2v-1.4h.8v1.3c.8 0 1.3.2 1.7.5l-.3.9c-.3-.2-.8-.5-1.7-.5-1 0-1.4.6-1.4 1.2 0 .7.5 1 1.7 1.5 1.4.6 2.1 1.3 2.1 2.4 0 1.1-.7 2-2.1 2.3v1.4h-.9zm9.7-2.3v1.2h-5.5v-1.1l2.7-2.6c1.1-1 1.4-1.8 1.4-2.6 0-1-.6-1.7-1.8-1.7-1 0-1.8.5-2.3 1.1v-1.4c.7-.6 1.5-.9 2.5-.9 1.8 0 2.9 1.1 2.9 2.7 0 1.1-.5 2.1-1.7 3.2l-2.1 2h3.9zm7.3-1.7c0 1.8-1.3 3.1-3.3 3.1-.9 0-1.8-.3-2.5-.8v-1.3c.6.6 1.5.9 2.3.9 1.4 0 2.2-.8 2.2-1.9 0-1.1-.7-1.9-2.1-1.9-.9 0-1.7.3-2.3.6v-4.8h5.2v1.2h-4v2.2c.5-.2 1-.3 1.6-.3 1.8.2 2.9 1.5 2.9 3zm1.3-1.6c0-2.8 1.3-4.7 3.4-4.7 2.1 0 3.4 1.8 3.4 4.7 0 2.9-1.3 4.6-3.4 4.6-2.1.1-3.4-1.7-3.4-4.6zm5.4.1c0-2.1-.7-3.5-2.1-3.5-1.3 0-2.1 1.4-2.1 3.5s.7 3.5 2.1 3.5c1.4-.1 2.1-1.4 2.1-3.5zm40.2 5.5v-1.4c-.8 0-1.6-.3-2-.6l.3-.9c.5.3 1.2.6 1.9.6.9 0 1.6-.5 1.6-1.3 0-.7-.5-1.2-1.5-1.6-1.4-.5-2.2-1.2-2.2-2.3 0-1.1.8-2 2-2.2v-1.4h.8v1.3c.8 0 1.3.2 1.7.5l-.3.9c-.3-.2-.8-.5-1.7-.5-1 0-1.4.6-1.4 1.2 0 .7.5 1 1.7 1.5 1.4.6 2.1 1.3 2.1 2.4 0 1.1-.7 2-2.1 2.3v1.4h-.9zm9.9-3.7c0 1.6-1.3 2.8-3.2 2.8-.9 0-1.7-.2-2.4-.7v-1.3c.4.4 1.1.8 2.3.8 1.3 0 2-.6 2-1.7 0-.7-.4-1.5-1.9-1.5h-1.8l.2-1h1.6c1.3 0 1.7-.6 1.7-1.5 0-.8-.6-1.3-1.8-1.3-1.1 0-1.8.5-2.2.8v-1.3c.7-.5 1.5-.7 2.4-.7 1.8 0 2.9 1 2.9 2.3 0 .9-.5 1.8-1.5 2 1.1.3 1.7 1.3 1.7 2.3zm1.4-1.9c0-2.8 1.3-4.7 3.4-4.7 2.1 0 3.4 1.8 3.4 4.7 0 2.9-1.3 4.6-3.4 4.6-2.1.1-3.4-1.7-3.4-4.6zm5.5.1c0-2.1-.7-3.5-2.1-3.5-1.3 0-2.1 1.4-2.1 3.5s.7 3.5 2.1 3.5c1.3-.1 2.1-1.4 2.1-3.5zm2.7-.1c0-2.8 1.3-4.7 3.4-4.7 2.1 0 3.4 1.8 3.4 4.7 0 2.9-1.3 4.6-3.4 4.6-2 .1-3.4-1.7-3.4-4.6zm5.5.1c0-2.1-.7-3.5-2.1-3.5-1.3 0-2.1 1.4-2.1 3.5s.7 3.5 2.1 3.5c1.4-.1 2.1-1.4 2.1-3.5z"/><path class="st6" d="M202.7 522.7h13.4v13.4h-13.4z"/><path class="st8" d="M76.3 522.7h13.4v13.4H76.3zm189.6 0h13.4v13.4h-13.4zm63.2 0h13.4v13.4h-13.4z"/><path class="st6" d="M152.9 526.1h49.8v6.6h-49.8z"/><path class="st4" d="M78.4 274.3h13.4v13.4H78.4z"/><path class="st5" d="M80.9 282.2l3.1 2.1 5.1-7.2"/></svg>