<svg version="1.1" id="Layer_1" xmlns="http://www.w3.org/2000/svg" x="0" y="0" viewBox="0 0 240.1 240.1" xml:space="preserve"><style>.st1{fill:#fff}.st2{fill:#b78d59}.st3{fill:#fff;stroke:#1e305e;stroke-miterlimit:10}.st4{fill:#1e305e}</style><path fill="none" d="M0 0h240.1v240.1H0z"/><path class="st1" d="M44 68.3c-1.9 0-3.5-1.6-3.5-3.5s1.6-3.5 3.5-3.5h154c1.9 0 3.5 1.6 3.5 3.5s-1.6 3.5-3.5 3.5H44z"/><path class="st2" d="M198 61.8c1.7 0 3 1.3 3 3s-1.3 3-3 3H44c-1.7 0-3-1.3-3-3s1.3-3 3-3h154m0-1H44c-2.2 0-4 1.8-4 4s1.8 4 4 4h154c2.2 0 4-1.8 4-4s-1.8-4-4-4z"/><path class="st1" d="M44 123.5c-1.9 0-3.5-1.6-3.5-3.5s1.6-3.5 3.5-3.5h154c1.9 0 3.5 1.6 3.5 3.5s-1.6 3.5-3.5 3.5H44z"/><path class="st2" d="M198 117c1.7 0 3 1.3 3 3s-1.3 3-3 3H44c-1.7 0-3-1.3-3-3s1.3-3 3-3h154m0-1H44c-2.2 0-4 1.8-4 4s1.8 4 4 4h154c2.2 0 4-1.8 4-4s-1.8-4-4-4z"/><path class="st3" d="M157.5 45.3h27.1c10.2 0 18.5 8.3 18.5 18.5s-8.3 18.5-18.5 18.5h-27.1c-10.2 0-18.5-8.3-18.5-18.5s8.3-18.5 18.5-18.5z"/><path transform="rotate(-45.001 171.015 63.767)" class="st4" d="M161.8 54.6h18.4V73h-18.4z"/><path class="st1" d="M44 180.7c-1.9 0-3.5-1.6-3.5-3.5s1.6-3.5 3.5-3.5h154c1.9 0 3.5 1.6 3.5 3.5s-1.6 3.5-3.5 3.5H44z"/><path class="st2" d="M198 174.2c1.7 0 3 1.3 3 3s-1.3 3-3 3H44c-1.7 0-3-1.3-3-3s1.3-3 3-3h154m0-1H44c-2.2 0-4 1.8-4 4s1.8 4 4 4h154c2.2 0 4-1.8 4-4s-1.8-4-4-4z"/><path class="st3" d="M107.5 157.7h27.1c10.2 0 18.5 8.3 18.5 18.5s-8.3 18.5-18.5 18.5h-27.1c-10.2 0-18.5-8.3-18.5-18.5s8.3-18.5 18.5-18.5z"/><path transform="rotate(-45.001 121.01 176.204)" class="st4" d="M111.8 167h18.4v18.4h-18.4z"/><path class="st3" d="M57.7 101.5h27.8c10.2 0 18.5 8.3 18.5 18.5v.7c0 9.8-7.9 17.7-17.7 17.7H58.5c-10.2 0-18.5-8.2-18.5-18.4v-.8c0-9.8 7.9-17.7 17.7-17.7z"/><path transform="rotate(-45.001 72.008 119.987)" class="st4" d="M62.8 110.8h18.4v18.4H62.8z"/></svg>