<svg version="1.1" id="Layer_1" xmlns="http://www.w3.org/2000/svg" x="0" y="0" viewBox="0 0 240.1 240.1" xml:space="preserve"><style>.st0{fill:#b78d59}.st3{fill:#fff}</style><path class="st0" d="M120 54.4c36.2 0 65.6 29.4 65.6 65.6s-29.4 65.6-65.6 65.6-65.6-29.4-65.6-65.6S83.9 54.4 120 54.4m0-1c-36.8 0-66.6 29.8-66.6 66.6s29.8 66.6 66.6 66.6 66.6-29.8 66.6-66.6-29.8-66.6-66.6-66.6z"/><path fill="none" d="M0 0h240.1v240.1H0z"/><circle cx="120" cy="120" r="26.5" fill="#fff" stroke="#1e305e" stroke-miterlimit="10"/><path class="st3" d="M108.5 131.6c-6.4-6.4-6.4-16.7 0-23.1 6.4-6.4 16.7-6.4 23.1 0 6.4 6.4 6.4 16.7 0 23.1-6.4 6.3-16.8 6.3-23.1 0z"/><path transform="rotate(-45.001 120.04 120.042)" fill="#1e305e" d="M110.7 110.7h18.7v18.7h-18.7z"/><path class="st3" d="M90.6 123.7H40.1c-2 0-3.6-1.6-3.6-3.6s1.6-3.6 3.6-3.6h50.5v-10.4l14 14-14 13.9v-10.3z"/><path class="st0" d="M91.1 107.3l12.8 12.8-12.8 12.7v-9.7h-51c-1.7 0-3.1-1.4-3.1-3.1 0-1.7 1.4-3.1 3.1-3.1h51v-9.6m-1-2.4V116h-50c-2.3 0-4.1 1.8-4.1 4.1s1.8 4.1 4.1 4.1h50v11.1l15.2-15.1-15.2-15.3z"/><path class="st3" d="M135.5 120.1l14-14v10.4H200c2 0 3.6 1.6 3.6 3.6s-1.6 3.6-3.6 3.6h-50.5V134l-14-13.9z"/><path class="st0" d="M149 107.3v9.7h51c1.7 0 3.1 1.4 3.1 3.1 0 1.7-1.4 3.1-3.1 3.1h-51v9.7l-12.8-12.7 12.8-12.9m1-2.4l-15.2 15.2 15.2 15.1v-11.1h50c2.3 0 4.1-1.8 4.1-4.1s-1.8-4.1-4.1-4.1h-50v-11z"/></svg>