<svg version="1.1" id="Layer_1" xmlns="http://www.w3.org/2000/svg" x="0" y="0" viewBox="0 0 120.8 107.1" xml:space="preserve"><style>.st1,.st2{fill:none;stroke:#b78d5a;stroke-width:1.5;stroke-miterlimit:10}.st2{stroke:#1e305e}</style><path fill="none" stroke="#b78d5a" stroke-width="1.5" stroke-linejoin="bevel" stroke-miterlimit="10" d="M70.4 77.8l-10-40.5-14 56.5h14"/><circle class="st1" cx="60.4" cy="23.4" r="13.9"/><circle class="st1" cx="60.4" cy="23.4" r="11"/><path class="st1" d="M59.9 93.8H33.5v9.4h53.6v-9.4"/><path class="st2" d="M33.5 106.3h53.6"/><path class="st1" d="M87 94h-8.4"/><path class="st2" d="M30.4 40.5l-7.2-17.1-14 33.4"/><path class="st1" d="M23.1 56.8H.8c0 12.4 10.1 22.5 22.5 22.5s22.5-10.1 22.5-22.5h-8.4m9.2-33.6H.4"/><path class="st2" d="M24 75.6c9.2 0 16.8-6.8 18.3-15.7h-8.6"/><path class="st1" d="M23.2 13.8v9.4"/><path class="st2" d="M90.4 40.5l7.2-17.1 14 33.4"/><path class="st1" d="M97.7 56.8H120c0 12.4-10.1 22.5-22.5 22.5S75 69.2 75 56.8h8.4m-9.2-33.6h46.2"/><path class="st2" d="M96.8 75.6c-9.2 0-16.8-6.8-18.3-15.7h8.6"/><path class="st1" d="M97.6 13.8v9.4M60.4 0v9.4"/></svg>