<svg version="1.1" id="Layer_1" xmlns="http://www.w3.org/2000/svg" x="0" y="0" viewBox="0 0 111.9 98.3" xml:space="preserve"><style>.st2,.st3{stroke-width:1.5;stroke-miterlimit:10;fill:#fff;stroke:#1e315e}.st3{stroke:#b78d5a}</style><path d="M96.6 18.2l14.2 14.3-24.7 24.7" fill="none" stroke="#b78d5a" stroke-width="1.5" stroke-miterlimit="10"/><path class="st2" d="M61.8 86.4c2.5 2.5 2.5 6.5 0 8.9-2.5 2.5-6.5 2.5-8.9 0"/><path class="st2" d="M64.8 71.6l5.9 5.9c2.5 2.5 2.5 6.5 0 8.9s-6.5 2.5-8.9 0l-5.9-5.9M10.8 19.8L29.6 1.1l58 57.6 1 1c2.5 2.5 2.5 6.5 0 8.9s-6.5 2.5-8.9 0M52.9 95.5L.5 43.5"/><path class="st2" d="M73.7 62.6l5.9 5.9c2.5 2.5 2.5 6.5 0 8.9s-6.5 2.5-8.9 0l-5.9-5.9"/><path class="st3" d="M83.2 36.4c-8 5.3-13.4 6.3-20.2 2.5-3.2-1.8-7.8-4.3-12.4-3.1-4.1 1.1-10.2 5.9-13.1 7.5-2.9 1.6-6.8 2.1-8.4.9C26.5 42.1 26.6 37 33 31c5.4-5 13.1-8.8 21.5-11.6C62.6 16.7 74.9 8.5 80.1 2M11.9 60c2.5-2.5 6.5-2.5 8.9 0s2.5 6.5 0 8.9-6.5 2.5-8.9 0-2.5-6.4 0-8.9"/><path class="st3" d="M26.7 63c2.5-2.5 6.5-2.5 8.9 0s2.5 6.5 0 8.9l-5.9 5.9c-2.5 2.5-6.5 2.5-8.9 0s-2.5-6.5 0-8.9l5.9-5.9z"/><ellipse transform="rotate(-45.001 43.14 91.277)" class="st3" cx="43.1" cy="91.3" rx="6.3" ry="6.3"/><path class="st3" d="M35.7 71.9c2.5-2.5 6.5-2.5 8.9 0s2.5 6.5 0 8.9l-5.9 5.9c-2.5 2.5-6.5 2.5-8.9 0s-2.5-6.5 0-8.9l5.9-5.9z"/></svg>