<svg version="1.1" id="Layer_1" xmlns="http://www.w3.org/2000/svg" x="0" y="0" viewBox="0 0 89.6 117.1" xml:space="preserve"><style>.st0,.st1{fill:none;stroke:#1e315e;stroke-width:1.5;stroke-miterlimit:10}.st1{stroke:#b78d5a}</style><path class="st0" d="M72.9 70.6l16 4v27.1M16.6 20.4c-2.1 11.1 1.5 29.5 6.1 37.1h20.6"/><path class="st1" d="M56.5 66.4l16.9 4.2-.2 34.7"/><path class="st0" d="M9.6 20.4h34.6m5.7 56.4l14-68.9-52-7.2"/><path class="st0" d="M44.9 33c2.9-2.6 8.3-1.7 8.3 3.3 0 3.9-4.1 7.1-7.3 7.9"/><path class="st1" d="M33.3 93.6L21 88.1l2.4-21.5 13.3-2.2m-2.5 25.2l-1.6 8m13.5-1.3l13.3-.4 4.2-19.6M46.7 92.2l-1.6 8.1"/><circle class="st1" cx="72.8" cy="110.9" r="5.4"/><path class="st0" d="M18.2 66.6L.8 71.4 1 81.6"/></svg>