<svg version="1.1" id="Layer_1" xmlns="http://www.w3.org/2000/svg" x="0" y="0" viewBox="0 0 240.1 240.1" xml:space="preserve"><style>.st1{fill:#b78d59}.st2{fill:#fff}.st3{fill:#1e305e}.st4{fill:#fff;stroke:#1e305e;stroke-miterlimit:10}</style><path fill="none" d="M0 0h240.1v240.1H0z"/><path class="st1" d="M120 54.4c36.2 0 65.6 29.4 65.6 65.6s-29.4 65.6-65.6 65.6-65.6-29.4-65.6-65.6S83.9 54.4 120 54.4m0-1c-36.8 0-66.6 29.8-66.6 66.6s29.8 66.6 66.6 66.6 66.6-29.8 66.6-66.6-29.8-66.6-66.6-66.6z"/><path class="st2" d="M66 66.3h15.8v15.8H66z"/><path class="st1" d="M81.3 66.8v14.8H66.5V66.8h14.8m1-1H65.5v16.8h16.8V65.8z"/><path class="st2" d="M66 157.9h15.8v15.8H66z"/><path class="st1" d="M81.3 158.4v14.8H66.5v-14.8h14.8m1-1H65.5v16.8h16.8v-16.8z"/><path transform="rotate(-45.001 54.552 120.041)" class="st2" d="M46.7 112.2h15.8V128H46.7z"/><path class="st1" d="M54.6 109.6L65 120l-10.4 10.4L44.1 120l10.5-10.4m0-1.4L42.7 120l11.9 11.9L66.4 120l-11.8-11.8z"/><path class="st2" d="M158.3 66.3h15.8v15.8h-15.8z"/><path class="st1" d="M173.6 66.8v14.8h-14.8V66.8h14.8m1-1h-16.8v16.8h16.8V65.8z"/><path class="st2" d="M158.3 157.9h15.8v15.8h-15.8z"/><path class="st1" d="M173.6 158.4v14.8h-14.8v-14.8h14.8m1-1h-16.8v16.8h16.8v-16.8z"/><path transform="rotate(-45.001 185.532 120.044)" class="st2" d="M177.6 112.2h15.8V128h-15.8z"/><path class="st1" d="M185.5 109.6L196 120l-10.4 10.4-10.5-10.4 10.4-10.4m0-1.4L173.7 120l11.9 11.9 11.9-11.9-12-11.8z"/><path transform="rotate(-45.001 120.048 185.168)" class="st2" d="M112.2 177.3H128v15.8h-15.8z"/><path class="st1" d="M120 174.7l10.4 10.4-10.4 10.5-10.4-10.4 10.4-10.5m0-1.4l-11.9 11.9L120 197l11.9-11.9-11.9-11.8z"/><path transform="rotate(-45.001 120.037 52.013)" class="st3" d="M110.8 42.8h18.4v18.4h-18.4z"/><path class="st4" d="M120 70.5v23"/><circle class="st4" cx="120.1" cy="120" r="26.5"/><path class="st4" d="M101.6 66.3V38.6c0-10.2 8.3-18.5 18.5-18.5h.7c9.8 0 17.7 7.9 17.7 17.7v27.8c0 10.2-8.2 18.5-18.4 18.5h-.8c-9.8-.1-17.7-8-17.7-17.8z"/><path transform="rotate(-45.001 120.062 52.004)" class="st3" d="M110.9 42.8h18.4v18.4h-18.4z"/></svg>