<svg version="1.1" id="Layer_1" xmlns="http://www.w3.org/2000/svg" x="0" y="0" viewBox="0 0 112.2 101.5" xml:space="preserve"><style>.st0{fill:#b78d59}.st1{fill:#1e305e}</style><path class="st0" d="M56.1 18.3c-22.7 0-43.5 11.2-56.1 30 .1.5.2 1 .3 1.4 12.3-19 33.2-30.4 55.9-30.4S99.6 30.7 112 49.7c.1-.5.2-1 .3-1.4-12.7-18.8-33.5-30-56.2-30z"/><path class="st0" d="M76.4 39.7c0 11.2-9.1 20.3-20.3 20.3-11.2 0-20.3-9.1-20.3-20.3 0-1.8.2-3.6.7-5.4h-1c-.5 1.7-.7 3.5-.7 5.4 0 11.7 9.5 21.3 21.3 21.3s21.3-9.5 21.3-21.3c0-1.8-.2-3.6-.7-5.4h-1c.4 1.8.7 3.6.7 5.4z"/><path class="st0" d="M67.9 39.5c0 6.5-5.3 11.8-11.8 11.8-6.5 0-11.8-5.3-11.8-11.8 0-1.8.4-3.6 1.2-5.1h-1.1c-.7 1.6-1.1 3.3-1.1 5.1 0 7 5.7 12.8 12.8 12.8s12.8-5.7 12.8-12.8c0-1.8-.4-3.6-1.1-5.1h-1.1c.7 1.5 1.2 3.3 1.2 5.1z"/><path class="st1" d="M27.9 55.8c-9-15.6-3.6-35.5 11.9-44.5 2.5-1.4 5.1-2.5 7.9-3.3l-.3-1c-2.8.8-5.5 1.9-8.1 3.4-16 9.3-21.6 29.8-12.3 45.9 4.5 7.8 11.7 13.3 20.4 15.6l.3-1c-8.4-2.2-15.5-7.6-19.8-15.1z"/><path class="st1" d="M86 76.5l-1.7 1.3-4.7-6.6c9.7-7.2 16-18.7 16-31.7C95.6 17.7 77.9 0 56.1 0S16.6 17.7 16.6 39.5 34.3 79 56.1 79c8.4 0 16.2-2.7 22.7-7.2l4.7 6.6-1.7 1.2 15.7 21.8 4.3-3.1L86 76.5zm-68.4-37C17.6 18.3 34.9 1 56.1 1s38.5 17.3 38.5 38.5S77.3 78 56.1 78 17.6 60.7 17.6 39.5zm65.6 40.4l2.7-1.9 14.5 20.2-2.7 1.9-14.5-20.2z"/></svg>