<svg version="1.1" id="Layer_1" xmlns="http://www.w3.org/2000/svg" x="0" y="0" viewBox="0 0 99.6 120" xml:space="preserve"><style>.st0{fill:#1e305e}.st1{fill:#b78d59}</style><path class="st0" d="M55.8 101.5h18.3v1H55.8z"/><path class="st1" d="M49.3 0h1v20h-1z"/><path transform="rotate(-29.991 88.948 34.6)" class="st1" d="M76.9 34.1h24v1h-24z"/><path class="st1" d="M77 56.7h21v1H77zm-75 0h21v1H2z"/><path transform="rotate(-60 10.642 34.604)" class="st1" d="M10.1 22.6h1v24h-1z"/><path class="st0" d="M53 72.5H36.1l-.1-.3c-5.5-8.9-7.1-19.1-5-30.3l1 .2c-2.1 10.8-.5 20.7 4.7 29.4H53v1z"/><path class="st0" d="M25 41.5h28v1H25zm37.8 37.6l-.1 1 25.8 6.4V108h1V85.8z"/><path transform="rotate(-29.991 17.499 75.856)" class="st1" d="M13 75.4h9v1h-9z"/><path transform="rotate(-60 82.09 75.856)" class="st1" d="M81.6 71.4h1v9h-1z"/><path class="st0" d="M27 26v1l40.4 5.6-9 51.4h1l9.2-52.3z"/><path class="st0" d="M58.6 50.9c-1-.4-2.2-.4-3.3.1v1.1c.9-.6 2-.7 2.9-.3 1 .5 1.6 1.6 1.6 3.1 0 2.8-2.2 5.1-4.5 5.8v1.1c2.7-.7 5.5-3.4 5.5-6.8-.1-2.1-.9-3.5-2.2-4.1zM16.5 85.8V108h1V86.5l20.9-5.2-3.1 17.5L51.7 120H53L36.3 98.6 39.6 80z"/></svg>