<svg id="Layer_1" xmlns="http://www.w3.org/2000/svg" viewBox="0 0 112.5 120.2"><style>.st0{fill:#b78d59}.st1{fill:#1e305e}</style><path class="st0" d="M56.2 36.8C33.6 36.8 12.6 48 0 66.9c.1.4.1.7.2 1l.1.7.2-.3C12.8 49.3 33.6 38 56.3 38S99.7 49.4 112 68.4l.2.3.1-.7c.1-.3.1-.7.2-1.1C99.9 48 78.9 36.8 56.2 36.8z"/><path class="st0" d="M76.9 52.9h-1.3v.2c.5 1.7.7 3.5.7 5.3 0 11.1-9 20.1-20.1 20.1s-20.1-9-20.1-20.1c0-1.8.2-3.6.7-5.3v-.2h-1.3v.1c-.5 1.8-.7 3.6-.7 5.4 0 11.8 9.6 21.4 21.4 21.4s21.4-9.6 21.4-21.4c0-1.9-.2-3.7-.7-5.5z"/><path class="st0" d="M45.9 52.9h-1.4v.1c-.7 1.6-1.1 3.4-1.1 5.2 0 7.1 5.8 12.9 12.9 12.9s12.9-5.8 12.9-12.9c0-1.8-.4-3.5-1.1-5.2v-.1h-1.4l.1.2c.8 1.6 1.2 3.3 1.2 5.1 0 6.4-5.2 11.6-11.6 11.6s-11.6-5.2-11.6-11.6c0-1.8.4-3.5 1.2-5.1l-.1-.2z"/><path class="st1" d="M27 75c4.5 7.8 11.8 13.4 20.5 15.7h.1l.4-1.2h-.1c-8.4-2.2-15.4-7.6-19.7-15.1C19.2 58.9 24.5 39 40 30c2.5-1.4 5.1-2.5 7.8-3.3h.1l-.3-1.2h-.1c-2.8.8-5.6 1.9-8.1 3.4-7.8 4.5-13.4 11.8-15.7 20.5S22.6 67.2 27 75z"/><path class="st1" d="M86.2 95l-1.7 1.3-4.6-6.4c10-7.5 16-19.3 16-31.8 0-21.8-17.8-39.6-39.7-39.6S16.6 36.3 16.6 58.1s17.8 39.6 39.6 39.6c8.1 0 16-2.5 22.6-7.1l4.6 6.4-1.7 1.2 15.8 22 4.5-3.2-15.8-22zm-30-75.3c21.2 0 38.4 17.2 38.4 38.4S77.4 96.5 56.2 96.5 17.9 79.3 17.9 58.1s17.2-38.4 38.3-38.4zm41.6 98.8l-14.3-20 2.5-1.8 14.4 20-2.6 1.8z"/></svg>