<svg id="Layer_1" xmlns="http://www.w3.org/2000/svg" viewBox="0 0 99.9 120.2"><style>.st0{fill:#b78d59}.st1{fill:#1e305e}</style><path class="st0" d="M49.3 0h1.2v20.2h-1.2V0z"/><path class="st0" d="M49.5.1h1v20h-1V.1zm28.8 40.1l21-12.1.6 1-21 12.1-.6-1z"/><path class="st0" d="M78.4 40.3l20.8-12 .5.9-20.8 12-.5-.9zM77 56.7h21.2v1.2H77v-1.2z"/><path class="st0" d="M77.2 56.8h21v1h-21v-1zM2 56.7h21.2v1.2H2v-1.2z"/><path class="st0" d="M2.2 56.8h21v1h-21v-1zM0 29.2l.6-1 21 12.1-.6 1L0 29.2z"/><path class="st0" d="M.1 29.2l.5-.9 20.8 12-.5.9-20.8-12zm13.2 48.6l8.1-4.7.6 1-8.1 4.6-.6-.9z"/><path class="st0" d="M13.6 77.8l7.8-4.5.5.9-7.8 4.5-.5-.9zM78 74.3l.6-1 8.1 4.7-.6 1-8.1-4.7z"/><path class="st0" d="M78.2 74.1l.5-.9 7.8 4.5-.5.9-7.8-4.5z"/><path class="st1" d="M55.8 101.5h18.6v1.2H55.8v-1.2zM36 72.4l.2.3h17.1v-1.2H36.9c-5.1-8.5-6.7-18.1-4.8-28.7h21.2v-1.2H25v1.2h5.8c-1.9 10.9-.1 20.9 5.2 29.6zm26.9 6.7l-.2 1.2 25.8 6.5v21.4h1.3V85.8l-26.9-6.7z"/><path class="st1" d="M58.4 84.2h1.3l9.2-52.5L27 25.9v1.3l40.4 5.6-9 51.4z"/><path class="st1" d="M61 55c0-2-.8-3.5-2.2-4.1-.5-.2-1-.3-1.5-.3-.6 0-1.3.1-1.9.4h-.1v1.4l.2-.1c.6-.3 1.2-.5 1.8-.5.4 0 .7.1 1 .2 1 .4 1.5 1.5 1.5 3 0 2.8-2.2 5-4.4 5.7h-.1V62h.2c2.7-.8 5.5-3.5 5.5-7zM40 79.9l-23.5 5.9v22.4h1.3V86.8l20.6-5.2L35.3 99l16.5 21.2h1.6L36.6 98.6 40 79.9z"/></svg>