<svg xmlns="http://www.w3.org/2000/svg" viewBox="0 0 174.5 22.2"><path d="M20.3 22.2h-1c0-5-4.1-9.1-9.1-9.1s-9.1 4.1-9.1 9.1H0C0 16.6 4.5 12 10.1 12s10.2 4.6 10.2 10.2zM10.1 10.6c-2.9 0-5.3-2.4-5.3-5.3S7.2 0 10.1 0s5.3 2.4 5.3 5.3-2.3 5.3-5.3 5.3zm0-9.6C7.8 1 5.8 2.9 5.8 5.3s1.9 4.3 4.3 4.3 4.3-1.9 4.3-4.3S12.5 1 10.1 1zm48.7 21.2h-1c0-5-4.1-9.1-9.1-9.1s-9.1 4.1-9.1 9.1h-1c0-5.6 4.5-10.1 10.1-10.1s10.1 4.5 10.1 10.1zM48.7 10.6c-2.9 0-5.3-2.4-5.3-5.3S45.8 0 48.7 0 54 2.4 54 5.3s-2.4 5.3-5.3 5.3zm0-9.6c-2.4 0-4.3 1.9-4.3 4.3s1.9 4.3 4.3 4.3S53 7.7 53 5.3 51.1 1 48.7 1zm48.7 21.2h-1c0-5-4.1-9.1-9.1-9.1s-9.1 4.1-9.1 9.1h-1c0-5.6 4.5-10.1 10.1-10.1 5.5-.1 10.1 4.5 10.1 10.1zM87.2 10.6c-2.9 0-5.3-2.4-5.3-5.3S84.3 0 87.2 0s5.3 2.4 5.3 5.3-2.3 5.3-5.3 5.3zm0-9.6c-2.4 0-4.3 1.9-4.3 4.3s1.9 4.3 4.3 4.3 4.3-1.9 4.3-4.3S89.6 1 87.2 1zm48.7 21.2h-1c0-5-4.1-9.1-9.1-9.1s-9.1 4.1-9.1 9.1h-1c0-5.6 4.5-10.1 10.1-10.1s10.1 4.5 10.1 10.1zm-10.1-11.6c-2.9 0-5.3-2.4-5.3-5.3s2.4-5.3 5.3-5.3 5.3 2.4 5.3 5.3-2.4 5.3-5.3 5.3zm0-9.6c-2.4 0-4.3 1.9-4.3 4.3s1.9 4.3 4.3 4.3 4.3-1.9 4.3-4.3-1.9-4.3-4.3-4.3zm48.7 21.2h-1c0-5-4.1-9.1-9.1-9.1s-9.1 4.1-9.1 9.1h-1c0-5.6 4.5-10.1 10.1-10.1s10.1 4.5 10.1 10.1zm-10.1-11.6c-2.9 0-5.3-2.4-5.3-5.3s2.4-5.3 5.3-5.3 5.3 2.4 5.3 5.3-2.4 5.3-5.3 5.3zm0-9.6C162 1 160 2.9 160 5.3s1.9 4.3 4.3 4.3 4.3-1.9 4.3-4.3-1.9-4.3-4.2-4.3z" fill="#86cca6"/></svg>