<?xml version="1.0" encoding="utf-8"?>
<!-- Generator: Adobe Illustrator 21.1.0, SVG Export Plug-In . SVG Version: 6.00 Build 0)  -->
<svg version="1.1" id="Layer_1" xmlns="http://www.w3.org/2000/svg" xmlns:xlink="http://www.w3.org/1999/xlink" x="0px" y="0px"
	 viewBox="0 0 240 52.8" style="enable-background:new 0 0 240 52.8;" xml:space="preserve">
<style type="text/css">
	.st0{fill:#1E305E;}
</style>
<g>
	<polyline class="st0" points="0,8.2 10.1,8.2 10.1,44.4 20,44.4 20,52.3 0,52.3 0,8.2 	"/>
	<path class="st0" d="M23.7,26.2c0-4.6,3-5.5,9.9-5.5c8.1,0,11.5,1.2,11.5,8.8v22.8h-8.7v-2.6h-0.1c-2,2.6-3.1,3.1-6.5,3.1
		c-6.2,0-7.5-3.7-7.5-10.1c0-7.6,2.9-9.5,7.8-9.5c2.2,0,4.3,0.6,6,2v-6.9c0-1-0.8-1.5-2.3-1.5c-1.3,0-2.2,0.4-2.2,1.6v1.7h-7.9V26.2
		 M31.8,43.4c0.1,2,0.5,2.6,2.2,2.6c1.9,0,2.2-1,2.2-2.3v-2.5c0-1.6-0.4-2.3-2.2-2.3c-1.5,0-2.2,0.5-2.2,2.6V43.4z"/>
	<polyline class="st0" points="46.3,21.2 54.8,21.2 57.6,46.6 57.7,46.6 60.5,21.2 73.3,21.2 76.1,46.6 76.2,46.6 79.1,21.2 
		87.5,21.2 82.9,52.3 69.5,52.3 67,27.7 66.8,27.7 64.3,52.3 50.9,52.3 46.3,21.2 	"/>
	<polyline class="st0" points="90.6,16.1 83.5,16.1 83.5,8.2 107.8,8.2 107.8,16.1 100.7,16.1 100.7,52.3 90.6,52.3 90.6,16.1 	"/>
	<path class="st0" d="M103.8,21.2h8.7v3.1h0.1c1.2-2.9,2.7-3.6,6.2-3.6c3.2,0,5.2,0.8,5.3,4.6v8.4h-7.6v-4.6c0-1-0.9-1.2-1.8-1.2
		c-1,0-1.8,0.4-1.8,1.6v22.8h-9V21.2"/>
	<path class="st0" d="M127,8.2h9v7.2h-9V8.2 M127,21.2h9v31.1h-9V21.2z"/>
	<path class="st0" d="M139.2,8.2h9V24h0.1c1.5-2.1,3.4-3.2,6.7-3.2c3.8,0,6.8,1.5,6.8,6.3v17.3c0,6.3-1.8,8.5-7.4,8.5
		c-3.1,0-4.7-0.5-6.5-3.7h-0.1v3.2h-8.6V8.2 M148.2,43.9c0,1.2,0.7,1.7,2.1,1.7c1.3,0,2.1-0.5,2.1-1.7V29.6c0-1.2-0.7-1.7-2.1-1.7
		c-1.3,0-2.1,0.6-2.1,1.7V43.9z"/>
	<path class="st0" d="M164.9,21.2h9v22.3c0,1.3,0.6,2.1,2.3,2.1c1.6,0,2.2-0.8,2.2-2.1V21.2h9v31.1h-9v-3.4h-0.1
		c-1.3,2.7-3.4,3.9-6.3,3.9c-4,0-7.1-1.8-7.1-7.1V21.2"/>
	<path class="st0" d="M190.6,21.2h9v3.4h0.1c1.3-2.7,3.4-3.9,6.3-3.9c4,0,7.1,1.8,7.1,7.1v24.5h-9V30.1c0-1.3-0.6-2.1-2.3-2.1
		c-1.6,0-2.2,0.8-2.2,2.1v22.3h-9V21.2"/>
	<path class="st0" d="M216.2,30.6c0-8.4,4.1-9.9,11.9-9.9c9.9,0,11.9,3.7,11.9,8.6V39h-14.4v5.2c0,1.6,0.4,2.1,2.7,2.1
		c1.8,0,2.6-0.4,2.6-2.2v-1.5h9.2v1.8c0,6.5-2.7,8.4-11.9,8.4c-7.7,0-11.9-1.5-11.9-9.9V30.6 M225.6,33.2h5v-4.6
		c0-1.3-0.4-1.8-2.5-1.8c-2.1,0-2.5,0.5-2.5,1.8V33.2z"/>
	<g>
		<path class="st0" d="M19,6.4V5.3c0-1.5-0.3-2.2-0.7-2.2c-0.7,0-0.9,0.7-0.9,1.8l0,8.5c0,1,0.2,1.5,0.8,1.5c0.8,0,0.8-1.4,0.8-2.5
			v-1.6h2.3v2.1c0,2.9-0.9,5-3.3,5c-2.1,0-2.9-2-2.9-5.5v-7c0-3.7,1-5.5,3-5.5c1.9,0,3.1,1.5,3.1,5v1.4H19z"/>
		<path class="st0" d="M22.3,8.8c0-3.3,1.1-4.4,2.7-4.4c1.8,0,2.7,1.5,2.7,4.4V14c-0.1,2.9-1.1,4-2.7,4c-1.5,0-2.7-1-2.7-4V8.8z
			 M24.4,14.2c0,0.7,0.2,1.1,0.6,1.1c0.4,0,0.6-0.4,0.6-1.1V8.5C25.6,7.7,25.5,7,25,7c-0.5,0-0.6,0.7-0.6,1.5V14.2z"/>
		<path class="st0" d="M30.7,4.7v1.6h0c0.2-1,0.8-2,1.4-2c1,0,1.8,0.9,1.8,2.7v10.5h-2V8.4c0-0.6-0.2-1.1-0.5-1
			c-0.4,0-0.6,0.4-0.6,1v9.1h-2V4.7H30.7z"/>
		<path class="st0" d="M37.1,4.7v1.6h0c0.2-1,0.8-2,1.4-2c1,0,1.8,0.9,1.8,2.7v10.5h-2V8.4c0-0.6-0.2-1.1-0.5-1
			c-0.4,0-0.6,0.4-0.6,1v9.1h-2V4.7H37.1z"/>
		<path class="st0" d="M43.6,11.7V14c0,0.7,0.2,1.3,0.6,1.3c0.8,0.1,0.7-1.1,0.7-2.2h2c0.1,3.3-0.9,4.8-2.7,4.8c-1.5,0-2.7-1-2.7-4
			V8.8c0-3.3,1.2-4.4,2.7-4.4c1.4,0,2.7,0.9,2.7,3.7v3.7H43.6z M45,9.3V8.1c0-0.5-0.2-1.3-0.7-1.3c-0.6,0-0.7,0.8-0.7,1.7v0.8H45z"
			/>
		<path class="st0" d="M51.4,9.5l0-0.2c0-0.5,0-1-0.1-1.5C51.2,7.3,51,7,50.7,7c-0.5,0-0.6,0.7-0.6,1.6v5.3c0,0.8,0.1,1.5,0.7,1.5
			c0.8,0,0.6-2,0.6-3h2c0,0.8-0.1,2.4-0.2,3c-0.3,1.6-1,2.3-1.9,2.5c-0.2,0-0.4,0.1-0.7,0.1c-1.5,0-2.5-1-2.5-4V8.8
			c0-3.3,0.9-4.4,2.5-4.4c2,0,2.8,1.6,2.7,5.1H51.4z"/>
		<path class="st0" d="M54,7.4V4.7h0.8V1.1h2v3.7h1v2.6h-1v6.7c0,0.7,0.2,0.9,0.4,0.9c0.2-0.1,0.3,0,0.5,0v2.6
			c-0.4,0.1-0.9,0.2-1.3,0.2c-1.1,0-1.7-1-1.7-2.9V7.4H54z"/>
		<path class="st0" d="M58.9,3.5V0.4h2v3.1H58.9z M58.9,17.5V4.7h2v12.8H58.9z"/>
		<path class="st0" d="M65.6,9.5l0-0.2c0-0.5,0-1-0.1-1.5C65.4,7.3,65.3,7,65,7c-0.5,0-0.6,0.7-0.6,1.6v5.3c0,0.8,0.1,1.5,0.7,1.5
			c0.8,0,0.6-2,0.6-3h2c0,0.8-0.1,2.4-0.2,3c-0.3,1.6-1,2.3-1.9,2.5c-0.2,0-0.4,0.1-0.7,0.1c-1.5,0-2.5-1-2.5-4V8.8
			c0-3.3,0.9-4.4,2.5-4.4c2,0,2.8,1.6,2.7,5.1H65.6z"/>
		<path class="st0" d="M71.9,17.5V16h0c-0.2,1-0.8,2-1.4,2c-1.2,0-1.8-1-1.8-2.7V4.7h2v9.2c0,0.6,0.1,1.1,0.5,1.1
			c0.4,0,0.6-0.4,0.6-1.1V4.7h2v12.8H71.9z"/>
		<path class="st0" d="M74.7,7.4V4.7h0.8V1.1h2v3.7h1v2.6h-1v6.7c0,0.7,0.2,0.9,0.4,0.9c0.2-0.1,0.3,0,0.5,0v2.6
			c-0.4,0.1-0.9,0.2-1.3,0.2c-1.1,0-1.7-1-1.7-2.9V7.4H74.7z"/>
	</g>
</g>
<g>
</g>
<g>
</g>
<g>
</g>
<g>
</g>
<g>
</g>
<g>
</g>
</svg>
