<?xml version="1.0" encoding="utf-8"?>
<!-- Generator: Adobe Illustrator 21.1.0, SVG Export Plug-In . SVG Version: 6.00 Build 0)  -->
<svg version="1.1" id="Layer_1" xmlns="http://www.w3.org/2000/svg" xmlns:xlink="http://www.w3.org/1999/xlink" x="0px" y="0px"
	 viewBox="0 0 240 51.7" style="enable-background:new 0 0 240 51.7;" xml:space="preserve">
<style type="text/css">
	.st0{fill:#1E305E;}
</style>
<g>
	<g>
		<path class="st0" d="M239.8,38.2c-0.2,0-0.3,0.2-0.4,0.5c-0.1,0.4-0.4,1-0.8,1.5c-0.8,1-2.8,1.1-4.6,1.1c-2.7,0-3.1-0.2-3.7-0.8
			c-0.6-0.6-0.8-2.4-0.8-7.6v-6.3c0-5.5,0-6.5,0.1-7.6c0.1-1.2,0.4-1.8,1.4-2c0.4-0.1,0.9-0.1,1.2-0.1c0.1,0,0.3-0.1,0.3-0.2
			c0-0.2-0.2-0.3-0.6-0.3c-1.1,0-4.2,0.1-4.3,0.1c-0.2,0-2.9-0.1-4.5-0.1c-0.4,0-0.6,0.1-0.6,0.3c0,0.1,0.1,0.2,0.3,0.2
			c0.3,0,0.9,0,1.2,0.1c1.2,0.2,1.4,0.8,1.5,2c0.1,1.1,0.1,2.1,0.1,7.6v6.2c0,3.4,0,5.7-0.2,7.2c-0.1,1-0.4,1.5-1.1,1.9
			c-0.6,0.3-2.1,0.3-2.7,0.1c-0.7-0.2-1.7-0.4-2.9-3.6c-2.1-5.4-7.8-19.9-8.4-21.2c-0.4-1.1-0.6-1.3-0.8-1.3c-0.2,0-0.4,0.2-0.8,1.4
			l-8.8,21.9c-0.7,1.7-1.3,3.1-3,3.3c-0.3,0-0.8,0.1-1,0.1c-0.2,0-0.3,0.1-0.3,0.2c0,0.2,0.2,0.3,0.7,0.3c1.7,0,3.6-0.1,4-0.1
			c0.4,0,3.1,0.1,3.9,0.1c0.3,0,0.5-0.1,0.5-0.3c0-0.1-0.1-0.2-0.4-0.2H204c-0.6,0-1.7-0.4-1.8-1.2c-0.1-0.6,0-1.2,0.5-2.3l1.7-4.9
			c0.1-0.2,0.2-0.3,0.4-0.3h7.7c0.2,0,0.2,0.1,0.3,0.2l2.3,6.3c0.2,0.6,0.2,1.3-0.4,1.7c-0.7,0.4-2,0.5-2.1,0.5
			c-0.1,0-0.3,0.1-0.3,0.3c0,0.2,0.2,0.2,0.9,0.2c0.9,0,3.6-0.1,4.8-0.1c1.9,0,5,0.1,5,0.1c1.1,0,3.8-0.1,5-0.1c2,0,4.4,0.1,9.4,0.1
			c1.9,0,1.9-0.1,2.2-0.9c0.3-1,0.5-3,0.5-3.3C240,38.5,240,38.2,239.8,38.2 M211.7,32h-6.3c-0.2,0-0.2-0.1-0.1-0.3l3.1-8.2
			c0.2-0.5,0.4-0.5,0.5,0l2.9,8.2C211.9,31.9,211.9,32,211.7,32 M89.4,16.5c-1.1,0-4.4,0.1-4.6,0.1c-0.2,0-2.6-0.1-4.2-0.1
			c-0.4,0-0.6,0.1-0.6,0.3c0,0.1,0.1,0.2,0.3,0.2c0.3,0,0.9,0,1.2,0.1c1.2,0.2,1.5,0.7,1.6,1.9c0.1,1.1,0.1,2.9,0.1,8.4v9.4
			c0,9.1-1.1,10.6-3.5,13.2c-0.3,0.3-0.8,0.7-1.2,1c-0.3,0.2-0.5,0.3-0.5,0.5c0,0.1,0.1,0.2,0.2,0.2c0.1,0,0.2,0,0.2-0.1
			c0.4-0.2,0.9-0.6,1.4-0.9c2.9-2,5.5-4.4,6.3-6.1c0.9-1.9,0.9-4,1-9.4v-7.7c0-5.5,0-7.2,0.1-8.4c0.1-1.4,0.4-1.8,1.6-2
			c0.4-0.1,0.6-0.1,0.9-0.1c0.1,0,0.3-0.1,0.3-0.2C89.9,16.6,89.8,16.5,89.4,16.5 M104.8,16c-9.7,0-13.9,8.3-13.9,14
			c0,6.3,4,13.6,13.7,13.6c8.5,0,14.1-5.9,14.1-14.1C118.6,21.3,112.7,16,104.8,16 M105.5,41.6C99.3,42,95.2,37,95.2,28.8
			c0-7.3,3.7-10.8,9.3-11c5.6-0.2,9.6,4.2,9.7,12.1C114.4,40,108.7,41.5,105.5,41.6 M145.6,16.5c-1.1,0-3,0.1-3.3,0.1
			c-0.2,0-2.1-0.1-3.7-0.1c-0.4,0-0.6,0.1-0.6,0.3c0,0.1,0.1,0.2,0.3,0.2c0.3,0,0.9,0,1.2,0.1c1.2,0.2,1.4,0.8,1.5,2
			c0.1,1.1,0.1,2.1,0.1,7.6v4.4c0,3.6,0,6.5-1.5,8.3c-1.4,1.7-3.5,2.1-5.8,2.1c-2,0-3.7-0.1-5.4-1.7c-1.5-1.4-1.8-3.3-1.8-8.4l0-4.9
			c0-5.5,0-6.4,0.1-7.5c0.1-1.2,0.5-1.8,1.4-2c0.4-0.1,0.8-0.1,1-0.1c0.1,0,0.3-0.1,0.3-0.2c0-0.2-0.2-0.3-0.6-0.3
			c-1.1,0-4.5,0.1-4.8,0.1c-0.3,0-2.5-0.1-4.1-0.1c-0.4,0-0.6,0.1-0.6,0.3c0,0.1,0.1,0.2,0.3,0.2c0.3,0,0.9,0,1.2,0.1
			c1.2,0.2,1.4,0.8,1.5,2c0.1,1.1,0,1.8,0,7.3l0,6.5c0,4.7,1,6.8,2.7,8.5c2.5,2.4,6.5,2.3,8.3,2.3c3.5,0,6-0.7,7.8-2.6
			c2.1-2.2,2.4-5.2,2.4-10.6v-3.8c0-5.5,0-6.5,0.1-7.6c0.1-1.2,0.4-1.8,1.3-2c0.4-0.1,0.6-0.1,0.9-0.1c0.1,0,0.3-0.1,0.3-0.2
			C146.2,16.6,146,16.5,145.6,16.5 M197.6,17c0.2,0,0.4-0.1,0.4-0.2c0-0.2-0.2-0.2-0.6-0.2c-1.4,0-2.9,0.1-3.7,0.1
			c-0.8,0-2.5-0.1-4.1-0.1c-0.4,0-0.7,0-0.7,0.2c0,0.1,0,0.2,0.3,0.2c0.3,0,1.1,0,1.7,0.2c1.1,0.3,1.3,1.1,1.4,3.3l0.1,14.6l0,0.6
			c-0.1-0.1-0.3-0.4-0.4-0.5c-1.2-1.3-3.8-3.8-7.4-7.5c-5.5-5.8-9.3-10.1-9.9-10.6c-0.4-0.4-0.9-1.1-1.2-1.1c-0.3,0-0.4,0.3-0.4,1.6
			l0,20.3c0,3.2-0.4,4.2-1.2,4.3c-1,0.1-1.9-0.4-3.5-2.3c-2-2.3-6.7-10.8-6.7-10.8c3.8-2.2,4.8-3.9,4.8-6.5c0-2.4-1.6-4.2-2.4-4.8
			c-1.9-1.3-4.6-1.4-6.8-1.4c-1.1,0-4.9,0.1-5.3,0.1c-0.2,0-2.4-0.1-4-0.1c-0.4,0-0.6,0.1-0.6,0.3c0,0.1,0.1,0.2,0.3,0.2
			c0.3,0,0.9,0,1.2,0.1c1.2,0.2,1.4,0.8,1.5,2c0.1,1.1,0.1,2.1,0.1,7.6v6.2c0,3.4,0,6.2-0.2,7.6c-0.1,1-0.4,1.6-0.9,1.9
			c-0.3,0.1-1.4,0.2-1.7,0.2c-0.2,0-0.4,0.1-0.4,0.2c0,0.2,0.2,0.3,0.6,0.3c0.6,0,4-0.1,4.5-0.1c0.5,0,3,0.1,4.9,0.1
			c0.4,0,0.6-0.1,0.6-0.3c0-0.1-0.1-0.2-0.3-0.2c-0.3,0-1.1-0.1-1.6-0.1c-1-0.1-1.3-0.9-1.4-1.9c-0.2-1.5-0.2-5.4-0.2-8.7v-1
			c0-0.2,0.1-0.3,0.2-0.3l2.8,0c0.2,0,0.4,0.1,0.5,0.3c0.7,0.9,2,3.7,3.4,6.2c1.9,3.3,3,4.6,4.5,5.4c1.6,0.9,3.9,0.7,5.9,0.7
			c0,0,2-0.1,2.7-0.1c0.9,0,2.6,0.1,4,0.1c0.4,0,0.6-0.1,0.6-0.3c0-0.1-0.1-0.2-0.3-0.2c-0.3,0-1.1,0-1.8-0.2
			c-1-0.3-1.3-1.2-1.4-4.1l-0.3-14.1l-0.1-0.4c0,0.1,0.2,0.3,0.3,0.4c1.3,1.4,4.3,4.5,8.2,8.7c3.8,4.1,7.3,7.6,8.1,8.3
			c1.9,1.9,2.3,2.3,2.6,2.3c0.3,0,0.3-0.2,0.3-2.5l0.1-20.6c0-2.1,0.1-2.9,1.3-3.1C196.7,17,197.5,17,197.6,17 M160.7,28.2
			c-0.8,0.6-2,0.8-2.8,0.8c-1.8,0-2.7,0-3.1-0.3c-0.2-0.1-0.3-0.3-0.3-0.5v-9.6c0-0.2,0.1-0.4,0.3-0.4c0.4-0.1,1.3-0.2,2.4-0.2
			c3.4,0,5.1,2.4,5.2,6C162.4,25.7,161.9,27.4,160.7,28.2"/>
	</g>
	<g>
		<path class="st0" d="M77.1,0.1c-0.1,0-0.5,0.2-1.5,0.2h-5.7c-0.2,0-0.8,0-1.2-0.1C68.2,0.2,68,0,67.9,0c-0.1,0-0.1,0.1-0.2,0.3
			c0,0.2-0.3,1.6-0.3,1.7c0,0.1,0,0.1,0.1,0.1c0.1,0,0.1,0,0.2-0.2c0-0.1,0.1-0.2,0.3-0.5c0.3-0.4,0.6-0.5,1.6-0.5l1.8,0v6.5
			c0,1.5,0,2.7-0.1,3.4c-0.1,0.5-0.1,0.7-0.4,0.8c-0.2,0.1-0.7,0.1-0.8,0.1c-0.1,0-0.1,0-0.1,0.1c0,0.1,0.1,0.1,0.3,0.1
			c0.5,0,2.1,0,2.2,0c0.1,0,1.3,0,2.1,0c0.2,0,0.2,0,0.2-0.1c0,0,0-0.1-0.1-0.1c-0.1,0-0.5,0-0.7-0.1c-0.5-0.1-0.6-0.4-0.6-0.9
			c-0.1-0.7-0.1-1.9-0.1-3.4V1l1.7,0c1.5,0,1.8,0.3,1.9,0.8l0,0.2c0,0.2,0,0.3,0.1,0.3c0.1,0,0.1-0.1,0.1-0.2c0-0.2,0-1.4,0-1.9
			C77.2,0.2,77.2,0.1,77.1,0.1 M13.4,10.9c-0.1,0.5-0.1,0.7-0.4,0.8c-0.1,0.1-0.6,0.1-0.7,0.1c-0.1,0-0.1,0-0.1,0.1
			c0,0.1,0.1,0.1,0.3,0.1c0.5,0,1.7,0,1.8,0c0.1,0,1.6,0,2.5,0c0.2,0,0.3,0,0.3-0.1c0,0,0-0.1-0.1-0.1c-0.1,0-0.5,0-0.7-0.1
			c-0.5-0.1-0.6-0.4-0.6-0.9c-0.1-0.7-0.1-1.9-0.1-3.4V6c0-0.1,0-0.1,0.1-0.1h6.1c0,0,0.1,0,0.1,0.1v1.5c0,1.5,0,2.7-0.1,3.4
			c-0.1,0.5-0.1,0.8-0.5,0.9c-0.1,0-0.5,0.1-0.6,0.1c-0.1,0-0.1,0-0.1,0.1c0,0.1,0.1,0.1,0.3,0.1c0.5,0,2.2,0,2.3,0
			c0.1,0,1.1,0,1.9,0c0.2,0,0.3,0,0.3-0.1c0,0,0-0.1-0.1-0.1c-0.1,0-0.5,0-0.7-0.1c-0.5-0.1-0.6-0.4-0.6-0.9
			c-0.1-0.7-0.1-1.9-0.1-3.4V4.8c0-2.4,0-2.9,0-3.4c0-0.5,0.2-0.8,0.6-0.9c0.2,0,0.3,0,0.4,0c0.1,0,0.1,0,0.1-0.1
			c0-0.1-0.1-0.1-0.2-0.1c-0.5,0-1.5,0-1.5,0c-0.1,0-1.6,0-2.4,0c-0.2,0-0.3,0-0.3,0.1c0,0.1,0.1,0.1,0.1,0.1c0.1,0,0.4,0,0.5,0
			c0.5,0.1,0.6,0.4,0.7,0.9c0,0.5,0,0.9,0,3.4v0.3c0,0.1,0,0.1-0.1,0.1h-6.1c0,0-0.1,0-0.1-0.1V4.8c0-2.4,0-2.9,0-3.4
			c0-0.5,0.2-0.8,0.6-0.9c0.2,0,0.3,0,0.4,0c0.1,0,0.1,0,0.1-0.1c0-0.1-0.1-0.1-0.2-0.1c-0.5,0-2,0-2.1,0c-0.1,0-1.1,0-1.8,0
			c-0.2,0-0.3,0-0.3,0.1c0,0.1,0.1,0.1,0.1,0.1c0.1,0,0.4,0,0.5,0c0.5,0.1,0.6,0.4,0.7,0.9c0,0.5,0,0.9,0,3.4v2.8
			C13.5,9,13.5,10.3,13.4,10.9 M27.5,0.4c0.1,0,0.4,0,0.5,0c0.5,0.1,0.6,0.4,0.7,0.9c0,0.5,0,0.9,0,3.4v2.8c0,1.5,0,2.7-0.1,3.4
			c-0.1,0.5-0.1,0.8-0.5,0.9c-0.1,0-0.5,0.1-0.7,0.1c-0.1,0-0.1,0-0.1,0.1c0,0.1,0.1,0.1,0.3,0.1c0.5,0,1.7,0,1.7,0
			c1,0,2.9,0.1,4.7,0.1c0.6,0,0.7,0,0.8-0.4c0.1-0.3,0.2-1.4,0.2-1.5c0-0.1,0-0.2-0.1-0.2c-0.1,0-0.1,0.1-0.1,0.2
			c-0.2,0.5-0.3,0.7-0.7,0.9c-0.4,0.2-1.1,0.2-1.5,0.2c-1.8,0-2.1-0.2-2.1-1.3c0-0.3,0-1.9,0-2.4V6.1c0-0.1,0-0.1,0.1-0.1
			c0.3,0,2.1,0,2.5,0.1c0.6,0.1,0.9,0.3,0.9,0.5c0.1,0.2,0.1,0.4,0.1,0.5c0,0.1,0,0.1,0.1,0.1c0.1,0,0.1-0.2,0.1-0.3
			c0-0.1,0-0.7,0-1c0-0.5,0.1-0.9,0.1-1c0-0.1,0-0.1-0.1-0.1c-0.1,0-0.1,0.1-0.2,0.2c-0.1,0.2-0.4,0.2-0.7,0.2c-0.4,0-2.6,0-2.8,0
			c-0.1,0-0.1,0-0.1-0.2V1.1c0-0.1,0-0.2,0.1-0.2c0.2,0,2.2,0,2.4,0c0.8,0.1,1.1,0.3,1.2,0.5c0.1,0.2,0.1,0.3,0.1,0.5
			c0,0.1,0,0.2,0.1,0.2c0.1,0,0.1-0.1,0.1-0.2c0-0.2,0-0.6,0.1-0.8c0-0.4,0.1-0.9,0.1-1c0-0.1,0-0.1-0.1-0.1c-0.1,0-0.1,0.1-0.2,0.1
			c-0.1,0-0.4,0.1-0.7,0.1c0.1,0-3.9,0-4.5,0c-0.1,0-1.1,0-1.8,0c-0.2,0-0.3,0-0.3,0.1C27.3,0.4,27.4,0.4,27.5,0.4 M42.5,12.1
			c0.7,0,1.5,0,1.7,0c0.1,0,0.8,0,1.7,0c0.2,0,0.3,0,0.3-0.1c0-0.1,0-0.1-0.1-0.1c-0.1,0-0.5,0-0.8-0.1c-0.4-0.1-0.6-0.5-0.6-1.8
			c0,0-0.1-6-0.1-6.3c0-0.3-0.1-0.6-0.1-0.6c0.1,0.1,0.2,0.3,0.3,0.4c0.2,0.2,2.2,2.3,3.9,4c1.7,1.8,3.8,3.6,4,3.8
			c0.8,0.8,1,1,1.1,1c0.1,0,0.1-0.1,0.1-1.1l0-9.2c0-0.9,0.1-1.3,0.6-1.4c0.2,0,0.4,0,0.5,0c0.1,0,0.2,0,0.2-0.1
			c0-0.1-0.1-0.1-0.3-0.1c-0.6,0-1.3,0-1.5,0c-0.2,0-0.9,0-1.6,0c-0.2,0-0.3,0-0.3,0.1c0,0.1,0,0.1,0.1,0.1c0.1,0,0.5,0,0.8,0.1
			C52.8,0.6,53,1,53,2c0,0,0,6.4,0,6.7c0,0.4,0.1,0.6,0.1,0.6c-0.1-0.1-0.1-0.2-0.3-0.4c-0.2-0.2-1.8-1.8-3.2-3.2
			c-2.5-2.6-4.9-4.9-5.1-5.2C44.2,0.3,44,0,43.9,0c-0.2,0-0.2,0.2-0.2,0.8l0,9c0,1.4-0.1,1.9-0.5,2c-0.2,0.1-0.7,0.1-0.8,0.1
			c-0.1,0-0.1,0-0.1,0.1C42.3,12,42.4,12.1,42.5,12.1 M100.2,12.1c0.7,0,1.5,0,1.7,0c0.1,0,0.8,0,1.7,0c0.2,0,0.3,0,0.3-0.1
			c0-0.1,0-0.1-0.1-0.1c-0.1,0-0.5,0-0.8-0.1c-0.4-0.1-0.6-0.5-0.6-1.8c0,0-0.1-6-0.1-6.3c0-0.3-0.1-0.6-0.1-0.6
			c0.1,0.1,0.2,0.3,0.3,0.4c0.2,0.2,2.2,2.3,3.9,4c1.7,1.8,3.8,3.6,4,3.8c0.8,0.8,1,1,1.1,1c0.1,0,0.1-0.1,0.1-1.1l0-9.2
			c0-0.9,0.1-1.3,0.6-1.4c0.2,0,0.4,0,0.5,0c0.1,0,0.2,0,0.2-0.1c0-0.1-0.1-0.1-0.3-0.1c-0.6,0-1.3,0-1.5,0c-0.2,0-0.9,0-1.6,0
			c-0.2,0-0.3,0-0.3,0.1c0,0.1,0,0.1,0.1,0.1c0.1,0,0.5,0,0.8,0.1c0.5,0.1,0.6,0.5,0.6,1.5c0,0,0,6.4,0,6.7c0,0.4,0.1,0.6,0.1,0.6
			c-0.1-0.1-0.1-0.2-0.3-0.4c-0.2-0.2-1.8-1.8-3.2-3.2c-2.5-2.6-4.9-4.9-5.1-5.2c-0.2-0.2-0.4-0.5-0.5-0.5c-0.2,0-0.2,0.2-0.2,0.8
			l0,9c0,1.4-0.1,1.9-0.5,2c-0.2,0.1-0.7,0.1-0.8,0.1c-0.1,0-0.1,0-0.1,0.1C100,12,100.1,12.1,100.2,12.1 M113.4,12.1
			c0.7,0,1.4,0,1.6,0c0.2,0,1.1,0,1.5,0c0.1,0,0.2,0,0.2-0.1c0-0.1,0-0.1-0.2-0.1h-0.2c-0.3,0-0.7-0.1-0.7-0.5c0-0.3,0.1-0.6,0.2-1
			l1-2.6c0-0.1,0.1-0.1,0.2-0.1h3.5c0.1,0,0.1,0,0.1,0.1l1.2,3.1c0.1,0.4,0,0.6-0.3,0.7c-0.3,0.1-0.8,0.2-0.8,0.2
			c-0.1,0-0.1,0-0.1,0.1c0,0.1,0.2,0.1,0.5,0.1c0.5,0,1.2,0,2-0.1c1,0,2.1,0.1,2.2,0.1c0.2,0,0.3,0,0.3-0.1c0-0.1-0.1-0.1-0.2-0.1
			c-0.2,0-0.4,0-0.6-0.1c-0.3-0.1-0.8-0.4-1.3-1.7c-1-2.4-3.7-8.8-4-9.4c-0.2-0.5-0.3-0.6-0.3-0.6c-0.1,0-0.2,0.1-0.3,0.6l-4,9.7
			c-0.3,0.8-0.6,1.4-1.3,1.5c-0.1,0-0.3,0-0.5,0c-0.1,0-0.1,0-0.1,0.1C113.1,12,113.2,12.1,113.4,12.1 M117.4,6.8l1.4-3.6
			c0.1-0.2,0.2-0.2,0.2,0l1.4,3.6c0,0.1,0,0.1-0.1,0.1h-2.9C117.4,6.9,117.3,6.8,117.4,6.8 M55.7,12.1c0.7,0,1.4,0,1.6,0
			c0.2,0,1.1,0,1.5,0c0.1,0,0.2,0,0.2-0.1c0-0.1,0-0.1-0.2-0.1h-0.2c-0.3,0-0.7-0.1-0.7-0.5c0-0.3,0.1-0.6,0.2-1l1-2.6
			c0-0.1,0.1-0.1,0.2-0.1h3.5c0.1,0,0.1,0,0.1,0.1l1.2,3.1c0.1,0.4,0,0.6-0.3,0.7c-0.3,0.1-0.8,0.2-0.8,0.2c-0.1,0-0.1,0-0.1,0.1
			c0,0.1,0.2,0.1,0.5,0.1c0.5,0,1.2,0,2-0.1c1,0,2.1,0.1,2.2,0.1c0.2,0,0.3,0,0.3-0.1c0-0.1-0.1-0.1-0.2-0.1c-0.2,0-0.4,0-0.6-0.1
			c-0.3-0.1-0.8-0.4-1.3-1.7c-1-2.4-3.7-8.8-4-9.4C61.8,0.1,61.7,0,61.6,0c-0.1,0-0.2,0.1-0.3,0.6l-4,9.7c-0.3,0.8-0.6,1.4-1.3,1.5
			c-0.1,0-0.3,0-0.5,0c-0.1,0-0.1,0-0.1,0.1C55.4,12,55.5,12.1,55.7,12.1 M59.7,6.8L61,3.2c0.1-0.2,0.2-0.2,0.2,0l1.4,3.6
			c0,0.1,0,0.1-0.1,0.1h-2.9C59.7,6.9,59.6,6.8,59.7,6.8 M0.6,2.2c0.1,0,0.1,0,0.2-0.2c0-0.1,0.1-0.2,0.3-0.5
			c0.3-0.4,0.6-0.5,1.6-0.5l1.8,0v6.5c0,1.5,0,2.7-0.1,3.4c-0.1,0.5-0.1,0.7-0.4,0.8c-0.2,0.1-0.7,0.1-0.8,0.1c-0.1,0-0.1,0-0.1,0.1
			c0,0.1,0.1,0.1,0.2,0.1c0.5,0,2.1,0,2.2,0c0.1,0,1.3,0,2.1,0c0.2,0,0.2,0,0.2-0.1c0,0,0-0.1-0.1-0.1c-0.1,0-0.5,0-0.7-0.1
			c-0.5-0.1-0.6-0.4-0.6-0.9C6.3,10.3,6.3,9,6.3,7.5V1l1.7,0c1.5,0,1.8,0.3,1.9,0.8l0,0.2c0,0.2,0,0.3,0.1,0.3
			c0.1,0,0.1-0.1,0.1-0.2c0-0.2,0-1.4,0-1.9c0-0.1,0-0.2-0.1-0.2c-0.1,0-0.5,0.2-1.5,0.2H2.9c-0.2,0-0.8,0-1.2-0.1
			C1.3,0.2,1.1,0,1,0C0.9,0,0.8,0.1,0.8,0.3c0,0.2-0.3,1.6-0.3,1.7C0.5,2.2,0.5,2.2,0.6,2.2 M79.2,12.1c0.5,0,2.1,0,2.2,0
			c0.1,0,1.3,0,2.1,0c0.2,0,0.2,0,0.2-0.1c0,0,0-0.1-0.1-0.1c-0.1,0-0.5,0-0.7-0.1c-0.5-0.1-0.6-0.4-0.6-0.9
			c-0.1-0.7-0.1-1.9-0.1-3.4V4.8c0-2.4,0-2.9,0-3.4c0-0.5,0.2-0.8,0.6-0.9c0.2,0,0.4,0,0.5,0c0.1,0,0.1,0,0.1-0.1
			c0-0.1-0.1-0.1-0.3-0.1c-0.5,0-1.6,0-1.8,0c-0.2,0-1.4,0-1.9,0c-0.2,0-0.3,0-0.3,0.1c0,0.1,0.1,0.1,0.1,0.1c0.1,0,0.3,0,0.5,0.1
			c0.3,0.1,0.5,0.3,0.5,0.9c0,0.5,0,0.9,0,3.4v2.8c0,1.5,0,2.7-0.1,3.4c-0.1,0.5-0.2,0.7-0.4,0.8c-0.2,0.1-0.7,0.1-0.8,0.1
			c-0.1,0-0.1,0-0.1,0.1C78.9,12,79,12.1,79.2,12.1 M91.9,12.3c3.8,0,6.4-2.4,6.3-6.4C98.1,2.4,95.5,0,91.9,0
			c-4.3,0-6.1,3.4-6.2,6.1C85.7,9,87.6,12.3,91.9,12.3 M91.7,0.7c2.5-0.1,4.4,1.9,4.4,5.7c0,4.6-2.5,5.2-3.9,5.2
			c-2.8,0.1-4.5-2.1-4.5-5.8C87.8,2.3,89.3,0.8,91.7,0.7 M126.5,0.4c0.1,0,0.4,0,0.5,0c0.5,0.1,0.6,0.4,0.7,0.9c0,0.5,0,0.9,0,3.4
			v2.8c0,1.5,0,2.7-0.1,3.4c-0.1,0.5-0.1,0.6-0.4,0.8c-0.2,0.1-0.5,0.1-0.6,0.1c-0.1,0-0.1,0-0.1,0.1c0,0.1,0.1,0.1,0.3,0.1
			c0.5,0,1.6,0,1.7,0c0.9,0,2.1,0.1,4.4,0.1c0.8,0,0.9-0.1,1-0.4c0.1-0.5,0.2-1.4,0.2-1.6c0-0.2,0-0.2-0.1-0.2
			c-0.1,0-0.1,0.1-0.1,0.2c0,0.3-0.2,0.5-0.4,0.8c-0.4,0.5-1.3,0.4-2.1,0.4c-1.2,0-1.3-0.1-1.5-0.4c-0.3-0.3-0.3-1-0.3-3.3V4.8
			c0-2.4,0-2.9,0-3.4c0-0.5,0.2-0.8,0.6-0.9c0.2,0,0.4,0,0.5,0c0.1,0,0.1,0,0.1-0.1c0-0.1-0.1-0.1-0.3-0.1c-0.5,0-1.6,0-1.7,0
			c-0.1,0-1.6,0-2.3,0c-0.2,0-0.3,0-0.3,0.1C126.3,0.4,126.4,0.4,126.5,0.4"/>
	</g>
	<g>
		<path class="st0" d="M39.8,42.3c-0.4,0-0.9,0-1.4-0.2c-0.7-0.2-1.8-0.8-3-3.9C33.2,32.9,27.5,18.3,27,17c-0.4-1.1-0.6-1.3-0.8-1.3
			c-0.2,0-0.4,0.2-0.8,1.4c0,0-8.5,21-8.5,21.1c-0.2,0.6-0.6,1.5-1.3,2.1c-1,0.9-2.3,0.9-4.1,0.9c-2.7,0-3.3-0.3-3.8-0.9
			C7,39.3,7,37.9,7,32.7v-6.3c0-5.5,0-6.5,0.1-7.6c0.1-1.2,0.4-1.8,1.4-2c0.4-0.1,0.9-0.1,1.2-0.1c0.1,0,0.3-0.1,0.3-0.2
			c0-0.2-0.2-0.3-0.6-0.3c-1.1,0-4.2,0.1-4.3,0.1c-0.2,0-2.9-0.1-4.5-0.1c-0.4,0-0.6,0.1-0.6,0.3c0,0.1,0.1,0.2,0.3,0.2
			c0.3,0,0.9,0,1.2,0.1c1.2,0.2,1.4,0.8,1.5,2c0.1,1.1,0.1,2.1,0.1,7.6v6.2c0,3.4,0,6.2-0.2,7.6c-0.1,1-0.3,1.8-1,1.9
			c-0.3,0.1-0.7,0.1-1.1,0.1c-0.2,0-0.3,0.1-0.3,0.2c0,0.2,0.2,0.3,0.6,0.3c1.1,0,3.6-0.1,3.9-0.1c2,0,2,0.1,6.4,0.1
			c1,0,4.6-0.1,5.7-0.1c0.4,0,2.7,0.1,3.6,0.1c0.3,0,0.5-0.1,0.5-0.3c0-0.1-0.1-0.2-0.4-0.2l-0.5-0.1c-0.6-0.1-1.4-0.5-1.5-1.2
			c0-0.5,0.1-1.1,0.5-2.3l1.8-4.9c0.1-0.2,0.2-0.3,0.4-0.3l7.5,0c0.2,0,0.2,0.1,0.3,0.2l2.4,6.3c0.2,0.7,0,1.6-0.9,1.9
			c-0.7,0.2-1.4,0.3-1.7,0.3c-0.1,0-0.2,0.1-0.2,0.2c0,0.2,0.2,0.2,0.8,0.2c0.9,0,4.3-0.1,5.5-0.1c1.9,0,3.8,0.1,4.2,0.1
			c0.4,0,0.7-0.1,0.7-0.3C40.2,42.4,40,42.3,39.8,42.3 M28.5,31.8h-6.3c-0.1,0-0.2-0.1-0.1-0.3l3.1-8.2c0.2-0.5,0.4-0.5,0.5,0
			l2.9,8.2C28.6,31.7,28.6,31.8,28.5,31.8 M73.4,16.2c-1.1,0-2.6,0.1-2.9,0.1c-0.3,0-2.4-0.1-4.1-0.1c-0.4,0-0.6,0.1-0.6,0.2
			c0,0.1,0.1,0.2,0.3,0.2c1.6,0,1.9,0.4,2,1.1c0.1,0.4,0,1-0.4,2.3c-1.6,4.8-3.9,11.7-5.2,15.3h-0.1L55.2,17
			c-0.4-1.2-0.6-1.7-0.9-1.7c-0.2,0-0.4,0.2-0.9,1.6l-6.9,18.4h-0.1c-0.5-1.9-4.2-12.3-5-14.6c-0.5-1.5-0.8-2.3-0.8-3
			c0-0.5,0.2-0.7,0.5-0.8c0.4-0.2,1.2-0.2,1.5-0.2c0.2,0,0.4,0,0.4-0.2c0-0.1-0.1-0.2-0.6-0.2c-1.8,0-4.3,0.1-4.6,0.1
			c-0.4,0-2.5-0.1-4.3-0.1c-0.4,0-0.6,0.1-0.6,0.2c0,0.2,0.1,0.2,0.3,0.2c0.2,0,1.1,0,1.6,0.2c0.9,0.4,1.3,1,2,3L44,40
			c0.8,2.4,1,3.3,1.5,3.3c0.4,0,0.6-0.4,1.1-1.9c1.3-3.3,5.6-15,6.9-18.4h0.1l7.1,18.4c0.5,1.3,0.7,1.9,1.1,1.8
			c0.3,0,0.3-0.4,0.7-1.2c0.4-1,0.8-2.1,1.5-4.2c2.4-6.9,4.5-12.5,6.3-17.2c0.7-1.9,1.2-3.4,2.3-3.8c0.4-0.1,1.1-0.2,1.2-0.2
			c0.2,0,0.3-0.1,0.3-0.3C73.9,16.3,73.7,16.2,73.4,16.2"/>
	</g>
</g>
<g>
</g>
<g>
</g>
<g>
</g>
<g>
</g>
<g>
</g>
<g>
</g>
</svg>
