<?xml version="1.0" encoding="utf-8"?>
<!-- Generator: Adobe Illustrator 21.1.0, SVG Export Plug-In . SVG Version: 6.00 Build 0)  -->
<svg version="1.1" id="Layer_1" xmlns="http://www.w3.org/2000/svg" xmlns:xlink="http://www.w3.org/1999/xlink" x="0px" y="0px"
	 viewBox="0 0 240 28.1" style="enable-background:new 0 0 240 28.1;" xml:space="preserve">
<style type="text/css">
	.st0{fill:#1E305E;}
</style>
<g>
	<path class="st0" d="M232.4,21.8c-0.2,0.2,0.3,0.8,0.5,0.6c0.2-0.2,1.1-0.8,1.1-0.8s2.4,2.2,2.7,2.2c0.3,0,2.9-3.5,3.2-3.9
		c0.3-0.4-0.3-0.8-0.5-0.5c-0.3,0.3-0.8,0.8-0.8,0.8l-1-0.7c0,0,0-18.2,0-18.6c0-0.3-0.5,0-0.6,0.1c-0.1,0.1-3,2-3.2,2.2
		c-0.2,0.1-0.3,0.2-0.3,0.4l0,17C233.6,20.7,232.6,21.6,232.4,21.8z M233.9,3.8l0.3-0.1V21l2.2,2l-0.2,0.2l-2.3-2V3.8z M222.9,23.8
		c0.2,0,3-3.5,3.2-3.4v1c0,0,2.9,2.4,3.2,2.4c0.2,0,3-4,3.2-4.2c0.2-0.2-0.2-0.5-0.4-0.3c-0.2,0.2-0.8,0.9-0.8,0.9l-1-1.1
		c0,0,0-8.4,0-8.7c0-0.3,0.8-0.8,1.1-1c0.2-0.2-0.1-0.6-0.2-0.5c-0.1,0.1-1,0.8-1.1,0.8c-0.1,0-2.7-2.3-2.9-2.3
		c-0.2,0-2.3,2.5-4.5,2.6c-0.4,0-0.9,0-0.9,0s0.7-1.2,0.1-1.9c-0.4-0.4-0.8-0.4-1.3-0.1c-0.5,0.3-0.4,1.5,0,1.9
		c0.2,0.2,3.1,3.7,3,3.7c-2.5,0.1-3.4,1.4-3.7,2c-0.3,0.7-0.4,2.8,0,4.3C220.3,21.9,222.7,23.8,222.9,23.8z M225.2,9.7l1.5,1.5v9.9
		l2.5,2l-0.2,0.2l-2.6-2.1v-9.9L225,9.8L225.2,9.7z M224.6,14.8c0.4,0.4,0.5-0.1-0.2-0.7c-0.2-0.2-3.1-3.7-3.1-3.7s1.1,0.1,2.1-0.1
		c0.8-0.1,1.2-0.4,1.2-0.4l1.4,1.5l0,8.3c0,0-0.9,0.9-1.1,0.9c-0.9-0.5-2.2-2-2.3-4.2C222.7,13.8,224.1,14.2,224.6,14.8z
		 M221.6,21.8c0.5,0.5,1.4,1.2,1.4,1.2l-0.2,0.3c0,0-1-0.8-1.5-1.4c-0.6-0.7-1-1.6-0.9-1.7C220.4,20.1,220.7,20.9,221.6,21.8z
		 M0,22.7C0,25.1,2.2,27,4.1,27c2,0,4.2-1.5,4.7-2c0.5-0.5,0.1-0.8-0.6-0.3C7,25.6,3.6,27.2,2,25.2c-1.5-2,0.4-3.1,1-3.1
		c1.8-0.1,2.6,2,2.6,2s3-3,3.4-3.4c0.7-0.7,0.4-1.1-0.6-0.3c0,0-1-1.4-2.3-1.6c0,0,0-1.1,0-1.9c0-1.4,2.6-1.9,3-0.5
		c0.3,0.9,1.1,7.6,7,7.4c0,0,0-16.3,0-16.3s3.9-0.9,3-5.3C19,1,18.7,3,16.8,3.1c-1.3,0-1.8-0.2-2.2-1c-0.3-0.5-0.4-0.5-1.1,0.6
		c-0.4,0.6-1.8,2.4-2.1,2.7c-0.3,0.4-0.2,0.7,0.4,0.2c0,0,0.1-0.1,0.1-0.1c1,1.4,2.7,2,3.6,2.2c0,0,0,2.3,0,2.9c0,1.1-2.4,1.3-2.9,0
		c-0.4-1.2-2-7.3-5-8.2C2.1,0.6,0.2,4,0.6,6.6C0.7,7,1,7.1,1,6.6c0-0.7,1.1-1.5,2.6-1.3v5.2c0,0-4.2,0.7-2.7,4.8c0,0,0.6-1.4,2.7-1
		c0,0,0,4.2,0,4.2S0,18.7,0,22.7z M12.4,5.3L12.6,5c0.7,0.9,3.8,3.2,5.9-0.2l0,0C16.5,8.8,13.1,6.1,12.4,5.3z M2,13.8L2,13.8
		c0.3-0.5,1.1-0.5,1.5-0.4l0,0.2C3.2,13.5,2.8,13.3,2,13.8z M6.1,9.9L6.1,9.9c0.4-0.1,0.7-0.4,0.7-0.7c0-0.4-0.4-0.7-0.9-0.7
		c-0.5,0-0.9,0.3-0.9,0.7c0-0.1,0.1,0.4,0.4,0.5l0.2,0.1v8.7c-0.4-0.3-1.4-0.2-1.4-0.2V5.4C5.1,5.5,6.4,6.7,7,8
		c0.4,0.7,1.1,3.7,1.2,4.2c0.1,0.3-0.7,0.7-1,0.7c-0.3,0-1.1-0.3-1.1-0.8L6.1,9.9z M7.7,15.1c-0.8,0-1.6,0.7-1.6,0.7v-2.9
		c0,0,0.6,0.4,1.2,0.4c0.7,0,1-0.5,1-0.5s0.2,1.5,0.5,2.6C8.9,15.4,8.6,15.2,7.7,15.1z M15.5,18.1c-0.8-0.5-1.3-2.2-1.4-2.4
		c-0.1-0.4,0.2-0.5,0.5-0.5c0.3,0,0.9,0.2,0.9,0.4l0,2.1C15.5,17.8,15.5,18.1,15.5,18.1z M14.3,11.8c0.6-0.1,1.2-0.4,1.2-0.4
		s0,3.5,0,3.8c0,0-0.5-0.3-0.9-0.3c-0.3,0-0.7,0.3-0.7,0.3c-0.3-1.5-0.6-3-0.8-3.6C13.1,11.6,13.7,11.8,14.3,11.8z M2,5L2,5
		c0.8-0.6,3-1.1,4.9,1.3c1.8,2.2,2.6,8.5,3.2,10.8c0.6,2.3,1.7,5.2,4.7,6.2l0,0c-2.6-0.6-4-3-4.8-5.7C9.3,15.1,8.6,9,6.8,6.6
		C5.3,4.6,3.5,4.5,2,5z M5.8,22.8L5.6,23C5,22,3.6,20.8,2,21.8l0,0C3.3,20.7,5.3,21.7,5.8,22.8z M195,11.7c0.2-0.2,0.4-0.4,0.4-0.4
		l1,1v8.5c0,0-0.8,0.8-1,1c-0.2,0.2,0.2,0.8,0.4,0.6c0.2-0.2,0.7-0.5,0.7-0.5s2.6,2,2.8,2c0.2,0,3.8-3.8,3.9-3.9
		c0.1-0.1-0.3-0.6-0.5-0.5c-0.2,0.2-1,1-1,1l-1.7-1.2v-6.2c0,0,0.1-0.6,0.2-0.5c2.4,2.2,5.6-0.5,5.4-3c-0.1-2.1-1.8-3.7-3.2-3.8
		c-1.1-0.1-2.2,0.6-2.4,0.8c-0.2,0.2,0,0.4,0.4,0.2c0.8-0.5,2-1.2,3.4,0c1.6,1.4,0.4,3.9-1,2.3c-0.4-0.5-0.8-1.1-1.1-1.1
		c-0.3,0-1.6,2.8-1.6,2.8l0-0.5c0,0-2.1-2-2.3-2c-0.2,0-3,2.9-3.2,3.1C194.4,11.5,194.8,11.9,195,11.7z M200.9,11.8
		c1,0.9,1.3,0.8,2.5,0.6l-0.1,0.1c-0.4,0.3-1.5,0.7-2.6-0.5L200.9,11.8z M195.8,10.9l1.2,1.2l0,9.3l2.5,1.9l-0.2,0.1l-2.5-1.9v-9.3
		l-1.2-1.1L195.8,10.9z M205.9,12c0.2-0.1,0.7-0.7,0.7-0.7l0.5,0.6l0,7.7c0,0.7-1.1,0.9-1.1,1.1c0,0.2,1.1,1.1,1.6,1.6
		c0.5,0.5,1.5,1.6,1.6,1.6c0.1,0,0.8-0.9,1.4-1.6c0.7-0.8,1.4-1.4,1.4-1.5c0-0.1-0.7-0.3-0.7-1.1c0-0.4,0-6,0-6.4l0-1.1
		c0.1-0.2,0.6-0.7,0.6-0.7l1.5,1.6v5.9c0,0,0,0.6,0,0.6c0,1.7,1.1,3,1.3,3.2c0.2,0.2,1.3,1.2,1.5,1.2c0.2,0,3-2.9,3.2-3.1
		c0.2-0.2-0.2-0.5-0.4-0.3c-0.1,0.1-0.5,0.5-0.6,0.5c-0.2-0.1-0.9-0.9-0.9-1.1v-8.5c0,0,0.8-0.8,1-1c0.2-0.2-0.2-0.8-0.4-0.6
		c-0.2,0.2-0.7,0.5-0.7,0.5s-2.6-2-2.8-2c-0.4,0-3,3-3.3,3.2v-1.2c0,0-2.6-2-2.8-2c-0.2,0-2.9,3.5-3,3.7
		C205.4,11.8,205.7,12.1,205.9,12z M212.3,10.9l1.7,1.8l0,6.8c0,0,0,1.1,0.6,2.1c0.4,0.6,1.3,1.6,1.3,1.6l0,0c0,0-0.9-0.6-1.5-1.5
		c-0.4-0.6-0.7-1.7-0.7-2.3v-6.6l-1.6-1.7L212.3,10.9z M207,10.8l0.6,0.8l0,8.1c0,0,0,0.5-0.3,0.8c-0.2,0.1-0.4,0.3-0.4,0.3l2.4,2.4
		l-0.2,0.2l-2.6-2.5c0,0,0.3-0.2,0.6-0.5c0.2-0.1,0.2-0.3,0.2-0.7v-7.9l-0.5-0.7L207,10.8z M88.7,20.6c0,0.1,1.2,1.3,1.5,1.7
		c0.4,0.4,1.3,1.6,1.6,1.6c0.2,0,0.8-0.9,1.4-1.7c0.6-0.8,1.3-1.4,1.3-1.6c0-0.3-1-0.5-1-1.6c0-0.6,0-2.5,0-2.5
		c1.2,0.4,1.5,3.8,1.8,5c0.3,1.1,1.7,2.5,1.9,2.5c0.3,0,3.6-3.7,4.1-4.1c0.4-0.4-0.2-0.9-0.6-0.5c-0.4,0.4-1.1,1.2-1.1,1.2
		c-0.5,0.4-0.7-3.5-1.5-4.9c-1.1-2.1-2.9-2.5-2.9-3c0-0.9,0.6-1.4,1.1-1.4c0.5,0,1.3,0.6,0.9,1.9c0,0.1,0.3,0.2,0.3,0.2l2.6-4.4
		c-0.8-1-3.3-1.1-4.8,0.3c-0.9,0.9-1.1,5.5-1.9,5.7c-0.1,0,0-12.1,0-12.5c0-0.4,0.1-0.8-0.2-0.8c-0.3,0-3.4,1.9-3.4,2.1
		c0,0,0,14.5,0,15.2C89.8,20,88.7,20.4,88.7,20.6z M96.9,10.7c0.7,0.2,0.8,0.6,0.8,0.6l-0.2,0.3c0,0-0.1-0.5-0.7-0.7
		c-0.4-0.2-0.7,0-0.8-0.1C96,10.7,96.6,10.6,96.9,10.7z M95.1,17.5c0.1,0.4,0.4,1.6,0.6,3c0.2,1.1,0.5,1.9,1.4,2.6l-0.1,0.1
		c0,0-1.1-0.7-1.5-2.6c-0.4-2.2-0.5-2.4-0.7-3.2c-0.2-0.8-1-1.1-1-1.2C93.8,16.1,94.8,16.5,95.1,17.5z M90.2,19.2V4l0.3-0.1v15.3
		c0,0,0,0.5-0.3,0.9c-0.1,0.2-0.5,0.5-0.5,0.5l2.2,2.4l-0.1,0.2l-2.4-2.6c0,0,0.3-0.2,0.5-0.5C90,19.9,90.2,19.6,90.2,19.2z
		 M106.7,20c-1.8,1.5-3.1,5,0.5,6.5c4.4,1.8,7.9-0.2,9.2-1.5c0.3-0.3,0-0.5-0.3-0.3c-0.3,0.2-2,2.1-5.9,2c-2.1-0.1-4.8-1.3-4.5-3.3
		c0.3-2.1,4.8-2.7,7-1.6c3,1.5,3.3,2,3.6,2c0.3,0.1,0.3,0.1,0.5-0.1c0.2-0.2,3.1-3.4,3.4-3.7c0.4-0.5,0-1-0.5-0.6
		c-0.4,0.4-0.7,0.8-0.7,0.8s-0.6-0.8-1.7-1.5c-1.1-0.7-3-1-3-1V2c0,0,1.9,0.8,2.3,4.1c0.1,0.7,0.1,3.3-0.4,3.9
		c-0.3,0.4,0,0.7,0.3,0.4c0.2-0.2,4.2-4.2,4.5-4.5c0.3-0.3-0.1-1.6-0.9-2.3c-1.9-1.9-5.8-3.4-9.1-0.7c-1.7,1.4-3,3.4-3,6.3v1.3l0,0
		c0,0-4.2,0.7-2.7,4.8c0,0,0.6-1.4,2.7-1l0,0v2.1c0,0.7,0,1.7-0.3,1.8c-0.3,0.1-0.2,0.7,0.2,0.5c0.2-0.1,1.5-0.6,2.6-1.2
		c1.6-0.9,1.9-3.2,1.9-4.6V5.4c0-2.8,1.5-3.3,1.5-3.3v15.7C111.4,17.8,108.7,18.4,106.7,20z M117.6,6.2c0.1,0.8-0.1,2.4-0.1,2.4
		l-0.4,0.3c0,0,0.2-1.2,0.1-2.3c-0.1-2-0.7-2.9-0.7-3C116.7,3.6,117.4,4.5,117.6,6.2z M105.9,14.2C105.9,14.2,105.9,14.3,105.9,14.2
		L105.9,14.2C105.9,14.2,105.9,14.2,105.9,14.2c0.8-1.1,1.8-1,2.3-0.9l0,0.3C108,13.6,107,13.4,105.9,14.2z M109,15.3
		c0,1.4-0.4,1.8-0.4,1.8s0-7.5,0-7.9c0-1.2,0.4-2.3,0.4-2.3S109,14.8,109,15.3z M116.8,23.1l-0.3,0.3c0,0-2.6-1.6-3.3-1.9
		c-2.3-0.9-4-0.6-4-0.5c0-0.1,2.3-0.7,4.8,0.5C114.8,21.9,116.8,23.1,116.8,23.1z M49.5,7.8c0,0-2.3-1.9-0.2-3.2
		c1.3-0.9,3,0.3,3,2.2c0,0.9,0,4.4,0,4.4l0,0c0,0-4.2,0.7-2.7,4.8c0,0,0.6-1.5,2.7-1l0,0c0,0,0,6.4,0,6.4c-2.7,0.9-3.7,4.9,0.6,6.5
		c3.4,1.3,6.9-1.2,9.1-2.3c1.8-0.9,2.9,0.3,1.9,0.9c-0.3,0.2-1.1,0.4-1.4,0.3c-0.2-0.1-0.3,0.3-0.1,0.4c1.1,0.1,2-0.3,2.4-1.1
		c0.6-1.1-0.6-2.4-3.2-2.5c-4.1-0.2-6.1,1.3-8.3,1.3c-2.5,0-2.3-3.1-0.5-3c3.3,0.1,3.4,1.5,7.6,1.5c3.1,0,4.9-3.2,4.9-4.4
		c0-1.2,0-14.3,0-14.3c0-0.3-4.4-3.5-4.6-3.5c-0.2,0-2.5,2.8-2.5,2.8V1.7h-0.5v2.8c0,0-1.4,1.7-1.4,1.5c0-1.5-0.7-4.8-4.6-4.8
		c-2.7,0-4.5,2.3-4.4,4C47.5,7.1,48.6,7.8,49.5,7.8z M50.6,14.4L50.6,14.4c0.3-0.5,1-0.6,1.5-0.4l0,0.2
		C51.8,14.1,51.4,13.9,50.6,14.4z M57.9,26.7c0.8-0.4,2-0.9,2.8-1.3c1.1-0.6,2-0.6,2-0.6c0,0.1-1,0.2-2.6,1.2
		c-0.5,0.3,0,0.1-1.9,0.9c-2.4,1.1-3.5,0.9-3.5,0.8C54.7,27.6,55.4,27.9,57.9,26.7z M59.4,3.4l2.4,2.7v13.3c0,0.7-0.3,1.1-0.3,1.1
		s0.1-0.4,0.1-0.9V6.2l-2.3-2.7L59.4,3.4z M58.3,4.6L59,3.8l2.3,2.6c0,0,0,3.6,0,4c0,0.8-0.8,1.3-1.4,1.3c-0.6,0-1.5-0.6-1.5-1.1
		C58.3,10.1,58.3,4.6,58.3,4.6z M58.3,11.4c0,0,0.8,0.6,1.5,0.6c0.7,0,1.4-0.6,1.4-0.6l0,3c0,0-0.7-0.6-1.5-0.6
		c-0.8,0-1.5,0.7-1.5,0.7V11.4z M58.3,15.5c0-0.8,0.9-1.3,1.5-1.3c0.7,0,1.5,0.4,1.5,1.1c0,0.5,0,4.1,0,4.7c0,1.2-1.1,3.1-2.9,2.6
		C58.3,22.5,58.3,16.1,58.3,15.5z M57.8,5.2c0,0,0,17.3,0,17.3c-0.8-0.2-1.4-0.4-1.4-0.4l0-15.4L57.8,5.2z M51.5,4
		c0.4,0.2,1.3,1.2,1.3,2.3v15h-0.3V6.4C52.5,5.2,51.6,4.3,51,4c-0.8-0.4-1.8,0.1-1.8,0.1C49.3,4.2,50.2,3.3,51.5,4z M181.4,11.7
		c0.2-0.2,0.5-0.4,0.5-0.4l1,0.9v8.5c0,0-0.8,0.8-1,1c-0.2,0.2,0.2,0.8,0.4,0.6c0.2-0.2,0.7-0.5,0.7-0.5s2.6,2,2.8,2
		c0.4,0,3.1-3,3.3-3.2v1.2c0,0,2.6,2,2.8,2c0.3,0,3.8-3.8,3.9-3.9c0.1-0.1-0.3-0.6-0.5-0.5c-0.2,0.1-1.1,0.9-1.1,0.9l-1.5-0.9l0-8.8
		c0,0,0.6-0.6,0.7-0.7c0.1-0.1-0.2-0.5-0.3-0.4c-0.1,0.1-0.7,0.7-0.7,0.7s-2.7-2.2-2.8-2.2c-0.3,0-2.4,2.9-2.4,2.9
		c-0.3,0.3,0.1,0.8,0.4,0.5c0,0,0.6-0.6,0.5-0.5l1.1,1l0,7.5l0,0c-0.1,0.2-0.9,0.9-0.9,0.9l-1.7-0.7l0-6.6l0-2.8c0,0-2.1-2-2.3-2
		c-0.2,0-3,2.9-3.2,3.1C180.8,11.5,181.2,11.9,181.4,11.7z M188.2,10.6l0.2-0.2l1.3,1.2v9.9l2.3,1.7l-0.2,0.2l-2.3-1.8v-9.9
		L188.2,10.6z M182.3,10.8l1.1,1.1v9.3l2.3,1.8l-0.2,0.2l-2.4-1.8v-9.4l-1.1-1.1L182.3,10.8z M66.6,22.6c0.2-0.1,1-0.9,1-0.9
		s3.2,2.2,3.5,2.2c0.3,0,3-2.7,5.8-2.9l0-9.7c0,0,0.8-0.6,1.1-0.8c0.2-0.1-0.3-0.5-0.5-0.4c-0.1,0.1-1,0.7-1,0.7
		c0,0.1-2.6-2.4-2.9-2.4c-0.3,0-2.7,2.4-6.6,3.3l0,9.4c0,0-0.6,0.6-0.9,0.9C66,22.3,66.4,22.8,66.6,22.6z M71.3,10.7l2.8,1.7v8.8
		l-0.3,0.1v-8.8l-2.8-1.7L71.3,10.7z M70.8,11.1l2.7,1.7v8.9l-2.7-1.9V11.1z M67.5,12.2l0.3-0.1V21l3.5,2.3l-0.2,0.2l-3.5-2.3V12.2z
		 M78.8,11.7c0.2-0.2,0.4-0.4,0.4-0.4l1,1v8.5c0,0-0.8,0.8-1,1c-0.2,0.2,0.2,0.8,0.4,0.6c0.2-0.2,0.7-0.5,0.7-0.5s2.6,2,2.8,2
		c0.2,0,3.8-3.8,3.9-3.9c0.1-0.1-0.3-0.6-0.5-0.5c-0.2,0.2-0.9,1-0.9,1l-1.8-0.8v-6.6c0,0,0.1-0.6,0.2-0.5c2.4,2.2,5.6-0.5,5.4-3
		c-0.1-2.1-1.8-3.7-3.2-3.8c-1.1-0.1-2.2,0.6-2.4,0.8c-0.2,0.2,0,0.4,0.4,0.2c0.8-0.5,2-1.2,3.4,0c1.6,1.4,0.4,3.9-1,2.3
		c-0.4-0.5-0.8-1.1-1.1-1.1c-0.3,0-1.6,2.8-1.6,2.8l0-0.5c0,0-2.1-2-2.3-2c-0.2,0-3,2.9-3.2,3.1C78.2,11.5,78.6,11.9,78.8,11.7z
		 M84.6,11.8c1,0.9,1.3,0.8,2.5,0.6l-0.1,0.1c-0.4,0.3-1.5,0.7-2.6-0.5L84.6,11.8z M79.6,10.9l1.2,1.2l0,9.3l2.5,1.9l-0.2,0.1
		l-2.5-1.9v-9.3L79.4,11L79.6,10.9z M124.9,13.7c-2.5,0.1-3.4,1.4-3.7,2c-0.3,0.7-0.4,2.8,0,4.3c0.5,1.8,2.9,3.8,3.1,3.7
		c0.2,0,3-3.5,3.2-3.4v1c0,0,2.9,2.4,3.2,2.4c0.2,0,3-4,3.2-4.2c0.2-0.2-0.2-0.5-0.4-0.3c-0.2,0.2-0.8,0.9-0.8,0.9l-1-1.1
		c0,0,0-8.4,0-8.7c0-0.3,0.8-0.8,1.1-1c0.2-0.2-0.1-0.6-0.2-0.5c-0.1,0.1-1,0.8-1.1,0.8c-0.1,0-2.7-2.3-2.9-2.3
		c-0.2,0-2.3,2.5-4.5,2.6c-0.4,0-0.9,0-0.9,0s0.7-1.2,0.1-1.9c-0.4-0.4-0.8-0.4-1.3-0.1c-0.5,0.3-0.4,1.5,0,1.9
		C122.1,10.3,125,13.7,124.9,13.7z M124.1,23.2c0,0-1-0.8-1.5-1.4c-0.6-0.7-1-1.6-0.9-1.7c0.1,0,0.4,0.8,1.3,1.6
		c0.5,0.5,1.4,1.2,1.4,1.2L124.1,23.2z M126.6,9.7l1.5,1.5v9.9l2.5,2l-0.2,0.2l-2.6-2.1v-9.9l-1.4-1.5L126.6,9.7z M124.9,10.4
		c0.8-0.1,1.2-0.4,1.2-0.4l1.4,1.5l0,8.3c0,0-0.9,0.9-1.1,0.9c-0.9-0.5-2.2-2-2.2-4.2c-0.1-2.7,1.3-2.2,1.9-1.7
		c0.4,0.4,0.5-0.1-0.2-0.7c-0.2-0.2-3.1-3.7-3.1-3.7S123.8,10.6,124.9,10.4z M18.4,21.2c0,0-0.7,1-1,1.2c-0.3,0.2,0.3,0.6,0.4,0.4
		c0.1-0.2,1-0.8,1-0.8l3.1,1.9c0,0,4-4,4.2-4.2c0.1-0.2-0.3-0.6-0.5-0.4c-0.2,0.2-1.5,1.5-1.5,1.5l-0.1-0.1l-1.9-1.6v-1.9l4.8-4
		l-2.2-4.9l-3.2,1.5l-3.1,0.9V21.2z M22.6,10.1l1.8,4.4l-0.2,0.2l-1.8-4.5L22.6,10.1z M22.1,10.7l1.7,4.4l-1.7,1.4V10.7z M18.8,11.1
		H19v10.2l3,1.9l-0.2,0.2l-3.1-1.9V11.1z M135,20.8c0,0-0.6,0.7-0.7,0.8c-0.1,0.1,0.1,0.5,0.3,0.3c0.1-0.1,0.7-0.7,0.7-0.7
		s3,2.2,3.2,2.3c0.2,0.1,0.4,0.2,0.6-0.1c0.2-0.2,1.7-2.1,1.9-2.3l0,0c0.3,0.2,3.6,2.5,3.8,2.5c0.2,0,0.3-0.1,0.4-0.2
		c1.3-1.9,1.7-2.5,5.2-2.9c0,0,0-10,0-10c0,0-3.3-2.6-3.5-2.6c-0.2,0-1.8,2.6-2.4,3.2c0,0,0-0.4,0-0.4c-0.2-0.1-3.3-3-3.4-3
		c-0.2,0-2.2,3.3-2.2,3.3c-0.1,0.1,0-1.5,0-1.5s-0.3-0.1-0.3-0.1c-2.7-1.2-0.8-4.9-0.8-4.9c-1.8,0.4-6,4.1-2.8,7.3V20.8z
		 M145.8,10.4l1.5,1.5v8.6l-0.3,0.1v-8.6l-1.4-1.5L145.8,10.4z M144.7,12l0.8-1.1l1.3,1.4v8.6l-2.1-1.7V12z M140.1,10.4l1.5,1.6v8.8
		l3.2,2.2l-0.2,0.2l-3.3-2.2v-8.8l-1.4-1.5L140.1,10.4z M138.9,12.2l0.8-1.3l1.3,1.4v8.1l-0.4,0.5l-1.8-1.4V12.2z M134.4,9.7
		L134.4,9.7c0,1,0.8,1.6,1.2,1.8v9.1l3,2.3l-0.2,0.2l-3.1-2.3v-9.1C134.8,11.4,134.1,10.2,134.4,9.7z M159.5,18.6
		c-0.9,0-3.1,0.3-4.1,1.9c-0.7,1.1-1.3,4.8,2.2,6.3c3.8,1.6,6.2,0.8,7.3,0.5c1.1-0.4,2.5-1.5,2.8-1.9c0.3-0.4,0-0.5-0.3-0.2
		c-0.9,0.8-2.7,2.4-5.8,2.2c-3.1-0.2-4.9-1.6-5.3-2.3c-1.6-2.7,0.8-3.8,2.3-3c1.8,0.9,3.7,1.9,5.7,1.9c3.9-0.1,4.7-4.1,4.7-5.1
		c0-0.6-0.4-0.4-0.5-0.1c-0.2,1-2.3,1.7-3.8,0.9c-1.7-0.8-3.2-1.1-4.2-1.1c0,0,0.6-0.6,0.6-1.6c0-0.5,0-7.8,0-8.4
		c0-0.6,0.4-1.9,1.2-2.5l0,0c0.4,0.1,1,0.4,1.3,0.4c2.5,0.2,4.1-0.5,5.3-1.5c0.9-0.8,1.3-4.6,1.3-4.9c0-0.2-0.4-0.1-0.4,0
		s-0.4,1.2-1.1,2c-1.2,1.4-4.6,0-5.6-0.3c-3-1.2-4.7-1.3-6.6,0c-2,1.3-2.1,4.6-0.3,5.7c1.5,1,3.6-0.4,3.9-0.6c0.2-0.1,0-0.5-0.3-0.4
		c-0.3,0.1-0.8,0.6-2,0.7C156.5,7.3,156,6,156,5.6c0-0.5,0.6-1.4,1.8-1.4c1.5,0,2.5,1.1,3.9,1.7c-0.2,0.3-1.2,1.1-1.2,3.4
		c0,0.2,0,0.1,0,0.3l0,0.1c0,0-4.8,0.7-3.1,5.5c0,0,0.6-1.8,3.1-1.3l0,0.1v3C160.6,17.5,160.3,18.6,159.5,18.6z M162.6,23.1
		c0.9,0.3,2.6,0.4,4-0.4c0.5-0.3,0.8-0.5,0.1,0.1c-1.1,1-3.1,0.9-4.2,0.6c-1.4-0.4-3.6-1.7-4-1.7c-1-0.2-0.3-0.3,0.5-0.1
		C159.8,21.8,160.6,22.4,162.6,23.1z M160.3,4.6C158.1,3.3,157,4,157,3.9c0-0.1,1.2-0.7,2.8,0.1c1.1,0.6,1.4,0.8,2.5,1.4
		c1.4,0.7,3.2,0.6,3.2,0.7c0,0.1-1.9,0.2-2.7-0.1C161.8,5.5,161.2,5.1,160.3,4.6z M158.3,13.9L158.3,13.9c0.7-1,2-0.9,2.3-0.7l0,0.3
		C160.4,13.5,159.4,13.1,158.3,13.9z M169.5,21c0,0-0.6,0.6-0.9,0.9c-0.3,0.3,0.2,0.8,0.4,0.7c0.2-0.1,1-0.9,1-0.9s3.2,2.2,3.5,2.2
		c0.3,0,3-2.7,5.8-2.9l0-9.7c0,0,0.8-0.6,1.1-0.8c0.2-0.1-0.3-0.5-0.5-0.4c-0.1,0.1-1,0.7-1,0.7c0,0.1-2.6-2.4-2.9-2.4
		c-0.3,0-2.7,2.4-6.6,3.3L169.5,21z M173.8,10.6l2.8,1.7v8.8l-0.3,0.1v-8.8l-2.8-1.7L173.8,10.6z M173.2,11l2.7,1.7v8.9l-2.7-1.9V11
		z M169.9,12l0.3-0.1v8.9l3.5,2.3l-0.2,0.2l-3.5-2.3V12z M28.3,20.9c0,0-0.6,0.7-0.7,0.8c-0.1,0.1,0.1,0.5,0.3,0.3
		c0.1-0.1,0.7-0.7,0.7-0.7s3,2.2,3.2,2.3c0.2,0.1,0.4,0.2,0.6-0.1c0.2-0.2,1.7-2.1,1.9-2.3l0,0c0.3,0.2,3.6,2.5,3.8,2.5
		c0.2,0,0.3-0.1,0.4-0.2c1.3-1.9,1.7-2.5,5.2-3c0,0,0-10,0-10c0,0-3.3-2.6-3.5-2.6c-0.2,0-1.8,2.6-2.4,3.2c0,0,0-0.4,0-0.4
		c-0.2-0.1-3.3-3-3.4-3c-0.2,0-2.2,3.3-2.2,3.3c-0.1,0.1,0-1.5,0-1.5s-0.3-0.1-0.3-0.1c-2.7-1.2-0.8-4.9-0.8-4.9
		c-1.8,0.4-6,4.1-2.8,7.3V20.9z M39.1,10.6l1.5,1.5v8.6l-0.3,0.1v-8.6L39,10.8L39.1,10.6z M38,12.2l0.8-1.1l1.3,1.4V21L38,19.4V12.2
		z M33.3,10.6l1.5,1.6v8.8l3.2,2.2L38,23.3l-3.3-2.2v-8.8l-1.4-1.5L33.3,10.6z M32.2,12.3L33,11l1.3,1.4v8.1L34,21l-1.8-1.4V12.3z
		 M27.7,9.9L27.7,9.9c0,1,0.8,1.6,1.2,1.8v9.1l3,2.3l-0.2,0.2L28.6,21v-9.1l0,0C28.1,11.6,27.4,10.4,27.7,9.9z M162.9,18.3
		c-0.2,0-0.2,0.4,0.1,0.4c0.3,0,0.3,0,1,0c1.4,0,3.1-0.7,3.1-3.2v-5.5c0-0.9,0.3-3.1,1.5-3.1c0.2,0,0.1-0.4,0-0.4
		c-1.1,0-3.1-0.3-4.1,0.8c-1,1.1-0.8,2.2-0.8,3.1c0,0.5,0,5.3,0,5.7C163.8,17.9,163.1,18.3,162.9,18.3z M164.5,8.3v6.8
		c0.1,1.8-0.3,1.9-0.3,1.9s0-6.1,0-6.1C164.1,8.8,164.5,8.3,164.5,8.3z"/>
</g>
<g>
</g>
<g>
</g>
<g>
</g>
<g>
</g>
<g>
</g>
<g>
</g>
</svg>
