<?xml version="1.0" encoding="utf-8"?>
<!-- Generator: Adobe Illustrator 21.1.0, SVG Export Plug-In . SVG Version: 6.00 Build 0)  -->
<svg version="1.1" id="Layer_1" xmlns="http://www.w3.org/2000/svg" xmlns:xlink="http://www.w3.org/1999/xlink" x="0px" y="0px"
	 viewBox="0 0 240 28.4" style="enable-background:new 0 0 240 28.4;" xml:space="preserve">
<style type="text/css">
	.st0{fill:#1E305E;}
</style>
<g>
	<polygon class="st0" points="0,1.9 8.1,1.9 8.1,27.7 9.4,27.7 9.4,1.9 17.4,1.9 17.4,0.6 0,0.6 	"/>
	<polygon class="st0" points="43.8,14.3 52.4,14.3 52.4,12.9 43.8,12.9 43.8,1.9 56.1,1.9 56.1,0.6 42.5,0.6 42.5,27.7 56.3,27.7 
		56.3,26.3 43.8,26.3 	"/>
	<polygon class="st0" points="36.7,12.9 22.5,12.9 22.5,0.6 21.1,0.6 21.1,27.7 22.5,27.7 22.5,14.3 36.7,14.3 36.7,27.7 38.1,27.7 
		38.1,0.6 36.7,0.6 	"/>
	<path class="st0" d="M233.8,15.7c4-1.1,5.4-3.8,5.4-7.2c0-7.3-5.9-7.9-10.5-7.9h-9.2v27.1h6.2V16.6h2.1l5.4,11.1h6.8L233.8,15.7z
		 M230.7,12c-0.9,0.3-1.4,0.3-5,0.3V4.8c3.5,0,4.3,0,5.2,0.3c1.2,0.4,1.9,1.4,1.9,3.2C232.8,9.9,232.7,11.3,230.7,12z"/>
	<path class="st0" d="M79.8,8.5c0-7.3-5.9-7.9-10.5-7.9h-9.2v27.1h6.2V16.6h2.1l5.4,11.1h6.8l-6.2-12C78.4,14.5,79.8,11.9,79.8,8.5z
		 M71.3,12c-0.9,0.3-1.4,0.3-5,0.3V4.8c3.5,0,4.3,0,5.2,0.3c1.2,0.4,1.9,1.4,1.9,3.2C73.4,9.9,73.3,11.3,71.3,12z"/>
	<path class="st0" d="M180.3,0.6h-6.9v27.1c4.7,0,8.8,0,9.6-0.1c2.3-0.2,4-0.4,6.1-1.4c3.1-1.5,3.9-4.8,3.9-7.8l0-4.6
		c0-6.1-0.5-8-1.7-9.7C189.7,1.8,187.3,0.6,180.3,0.6z M186.7,17.2c0,5.2-2.6,5.6-5.1,5.6h-1.8V5.4c3.3,0,4.7,0,5.9,1.7
		c1,1.3,1,3.6,1,6.8C186.7,14.8,186.7,16.3,186.7,17.2z"/>
	<polygon class="st0" points="89.3,16.2 98.1,16.2 98.1,11.3 89.2,11.3 89.2,5.5 102.1,5.5 102.1,0.6 83,0.6 83,27.7 103,27.7 
		103,22.6 89.3,22.6 	"/>
	<path class="st0" d="M169.4,8.5c0-7.3-5.9-7.9-10.5-7.9h-9.2v27.1h6.2V16.6h2.1l5.4,11.1h6.8l-6.2-12
		C167.9,14.5,169.4,11.9,169.4,8.5z M160.8,12c-0.9,0.3-1.4,0.3-5,0.3V4.8c3.5,0,4.3,0,5.2,0.3c1.2,0.4,1.9,1.4,1.9,3.2
		C163,9.9,162.8,11.3,160.8,12z"/>
	<polygon class="st0" points="202.8,16.2 211.6,16.2 211.6,11.3 202.7,11.3 202.7,5.5 215.6,5.5 215.6,0.6 196.5,0.6 196.5,27.7 
		216.5,27.7 216.5,22.6 202.8,22.6 	"/>
	<path class="st0" d="M114.6,23.4c-3.5,0-3.5-2.8-3.5-4.3V8.7c0-0.7,0-2.1,1-3c0.6-0.6,1.6-0.8,2.4-0.8c3.1,0,3.2,3,3.2,4.3h6.2
		c-0.1-2.2-0.4-5.5-2.9-7.4c-2-1.5-4.5-1.8-6.2-1.8c-6.6,0-10.1,3.5-10.1,9.7v8.2c0,5.5,1.5,7.1,2.7,8.2c1.8,1.7,4.1,2.4,7.4,2.4
		c1.2,0,4.2-0.3,6.2-1.8c2.4-1.8,2.8-3.8,3-4.8c0.2-1.1,0.2-1.4,0.3-3.3h-6.3C117.9,21.4,117.1,23.4,114.6,23.4z"/>
	<path class="st0" d="M136.4,0.1c-2.7,0-5.4,0.7-7.1,2.6c-2,2.1-2.5,4.7-2.5,7.5v7.3c0,1.2,0.1,3.5,0.7,5.5c1.4,4.6,6,5.5,8.8,5.5
		c1.8,0,5.2-0.3,7.6-2.7c1.8-1.8,2.4-4.3,2.4-8.1v-6.6c0-4.4-0.9-6.8-2.5-8.4C141.9,0.7,139.3,0.1,136.4,0.1z M139.8,18.6
		c0,1.9,0,4.9-3.4,4.9c-2.8,0-3.4-2-3.4-4.9V9.2c0-1.1,0-4.2,3.5-4.2c3.3,0,3.3,2.3,3.3,4.2V18.6z"/>
</g>
<g>
</g>
<g>
</g>
<g>
</g>
<g>
</g>
<g>
</g>
<g>
</g>
</svg>
