<?xml version="1.0" encoding="utf-8"?>
<!-- Generator: Adobe Illustrator 21.1.0, SVG Export Plug-In . SVG Version: 6.00 Build 0)  -->
<svg version="1.1" id="Layer_1" xmlns="http://www.w3.org/2000/svg" xmlns:xlink="http://www.w3.org/1999/xlink" x="0px" y="0px"
	 viewBox="0 0 240 45.9" style="enable-background:new 0 0 240 45.9;" xml:space="preserve">
<style type="text/css">
	.st0{fill:#1E305E;}
</style>
<g>
	<path class="st0" d="M88,8.1c0-1.7,0.5-3.9,2.7-3.9c2.5,0,4.4,2.7,6.5,16h0.9V2.9h-0.6l-3,2.7c-1-1.6-2.4-2.7-4.5-2.7
		c-3,0-7.2,2.9-7.2,9.5c0,9.7,10.9,18.8,10.9,27.4c0,4-0.6,5-3.1,5c-3.4,0-5.6-4.9-7.2-17.2h-0.8v16.8l-2.3,0l-5.7-41h-4.2
		l-6.7,38.4c-0.2,1.1-0.5,1.7-0.9,2.1l-6.6-23.7l4.6-13.9c0.6-1.6,1.3-1.9,2.8-2V3.4h-7.2v0.9C57.8,4.3,59,4.8,59,6.6
		c0,0.2-0.1,1-0.3,1.7l-3,9.9h-0.1l-3.8-14H54V3.4l-11.8,0l0,0H22.7V0H0v19.4h0.9C2.9,6.2,5,0.9,7.4,0.9h0.1v43.4H4.9v1h13v-1h-2.6
		V0.9h0.1c2.4,0.1,4.4,5.3,6.5,18.5h0.9V4.3h2.1v40.1h-2.2v0.9h19.8V28.4h-0.9c-0.3,2.4-0.6,4.1-1.9,8.9c-1.6,6.4-3,7.1-6,7.1h-1.7
		v-20c3.3,0.3,4.2,2.8,5,10.4h0.6V13.4h-0.8c-0.4,7.7-1.9,9.6-4.8,10.1V4.3h3c3.7,0,4.7,3.4,6.7,15h0.8v-15l2.3,0l6.2,22.3
		l-5.2,14.8c-0.6,1.6-1,2.8-2.9,3v0.9h7.7v-0.9c-1.7-0.1-3.2-0.8-3.2-2.7c0-0.3,0.1-0.6,0.2-1.4l3.8-11.5h0.1l4.3,15.7h-2.2v0.9h7.6
		h3.1h3.3v-0.9c-1,0-2.8-0.5-2.6-1.9l0.8-5.8h6.8l0.9,7.7H71v0.9h11.7v0.6h0.6l3.2-2.4c1.2,1.7,3.1,2.4,5.2,2.4c5.2,0,8-4.2,8-9
		C99.7,26.3,88,15.4,88,8.1z M65.9,35.8L69.5,15h0.1l2.7,20.8H65.9z"/>
	<path class="st0" d="M142,3.4h-4.2l-6.7,38.4c-0.2,1.3-0.6,1.9-1.1,2.2V27.2h-0.9c-3.1,16-4.3,17.1-8.5,17.1h-2.1V1h2.6V0h-12.7v1
		h2.4v43.3h-2.4v1h20.1h1.4h5v-0.9c-1,0-2.8-0.5-2.6-1.9l0.8-5.8h6.8l0.9,7.7h-2.3v0.9h11.4v-0.9h-2.1L142,3.4z M133.3,35.8
		l3.7-20.8h0.1l2.7,20.8H133.3z"/>
	<path class="st0" d="M194.5,3.4h-5.6v0.9c1.7,0,2.8,0.7,2.8,2.5c0,0.6-0.1,1.1-0.5,2.9l-3.5,13.2h-0.1l-4.6-18.6h2.2V3.4h-7.9h-3
		h-3.1v0.9c1.6,0.1,2.8,0.3,2.4,3.3l-3.1,23.9h-0.1l-3.2-27.3h2V3.4h-10.5v0.9h1.8l0.5,3.9l-3.4,23.4h-0.1l-3.3-27.3h2.3V3.4h-10.4
		v0.9h1.3l5.7,41h3.9l4.4-31.7h0.1l4.4,31.7h3.8l5.4-38.8c0.1-0.6,0.3-1.1,0.7-1.5l5.2,19.8v19.7h-2.4v0.9h12.1v-0.9h-2.5V25
		l5.4-19.1c0.4-1.4,1.5-1.6,2.1-1.6h1v40.1h-2.2v0.9h19.8V28.4h-0.9c-0.3,2.4-0.6,4.1-1.9,8.9c-1.6,6.4-3,7.1-6,7.1h-1.7v-20
		c3.3,0.3,4.2,2.8,5,10.4h0.6V13.4h-0.8c-0.4,7.7-1.9,9.6-4.8,10.1V4.3h3c3.7,0,4.7,3.4,6.7,15h0.8V3.4h-18.6H194.5z"/>
	<path class="st0" d="M240,38.4h-0.9c-0.3,4-0.8,5.3-2.1,5.3c-0.8,0-1.2-1-1.2-3.3v-5.7c0-7-2.1-8.8-7.1-10.6V24
		c5.2-1.6,7.4-5.1,7.4-10.6c0-5.2-3.3-10-10.7-10h-9.8v0.9h2.2v40.1h-2.2v0.9h11.6v-0.9h-2.3V24.4c2.9,0,4.1,0.5,4.1,4.2v11.7
		c0,3.7,1.7,5.4,5.5,5.4C237.4,45.7,240.1,44.8,240,38.4z M224.9,23.6V4.3c2.6,0,3.8,0.3,3.8,2.8v13.7
		C228.6,22.8,228,23.6,224.9,23.6z"/>
</g>
<g>
</g>
<g>
</g>
<g>
</g>
<g>
</g>
<g>
</g>
<g>
</g>
</svg>
