<svg xmlns="http://www.w3.org/2000/svg"><defs><style>.cls-1{fill:#1e305e}</style></defs><symbol id="angle" viewBox="0 0 239.8 852"><path d="M239.8 852L49.2 581.5c-65.7-93.2-65.7-217.7 0-310.9L239.8 0"/></symbol><symbol id="icon-arrow-down" viewBox="0 0 14.1 7.1"><path d="M14.1 0H12L7.1 4.9 2.1 0H0l7.1 7.1z"/></symbol><symbol id="icon-facebook" viewBox="0 0 24 23.9"><path d="M24 12c0-6.6-5.4-12-12-12S0 5.4 0 12c0 6 4.4 11 10.1 11.9v-8.4h-3V12h3V9.4c0-3 1.8-4.7 4.5-4.7 1.3 0 2.7.2 2.7.2v3h-1.5c-1.5 0-2 .9-2 1.9V12h3.3l-.5 3.5h-2.8v8.4C19.6 23 24 18 24 12z"/></symbol><symbol id="icon-hamburger" viewBox="0 0 24 13.5"><path class="line top left" d="M0 0h12v1.5H0z"/><path class="line top right" d="M12 0h12v1.5H12z"/><path class="line middle" d="M0 6h24v1.5H0z"/><path class="line bottom left" d="M0 12h12v1.5H0z"/><path class="line bottom right" d="M12 12h12v1.5H12z"/></symbol><symbol id="icon-linkedin" viewBox="0 0 24 24"><path id="shape" d="M20.4 20.4h-3.6v-5.6c0-1.3 0-3-1.8-3-1.9 0-2.1 1.4-2.1 2.9v5.7H9.4V9h3.4v1.6c.7-1.2 2-1.9 3.4-1.8 3.6 0 4.3 2.4 4.3 5.5l-.1 6.1zM5.3 7.4c-1.1 0-2.1-.9-2.1-2.1 0-1.1.9-2.1 2.1-2.1 1.1 0 2.1.9 2.1 2.1s-.9 2.1-2.1 2.1m1.8 13H3.6V9h3.6v11.4zM22.2 0H1.8C.8 0 0 .8 0 1.7v20.5c0 1 .8 1.7 1.8 1.7h20.5c1 0 1.8-.8 1.8-1.7V1.7C24 .8 23.2 0 22.2 0"/></symbol><symbol id="icon-search" viewBox="0 0 14.5 14.5"><path id="search" d="M14.5 13.5l-3.8-3.8c.8-1 1.3-2.3 1.3-3.7 0-3.3-2.7-6-6-6S0 2.7 0 6s2.7 6 6 6c1.4 0 2.7-.5 3.7-1.3l3.8 3.8 1-1zM1.5 6c0-2.5 2-4.5 4.5-4.5s4.5 2 4.5 4.5-2 4.5-4.5 4.5-4.5-2-4.5-4.5z"/></symbol><symbol id="icon-twitter" viewBox="0 0 24 24"><path id="shape" d="M7.5 21.8c9.1 0 14-7.5 14-14v-.6c1-.7 1.8-1.6 2.5-2.5-.9.4-1.9.7-2.8.8 1-.6 1.8-1.6 2.2-2.7-1 .6-2 1-3.1 1.2-1.9-2-5-2.1-7-.2-1.3 1.2-1.8 3-1.4 4.7-4-.2-7.6-2.1-10.1-5.1-1.4 2-.8 4.9 1.4 6.3-.8 0-1.6-.2-2.2-.6v.1c0 2.3 1.7 4.4 4 4.8-.7.2-1.5.2-2.2.1.6 2 2.5 3.4 4.6 3.4-1.7 1.4-3.9 2.1-6.1 2.1-.4 0-.8 0-1.2-.1 2.2 1.5 4.8 2.3 7.4 2.3"/></symbol><symbol id="logo" viewBox="0 0 243.4 24"><path id="mark" d="M30.1 10.8L19.4 21.5 8.6 10.8h4.3l6.5 6.5 6.5-6.5-8.6-8.6h4.3l8.5 8.6zm-25.8 0l6.5-6.5 6.5 6.5h4.3L10.8 0 0 10.8l8.6 8.6h4.3l-8.6-8.6z"/><path id="text" d="M52.4 16.6v2.8H38.8V2.2h13.5V5H42.1v4.2h9.5v2.6h-9.5v4.9h10.3zm13 2.8L61.5 14l-3.9 5.4h-3.8l5.4-7.4-5.1-6.7h3.8l3.6 4.9 3.6-4.9H69L63.9 12l5.4 7.4h-3.9zm17.9-7.2c0-2.7-1.7-4.7-4.6-4.7-2.8 0-4.7 2.1-4.7 4.8 0 2.7 1.7 4.7 4.6 4.7 2.9 0 4.7-2.1 4.7-4.8zm3.4-.1c0 4.6-3.1 7.6-6.8 7.6-2.7 0-4.7-1.3-5.8-3.3V24h-3.2V5.3h3.2v3.2c.9-2.3 3-3.8 6-3.8 4 0 6.6 3.2 6.6 7.4zm5.1-1.3h8.5c-.2-2.2-1.6-3.4-4.1-3.4-2.6 0-4.1 1.4-4.4 3.4zm11.3 2H91.7c.3 2.6 2.4 4.2 5.6 4.2 2.1 0 4-.8 5.3-1.8v2.7c-1.4 1.1-3.7 1.9-6 1.9-5 0-8.3-3.1-8.3-7.7 0-4.1 2.9-7.4 7.7-7.4 4.4 0 7 2.5 7 6.6v1.5zm11.7-7.2v3.1c-.6-.4-1.4-.7-2.3-.7-2 0-3.4 1.6-3.4 4.7v6.6h-3.3v-14h3.2v3.6c.7-2.6 1.9-3.8 3.8-3.8.9-.1 1.5.1 2 .5zm19.9-3.5h3.4v17.2h-3.4V2.1zm21.4 9.3v7.9h-3.3v-7.2c0-3.1-1.2-4.6-3.7-4.6-2.7 0-4.2 1.9-4.2 4.4v7.4h-3.2v-14h3.2v3.1c1-2.4 2.8-3.6 5.4-3.6 3.7-.1 5.8 2.3 5.8 6.6zm2.6 6.5v-2.8c1.8 1.4 4 2.1 6.2 2.1 2.1 0 3.1-.7 3.1-1.8 0-.6-.2-1.3-1.9-1.8l-3.2-.8c-3-.8-4.2-2.1-4.2-4 0-2.5 2.3-4.2 6.2-4.2 2.5 0 4.3.7 5.6 1.6V9c-1.3-1-3.2-1.7-5.5-1.7-2.1 0-3.1.7-3.1 1.6 0 .8.7 1.3 2.3 1.6l3 .7c2.5.6 4.1 1.7 4.1 4.1 0 2.7-2.3 4.5-6.2 4.5-2.3 0-4.6-.6-6.4-1.9zM228 7.8h-4.2v11.6h-3.3V7.8h-2.8v-.9l6.1-6.1v4.4h4.2v2.6zm-27.9 0h-4.2v11.6h-3.3V7.8h-2.8v-.9l6.1-6.1v4.4h4.2v2.6zm-17.2 0h-4.2v11.6h-3.3V7.8h-2.8v-.9l6.1-6.1v4.4h4.2v2.6zm1.8-2.5h3.3v14.1h-3.3V5.3zm-.4-3.2c0-1 .9-1.7 2-1.7s2 .7 2 1.7-.8 1.8-2 1.8c-1.1 0-2-.8-2-1.8zm31.6 3.2v14.1h-3.3v-2.8c-1 2.3-2.9 3.4-5.2 3.4-3.7 0-5.7-2.2-5.7-6.3V5.3h3.3v7.8c0 2.8 1.3 4.1 3.7 4.1 2.5 0 4-1.7 4-4.3V5.3h3.2zm16.2 5.5h8.5c-.2-2.2-1.6-3.4-4.1-3.4-2.6 0-4.1 1.4-4.4 3.4zm11.3 2H232c.3 2.6 2.4 4.2 5.6 4.2 2.1 0 4-.8 5.3-1.8v2.7c-1.4 1.1-3.7 1.9-6 1.9-5 0-8.3-3.1-8.3-7.7 0-4.1 2.9-7.4 7.7-7.4 4.4 0 7 2.5 7 6.6v1.5zM126 7.8h-4.2v11.6h-3.3V7.8h-2.8v-.9l6.1-6.1v4.4h4.2v2.6z"/></symbol><symbol id="search-retain" viewBox="0 0 99.6 120"><style>.st0{fill:#1e305e}.st1{fill:#b78d59}.st2{fill:none;stroke:#1e305e;stroke-miterlimit:10}</style><path class="st0" d="M55.8 101.5h18.3v1H55.8z"/><path class="st1" d="M49.3 0h1v20h-1z"/><path transform="rotate(-29.991 88.948 34.6)" class="st1" d="M76.9 34.1h24v1h-24z"/><path class="st1" d="M77 56.7h21v1H77z"/><path class="st1" d="M2 56.7h21v1H2z"/><path transform="rotate(-60 10.642 34.604)" class="st1" d="M10.1 22.6h1v24h-1z"/><path class="st0" d="M53 72.5H36.1l-.1-.3c-5.5-8.9-7.1-19.1-5-30.3l1 .2c-2.1 10.8-.5 20.7 4.7 29.4H53v1z"/><path class="st0" d="M25 41.5h28v1H25z"/><path class="st0" d="M62.8 79.1l-.1 1 25.8 6.4V108h1V85.8z"/><path transform="rotate(-29.991 17.499 75.856)" class="st1" d="M13 75.4h9v1h-9z"/><path transform="rotate(-60 82.09 75.856)" class="st1" d="M81.6 71.4h1v9h-1z"/><path class="st0" d="M27 26v1l40.4 5.6-9 51.4h1l9.2-52.3z"/><path class="st0" d="M58.6 50.9c-1-.4-2.2-.4-3.3.1v1.1c.9-.6 2-.7 2.9-.3 1 .5 1.6 1.6 1.6 3.1 0 2.8-2.2 5.1-4.5 5.8v1.1c2.7-.7 5.5-3.4 5.5-6.8-.1-2.1-.9-3.5-2.2-4.1z"/><path class="st0" d="M16.5 85.8V108h1V86.5l20.9-5.2-3.1 17.5L51.7 120H53L36.3 98.6 39.6 80z"/></symbol><symbol id="search-search" viewBox="0 0 112.2 101.5"><style>.st0{fill:#b78d59}.st1{fill:#1e305e}</style><path class="st0" d="M56.1 18.3c-22.7 0-43.5 11.2-56.1 30 .1.5.2 1 .3 1.4 12.3-19 33.2-30.4 55.9-30.4S99.6 30.7 112 49.7c.1-.5.2-1 .3-1.4-12.7-18.8-33.5-30-56.2-30z"/><path class="st0" d="M76.4 39.7c0 11.2-9.1 20.3-20.3 20.3-11.2 0-20.3-9.1-20.3-20.3 0-1.8.2-3.6.7-5.4h-1c-.5 1.7-.7 3.5-.7 5.4 0 11.7 9.5 21.3 21.3 21.3s21.3-9.5 21.3-21.3c0-1.8-.2-3.6-.7-5.4h-1c.4 1.8.7 3.6.7 5.4z"/><path class="st0" d="M67.9 39.5c0 6.5-5.3 11.8-11.8 11.8-6.5 0-11.8-5.3-11.8-11.8 0-1.8.4-3.6 1.2-5.1h-1.1c-.7 1.6-1.1 3.3-1.1 5.1 0 7 5.7 12.8 12.8 12.8s12.8-5.7 12.8-12.8c0-1.8-.4-3.6-1.1-5.1h-1.1c.7 1.5 1.2 3.3 1.2 5.1z"/><path class="st1" d="M27.9 55.8c-9-15.6-3.6-35.5 11.9-44.5 2.5-1.4 5.1-2.5 7.9-3.3l-.3-1c-2.8.8-5.5 1.9-8.1 3.4-16 9.3-21.6 29.8-12.3 45.9 4.5 7.8 11.7 13.3 20.4 15.6l.3-1c-8.4-2.2-15.5-7.6-19.8-15.1z"/><path class="st1" d="M86 76.5l-1.7 1.3-4.7-6.6c9.7-7.2 16-18.7 16-31.7C95.6 17.7 77.9 0 56.1 0S16.6 17.7 16.6 39.5 34.3 79 56.1 79c8.4 0 16.2-2.7 22.7-7.2l4.7 6.6-1.7 1.2 15.7 21.8 4.3-3.1L86 76.5zm-68.4-37C17.6 18.3 34.9 1 56.1 1s38.5 17.3 38.5 38.5S77.3 78 56.1 78 17.6 60.7 17.6 39.5zm65.6 40.4l2.7-1.9 14.5 20.2-2.7 1.9-14.5-20.2z"/></symbol><symbol id="search-select" viewBox="0 0 109 117.1"><style>.st0{fill:#b78d59}.st1,.st2{fill:none;stroke-miterlimit:10}.st1{stroke-width:6;stroke:#fff}.st2{stroke:#b78d59}.st3{fill:#1e305e}.st4{fill:none;stroke:#1e305e;stroke-miterlimit:10}</style><path class="st0" d="M82.3 76.2l-.1 1 25.8 6.5v21.4h1V82.9z"/><path class="st0" d="M77.9 48c-1-.4-2.2-.4-3.3.1v1.1c.9-.6 2-.7 2.9-.3 1 .5 1.6 1.6 1.6 3.1 0 2.8-2.2 5.1-4.5 5.8v1.1c2.7-.7 5.5-3.4 5.5-6.8 0-2-.8-3.5-2.2-4.1z"/><path class="st0" d="M78.6 77.2l1 .2L88.1 29l-.3-.2c-6.9-3.4-13.8-5.4-21.3-6v1c7.2.6 13.9 2.5 20.5 5.8l-8.4 47.6z"/><path class="st0" d="M59.8 48c-1-.4-2.2-.4-3.3.1v1.1c.9-.6 2-.7 2.9-.3 1 .5 1.6 1.6 1.6 3.1 0 2.8-2.2 5.1-4.5 5.8v1.1c2.7-.7 5.5-3.4 5.5-6.8 0-2-.8-3.5-2.2-4.1z"/><path class="st3" d="M24.7 13l-6.5-6.5L24.7 0l6.5 6.5-6.5 6.5zm-5.1-6.5l5.1 5.1 5.1-5.1-5.1-5.1-5.1 5.1z"/><path class="st0" d="M46.8 10.5l-4-4 4-4 4 4-4 4zm-2.6-4l2.6 2.6 2.6-2.6-2.6-2.6-2.6 2.6z"/><path class="st0" d="M66.5 10.5l-4-4 4-4 4 4-4 4zm-2.6-4l2.6 2.6 2.6-2.6-2.6-2.6-2.6 2.6z"/><path class="st0" d="M64.3 76.2l-.1 1L90 83.7v21.4h1V82.9z"/><path class="st0" d="M60.6 77.2l1 .2L70.1 29l-.3-.2c-8.9-4.6-28.9-8.7-41.2-7.2v1c12-1.5 31.4 2.5 40.4 7l-8.4 47.6z"/><path class="st3" d="M39.3 98.6h18.3v1H39.3z"/><path class="st3" d="M36.5 39.6v-1h-28v1h5.9c-2 11-.3 21 5.1 29.7l.1.2h16.9v-1H20.2c-5.1-8.5-6.8-18.3-4.8-29h21.1z"/><path class="st3" d="M10.5 23.1v1l40.4 5.6-9 51.4h1l9.2-52.2z"/><path class="st3" d="M42.1 48c-1-.4-2.2-.4-3.3.1v1.1c.9-.6 2-.7 2.9-.3 1 .5 1.6 1.6 1.6 3.1 0 2.8-2.2 5.1-4.5 5.8v1.1c2.7-.7 5.5-3.4 5.5-6.8-.1-2-.9-3.5-2.2-4.1z"/><path class="st3" d="M0 82.9v22.2h1V83.7l20.9-5.2L18.8 96l16.4 21.1h1.3L19.8 95.7l3.3-18.6z"/><path class="st3" d="M46.3 76.2l-.1 1L72 83.7v21.4h1V82.9z"/></symbol><symbol id="search" viewBox="0 0 14.53 14.53"><title>search</title><g id="Layer_2" data-name="Layer 2"><path class="cls-1" d="M14.53 13.47l-3.79-3.8a6 6 0 1 0-1.06 1.06l3.79 3.79zM1.5 6A4.5 4.5 0 1 1 6 10.5 4.51 4.51 0 0 1 1.5 6z" id="Content"/></g></symbol><symbol id="select-arrow" viewBox="0 0 6 12"><style>.st0{fill:#1e305e}</style><path class="st0" d="M3 12L0 8h6l-3 4zM0 4h6L3 0 0 4z"/></symbol></svg>