<svg xmlns="http://www.w3.org/2000/svg"><defs><style>.cls-1{fill:#1e305e}</style></defs><symbol id="angle" viewBox="0 0 239.9 852"><path d="M0 0l190.6 270.5c65.7 93.2 65.7 217.7 0 310.9L0 852"/></symbol><symbol id="elbow-left" viewBox="0 0 239.9 852"><path d="M0 0l190.6 270.5c65.7 93.2 65.7 217.7 0 310.9L0 852"/></symbol><symbol id="elbow-right" viewBox="0 0 239.8 852"><path d="M239.8 852L49.2 581.5c-65.7-93.2-65.7-217.7 0-310.9L239.8 0"/></symbol><symbol id="icon-arrow-down" viewBox="0 0 14.1 7.1"><path d="M14.1 0H12L7.1 4.9 2.1 0H0l7.1 7.1z"/></symbol><symbol id="icon-facebook" viewBox="0 0 24 23.9"><path d="M24 12c0-6.6-5.4-12-12-12S0 5.4 0 12c0 6 4.4 11 10.1 11.9v-8.4h-3V12h3V9.4c0-3 1.8-4.7 4.5-4.7 1.3 0 2.7.2 2.7.2v3h-1.5c-1.5 0-2 .9-2 1.9V12h3.3l-.5 3.5h-2.8v8.4C19.6 23 24 18 24 12z"/></symbol><symbol id="icon-hamburger" viewBox="0 0 24 13.5"><path class="line top left" d="M0 0h12v1.5H0z"/><path class="line top right" d="M12 0h12v1.5H12z"/><path class="line middle" d="M0 6h24v1.5H0z"/><path class="line bottom left" d="M0 12h12v1.5H0z"/><path class="line bottom right" d="M12 12h12v1.5H12z"/></symbol><symbol id="icon-linkedin" viewBox="0 0 24 24"><path id="shape" d="M20.4 20.4h-3.6v-5.6c0-1.3 0-3-1.8-3-1.9 0-2.1 1.4-2.1 2.9v5.7H9.4V9h3.4v1.6c.7-1.2 2-1.9 3.4-1.8 3.6 0 4.3 2.4 4.3 5.5l-.1 6.1zM5.3 7.4c-1.1 0-2.1-.9-2.1-2.1 0-1.1.9-2.1 2.1-2.1 1.1 0 2.1.9 2.1 2.1s-.9 2.1-2.1 2.1m1.8 13H3.6V9h3.6v11.4zM22.2 0H1.8C.8 0 0 .8 0 1.7v20.5c0 1 .8 1.7 1.8 1.7h20.5c1 0 1.8-.8 1.8-1.7V1.7C24 .8 23.2 0 22.2 0"/></symbol><symbol id="icon-search" viewBox="0 0 14.5 14.5"><path id="search" d="M14.5 13.5l-3.8-3.8c.8-1 1.3-2.3 1.3-3.7 0-3.3-2.7-6-6-6S0 2.7 0 6s2.7 6 6 6c1.4 0 2.7-.5 3.7-1.3l3.8 3.8 1-1zM1.5 6c0-2.5 2-4.5 4.5-4.5s4.5 2 4.5 4.5-2 4.5-4.5 4.5-4.5-2-4.5-4.5z"/></symbol><symbol id="icon-twitter" viewBox="0 0 24 24"><path id="shape" d="M7.5 21.8c9.1 0 14-7.5 14-14v-.6c1-.7 1.8-1.6 2.5-2.5-.9.4-1.9.7-2.8.8 1-.6 1.8-1.6 2.2-2.7-1 .6-2 1-3.1 1.2-1.9-2-5-2.1-7-.2-1.3 1.2-1.8 3-1.4 4.7-4-.2-7.6-2.1-10.1-5.1-1.4 2-.8 4.9 1.4 6.3-.8 0-1.6-.2-2.2-.6v.1c0 2.3 1.7 4.4 4 4.8-.7.2-1.5.2-2.2.1.6 2 2.5 3.4 4.6 3.4-1.7 1.4-3.9 2.1-6.1 2.1-.4 0-.8 0-1.2-.1 2.2 1.5 4.8 2.3 7.4 2.3"/></symbol><symbol id="logo" viewBox="0 0 243.4 24"><path id="mark" d="M30.1 10.8L19.4 21.5 8.6 10.8h4.3l6.5 6.5 6.5-6.5-8.6-8.6h4.3l8.5 8.6zm-25.8 0l6.5-6.5 6.5 6.5h4.3L10.8 0 0 10.8l8.6 8.6h4.3l-8.6-8.6z"/><path id="text" d="M52.4 16.6v2.8H38.8V2.2h13.5V5H42.1v4.2h9.5v2.6h-9.5v4.9h10.3zm13 2.8L61.5 14l-3.9 5.4h-3.8l5.4-7.4-5.1-6.7h3.8l3.6 4.9 3.6-4.9H69L63.9 12l5.4 7.4h-3.9zm17.9-7.2c0-2.7-1.7-4.7-4.6-4.7-2.8 0-4.7 2.1-4.7 4.8 0 2.7 1.7 4.7 4.6 4.7 2.9 0 4.7-2.1 4.7-4.8zm3.4-.1c0 4.6-3.1 7.6-6.8 7.6-2.7 0-4.7-1.3-5.8-3.3V24h-3.2V5.3h3.2v3.2c.9-2.3 3-3.8 6-3.8 4 0 6.6 3.2 6.6 7.4zm5.1-1.3h8.5c-.2-2.2-1.6-3.4-4.1-3.4-2.6 0-4.1 1.4-4.4 3.4zm11.3 2H91.7c.3 2.6 2.4 4.2 5.6 4.2 2.1 0 4-.8 5.3-1.8v2.7c-1.4 1.1-3.7 1.9-6 1.9-5 0-8.3-3.1-8.3-7.7 0-4.1 2.9-7.4 7.7-7.4 4.4 0 7 2.5 7 6.6v1.5zm11.7-7.2v3.1c-.6-.4-1.4-.7-2.3-.7-2 0-3.4 1.6-3.4 4.7v6.6h-3.3v-14h3.2v3.6c.7-2.6 1.9-3.8 3.8-3.8.9-.1 1.5.1 2 .5zm19.9-3.5h3.4v17.2h-3.4V2.1zm21.4 9.3v7.9h-3.3v-7.2c0-3.1-1.2-4.6-3.7-4.6-2.7 0-4.2 1.9-4.2 4.4v7.4h-3.2v-14h3.2v3.1c1-2.4 2.8-3.6 5.4-3.6 3.7-.1 5.8 2.3 5.8 6.6zm2.6 6.5v-2.8c1.8 1.4 4 2.1 6.2 2.1 2.1 0 3.1-.7 3.1-1.8 0-.6-.2-1.3-1.9-1.8l-3.2-.8c-3-.8-4.2-2.1-4.2-4 0-2.5 2.3-4.2 6.2-4.2 2.5 0 4.3.7 5.6 1.6V9c-1.3-1-3.2-1.7-5.5-1.7-2.1 0-3.1.7-3.1 1.6 0 .8.7 1.3 2.3 1.6l3 .7c2.5.6 4.1 1.7 4.1 4.1 0 2.7-2.3 4.5-6.2 4.5-2.3 0-4.6-.6-6.4-1.9zM228 7.8h-4.2v11.6h-3.3V7.8h-2.8v-.9l6.1-6.1v4.4h4.2v2.6zm-27.9 0h-4.2v11.6h-3.3V7.8h-2.8v-.9l6.1-6.1v4.4h4.2v2.6zm-17.2 0h-4.2v11.6h-3.3V7.8h-2.8v-.9l6.1-6.1v4.4h4.2v2.6zm1.8-2.5h3.3v14.1h-3.3V5.3zm-.4-3.2c0-1 .9-1.7 2-1.7s2 .7 2 1.7-.8 1.8-2 1.8c-1.1 0-2-.8-2-1.8zm31.6 3.2v14.1h-3.3v-2.8c-1 2.3-2.9 3.4-5.2 3.4-3.7 0-5.7-2.2-5.7-6.3V5.3h3.3v7.8c0 2.8 1.3 4.1 3.7 4.1 2.5 0 4-1.7 4-4.3V5.3h3.2zm16.2 5.5h8.5c-.2-2.2-1.6-3.4-4.1-3.4-2.6 0-4.1 1.4-4.4 3.4zm11.3 2H232c.3 2.6 2.4 4.2 5.6 4.2 2.1 0 4-.8 5.3-1.8v2.7c-1.4 1.1-3.7 1.9-6 1.9-5 0-8.3-3.1-8.3-7.7 0-4.1 2.9-7.4 7.7-7.4 4.4 0 7 2.5 7 6.6v1.5zM126 7.8h-4.2v11.6h-3.3V7.8h-2.8v-.9l6.1-6.1v4.4h4.2v2.6z"/></symbol><symbol id="search-retain" viewBox="0 0 99.9 120.2"><style>.st0{fill:#b78d59}.st1{fill:#1e305e}</style><path class="st0" d="M49.3 0h1.2v20.2h-1.2V0z"/><path class="st0" d="M49.5.1h1v20h-1V.1z"/><path class="st0" d="M78.3 40.2l21-12.1.6 1-21 12.1-.6-1z"/><path class="st0" d="M78.4 40.3l20.8-12 .5.9-20.8 12-.5-.9z"/><path class="st0" d="M77 56.7h21.2v1.2H77v-1.2z"/><path class="st0" d="M77.2 56.8h21v1h-21v-1z"/><path class="st0" d="M2 56.7h21.2v1.2H2v-1.2z"/><path class="st0" d="M2.2 56.8h21v1h-21v-1z"/><path class="st0" d="M0 29.2l.6-1 21 12.1-.6 1L0 29.2z"/><path class="st0" d="M.1 29.2l.5-.9 20.8 12-.5.9-20.8-12z"/><path class="st0" d="M13.3 77.8l8.1-4.7.6 1-8.1 4.6-.6-.9z"/><path class="st0" d="M13.6 77.8l7.8-4.5.5.9-7.8 4.5-.5-.9z"/><path class="st0" d="M78 74.3l.6-1 8.1 4.7-.6 1-8.1-4.7z"/><path class="st0" d="M78.2 74.1l.5-.9 7.8 4.5-.5.9-7.8-4.5z"/><path class="st1" d="M55.8 101.5h18.6v1.2H55.8v-1.2z"/><path class="st1" d="M36 72.4l.2.3h17.1v-1.2H36.9c-5.1-8.5-6.7-18.1-4.8-28.7h21.2v-1.2H25v1.2h5.8c-1.9 10.9-.1 20.9 5.2 29.6z"/><path class="st1" d="M62.9 79.1l-.2 1.2 25.8 6.5v21.4h1.3V85.8l-26.9-6.7z"/><path class="st1" d="M58.4 84.2h1.3l9.2-52.5L27 25.9v1.3l40.4 5.6-9 51.4z"/><path class="st1" d="M61 55c0-2-.8-3.5-2.2-4.1-.5-.2-1-.3-1.5-.3-.6 0-1.3.1-1.9.4h-.1v1.4l.2-.1c.6-.3 1.2-.5 1.8-.5.4 0 .7.1 1 .2 1 .4 1.5 1.5 1.5 3 0 2.8-2.2 5-4.4 5.7h-.1V62h.2c2.7-.8 5.5-3.5 5.5-7z"/><path class="st1" d="M40 79.9l-23.5 5.9v22.4h1.3V86.8l20.6-5.2L35.3 99l16.5 21.2h1.6L36.6 98.6 40 79.9z"/></symbol><symbol id="search-search" viewBox="0 0 112.5 120.2"><style>.st0{fill:#b78d59}.st1{fill:#1e305e}</style><path class="st0" d="M56.2 36.8C33.6 36.8 12.6 48 0 66.9c.1.4.1.7.2 1l.1.7.2-.3C12.8 49.3 33.6 38 56.3 38S99.7 49.4 112 68.4l.2.3.1-.7c.1-.3.1-.7.2-1.1C99.9 48 78.9 36.8 56.2 36.8z"/><path class="st0" d="M76.9 52.9h-1.3v.2c.5 1.7.7 3.5.7 5.3 0 11.1-9 20.1-20.1 20.1s-20.1-9-20.1-20.1c0-1.8.2-3.6.7-5.3v-.2h-1.3v.1c-.5 1.8-.7 3.6-.7 5.4 0 11.8 9.6 21.4 21.4 21.4s21.4-9.6 21.4-21.4c0-1.9-.2-3.7-.7-5.5z"/><path class="st0" d="M45.9 52.9h-1.4v.1c-.7 1.6-1.1 3.4-1.1 5.2 0 7.1 5.8 12.9 12.9 12.9s12.9-5.8 12.9-12.9c0-1.8-.4-3.5-1.1-5.2v-.1h-1.4l.1.2c.8 1.6 1.2 3.3 1.2 5.1 0 6.4-5.2 11.6-11.6 11.6s-11.6-5.2-11.6-11.6c0-1.8.4-3.5 1.2-5.1l-.1-.2z"/><path class="st1" d="M27 75c4.5 7.8 11.8 13.4 20.5 15.7h.1l.4-1.2h-.1c-8.4-2.2-15.4-7.6-19.7-15.1C19.2 58.9 24.5 39 40 30c2.5-1.4 5.1-2.5 7.8-3.3h.1l-.3-1.2h-.1c-2.8.8-5.6 1.9-8.1 3.4-7.8 4.5-13.4 11.8-15.7 20.5S22.6 67.2 27 75z"/><path class="st1" d="M86.2 95l-1.7 1.3-4.6-6.4c10-7.5 16-19.3 16-31.8 0-21.8-17.8-39.6-39.7-39.6S16.6 36.3 16.6 58.1s17.8 39.6 39.6 39.6c8.1 0 16-2.5 22.6-7.1l4.6 6.4-1.7 1.2 15.8 22 4.5-3.2-15.8-22zm-30-75.3c21.2 0 38.4 17.2 38.4 38.4S77.4 96.5 56.2 96.5 17.9 79.3 17.9 58.1s17.2-38.4 38.3-38.4zm41.6 98.8l-14.3-20 2.5-1.8 14.4 20-2.6 1.8z"/></symbol><symbol id="search-select" viewBox="0 0 109.2 117.4"><style>.st0{fill:#b78d59}.st1{fill:#1e305e}</style><path class="st0" d="M82.4 76.3l-.2 1.2L108 84v21.4h1.2V83z"/><path class="st0" d="M74.7 57.9l-.1 1.3h.2c2.7-.7 5.5-3.5 5.5-7 0-2-.8-3.5-2.2-4.1-.5-.2-1-.3-1.5-.3-.6 0-1.3.1-1.9.4h-.1v1.4l.2-.1c.6-.3 1.2-.5 1.8-.5.4 0 .7.1 1 .2 1 .4 1.5 1.5 1.5 3 0 2.8-2.3 5-4.4 5.7z"/><path class="st0" d="M66.5 22.8v1.3h.1c7.1.6 13.8 2.5 20.4 5.7l-8.4 47.7 1.2.3 8.5-48.7-.4-.2c-6.9-3.4-13.9-5.4-21.3-6l-.1-.1z"/><path class="st0" d="M60 48.1c-.5-.2-1-.3-1.5-.3-.6 0-1.3.1-1.9.4h-.1v1.4l.2-.1c.6-.3 1.2-.5 1.8-.5.4 0 .7.1 1 .2 1 .4 1.5 1.5 1.5 3 0 2.8-2.2 5-4.4 5.7h-.1v1.3h.2c2.7-.7 5.5-3.5 5.5-7 0-2-.8-3.5-2.2-4.1z"/><path class="st0" d="M51.2 6.7L47 2.5l-4.2 4.1 4.2 4.1 4.2-4zM47 4.3l2.4 2.4L47 9.1l-2.4-2.4L47 4.3z"/><path class="st0" d="M70.8 6.7l-4.2-4.1-4.2 4.1 4.2 4.1 4.2-4.1zm-4.2-2.4L69 6.7l-2.4 2.4-2.4-2.4 2.4-2.4z"/><path class="st0" d="M64.2 77.5L90 84v21.4h1.2V83l-26.8-6.7z"/><path class="st0" d="M69.9 28.9c-8.1-4.2-24.1-7.6-35.7-7.6-2 0-4 .1-5.6.3h-.1v1.3h.1c1.7-.2 3.6-.3 5.7-.3 11.1 0 26.6 3.2 34.6 7.2l-8.4 47.7 1.2.3 8.5-48.7-.3-.2z"/><path class="st1" d="M31.5 6.7L24.8 0l-6.7 6.7 6.7 6.7 6.7-6.7zm-6.7-4.9l4.9 4.9-4.9 4.9-4.9-4.9 4.9-4.9z"/><path class="st1" d="M39.3 98.7h18.6v1.2H39.3z"/><path class="st1" d="M19.5 69.6l.2.3h17.1v-1.2H20.4c-5.1-8.5-6.7-18.1-4.8-28.7h21.2v-1.2H8.5V40h5.8c-1.9 10.9-.2 20.9 5.2 29.6z"/><path class="st1" d="M41.9 81.4h1.2l9.3-52.5-41.9-5.8v1.3L50.9 30z"/><path class="st1" d="M44.5 52.2c0-2-.8-3.5-2.2-4.1-.5-.2-1-.3-1.5-.3-.6 0-1.3.1-1.9.4h-.1v1.4l.2-.1c.6-.3 1.2-.5 1.8-.5.4 0 .7.1 1 .2 1 .4 1.5 1.5 1.5 3 0 2.8-2.2 5-4.4 5.7h-.1v1.3h.2c2.7-.8 5.5-3.5 5.5-7z"/><path class="st1" d="M23.4 77.1L0 83v22.4h1.2V84l20.6-5.2-3.1 17.4 16.6 21.2h1.5L20.1 95.8z"/><path class="st1" d="M46.4 76.3l-.2 1.2L72 84v21.4h1.2V83z"/></symbol><symbol id="search" viewBox="0 0 14.53 14.53"><title>search</title><g id="Layer_2" data-name="Layer 2"><path class="cls-1" d="M14.53 13.47l-3.79-3.8a6 6 0 1 0-1.06 1.06l3.79 3.79zM1.5 6A4.5 4.5 0 1 1 6 10.5 4.51 4.51 0 0 1 1.5 6z" id="Content"/></g></symbol><symbol id="select-arrow" viewBox="0 0 6 12"><style>.st0{fill:#1e305e}</style><path class="st0" d="M3 12L0 8h6l-3 4zM0 4h6L3 0 0 4z"/></symbol></svg>