<svg xmlns="http://www.w3.org/2000/svg"><defs><style>.cls-1{fill:#1e305e}</style></defs><symbol id="icon-arrow-down" viewBox="0 0 14.1 7.1"><path d="M14.1 0H12L7.1 4.9 2.1 0H0l7.1 7.1z"/></symbol><symbol id="icon-hamburger" viewBox="0 0 24 13.5"><path class="line top left" d="M0 0h12v1.5H0z"/><path class="line top right" d="M12 0h12v1.5H12z"/><path class="line middle" d="M0 6h24v1.5H0z"/><path class="line bottom left" d="M0 12h12v1.5H0z"/><path class="line bottom right" d="M12 12h12v1.5H12z"/></symbol><symbol id="icon-search" viewBox="0 0 14.5 14.5"><path id="search" d="M14.5 13.5l-3.8-3.8c.8-1 1.3-2.3 1.3-3.7 0-3.3-2.7-6-6-6S0 2.7 0 6s2.7 6 6 6c1.4 0 2.7-.5 3.7-1.3l3.8 3.8 1-1zM1.5 6c0-2.5 2-4.5 4.5-4.5s4.5 2 4.5 4.5-2 4.5-4.5 4.5-4.5-2-4.5-4.5z"/></symbol><symbol id="logo" viewBox="0 0 243.4 24"><path id="mark" d="M30.1 10.8L19.4 21.5 8.6 10.8h4.3l6.5 6.5 6.5-6.5-8.6-8.6h4.3l8.5 8.6zm-25.8 0l6.5-6.5 6.5 6.5h4.3L10.8 0 0 10.8l8.6 8.6h4.3l-8.6-8.6z"/><path id="text" d="M52.4 16.6v2.8H38.8V2.2h13.5V5H42.1v4.2h9.5v2.6h-9.5v4.9h10.3zm13 2.8L61.5 14l-3.9 5.4h-3.8l5.4-7.4-5.1-6.7h3.8l3.6 4.9 3.6-4.9H69L63.9 12l5.4 7.4h-3.9zm17.9-7.2c0-2.7-1.7-4.7-4.6-4.7-2.8 0-4.7 2.1-4.7 4.8 0 2.7 1.7 4.7 4.6 4.7 2.9 0 4.7-2.1 4.7-4.8zm3.4-.1c0 4.6-3.1 7.6-6.8 7.6-2.7 0-4.7-1.3-5.8-3.3V24h-3.2V5.3h3.2v3.2c.9-2.3 3-3.8 6-3.8 4 0 6.6 3.2 6.6 7.4zm5.1-1.3h8.5c-.2-2.2-1.6-3.4-4.1-3.4-2.6 0-4.1 1.4-4.4 3.4zm11.3 2H91.7c.3 2.6 2.4 4.2 5.6 4.2 2.1 0 4-.8 5.3-1.8v2.7c-1.4 1.1-3.7 1.9-6 1.9-5 0-8.3-3.1-8.3-7.7 0-4.1 2.9-7.4 7.7-7.4 4.4 0 7 2.5 7 6.6v1.5zm11.7-7.2v3.1c-.6-.4-1.4-.7-2.3-.7-2 0-3.4 1.6-3.4 4.7v6.6h-3.3v-14h3.2v3.6c.7-2.6 1.9-3.8 3.8-3.8.9-.1 1.5.1 2 .5zm19.9-3.5h3.4v17.2h-3.4V2.1zm21.4 9.3v7.9h-3.3v-7.2c0-3.1-1.2-4.6-3.7-4.6-2.7 0-4.2 1.9-4.2 4.4v7.4h-3.2v-14h3.2v3.1c1-2.4 2.8-3.6 5.4-3.6 3.7-.1 5.8 2.3 5.8 6.6zm2.6 6.5v-2.8c1.8 1.4 4 2.1 6.2 2.1 2.1 0 3.1-.7 3.1-1.8 0-.6-.2-1.3-1.9-1.8l-3.2-.8c-3-.8-4.2-2.1-4.2-4 0-2.5 2.3-4.2 6.2-4.2 2.5 0 4.3.7 5.6 1.6V9c-1.3-1-3.2-1.7-5.5-1.7-2.1 0-3.1.7-3.1 1.6 0 .8.7 1.3 2.3 1.6l3 .7c2.5.6 4.1 1.7 4.1 4.1 0 2.7-2.3 4.5-6.2 4.5-2.3 0-4.6-.6-6.4-1.9zM228 7.8h-4.2v11.6h-3.3V7.8h-2.8v-.9l6.1-6.1v4.4h4.2v2.6zm-27.9 0h-4.2v11.6h-3.3V7.8h-2.8v-.9l6.1-6.1v4.4h4.2v2.6zm-17.2 0h-4.2v11.6h-3.3V7.8h-2.8v-.9l6.1-6.1v4.4h4.2v2.6zm1.8-2.5h3.3v14.1h-3.3V5.3zm-.4-3.2c0-1 .9-1.7 2-1.7s2 .7 2 1.7-.8 1.8-2 1.8c-1.1 0-2-.8-2-1.8zm31.6 3.2v14.1h-3.3v-2.8c-1 2.3-2.9 3.4-5.2 3.4-3.7 0-5.7-2.2-5.7-6.3V5.3h3.3v7.8c0 2.8 1.3 4.1 3.7 4.1 2.5 0 4-1.7 4-4.3V5.3h3.2zm16.2 5.5h8.5c-.2-2.2-1.6-3.4-4.1-3.4-2.6 0-4.1 1.4-4.4 3.4zm11.3 2H232c.3 2.6 2.4 4.2 5.6 4.2 2.1 0 4-.8 5.3-1.8v2.7c-1.4 1.1-3.7 1.9-6 1.9-5 0-8.3-3.1-8.3-7.7 0-4.1 2.9-7.4 7.7-7.4 4.4 0 7 2.5 7 6.6v1.5zM126 7.8h-4.2v11.6h-3.3V7.8h-2.8v-.9l6.1-6.1v4.4h4.2v2.6z"/></symbol><symbol id="search" viewBox="0 0 14.53 14.53"><title>search</title><g id="Layer_2" data-name="Layer 2"><path class="cls-1" d="M14.53 13.47l-3.79-3.8a6 6 0 1 0-1.06 1.06l3.79 3.79zM1.5 6A4.5 4.5 0 1 1 6 10.5 4.51 4.51 0 0 1 1.5 6z" id="Content"/></g></symbol></svg>