<?xml version="1.0" encoding="utf-8"?>
<!-- Generator: Adobe Illustrator 21.1.0, SVG Export Plug-In . SVG Version: 6.00 Build 0)  -->
<svg version="1.1" id="Layer_1" xmlns="http://www.w3.org/2000/svg" xmlns:xlink="http://www.w3.org/1999/xlink" x="0px" y="0px"
	 viewBox="0 0 178.3 25" style="enable-background:new 0 0 178.3 25;" xml:space="preserve">
<style type="text/css">
	.st0{fill:#86CCA6;}
</style>
<path id="star-5" class="st0" d="M21.3,25l-8.1-4.3L5,25l1.6-9L0,9.6l9.1-1.3L13.2,0l4.1,8.2l9.1,1.3L19.7,16L21.3,25z M13.2,19.6
	l6.8,3.6l-1.3-7.6l5.5-5.4l-7.6-1.1l-3.4-6.9L9.8,9.1l-7.6,1.1l5.5,5.4l-1.3,7.6L13.2,19.6z"/>
<path id="star-4" class="st0" d="M43,25l1.6-9L38,9.6l9.1-1.3L51.1,0l4.1,8.2l9.1,1.3L57.7,16l1.6,9l-8.1-4.3L43,25z M51.1,19.6
	l6.8,3.6l-1.3-7.6l5.5-5.4l-7.6-1.1l-3.4-6.9l-3.4,6.9l-7.6,1.1l5.5,5.4l-1.3,7.6L51.1,19.6z"/>
<path id="star-3" class="st0" d="M97.3,25l-8.1-4.3L81,25l1.6-9L76,9.6l9.1-1.3L89.1,0l4.1,8.2l9.1,1.3L95.7,16L97.3,25z M78.1,10.3
	l5.5,5.4l-1.3,7.6l6.8-3.6l6.8,3.6l-1.3-7.6l5.5-5.4l-7.6-1.1l-3.4-6.9l-3.4,6.9L78.1,10.3z"/>
<path id="star-2" class="st0" d="M135.3,25l-8.1-4.3L119,25l1.6-9L114,9.6l9.1-1.3l4.1-8.2l4.1,8.2l9.1,1.3l-6.6,6.4L135.3,25z
	 M127.1,19.6l6.8,3.6l-1.3-7.6l5.5-5.4l-7.6-1.1l-3.4-6.9l-3.4,6.9l-7.6,1.1l5.5,5.4l-1.3,7.6L127.1,19.6z"/>
<path id="star-1" class="st0" d="M173.3,25l-8.1-4.3L157,25l1.6-9L152,9.6l9.1-1.3l4.1-8.2l4.1,8.2l9.1,1.3l-6.6,6.4L173.3,25z
	 M154.1,10.3l5.5,5.4l-1.3,7.6l6.8-3.6l6.8,3.6l-1.3-7.6l5.5-5.4l-7.6-1.1l-3.4-6.9l-3.4,6.9L154.1,10.3z"/>
<g>
</g>
<g>
</g>
<g>
</g>
<g>
</g>
<g>
</g>
<g>
</g>
</svg>
