<?xml version="1.0" encoding="utf-8"?>
<!-- Generator: Adobe Illustrator 21.1.0, SVG Export Plug-In . SVG Version: 6.00 Build 0)  -->
<svg version="1.1" id="Layer_1" xmlns="http://www.w3.org/2000/svg" xmlns:xlink="http://www.w3.org/1999/xlink" x="0px" y="0px"
	 viewBox="0 0 421 624" style="enable-background:new 0 0 421 624;" xml:space="preserve">
<style type="text/css">
	.st0{fill:none;stroke:#1E305E;stroke-miterlimit:10;}
	.st1{fill:#FFFFFF;}
	.st2{fill:none;stroke:#1E315E;stroke-miterlimit:10;}
	.st3{fill:#8D9394;}
	.st4{fill:#86CCA6;}
	.st5{fill:#B68C59;}
</style>
<polyline class="st0" points="0.5,624 0.5,0.5 420.5,0.5 420.5,624 "/>
<g>
	<rect x="48.5" y="48.4" class="st1" width="324" height="209.4"/>
	<g>
		<circle class="st2" cx="211.1" cy="191.9" r="42.6"/>
		<g>
			<rect x="198.7" y="208.9" class="st2" width="23.6" height="3.5"/>
			<polygon class="st2" points="217.8,208.9 203.2,208.9 203.2,205.5 210.2,205.5 217.8,205.5 			"/>
			<line class="st2" x1="210.5" y1="181.3" x2="210.5" y2="205.4"/>
			<line class="st2" x1="214.5" y1="178.3" x2="234.4" y2="184"/>
			<line class="st2" x1="186.5" y1="170.4" x2="206.5" y2="176.1"/>
			<g>
				<path class="st2" d="M199.7,189c0,4.3-3.5,7.7-7.7,7.7s-7.7-3.5-7.7-7.7S192,172,192,172S199.7,184.7,199.7,189z"/>
				<line class="st2" x1="184.3" y1="189.8" x2="199.7" y2="189.8"/>
			</g>
			<g>
				<path class="st2" d="M236.7,199.5c0,4.3-3.5,7.7-7.7,7.7s-7.7-3.5-7.7-7.7s7.7-16.9,7.7-16.9S236.7,195.3,236.7,199.5z"/>
				<line class="st2" x1="221.3" y1="200.4" x2="236.7" y2="200.4"/>
			</g>
			<circle class="st2" cx="210.5" cy="177.2" r="4.1"/>
		</g>
	</g>
	<g>
		<g>
			<path class="st3" d="M120.3,90v12.5h-2.4l-7.2-10.9v10.9H109V90h2.6l7,10.6V90H120.3z"/>
			<path class="st3" d="M133.3,100.9v1.6H124V90h9.2v1.6h-7.4v3.5h6.9v1.6h-6.9v4.2H133.3z"/>
			<path class="st3" d="M145,100.8v1.7h-8.8V90h1.8v10.8H145z"/>
			<path class="st3" d="M146.4,101.3v-1.9c1.4,1.1,3,1.7,4.9,1.7c2,0,3.1-0.7,3.1-2.1c0-0.9-0.5-1.4-2.2-1.9l-2.7-0.7
				c-2.2-0.6-3-1.8-3-3.2c0-2.1,1.8-3.6,4.9-3.6c2,0,3.4,0.6,4.4,1.3v1.8c-1.2-1-2.6-1.5-4.4-1.5c-1.9,0-3.1,0.7-3.1,1.8
				c0,0.8,0.5,1.3,1.9,1.7l2.8,0.7c2.4,0.7,3.3,1.8,3.3,3.4c0,2.3-1.9,3.8-4.9,3.8C149.5,102.8,147.7,102.2,146.4,101.3z"/>
			<path class="st3" d="M158,96.3c0-3.7,2.9-6.6,6.9-6.6c4,0,6.9,2.9,6.9,6.6s-2.9,6.6-6.9,6.6C160.9,102.9,158,99.9,158,96.3z
				 M169.9,96.3c0-2.8-2-4.9-5-4.9c-3.1,0-5.1,2.1-5.1,4.9s2,4.9,5.1,4.9C168,101.2,169.9,99.1,169.9,96.3z"/>
			<path class="st3" d="M185.9,90v12.5h-2.4l-7.2-10.9v10.9h-1.7V90h2.6l7,10.6V90H185.9z"/>
			<path class="st3" d="M207.3,96.5h-2.5v6h-1.6v-2.7c-0.7,2-2.7,3-4.9,3c-2.8,0-4.6-1.5-4.6-3.6c0-1.6,1.1-2.8,2.6-3.2
				c-1.2-0.3-2.1-1.4-2.1-2.8c0-2,1.8-3.5,4.9-3.5c1.3,0,2.4,0.3,3.4,0.8v1.7c-0.7-0.5-1.8-1-3.3-1c-2,0-3.1,0.8-3.1,2
				c0,1.1,1,1.8,2.9,1.8h4.4v-2.1l1.6-0.5V95h2.5V96.5z M203.2,96.5L203.2,96.5l-4.7,0c-2.2,0-3.1,1.1-3.1,2.3
				c0,1.4,1.2,2.4,3.3,2.4C201,101.2,203.2,99.9,203.2,96.5z"/>
			<path class="st3" d="M226.8,102.5l-0.9-11l-4.1,11h-2l-4.1-11.1l-0.9,11.1h-1.7l1-12.5h2.8l3.8,10.4l3.9-10.4h2.7l1.2,12.5H226.8
				z"/>
			<path class="st3" d="M231.7,97.5V90h1.8v7.4c0,2.4,1.4,3.8,3.8,3.8c2.3,0,3.7-1.4,3.7-3.8V90h1.8v7.4c0,3.3-2.2,5.4-5.5,5.4
				C233.9,102.9,231.7,100.8,231.7,97.5z"/>
			<path class="st3" d="M254,102.5l-6-5.7v5.7h-1.8V90h6.1c2.3,0,3.9,1.5,3.9,3.6c0,2.2-1.5,3.7-4.2,3.7h-1.2l5.8,5.2H254z
				 M248.1,95.9h3.8c1.7,0,2.6-0.8,2.6-2.2c0-1.3-0.9-2.1-2.4-2.1h-4V95.9z"/>
			<path class="st3" d="M259.1,90h5.5c4.3,0,6.5,2.6,6.5,6.2c0,3.7-2.5,6.3-7,6.3h-5V90z M264.1,100.9c3.3,0,5.2-1.7,5.2-4.7
				c0-2.7-1.5-4.6-4.8-4.6h-3.5v9.3H264.1z"/>
			<path class="st3" d="M273,96.3c0-3.7,2.9-6.6,6.9-6.6c4,0,6.9,2.9,6.9,6.6s-2.9,6.6-6.9,6.6C275.9,102.9,273,99.9,273,96.3z
				 M284.9,96.3c0-2.8-2-4.9-5-4.9c-3.1,0-5.1,2.1-5.1,4.9s2,4.9,5.1,4.9C283,101.2,284.9,99.1,284.9,96.3z"/>
			<path class="st3" d="M288.6,96.3c0-3.9,3-6.7,7.2-6.7c1.9,0,3.5,0.5,4.6,1.4v1.9c-1.2-0.9-2.6-1.6-4.5-1.6
				c-3.3,0-5.4,2.1-5.4,4.9c0,2.8,2.1,4.9,5.4,4.9c1.8,0,3.4-0.6,4.6-1.7v1.8c-1.3,1.1-2.9,1.6-4.8,1.6
				C291.3,102.9,288.6,100,288.6,96.3z"/>
			<path class="st3" d="M311.7,102.5l-6.7-6.2v6.2h-1.8V90h1.8v5.5l6.6-5.5h2.5l-7.1,5.8l7.3,6.7H311.7z"/>
			<path class="st3" d="M173.4,123.5v1.7h-8.8v-12.5h1.8v10.8H173.4z"/>
			<path class="st3" d="M183.2,121.8h-5.9l-1.3,3.4h-1.9l5-12.5h2.4l4.9,12.5h-1.9L183.2,121.8z M182.6,120.3l-2.4-6.1l-2.4,6.1
				H182.6z"/>
			<path class="st3" d="M205,112.7l-3.6,12.5h-2.2l-3.2-10.9l-3.3,10.9h-2.3l-3.4-12.5h1.9l2.7,10.6l3.2-10.6h2.4l3.1,10.6l2.8-10.6
				H205z"/>
			<path class="st3" d="M213.6,114.3v3.5h6.9v1.6h-6.9v5.8h-1.8v-12.5h9.2v1.6H213.6z"/>
			<path class="st3" d="M223.6,112.7h1.8v12.5h-1.8V112.7z"/>
			<path class="st3" d="M236.9,125.2l-6-5.7v5.7h-1.8v-12.5h6.1c2.3,0,3.9,1.5,3.9,3.6c0,2.2-1.5,3.7-4.2,3.7h-1.2l5.8,5.2H236.9z
				 M230.9,118.6h3.8c1.7,0,2.6-0.8,2.6-2.2c0-1.3-0.9-2.1-2.4-2.1h-4V118.6z"/>
			<path class="st3" d="M255.1,125.2l-0.9-11l-4.1,11h-2L244,114l-0.9,11.1h-1.7l1-12.5h2.8l3.8,10.4l3.9-10.4h2.7l1.2,12.5H255.1z"
				/>
		</g>
	</g>
	<rect x="48.5" y="264.5" class="st1" width="324" height="359.5"/>
	<g>
		<g>
			<g>
				<path class="st3" d="M71.3,359.1c0-3.9,2.7-6.7,6.6-6.7c1.7,0,3,0.5,3.8,1.1v1.9c-0.8-0.7-2-1.4-3.8-1.4c-3,0-4.8,2.1-4.8,5
					c0,2.8,1.9,5,4.9,5c1.6,0,2.9-0.6,3.8-1.3v1.8c-1,0.8-2.4,1.2-3.9,1.2C73.7,365.7,71.3,362.8,71.3,359.1z"/>
				<path class="st3" d="M90.9,362h-5l-1.1,3.3H83l4.3-12.6h2.4l4.3,12.6h-1.9L90.9,362z M90.5,360.6l-2.1-6.2l-2,6.2H90.5z"/>
				<path class="st3" d="M95.2,364.3v-1.8c1.1,1,2.4,1.6,3.9,1.6c1.6,0,2.4-0.7,2.4-1.9c0-1-0.5-1.5-2.3-2.2l-1.2-0.5
					c-1.9-0.8-2.8-1.9-2.8-3.5c0-2.1,1.5-3.5,4.1-3.5c1.7,0,2.9,0.6,3.5,1.2v1.9c-1-0.9-2-1.5-3.5-1.5c-1.5,0-2.3,0.6-2.3,1.7
					c0,1,0.7,1.5,2.1,2.2l1.3,0.6c2.1,1,3,2,3,3.5c0,2.2-1.6,3.7-4.2,3.7C97.9,365.7,96.4,365.3,95.2,364.3z"/>
				<path class="st3" d="M113.9,363.8v1.6H106v-12.6h7.8v1.6h-6v3.6h5.7v1.5h-5.7v4.3H113.9z"/>
				<path class="st3" d="M120.6,359.4c0-3.8,1.8-6.3,4.6-6.3c2.8,0,4.6,2.4,4.6,6.3c0,3.9-1.8,6.2-4.6,6.2
					C122.4,365.6,120.6,363.2,120.6,359.4z M128,359.4c0-2.8-1-4.7-2.8-4.7c-1.8,0-2.8,1.9-2.8,4.7c0,2.9,1,4.7,2.8,4.7
					C127,364,128,362.2,128,359.4z"/>
				<path class="st3" d="M131.7,359.4c0-3.8,1.8-6.3,4.6-6.3c2.8,0,4.6,2.4,4.6,6.3c0,3.9-1.8,6.2-4.6,6.2
					C133.5,365.6,131.7,363.2,131.7,359.4z M139.2,359.4c0-2.8-1-4.7-2.8-4.7c-1.8,0-2.8,1.9-2.8,4.7c0,2.9,1,4.7,2.8,4.7
					C138.1,364,139.2,362.2,139.2,359.4z"/>
				<path class="st3" d="M147.2,353.4v12h-1.7v-10l-3.2,2.2v-1.7l3.5-2.5H147.2z"/>
				<path class="st3" d="M149.9,358.1c0-0.7,0.5-1.1,1.1-1.1s1,0.5,1.1,1.1c0,0.6-0.4,1.1-1.1,1.1
					C150.3,359.2,149.9,358.7,149.9,358.1z M149.9,364.4c0-0.7,0.5-1.1,1.1-1.1s1,0.5,1.1,1.1c0,0.6-0.4,1.1-1.1,1.1
					C150.3,365.6,149.9,365.1,149.9,364.4z"/>
				<path class="st3" d="M74.2,377.2h1.6v8.1c0,3.2-1.6,4.2-3.7,4.2c-0.6,0-1.3-0.1-1.7-0.3l0.2-1.3c0.3,0.1,0.8,0.2,1.3,0.2
					c1.4,0,2.2-0.6,2.2-3V377.2z"/>
				<path class="st3" d="M86.2,384.9c0,3.2-2.2,4.6-4.3,4.6c-2.4,0-4.2-1.7-4.2-4.5c0-2.9,1.9-4.6,4.3-4.6
					C84.5,380.4,86.2,382.3,86.2,384.9z M79.3,385c0,1.9,1.1,3.3,2.6,3.3c1.5,0,2.6-1.4,2.6-3.4c0-1.5-0.7-3.3-2.6-3.3
					C80.1,381.6,79.3,383.4,79.3,385z"/>
				<path class="st3" d="M88.2,383c0-0.9,0-1.6-0.1-2.4h1.4l0.1,1.4h0c0.4-0.8,1.4-1.6,2.9-1.6c1.2,0,3.1,0.7,3.1,3.7v5.2h-1.6v-5
					c0-1.4-0.5-2.6-2-2.6c-1,0-1.9,0.7-2.1,1.6c-0.1,0.2-0.1,0.5-0.1,0.7v5.2h-1.6V383z"/>
				<path class="st3" d="M99.1,385.3c0,2.1,1.4,3,3,3c1.1,0,1.8-0.2,2.4-0.5l0.3,1.1c-0.6,0.3-1.5,0.5-2.9,0.5
					c-2.7,0-4.3-1.8-4.3-4.4s1.5-4.7,4.1-4.7c2.8,0,3.6,2.5,3.6,4.1c0,0.3,0,0.6-0.1,0.7H99.1z M103.7,384.2c0-1-0.4-2.6-2.2-2.6
					c-1.6,0-2.3,1.5-2.4,2.6H103.7z"/>
				<path class="st3" d="M107,387.7c0.5,0.3,1.3,0.6,2.1,0.6c1.2,0,1.7-0.6,1.7-1.3c0-0.8-0.5-1.2-1.6-1.6c-1.6-0.6-2.3-1.4-2.3-2.5
					c0-1.4,1.1-2.6,3-2.6c0.9,0,1.7,0.3,2.1,0.5l-0.4,1.2c-0.3-0.2-1-0.5-1.8-0.5c-0.9,0-1.5,0.5-1.5,1.2c0,0.7,0.5,1,1.7,1.5
					c1.5,0.6,2.3,1.3,2.3,2.6c0,1.5-1.2,2.6-3.3,2.6c-1,0-1.8-0.2-2.4-0.6L107,387.7z"/>
				<path class="st3" d="M118.8,380.6l1.7,4.9c0.3,0.8,0.5,1.5,0.7,2.2h0.1c0.2-0.7,0.5-1.4,0.7-2.2l1.7-4.9h1.7l-3.4,8.7h-1.5
					l-3.3-8.7H118.8z"/>
				<path class="st3" d="M126.5,387.7c0.5,0.3,1.3,0.6,2.1,0.6c1.2,0,1.7-0.6,1.7-1.3c0-0.8-0.5-1.2-1.6-1.6
					c-1.6-0.6-2.3-1.4-2.3-2.5c0-1.4,1.1-2.6,3-2.6c0.9,0,1.7,0.3,2.1,0.5l-0.4,1.2c-0.3-0.2-1-0.5-1.8-0.5c-0.9,0-1.5,0.5-1.5,1.2
					c0,0.7,0.5,1,1.7,1.5c1.5,0.6,2.3,1.3,2.3,2.6c0,1.5-1.2,2.6-3.3,2.6c-1,0-1.8-0.2-2.4-0.6L126.5,387.7z"/>
				<path class="st3" d="M137.5,387.4c0.7,0.4,1.7,0.8,2.8,0.8c1.6,0,2.5-0.8,2.5-2.1c0-1.1-0.6-1.8-2.3-2.4c-2-0.7-3.2-1.7-3.2-3.4
					c0-1.9,1.6-3.3,3.9-3.3c1.2,0,2.1,0.3,2.7,0.6l-0.4,1.3c-0.4-0.2-1.2-0.6-2.3-0.6c-1.7,0-2.3,1-2.3,1.8c0,1.1,0.7,1.7,2.4,2.3
					c2.1,0.8,3.1,1.8,3.1,3.6c0,1.9-1.4,3.5-4.2,3.5c-1.2,0-2.4-0.3-3.1-0.8L137.5,387.4z"/>
				<path class="st3" d="M146.5,383c0-0.9,0-1.6-0.1-2.4h1.4l0.1,1.4h0.1c0.5-0.8,1.3-1.6,2.7-1.6c1.2,0,2.1,0.7,2.5,1.7h0
					c0.3-0.5,0.6-0.9,1-1.1c0.5-0.4,1.1-0.6,1.9-0.6c1.2,0,2.9,0.8,2.9,3.8v5.1h-1.5v-4.9c0-1.7-0.6-2.7-1.9-2.7
					c-0.9,0-1.6,0.7-1.9,1.4c-0.1,0.2-0.1,0.5-0.1,0.8v5.4H152v-5.2c0-1.4-0.6-2.4-1.8-2.4c-1,0-1.7,0.8-2,1.6
					c-0.1,0.2-0.1,0.5-0.1,0.8v5.3h-1.5V383z"/>
				<path class="st3" d="M163.3,378.2c0,0.5-0.4,1-1,1c-0.6,0-1-0.4-1-1c0-0.6,0.4-1,1-1C162.9,377.2,163.3,377.6,163.3,378.2z
					 M161.6,389.4v-8.7h1.6v8.7H161.6z"/>
				<path class="st3" d="M167.7,378.1v2.5h2.3v1.2h-2.3v4.7c0,1.1,0.3,1.7,1.2,1.7c0.4,0,0.7-0.1,0.9-0.1l0.1,1.2
					c-0.3,0.1-0.8,0.2-1.4,0.2c-0.7,0-1.3-0.2-1.7-0.7c-0.5-0.5-0.6-1.2-0.6-2.3v-4.8h-1.4v-1.2h1.4v-2.1L167.7,378.1z"/>
				<path class="st3" d="M171.7,376.6h1.6v5.4h0c0.3-0.4,0.6-0.8,1.1-1.1c0.5-0.3,1-0.4,1.6-0.4c1.2,0,3,0.7,3,3.7v5.2h-1.6v-5
					c0-1.4-0.5-2.6-2-2.6c-1,0-1.8,0.7-2.1,1.6c-0.1,0.2-0.1,0.5-0.1,0.8v5.3h-1.6V376.6z"/>
			</g>
		</g>
	</g>
	<g>
		<g>
			<g>
				<path class="st3" d="M71.3,312.3c0-3.9,3-6.7,7.2-6.7c1.9,0,3.5,0.5,4.6,1.4v1.9c-1.2-0.9-2.6-1.6-4.5-1.6
					c-3.3,0-5.4,2.1-5.4,4.9c0,2.8,2.1,4.9,5.4,4.9c1.8,0,3.4-0.6,4.6-1.7v1.8c-1.3,1.1-2.9,1.6-4.8,1.6
					C74,318.9,71.3,316,71.3,312.3z"/>
				<path class="st3" d="M93.5,315.1h-5.9l-1.3,3.4h-1.9l5-12.5h2.4l4.9,12.5h-1.9L93.5,315.1z M93,313.6l-2.4-6.1l-2.4,6.1H93z"/>
				<path class="st3" d="M98.1,317.3v-1.9c1.4,1.1,3,1.7,4.9,1.7c2,0,3.1-0.7,3.1-2.1c0-0.9-0.5-1.4-2.2-1.9l-2.7-0.7
					c-2.2-0.6-3-1.8-3-3.2c0-2.1,1.8-3.6,4.9-3.6c2,0,3.4,0.6,4.4,1.3v1.8c-1.2-1-2.6-1.5-4.4-1.5c-1.9,0-3.1,0.7-3.1,1.8
					c0,0.8,0.5,1.3,1.9,1.7l2.8,0.7c2.4,0.7,3.3,1.8,3.3,3.4c0,2.3-1.9,3.8-4.9,3.8C101.2,318.8,99.4,318.2,98.1,317.3z"/>
				<path class="st3" d="M119.9,316.9v1.6h-9.3V306h9.2v1.6h-7.4v3.5h6.9v1.6h-6.9v4.2H119.9z"/>
				<path class="st3" d="M139,306v12.5h-2.4l-7.2-10.9v10.9h-1.7V306h2.6l7,10.6V306H139z"/>
				<path class="st3" d="M150.4,315.1h-5.9l-1.3,3.4h-1.9l5-12.5h2.4l4.9,12.5h-1.9L150.4,315.1z M149.9,313.6l-2.4-6.1l-2.4,6.1
					H149.9z"/>
				<path class="st3" d="M169.1,318.5l-0.9-11l-4.1,11h-2l-4.1-11.1l-0.9,11.1h-1.7l1-12.5h2.8l3.8,10.4l3.9-10.4h2.7l1.2,12.5
					H169.1z"/>
				<path class="st3" d="M183.4,316.9v1.6h-9.3V306h9.2v1.6H176v3.5h6.9v1.6H176v4.2H183.4z"/>
			</g>
		</g>
	</g>
	<g>
		<g>
			<path class="st4" d="M227.8,366.5l-0.6-9.3l-3,9.3h-1.7l-2.9-9.3l-0.5,9.3h-1.4l0.6-10.5h2.3l2.8,8.9l2.9-8.9h2.2l0.8,10.5H227.8
				z"/>
			<path class="st4" d="M238.4,365.2v1.3h-6.5V356h6.5v1.3h-5v3h4.7v1.3h-4.7v3.6H238.4z"/>
			<path class="st4" d="M246.3,366.5l-4.1-5v5h-1.5V356h4.1c1.9,0,3.2,1.3,3.2,3c0,1.8-1.3,3-3.4,3h-0.3l3.9,4.5H246.3z
				 M242.2,360.9h2.1c1.4,0,2.2-0.7,2.2-1.8c0-1.1-0.7-1.7-1.9-1.7h-2.3V360.9z"/>
			<path class="st4" d="M250.1,356h1.5v10.5h-1.5V356z"/>
			<path class="st4" d="M261,357.3h-3.2v9.2h-1.5v-9.2h-3.1V356h7.7V357.3z"/>
			<path class="st4" d="M273.7,356l-3.8,10.5h-1.7l-3.8-10.5h1.6l3,8.9l3-8.9H273.7z"/>
			<path class="st4" d="M280.5,363.7h-4.2l-0.9,2.8h-1.5l3.6-10.5h2l3.6,10.5h-1.5L280.5,363.7z M280.1,362.5l-1.7-5.2l-1.7,5.2
				H280.1z"/>
			<path class="st4" d="M291.1,365.1v1.4h-6.2V356h1.5v9.1H291.1z"/>
			<path class="st4" d="M292.7,356h1.5v10.5h-1.5V356z"/>
			<path class="st4" d="M297.1,356h3.6c3.3,0,5.1,2.1,5.1,5.2c0,3.1-1.9,5.2-5.4,5.2h-3.3V356z M300.4,365.2c2.6,0,3.8-1.5,3.8-3.9
				s-1.1-3.9-3.7-3.9h-2v7.8H300.4z"/>
			<path class="st4" d="M313.3,363.7h-4.2l-0.9,2.8h-1.5l3.6-10.5h2l3.6,10.5h-1.5L313.3,363.7z M312.9,362.5l-1.7-5.2l-1.7,5.2
				H312.9z"/>
			<path class="st4" d="M323.4,357.3h-3.2v9.2h-1.5v-9.2h-3.1V356h7.7V357.3z"/>
			<path class="st4" d="M331.7,365.2v1.3h-6.5V356h6.5v1.3h-5v3h4.7v1.3h-4.7v3.6H331.7z"/>
			<path class="st4" d="M334,356h3.6c3.3,0,5.1,2.1,5.1,5.2c0,3.1-1.9,5.2-5.4,5.2H334V356z M337.2,365.2c2.6,0,3.8-1.5,3.8-3.9
				s-1.1-3.9-3.7-3.9h-2v7.8H337.2z"/>
		</g>
	</g>
	<g>
		<g>
			<path class="st4" d="M227.8,456.5l-0.6-9.3l-3,9.3h-1.7l-2.9-9.3l-0.5,9.3h-1.4l0.6-10.5h2.3l2.8,8.9l2.9-8.9h2.2l0.8,10.5H227.8
				z"/>
			<path class="st4" d="M238.4,455.2v1.3h-6.5V446h6.5v1.3h-5v3h4.7v1.3h-4.7v3.6H238.4z"/>
			<path class="st4" d="M246.3,456.5l-4.1-5v5h-1.5V446h4.1c1.9,0,3.2,1.3,3.2,3c0,1.8-1.3,3-3.4,3h-0.3l3.9,4.5H246.3z
				 M242.2,450.9h2.1c1.4,0,2.2-0.7,2.2-1.8c0-1.1-0.7-1.7-1.9-1.7h-2.3V450.9z"/>
			<path class="st4" d="M250.1,446h1.5v10.5h-1.5V446z"/>
			<path class="st4" d="M261,447.3h-3.2v9.2h-1.5v-9.2h-3.1V446h7.7V447.3z"/>
			<path class="st4" d="M273.7,446l-3.8,10.5h-1.7l-3.8-10.5h1.6l3,8.9l3-8.9H273.7z"/>
			<path class="st4" d="M280.5,453.7h-4.2l-0.9,2.8h-1.5l3.6-10.5h2l3.6,10.5h-1.5L280.5,453.7z M280.1,452.5l-1.7-5.2l-1.7,5.2
				H280.1z"/>
			<path class="st4" d="M291.1,455.1v1.4h-6.2V446h1.5v9.1H291.1z"/>
			<path class="st4" d="M292.7,446h1.5v10.5h-1.5V446z"/>
			<path class="st4" d="M297.1,446h3.6c3.3,0,5.1,2.1,5.1,5.2c0,3.1-1.9,5.2-5.4,5.2h-3.3V446z M300.4,455.2c2.6,0,3.8-1.5,3.8-3.9
				s-1.1-3.9-3.7-3.9h-2v7.8H300.4z"/>
			<path class="st4" d="M313.3,453.7h-4.2l-0.9,2.8h-1.5l3.6-10.5h2l3.6,10.5h-1.5L313.3,453.7z M312.9,452.5l-1.7-5.2l-1.7,5.2
				H312.9z"/>
			<path class="st4" d="M323.4,447.3h-3.2v9.2h-1.5v-9.2h-3.1V446h7.7V447.3z"/>
			<path class="st4" d="M331.7,455.2v1.3h-6.5V446h6.5v1.3h-5v3h4.7v1.3h-4.7v3.6H331.7z"/>
			<path class="st4" d="M334,446h3.6c3.3,0,5.1,2.1,5.1,5.2c0,3.1-1.9,5.2-5.4,5.2H334V446z M337.2,455.2c2.6,0,3.8-1.5,3.8-3.9
				s-1.1-3.9-3.7-3.9h-2v7.8H337.2z"/>
		</g>
	</g>
	<g>
		<g>
			<path class="st5" d="M238.5,536v10.5h-2l-5.2-9.1v9.1H230V536h2.2l5,8.8V536H238.5z"/>
			<path class="st5" d="M240.7,541.2c0-3.2,2.2-5.5,5.2-5.5s5.2,2.4,5.2,5.5s-2.2,5.5-5.2,5.5S240.7,544.4,240.7,541.2z
				 M249.7,541.2c0-2.4-1.4-4.2-3.7-4.2s-3.7,1.8-3.7,4.2s1.4,4.2,3.7,4.2S249.7,543.6,249.7,541.2z"/>
			<path class="st5" d="M259.5,537.3h-3.2v9.2h-1.5v-9.2h-3.1V536h7.7V537.3z"/>
			<path class="st5" d="M272.3,536l-3.8,10.5h-1.7l-3.8-10.5h1.6l3,8.9l3-8.9H272.3z"/>
			<path class="st5" d="M279,543.7h-4.2l-0.9,2.8h-1.5l3.6-10.5h2l3.6,10.5h-1.5L279,543.7z M278.6,542.5l-1.7-5.2l-1.7,5.2H278.6z"
				/>
			<path class="st5" d="M289.6,545.1v1.4h-6.2V536h1.5v9.1H289.6z"/>
			<path class="st5" d="M291.3,536h1.5v10.5h-1.5V536z"/>
			<path class="st5" d="M295.7,536h3.6c3.3,0,5.1,2.1,5.1,5.2c0,3.1-1.9,5.2-5.4,5.2h-3.3V536z M298.9,545.2c2.6,0,3.8-1.5,3.8-3.9
				s-1.1-3.9-3.7-3.9h-2v7.8H298.9z"/>
			<path class="st5" d="M311.8,543.7h-4.2l-0.9,2.8h-1.5l3.6-10.5h2l3.6,10.5h-1.5L311.8,543.7z M311.4,542.5l-1.7-5.2l-1.7,5.2
				H311.4z"/>
			<path class="st5" d="M321.9,537.3h-3.2v9.2h-1.5v-9.2h-3.1V536h7.7V537.3z"/>
			<path class="st5" d="M330.2,545.2v1.3h-6.5V536h6.5v1.3h-5v3h4.7v1.3h-4.7v3.6H330.2z"/>
			<path class="st5" d="M332.5,536h3.6c3.3,0,5.1,2.1,5.1,5.2c0,3.1-1.9,5.2-5.4,5.2h-3.3V536z M335.8,545.2c2.6,0,3.8-1.5,3.8-3.9
				s-1.1-3.9-3.7-3.9h-2v7.8H335.8z"/>
		</g>
	</g>
	<g>
		<g>
			<g>
				<path class="st3" d="M71.3,539.2c0-3.9,2.7-6.7,6.6-6.7c1.7,0,3,0.5,3.8,1.1v1.9c-0.8-0.7-2-1.4-3.8-1.4c-3,0-4.8,2.1-4.8,5
					c0,2.8,1.9,5,4.9,5c1.6,0,2.9-0.6,3.8-1.3v1.8c-1,0.8-2.4,1.2-3.9,1.2C73.7,545.8,71.3,542.9,71.3,539.2z"/>
				<path class="st3" d="M90.9,542.1h-5l-1.1,3.3H83l4.3-12.6h2.4l4.3,12.6h-1.9L90.9,542.1z M90.5,540.7l-2.1-6.2l-2,6.2H90.5z"/>
				<path class="st3" d="M95.2,544.4v-1.8c1.1,1,2.4,1.6,3.9,1.6c1.6,0,2.4-0.7,2.4-1.9c0-1-0.5-1.5-2.3-2.3l-1.2-0.5
					c-1.9-0.8-2.8-1.9-2.8-3.5c0-2.1,1.5-3.5,4.1-3.5c1.7,0,2.9,0.6,3.5,1.2v1.9c-1-0.9-2-1.5-3.5-1.5c-1.5,0-2.3,0.6-2.3,1.7
					c0,1,0.7,1.5,2.1,2.2l1.3,0.6c2.1,1,3,2,3,3.5c0,2.2-1.6,3.7-4.2,3.7C97.9,545.8,96.4,545.4,95.2,544.4z"/>
				<path class="st3" d="M113.9,543.9v1.6H106v-12.6h7.8v1.6h-6v3.6h5.7v1.5h-5.7v4.3H113.9z"/>
				<path class="st3" d="M120.6,539.5c0-3.8,1.8-6.3,4.6-6.3c2.8,0,4.6,2.4,4.6,6.3c0,3.9-1.8,6.2-4.6,6.2
					C122.4,545.8,120.6,543.4,120.6,539.5z M128,539.5c0-2.8-1-4.7-2.8-4.7c-1.8,0-2.8,1.9-2.8,4.7c0,2.9,1,4.7,2.8,4.7
					C127,544.2,128,542.4,128,539.5z"/>
				<path class="st3" d="M131.7,539.5c0-3.8,1.8-6.3,4.6-6.3c2.8,0,4.6,2.4,4.6,6.3c0,3.9-1.8,6.2-4.6,6.2
					C133.5,545.8,131.7,543.4,131.7,539.5z M139.2,539.5c0-2.8-1-4.7-2.8-4.7c-1.8,0-2.8,1.9-2.8,4.7c0,2.9,1,4.7,2.8,4.7
					C138.1,544.2,139.2,542.4,139.2,539.5z"/>
				<path class="st3" d="M150.5,542c0,2.1-1.7,3.7-4.3,3.7c-1.3,0-2.3-0.3-3.3-0.9v-1.7c0.6,0.6,1.5,1.1,3.1,1.1
					c1.7,0,2.8-0.9,2.8-2.2c0-1-0.6-2-2.6-2h-2.4l0.2-1.4h2.1c1.7,0,2.3-0.9,2.3-2c0-1.1-0.8-1.8-2.5-1.8c-1.5,0-2.5,0.6-2.9,1.1
					v-1.7c1-0.6,2-1,3.2-1c2.4,0,3.9,1.3,3.9,3.1c0,1.3-0.7,2.4-2,2.7C149.6,539.4,150.5,540.6,150.5,542z"/>
				<path class="st3" d="M152.4,538.2c0-0.7,0.5-1.1,1.1-1.1s1,0.5,1.1,1.1c0,0.6-0.4,1.1-1.1,1.1
					C152.8,539.3,152.4,538.8,152.4,538.2z M152.4,544.6c0-0.7,0.5-1.1,1.1-1.1s1,0.5,1.1,1.1c0,0.6-0.4,1.1-1.1,1.1
					C152.8,545.7,152.4,545.2,152.4,544.6z"/>
				<path class="st3" d="M81,568.9c-0.7,0.3-2.1,0.7-3.7,0.7c-1.8,0-3.3-0.5-4.5-1.6c-1-1-1.7-2.6-1.7-4.5c0-3.6,2.5-6.3,6.6-6.3
					c1.4,0,2.5,0.3,3,0.6l-0.4,1.3c-0.6-0.3-1.5-0.5-2.7-0.5c-3,0-4.9,1.8-4.9,4.9c0,3.1,1.9,4.9,4.7,4.9c1,0,1.7-0.1,2.1-0.3v-3.6
					H77v-1.3h4V568.9z"/>
				<path class="st3" d="M91.3,565.1c0,3.2-2.2,4.6-4.3,4.6c-2.4,0-4.2-1.7-4.2-4.5c0-2.9,1.9-4.6,4.3-4.6
					C89.6,560.6,91.3,562.4,91.3,565.1z M84.4,565.1c0,1.9,1.1,3.3,2.6,3.3c1.5,0,2.6-1.4,2.6-3.4c0-1.5-0.7-3.3-2.6-3.3
					C85.2,561.8,84.4,563.5,84.4,565.1z"/>
				<path class="st3" d="M101.2,565.1c0,3.2-2.2,4.6-4.3,4.6c-2.4,0-4.2-1.7-4.2-4.5c0-2.9,1.9-4.6,4.3-4.6
					C99.5,560.6,101.2,562.4,101.2,565.1z M94.3,565.1c0,1.9,1.1,3.3,2.6,3.3c1.5,0,2.6-1.4,2.6-3.4c0-1.5-0.7-3.3-2.6-3.3
					C95.1,561.8,94.3,563.5,94.3,565.1z"/>
				<path class="st3" d="M110.7,556.7v10.5c0,0.8,0,1.7,0.1,2.3h-1.4l-0.1-1.5h0c-0.5,1-1.5,1.7-3,1.7c-2.1,0-3.7-1.8-3.7-4.4
					c0-2.9,1.8-4.7,3.9-4.7c1.3,0,2.2,0.6,2.6,1.3h0v-5.2H110.7z M109.1,564.3c0-0.2,0-0.5-0.1-0.7c-0.2-1-1.1-1.8-2.3-1.8
					c-1.6,0-2.6,1.4-2.6,3.4c0,1.8,0.9,3.2,2.6,3.2c1.1,0,2-0.7,2.3-1.9c0.1-0.2,0.1-0.4,0.1-0.7V564.3z"/>
				<path class="st3" d="M113.3,563.1c0-0.9,0-1.6-0.1-2.4h1.4l0.1,1.4h0.1c0.5-0.8,1.3-1.6,2.7-1.6c1.2,0,2.1,0.7,2.5,1.7h0
					c0.3-0.5,0.6-0.9,1-1.1c0.5-0.4,1.1-0.6,1.9-0.6c1.2,0,2.9,0.8,2.9,3.8v5.1h-1.5v-4.9c0-1.7-0.6-2.7-1.9-2.7
					c-0.9,0-1.6,0.7-1.9,1.4c-0.1,0.2-0.1,0.5-0.1,0.8v5.4h-1.5v-5.2c0-1.4-0.6-2.4-1.8-2.4c-1,0-1.7,0.8-2,1.6
					c-0.1,0.2-0.1,0.5-0.1,0.8v5.3h-1.5V563.1z"/>
				<path class="st3" d="M133.2,569.5l-0.1-1.1H133c-0.5,0.7-1.4,1.3-2.7,1.3c-1.8,0-2.7-1.2-2.7-2.5c0-2.1,1.9-3.3,5.2-3.2v-0.2
					c0-0.7-0.2-2-2-2c-0.8,0-1.7,0.3-2.3,0.6l-0.4-1c0.7-0.5,1.8-0.8,2.9-0.8c2.7,0,3.3,1.8,3.3,3.6v3.3c0,0.8,0,1.5,0.1,2.1H133.2z
					 M132.9,565c-1.7,0-3.7,0.3-3.7,2c0,1,0.7,1.5,1.5,1.5c1.1,0,1.9-0.7,2.1-1.5c0.1-0.2,0.1-0.3,0.1-0.5V565z"/>
				<path class="st3" d="M137,563.1c0-0.9,0-1.6-0.1-2.4h1.4l0.1,1.4h0c0.4-0.8,1.4-1.6,2.9-1.6c1.2,0,3.1,0.7,3.1,3.7v5.2h-1.6v-5
					c0-1.4-0.5-2.6-2-2.6c-1,0-1.9,0.7-2.1,1.6c-0.1,0.2-0.1,0.5-0.1,0.7v5.2H137V563.1z"/>
				<path class="st3" d="M151.4,560.8l1.7,4.9c0.3,0.8,0.5,1.5,0.7,2.2h0.1c0.2-0.7,0.5-1.4,0.7-2.2l1.7-4.9h1.7l-3.4,8.7H153
					l-3.3-8.7H151.4z"/>
				<path class="st3" d="M159.1,567.9c0.5,0.3,1.3,0.6,2.1,0.6c1.2,0,1.7-0.6,1.7-1.3c0-0.8-0.5-1.2-1.6-1.6
					c-1.6-0.6-2.3-1.4-2.3-2.5c0-1.4,1.1-2.6,3-2.6c0.9,0,1.7,0.3,2.1,0.5l-0.4,1.2c-0.3-0.2-1-0.5-1.8-0.5c-0.9,0-1.5,0.5-1.5,1.2
					c0,0.7,0.5,1,1.7,1.5c1.5,0.6,2.3,1.3,2.3,2.6c0,1.5-1.2,2.6-3.3,2.6c-1,0-1.8-0.2-2.4-0.6L159.1,567.9z"/>
				<path class="st3" d="M170.4,557.5c0.8-0.2,1.9-0.3,3-0.3c1.7,0,2.8,0.3,3.5,1c0.6,0.5,1,1.4,1,2.3c0,1.6-1,2.7-2.3,3.1v0.1
					c0.9,0.3,1.5,1.2,1.8,2.4c0.4,1.7,0.7,2.9,0.9,3.3h-1.6c-0.2-0.3-0.5-1.4-0.8-2.9c-0.4-1.7-1-2.3-2.4-2.4h-1.5v5.3h-1.6V557.5z
					 M171.9,563h1.6c1.7,0,2.7-0.9,2.7-2.3c0-1.6-1.1-2.2-2.8-2.3c-0.8,0-1.3,0.1-1.5,0.1V563z"/>
				<path class="st3" d="M185,569.5l-0.1-1.1h-0.1c-0.5,0.7-1.4,1.3-2.7,1.3c-1.8,0-2.7-1.2-2.7-2.5c0-2.1,1.9-3.3,5.2-3.2v-0.2
					c0-0.7-0.2-2-2-2c-0.8,0-1.7,0.3-2.3,0.6l-0.4-1c0.7-0.5,1.8-0.8,2.9-0.8c2.7,0,3.3,1.8,3.3,3.6v3.3c0,0.8,0,1.5,0.1,2.1H185z
					 M184.8,565c-1.7,0-3.7,0.3-3.7,2c0,1,0.7,1.5,1.5,1.5c1.1,0,1.9-0.7,2.1-1.5c0.1-0.2,0.1-0.3,0.1-0.5V565z"/>
				<path class="st3" d="M196.4,556.7v10.5c0,0.8,0,1.7,0.1,2.3h-1.4L195,568h0c-0.5,1-1.5,1.7-3,1.7c-2.1,0-3.7-1.8-3.7-4.4
					c0-2.9,1.8-4.7,3.9-4.7c1.3,0,2.2,0.6,2.6,1.3h0v-5.2H196.4z M194.8,564.3c0-0.2,0-0.5-0.1-0.7c-0.2-1-1.1-1.8-2.3-1.8
					c-1.6,0-2.6,1.4-2.6,3.4c0,1.8,0.9,3.2,2.6,3.2c1.1,0,2-0.7,2.3-1.9c0.1-0.2,0.1-0.4,0.1-0.7V564.3z"/>
				<path class="st3" d="M200.8,558.3c0,0.5-0.4,1-1,1c-0.6,0-1-0.4-1-1c0-0.6,0.4-1,1-1C200.4,557.3,200.8,557.8,200.8,558.3z
					 M199,569.5v-8.7h1.6v8.7H199z"/>
				<path class="st3" d="M208.1,569.5l-0.1-1.1h-0.1c-0.5,0.7-1.4,1.3-2.7,1.3c-1.8,0-2.7-1.2-2.7-2.5c0-2.1,1.9-3.3,5.2-3.2v-0.2
					c0-0.7-0.2-2-2-2c-0.8,0-1.7,0.3-2.3,0.6l-0.4-1c0.7-0.5,1.8-0.8,2.9-0.8c2.7,0,3.3,1.8,3.3,3.6v3.3c0,0.8,0,1.5,0.1,2.1H208.1z
					 M207.8,565c-1.7,0-3.7,0.3-3.7,2c0,1,0.7,1.5,1.5,1.5c1.1,0,1.9-0.7,2.1-1.5c0.1-0.2,0.1-0.3,0.1-0.5V565z"/>
				<path class="st3" d="M211.9,556.7h1.6v12.8h-1.6V556.7z"/>
				<path class="st3" d="M228.5,569.1c-0.6,0.3-1.7,0.6-3.2,0.6c-3.4,0-6-2.2-6-6.1c0-3.8,2.6-6.4,6.3-6.4c1.5,0,2.5,0.3,2.9,0.5
					l-0.4,1.3c-0.6-0.3-1.4-0.5-2.4-0.5c-2.8,0-4.7,1.8-4.7,5c0,3,1.7,4.9,4.7,4.9c1,0,1.9-0.2,2.6-0.5L228.5,569.1z"/>
				<path class="st3" d="M238.1,565.1c0,3.2-2.2,4.6-4.3,4.6c-2.4,0-4.2-1.7-4.2-4.5c0-2.9,1.9-4.6,4.3-4.6
					C236.4,560.6,238.1,562.4,238.1,565.1z M231.2,565.1c0,1.9,1.1,3.3,2.6,3.3c1.5,0,2.6-1.4,2.6-3.4c0-1.5-0.7-3.3-2.6-3.3
					S231.2,563.5,231.2,565.1z"/>
				<path class="st3" d="M239.3,568.5c0-0.7,0.4-1.1,1.1-1.1c0.6,0,1.1,0.5,1.1,1.1c0,0.6-0.4,1.1-1.1,1.1
					C239.7,569.7,239.3,569.2,239.3,568.5z"/>
			</g>
		</g>
	</g>
	<g>
		<g>
			<g>
				<path class="st3" d="M73.3,449.1c0-3.9,2.7-6.7,6.6-6.7c1.7,0,3,0.5,3.8,1.1v1.9c-0.8-0.7-2-1.4-3.8-1.4c-3,0-4.8,2.1-4.8,5
					c0,2.8,1.9,5,4.9,5c1.6,0,2.9-0.6,3.8-1.3v1.8c-1,0.8-2.4,1.2-3.9,1.2C75.8,455.7,73.3,452.8,73.3,449.1z"/>
				<path class="st3" d="M93,452h-5l-1.1,3.3h-1.8l4.3-12.6h2.4l4.3,12.6h-1.9L93,452z M92.6,450.6l-2.1-6.2l-2,6.2H92.6z"/>
				<path class="st3" d="M97.3,454.3v-1.8c1.1,1,2.4,1.6,3.9,1.6c1.6,0,2.4-0.7,2.4-1.9c0-1-0.5-1.5-2.3-2.2l-1.2-0.5
					c-1.9-0.8-2.8-1.9-2.8-3.5c0-2.1,1.5-3.5,4.1-3.5c1.7,0,2.9,0.6,3.5,1.2v1.9c-1-0.9-2-1.5-3.5-1.5c-1.5,0-2.3,0.6-2.3,1.7
					c0,1,0.7,1.5,2.1,2.2l1.3,0.6c2.1,1,3,2,3,3.5c0,2.2-1.6,3.7-4.2,3.7C100,455.7,98.5,455.3,97.3,454.3z"/>
				<path class="st3" d="M116,453.8v1.6h-7.9v-12.6h7.8v1.6h-6v3.6h5.7v1.5h-5.7v4.3H116z"/>
				<path class="st3" d="M122.7,449.4c0-3.8,1.8-6.3,4.6-6.3c2.8,0,4.6,2.4,4.6,6.3c0,3.9-1.8,6.2-4.6,6.2
					C124.4,455.6,122.7,453.2,122.7,449.4z M130.1,449.4c0-2.8-1-4.7-2.8-4.7c-1.8,0-2.8,1.9-2.8,4.7c0,2.9,1,4.7,2.8,4.7
					C129.1,454,130.1,452.2,130.1,449.4z"/>
				<path class="st3" d="M133.8,449.4c0-3.8,1.8-6.3,4.6-6.3c2.8,0,4.6,2.4,4.6,6.3c0,3.9-1.8,6.2-4.6,6.2
					C135.6,455.6,133.8,453.2,133.8,449.4z M141.2,449.4c0-2.8-1-4.7-2.8-4.7c-1.8,0-2.8,1.9-2.8,4.7c0,2.9,1,4.7,2.8,4.7
					C140.2,454,141.2,452.2,141.2,449.4z"/>
				<path class="st3" d="M152.4,453.8v1.6H145v-1.4l3.6-3.5c1.4-1.4,1.9-2.4,1.9-3.4c0-1.3-0.9-2.2-2.5-2.2c-1.4,0-2.4,0.6-3.1,1.4
					v-1.8c0.9-0.8,2-1.2,3.4-1.2c2.4,0,3.9,1.5,3.9,3.6c0,1.5-0.7,2.8-2.2,4.3l-2.9,2.7H152.4z"/>
				<path class="st3" d="M154.3,448.1c0-0.7,0.5-1.1,1.1-1.1s1,0.5,1.1,1.1c0,0.6-0.4,1.1-1.1,1.1
					C154.7,449.2,154.3,448.7,154.3,448.1z M154.3,454.4c0-0.7,0.5-1.1,1.1-1.1s1,0.5,1.1,1.1c0,0.6-0.4,1.1-1.1,1.1
					C154.7,455.6,154.3,455.1,154.3,454.4z"/>
				<path class="st3" d="M75.8,479.4l-3.1-12.1h1.7l1.4,6.1c0.4,1.5,0.7,3,0.9,4.2h0c0.2-1.2,0.6-2.6,1-4.2l1.6-6.1H81l1.5,6.2
					c0.3,1.4,0.7,2.9,0.8,4.2h0c0.3-1.3,0.6-2.7,1-4.2l1.6-6.1h1.6l-3.4,12.1h-1.6l-1.5-6.3c-0.4-1.5-0.6-2.7-0.8-4h0
					c-0.2,1.2-0.5,2.4-0.9,4l-1.7,6.3H75.8z"/>
				<path class="st3" d="M96.3,474.9c0,3.2-2.2,4.6-4.3,4.6c-2.4,0-4.2-1.7-4.2-4.5c0-2.9,1.9-4.6,4.3-4.6
					C94.6,470.4,96.3,472.3,96.3,474.9z M89.4,475c0,1.9,1.1,3.3,2.6,3.3c1.5,0,2.6-1.4,2.6-3.4c0-1.5-0.7-3.3-2.6-3.3
					C90.2,471.6,89.4,473.4,89.4,475z"/>
				<path class="st3" d="M98.3,466.6h1.6v12.8h-1.6V466.6z"/>
				<path class="st3" d="M102.7,479.4v-7.5h-1.2v-1.2h1.2v-0.4c0-1.2,0.3-2.3,1-3c0.6-0.6,1.4-0.8,2.1-0.8c0.6,0,1,0.1,1.4,0.3
					l-0.2,1.2c-0.2-0.1-0.6-0.2-1-0.2c-1.4,0-1.7,1.2-1.7,2.5v0.5h2.1v1.2h-2.1v7.5H102.7z"/>
				<path class="st3" d="M107.8,473.4c0-1,0-1.9-0.1-2.7h1.4l0.1,1.7h0.1c0.4-1.2,1.4-1.9,2.4-1.9c0.2,0,0.3,0,0.5,0.1v1.5
					c-0.2,0-0.3-0.1-0.5-0.1c-1.1,0-1.9,0.8-2.1,2c0,0.2-0.1,0.5-0.1,0.7v4.6h-1.6V473.4z"/>
				<path class="st3" d="M118.4,479.4l-0.1-1.1h-0.1c-0.5,0.7-1.4,1.3-2.7,1.3c-1.8,0-2.7-1.2-2.7-2.5c0-2.1,1.9-3.3,5.2-3.2v-0.2
					c0-0.7-0.2-2-2-2c-0.8,0-1.7,0.3-2.3,0.6l-0.4-1c0.7-0.5,1.8-0.8,2.9-0.8c2.7,0,3.3,1.8,3.3,3.6v3.3c0,0.8,0,1.5,0.1,2.1H118.4z
					 M118.2,474.9c-1.7,0-3.7,0.3-3.7,2c0,1,0.7,1.5,1.5,1.5c1.1,0,1.9-0.7,2.1-1.5c0.1-0.2,0.1-0.3,0.1-0.5V474.9z"/>
				<path class="st3" d="M122.3,473c0-0.9,0-1.6-0.1-2.4h1.4l0.1,1.4h0.1c0.5-0.8,1.3-1.6,2.7-1.6c1.2,0,2.1,0.7,2.5,1.7h0
					c0.3-0.5,0.6-0.9,1-1.1c0.5-0.4,1.1-0.6,1.9-0.6c1.2,0,2.9,0.8,2.9,3.8v5.1h-1.5v-4.9c0-1.7-0.6-2.7-1.9-2.7
					c-0.9,0-1.6,0.7-1.9,1.4c-0.1,0.2-0.1,0.5-0.1,0.8v5.4h-1.5v-5.2c0-1.4-0.6-2.4-1.8-2.4c-1,0-1.7,0.8-2,1.6
					c-0.1,0.2-0.1,0.5-0.1,0.8v5.3h-1.5V473z"/>
				<path class="st3" d="M141.7,470.6l1.7,4.9c0.3,0.8,0.5,1.5,0.7,2.2h0.1c0.2-0.7,0.5-1.4,0.7-2.2l1.7-4.9h1.7l-3.4,8.7h-1.5
					l-3.3-8.7H141.7z"/>
				<path class="st3" d="M149.4,477.7c0.5,0.3,1.3,0.6,2.1,0.6c1.2,0,1.7-0.6,1.7-1.3c0-0.8-0.5-1.2-1.6-1.6
					c-1.6-0.6-2.3-1.4-2.3-2.5c0-1.4,1.1-2.6,3-2.6c0.9,0,1.7,0.3,2.1,0.5l-0.4,1.2c-0.3-0.2-1-0.5-1.8-0.5c-0.9,0-1.5,0.5-1.5,1.2
					c0,0.7,0.5,1,1.7,1.5c1.5,0.6,2.3,1.3,2.3,2.6c0,1.5-1.2,2.6-3.3,2.6c-1,0-1.8-0.2-2.4-0.6L149.4,477.7z"/>
				<path class="st3" d="M162.2,467.2v5.1h5.9v-5.1h1.6v12.1h-1.6v-5.7h-5.9v5.7h-1.6v-12.1H162.2z"/>
				<path class="st3" d="M173.2,475.3c0,2.1,1.4,3,3,3c1.1,0,1.8-0.2,2.4-0.5l0.3,1.1c-0.6,0.3-1.5,0.5-2.9,0.5
					c-2.7,0-4.3-1.8-4.3-4.4s1.5-4.7,4.1-4.7c2.8,0,3.6,2.5,3.6,4.1c0,0.3,0,0.6-0.1,0.7H173.2z M177.9,474.2c0-1-0.4-2.6-2.2-2.6
					c-1.6,0-2.3,1.5-2.4,2.6H177.9z"/>
				<path class="st3" d="M186.2,479.4l-0.1-1.1H186c-0.5,0.7-1.4,1.3-2.7,1.3c-1.8,0-2.7-1.2-2.7-2.5c0-2.1,1.9-3.3,5.2-3.2v-0.2
					c0-0.7-0.2-2-2-2c-0.8,0-1.7,0.3-2.3,0.6l-0.4-1c0.7-0.5,1.8-0.8,2.9-0.8c2.7,0,3.3,1.8,3.3,3.6v3.3c0,0.8,0,1.5,0.1,2.1H186.2z
					 M185.9,474.9c-1.7,0-3.7,0.3-3.7,2c0,1,0.7,1.5,1.5,1.5c1.1,0,1.9-0.7,2.1-1.5c0.1-0.2,0.1-0.3,0.1-0.5V474.9z"/>
				<path class="st3" d="M190,473.4c0-1,0-1.9-0.1-2.7h1.4l0.1,1.7h0.1c0.4-1.2,1.4-1.9,2.4-1.9c0.2,0,0.3,0,0.4,0.1v1.5
					c-0.2,0-0.3-0.1-0.5-0.1c-1.1,0-1.9,0.8-2.1,2c0,0.2-0.1,0.5-0.1,0.7v4.6H190V473.4z"/>
				<path class="st3" d="M198.2,468.1v2.5h2.3v1.2h-2.3v4.7c0,1.1,0.3,1.7,1.2,1.7c0.4,0,0.7-0.1,0.9-0.1l0.1,1.2
					c-0.3,0.1-0.8,0.2-1.4,0.2c-0.7,0-1.3-0.2-1.7-0.7c-0.5-0.5-0.6-1.2-0.6-2.3v-4.8h-1.4v-1.2h1.4v-2.1L198.2,468.1z"/>
			</g>
		</g>
	</g>
	<rect x="331" y="558.5" class="st5" width="11.5" height="12"/>
	<rect x="330.5" y="468.5" class="st4" width="12" height="12"/>
	<rect x="330.5" y="378.5" class="st4" width="12" height="12"/>
</g>
<g>
</g>
<g>
</g>
<g>
</g>
<g>
</g>
<g>
</g>
<g>
</g>
</svg>
