<?xml version="1.0" encoding="utf-8"?>
<!-- Generator: Adobe Illustrator 21.1.0, SVG Export Plug-In . SVG Version: 6.00 Build 0)  -->
<svg version="1.1" id="Layer_1" xmlns="http://www.w3.org/2000/svg" xmlns:xlink="http://www.w3.org/1999/xlink" x="0px" y="0px"
	 viewBox="0 0 600.7 347.7" style="enable-background:new 0 0 600.7 347.7;" xml:space="preserve">
<style type="text/css">
	.st0{fill:#FFFFFF;}
	.st1{fill:#1E305E;}
	.st2{fill:none;stroke:#1E305E;stroke-miterlimit:10;}
	.st3{fill:none;stroke:#3D54A4;stroke-miterlimit:10;}
	.st4{fill:#FFFFFF;stroke:#3D54A4;stroke-miterlimit:10;}
	.st5{fill:#44B6E2;}
</style>
<rect x="36.1" y="35.4" class="st0" width="528" height="131.8"/>
<rect x="36.1" y="179.4" class="st0" width="528" height="131.8"/>
<g>
	<g>
		<path class="st1" d="M69.3,72.2h-3.8v11h-1.7v-11h-3.7v-1.6h9.2V72.2z"/>
		<path class="st1" d="M77.1,79h-6.5c0.1,1.9,1.4,3,3.3,3c1.1,0,2.2-0.4,2.9-1v1.6c-0.7,0.5-1.9,0.9-3.1,0.9c-2.9,0-4.8-1.9-4.8-4.8
			c0-2.7,1.6-4.7,4.4-4.7c2.3,0,3.9,1.4,3.9,3.9V79z M70.6,77.8h4.9c0-1.5-0.9-2.3-2.3-2.3C71.7,75.4,70.9,76.4,70.6,77.8z"/>
		<path class="st1" d="M78.7,78.7c0-2.7,1.9-4.7,4.7-4.7c1.3,0,2.2,0.3,2.8,0.7v1.8c-0.8-0.7-1.7-1-2.7-1c-1.9,0-3.1,1.3-3.1,3.2
			c0,1.9,1.1,3.3,3.3,3.3c1,0,2-0.4,2.6-0.9v1.6c-0.9,0.6-1.8,0.8-2.9,0.8C80.6,83.5,78.7,81.4,78.7,78.7z"/>
		<path class="st1" d="M96.2,77.6v5.6h-1.7v-5.3c0-1.8-0.6-2.5-2-2.5c-1.5,0-2.4,1.1-2.4,3v4.9h-1.7v-13h1.7v5.4
			c0.5-1.1,1.5-1.7,3-1.7C95,73.9,96.2,75.3,96.2,77.6z"/>
		<path class="st1" d="M106.6,77.6v5.6H105v-5.3c0-1.8-0.6-2.5-2-2.5c-1.5,0-2.4,1.1-2.4,3v4.9h-1.7v-9h1.7v1.5
			c0.5-1.2,1.6-1.8,3-1.8C105.4,73.9,106.6,75.3,106.6,77.6z"/>
		<path class="st1" d="M109.1,71.5c0-0.6,0.5-1,1.1-1s1.1,0.5,1.1,1c0,0.6-0.5,1.1-1.1,1.1S109.1,72.1,109.1,71.5z M109.3,74.2h1.7
			v9h-1.7V74.2z"/>
		<path class="st1" d="M113.2,78.7c0-2.7,1.9-4.7,4.7-4.7c1.3,0,2.2,0.3,2.8,0.7v1.8c-0.8-0.7-1.7-1-2.7-1c-1.9,0-3.1,1.3-3.1,3.2
			c0,1.9,1.1,3.3,3.3,3.3c1,0,2-0.4,2.6-0.9v1.6c-0.9,0.6-1.8,0.8-2.9,0.8C115.1,83.5,113.2,81.4,113.2,78.7z"/>
		<path class="st1" d="M129.7,77.7v5.5H128V82c-0.5,0.9-1.4,1.5-2.6,1.5c-1.8,0-3.1-1.3-3.1-3c0-1.7,1.3-2.9,3.3-2.9
			c1.2,0,2,0.5,2.4,1.1v-0.8c0-1.6-1-2.5-2.4-2.5c-1.1,0-2,0.4-2.8,1.2V75c0.8-0.6,1.7-1,3-1C128.2,73.9,129.7,75.4,129.7,77.7z
			 M128,80.4c0-0.9-0.8-1.6-2-1.6c-1.3,0-2,0.6-2,1.7c0,1,0.7,1.7,2,1.7C127.2,82.2,128,81.4,128,80.4z"/>
		<path class="st1" d="M132.4,70.3h1.7v13h-1.7V70.3z"/>
		<path class="st1" d="M149,72.2h-3.8v11h-1.7v-11h-3.7v-1.6h9.2V72.2z"/>
		<path class="st1" d="M156.8,79h-6.5c0.1,1.9,1.4,3,3.3,3c1.1,0,2.2-0.4,2.9-1v1.6c-0.7,0.5-1.9,0.9-3.1,0.9
			c-2.9,0-4.8-1.9-4.8-4.8c0-2.7,1.6-4.7,4.4-4.7c2.3,0,3.9,1.4,3.9,3.9V79z M150.3,77.8h4.9c0-1.5-0.9-2.3-2.3-2.3
			C151.4,75.4,150.6,76.4,150.3,77.8z"/>
		<path class="st1" d="M164,74.5v1.6c-0.4-0.3-0.9-0.4-1.4-0.4c-1.1,0-1.9,1-1.9,2.8v4.8H159v-9h1.7V76c0.4-1.3,1.2-1.9,2.2-1.9
			C163.3,74.1,163.7,74.2,164,74.5z"/>
		<path class="st1" d="M178,77.3v5.9h-1.7v-5.7c0-1.5-0.6-2.2-1.7-2.2s-1.9,0.8-1.9,2v5.8H171v-5.8c0-1.3-0.6-2-1.7-2
			c-1.1,0-1.9,1-1.9,2.3v5.5h-1.7v-9h1.7v1.5c0.5-1.2,1.4-1.8,2.5-1.8c1.2,0,2.1,0.6,2.5,1.7c0.5-1.1,1.4-1.7,2.6-1.7
			C176.9,73.9,178,75.2,178,77.3z"/>
		<path class="st1" d="M180.1,82.4v-1.6c0.9,0.8,2,1.2,3.1,1.2c1.2,0,1.9-0.5,1.9-1.3c0-0.5-0.3-1-1.1-1.2l-1.7-0.5
			c-1.5-0.5-2.1-1.3-2.1-2.4c0-1.5,1.3-2.5,3.3-2.5c1.2,0,2.1,0.4,2.9,0.8v1.6c-0.8-0.7-1.8-1-2.8-1c-1.1,0-1.7,0.4-1.7,1
			c0,0.5,0.4,1,1.1,1.2l1.6,0.5c1.6,0.5,2.3,1.4,2.3,2.6c0,1.7-1.4,2.8-3.3,2.8C182.1,83.5,181.1,83.1,180.1,82.4z"/>
		<path class="st1" d="M71.3,225.9l2,2.2h-2.1l-1.2-1.3c-0.9,0.5-1.9,0.7-3,0.7c-3.7,0-6.3-2.9-6.3-6.7c0-3.8,2.6-6.7,6.3-6.7
			c3.7,0,6.3,2.9,6.3,6.7C73.3,223,72.6,224.7,71.3,225.9z M68.8,225.6l-2.8-3h2.1l2,2.1c0.9-0.9,1.4-2.2,1.4-3.8c0-2.8-1.7-5-4.5-5
			s-4.5,2.1-4.5,5s1.7,5,4.5,5C67.7,225.9,68.3,225.8,68.8,225.6z"/>
		<path class="st1" d="M75.1,219.9c0-0.7,0.5-1.1,1.1-1.1s1,0.5,1.1,1.1c0,0.6-0.4,1.1-1.1,1.1C75.5,221.1,75.1,220.6,75.1,219.9z
			 M75.1,226.3c0-0.7,0.5-1.1,1.1-1.1s1,0.5,1.1,1.1c0,0.6-0.4,1.1-1.1,1.1C75.5,227.4,75.1,226.9,75.1,226.3z"/>
		<path class="st1" d="M63.2,271.4l-1.3,3.8h-1.6l4.1-12.1h1.9l4.1,12.1h-1.7l-1.3-3.8H63.2z M67.1,270.2l-1.2-3.5
			c-0.3-0.8-0.5-1.5-0.6-2.2h0c-0.2,0.7-0.4,1.5-0.6,2.2l-1.2,3.5H67.1z"/>
		<path class="st1" d="M71.8,267.9c0-0.7,0.5-1.1,1.1-1.1s1,0.5,1.1,1.1c0,0.6-0.4,1.1-1.1,1.1C72.2,269.1,71.8,268.6,71.8,267.9z
			 M71.8,274.3c0-0.7,0.5-1.1,1.1-1.1s1,0.5,1.1,1.1c0,0.6-0.4,1.1-1.1,1.1C72.2,275.4,71.8,274.9,71.8,274.3z"/>
	</g>
</g>
<rect x="0.5" y="0.5" class="st2" width="599.7" height="346.7"/>
<rect x="95.8" y="209.2" class="st3" width="444.3" height="24"/>
<rect x="95.8" y="257.2" class="st3" width="444.3" height="24"/>
<circle class="st4" cx="131.8" cy="221.2" r="19.5"/>
<circle class="st4" cx="275.8" cy="221.2" r="19.5"/>
<circle class="st4" cx="371.8" cy="269.2" r="19.5"/>
<circle class="st4" cx="419.8" cy="269.2" r="19.5"/>
<circle class="st4" cx="467.8" cy="269.2" r="19.5"/>
<rect x="125.9" y="215.2" transform="matrix(0.7071 -0.7071 0.7071 0.7071 -117.7878 158.0637)" class="st5" width="12" height="12"/>
<rect x="269.8" y="215.2" transform="matrix(4.502005e-11 -1 1 4.502005e-11 54.6193 497.048)" class="st5" width="12" height="12"/>
<path class="st5" d="M377.9,269.2L377.9,269.2c0,3.3-2.7,6-6,6l0,0c-3.3,0-6-2.7-6-6v0c0-3.3,2.7-6,6-6l0,0
	C375.2,263.2,377.9,265.9,377.9,269.2z"/>
<g>
	<circle class="st5" cx="152.7" cy="130.4" r="14.2"/>
	
		<rect x="147" y="124.7" transform="matrix(0.7071 -0.7071 0.7071 0.7071 -47.4672 146.1524)" class="st0" width="11.4" height="11.4"/>
	<circle class="st5" cx="198.8" cy="130.4" r="14.2"/>
	
		<rect x="193.1" y="124.7" transform="matrix(4.495610e-11 -1 1 4.495610e-11 68.4241 329.1725)" class="st0" width="11.4" height="11.4"/>
	<circle class="st5" cx="106.6" cy="130.4" r="14.2"/>
	<path class="st0" d="M112.3,130.4L112.3,130.4c0,3.1-2.5,5.7-5.7,5.7h0c-3.1,0-5.7-2.5-5.7-5.7v0c0-3.1,2.5-5.7,5.7-5.7h0
		C109.7,124.7,112.3,127.2,112.3,130.4z"/>
	<circle class="st5" cx="290.7" cy="130.4" r="14.2"/>
	
		<rect x="285" y="124.7" transform="matrix(0.7071 -0.7071 0.7071 0.7071 -7.0435 243.7439)" class="st0" width="11.4" height="11.4"/>
	<circle class="st5" cx="336.8" cy="130.4" r="14.2"/>
	
		<rect x="331.1" y="124.7" transform="matrix(4.479623e-11 -1 1 4.479623e-11 206.4393 467.1877)" class="st0" width="11.4" height="11.4"/>
	<circle class="st5" cx="244.6" cy="130.4" r="14.2"/>
	<path class="st0" d="M250.3,130.4L250.3,130.4c0,3.1-2.5,5.7-5.7,5.7h0c-3.1,0-5.7-2.5-5.7-5.7v0c0-3.1,2.5-5.7,5.7-5.7h0
		C247.7,124.7,250.3,127.2,250.3,130.4z"/>
	<g>
		<circle class="st5" cx="429.3" cy="130.4" r="14.2"/>
		
			<rect x="423.7" y="124.7" transform="matrix(0.7071 -0.7071 0.7071 0.7071 33.5652 341.782)" class="st0" width="11.4" height="11.4"/>
	</g>
	<g>
		<circle class="st5" cx="475.5" cy="130.4" r="14.2"/>
		
			<rect x="469.8" y="124.7" transform="matrix(4.479623e-11 -1 1 4.479623e-11 345.0861 605.8345)" class="st0" width="11.4" height="11.4"/>
	</g>
	<g>
		<circle class="st5" cx="383.2" cy="130.4" r="14.2"/>
		<path class="st0" d="M388.9,130.4L388.9,130.4c0,3.1-2.5,5.7-5.7,5.7l0,0c-3.1,0-5.7-2.5-5.7-5.7v0c0-3.1,2.5-5.7,5.7-5.7l0,0
			C386.4,124.7,388.9,127.2,388.9,130.4z"/>
	</g>
	<g>
		<circle class="st5" cx="521.6" cy="130.4" r="14.2"/>
		<path class="st0" d="M527.3,130.4L527.3,130.4c0,3.1-2.5,5.7-5.7,5.7l0,0c-3.1,0-5.7-2.5-5.7-5.7v0c0-3.1,2.5-5.7,5.7-5.7l0,0
			C524.7,124.7,527.3,127.2,527.3,130.4z"/>
	</g>
</g>
<rect x="413.8" y="263.2" transform="matrix(0.7071 -0.7071 0.7071 0.7071 -67.4011 375.72)" class="st5" width="12" height="12"/>
<rect x="461.8" y="262.9" transform="matrix(4.502005e-11 -1 1 4.502005e-11 198.9065 736.7607)" class="st5" width="12" height="12"/>
<g>
</g>
<g>
</g>
<g>
</g>
<g>
</g>
<g>
</g>
<g>
</g>
</svg>
