<?xml version="1.0" encoding="utf-8"?>
<!-- Generator: Adobe Illustrator 21.1.0, SVG Export Plug-In . SVG Version: 6.00 Build 0)  -->
<svg version="1.1" id="Layer_1" xmlns="http://www.w3.org/2000/svg" xmlns:xlink="http://www.w3.org/1999/xlink" x="0px" y="0px"
	 viewBox="0 0 721.7 426.3" style="enable-background:new 0 0 721.7 426.3;" xml:space="preserve">
<style type="text/css">
	.st0{fill:#FFFFFF;}
	.st1{fill:#676767;}
	.st2{fill:#1E305E;}
	.st3{fill:none;stroke:#1E305E;stroke-miterlimit:10;}
	.st4{fill:#9FAFB8;}
	.st5{fill:#B58B5A;stroke:#9FAFB8;stroke-miterlimit:10;}
	.st6{fill:#F6F6F6;}
	.st7{fill:#B58B5A;}
</style>
<g>
	<rect x="36.2" y="34.8" class="st0" width="642" height="356"/>
	<g>
		<path class="st1" d="M69.7,85.3c0-3,2.3-5.1,5.5-5.1c1.5,0,2.7,0.4,3.5,1.1v1.4c-0.9-0.7-2-1.2-3.4-1.2c-2.5,0-4.1,1.6-4.1,3.7
			s1.6,3.8,4.1,3.8c1.4,0,2.6-0.5,3.5-1.3v1.4c-1,0.9-2.2,1.2-3.6,1.2C71.7,90.3,69.7,88.1,69.7,85.3z"/>
		<path class="st1" d="M89.5,80.5V90h-1.4v-4.2h-5.9V90h-1.4v-9.5h1.4v4.1h5.9v-4.1H89.5z"/>
		<path class="st1" d="M98.1,87.4h-4.5l-1,2.6h-1.4l3.8-9.5h1.8l3.8,9.5h-1.4L98.1,87.4z M97.7,86.3l-1.8-4.6l-1.8,4.6H97.7z"/>
		<path class="st1" d="M109.1,88.7V90h-6.7v-9.5h1.4v8.3H109.1z"/>
		<path class="st1" d="M117.5,88.7V90h-6.7v-9.5h1.4v8.3H117.5z"/>
		<path class="st1" d="M126.2,88.8V90h-7.1v-9.5h7v1.2h-5.7v2.7h5.3v1.2h-5.3v3.2H126.2z"/>
		<path class="st1" d="M137.1,80.5V90h-1.8l-5.5-8.3V90h-1.3v-9.5h2l5.4,8v-8H137.1z"/>
		<path class="st1" d="M149.3,84.8v0.7c0,3.1-1.9,4.8-4.7,4.8c-3.3,0-5.4-2.2-5.4-5c0-2.8,2-5,5.6-5c1.7,0,2.9,0.4,3.8,1v1.5
			c-0.9-0.7-2.2-1.2-3.8-1.2c-2.8,0-4.2,1.6-4.2,3.7c0,2.2,1.6,3.8,4,3.8c2,0,3.3-1.1,3.4-3h-6l0.3-1.2H149.3z"/>
		<path class="st1" d="M158.5,88.8V90h-7.1v-9.5h7v1.2h-5.7v2.7h5.3v1.2h-5.3v3.2H158.5z"/>
		<path class="st1" d="M164.5,80.5h4.2c3.3,0,5,2,5,4.7c0,2.9-1.9,4.8-5.3,4.8h-3.8V80.5z M168.3,88.8c2.5,0,3.9-1.3,3.9-3.6
			c0-2.1-1.1-3.5-3.7-3.5h-2.7v7.1H168.3z"/>
		<path class="st1" d="M175.8,80.5h1.4V90h-1.4V80.5z"/>
		<path class="st1" d="M179.4,89.1v-1.4c1.1,0.8,2.3,1.3,3.7,1.3c1.5,0,2.4-0.5,2.4-1.6c0-0.7-0.4-1.1-1.7-1.5l-2.1-0.5
			c-1.7-0.5-2.3-1.3-2.3-2.4c0-1.6,1.4-2.7,3.7-2.7c1.5,0,2.6,0.5,3.3,1v1.4c-0.9-0.7-2-1.2-3.3-1.2c-1.5,0-2.3,0.5-2.3,1.4
			c0,0.6,0.4,1,1.5,1.3l2.1,0.5c1.8,0.5,2.5,1.4,2.5,2.6c0,1.7-1.4,2.9-3.7,2.9C181.7,90.2,180.4,89.8,179.4,89.1z"/>
		<path class="st1" d="M196.6,83.5c0,1.7-1.3,2.9-3.5,2.9h-2.7V90H189v-9.5h4.4C195.3,80.5,196.6,81.7,196.6,83.5z M195.2,83.5
			c0-1.1-0.8-1.8-2.1-1.8h-2.8v3.5h2.6C194.3,85.2,195.2,84.6,195.2,83.5z"/>
		<path class="st1" d="M197.7,85.3c0-2.8,2.2-5,5.3-5c3,0,5.2,2.2,5.2,5c0,2.8-2.2,5-5.2,5C199.9,90.3,197.7,88.1,197.7,85.3z
			 M206.8,85.3c0-2.1-1.5-3.8-3.8-3.8c-2.4,0-3.9,1.6-3.9,3.8c0,2.1,1.5,3.8,3.9,3.8C205.3,89,206.8,87.4,206.8,85.3z"/>
		<path class="st1" d="M209.7,89.1v-1.4c1.1,0.8,2.3,1.3,3.7,1.3c1.5,0,2.4-0.5,2.4-1.6c0-0.7-0.4-1.1-1.7-1.5l-2.1-0.5
			c-1.7-0.5-2.3-1.3-2.3-2.4c0-1.6,1.4-2.7,3.7-2.7c1.5,0,2.6,0.5,3.3,1v1.4c-0.9-0.7-2-1.2-3.3-1.2c-1.5,0-2.3,0.5-2.3,1.4
			c0,0.6,0.4,1,1.5,1.3l2.1,0.5c1.8,0.5,2.5,1.4,2.5,2.6c0,1.7-1.4,2.9-3.7,2.9C212.1,90.2,210.7,89.8,209.7,89.1z"/>
		<path class="st1" d="M219.3,80.5h1.4V90h-1.4V80.5z"/>
		<path class="st1" d="M230.3,81.7H227V90h-1.3v-8.3h-3.4v-1.2h8V81.7z"/>
		<path class="st1" d="M232,80.5h1.4V90H232V80.5z"/>
		<path class="st1" d="M235.5,85.3c0-2.8,2.2-5,5.3-5c3,0,5.2,2.2,5.2,5c0,2.8-2.2,5-5.2,5C237.7,90.3,235.5,88.1,235.5,85.3z
			 M244.6,85.3c0-2.1-1.5-3.8-3.8-3.8c-2.4,0-3.9,1.6-3.9,3.8c0,2.1,1.5,3.8,3.9,3.8C243.1,89,244.6,87.4,244.6,85.3z"/>
		<path class="st1" d="M256.8,80.5V90h-1.8l-5.5-8.3V90h-1.3v-9.5h2l5.4,8v-8H256.8z"/>
		<path class="st2" d="M87.8,127c0,3.7-2.7,6.5-7.6,6.5h-8.1v-22.8h8.5c3.8,0,6.2,2.6,6.2,5.8c0,2.2-1.1,4-3.3,4.7
			C86.4,122,87.8,124.3,87.8,127z M75.3,113.5v7h4.9c2.3,0,3.5-1.4,3.5-3.4c0-2.2-1.3-3.6-3.7-3.6H75.3z M84.6,126.9
			c0-2.3-1.5-3.9-4.2-3.9h-5v7.7h4.5C83.1,130.7,84.6,129.2,84.6,126.9z"/>
		<path class="st2" d="M105.9,117.2l-10.3,22.5h-3.2l3.8-7.8L90,117.2h3.2l4.6,11.3l4.9-11.3H105.9z"/>
		<path class="st2" d="M137.8,121v1.7c0,7.4-4.1,11.5-10.4,11.5c-6.9,0-11.6-5.2-11.6-12c0-6.7,4.4-12.1,12.1-12.1
			c3.6,0,6.2,1.1,8,2.6v3.4c-1.6-1.5-4.2-3-8-3c-5.9,0-8.9,4-8.9,9c0,5.3,3.3,9.2,8.4,9.2c4.5,0,7.1-2.7,7.4-7.4h-11.6l0.7-2.8
			H137.8z"/>
		<path class="st2" d="M150.8,117.7v2.9c-0.8-0.6-1.6-0.8-2.6-0.8c-2,0-3.4,1.8-3.5,5v8.7h-3v-16.3h3v3.2c0.8-2.3,2.2-3.5,3.9-3.5
			C149.4,116.9,150.1,117.1,150.8,117.7z"/>
		<path class="st2" d="M152.4,125.4c0-4.9,3.1-8.6,7.9-8.6c4.9,0,8,3.8,8,8.6c0,4.9-3.1,8.6-8,8.6
			C155.5,134,152.4,130.3,152.4,125.4z M165.3,125.4c0-3.5-1.8-5.9-4.9-5.9c-3.1,0-4.9,2.4-4.9,5.9c0,3.5,1.8,5.9,4.9,5.9
			C163.4,131.3,165.3,128.8,165.3,125.4z"/>
		<path class="st2" d="M186,117.2v16.3h-3v-3c-0.9,2.3-2.7,3.5-5.1,3.5c-3.6,0-5.9-2.3-5.9-6.3v-10.4h3v9.6c0,3.1,1.3,4.6,3.8,4.6
			c2.7,0,4.2-2.1,4.2-5.7v-8.5H186z"/>
		<path class="st2" d="M205.1,123.3v10.2h-3V124c0-3.2-1.1-4.6-3.7-4.6c-2.8,0-4.4,2-4.4,5.4v8.8h-3v-16.3h3v2.8
			c0.9-2.1,2.8-3.3,5.4-3.3C202.9,116.7,205.1,119.1,205.1,123.3z"/>
		<path class="st2" d="M224.7,110v23.5h-3v-3.3c-0.9,2.1-2.6,3.8-5.6,3.8c-4.2,0-7.2-3.5-7.2-8.5c0-5.3,3.4-8.8,7.5-8.8
			c2.4,0,4.2,1,5.4,3.3v-10H224.7z M221.8,125.3c0-3.4-1.9-5.8-4.9-5.8c-3,0-4.9,2.4-4.9,6c0,3.6,1.9,5.8,4.8,5.8
			C219.8,131.3,221.8,128.7,221.8,125.3z"/>
		<path class="st2" d="M228.7,132.1v-2.9c1.6,1.4,3.6,2.2,5.7,2.2c2.1,0,3.4-0.8,3.4-2.4c0-1-0.5-1.8-2-2.3l-3.1-0.9
			c-2.6-0.8-3.8-2.4-3.8-4.4c0-2.7,2.3-4.6,5.9-4.6c2.1,0,3.8,0.7,5.2,1.5v2.9c-1.4-1.2-3.3-1.8-5.2-1.8c-2,0-3,0.7-3,1.9
			c0,1,0.7,1.7,2,2.1l2.9,0.8c2.9,0.8,4.1,2.5,4.1,4.7c0,3.1-2.5,5.2-6,5.2C232.4,134,230.5,133.4,228.7,132.1z"/>
		<path class="st2" d="M252.1,122.1c0-6.9,4.7-12.1,11.4-12.1s11.4,5.2,11.4,12.1c0,6.9-4.7,12.1-11.4,12.1S252.1,129,252.1,122.1z
			 M271.6,122.1c0-5.2-3.1-9-8.1-9s-8.1,3.9-8.1,9c0,5.2,3.1,9,8.1,9S271.6,127.3,271.6,122.1z"/>
		<path class="st2" d="M283,115v2.2h5v2.5h-5v13.8h-3v-13.8h-2.8v-2.5h2.8v-1.9c0-3.6,1.9-5.6,5.2-5.6c1.3,0,2.5,0.3,3.2,0.8v2.6
			c-0.8-0.5-1.8-0.8-2.9-0.8C283.8,112.3,283,113.3,283,115z"/>
		<path class="st2" d="M297.7,122.2c0-7.1,5-12.2,11.9-12.2c3.1,0,5.5,1,6.9,2.1v3.5c-1.5-1.3-3.7-2.5-6.8-2.5c-5.4,0-8.8,3.8-8.8,9
			s3.4,9.1,8.8,9.1c2.9,0,5.3-1.1,6.9-2.4v3.3c-1.8,1.4-4.4,2.2-7,2.2C302.1,134.2,297.7,128.9,297.7,122.2z"/>
		<path class="st2" d="M334.7,123.3v10.2h-3V124c0-3.2-1.1-4.6-3.7-4.6c-2.8,0-4.4,2-4.4,5.4v8.8h-3V110h3v9.8c1-2,2.8-3.1,5.4-3.1
			C332.5,116.7,334.7,119.1,334.7,123.3z"/>
		<path class="st2" d="M351.8,123.6v9.9h-3v-2.2c-0.8,1.7-2.4,2.7-4.6,2.7c-3.3,0-5.7-2.3-5.7-5.4c0-3.1,2.4-5.3,5.9-5.3
			c2.1,0,3.6,0.9,4.4,2.1v-1.4c0-2.9-1.7-4.5-4.4-4.5c-2,0-3.7,0.8-5.1,2.2v-3.1c1.4-1,3.1-1.9,5.5-1.9
			C349.2,116.7,351.8,119.3,351.8,123.6z M348.8,128.5c0-1.7-1.4-2.9-3.6-2.9c-2.3,0-3.6,1.2-3.6,3c0,1.9,1.3,3.1,3.6,3.1
			C347.4,131.6,348.8,130.3,348.8,128.5z"/>
		<path class="st2" d="M356.7,110h3v23.5h-3V110z"/>
		<path class="st2" d="M365,110h3v23.5h-3V110z"/>
		<path class="st2" d="M387,125.9h-11.8c0.3,3.5,2.4,5.4,5.9,5.4c2,0,4-0.7,5.3-1.8v2.9c-1.2,1-3.4,1.7-5.6,1.7
			c-5.3,0-8.7-3.4-8.7-8.7c0-4.9,2.9-8.5,8-8.5c4.2,0,7,2.5,7,7V125.9z M375.2,123.7h8.8c0-2.8-1.7-4.2-4.2-4.2
			C377.1,119.4,375.6,121.1,375.2,123.7z"/>
		<path class="st2" d="M405,123.3v10.2h-3V124c0-3.2-1.1-4.6-3.7-4.6c-2.8,0-4.4,2-4.4,5.4v8.8h-3v-16.3h3v2.8
			c0.9-2.1,2.8-3.3,5.4-3.3C402.8,116.7,405,119.1,405,123.3z"/>
		<path class="st2" d="M424.3,117.2v14.8c0,5.1-3.2,8.2-8.3,8.2c-2.3,0-4.3-0.5-5.8-1.9v-3.1c1.4,1.5,3.4,2.3,5.6,2.3
			c3.9,0,5.4-2.5,5.4-6v-2.1c-1.1,2.4-2.8,3.7-5.4,3.7c-4.4,0-7.1-3.3-7.1-8c0-4.8,3-8.3,7.5-8.3c2.6,0,4.1,1.1,5.1,3.5v-3H424.3z
			 M421.3,124.8c0-3.3-2-5.4-4.7-5.4c-2.9,0-4.8,2.3-4.8,5.6c0,3.2,1.7,5.3,4.6,5.3C419.5,130.4,421.3,128.1,421.3,124.8z"/>
		<path class="st2" d="M443.2,125.9h-11.8c0.3,3.5,2.4,5.4,5.9,5.4c2,0,4-0.7,5.3-1.8v2.9c-1.2,1-3.4,1.7-5.6,1.7
			c-5.3,0-8.7-3.4-8.7-8.7c0-4.9,2.9-8.5,8-8.5c4.2,0,7,2.5,7,7V125.9z M431.5,123.7h8.8c0-2.8-1.7-4.2-4.2-4.2
			C433.4,119.4,431.9,121.1,431.5,123.7z"/>
	</g>
	<rect x="0.5" y="0.5" class="st3" width="720.7" height="425.3"/>
	<g>
		<g>
			<g>
				<path class="st4" d="M305.2,350.9c-2.2,0-3.8-1.3-3.8-3.1c0-1.9,1.6-3.2,3.8-3.2c2.3,0,3.8,1.3,3.8,3.2
					C309,349.7,307.5,350.9,305.2,350.9z M305.2,345.7c-1.7,0-2.8,0.8-2.8,2.1c0,1.3,1.1,2,2.8,2c1.7,0,2.8-0.8,2.8-2
					C308,346.5,306.9,345.7,305.2,345.7z"/>
			</g>
			<g>
				<path class="st4" d="M371.6,345c1.5,0,2.6,1.1,2.6,2.9c0,0.9-0.3,1.8-0.7,2.4h-1c0.5-0.7,0.7-1.4,0.7-2.2c0-1.3-0.7-2-1.6-2
					c-0.9,0-1.5,0.6-1.5,2c0,0.9,0.2,1.6,0.5,2.1h-3.8v-4.8h1v3.9h1.8c-0.2-0.5-0.3-1-0.3-1.7C369.3,345.9,370.3,345,371.6,345z"/>
			</g>
			<g>
				<path class="st4" d="M432,350.4h7.2v1h-6.1l1.4,2.3h-1l-1.5-2.4V350.4z"/>
				<path class="st4" d="M435.7,348.6c-2.2,0-3.8-1.3-3.8-3.1c0-1.9,1.6-3.2,3.8-3.2c2.3,0,3.8,1.3,3.8,3.2
					C439.4,347.3,437.9,348.6,435.7,348.6z M435.7,343.4c-1.7,0-2.8,0.8-2.8,2.1c0,1.3,1.1,2,2.8,2c1.7,0,2.8-0.8,2.8-2
					C438.4,344.1,437.4,343.4,435.7,343.4z"/>
			</g>
			<g>
				<path class="st4" d="M497.3,349.9h7.2v1h-6.1l1.4,2.3h-1l-1.5-2.4V349.9z"/>
				<path class="st4" d="M502.1,342.6c1.5,0,2.6,1.1,2.6,2.9c0,0.9-0.3,1.8-0.7,2.4h-1c0.5-0.7,0.7-1.4,0.7-2.2c0-1.3-0.7-2-1.6-2
					c-0.9,0-1.5,0.6-1.5,2c0,0.9,0.2,1.6,0.5,2.1h-3.8V343h1v3.9h1.8c-0.2-0.5-0.3-1-0.3-1.7C499.7,343.6,500.8,342.6,502.1,342.6z"
					/>
			</g>
			<g>
				<path class="st4" d="M568.8,349h1v5.1h-0.9l-1.9-2.5c-0.9-1.2-1.5-1.4-2.2-1.4c-0.8,0-1.4,0.6-1.4,1.7c0,0.9,0.4,1.7,0.9,2.2
					h-1.2c-0.4-0.6-0.7-1.4-0.7-2.4c0-1.6,0.9-2.6,2.3-2.6c0.9,0,1.8,0.4,2.8,1.7l1.4,1.8V349z"/>
				<path class="st4" d="M566.1,347.8c-2.2,0-3.8-1.3-3.8-3.1c0-1.9,1.6-3.2,3.8-3.2c2.3,0,3.8,1.3,3.8,3.2
					C569.9,346.5,568.4,347.8,566.1,347.8z M566.1,342.6c-1.7,0-2.8,0.8-2.8,2.1c0,1.3,1.1,2,2.8,2c1.7,0,2.8-0.8,2.8-2
					C568.9,343.3,567.8,342.6,566.1,342.6z"/>
			</g>
			<g>
				<path class="st4" d="M634,348.5h1v5.1h-0.9l-1.9-2.5c-0.9-1.2-1.5-1.4-2.2-1.4c-0.8,0-1.4,0.6-1.4,1.7c0,0.9,0.4,1.7,0.9,2.2
					h-1.2c-0.4-0.6-0.7-1.4-0.7-2.4c0-1.6,0.9-2.6,2.3-2.6c0.9,0,1.8,0.4,2.8,1.7l1.4,1.8V348.5z"/>
				<path class="st4" d="M632.5,341.8c1.5,0,2.6,1.1,2.6,2.9c0,0.9-0.3,1.8-0.7,2.4h-1c0.5-0.7,0.7-1.4,0.7-2.2c0-1.3-0.7-2-1.6-2
					c-0.9,0-1.5,0.6-1.5,2c0,0.9,0.2,1.6,0.5,2.1h-3.8v-4.8h1v3.9h1.8c-0.2-0.5-0.3-1-0.3-1.7C630.2,342.8,631.3,341.8,632.5,341.8z
					"/>
			</g>
		</g>
		<g>
			<g>
				<line class="st5" x1="305.5" y1="337.3" x2="305.5" y2="331"/>
				<line class="st5" x1="370.8" y1="337.3" x2="370.8" y2="331"/>
				<line class="st5" x1="436" y1="337.3" x2="436" y2="331"/>
				<line class="st5" x1="501.2" y1="337.3" x2="501.2" y2="331"/>
				<line class="st5" x1="566.5" y1="337.3" x2="566.5" y2="331"/>
				<line class="st5" x1="631.7" y1="337.3" x2="631.7" y2="331"/>
			</g>
		</g>
		<g>
			<g>
				<g>
					<path class="st6" d="M306.5,310.3h323.1c1.3,0,2.3,0.1,2.3,0.1v3.6c0,0.1-1,0.1-2.3,0.1H306.5c-1.3,0,0-0.1,0-0.1v-3.6
						C306.5,310.4,305.2,310.3,306.5,310.3z"/>
				</g>
			</g>
			<g>
				<g>
					<path class="st6" d="M308.8,283h320.8c1.3,0,2.3,0.1,2.3,0.1v3.6c0,0.1-1,0.1-2.3,0.1H308.8c-1.3,0-2.3-0.1-2.3-0.1v-3.6
						C306.5,283,307.5,283,308.8,283z"/>
				</g>
			</g>
			<g>
				<g>
					<path class="st6" d="M306.5,255.7h323.1c1.3,0,2.3,0.1,2.3,0.1v3.6c0,0.1-1,0.1-2.3,0.1H306.5c-1.3,0,0-0.1,0-0.1v-3.6
						C306.5,255.7,305.2,255.7,306.5,255.7z"/>
				</g>
			</g>
			<g>
				<g>
					<path class="st6" d="M306.5,228.4h323.1c1.3,0,2.3,0.1,2.3,0.1v3.6c0,0.1-1,0.1-2.3,0.1H306.5c-1.3,0,0-0.1,0-0.1v-3.6
						C306.5,228.4,305.2,228.4,306.5,228.4z"/>
				</g>
			</g>
			<g>
				<g>
					<path class="st6" d="M306.5,201.1h329.1c-4.7,0-3.7,0.1-3.7,0.1v3.6c0,0.1-1,0.1,3.7,0.1H306.5c-7.3,0,0-0.1,0-0.1v-3.6
						C306.5,201.1,299.2,201.1,306.5,201.1z"/>
				</g>
			</g>
			<g>
				<g>
					<path class="st6" d="M306.5,173.8h323.1c1.3,0,2.3,0.1,2.3,0.1v3.6c0,0.1-1,0.1-2.3,0.1H306.5c-1.3,0,0-0.1,0-0.1v-3.6
						C306.5,173.8,305.2,173.8,306.5,173.8z"/>
				</g>
			</g>
		</g>
		<g>
			<g>
				<path class="st7" d="M306.5,310.3h161.3c0.5,0,0.9,0.1,0.9,0.1v3.6c0,0.1-0.4,0.1-0.9,0.1H306.5c-0.5,0-0.9-0.1-0.9-0.1v-3.6
					C305.5,310.4,306,310.3,306.5,310.3z"/>
			</g>
		</g>
		<g>
			<g>
				<path class="st7" d="M306.5,283h11.8c0.5,0,0.9,0.1,0.9,0.1v3.6c0,0.1-0.4,0.1-0.9,0.1h-11.8c-0.5,0-0.9-0.1-0.9-0.1v-3.6
					C305.5,283,306,283,306.5,283z"/>
			</g>
		</g>
		<g>
			<g>
				<path class="st7" d="M306.5,255.7h161.3c0.5,0,0.9,0.1,0.9,0.1v3.6c0,0.1-0.4,0.1-0.9,0.1H306.5c-0.5,0-0.9-0.1-0.9-0.1v-3.6
					C305.5,255.7,306,255.7,306.5,255.7z"/>
			</g>
		</g>
		<g>
			<g>
				<path class="st7" d="M306.5,228.4h324.5c0.5,0,0.9,0.1,0.9,0.1v3.6c0,0.1-0.4,0.1-0.9,0.1H306.5c-0.5,0-0.9-0.1-0.9-0.1v-3.6
					C305.5,228.4,306,228.4,306.5,228.4z"/>
			</g>
		</g>
		<g>
			<g>
				<path class="st7" d="M312.5,201.1h107c-5.5,0,0.9,0.1,0.9,0.1v3.6c0,0.1-0.4,0.1-0.9,0.1h-113c-0.5,0-0.9-0.1-0.9-0.1v-3.6
					C305.5,201.1,306,201.1,312.5,201.1z"/>
			</g>
		</g>
		<g>
			<g>
				<path class="st7" d="M306.5,173.8h25.4c0.5,0,0.9,0.1,0.9,0.1v3.6c0,0.1-0.4,0.1-0.9,0.1h-25.4c-0.5,0-0.9-0.1-0.9-0.1v-3.6
					C305.5,173.8,306,173.8,306.5,173.8z"/>
			</g>
		</g>
	</g>
	<g>
		<g>
			<path class="st7" d="M87.5,178.6l1.8,2h-1.9l-1.1-1.2c-0.8,0.4-1.7,0.7-2.7,0.7c-3.4,0-5.7-2.6-5.7-6s2.3-6,5.7-6
				c3.4,0,5.7,2.6,5.7,6C89.4,175.9,88.7,177.5,87.5,178.6z M85.3,178.2l-2.5-2.7h1.9l1.8,1.9c0.8-0.8,1.3-2,1.3-3.4
				c0-2.6-1.6-4.5-4.1-4.5c-2.5,0-4.1,1.9-4.1,4.5s1.6,4.5,4.1,4.5C84.3,178.6,84.8,178.4,85.3,178.2z"/>
			<path class="st7" d="M98.2,171.6v8.2h-1.5v-1.5c-0.5,1.1-1.4,1.7-2.5,1.7c-1.8,0-2.9-1.1-2.9-3.2v-5.2h1.5v4.8
				c0,1.5,0.7,2.3,1.9,2.3c1.3,0,2.1-1,2.1-2.8v-4.3H98.2z"/>
			<path class="st7" d="M106.9,174.8v5h-1.5v-1.1c-0.4,0.8-1.2,1.3-2.3,1.3c-1.6,0-2.8-1.2-2.8-2.7c0-1.6,1.2-2.7,3-2.7
				c1,0,1.8,0.4,2.2,1v-0.7c0-1.4-0.9-2.3-2.2-2.3c-1,0-1.8,0.4-2.5,1.1v-1.5c0.7-0.5,1.6-0.9,2.7-0.9
				C105.5,171.3,106.9,172.6,106.9,174.8z M105.4,177.2c0-0.8-0.7-1.5-1.8-1.5c-1.2,0-1.8,0.6-1.8,1.5c0,0.9,0.6,1.5,1.8,1.5
				C104.7,178.8,105.4,178.1,105.4,177.2z"/>
			<path class="st7" d="M109.3,168h1.5v11.7h-1.5V168z"/>
			<path class="st7" d="M113.2,169.1c0-0.5,0.4-0.9,1-0.9s1,0.4,1,0.9c0,0.5-0.4,1-1,1S113.2,169.6,113.2,169.1z M113.4,171.6h1.5
				v8.2h-1.5V171.6z"/>
			<path class="st7" d="M120.6,167.8c0.7,0,1.2,0.2,1.6,0.4v1.3c-0.4-0.3-0.9-0.4-1.4-0.4c-0.9,0-1.3,0.5-1.3,1.3v1.1h2.5v1.3h-2.5
				v6.9H118v-6.9h-1.4v-1.3h1.4v-0.9C118,168.8,119,167.8,120.6,167.8z M123.3,169.1c0-0.5,0.4-0.9,1-0.9s1,0.4,1,0.9
				c0,0.5-0.4,1-1,1S123.3,169.6,123.3,169.1z M123.5,171.6h1.5v8.2h-1.5V171.6z"/>
			<path class="st7" d="M127,175.6c0-2.5,1.7-4.3,4.2-4.3c1.2,0,2,0.3,2.5,0.7v1.6c-0.8-0.7-1.5-0.9-2.5-0.9c-1.7,0-2.8,1.2-2.8,2.9
				s1,3,3,3c0.9,0,1.8-0.3,2.4-0.8v1.5c-0.8,0.5-1.6,0.7-2.6,0.7C128.7,180,127,178.1,127,175.6z"/>
			<path class="st7" d="M141.9,174.8v5h-1.5v-1.1c-0.4,0.8-1.2,1.3-2.3,1.3c-1.6,0-2.8-1.2-2.8-2.7c0-1.6,1.2-2.7,3-2.7
				c1,0,1.8,0.4,2.2,1v-0.7c0-1.4-0.9-2.3-2.2-2.3c-1,0-1.8,0.4-2.5,1.1v-1.5c0.7-0.5,1.6-0.9,2.7-0.9
				C140.6,171.3,141.9,172.6,141.9,174.8z M140.4,177.2c0-0.8-0.7-1.5-1.8-1.5c-1.2,0-1.8,0.6-1.8,1.5c0,0.9,0.6,1.5,1.8,1.5
				C139.7,178.8,140.4,178.1,140.4,177.2z"/>
			<path class="st7" d="M148.9,172.9h-2.2v6.9h-1.5v-6.9h-2v-1.3h2v-2l1.5-0.5v2.5h2.2V172.9z"/>
			<path class="st7" d="M150.2,169.1c0-0.5,0.4-0.9,1-0.9s1,0.4,1,0.9c0,0.5-0.4,1-1,1S150.2,169.6,150.2,169.1z M150.5,171.6h1.5
				v8.2h-1.5V171.6z"/>
			<path class="st7" d="M154,175.7c0-2.4,1.5-4.3,4-4.3c2.5,0,4,1.9,4,4.3s-1.5,4.3-4,4.3C155.5,180,154,178.1,154,175.7z
				 M160.4,175.7c0-1.7-0.9-3-2.5-3c-1.5,0-2.4,1.2-2.4,3s0.9,3,2.4,3C159.5,178.6,160.4,177.4,160.4,175.7z"/>
			<path class="st7" d="M170.9,174.6v5.1h-1.5V175c0-1.6-0.6-2.3-1.8-2.3c-1.4,0-2.2,1-2.2,2.7v4.4h-1.5v-8.2h1.5v1.4
				c0.5-1.1,1.4-1.6,2.7-1.6C169.8,171.3,170.9,172.6,170.9,174.6z"/>
		</g>
		<g>
			<path class="st7" d="M89.5,207.5l-0.7-10.1l-3.2,10.1h-1.9l-3.2-10.1l-0.6,10.1h-1.5l0.7-11.4h2.5l3,9.6l3.1-9.6h2.4l0.9,11.4
				H89.5z"/>
			<path class="st7" d="M100.3,203.7h-5.9c0.1,1.7,1.2,2.7,3,2.7c1,0,2-0.4,2.6-0.9v1.4c-0.6,0.5-1.7,0.8-2.8,0.8
				c-2.6,0-4.4-1.7-4.4-4.4c0-2.5,1.4-4.3,4-4.3c2.1,0,3.5,1.3,3.5,3.5V203.7z M94.4,202.6h4.4c0-1.4-0.8-2.1-2.1-2.1
				C95.4,200.4,94.6,201.3,94.4,202.6z"/>
			<path class="st7" d="M106.9,200.6h-2.2v6.9h-1.5v-6.9h-2v-1.3h2v-2l1.5-0.5v2.5h2.2V200.6z"/>
			<path class="st7" d="M115.4,202.4v5.1h-1.5v-4.8c0-1.6-0.6-2.3-1.8-2.3c-1.4,0-2.2,1-2.2,2.7v4.4h-1.5v-11.7h1.5v4.9
				c0.5-1,1.4-1.6,2.7-1.6C114.3,199.1,115.4,200.3,115.4,202.4z"/>
			<path class="st7" d="M117.3,203.4c0-2.4,1.5-4.3,4-4.3c2.5,0,4,1.9,4,4.3c0,2.4-1.5,4.3-4,4.3
				C118.8,207.7,117.3,205.8,117.3,203.4z M123.7,203.4c0-1.7-0.9-3-2.5-3c-1.5,0-2.4,1.2-2.4,3c0,1.7,0.9,3,2.4,3
				C122.8,206.4,123.7,205.1,123.7,203.4z"/>
			<path class="st7" d="M134.6,195.7v11.7h-1.5v-1.7c-0.4,1-1.3,1.9-2.8,1.9c-2.1,0-3.6-1.7-3.6-4.3c0-2.6,1.7-4.4,3.7-4.4
				c1.2,0,2.1,0.5,2.7,1.7v-5H134.6z M133.1,203.4c0-1.7-0.9-2.9-2.4-2.9c-1.5,0-2.5,1.2-2.5,3c0,1.8,0.9,2.9,2.4,2.9
				C132.1,206.4,133.1,205.1,133.1,203.4z"/>
			<path class="st7" d="M136.5,203.4c0-2.4,1.5-4.3,4-4.3c2.5,0,4,1.9,4,4.3c0,2.4-1.5,4.3-4,4.3C138,207.7,136.5,205.8,136.5,203.4
				z M142.9,203.4c0-1.7-0.9-3-2.5-3c-1.5,0-2.4,1.2-2.4,3c0,1.7,0.9,3,2.4,3C142,206.4,142.9,205.1,142.9,203.4z"/>
			<path class="st7" d="M146.5,195.7h1.5v11.7h-1.5V195.7z"/>
			<path class="st7" d="M150,203.4c0-2.4,1.5-4.3,4-4.3c2.5,0,4,1.9,4,4.3c0,2.4-1.5,4.3-4,4.3C151.5,207.7,150,205.8,150,203.4z
				 M156.4,203.4c0-1.7-0.9-3-2.5-3c-1.5,0-2.4,1.2-2.4,3c0,1.7,0.9,3,2.4,3C155.5,206.4,156.4,205.1,156.4,203.4z"/>
			<path class="st7" d="M167.2,199.3v7.4c0,2.5-1.6,4.1-4.1,4.1c-1.2,0-2.2-0.3-2.9-0.9v-1.5c0.7,0.8,1.7,1.1,2.8,1.1
				c2,0,2.7-1.2,2.7-3v-1c-0.6,1.2-1.4,1.8-2.7,1.8c-2.2,0-3.6-1.6-3.6-4c0-2.4,1.5-4.2,3.7-4.2c1.3,0,2.1,0.6,2.5,1.7v-1.5H167.2z
				 M165.7,203.1c0-1.6-1-2.7-2.4-2.7c-1.5,0-2.4,1.2-2.4,2.8c0,1.6,0.9,2.7,2.3,2.7C164.7,205.9,165.7,204.8,165.7,203.1z"/>
			<path class="st7" d="M176.7,199.3l-5.1,11.3h-1.6l1.9-3.9l-3.1-7.3h1.6l2.3,5.7l2.5-5.7H176.7z"/>
		</g>
		<g>
			<path class="st7" d="M84.8,235.2l-4.5-5.4v5.4h-1.6v-11.4h4.4c2.1,0,3.4,1.4,3.4,3.3c0,1.9-1.4,3.2-3.7,3.2h-0.3l4.3,4.9H84.8z
				 M80.3,229.1h2.2c1.6,0,2.4-0.7,2.4-2c0-1.2-0.7-1.9-2.1-1.9h-2.5V229.1z"/>
			<path class="st7" d="M95.3,231.4h-5.9c0.1,1.7,1.2,2.7,3,2.7c1,0,2-0.4,2.6-0.9v1.4c-0.6,0.5-1.7,0.8-2.8,0.8
				c-2.6,0-4.4-1.7-4.4-4.4c0-2.5,1.4-4.3,4-4.3c2.1,0,3.5,1.3,3.5,3.5V231.4z M89.4,230.3h4.4c0-1.4-0.8-2.1-2.1-2.1
				C90.4,228.2,89.6,229,89.4,230.3z"/>
			<path class="st7" d="M97.3,223.5h1.5v11.7h-1.5V223.5z"/>
			<path class="st7" d="M108.3,231.4h-5.9c0.1,1.7,1.2,2.7,3,2.7c1,0,2-0.4,2.6-0.9v1.4c-0.6,0.5-1.7,0.8-2.8,0.8
				c-2.6,0-4.4-1.7-4.4-4.4c0-2.5,1.4-4.3,4-4.3c2.1,0,3.5,1.3,3.5,3.5V231.4z M102.4,230.3h4.4c0-1.4-0.8-2.1-2.1-2.1
				C103.4,228.2,102.7,229,102.4,230.3z"/>
			<path class="st7" d="M117,227.1l-3.2,8.2h-1.4l-3.2-8.2h1.6l2.3,6.3l2.3-6.3H117z"/>
			<path class="st7" d="M124.4,230.3v5H123v-1.1c-0.4,0.8-1.2,1.3-2.3,1.3c-1.6,0-2.8-1.2-2.8-2.7c0-1.6,1.2-2.7,3-2.7
				c1,0,1.8,0.4,2.2,1v-0.7c0-1.4-0.9-2.3-2.2-2.3c-1,0-1.8,0.4-2.5,1.1v-1.5c0.7-0.5,1.6-0.9,2.7-0.9
				C123.1,226.8,124.4,228.1,124.4,230.3z M123,232.7c0-0.8-0.7-1.5-1.8-1.5c-1.2,0-1.8,0.6-1.8,1.5c0,0.9,0.6,1.5,1.8,1.5
				C122.3,234.3,123,233.6,123,232.7z"/>
			<path class="st7" d="M133.9,230.1v5.1h-1.5v-4.8c0-1.6-0.6-2.3-1.8-2.3c-1.4,0-2.2,1-2.2,2.7v4.4h-1.5v-8.2h1.5v1.4
				c0.5-1.1,1.4-1.6,2.7-1.6C132.8,226.8,133.9,228,133.9,230.1z"/>
			<path class="st7" d="M135.7,231.1c0-2.5,1.7-4.3,4.2-4.3c1.2,0,2,0.3,2.5,0.7v1.6c-0.8-0.7-1.5-0.9-2.5-0.9
				c-1.7,0-2.8,1.2-2.8,2.9s1,3,3,3c0.9,0,1.8-0.3,2.4-0.8v1.5c-0.8,0.5-1.6,0.7-2.6,0.7C137.5,235.5,135.7,233.6,135.7,231.1z"/>
			<path class="st7" d="M151.5,231.4h-5.9c0.1,1.7,1.2,2.7,3,2.7c1,0,2-0.4,2.6-0.9v1.4c-0.6,0.5-1.7,0.8-2.8,0.8
				c-2.6,0-4.4-1.7-4.4-4.4c0-2.5,1.4-4.3,4-4.3c2.1,0,3.5,1.3,3.5,3.5V231.4z M145.6,230.3h4.4c0-1.4-0.8-2.1-2.1-2.1
				C146.6,228.2,145.8,229,145.6,230.3z"/>
		</g>
		<g>
			<path class="st7" d="M85.5,261.4v1.5h-6.8v-11.4h1.6v9.9H85.5z"/>
			<path class="st7" d="M93.8,259.1h-5.9c0.1,1.7,1.2,2.7,3,2.7c1,0,2-0.4,2.6-0.9v1.4c-0.6,0.5-1.7,0.8-2.8,0.8
				c-2.6,0-4.4-1.7-4.4-4.4c0-2.5,1.4-4.3,4-4.3c2.1,0,3.5,1.3,3.5,3.5V259.1z M88,258h4.4c0-1.4-0.8-2.1-2.1-2.1
				C88.9,255.9,88.2,256.8,88,258z"/>
			<path class="st7" d="M103.1,254.8v7.4c0,2.5-1.6,4.1-4.1,4.1c-1.2,0-2.2-0.3-2.9-0.9v-1.5c0.7,0.8,1.7,1.1,2.8,1.1
				c2,0,2.7-1.2,2.7-3v-1c-0.6,1.2-1.4,1.8-2.7,1.8c-2.2,0-3.6-1.6-3.6-4c0-2.4,1.5-4.2,3.7-4.2c1.3,0,2.1,0.6,2.5,1.7v-1.5H103.1z
				 M101.6,258.6c0-1.6-1-2.7-2.4-2.7c-1.5,0-2.4,1.2-2.4,2.8c0,1.6,0.9,2.7,2.3,2.7C100.6,261.4,101.6,260.2,101.6,258.6z"/>
			<path class="st7" d="M111.7,258v5h-1.5v-1.1c-0.4,0.8-1.2,1.3-2.3,1.3c-1.6,0-2.8-1.2-2.8-2.7c0-1.6,1.2-2.7,3-2.7
				c1,0,1.8,0.4,2.2,1v-0.7c0-1.4-0.9-2.3-2.2-2.3c-1,0-1.8,0.4-2.5,1.1v-1.5c0.7-0.5,1.6-0.9,2.7-0.9
				C110.4,254.5,111.7,255.8,111.7,258z M110.2,260.4c0-0.8-0.7-1.5-1.8-1.5c-1.2,0-1.8,0.6-1.8,1.5c0,0.9,0.6,1.5,1.8,1.5
				C109.5,262,110.2,261.3,110.2,260.4z"/>
			<path class="st7" d="M114.2,251.2h1.5v11.7h-1.5V251.2z"/>
			<path class="st7" d="M122,257.3c0-3.6,2.5-6.1,6-6.1c1.5,0,2.8,0.5,3.5,1v1.7c-0.8-0.6-1.8-1.2-3.4-1.2c-2.7,0-4.4,1.9-4.4,4.5
				c0,2.6,1.7,4.5,4.4,4.5c1.4,0,2.6-0.6,3.4-1.2v1.6c-0.9,0.7-2.2,1.1-3.5,1.1C124.2,263.3,122,260.6,122,257.3z"/>
			<path class="st7" d="M132.9,258.9c0-2.4,1.5-4.3,4-4.3c2.5,0,4,1.9,4,4.3s-1.5,4.3-4,4.3C134.4,263.2,132.9,261.3,132.9,258.9z
				 M139.3,258.9c0-1.7-0.9-3-2.5-3c-1.5,0-2.4,1.2-2.4,3s0.9,3,2.4,3C138.4,261.8,139.3,260.6,139.3,258.9z"/>
			<path class="st7" d="M149.8,257.8v5.1h-1.5v-4.8c0-1.6-0.6-2.3-1.8-2.3c-1.4,0-2.2,1-2.2,2.7v4.4h-1.5v-8.2h1.5v1.4
				c0.5-1.1,1.4-1.6,2.7-1.6C148.7,254.5,149.8,255.8,149.8,257.8z"/>
			<path class="st7" d="M151.7,258.8c0-2.5,1.7-4.3,4.2-4.3c1.2,0,2,0.3,2.5,0.7v1.6c-0.8-0.7-1.5-0.9-2.5-0.9
				c-1.7,0-2.8,1.2-2.8,2.9s1,3,3,3c0.9,0,1.8-0.3,2.4-0.8v1.5c-0.8,0.5-1.6,0.7-2.6,0.7C153.4,263.2,151.7,261.3,151.7,258.8z"/>
			<path class="st7" d="M160.5,251.2h1.5v11.7h-1.5V251.2z"/>
			<path class="st7" d="M171.5,254.8v8.2H170v-1.5c-0.5,1.1-1.4,1.7-2.5,1.7c-1.8,0-2.9-1.1-2.9-3.2v-5.2h1.5v4.8
				c0,1.5,0.7,2.3,1.9,2.3c1.3,0,2.1-1,2.1-2.8v-4.3H171.5z"/>
			<path class="st7" d="M173.5,262.2v-1.4c0.8,0.7,1.8,1.1,2.8,1.1c1,0,1.7-0.4,1.7-1.2c0-0.5-0.2-0.9-1-1.1l-1.5-0.5
				c-1.3-0.4-1.9-1.2-1.9-2.2c0-1.4,1.1-2.3,3-2.3c1.1,0,1.9,0.3,2.6,0.8v1.5c-0.7-0.6-1.7-0.9-2.6-0.9c-1,0-1.5,0.3-1.5,0.9
				c0,0.5,0.3,0.9,1,1l1.5,0.4c1.5,0.4,2.1,1.2,2.1,2.3c0,1.6-1.2,2.6-3,2.6C175.3,263.2,174.4,262.9,173.5,262.2z"/>
			<path class="st7" d="M181.2,252.3c0-0.5,0.4-0.9,1-0.9c0.6,0,1,0.4,1,0.9c0,0.5-0.4,1-1,1C181.6,253.3,181.2,252.9,181.2,252.3z
				 M181.4,254.8h1.5v8.2h-1.5V254.8z"/>
			<path class="st7" d="M184.9,258.9c0-2.4,1.5-4.3,4-4.3c2.5,0,4,1.9,4,4.3s-1.5,4.3-4,4.3C186.5,263.2,184.9,261.3,184.9,258.9z
				 M191.4,258.9c0-1.7-0.9-3-2.5-3c-1.5,0-2.4,1.2-2.4,3s0.9,3,2.4,3C190.4,261.8,191.4,260.6,191.4,258.9z"/>
			<path class="st7" d="M201.9,257.8v5.1h-1.5v-4.8c0-1.6-0.6-2.3-1.8-2.3c-1.4,0-2.2,1-2.2,2.7v4.4h-1.5v-8.2h1.5v1.4
				c0.5-1.1,1.4-1.6,2.7-1.6C200.8,254.5,201.9,255.8,201.9,257.8z"/>
		</g>
		<g>
			<path class="st7" d="M77.9,285c0-3.4,2.3-6,5.7-6c3.4,0,5.7,2.6,5.7,6c0,3.4-2.3,6-5.7,6C80.3,291,77.9,288.4,77.9,285z
				 M87.7,285c0-2.6-1.6-4.5-4.1-4.5c-2.5,0-4.1,1.9-4.1,4.5s1.6,4.5,4.1,4.5C86.2,289.5,87.7,287.6,87.7,285z"/>
			<path class="st7" d="M99.3,286.5c0,2.6-1.7,4.4-3.7,4.4c-1.2,0-2.2-0.7-2.7-1.7v1.5h-1.5v-11.7h1.5v5.2c0.5-1,1.4-1.9,2.9-1.9
				C97.8,282.3,99.3,284.1,99.3,286.5z M97.7,286.6c0-1.7-1-2.9-2.4-2.9c-1.5,0-2.5,1.3-2.5,3c0,1.7,0.9,2.9,2.4,2.9
				C96.7,289.6,97.7,288.3,97.7,286.6z"/>
			<path class="st7" d="M107.8,282.5l-3.2,8.2h-1.4l-3.2-8.2h1.6l2.3,6.3l2.3-6.3H107.8z"/>
			<path class="st7" d="M109.3,280c0-0.5,0.4-0.9,1-0.9s1,0.4,1,0.9c0,0.5-0.4,1-1,1S109.3,280.6,109.3,280z M109.5,282.5h1.5v8.2
				h-1.5V282.5z"/>
			<path class="st7" d="M113,286.6c0-2.4,1.5-4.3,4-4.3c2.5,0,4,1.9,4,4.3s-1.5,4.3-4,4.3C114.5,290.9,113,289.1,113,286.6z
				 M119.4,286.6c0-1.7-0.9-3-2.5-3c-1.5,0-2.4,1.2-2.4,3s0.9,3,2.4,3C118.5,289.6,119.4,288.3,119.4,286.6z"/>
			<path class="st7" d="M129.8,282.5v8.2h-1.5v-1.5c-0.5,1.1-1.4,1.7-2.5,1.7c-1.8,0-2.9-1.1-2.9-3.2v-5.2h1.5v4.8
				c0,1.5,0.7,2.3,1.9,2.3c1.3,0,2.1-1,2.1-2.8v-4.3H129.8z"/>
			<path class="st7" d="M131.8,289.9v-1.4c0.8,0.7,1.8,1.1,2.8,1.1c1,0,1.7-0.4,1.7-1.2c0-0.5-0.2-0.9-1-1.1l-1.5-0.5
				c-1.3-0.4-1.9-1.2-1.9-2.2c0-1.4,1.1-2.3,3-2.3c1.1,0,1.9,0.3,2.6,0.8v1.5c-0.7-0.6-1.7-0.9-2.6-0.9c-1,0-1.5,0.3-1.5,0.9
				c0,0.5,0.3,0.9,1,1l1.5,0.4c1.5,0.4,2.1,1.2,2.1,2.3c0,1.6-1.2,2.6-3,2.6C133.7,290.9,132.7,290.6,131.8,289.9z"/>
			<path class="st7" d="M143.5,285c0-3.6,2.5-6.1,6-6.1c1.5,0,2.8,0.5,3.5,1v1.7c-0.8-0.6-1.8-1.2-3.4-1.2c-2.7,0-4.4,1.9-4.4,4.5
				s1.7,4.5,4.4,4.5c1.4,0,2.6-0.6,3.4-1.2v1.6c-0.9,0.7-2.2,1.1-3.5,1.1C145.7,291,143.5,288.4,143.5,285z"/>
			<path class="st7" d="M154.3,286.6c0-2.4,1.5-4.3,4-4.3c2.5,0,4,1.9,4,4.3s-1.5,4.3-4,4.3C155.9,290.9,154.3,289.1,154.3,286.6z
				 M160.8,286.6c0-1.7-0.9-3-2.5-3c-1.5,0-2.4,1.2-2.4,3s0.9,3,2.4,3C159.9,289.6,160.8,288.3,160.8,286.6z"/>
			<path class="st7" d="M171.3,285.6v5.1h-1.5v-4.8c0-1.6-0.6-2.3-1.8-2.3c-1.4,0-2.2,1-2.2,2.7v4.4h-1.5v-8.2h1.5v1.4
				c0.5-1.1,1.4-1.6,2.7-1.6C170.2,282.3,171.3,283.5,171.3,285.6z"/>
			<path class="st7" d="M173.2,286.6c0-2.5,1.7-4.3,4.2-4.3c1.2,0,2,0.3,2.5,0.7v1.6c-0.8-0.7-1.5-0.9-2.5-0.9
				c-1.7,0-2.8,1.2-2.8,2.9s1,3,3,3c0.9,0,1.8-0.3,2.4-0.8v1.5c-0.8,0.5-1.6,0.7-2.6,0.7C174.9,290.9,173.2,289.1,173.2,286.6z"/>
			<path class="st7" d="M182,278.9h1.5v11.7H182V278.9z"/>
			<path class="st7" d="M193,282.5v8.2h-1.5v-1.5c-0.5,1.1-1.4,1.7-2.5,1.7c-1.8,0-2.9-1.1-2.9-3.2v-5.2h1.5v4.8
				c0,1.5,0.7,2.3,1.9,2.3c1.3,0,2.1-1,2.1-2.8v-4.3H193z"/>
			<path class="st7" d="M195,289.9v-1.4c0.8,0.7,1.8,1.1,2.8,1.1c1,0,1.7-0.4,1.7-1.2c0-0.5-0.2-0.9-1-1.1l-1.5-0.5
				c-1.3-0.4-1.9-1.2-1.9-2.2c0-1.4,1.1-2.3,3-2.3c1.1,0,1.9,0.3,2.6,0.8v1.5c-0.7-0.6-1.7-0.9-2.6-0.9c-1,0-1.5,0.3-1.5,0.9
				c0,0.5,0.3,0.9,1,1l1.5,0.4c1.5,0.4,2.1,1.2,2.1,2.3c0,1.6-1.2,2.6-3,2.6C196.8,290.9,195.9,290.6,195,289.9z"/>
			<path class="st7" d="M202.7,280c0-0.5,0.4-0.9,1-0.9c0.6,0,1,0.4,1,0.9c0,0.5-0.4,1-1,1C203.1,281,202.7,280.6,202.7,280z
				 M202.9,282.5h1.5v8.2h-1.5V282.5z"/>
			<path class="st7" d="M206.4,286.6c0-2.4,1.5-4.3,4-4.3c2.5,0,4,1.9,4,4.3s-1.5,4.3-4,4.3C208,290.9,206.4,289.1,206.4,286.6z
				 M212.8,286.6c0-1.7-0.9-3-2.5-3c-1.5,0-2.4,1.2-2.4,3s0.9,3,2.4,3C211.9,289.6,212.8,288.3,212.8,286.6z"/>
			<path class="st7" d="M223.4,285.6v5.1h-1.5v-4.8c0-1.6-0.6-2.3-1.8-2.3c-1.4,0-2.2,1-2.2,2.7v4.4h-1.5v-8.2h1.5v1.4
				c0.5-1.1,1.4-1.6,2.7-1.6C222.3,282.3,223.4,283.5,223.4,285.6z"/>
		</g>
		<g>
			<path class="st7" d="M85.5,316.9v1.5h-6.8V307h1.6v9.9H85.5z"/>
			<path class="st7" d="M93.1,313.5v5h-1.5v-1.1c-0.4,0.8-1.2,1.3-2.3,1.3c-1.6,0-2.8-1.2-2.8-2.7c0-1.6,1.2-2.7,3-2.7
				c1,0,1.8,0.4,2.2,1v-0.7c0-1.4-0.9-2.3-2.2-2.3c-1,0-1.8,0.4-2.5,1.1v-1.5c0.7-0.5,1.6-0.9,2.7-0.9
				C91.8,310,93.1,311.3,93.1,313.5z M91.7,315.9c0-0.8-0.7-1.5-1.8-1.5c-1.2,0-1.8,0.6-1.8,1.5c0,0.9,0.6,1.5,1.8,1.5
				C91,317.5,91.7,316.8,91.7,315.9z"/>
			<path class="st7" d="M100.1,311.5h-2.2v6.9h-1.5v-6.9h-2v-1.3h2v-2l1.5-0.5v2.5h2.2V311.5z"/>
			<path class="st7" d="M108.4,314.6h-5.9c0.1,1.7,1.2,2.7,3,2.7c1,0,2-0.4,2.6-0.9v1.4c-0.6,0.5-1.7,0.8-2.8,0.8
				c-2.6,0-4.4-1.7-4.4-4.4c0-2.5,1.4-4.3,4-4.3c2.1,0,3.5,1.3,3.5,3.5V314.6z M102.5,313.5h4.4c0-1.4-0.8-2.1-2.1-2.1
				C103.5,311.4,102.7,312.2,102.5,313.5z"/>
			<path class="st7" d="M115,307h3.9c3.6,0,5.5,2.3,5.5,5.7c0,3.4-2,5.7-5.8,5.7H115V307z M118.5,317c2.8,0,4.2-1.7,4.2-4.3
				s-1.2-4.3-4-4.3h-2.1v8.5H118.5z"/>
			<path class="st7" d="M126.1,307.8c0-0.5,0.4-0.9,1-0.9c0.6,0,1,0.4,1,0.9c0,0.5-0.4,1-1,1C126.6,308.8,126.1,308.3,126.1,307.8z
				 M126.4,310.3h1.5v8.2h-1.5V310.3z"/>
			<path class="st7" d="M130,317.7v-1.4c0.8,0.7,1.8,1.1,2.8,1.1c1,0,1.7-0.4,1.7-1.2c0-0.5-0.2-0.9-1-1.1l-1.5-0.5
				c-1.3-0.4-1.9-1.2-1.9-2.2c0-1.4,1.1-2.3,3-2.3c1.1,0,1.9,0.3,2.6,0.8v1.5c-0.7-0.6-1.7-0.9-2.6-0.9c-1,0-1.5,0.3-1.5,0.9
				c0,0.5,0.3,0.9,1,1l1.5,0.4c1.5,0.4,2.1,1.2,2.1,2.3c0,1.6-1.2,2.6-3,2.6C131.8,318.7,130.8,318.4,130,317.7z"/>
			<path class="st7" d="M137.3,314.3c0-2.5,1.7-4.3,4.2-4.3c1.2,0,2,0.3,2.5,0.7v1.6c-0.8-0.7-1.5-0.9-2.5-0.9
				c-1.7,0-2.8,1.2-2.8,2.9s1,3,3,3c0.9,0,1.8-0.3,2.4-0.8v1.5c-0.8,0.5-1.6,0.7-2.6,0.7C139,318.7,137.3,316.8,137.3,314.3z"/>
			<path class="st7" d="M146.1,306.7h1.5v11.7h-1.5V306.7z"/>
			<path class="st7" d="M149.6,314.3c0-2.4,1.5-4.3,4-4.3c2.5,0,4,1.9,4,4.3s-1.5,4.3-4,4.3C151.2,318.7,149.6,316.8,149.6,314.3z
				 M156.1,314.3c0-1.7-0.9-3-2.5-3c-1.5,0-2.4,1.2-2.4,3s0.9,3,2.4,3C155.1,317.3,156.1,316.1,156.1,314.3z"/>
			<path class="st7" d="M159.1,317.7v-1.4c0.8,0.7,1.8,1.1,2.8,1.1c1,0,1.7-0.4,1.7-1.2c0-0.5-0.2-0.9-1-1.1l-1.5-0.5
				c-1.3-0.4-1.9-1.2-1.9-2.2c0-1.4,1.1-2.3,3-2.3c1.1,0,1.9,0.3,2.6,0.8v1.5c-0.7-0.6-1.7-0.9-2.6-0.9c-1,0-1.5,0.3-1.5,0.9
				c0,0.5,0.3,0.9,1,1l1.5,0.4c1.5,0.4,2.1,1.2,2.1,2.3c0,1.6-1.2,2.6-3,2.6C160.9,318.7,159.9,318.4,159.1,317.7z"/>
			<path class="st7" d="M173.8,310.3v8.2h-1.5v-1.5c-0.5,1.1-1.4,1.7-2.5,1.7c-1.8,0-2.9-1.1-2.9-3.2v-5.2h1.5v4.8
				c0,1.5,0.7,2.3,1.9,2.3c1.3,0,2.1-1,2.1-2.8v-4.3H173.8z"/>
			<path class="st7" d="M180.9,310.5v1.4c-0.4-0.3-0.8-0.4-1.3-0.4c-1,0-1.7,0.9-1.7,2.5v4.4h-1.5v-8.2h1.5v1.6
				c0.4-1.1,1.1-1.8,2-1.8C180.2,310.1,180.5,310.2,180.9,310.5z"/>
			<path class="st7" d="M189.2,314.6h-5.9c0.1,1.7,1.2,2.7,3,2.7c1,0,2-0.4,2.6-0.9v1.4c-0.6,0.5-1.7,0.8-2.8,0.8
				c-2.6,0-4.4-1.7-4.4-4.4c0-2.5,1.4-4.3,4-4.3c2.1,0,3.5,1.3,3.5,3.5V314.6z M183.3,313.5h4.4c0-1.4-0.8-2.1-2.1-2.1
				C184.2,311.4,183.5,312.2,183.3,313.5z"/>
			<path class="st7" d="M195.3,308.8c0.6-0.1,1.6-0.2,2.4-0.2c1.3,0,2.2,0.2,2.8,0.8c0.5,0.4,0.8,1.1,0.8,1.9c0,1.3-0.8,2.1-1.8,2.5
				v0c0.8,0.3,1.2,1,1.4,2c0.3,1.4,0.6,2.3,0.8,2.7h-1.3c-0.2-0.3-0.4-1.1-0.7-2.3c-0.3-1.3-0.8-1.9-2-1.9h-1.2v4.2h-1.3V308.8z
				 M196.5,313.2h1.3c1.3,0,2.2-0.7,2.2-1.9c0-1.3-0.9-1.8-2.2-1.8c-0.6,0-1,0.1-1.2,0.1V313.2z"/>
			<path class="st7" d="M208.9,316.5c0,0.7,0,1.4,0.1,1.9h-1.1l-0.1-1.1h0c-0.3,0.6-1.1,1.3-2.3,1.3c-1.1,0-2.4-0.6-2.4-3.1v-4.1
				h1.3v3.9c0,1.3,0.4,2.2,1.6,2.2c0.9,0,1.5-0.6,1.7-1.2c0.1-0.2,0.1-0.4,0.1-0.7v-4.3h1.3V316.5z"/>
			<path class="st7" d="M211,308.1h1.3v10.3H211V308.1z"/>
			<path class="st7" d="M215.1,315.1c0,1.7,1.1,2.4,2.4,2.4c0.9,0,1.5-0.2,1.9-0.4l0.2,0.9c-0.4,0.2-1.2,0.4-2.3,0.4
				c-2.2,0-3.5-1.4-3.5-3.5c0-2.1,1.2-3.8,3.3-3.8c2.3,0,2.9,2,2.9,3.3c0,0.3,0,0.5,0,0.6H215.1z M218.9,314.2
				c0-0.8-0.3-2.1-1.8-2.1c-1.3,0-1.9,1.2-2,2.1H218.9z"/>
			<path class="st7" d="M224.4,318.4v-0.8l1-1c2.4-2.3,3.5-3.5,3.5-4.9c0-1-0.5-1.8-1.9-1.8c-0.9,0-1.6,0.4-2,0.8l-0.4-0.9
				c0.7-0.6,1.6-1,2.7-1c2,0,2.9,1.4,2.9,2.7c0,1.7-1.3,3.1-3.2,5.1l-0.8,0.7v0h4.2v1.1H224.4z"/>
			<path class="st7" d="M237.2,309.9c-0.3,0-0.6,0-1,0.1c-2,0.3-3.1,1.8-3.3,3.3h0c0.4-0.6,1.2-1.1,2.3-1.1c1.7,0,2.8,1.2,2.8,3
				c0,1.7-1.2,3.3-3.1,3.3c-2,0-3.3-1.6-3.3-4c0-1.9,0.7-3.3,1.6-4.2c0.8-0.8,1.8-1.2,3-1.4c0.4-0.1,0.7-0.1,0.9-0.1V309.9z
				 M236.8,315.3c0-1.3-0.8-2.2-1.9-2.2c-0.8,0-1.5,0.5-1.8,1.2c-0.1,0.1-0.1,0.3-0.1,0.6c0,1.6,0.7,2.7,2.1,2.7
				C236.1,317.6,236.8,316.7,236.8,315.3z"/>
		</g>
	</g>
	<path class="st6" d="M363,184.4h-22.4c-4.8,0-8.6-3.9-8.6-8.6V175c0-4.8,3.9-8.6,8.6-8.6H363c4.8,0,8.6,3.9,8.6,8.6v0.7
		C371.6,180.5,367.7,184.4,363,184.4z"/>
	<path class="st6" d="M446,211.8h-22.4c-4.8,0-8.6-3.9-8.6-8.6v-0.7c0-4.8,3.9-8.6,8.6-8.6H446c4.8,0,8.6,3.9,8.6,8.6v0.7
		C454.6,207.9,450.7,211.8,446,211.8z"/>
	<g>
		<path class="st7" d="M356.3,179.3v1.4h-7.1v-1.3l3.5-2.7c1.7-1.3,2-2.2,2-3.1c0-1.1-0.9-1.9-2.5-1.9c-1.3,0-2.4,0.6-3.1,1.2v-1.6
			c0.9-0.6,1.9-1,3.3-1c2.3,0,3.7,1.2,3.7,3.2c0,1.3-0.6,2.5-2.4,3.9l-2.6,2H356.3z"/>
	</g>
	<path class="st6" d="M500.5,266.3h-22.4c-4.8,0-8.6-3.9-8.6-8.6V257c0-4.8,3.9-8.6,8.6-8.6h22.4c4.8,0,8.6,3.9,8.6,8.6v0.7
		C509.2,262.5,505.3,266.3,500.5,266.3z"/>
	<path class="st6" d="M632.9,239.3h-22.4c-4.8,0-8.6-3.9-8.6-8.6v-0.7c0-4.8,3.9-8.6,8.6-8.6h22.4c4.8,0,8.6,3.9,8.6,8.6v0.7
		C641.6,235.4,637.7,239.3,632.9,239.3z"/>
	<g>
		<path class="st7" d="M438.3,205c0,1.8-1.6,3.1-4,3.1c-2.4,0-4.1-1.3-4.1-3.1c0-1.3,0.8-2.1,2.1-2.5c-1.2-0.4-1.8-1.2-1.8-2.3
			c0-1.5,1.5-2.8,3.7-2.8c2.2,0,3.7,1.2,3.7,2.8c0,1.1-0.7,1.9-1.8,2.3C437.5,202.8,438.3,203.7,438.3,205z M436.8,204.9
			c0-1.1-1-1.8-2.5-1.8c-1.6,0-2.6,0.7-2.6,1.8c0,1.1,0.9,1.9,2.5,1.9C435.8,206.8,436.8,205.9,436.8,204.9z M432,200.3
			c0,1,0.8,1.7,2.2,1.7c1.4,0,2.2-0.7,2.2-1.7s-0.8-1.6-2.2-1.6C432.9,198.7,432,199.4,432,200.3z"/>
	</g>
	<g>
		<path class="st7" d="M621.5,233.7v1.4h-7.1v-1.3l3.5-2.7c1.7-1.3,2-2.2,2-3.1c0-1.2-0.9-1.9-2.5-1.9c-1.3,0-2.4,0.6-3.1,1.2v-1.6
			c0.9-0.6,1.9-1,3.3-1c2.3,0,3.7,1.2,3.7,3.2c0,1.3-0.6,2.5-2.4,3.9l-2.6,2H621.5z"/>
		<path class="st7" d="M631.7,232.4h-1.9v2.6h-1.4v-2.6h-5.6V231l5-6.2h2v6.4h1.9V232.4z M628.3,231.2v-5.1l-4.1,5.1H628.3z"/>
	</g>
	<path class="st6" d="M500.5,321.1h-22.4c-4.8,0-8.6-3.9-8.6-8.6v-0.7c0-4.8,3.9-8.6,8.6-8.6h22.4c4.8,0,8.6,3.9,8.6,8.6v0.7
		C509.2,317.3,505.3,321.1,500.5,321.1z"/>
	<path class="st6" d="M351.1,293.5h-22.4c-4.8,0-8.6-3.9-8.6-8.6v-0.7c0-4.8,3.9-8.6,8.6-8.6h22.4c4.8,0,8.6,3.9,8.6,8.6v0.7
		C359.7,289.7,355.8,293.5,351.1,293.5z"/>
	<g>
		<path class="st7" d="M485.9,252v10.2h-1.5v-8.6l-3.2,1.9v-1.5l3.4-2.1H485.9z"/>
		<path class="st7" d="M495.6,260.9v1.4h-7.1v-1.3l3.5-2.7c1.7-1.3,2-2.2,2-3.1c0-1.2-0.9-1.9-2.5-1.9c-1.3,0-2.4,0.6-3.1,1.2v-1.6
			c0.9-0.6,1.9-1,3.3-1c2.3,0,3.7,1.2,3.7,3.2c0,1.3-0.6,2.5-2.4,3.9l-2.6,2H495.6z"/>
	</g>
	<g>
		<path class="st7" d="M340.8,279.2v10.2h-1.5v-8.6l-3.2,1.9v-1.5l3.4-2.1H340.8z"/>
	</g>
	<g>
		<path class="st7" d="M485.9,307.3v10.2h-1.5v-8.6l-3.2,1.9v-1.5l3.4-2.1H485.9z"/>
		<path class="st7" d="M495.6,316.1v1.4h-7.1v-1.3l3.5-2.7c1.7-1.3,2-2.2,2-3.1c0-1.2-0.9-1.9-2.5-1.9c-1.3,0-2.4,0.6-3.1,1.2v-1.6
			c0.9-0.6,1.9-1,3.3-1c2.3,0,3.7,1.2,3.7,3.2c0,1.3-0.6,2.5-2.4,3.9l-2.6,2H495.6z"/>
	</g>
</g>
<g>
</g>
<g>
</g>
<g>
</g>
<g>
</g>
<g>
</g>
<g>
</g>
</svg>
