<?xml version="1.0" encoding="utf-8"?>
<!-- Generator: Adobe Illustrator 21.1.0, SVG Export Plug-In . SVG Version: 6.00 Build 0)  -->
<svg version="1.1" id="Layer_1" xmlns="http://www.w3.org/2000/svg" xmlns:xlink="http://www.w3.org/1999/xlink" x="0px" y="0px"
	 viewBox="0 0 721 421" style="enable-background:new 0 0 721 421;" xml:space="preserve">
<style type="text/css">
	.st0{fill:#FFFFFF;}
	.st1{fill:#676767;}
	.st2{fill:#1E305E;}
	.st3{fill:none;stroke:#1E305E;stroke-miterlimit:10;}
	.st4{fill:#9FAFB8;}
	.st5{fill:#B58B5A;stroke:#9FAFB8;stroke-miterlimit:10;}
	.st6{fill:#F6F6F6;}
	.st7{fill:#CFA271;}
	.st8{fill:#B58B5A;}
</style>
<g>
	<rect x="36.5" y="37.3" class="st0" width="648" height="347.2"/>
	<g>
		<path class="st1" d="M72.8,81.6c0-3,2.3-5.1,5.5-5.1c1.5,0,2.7,0.4,3.5,1.1V79c-0.9-0.7-2-1.2-3.4-1.2c-2.5,0-4.1,1.6-4.1,3.7
			s1.6,3.8,4.1,3.8c1.4,0,2.6-0.5,3.5-1.3v1.4c-1,0.9-2.2,1.2-3.6,1.2C74.8,86.6,72.8,84.4,72.8,81.6z"/>
		<path class="st1" d="M92.6,76.8v9.5h-1.4V82h-5.9v4.2H84v-9.5h1.4v4.1h5.9v-4.1H92.6z"/>
		<path class="st1" d="M101.3,83.7h-4.5l-1,2.6h-1.4l3.8-9.5h1.8l3.8,9.5h-1.4L101.3,83.7z M100.8,82.6L99,77.9l-1.8,4.6H100.8z"/>
		<path class="st1" d="M112.2,85v1.3h-6.7v-9.5h1.4V85H112.2z"/>
		<path class="st1" d="M120.6,85v1.3h-6.7v-9.5h1.4V85H120.6z"/>
		<path class="st1" d="M129.3,85.1v1.2h-7.1v-9.5h7V78h-5.7v2.7h5.3v1.2h-5.3v3.2H129.3z"/>
		<path class="st1" d="M140.2,76.8v9.5h-1.8l-5.5-8.3v8.3h-1.3v-9.5h2l5.4,8v-8H140.2z"/>
		<path class="st1" d="M152.4,81.1v0.7c0,3.1-1.9,4.8-4.7,4.8c-3.3,0-5.4-2.2-5.4-5c0-2.8,2-5,5.6-5c1.7,0,2.9,0.4,3.8,1V79
			c-0.9-0.7-2.2-1.2-3.8-1.2c-2.8,0-4.2,1.6-4.2,3.7c0,2.2,1.6,3.8,4,3.8c2,0,3.3-1.1,3.4-3h-6l0.3-1.2H152.4z"/>
		<path class="st1" d="M161.6,85.1v1.2h-7.1v-9.5h7V78h-5.7v2.7h5.3v1.2h-5.3v3.2H161.6z"/>
		<path class="st1" d="M167.6,76.8h4.2c3.3,0,5,2,5,4.7c0,2.9-1.9,4.8-5.3,4.8h-3.8V76.8z M171.4,85.1c2.5,0,3.9-1.3,3.9-3.6
			c0-2.1-1.1-3.5-3.7-3.5h-2.7v7.1H171.4z"/>
		<path class="st1" d="M178.9,76.8h1.4v9.5h-1.4V76.8z"/>
		<path class="st1" d="M182.5,85.3v-1.4c1.1,0.8,2.3,1.3,3.7,1.3c1.5,0,2.4-0.5,2.4-1.6c0-0.7-0.4-1.1-1.7-1.5l-2.1-0.5
			c-1.7-0.5-2.3-1.3-2.3-2.4c0-1.6,1.4-2.7,3.7-2.7c1.5,0,2.6,0.5,3.3,1V79c-0.9-0.7-2-1.2-3.3-1.2c-1.5,0-2.3,0.5-2.3,1.4
			c0,0.6,0.4,1,1.5,1.3l2.1,0.5c1.8,0.5,2.5,1.4,2.5,2.6c0,1.7-1.4,2.9-3.7,2.9C184.9,86.5,183.5,86.1,182.5,85.3z"/>
		<path class="st1" d="M199.7,79.7c0,1.7-1.3,2.9-3.5,2.9h-2.7v3.6h-1.4v-9.5h4.4C198.4,76.8,199.7,78,199.7,79.7z M198.3,79.7
			c0-1.1-0.8-1.8-2.1-1.8h-2.8v3.5h2.6C197.5,81.5,198.3,80.9,198.3,79.7z"/>
		<path class="st1" d="M200.8,81.5c0-2.8,2.2-5,5.3-5c3,0,5.2,2.2,5.2,5c0,2.8-2.2,5-5.2,5C203,86.6,200.8,84.3,200.8,81.5z
			 M209.9,81.5c0-2.1-1.5-3.8-3.8-3.8c-2.4,0-3.9,1.6-3.9,3.8c0,2.1,1.5,3.8,3.9,3.8C208.4,85.3,209.9,83.7,209.9,81.5z"/>
		<path class="st1" d="M212.8,85.3v-1.4c1.1,0.8,2.3,1.3,3.7,1.3c1.5,0,2.4-0.5,2.4-1.6c0-0.7-0.4-1.1-1.7-1.5l-2.1-0.5
			c-1.7-0.5-2.3-1.3-2.3-2.4c0-1.6,1.4-2.7,3.7-2.7c1.5,0,2.6,0.5,3.3,1V79c-0.9-0.7-2-1.2-3.3-1.2c-1.5,0-2.3,0.5-2.3,1.4
			c0,0.6,0.4,1,1.5,1.3l2.1,0.5c1.8,0.5,2.5,1.4,2.5,2.6c0,1.7-1.4,2.9-3.7,2.9C215.2,86.5,213.8,86.1,212.8,85.3z"/>
		<path class="st1" d="M222.4,76.8h1.4v9.5h-1.4V76.8z"/>
		<path class="st1" d="M233.5,78h-3.3v8.3h-1.3V78h-3.4v-1.2h8V78z"/>
		<path class="st1" d="M235.1,76.8h1.4v9.5h-1.4V76.8z"/>
		<path class="st1" d="M238.6,81.5c0-2.8,2.2-5,5.3-5c3,0,5.2,2.2,5.2,5c0,2.8-2.2,5-5.2,5C240.8,86.6,238.6,84.3,238.6,81.5z
			 M247.7,81.5c0-2.1-1.5-3.8-3.8-3.8c-2.4,0-3.9,1.6-3.9,3.8c0,2.1,1.5,3.8,3.9,3.8C246.2,85.3,247.7,83.7,247.7,81.5z"/>
		<path class="st1" d="M259.9,76.8v9.5h-1.8l-5.5-8.3v8.3h-1.3v-9.5h2l5.4,8v-8H259.9z"/>
		<path class="st2" d="M91,123.3c0,3.7-2.7,6.5-7.6,6.5h-8.1V107h8.5c3.8,0,6.2,2.6,6.2,5.8c0,2.2-1.1,4-3.3,4.7
			C89.6,118.3,91,120.5,91,123.3z M78.5,109.8v7h4.9c2.3,0,3.5-1.4,3.5-3.4c0-2.2-1.3-3.6-3.7-3.6H78.5z M87.7,123.1
			c0-2.3-1.5-3.9-4.2-3.9h-5v7.7H83C86.2,127,87.7,125.5,87.7,123.1z"/>
		<path class="st2" d="M109,113.5L98.7,136h-3.2l3.8-7.8l-6.2-14.7h3.2l4.6,11.3l4.9-11.3H109z"/>
		<path class="st2" d="M118.9,118.4c0-6.9,4.7-12.1,11.4-12.1c6.7,0,11.4,5.2,11.4,12.1c0,6.9-4.7,12.1-11.4,12.1
			C123.6,130.4,118.9,125.3,118.9,118.4z M138.4,118.4c0-5.2-3.1-9-8.1-9c-5,0-8.1,3.9-8.1,9c0,5.2,3.1,9,8.1,9
			C135.3,127.4,138.4,123.5,138.4,118.4z"/>
		<path class="st2" d="M159.6,113.5v16.3h-3v-3c-0.9,2.3-2.7,3.5-5.1,3.5c-3.6,0-5.9-2.3-5.9-6.3v-10.4h3v9.6c0,3.1,1.3,4.6,3.8,4.6
			c2.7,0,4.2-2.1,4.2-5.7v-8.5H159.6z"/>
		<path class="st2" d="M174,116h-4.4v13.8h-3V116h-4v-2.5h4v-4.1l3-1v5.1h4.4V116z"/>
		<path class="st2" d="M175.5,121.6c0-5,3.4-8.6,8.5-8.6c2.4,0,3.9,0.6,5.1,1.3v3.3c-1.5-1.3-3.1-1.9-4.9-1.9
			c-3.4,0-5.6,2.4-5.6,5.8c0,3.4,2,6,5.9,6c1.8,0,3.6-0.7,4.8-1.7v2.9c-1.6,1-3.2,1.5-5.3,1.5C178.9,130.3,175.5,126.5,175.5,121.6z
			"/>
		<path class="st2" d="M192,121.6c0-4.9,3.1-8.6,7.9-8.6c4.9,0,8,3.8,8,8.6s-3.1,8.6-8,8.6C195.1,130.3,192,126.5,192,121.6z
			 M204.9,121.6c0-3.5-1.8-5.9-4.9-5.9c-3.1,0-4.9,2.4-4.9,5.9s1.8,5.9,4.9,5.9C203,127.5,204.9,125.1,204.9,121.6z"/>
		<path class="st2" d="M234.1,119.1v10.7h-3v-10.2c0-2.6-1.1-3.9-3.1-3.9s-3.5,1.5-3.5,3.6v10.5h-3v-10.5c0-2.3-1.2-3.6-3.2-3.6
			c-2,0-3.4,1.8-3.5,4.2v10h-3v-16.3h3v2.7c0.9-2.1,2.4-3.2,4.6-3.2c2.1,0,3.8,1.2,4.5,3.1c0.9-1.9,2.5-3.1,4.8-3.1
			C232.1,113,234.1,115.3,234.1,119.1z"/>
		<path class="st2" d="M252.8,122.2H241c0.3,3.5,2.4,5.4,5.9,5.4c2,0,4-0.7,5.3-1.8v2.9c-1.2,1-3.4,1.7-5.6,1.7
			c-5.3,0-8.7-3.4-8.7-8.7c0-4.9,2.9-8.5,8-8.5c4.2,0,7,2.5,7,7V122.2z M241,119.9h8.8c0-2.8-1.7-4.2-4.2-4.2
			C242.9,115.7,241.4,117.4,241,119.9z"/>
	</g>
	<rect x="0.5" y="0.5" class="st3" width="720" height="420"/>
	<g>
		<g>
			<g>
				<g>
					<path class="st4" d="M309,347.2c-2.2,0-3.8-1.3-3.8-3.1c0-1.9,1.6-3.2,3.8-3.2c2.3,0,3.8,1.3,3.8,3.2
						C312.7,345.9,311.2,347.2,309,347.2z M309,342c-1.7,0-2.8,0.8-2.8,2.1c0,1.3,1.1,2,2.8,2c1.7,0,2.8-0.8,2.8-2
						C311.7,342.8,310.7,342,309,342z"/>
				</g>
				<g>
					<path class="st4" d="M375.4,341.3c1.5,0,2.6,1.1,2.6,2.9c0,0.9-0.3,1.8-0.7,2.4h-1c0.5-0.7,0.7-1.4,0.7-2.2c0-1.3-0.7-2-1.6-2
						c-0.9,0-1.5,0.6-1.5,2c0,0.9,0.2,1.6,0.5,2.1h-3.8v-4.8h1v3.9h1.8c-0.2-0.5-0.3-1-0.3-1.7C373,342.2,374.1,341.3,375.4,341.3z"
						/>
				</g>
				<g>
					<path class="st4" d="M435.8,346.6h7.2v1h-6.1l1.4,2.3h-1l-1.5-2.4V346.6z"/>
					<path class="st4" d="M439.4,344.8c-2.2,0-3.8-1.3-3.8-3.1c0-1.9,1.6-3.2,3.8-3.2c2.3,0,3.8,1.3,3.8,3.2
						C443.2,343.6,441.7,344.8,439.4,344.8z M439.4,339.6c-1.7,0-2.8,0.8-2.8,2.1c0,1.3,1.1,2,2.8,2c1.7,0,2.8-0.8,2.8-2
						C442.2,340.4,441.1,339.6,439.4,339.6z"/>
				</g>
				<g>
					<path class="st4" d="M501,346.2h7.2v1h-6.1l1.4,2.3h-1L501,347V346.2z"/>
					<path class="st4" d="M505.8,338.9c1.5,0,2.6,1.1,2.6,2.9c0,0.9-0.3,1.8-0.7,2.4h-1c0.5-0.7,0.7-1.4,0.7-2.2c0-1.3-0.7-2-1.6-2
						c-0.9,0-1.5,0.6-1.5,2c0,0.9,0.2,1.6,0.5,2.1H501v-4.8h1v3.9h1.8c-0.2-0.5-0.3-1-0.3-1.7C503.5,339.8,504.6,338.9,505.8,338.9z
						"/>
				</g>
				<g>
					<path class="st4" d="M572.5,345.3h1v5.1h-0.9l-1.9-2.5c-0.9-1.2-1.5-1.4-2.2-1.4c-0.8,0-1.4,0.6-1.4,1.7c0,0.9,0.4,1.7,0.9,2.2
						h-1.2c-0.4-0.6-0.7-1.4-0.7-2.4c0-1.6,0.9-2.6,2.3-2.6c0.9,0,1.8,0.4,2.8,1.7l1.4,1.8V345.3z"/>
					<path class="st4" d="M569.9,344c-2.2,0-3.8-1.3-3.8-3.1c0-1.9,1.6-3.2,3.8-3.2c2.3,0,3.8,1.3,3.8,3.2
						C573.7,342.8,572.1,344,569.9,344z M569.9,338.8c-1.7,0-2.8,0.8-2.8,2.1c0,1.3,1.1,2,2.8,2c1.7,0,2.8-0.8,2.8-2
						C572.7,339.6,571.6,338.8,569.9,338.8z"/>
				</g>
				<g>
					<path class="st4" d="M637.8,344.8h1v5.1h-0.9l-1.9-2.5c-0.9-1.2-1.5-1.4-2.2-1.4c-0.8,0-1.4,0.6-1.4,1.7c0,0.9,0.4,1.7,0.9,2.2
						H632c-0.4-0.6-0.7-1.4-0.7-2.4c0-1.6,0.9-2.6,2.3-2.6c0.9,0,1.8,0.4,2.8,1.7l1.4,1.8V344.8z"/>
					<path class="st4" d="M636.3,338.1c1.5,0,2.6,1.1,2.6,2.9c0,0.9-0.3,1.8-0.7,2.4h-1c0.5-0.7,0.7-1.4,0.7-2.2c0-1.3-0.7-2-1.6-2
						c-0.9,0-1.5,0.6-1.5,2c0,0.9,0.2,1.6,0.5,2.1h-3.8v-4.8h1v3.9h1.8c-0.2-0.5-0.3-1-0.3-1.7C634,339,635,338.1,636.3,338.1z"/>
				</g>
			</g>
			<g>
				<g>
					<line class="st5" x1="309.3" y1="333.6" x2="309.3" y2="327.2"/>
					<line class="st5" x1="374.5" y1="333.6" x2="374.5" y2="327.2"/>
					<line class="st5" x1="439.8" y1="333.6" x2="439.8" y2="327.2"/>
					<line class="st5" x1="505" y1="333.6" x2="505" y2="327.2"/>
					<line class="st5" x1="570.2" y1="333.6" x2="570.2" y2="327.2"/>
					<line class="st5" x1="635.5" y1="333.6" x2="635.5" y2="327.2"/>
				</g>
			</g>
			<g>
				<g>
					<g>
						<path class="st6" d="M310.3,306.6h323.1c1.3,0,2.3,0.1,2.3,0.1v3.6c0,0.1-1,0.1-2.3,0.1H310.3c-1.3,0,0-0.1,0-0.1v-3.6
							C310.3,306.6,309,306.6,310.3,306.6z"/>
					</g>
				</g>
				<g>
					<g>
						<path class="st6" d="M312.5,279.2h320.8c1.3,0,2.3,0.1,2.3,0.1v3.6c0,0.1-1,0.1-2.3,0.1H312.5c-1.3,0-2.3-0.1-2.3-0.1v-3.6
							C310.3,279.3,311.3,279.2,312.5,279.2z"/>
					</g>
				</g>
				<g>
					<g>
						<path class="st6" d="M310.3,251.9h323.1c1.3,0,2.3,0.1,2.3,0.1v3.6c0,0.1-1,0.1-2.3,0.1H310.3c-1.3,0,0-0.1,0-0.1v-3.6
							C310.3,252,309,251.9,310.3,251.9z"/>
					</g>
				</g>
				<g>
					<g>
						<path class="st6" d="M310.3,224.6h323.1c1.3,0,2.3,0.1,2.3,0.1v3.6c0,0.1-1,0.1-2.3,0.1H310.3c-1.3,0,0-0.1,0-0.1v-3.6
							C310.3,224.7,309,224.6,310.3,224.6z"/>
					</g>
				</g>
				<g>
					<g>
						<path class="st6" d="M310.3,197.3h329.1c-4.7,0-3.7,0.1-3.7,0.1v3.6c0,0.1-1,0.1,3.7,0.1H310.3c-7.3,0,0-0.1,0-0.1v-3.6
							C310.3,197.4,303,197.3,310.3,197.3z"/>
					</g>
				</g>
				<g>
					<g>
						<path class="st6" d="M310.3,170h323.1c1.3,0,2.3,0.1,2.3,0.1v3.6c0,0.1-1,0.1-2.3,0.1H310.3c-1.3,0,0-0.1,0-0.1v-3.6
							C310.3,170.1,309,170,310.3,170z"/>
					</g>
				</g>
			</g>
		</g>
		<g>
			<g>
				<g>
					<path class="st7" d="M311.4,306.6h25.4c0.5,0,0.9,0.1,0.9,0.1v3.6c0,0.1-0.4,0.1-0.9,0.1h-25.4c-0.5,0-0.9-0.1-0.9-0.1v-3.6
						C310.5,306.6,310.9,306.6,311.4,306.6z"/>
				</g>
				<g>
					<path class="st7" d="M311.4,279.3h194c0.5,0,0.9,0.1,0.9,0.1v3.6c0,0.1-0.4,0.1-0.9,0.1h-194c-0.5,0-0.9-0.1-0.9-0.1v-3.6
						C310.5,279.3,310.9,279.3,311.4,279.3z"/>
				</g>
				<g>
					<path class="st7" d="M311.4,251.9h161.3c0.5,0,0.9,0.1,0.9,0.1v3.6c0,0.1-0.4,0.1-0.9,0.1H311.4c-0.5,0-0.9-0.1-0.9-0.1v-3.6
						C310.5,252,310.9,251.9,311.4,251.9z"/>
				</g>
				<g>
					<path class="st7" d="M311.4,224.6h324.5c0.5,0,0.9,0.1,0.9,0.1v3.6c0,0.1-0.4,0.1-0.9,0.1H311.4c-0.5,0-0.9-0.1-0.9-0.1v-3.6
						C310.5,224.7,310.9,224.6,311.4,224.6z"/>
				</g>
				<g>
					<path class="st7" d="M311.4,197.3h107c0.5,0,0.9,0.1,0.9,0.1v3.6c0,0.1-0.4,0.1-0.9,0.1h-107c-0.5,0-0.9-0.1-0.9-0.1v-3.6
						C310.5,197.4,310.9,197.3,311.4,197.3z"/>
				</g>
				<g>
					<path class="st7" d="M311.4,170h25.4c0.5,0,0.9,0.1,0.9,0.1v3.6c0,0.1-0.4,0.1-0.9,0.1h-25.4c-0.5,0-0.9-0.1-0.9-0.1v-3.6
						C310.5,170.1,310.9,170,311.4,170z"/>
				</g>
			</g>
		</g>
		<g>
			<g>
				<path class="st8" d="M89.7,173h-4.6l-1,3h-1.6l3.9-11.4h2.1l3.9,11.4h-1.7L89.7,173z M89.3,171.7l-1.9-5.7l-1.8,5.7H89.3z"/>
				<path class="st8" d="M101.3,164.3V176h-1.5v-1.7c-0.4,1-1.3,1.9-2.8,1.9c-2.1,0-3.6-1.7-3.6-4.3c0-2.6,1.7-4.4,3.7-4.4
					c1.2,0,2.1,0.5,2.7,1.7v-5H101.3z M99.8,171.9c0-1.7-0.9-2.9-2.4-2.9c-1.5,0-2.5,1.2-2.5,3c0,1.8,0.9,2.9,2.4,2.9
					C98.8,174.9,99.8,173.6,99.8,171.9z"/>
				<path class="st8" d="M114.9,170.7v5.3h-1.5v-5.1c0-1.3-0.5-2-1.5-2c-1,0-1.7,0.8-1.8,1.8v5.3h-1.5v-5.3c0-1.2-0.6-1.8-1.6-1.8
					c-1,0-1.7,0.9-1.7,2.1v5h-1.5v-8.2h1.5v1.4c0.4-1,1.2-1.6,2.3-1.6c1.1,0,1.9,0.6,2.3,1.6c0.4-1,1.3-1.6,2.4-1.6
					C113.9,167.6,114.9,168.8,114.9,170.7z"/>
				<path class="st8" d="M117.1,165.4c0-0.5,0.4-0.9,1-0.9s1,0.4,1,0.9c0,0.5-0.4,1-1,1S117.1,165.9,117.1,165.4z M117.4,167.9h1.5
					v8.2h-1.5V167.9z"/>
				<path class="st8" d="M126.1,169.1h-2.2v6.9h-1.5v-6.9h-2v-1.3h2v-2l1.5-0.5v2.5h2.2V169.1z"/>
				<path class="st8" d="M132.3,169.1h-2.2v6.9h-1.5v-6.9h-2v-1.3h2v-2l1.5-0.5v2.5h2.2V169.1z"/>
				<path class="st8" d="M140.6,172.2h-5.9c0.1,1.7,1.2,2.7,3,2.7c1,0,2-0.4,2.6-0.9v1.4c-0.6,0.5-1.7,0.8-2.8,0.8
					c-2.6,0-4.4-1.7-4.4-4.4c0-2.5,1.4-4.3,4-4.3c2.1,0,3.5,1.3,3.5,3.5V172.2z M134.7,171.1h4.4c0-1.4-0.8-2.1-2.1-2.1
					C135.6,169,134.9,169.8,134.7,171.1z"/>
				<path class="st8" d="M149.9,164.3V176h-1.5v-1.7c-0.4,1-1.3,1.9-2.8,1.9c-2.1,0-3.6-1.7-3.6-4.3c0-2.6,1.7-4.4,3.7-4.4
					c1.2,0,2.1,0.5,2.7,1.7v-5H149.9z M148.5,171.9c0-1.7-0.9-2.9-2.4-2.9c-1.5,0-2.5,1.2-2.5,3c0,1.8,0.9,2.9,2.4,2.9
					C147.5,174.9,148.5,173.6,148.5,171.9z"/>
			</g>
			<g>
				<path class="st8" d="M89.7,200.7h-4.6l-1,3h-1.6l3.9-11.4h2.1l3.9,11.4h-1.7L89.7,200.7z M89.3,199.4l-1.9-5.7l-1.8,5.7H89.3z"
					/>
				<path class="st8" d="M101.3,192v11.7h-1.5v-1.7c-0.4,1-1.3,1.9-2.8,1.9c-2.1,0-3.6-1.7-3.6-4.3c0-2.6,1.7-4.4,3.7-4.4
					c1.2,0,2.1,0.5,2.7,1.7v-5H101.3z M99.8,199.6c0-1.7-0.9-2.9-2.4-2.9c-1.5,0-2.5,1.2-2.5,3c0,1.8,0.9,2.9,2.4,2.9
					C98.8,202.6,99.8,201.4,99.8,199.6z"/>
				<path class="st8" d="M114.9,198.4v5.3h-1.5v-5.1c0-1.3-0.5-2-1.5-2c-1,0-1.7,0.8-1.8,1.8v5.3h-1.5v-5.3c0-1.2-0.6-1.8-1.6-1.8
					c-1,0-1.7,0.9-1.7,2.1v5h-1.5v-8.2h1.5v1.4c0.4-1,1.2-1.6,2.3-1.6c1.1,0,1.9,0.6,2.3,1.6c0.4-1,1.3-1.6,2.4-1.6
					C113.9,195.4,114.9,196.5,114.9,198.4z"/>
				<path class="st8" d="M117.1,193.1c0-0.5,0.4-0.9,1-0.9s1,0.4,1,0.9c0,0.5-0.4,1-1,1S117.1,193.7,117.1,193.1z M117.4,195.6h1.5
					v8.2h-1.5V195.6z"/>
				<path class="st8" d="M126.1,196.9h-2.2v6.9h-1.5v-6.9h-2v-1.3h2v-2l1.5-0.5v2.5h2.2V196.9z"/>
				<path class="st8" d="M132.3,196.9h-2.2v6.9h-1.5v-6.9h-2v-1.3h2v-2l1.5-0.5v2.5h2.2V196.9z"/>
				<path class="st8" d="M140.6,199.9h-5.9c0.1,1.7,1.2,2.7,3,2.7c1,0,2-0.4,2.6-0.9v1.4c-0.6,0.5-1.7,0.8-2.8,0.8
					c-2.6,0-4.4-1.7-4.4-4.4c0-2.5,1.4-4.3,4-4.3c2.1,0,3.5,1.3,3.5,3.5V199.9z M134.7,198.8h4.4c0-1.4-0.8-2.1-2.1-2.1
					C135.6,196.7,134.9,197.6,134.7,198.8z"/>
				<path class="st8" d="M149.9,192v11.7h-1.5v-1.7c-0.4,1-1.3,1.9-2.8,1.9c-2.1,0-3.6-1.7-3.6-4.3c0-2.6,1.7-4.4,3.7-4.4
					c1.2,0,2.1,0.5,2.7,1.7v-5H149.9z M148.5,199.6c0-1.7-0.9-2.9-2.4-2.9c-1.5,0-2.5,1.2-2.5,3c0,1.8,0.9,2.9,2.4,2.9
					C147.5,202.6,148.5,201.4,148.5,199.6z"/>
				<path class="st8" d="M157,192.3h1.6v11.4H157V192.3z"/>
				<path class="st8" d="M168.4,198.6v5.1h-1.5V199c0-1.6-0.6-2.3-1.8-2.3c-1.4,0-2.2,1-2.2,2.7v4.4h-1.5v-8.2h1.5v1.4
					c0.5-1.1,1.4-1.6,2.7-1.6C167.3,195.4,168.4,196.6,168.4,198.6z"/>
				<path class="st8" d="M183.1,195.9c0,2.2-1.4,3.7-4,3.7H177v4.1h-1.6v-11.4h4.1C181.7,192.3,183.1,193.8,183.1,195.9z
					 M181.4,195.9c0-1.4-0.8-2.2-2.3-2.2H177v4.5h2C180.6,198.2,181.4,197.4,181.4,195.9z"/>
				<path class="st8" d="M190.9,198.8v5h-1.5v-1.1c-0.4,0.8-1.2,1.3-2.3,1.3c-1.6,0-2.8-1.2-2.8-2.7c0-1.6,1.2-2.7,3-2.7
					c1,0,1.8,0.4,2.2,1V199c0-1.4-0.9-2.3-2.2-2.3c-1,0-1.8,0.4-2.5,1.1v-1.5c0.7-0.5,1.6-0.9,2.7-0.9
					C189.5,195.4,190.9,196.6,190.9,198.8z M189.4,201.2c0-0.8-0.7-1.5-1.8-1.5c-1.2,0-1.8,0.6-1.8,1.5c0,0.9,0.6,1.5,1.8,1.5
					C188.7,202.8,189.4,202.1,189.4,201.2z"/>
				<path class="st8" d="M197.8,195.8v1.4c-0.4-0.3-0.8-0.4-1.3-0.4c-1,0-1.7,0.9-1.7,2.5v4.4h-1.5v-8.2h1.5v1.6
					c0.4-1.1,1.1-1.8,2-1.8C197.1,195.5,197.5,195.6,197.8,195.8z"/>
				<path class="st8" d="M204.1,196.9h-2.2v6.9h-1.5v-6.9h-2v-1.3h2v-2l1.5-0.5v2.5h2.2V196.9z"/>
			</g>
			<g>
				<path class="st8" d="M90.8,230.1v1.4h-7.1v-11.4h7v1.4h-5.4v3.3h5.1v1.4h-5.1v3.9H90.8z"/>
				<path class="st8" d="M97.8,231.5l-2.1-3.2l-2.1,3.2h-1.7l2.9-4.3l-2.7-3.9h1.8l1.9,3l1.9-3h1.7l-2.7,3.9l2.9,4.3H97.8z"/>
				<path class="st8" d="M100.2,227.4c0-2.5,1.7-4.3,4.2-4.3c1.2,0,2,0.3,2.5,0.7v1.6c-0.8-0.7-1.5-0.9-2.5-0.9
					c-1.7,0-2.8,1.2-2.8,2.9s1,3,3,3c0.9,0,1.8-0.3,2.4-0.8v1.5c-0.8,0.5-1.6,0.7-2.6,0.7C101.9,231.7,100.2,229.9,100.2,227.4z"/>
				<path class="st8" d="M109,219.7h1.5v11.7H109V219.7z"/>
				<path class="st8" d="M120,223.3v8.2h-1.5V230c-0.5,1.1-1.4,1.7-2.5,1.7c-1.8,0-2.9-1.1-2.9-3.2v-5.2h1.5v4.8
					c0,1.5,0.7,2.3,1.9,2.3c1.3,0,2.1-1,2.1-2.8v-4.3H120z"/>
				<path class="st8" d="M129.9,219.7v11.7h-1.5v-1.7c-0.4,1-1.3,1.9-2.8,1.9c-2.1,0-3.6-1.7-3.6-4.3c0-2.6,1.7-4.4,3.7-4.4
					c1.2,0,2.1,0.5,2.7,1.7v-5H129.9z M128.4,227.4c0-1.7-0.9-2.9-2.4-2.9c-1.5,0-2.5,1.2-2.5,3s0.9,2.9,2.4,2.9
					C127.4,230.4,128.4,229.1,128.4,227.4z"/>
				<path class="st8" d="M139.3,227.7h-5.9c0.1,1.7,1.2,2.7,3,2.7c1,0,2-0.4,2.6-0.9v1.4c-0.6,0.5-1.7,0.8-2.8,0.8
					c-2.6,0-4.4-1.7-4.4-4.4c0-2.5,1.4-4.3,4-4.3c2.1,0,3.5,1.3,3.5,3.5V227.7z M133.4,226.6h4.4c0-1.4-0.8-2.1-2.1-2.1
					C134.4,224.4,133.6,225.3,133.4,226.6z"/>
				<path class="st8" d="M148.6,219.7v11.7h-1.5v-1.7c-0.4,1-1.3,1.9-2.8,1.9c-2.1,0-3.6-1.7-3.6-4.3c0-2.6,1.7-4.4,3.7-4.4
					c1.2,0,2.1,0.5,2.7,1.7v-5H148.6z M147.2,227.4c0-1.7-0.9-2.9-2.4-2.9c-1.5,0-2.5,1.2-2.5,3s0.9,2.9,2.4,2.9
					C146.2,230.4,147.2,229.1,147.2,227.4z"/>
			</g>
			<g>
				<path class="st8" d="M93,247.8v11.4h-2.2l-5.7-10v10h-1.5v-11.4h2.4l5.4,9.6v-9.6H93z"/>
				<path class="st8" d="M95.1,255.1c0-2.4,1.5-4.3,4-4.3c2.5,0,4,1.9,4,4.3c0,2.4-1.5,4.3-4,4.3C96.6,259.5,95.1,257.6,95.1,255.1z
					 M101.5,255.1c0-1.7-0.9-3-2.5-3c-1.5,0-2.4,1.2-2.4,3c0,1.7,0.9,3,2.4,3C100.6,258.1,101.5,256.9,101.5,255.1z"/>
				<path class="st8" d="M115.6,259.2l-4.5-5.4v5.4h-1.6v-11.4h4.4c2.1,0,3.4,1.4,3.4,3.3c0,1.9-1.4,3.2-3.7,3.2h-0.3l4.3,4.9H115.6
					z M111.2,253.1h2.2c1.6,0,2.4-0.7,2.4-2c0-1.2-0.7-1.9-2.1-1.9h-2.5V253.1z"/>
				<path class="st8" d="M126.3,251.1v8.2h-1.5v-1.5c-0.5,1.1-1.4,1.7-2.5,1.7c-1.8,0-2.9-1.1-2.9-3.2v-5.2h1.5v4.8
					c0,1.5,0.7,2.3,1.9,2.3c1.3,0,2.1-1,2.1-2.8v-4.3H126.3z"/>
				<path class="st8" d="M128.8,247.5h1.5v11.7h-1.5V247.5z"/>
				<path class="st8" d="M132.7,248.6c0-0.5,0.4-0.9,1-0.9s1,0.4,1,0.9s-0.4,1-1,1S132.7,249.1,132.7,248.6z M132.9,251.1h1.5v8.2
					h-1.5V251.1z"/>
				<path class="st8" d="M144,254.1v5.1h-1.5v-4.8c0-1.6-0.6-2.3-1.8-2.3c-1.4,0-2.2,1-2.2,2.7v4.4H137v-8.2h1.5v1.4
					c0.5-1.1,1.4-1.6,2.7-1.6C142.9,250.8,144,252,144,254.1z"/>
				<path class="st8" d="M153.7,251.1v7.4c0,2.5-1.6,4.1-4.1,4.1c-1.2,0-2.2-0.3-2.9-0.9v-1.5c0.7,0.8,1.7,1.1,2.8,1.1
					c2,0,2.7-1.2,2.7-3v-1c-0.6,1.2-1.4,1.8-2.7,1.8c-2.2,0-3.6-1.6-3.6-4c0-2.4,1.5-4.2,3.7-4.2c1.3,0,2.1,0.6,2.5,1.7v-1.5H153.7z
					 M152.2,254.9c0-1.6-1-2.7-2.4-2.7c-1.5,0-2.4,1.2-2.4,2.8c0,1.6,0.9,2.7,2.3,2.7C151.3,257.6,152.2,256.5,152.2,254.9z"/>
			</g>
			<g>
				<path class="st8" d="M82.9,281.2c0-3.4,2.3-6,5.7-6c3.4,0,5.7,2.6,5.7,6c0,3.4-2.3,6-5.7,6C85.2,287.3,82.9,284.7,82.9,281.2z
					 M92.6,281.2c0-2.6-1.6-4.5-4.1-4.5c-2.5,0-4.1,1.9-4.1,4.5s1.6,4.5,4.1,4.5C91.1,285.8,92.6,283.8,92.6,281.2z"/>
				<path class="st8" d="M103.2,278.8v8.2h-1.5v-1.5c-0.5,1.1-1.4,1.7-2.5,1.7c-1.8,0-2.9-1.1-2.9-3.2v-5.2h1.5v4.8
					c0,1.5,0.7,2.3,1.9,2.3c1.3,0,2.1-1,2.1-2.8v-4.3H103.2z"/>
				<path class="st8" d="M110.5,280.1h-2.2v6.9h-1.5v-6.9h-2v-1.3h2v-2l1.5-0.5v2.5h2.2V280.1z"/>
				<path class="st8" d="M111.2,282.8c0-2.5,1.7-4.3,4.2-4.3c1.2,0,2,0.3,2.5,0.7v1.6c-0.8-0.7-1.5-0.9-2.5-0.9
					c-1.7,0-2.8,1.2-2.8,2.9s1,3,3,3c0.9,0,1.8-0.3,2.4-0.8v1.5c-0.8,0.5-1.6,0.7-2.6,0.7C112.9,287.2,111.2,285.3,111.2,282.8z"/>
				<path class="st8" d="M119.4,282.9c0-2.4,1.5-4.3,4-4.3c2.5,0,4,1.9,4,4.3c0,2.4-1.5,4.3-4,4.3
					C121,287.2,119.4,285.3,119.4,282.9z M125.9,282.9c0-1.7-0.9-3-2.5-3c-1.5,0-2.4,1.2-2.4,3c0,1.7,0.9,3,2.4,3
					C125,285.8,125.9,284.6,125.9,282.9z"/>
				<path class="st8" d="M140.5,281.6v5.3H139v-5.1c0-1.3-0.5-2-1.5-2c-1,0-1.7,0.8-1.8,1.8v5.3h-1.5v-5.3c0-1.2-0.6-1.8-1.6-1.8
					c-1,0-1.7,0.9-1.7,2.1v5h-1.5v-8.2h1.5v1.4c0.4-1,1.2-1.6,2.3-1.6c1.1,0,1.9,0.6,2.3,1.6c0.4-1,1.3-1.6,2.4-1.6
					C139.5,278.6,140.5,279.7,140.5,281.6z"/>
				<path class="st8" d="M149.8,283.1h-5.9c0.1,1.7,1.2,2.7,3,2.7c1,0,2-0.4,2.6-0.9v1.4c-0.6,0.5-1.7,0.8-2.8,0.8
					c-2.6,0-4.4-1.7-4.4-4.4c0-2.5,1.4-4.3,4-4.3c2.1,0,3.5,1.3,3.5,3.5V283.1z M144,282h4.4c0-1.4-0.8-2.1-2.1-2.1
					C144.9,279.9,144.2,280.8,144,282z"/>
				<path class="st8" d="M156.3,282.8v-7.2h1.6v7.2c0,2,1.2,3.1,2.9,3.1c1.7,0,2.9-1.1,2.9-3.1v-7.2h1.6v7.2c0,2.8-1.8,4.5-4.5,4.5
					C158.1,287.3,156.3,285.5,156.3,282.8z"/>
				<path class="st8" d="M174.8,281.9v5.1h-1.5v-4.8c0-1.6-0.6-2.3-1.8-2.3c-1.4,0-2.2,1-2.2,2.7v4.4h-1.5v-8.2h1.5v1.4
					c0.5-1.1,1.4-1.6,2.7-1.6C173.6,278.6,174.8,279.8,174.8,281.9z"/>
				<path class="st8" d="M182.1,287l-3.5-4v4h-1.5v-11.7h1.5v6.9l3.1-3.4h2l-3.8,3.7l4.1,4.5H182.1z"/>
				<path class="st8" d="M192.4,281.9v5.1h-1.5v-4.8c0-1.6-0.6-2.3-1.8-2.3c-1.4,0-2.2,1-2.2,2.7v4.4h-1.5v-8.2h1.5v1.4
					c0.5-1.1,1.4-1.6,2.7-1.6C191.3,278.6,192.4,279.8,192.4,281.9z"/>
				<path class="st8" d="M194.3,282.9c0-2.4,1.5-4.3,4-4.3c2.5,0,4,1.9,4,4.3c0,2.4-1.5,4.3-4,4.3
					C195.8,287.2,194.3,285.3,194.3,282.9z M200.7,282.9c0-1.7-0.9-3-2.5-3c-1.5,0-2.4,1.2-2.4,3c0,1.7,0.9,3,2.4,3
					C199.8,285.8,200.7,284.6,200.7,282.9z"/>
				<path class="st8" d="M215.3,278.8l-2.7,8.2h-1.4l-2-6.5l-2.1,6.5h-1.4l-2.5-8.2h1.6l1.6,6l1.9-6h1.7l1.9,6.1l1.8-6.1H215.3z"/>
				<path class="st8" d="M223.9,281.9v5.1h-1.5v-4.8c0-1.6-0.6-2.3-1.8-2.3c-1.4,0-2.2,1-2.2,2.7v4.4h-1.5v-8.2h1.5v1.4
					c0.5-1.1,1.4-1.6,2.7-1.6C222.8,278.6,223.9,279.8,223.9,281.9z"/>
			</g>
			<g>
				<path class="st8" d="M93,303.3v11.4h-2.2l-5.7-10v10h-1.5v-11.4h2.4l5.4,9.6v-9.6H93z"/>
				<path class="st8" d="M95.1,310.6c0-2.4,1.5-4.3,4-4.3c2.5,0,4,1.9,4,4.3c0,2.4-1.5,4.3-4,4.3C96.6,314.9,95.1,313.1,95.1,310.6z
					 M101.5,310.6c0-1.7-0.9-3-2.5-3c-1.5,0-2.4,1.2-2.4,3c0,1.7,0.9,3,2.4,3C100.6,313.6,101.5,312.3,101.5,310.6z"/>
				<path class="st8" d="M109.6,307.8h-2.2v6.9h-1.5v-6.9h-2v-1.3h2v-2l1.5-0.5v2.5h2.2V307.8z"/>
				<path class="st8" d="M121.3,314.7l-4.5-5.4v5.4h-1.6v-11.4h4.4c2.1,0,3.4,1.4,3.4,3.3c0,1.9-1.4,3.2-3.7,3.2H119l4.3,4.9H121.3z
					 M116.8,308.6h2.2c1.6,0,2.4-0.7,2.4-2c0-1.2-0.7-1.9-2.1-1.9h-2.5V308.6z"/>
				<path class="st8" d="M131.9,306.5v8.2h-1.5v-1.5c-0.5,1.1-1.4,1.7-2.5,1.7c-1.8,0-2.9-1.1-2.9-3.2v-5.2h1.5v4.8
					c0,1.5,0.7,2.3,1.9,2.3c1.3,0,2.1-1,2.1-2.8v-4.3H131.9z"/>
				<path class="st8" d="M134.5,302.9h1.5v11.7h-1.5V302.9z"/>
				<path class="st8" d="M145.5,310.9h-5.9c0.1,1.7,1.2,2.7,3,2.7c1,0,2-0.4,2.6-0.9v1.4c-0.6,0.5-1.7,0.8-2.8,0.8
					c-2.6,0-4.4-1.7-4.4-4.4c0-2.5,1.4-4.3,4-4.3c2.1,0,3.5,1.3,3.5,3.5V310.9z M139.6,309.8h4.4c0-1.4-0.8-2.1-2.1-2.1
					C140.5,307.6,139.8,308.5,139.6,309.8z"/>
				<path class="st8" d="M147,314v-1.4c0.8,0.7,1.8,1.1,2.8,1.1c1,0,1.7-0.4,1.7-1.2c0-0.5-0.2-0.9-1-1.1l-1.5-0.5
					c-1.3-0.4-1.9-1.2-1.9-2.2c0-1.4,1.1-2.3,3-2.3c1.1,0,1.9,0.3,2.6,0.8v1.5c-0.7-0.6-1.7-0.9-2.6-0.9c-1,0-1.5,0.3-1.5,0.9
					c0,0.5,0.3,0.9,1,1l1.5,0.4c1.5,0.4,2.1,1.2,2.1,2.3c0,1.6-1.2,2.6-3,2.6C148.8,314.9,147.8,314.6,147,314z"/>
				<path class="st8" d="M159.3,310.5v-7.2h1.6v7.2c0,2,1.2,3.1,2.9,3.1c1.7,0,2.9-1.1,2.9-3.1v-7.2h1.6v7.2c0,2.8-1.8,4.5-4.5,4.5
					C161.1,315,159.3,313.3,159.3,310.5z"/>
				<path class="st8" d="M178.6,310.6c0,2.6-1.7,4.4-3.7,4.4c-1.2,0-2.2-0.6-2.7-1.6v4.4h-1.5v-11.3h1.5v1.7c0.5-1,1.4-1.9,2.9-1.9
					C177.2,306.3,178.6,308.2,178.6,310.6z M177.1,310.6c0-1.7-1-2.9-2.4-2.9c-1.5,0-2.5,1.3-2.5,3c0,1.7,0.9,2.9,2.4,2.9
					C176.1,313.6,177.1,312.3,177.1,310.6z"/>
				<path class="st8" d="M180,310.6c0-2.4,1.5-4.3,4-4.3c2.5,0,4,1.9,4,4.3c0,2.4-1.5,4.3-4,4.3C181.6,314.9,180,313.1,180,310.6z
					 M186.5,310.6c0-1.7-0.9-3-2.5-3c-1.5,0-2.4,1.2-2.4,3c0,1.7,0.9,3,2.4,3C185.6,313.6,186.5,312.3,186.5,310.6z"/>
				<path class="st8" d="M197,309.6v5.1h-1.5v-4.8c0-1.6-0.6-2.3-1.8-2.3c-1.4,0-2.2,1-2.2,2.7v4.4H190v-8.2h1.5v1.4
					c0.5-1.1,1.4-1.6,2.7-1.6C195.9,306.3,197,307.5,197,309.6z"/>
				<path class="st8" d="M212,303.3l-4.1,7.1v4.3h-1.6v-4.3l-4-7.1h1.7l3,5.6l3.1-5.6H212z"/>
				<path class="st8" d="M219.3,310.9h-5.9c0.1,1.7,1.2,2.7,3,2.7c1,0,2-0.4,2.6-0.9v1.4c-0.6,0.5-1.7,0.8-2.8,0.8
					c-2.6,0-4.4-1.7-4.4-4.4c0-2.5,1.4-4.3,4-4.3c2.1,0,3.5,1.3,3.5,3.5V310.9z M213.4,309.8h4.4c0-1.4-0.8-2.1-2.1-2.1
					C214.4,307.6,213.6,308.5,213.4,309.8z"/>
				<path class="st8" d="M225.9,307.8h-2.2v6.9h-1.5v-6.9h-2v-1.3h2v-2l1.5-0.5v2.5h2.2V307.8z"/>
			</g>
		</g>
		<path class="st6" d="M367.7,180.6h-22.4c-4.8,0-8.6-3.9-8.6-8.6v-0.7c0-4.8,3.9-8.6,8.6-8.6h22.4c4.8,0,8.6,3.9,8.6,8.6v0.7
			C376.4,176.7,372.5,180.6,367.7,180.6z"/>
		<path class="st6" d="M451.7,208.1h-22.4c-4.8,0-8.6-3.9-8.6-8.6v-0.7c0-4.8,3.9-8.6,8.6-8.6h22.4c4.8,0,8.6,3.9,8.6,8.6v0.7
			C460.4,204.2,456.5,208.1,451.7,208.1z"/>
		<path class="st6" d="M504.3,262.6h-22.4c-4.8,0-8.6-3.9-8.6-8.6v-0.7c0-4.8,3.9-8.6,8.6-8.6h22.4c4.8,0,8.6,3.9,8.6,8.6v0.7
			C513,258.7,509.1,262.6,504.3,262.6z"/>
		<path class="st6" d="M638.7,235.5h-22.4c-4.8,0-8.6-3.9-8.6-8.6v-0.7c0-4.8,3.9-8.6,8.6-8.6h22.4c4.8,0,8.6,3.9,8.6,8.6v0.7
			C647.3,231.6,643.5,235.5,638.7,235.5z"/>
		<g>
			<path class="st8" d="M627.2,229.9v1.4h-7.1V230l3.5-2.7c1.7-1.3,2-2.2,2-3.1c0-1.1-0.9-1.9-2.5-1.9c-1.3,0-2.4,0.6-3.1,1.2v-1.6
				c0.9-0.6,1.9-1,3.3-1c2.3,0,3.7,1.2,3.7,3.2c0,1.3-0.6,2.5-2.4,3.9l-2.6,2H627.2z"/>
			<path class="st8" d="M637.5,228.7h-1.9v2.6h-1.4v-2.6h-5.6v-1.4l5-6.2h2v6.4h1.9V228.7z M634.1,227.4v-5.1l-4.1,5.1H634.1z"/>
		</g>
		<path class="st6" d="M367.7,317.4h-22.4c-4.8,0-8.6-3.9-8.6-8.6V308c0-4.8,3.9-8.6,8.6-8.6h22.4c4.8,0,8.6,3.9,8.6,8.6v0.7
			C376.4,313.5,372.5,317.4,367.7,317.4z"/>
		<path class="st6" d="M537.5,289.8h-22.4c-4.8,0-8.6-3.9-8.6-8.6v-0.7c0-4.8,3.9-8.6,8.6-8.6h22.4c4.8,0,8.6,3.9,8.6,8.6v0.7
			C546.1,285.9,542.2,289.8,537.5,289.8z"/>
		<g>
			<path class="st8" d="M361.2,175.5v1.4h-7.1v-1.3l3.5-2.7c1.7-1.3,2-2.2,2-3.1c0-1.2-0.9-1.9-2.5-1.9c-1.3,0-2.4,0.6-3.1,1.2v-1.6
				c0.9-0.6,1.9-1,3.3-1c2.3,0,3.7,1.2,3.7,3.2c0,1.3-0.6,2.5-2.4,3.9l-2.6,2H361.2z"/>
		</g>
		<g>
			<path class="st8" d="M443.2,201.4c0,1.8-1.6,3.1-4,3.1c-2.4,0-4.1-1.3-4.1-3.1c0-1.3,0.8-2.1,2.1-2.5c-1.2-0.4-1.8-1.2-1.8-2.3
				c0-1.5,1.5-2.8,3.7-2.8c2.2,0,3.7,1.2,3.7,2.8c0,1.1-0.7,1.9-1.8,2.3C442.5,199.2,443.2,200.1,443.2,201.4z M441.7,201.2
				c0-1.1-1-1.8-2.5-1.8c-1.6,0-2.6,0.7-2.6,1.8c0,1.1,0.9,1.9,2.5,1.9C440.7,203.1,441.7,202.3,441.7,201.2z M437,196.7
				c0,1,0.8,1.7,2.2,1.7c1.4,0,2.2-0.7,2.2-1.7s-0.8-1.6-2.2-1.6C437.8,195.1,437,195.7,437,196.7z"/>
		</g>
		<g>
			<path class="st8" d="M490.8,249.2v10.2h-1.5v-8.6l-3.2,1.9v-1.5l3.4-2.1H490.8z"/>
			<path class="st8" d="M500.5,258v1.4h-7.1v-1.3l3.5-2.7c1.7-1.3,2-2.2,2-3.1c0-1.2-0.9-1.9-2.5-1.9c-1.3,0-2.4,0.6-3.1,1.2V250
				c0.9-0.6,1.9-1,3.3-1c2.3,0,3.7,1.2,3.7,3.2c0,1.3-0.6,2.5-2.4,3.9l-2.6,2H500.5z"/>
		</g>
		<g>
			<path class="st8" d="M523.2,276.4v10.2h-1.5V278l-3.2,1.9v-1.5l3.4-2.1H523.2z"/>
			<path class="st8" d="M533.4,283.1c0,2.1-1.6,3.7-4.2,3.7c-1.3,0-2.5-0.4-3.3-1v-1.5c1,0.8,2,1,3.1,1c1.9,0,2.8-1,2.8-2.3
				c0-1.2-0.9-2.1-2.8-2.1c-1.3,0-2.2,0.3-3,0.7v-5.4h6.8v1.3h-5.4v2.6c0.7-0.3,1.4-0.4,2.4-0.4
				C532.1,279.9,533.4,281.4,533.4,283.1z"/>
		</g>
		<g>
			<path class="st8" d="M361.2,313.3v1.4h-7.1v-1.3l3.5-2.7c1.7-1.3,2-2.2,2-3.1c0-1.2-0.9-1.9-2.5-1.9c-1.3,0-2.4,0.6-3.1,1.2v-1.6
				c0.9-0.6,1.9-1,3.3-1c2.3,0,3.7,1.2,3.7,3.2c0,1.3-0.6,2.5-2.4,3.9l-2.6,2H361.2z"/>
		</g>
	</g>
</g>
<g>
</g>
<g>
</g>
<g>
</g>
<g>
</g>
<g>
</g>
<g>
</g>
</svg>
