<?xml version="1.0" encoding="utf-8"?>
<!-- Generator: Adobe Illustrator 21.1.0, SVG Export Plug-In . SVG Version: 6.00 Build 0)  -->
<svg version="1.1" id="Layer_1" xmlns="http://www.w3.org/2000/svg" xmlns:xlink="http://www.w3.org/1999/xlink" x="0px" y="0px"
	 viewBox="0 0 660.6 441.5" style="enable-background:new 0 0 660.6 441.5;" xml:space="preserve">
<style type="text/css">
	.st0{opacity:0.25;fill:#F6F6F6;}
	.st1{fill:#1E305E;}
	.st2{fill:none;stroke:#1E305E;stroke-miterlimit:10;}
	.st3{fill:#FFFFFF;stroke:#3D54A4;stroke-miterlimit:10;}
	.st4{fill:#F8F8F8;stroke:#3D54A4;stroke-miterlimit:10;}
	.st5{fill:none;stroke:#3D54A4;stroke-miterlimit:10;}
	.st6{fill:#3D54A4;}
	.st7{fill:#676767;}
	.st8{fill:none;}
	.st9{fill:#8D9394;}
</style>
<g>
	<g>
		<g>
			<rect x="0.6" y="42.8" class="st0" width="658.6" height="398.2"/>
			<ellipse class="st1" cx="25.3" cy="22.3" rx="3.6" ry="3.6"/>
			<ellipse class="st1" cx="39.8" cy="22.3" rx="3.6" ry="3.6"/>
			<ellipse class="st1" cx="54.3" cy="22.3" rx="3.6" ry="3.6"/>
			<line class="st2" x1="0.6" y1="42.5" x2="660.6" y2="42.7"/>
			<g>
				<path class="st1" d="M659.5,1v439.5H1V1H659.5 M660.5,0h-1H1H0v1v439.5v1h1h658.5h1v-1V1V0L660.5,0z"/>
			</g>
		</g>
		<rect x="61.7" y="83.3" class="st3" width="538.9" height="357.7"/>
		<rect x="61.7" y="83.6" class="st3" width="538.9" height="15.2"/>
		<g>
			<g>
				<rect x="33.6" y="98.8" class="st4" width="73.1" height="87.1"/>
				<polygon class="st5" points="66.1,136.2 66.1,150.3 59.4,150.3 70.1,165.9 80.8,150.3 74,150.3 74,136.2 				"/>
				<polyline class="st5" points="92.6,162.8 92.6,172.8 46.9,172.8 46.9,162.8 				"/>
				<path class="st5" d="M92.6,162.1"/>
				<path class="st5" d="M46,162.1"/>
				<path class="st6" d="M49.2,132.2H29.2c-5.7,0-10.3-4.6-10.3-10.3v0c0-5.7,4.6-10.3,10.3-10.3h19.9c5.7,0,10.3,4.6,10.3,10.3v0
					C59.4,127.6,54.8,132.2,49.2,132.2z"/>
			</g>
		</g>
	</g>
	<g>
		<g>
			<path class="st1" d="M197.2,150.5h6.5c6,0,9.2,3.8,9.2,9.3s-3.4,9.3-9.8,9.3h-6V150.5z M203.2,166.7c4.7,0,7-2.7,7-6.9
				s-2-6.9-6.7-6.9h-3.6v13.9H203.2z"/>
			<path class="st1" d="M223.9,156.2v2.3c-0.7-0.5-1.4-0.6-2.2-0.6c-1.6,0-2.9,1.5-2.9,4.1v7.1h-2.5v-13.3h2.5v2.6
				c0.6-1.9,1.8-2.9,3.3-2.9C222.8,155.5,223.4,155.7,223.9,156.2z"/>
			<path class="st1" d="M224.3,167.6c0-1,0.8-1.8,1.9-1.8c1.1,0,1.8,0.8,1.8,1.8c0,1.1-0.8,1.8-1.8,1.8
				C225.1,169.4,224.3,168.7,224.3,167.6z"/>
			<path class="st1" d="M236.3,168.6V166c0.7,0.6,1.7,1.1,3.4,1.1c1.8,0,3-1.1,3-3.5v-13.1h2.7v13.3c0,3.9-2.3,5.8-5.5,5.8
				C238.3,169.6,237,169.1,236.3,168.6z"/>
			<path class="st1" d="M248.7,162.4c0-4,2.6-7,6.7-7c4.1,0,6.7,3.1,6.7,7c0,4-2.6,7-6.7,7C251.3,169.4,248.7,166.4,248.7,162.4z
				 M259.5,162.4c0-2.8-1.5-4.8-4.1-4.8c-2.6,0-4.1,2-4.1,4.8c0,2.8,1.5,4.8,4.1,4.8C258,167.2,259.5,165.2,259.5,162.4z"/>
			<path class="st1" d="M277.2,160.7v8.3h-2.5v-7.8c0-2.6-0.9-3.7-3.1-3.7c-2.3,0-3.7,1.6-3.7,4.4v7.2h-2.5v-19.1h2.5v8
				c0.8-1.6,2.4-2.5,4.5-2.5C275.3,155.4,277.2,157.3,277.2,160.7z"/>
			<path class="st1" d="M293.1,160.7v8.3h-2.5v-7.8c0-2.6-0.9-3.7-3.1-3.7c-2.3,0-3.7,1.6-3.7,4.4v7.2h-2.5v-13.3h2.5v2.3
				c0.8-1.7,2.4-2.7,4.5-2.7C291.2,155.4,293.1,157.3,293.1,160.7z"/>
			<path class="st1" d="M315,169l-7.5-8.8v8.8h-2.7v-18.6h7.4c3.5,0,5.8,2.3,5.8,5.3c0,3.2-2.4,5.3-6.2,5.3h-0.5l7.2,8H315z
				 M307.5,159.1h3.8c2.6,0,4-1.2,4-3.2c0-1.9-1.2-3.1-3.5-3.1h-4.2V159.1z"/>
			<path class="st1" d="M320.8,167.6c0-1,0.8-1.8,1.9-1.8c1.1,0,1.8,0.8,1.8,1.8c0,1.1-0.8,1.8-1.8,1.8
				C321.6,169.4,320.8,168.7,320.8,167.6z"/>
			<path class="st1" d="M335.8,150.5h6.5c6,0,9.2,3.8,9.2,9.3s-3.4,9.3-9.8,9.3h-6V150.5z M341.7,166.7c4.7,0,7-2.7,7-6.9
				s-2-6.9-6.7-6.9h-3.6v13.9H341.7z"/>
			<path class="st1" d="M354.1,162.4c0-4,2.6-7,6.7-7c4.1,0,6.7,3.1,6.7,7c0,4-2.6,7-6.7,7C356.7,169.4,354.1,166.4,354.1,162.4z
				 M364.9,162.4c0-2.8-1.5-4.8-4.1-4.8c-2.6,0-4.1,2-4.1,4.8c0,2.8,1.5,4.8,4.1,4.8C363.4,167.2,364.9,165.2,364.9,162.4z"/>
			<path class="st1" d="M382.4,162.8h-9.9c0.2,2.8,2.1,4.4,5,4.4c1.6,0,3.4-0.6,4.4-1.5v2.3c-1,0.8-2.8,1.4-4.7,1.4
				c-4.4,0-7.3-2.8-7.3-7.1c0-4,2.4-7,6.7-7c3.5,0,5.9,2.1,5.9,5.7V162.8z M372.5,161h7.4c0-2.3-1.4-3.5-3.5-3.5
				C374.1,157.6,372.9,159,372.5,161z"/>
			<path class="st1" d="M385.7,165.9h3.3l-2.6,7.2h-2L385.7,165.9z"/>
			<path class="st1" d="M413.3,156.3c0,3.6-2.4,6-6.7,6h-3.6v6.7h-2.7v-18.6h6.9C411,150.5,413.3,152.8,413.3,156.3z M410.6,156.3
				c0-2.2-1.4-3.5-3.8-3.5h-3.7v7.3h3.3C409.2,160.1,410.6,158.7,410.6,156.3z"/>
			<path class="st1" d="M431.9,150.5V169h-2.7v-8.3h-9.8v8.3h-2.7v-18.6h2.7v7.9h9.8v-7.9H431.9z"/>
			<path class="st1" d="M436.1,167.6c0-1,0.8-1.8,1.9-1.8c1.1,0,1.8,0.8,1.8,1.8c0,1.1-0.8,1.8-1.8,1.8
				C436.9,169.4,436.1,168.7,436.1,167.6z"/>
			<path class="st1" d="M443.9,150.5h6.5c6,0,9.2,3.8,9.2,9.3s-3.4,9.3-9.8,9.3h-6V150.5z M449.9,166.7c4.7,0,7-2.7,7-6.9
				s-2-6.9-6.7-6.9h-3.6v13.9H449.9z"/>
			<path class="st1" d="M461.6,167.6c0-1,0.8-1.8,1.9-1.8c1.1,0,1.8,0.8,1.8,1.8c0,1.1-0.8,1.8-1.8,1.8
				C462.3,169.4,461.6,168.7,461.6,167.6z"/>
			<path class="st1" d="M156.7,196.2c0,3.6-2.4,6-6.7,6h-3.6v6.7h-2.7v-18.6h6.9C154.4,190.3,156.7,192.6,156.7,196.2z M154,196.2
				c0-2.2-1.4-3.5-3.8-3.5h-3.7v7.3h3.3C152.6,199.9,154,198.5,154,196.2z"/>
			<path class="st1" d="M171,202.7h-9.9c0.2,2.8,2.1,4.4,5,4.4c1.6,0,3.4-0.6,4.4-1.5v2.3c-1,0.8-2.8,1.4-4.7,1.4
				c-4.4,0-7.3-2.8-7.3-7.1c0-4,2.4-7,6.7-7c3.5,0,5.9,2.1,5.9,5.7V202.7z M161.1,200.9h7.4c0-2.3-1.4-3.5-3.5-3.5
				C162.7,197.4,161.5,198.8,161.1,200.9z"/>
			<path class="st1" d="M182,196v2.3c-0.7-0.5-1.4-0.6-2.2-0.6c-1.6,0-2.9,1.5-2.9,4.1v7.1h-2.5v-13.3h2.5v2.6
				c0.6-1.9,1.8-2.9,3.3-2.9C180.8,195.4,181.4,195.6,182,196z"/>
			<path class="st1" d="M183.6,207.7v-2.3c1.4,1.1,3,1.8,4.8,1.8c1.8,0,2.8-0.7,2.8-2c0-0.8-0.4-1.4-1.7-1.8l-2.6-0.8
				c-2.2-0.7-3.2-2-3.2-3.6c0-2.2,1.9-3.7,5-3.7c1.8,0,3.2,0.5,4.4,1.2v2.4c-1.2-1-2.8-1.5-4.3-1.5c-1.7,0-2.5,0.5-2.5,1.5
				c0,0.8,0.6,1.4,1.6,1.7l2.4,0.7c2.5,0.7,3.5,2,3.5,3.8c0,2.5-2.1,4.2-5,4.2C186.7,209.3,185.1,208.8,183.6,207.7z"/>
			<path class="st1" d="M195.9,202.3c0-4,2.6-7,6.7-7c4.1,0,6.7,3.1,6.7,7s-2.6,7-6.7,7C198.5,209.3,195.9,206.2,195.9,202.3z
				 M206.7,202.3c0-2.8-1.5-4.8-4.1-4.8c-2.6,0-4.1,2-4.1,4.8s1.5,4.8,4.1,4.8C205.2,207.1,206.7,205.1,206.7,202.3z"/>
			<path class="st1" d="M224.4,200.6v8.3h-2.5v-7.8c0-2.6-0.9-3.7-3.1-3.7c-2.3,0-3.7,1.6-3.7,4.4v7.2h-2.5v-13.3h2.5v2.3
				c0.8-1.7,2.4-2.7,4.5-2.7C222.5,195.2,224.4,197.2,224.4,200.6z"/>
			<path class="st1" d="M238.7,200.8v8.1h-2.5v-1.8c-0.7,1.4-2.1,2.2-3.9,2.2c-2.8,0-4.8-1.9-4.8-4.4c0-2.5,2-4.3,5-4.3
				c1.8,0,3,0.7,3.7,1.7v-1.2c0-2.3-1.5-3.7-3.7-3.7c-1.6,0-3.1,0.6-4.2,1.8v-2.5c1.2-0.9,2.6-1.5,4.6-1.5
				C236.5,195.2,238.7,197.3,238.7,200.8z M236.2,204.8c0-1.4-1.2-2.4-3-2.4c-1.9,0-3,1-3,2.4c0,1.5,1.1,2.5,3,2.5
				C235,207.3,236.2,206.2,236.2,204.8z"/>
			<path class="st1" d="M242.9,189.8h2.5v19.1h-2.5V189.8z"/>
			<path class="st1" d="M257.4,190.3h2.7v18.6h-2.7V190.3z"/>
			<path class="st1" d="M276.5,200.6v8.3H274v-7.8c0-2.6-0.9-3.7-3.1-3.7c-2.3,0-3.7,1.6-3.7,4.4v7.2h-2.5v-13.3h2.5v2.3
				c0.8-1.7,2.4-2.7,4.5-2.7C274.6,195.2,276.5,197.2,276.5,200.6z"/>
			<path class="st1" d="M277.3,213.8v-2.2c0.3,0.3,1.1,0.6,1.9,0.6c1,0,1.6-0.6,1.6-1.9v-14.6h2.5v15c0,2.2-1.5,3.8-3.8,3.8
				C278.5,214.3,277.7,214,277.3,213.8z M280.3,191.6c0-0.9,0.7-1.5,1.7-1.5c0.9,0,1.6,0.7,1.6,1.5c0,0.9-0.7,1.6-1.6,1.6
				C281.1,193.2,280.3,192.5,280.3,191.6z"/>
			<path class="st1" d="M299.1,195.6v13.3h-2.5v-2.5c-0.8,1.9-2.3,2.8-4.3,2.8c-3,0-4.9-1.8-4.9-5.2v-8.5h2.5v7.8
				c0,2.5,1.1,3.7,3.2,3.7c2.2,0,3.5-1.7,3.5-4.6v-6.9H299.1z"/>
			<path class="st1" d="M311,196v2.3c-0.7-0.5-1.4-0.6-2.2-0.6c-1.6,0-2.9,1.5-2.9,4.1v7.1h-2.5v-13.3h2.5v2.6
				c0.6-1.9,1.8-2.9,3.3-2.9C309.8,195.4,310.4,195.6,311,196z"/>
			<path class="st1" d="M325.4,195.6l-8.6,18.3H314l3.2-6.4l-5.2-12h2.7l3.9,9.2l4.1-9.2H325.4z"/>
			<path class="st1" d="M347,206.6v2.3H335v-18.6h11.8v2.3h-9.1v5.3h8.6v2.3h-8.6v6.3H347z"/>
			<path class="st1" d="M358.8,208.9l-3.5-5.3l-3.5,5.3h-2.9l4.9-6.9l-4.6-6.3h3l3.2,4.8l3.3-4.8h2.9l-4.6,6.3l4.9,6.9H358.8z"/>
			<path class="st1" d="M377.5,202.1c0,4.3-2.9,7.1-6.3,7.1c-2,0-3.7-1-4.5-2.6v7.2h-2.5v-18.3h2.5v2.7c0.8-1.6,2.3-3.1,4.8-3.1
				C375.1,195.2,377.5,198.2,377.5,202.1z M374.9,202.3c0-2.8-1.6-4.8-4.1-4.8c-2.5,0-4.1,2-4.1,4.9c0,2.7,1.5,4.7,4,4.7
				C373.3,207.1,374.9,205.1,374.9,202.3z"/>
			<path class="st1" d="M392.4,202.7h-9.9c0.2,2.8,2.1,4.4,5,4.4c1.6,0,3.4-0.6,4.4-1.5v2.3c-1,0.8-2.8,1.4-4.7,1.4
				c-4.4,0-7.3-2.8-7.3-7.1c0-4,2.4-7,6.7-7c3.5,0,5.9,2.1,5.9,5.7V202.7z M382.6,200.9h7.4c0-2.3-1.4-3.5-3.5-3.5
				C384.2,197.4,382.9,198.8,382.6,200.9z"/>
			<path class="st1" d="M403.4,196v2.3c-0.7-0.5-1.4-0.6-2.2-0.6c-1.6,0-2.9,1.5-2.9,4.1v7.1h-2.5v-13.3h2.5v2.6
				c0.6-1.9,1.8-2.9,3.3-2.9C402.3,195.4,402.8,195.6,403.4,196z"/>
			<path class="st1" d="M413.9,197.7h-3.7v11.2h-2.5v-11.2h-3.3v-2.1h3.3v-3.3l2.5-0.8v4.1h3.7V197.7z"/>
			<path class="st1" d="M446.4,190.3l-5.1,18.6h-3.3l-4.3-16.2l-4.3,16.2H426l-4.9-18.6h2.8l3.7,15.7l4.2-15.7h3.6l4.1,15.8
				l3.9-15.8H446.4z"/>
			<path class="st1" d="M448.9,191.6c0-0.9,0.7-1.5,1.7-1.5c0.9,0,1.6,0.7,1.6,1.5c0,0.9-0.7,1.6-1.6,1.6
				C449.7,193.2,448.9,192.5,448.9,191.6z M449.3,195.6h2.5v13.3h-2.5V195.6z"/>
			<path class="st1" d="M464.1,197.7h-3.7v11.2h-2.5v-11.2h-3.3v-2.1h3.3v-3.3l2.5-0.8v4.1h3.7V197.7z"/>
			<path class="st1" d="M478.4,200.6v8.3h-2.5v-7.8c0-2.6-0.9-3.7-3.1-3.7c-2.3,0-3.7,1.6-3.7,4.4v7.2h-2.5v-13.3h2.5v2.3
				c0.8-1.7,2.4-2.7,4.5-2.7C476.5,195.2,478.4,197.2,478.4,200.6z"/>
			<path class="st1" d="M494.1,202.7h-9.9c0.2,2.8,2.1,4.4,5,4.4c1.6,0,3.4-0.6,4.4-1.5v2.3c-1,0.8-2.8,1.4-4.7,1.4
				c-4.4,0-7.3-2.8-7.3-7.1c0-4,2.4-7,6.7-7c3.5,0,5.9,2.1,5.9,5.7V202.7z M484.2,200.9h7.4c0-2.3-1.4-3.5-3.5-3.5
				C485.8,197.4,484.6,198.8,484.2,200.9z"/>
			<path class="st1" d="M496.6,207.7v-2.3c1.4,1.1,3,1.8,4.8,1.8c1.8,0,2.8-0.7,2.8-2c0-0.8-0.4-1.4-1.7-1.8l-2.6-0.8
				c-2.2-0.7-3.2-2-3.2-3.6c0-2.2,1.9-3.7,5-3.7c1.8,0,3.2,0.5,4.4,1.2v2.4c-1.2-1-2.8-1.5-4.3-1.5c-1.7,0-2.5,0.5-2.5,1.5
				c0,0.8,0.6,1.4,1.6,1.7l2.4,0.7c2.5,0.7,3.5,2,3.5,3.8c0,2.5-2.1,4.2-5,4.2C499.7,209.3,498.1,208.8,496.6,207.7z"/>
			<path class="st1" d="M509,207.7v-2.3c1.4,1.1,3,1.8,4.8,1.8c1.8,0,2.8-0.7,2.8-2c0-0.8-0.4-1.4-1.7-1.8l-2.6-0.8
				c-2.2-0.7-3.2-2-3.2-3.6c0-2.2,1.9-3.7,5-3.7c1.8,0,3.2,0.5,4.4,1.2v2.4c-1.2-1-2.8-1.5-4.3-1.5c-1.7,0-2.5,0.5-2.5,1.5
				c0,0.8,0.6,1.4,1.6,1.7l2.4,0.7c2.5,0.7,3.5,2,3.5,3.8c0,2.5-2.1,4.2-5,4.2C512.1,209.3,510.5,208.8,509,207.7z"/>
			<path class="st1" d="M235.4,245.5c0,2.4-1.6,4-4.4,4h-2.4v4.5h-1.8v-12.4h4.6C233.8,241.6,235.4,243.1,235.4,245.5z M233.5,245.5
				c0-1.5-0.9-2.4-2.5-2.4h-2.4v4.9h2.2C232.6,248,233.5,247.1,233.5,245.5z"/>
			<path class="st1" d="M242.2,245.4v1.6c-0.4-0.3-0.9-0.4-1.5-0.4c-1.1,0-1.9,1-1.9,2.7v4.7h-1.7v-8.9h1.7v1.8
				c0.4-1.2,1.2-1.9,2.2-1.9C241.5,245,241.9,245.1,242.2,245.4z"/>
			<path class="st1" d="M251.7,249.8h-6.6c0.1,1.9,1.4,2.9,3.3,2.9c1.1,0,2.2-0.4,2.9-1v1.6c-0.7,0.5-1.9,0.9-3.1,0.9
				c-2.9,0-4.9-1.8-4.9-4.7c0-2.7,1.6-4.6,4.5-4.6c2.3,0,3.9,1.4,3.9,3.8V249.8z M245.1,248.6h4.9c0-1.5-0.9-2.3-2.3-2.3
				C246.2,246.3,245.3,247.2,245.1,248.6z"/>
			<path class="st1" d="M262.6,249.5c0,2.9-1.9,4.8-4.2,4.8c-1.3,0-2.4-0.7-3-1.7v4.8h-1.7v-12.2h1.7v1.8c0.5-1.1,1.5-2.1,3.2-2.1
				C261,244.9,262.6,246.9,262.6,249.5z M260.9,249.5c0-1.9-1.1-3.2-2.7-3.2c-1.7,0-2.7,1.4-2.7,3.3c0,1.8,1,3.2,2.7,3.2
				S260.9,251.4,260.9,249.5z"/>
			<path class="st1" d="M271.5,248.6v5.4h-1.7v-1.2c-0.5,0.9-1.4,1.5-2.6,1.5c-1.8,0-3.2-1.3-3.2-2.9c0-1.7,1.3-2.9,3.3-2.9
				c1.2,0,2,0.5,2.4,1.1v-0.8c0-1.6-1-2.4-2.4-2.4c-1.1,0-2.1,0.4-2.8,1.2v-1.7c0.8-0.6,1.7-1,3.1-1
				C270.1,244.9,271.5,246.2,271.5,248.6z M269.9,251.2c0-0.9-0.8-1.6-2-1.6c-1.3,0-2,0.6-2,1.6c0,1,0.7,1.7,2,1.7
				C269.1,252.9,269.9,252.2,269.9,251.2z"/>
			<path class="st1" d="M279.1,245.4v1.6c-0.4-0.3-0.9-0.4-1.5-0.4c-1.1,0-1.9,1-1.9,2.7v4.7h-1.7v-8.9h1.7v1.8
				c0.4-1.2,1.2-1.9,2.2-1.9C278.4,245,278.7,245.1,279.1,245.4z"/>
			<path class="st1" d="M288.5,249.8h-6.6c0.1,1.9,1.4,2.9,3.3,2.9c1.1,0,2.2-0.4,2.9-1v1.6c-0.7,0.5-1.9,0.9-3.1,0.9
				c-2.9,0-4.9-1.8-4.9-4.7c0-2.7,1.6-4.6,4.5-4.6c2.3,0,3.9,1.4,3.9,3.8V249.8z M282,248.6h4.9c0-1.5-0.9-2.3-2.3-2.3
				C283,246.3,282.2,247.2,282,248.6z"/>
			<path class="st1" d="M299,241.2V254h-1.7v-1.8c-0.5,1.1-1.5,2.1-3.1,2.1c-2.3,0-4-1.9-4-4.6c0-2.9,1.9-4.8,4.2-4.8
				c1.3,0,2.3,0.5,3,1.8v-5.4H299z M297.3,249.5c0-1.8-1-3.2-2.7-3.2c-1.7,0-2.7,1.3-2.7,3.3c0,1.9,1.1,3.2,2.7,3.2
				C296.3,252.8,297.3,251.4,297.3,249.5z"/>
			<path class="st1" d="M305.9,249.5c0-2.7,1.7-4.7,4.4-4.7c2.7,0,4.5,2,4.5,4.7s-1.7,4.7-4.5,4.7
				C307.6,254.2,305.9,252.2,305.9,249.5z M313.1,249.5c0-1.9-1-3.2-2.7-3.2c-1.7,0-2.7,1.3-2.7,3.2s1,3.2,2.7,3.2
				C312,252.8,313.1,251.4,313.1,249.5z"/>
			<path class="st1" d="M324.7,248.4v5.5H323v-5.2c0-1.8-0.6-2.5-2.1-2.5c-1.5,0-2.5,1.1-2.5,2.9v4.8h-1.7v-8.9h1.7v1.5
				c0.5-1.2,1.6-1.8,3-1.8C323.5,244.9,324.7,246.2,324.7,248.4z"/>
			<path class="st1" d="M344.5,254l-0.7-10.9l-3.6,10.9H338l-3.5-11l-0.6,11h-1.7l0.8-12.4h2.8l3.4,10.5l3.5-10.5h2.7l1,12.4H344.5z
				"/>
			<path class="st1" d="M355.7,248.6v5.4H354v-1.2c-0.5,0.9-1.4,1.5-2.6,1.5c-1.8,0-3.2-1.3-3.2-2.9c0-1.7,1.3-2.9,3.3-2.9
				c1.2,0,2,0.5,2.4,1.1v-0.8c0-1.6-1-2.4-2.4-2.4c-1.1,0-2.1,0.4-2.8,1.2v-1.7c0.8-0.6,1.7-1,3.1-1
				C354.2,244.9,355.7,246.2,355.7,248.6z M354,251.2c0-0.9-0.8-1.6-2-1.6c-1.3,0-2,0.6-2,1.6c0,1,0.7,1.7,2,1.7
				C353.3,252.9,354,252.2,354,251.2z"/>
			<path class="st1" d="M365.6,245.1l-5.7,12.2h-1.8l2.1-4.3l-3.4-8h1.8l2.6,6.1l2.7-6.1H365.6z"/>
			<path class="st1" d="M376,242.2V254h-1.7v-9.8l-3.2,2.2v-1.7l3.6-2.4H376z"/>
			<path class="st1" d="M378.7,248.1c0-3.8,1.8-6.2,4.6-6.2c2.9,0,4.7,2.4,4.7,6.2c0,3.8-1.8,6.1-4.7,6.1
				C380.4,254.2,378.7,251.9,378.7,248.1z M386.2,248.1c0-2.8-1-4.6-2.9-4.6c-1.8,0-2.8,1.8-2.8,4.6c0,2.8,1,4.6,2.8,4.6
				C385.1,252.7,386.2,250.9,386.2,248.1z"/>
			<path class="st1" d="M390.1,251.8h2.2l-1.7,4.8h-1.3L390.1,251.8z"/>
			<path class="st1" d="M406.6,252.4v1.5h-7.5v-1.4l3.7-3.5c1.5-1.4,1.9-2.3,1.9-3.4c0-1.3-0.9-2.2-2.5-2.2c-1.4,0-2.5,0.6-3.1,1.4
				v-1.8c0.9-0.7,2-1.2,3.5-1.2c2.4,0,3.9,1.4,3.9,3.6c0,1.5-0.7,2.8-2.3,4.2l-2.9,2.7H406.6z"/>
			<path class="st1" d="M408.2,248.1c0-3.8,1.8-6.2,4.6-6.2c2.9,0,4.7,2.4,4.7,6.2c0,3.8-1.8,6.1-4.7,6.1
				C410,254.2,408.2,251.9,408.2,248.1z M415.7,248.1c0-2.8-1-4.6-2.9-4.6c-1.8,0-2.8,1.8-2.8,4.6c0,2.8,1,4.6,2.8,4.6
				C414.7,252.7,415.7,250.9,415.7,248.1z"/>
			<path class="st1" d="M423.9,242.2V254h-1.7v-9.8l-3.2,2.2v-1.7l3.6-2.4H423.9z"/>
			<path class="st1" d="M435.2,247.7c0,4.4-2.1,6.6-5.1,6.6c-1.2,0-2.2-0.3-3.1-1v-1.8c0.8,0.8,1.7,1.2,2.9,1.2
				c2.1,0,3.5-1.3,3.6-4.9c-0.7,1.5-1.8,2.1-3.2,2.1c-2.3,0-3.9-1.6-3.9-3.8c0-2.3,1.7-4.1,4.4-4.1
				C433.4,241.9,435.2,243.6,435.2,247.7z M433.4,246c0-1.5-1.1-2.6-2.6-2.6c-1.5,0-2.5,1.1-2.5,2.6c0,1.4,1,2.4,2.5,2.4
				C432.3,248.4,433.4,247.4,433.4,246z"/>
			<path class="st7" d="M129.2,284.5h-3.4v8.3h-1.4v-8.3h-3.5v-1.2h8.3V284.5z"/>
			<path class="st7" d="M138.1,291.6v1.2h-7.3v-9.5h7.2v1.2h-5.8v2.7h5.4v1.2h-5.4v3.2H138.1z"/>
			<path class="st7" d="M139.8,291.9v-1.4c1.1,0.8,2.3,1.3,3.8,1.3c1.6,0,2.4-0.5,2.4-1.6c0-0.7-0.4-1.1-1.7-1.5l-2.2-0.5
				c-1.7-0.5-2.4-1.3-2.4-2.4c0-1.6,1.4-2.7,3.8-2.7c1.6,0,2.7,0.5,3.4,1v1.4c-0.9-0.7-2.1-1.2-3.4-1.2c-1.5,0-2.4,0.5-2.4,1.4
				c0,0.6,0.4,1,1.5,1.3l2.2,0.5c1.9,0.5,2.6,1.4,2.6,2.6c0,1.7-1.5,2.9-3.8,2.9C142.2,293.1,140.9,292.6,139.8,291.9z"/>
			<path class="st7" d="M156.6,284.5h-3.4v8.3h-1.4v-8.3h-3.5v-1.2h8.3V284.5z"/>
			<path class="st7" d="M158.3,283.3h1.4v9.5h-1.4V283.3z"/>
			<path class="st7" d="M173,292.8l-0.7-8.4l-3.2,8.4h-1.5l-3.2-8.5l-0.7,8.5h-1.3l0.8-9.5h2.2l3,7.9l3.1-7.9h2.1l0.9,9.5H173z"/>
			<path class="st7" d="M176.3,288.1c0-2.8,2.2-5,5.4-5c3.1,0,5.4,2.2,5.4,5c0,2.8-2.3,5-5.4,5C178.5,293.1,176.3,290.9,176.3,288.1
				z M185.6,288.1c0-2.1-1.5-3.8-4-3.8c-2.4,0-4,1.6-4,3.8c0,2.1,1.5,3.8,4,3.8C184.1,291.8,185.6,290.2,185.6,288.1z"/>
			<path class="st7" d="M198.2,283.3v9.5h-1.9l-5.7-8.3v8.3h-1.3v-9.5h2.1l5.5,8v-8H198.2z"/>
			<path class="st7" d="M209.5,283.3l-4.1,6.2v3.4H204v-3.4l-4-6.2h1.6l3.1,4.9l3.2-4.9H209.5z"/>
			<path class="st7" d="M220.2,290.2h-4.6l-1.1,2.6h-1.5l4-9.5h1.9l3.9,9.5h-1.5L220.2,290.2z M219.8,289.1l-1.9-4.6l-1.9,4.6H219.8
				z"/>
			<path class="st7" d="M224.6,283.3h4.3c3.4,0,5.1,2,5.1,4.7c0,2.9-2,4.8-5.5,4.8h-3.9V283.3z M228.5,291.6c2.6,0,4-1.3,4-3.6
				c0-2.1-1.2-3.5-3.8-3.5H226v7.1H228.5z"/>
			<path class="st7" d="M246.6,292.8l-0.7-8.4l-3.2,8.4h-1.5l-3.2-8.5l-0.7,8.5h-1.3l0.8-9.5h2.2l3,7.9l3.1-7.9h2.1l0.9,9.5H246.6z"
				/>
			<path class="st7" d="M250.6,283.3h1.4v9.5h-1.4V283.3z"/>
			<path class="st7" d="M262,284.5h-3.4v8.3h-1.4v-8.3h-3.5v-1.2h8.3V284.5z"/>
			<path class="st7" d="M270.7,284.5h-3.4v8.3h-1.4v-8.3h-3.5v-1.2h8.3V284.5z"/>
			<path class="st7" d="M279.7,291.6v1.2h-7.3v-9.5h7.2v1.2h-5.8v2.7h5.4v1.2h-5.4v3.2H279.7z"/>
			<path class="st7" d="M282,283.3h4.3c3.4,0,5.1,2,5.1,4.7c0,2.9-2,4.8-5.5,4.8H282V283.3z M286,291.6c2.6,0,4-1.3,4-3.6
				c0-2.1-1.2-3.5-3.8-3.5h-2.8v7.1H286z"/>
			<path class="st7" d="M297.5,283.3h1.4v9.5h-1.4V283.3z"/>
			<path class="st7" d="M310.8,283.3v9.5h-1.9l-5.7-8.3v8.3h-1.3v-9.5h2.1l5.5,8v-8H310.8z"/>
			<path class="st7" d="M325.4,286.3c0,1.7-1.3,2.9-3.6,2.9H319v3.6h-1.4v-9.5h4.5C324.1,283.3,325.4,284.5,325.4,286.3z
				 M323.9,286.3c0-1.1-0.8-1.8-2.1-1.8H319v3.5h2.7C323.1,288,323.9,287.4,323.9,286.3z"/>
			<path class="st7" d="M332.5,290.2h-4.6l-1.1,2.6h-1.5l4-9.5h1.9l3.9,9.5h-1.5L332.5,290.2z M332,289.1l-1.9-4.6l-1.9,4.6H332z"/>
			<path class="st7" d="M342.9,292.8l-4.7-4.3v4.3h-1.4v-9.5h4.8c1.8,0,3,1.2,3,2.8c0,1.7-1.2,2.8-3.3,2.8h-1l4.5,4H342.9z
				 M338.3,287.8h3c1.3,0,2.1-0.6,2.1-1.7c0-1-0.7-1.6-1.9-1.6h-3.2V287.8z"/>
			<path class="st7" d="M353.9,284.5h-3.4v8.3H349v-8.3h-3.5v-1.2h8.3V284.5z"/>
			<path class="st7" d="M364.5,290.2h-4.6l-1.1,2.6h-1.5l4-9.5h1.9l3.9,9.5h-1.5L364.5,290.2z M364,289.1l-1.9-4.6l-1.9,4.6H364z"/>
			<path class="st7" d="M377.7,283.3v9.5h-1.9l-5.7-8.3v8.3h-1.3v-9.5h2.1l5.5,8v-8H377.7z"/>
			<path class="st7" d="M380.7,283.3h4.3c3.4,0,5.1,2,5.1,4.7c0,2.9-2,4.8-5.5,4.8h-3.9V283.3z M384.6,291.6c2.6,0,4-1.3,4-3.6
				c0-2.1-1.2-3.5-3.8-3.5h-2.8v7.1H384.6z"/>
			<path class="st7" d="M403.5,291.6v1.2h-7.3v-9.5h7.2v1.2h-5.8v2.7h5.4v1.2h-5.4v3.2H403.5z"/>
			<path class="st7" d="M411.7,292.8l-2.7-4l-2.8,4h-1.7l3.5-5l-3.4-4.5h1.7l2.6,3.6l2.7-3.6h1.7l-3.5,4.5l3.6,5H411.7z"/>
			<path class="st7" d="M413.9,288.1c0-3,2.3-5.1,5.7-5.1c1.5,0,2.8,0.4,3.6,1.1v1.4c-0.9-0.7-2-1.2-3.5-1.2c-2.6,0-4.3,1.6-4.3,3.7
				c0,2.1,1.6,3.8,4.3,3.8c1.4,0,2.6-0.5,3.6-1.3v1.4c-1.1,0.9-2.3,1.2-3.7,1.2C416,293.1,413.9,290.9,413.9,288.1z"/>
			<path class="st7" d="M432.3,291.6v1.3h-6.9v-9.5h1.4v8.3H432.3z"/>
			<path class="st7" d="M433.5,289v-5.7h1.4v5.6c0,1.8,1.1,2.9,3,2.9c1.8,0,2.9-1,2.9-2.9v-5.6h1.4v5.7c0,2.5-1.7,4.1-4.3,4.1
				C435.2,293.1,433.5,291.5,433.5,289z"/>
			<path class="st7" d="M444.9,283.3h4.3c3.4,0,5.1,2,5.1,4.7c0,2.9-2,4.8-5.5,4.8h-3.9V283.3z M448.9,291.6c2.6,0,4-1.3,4-3.6
				c0-2.1-1.2-3.5-3.8-3.5h-2.8v7.1H448.9z"/>
			<path class="st7" d="M463.9,291.6v1.2h-7.3v-9.5h7.2v1.2H458v2.7h5.4v1.2H458v3.2H463.9z"/>
			<path class="st7" d="M466.2,283.3h4.3c3.4,0,5.1,2,5.1,4.7c0,2.9-2,4.8-5.5,4.8h-3.9V283.3z M470.1,291.6c2.6,0,4-1.3,4-3.6
				c0-2.1-1.2-3.5-3.8-3.5h-2.8v7.1H470.1z"/>
			<path class="st7" d="M481.7,283.3h1.4v9.5h-1.4V283.3z"/>
			<path class="st7" d="M495,283.3v9.5h-1.9l-5.7-8.3v8.3h-1.3v-9.5h2.1l5.5,8v-8H495z"/>
			<path class="st7" d="M509.6,286.3c0,1.7-1.3,2.9-3.6,2.9h-2.8v3.6h-1.4v-9.5h4.5C508.3,283.3,509.6,284.5,509.6,286.3z
				 M508.1,286.3c0-1.1-0.8-1.8-2.1-1.8h-2.8v3.5h2.7C507.3,288,508.1,287.4,508.1,286.3z"/>
			<path class="st7" d="M516.7,290.2h-4.6l-1.1,2.6h-1.5l4-9.5h1.9l3.9,9.5h-1.5L516.7,290.2z M516.2,289.1l-1.9-4.6l-1.9,4.6H516.2
				z"/>
			<path class="st7" d="M527.1,292.8l-4.7-4.3v4.3h-1.4v-9.5h4.8c1.8,0,3,1.2,3,2.8c0,1.7-1.2,2.8-3.3,2.8h-1l4.5,4H527.1z
				 M522.5,287.8h3c1.3,0,2.1-0.6,2.1-1.7c0-1-0.7-1.6-1.9-1.6h-3.2V287.8z"/>
			<path class="st7" d="M538.1,284.5h-3.4v8.3h-1.4v-8.3h-3.5v-1.2h8.3V284.5z"/>
			<path class="st7" d="M537.9,292.1c0-0.5,0.4-0.9,1-0.9c0.5,0,0.9,0.4,0.9,0.9c0,0.5-0.4,0.9-0.9,0.9
				C538.3,293,537.9,292.6,537.9,292.1z"/>
		</g>
	</g>
	<g>
		<rect x="120.6" y="329.6" class="st8" width="420" height="108"/>
		<path class="st9" d="M121.4,335.7c0-3.6,2.5-6.1,6-6.1c1.5,0,2.8,0.5,3.5,1v1.7c-0.8-0.6-1.8-1.2-3.4-1.2c-2.7,0-4.4,1.9-4.4,4.5
			c0,2.6,1.7,4.5,4.4,4.5c1.4,0,2.6-0.6,3.4-1.2v1.6c-0.9,0.7-2.2,1.1-3.5,1.1C123.6,341.7,121.4,339.1,121.4,335.7z"/>
		<path class="st9" d="M139.3,338.3h-4.6l-1,3h-1.6l3.9-11.4h2.1l3.9,11.4h-1.7L139.3,338.3z M138.9,337l-1.9-5.7l-1.8,5.7H138.9z"
			/>
		<path class="st9" d="M143.2,340.4v-1.7c1,0.9,2.2,1.5,3.6,1.5c1.5,0,2.2-0.6,2.2-1.7c0-0.9-0.5-1.3-2.1-2l-1.1-0.5
			c-1.7-0.7-2.5-1.7-2.5-3.2c0-1.9,1.4-3.2,3.7-3.2c1.6,0,2.7,0.6,3.2,1.1v1.7c-0.9-0.8-1.8-1.3-3.2-1.3c-1.4,0-2.1,0.6-2.1,1.6
			c0,0.9,0.7,1.4,1.9,2l1.1,0.5c1.9,0.9,2.7,1.8,2.7,3.2c0,2-1.5,3.3-3.8,3.3C145.6,341.7,144.3,341.3,143.2,340.4z"/>
		<path class="st9" d="M160.1,339.9v1.4H153v-11.4h7v1.4h-5.5v3.3h5.1v1.4h-5.1v3.9H160.1z"/>
		<path class="st9" d="M166.2,340.4v-1.7c1,0.9,2.2,1.5,3.6,1.5c1.5,0,2.2-0.6,2.2-1.7c0-0.9-0.5-1.3-2.1-2l-1.1-0.5
			c-1.7-0.7-2.5-1.7-2.5-3.2c0-1.9,1.4-3.2,3.7-3.2c1.6,0,2.7,0.6,3.2,1.1v1.7c-0.9-0.8-1.8-1.3-3.2-1.3c-1.4,0-2.1,0.6-2.1,1.6
			c0,0.9,0.7,1.4,1.9,2l1.1,0.5c1.9,0.9,2.7,1.8,2.7,3.2c0,2-1.5,3.3-3.8,3.3C168.6,341.7,167.3,341.3,166.2,340.4z"/>
		<path class="st9" d="M175.2,335.7c0-3.4,2.4-6,5.7-6s5.7,2.6,5.7,6c0,3.4-2.4,6-5.7,6S175.2,339.1,175.2,335.7z M185,335.7
			c0-2.6-1.6-4.5-4.1-4.5s-4.1,1.9-4.1,4.5c0,2.6,1.6,4.5,4.1,4.5S185,338.2,185,335.7z"/>
		<path class="st9" d="M188.9,337.2v-7.2h1.6v7.2c0,2,1.2,3.1,2.9,3.1s2.9-1.1,2.9-3.1v-7.2h1.6v7.2c0,2.8-1.8,4.5-4.5,4.5
			S188.9,339.9,188.9,337.2z"/>
		<path class="st9" d="M206.9,341.4l-4.5-5.4v5.4h-1.6v-11.4h4.4c2.1,0,3.4,1.4,3.4,3.3c0,1.9-1.4,3.2-3.7,3.2h-0.3l4.3,4.9H206.9z
			 M202.4,335.2h2.2c1.6,0,2.4-0.7,2.4-2c0-1.2-0.7-1.9-2.1-1.9h-2.5V335.2z"/>
		<path class="st9" d="M210.3,335.7c0-3.6,2.5-6.1,6-6.1c1.5,0,2.8,0.5,3.5,1v1.7c-0.8-0.6-1.8-1.2-3.4-1.2c-2.7,0-4.4,1.9-4.4,4.5
			c0,2.6,1.7,4.5,4.4,4.5c1.4,0,2.6-0.6,3.4-1.2v1.6c-0.9,0.7-2.2,1.1-3.5,1.1C212.5,341.7,210.3,339.1,210.3,335.7z"/>
		<path class="st9" d="M229.3,339.9v1.4h-7.1v-11.4h7v1.4h-5.5v3.3h5.1v1.4h-5.1v3.9H229.3z"/>
		<path class="st9" d="M231.3,334.6c0-0.6,0.5-1.1,1.1-1.1c0.6,0,1.1,0.5,1.1,1.1c0,0.7-0.5,1.1-1.1,1.1
			C231.8,335.7,231.3,335.2,231.3,334.6z M231.3,340.5c0-0.6,0.5-1.1,1.1-1.1c0.6,0,1.1,0.5,1.1,1.1c0,0.7-0.5,1.1-1.1,1.1
			C231.8,341.6,231.3,341.1,231.3,340.5z"/>
		<path class="st9" d="M239.6,335.7c0-3.4,2.4-6,5.7-6s5.7,2.6,5.7,6c0,3.4-2.4,6-5.7,6S239.6,339.1,239.6,335.7z M249.4,335.7
			c0-2.6-1.6-4.5-4.1-4.5s-4.1,1.9-4.1,4.5c0,2.6,1.6,4.5,4.1,4.5S249.4,338.2,249.4,335.7z"/>
		<path class="st9" d="M260.9,337.2c0,2.6-1.7,4.4-3.7,4.4c-1.2,0-2.2-0.6-2.7-1.6v4.4H253v-11.3h1.5v1.7c0.5-1,1.4-1.9,2.9-1.9
			C259.5,333,260.9,334.8,260.9,337.2z M259.4,337.3c0-1.7-1-2.9-2.4-2.9c-1.5,0-2.5,1.3-2.5,3c0,1.7,0.9,2.9,2.4,2.9
			S259.4,339,259.4,337.3z"/>
		<path class="st9" d="M262.7,330.7c0-0.5,0.4-0.9,1-0.9c0.6,0,1,0.4,1,0.9s-0.4,1-1,1C263.2,331.7,262.7,331.3,262.7,330.7z
			 M263,333.2h1.5v8.2H263V333.2z"/>
		<path class="st9" d="M274.1,336.3v5.1h-1.5v-4.8c0-1.6-0.6-2.3-1.8-2.3c-1.4,0-2.2,1-2.2,2.7v4.4H267v-8.2h1.5v1.4
			c0.5-1.1,1.4-1.6,2.7-1.6C273,333,274.1,334.2,274.1,336.3z"/>
		<path class="st9" d="M276.3,330.7c0-0.5,0.4-0.9,1-0.9c0.6,0,1,0.4,1,0.9s-0.4,1-1,1C276.7,331.7,276.3,331.3,276.3,330.7z
			 M276.5,333.2h1.5v8.2h-1.5V333.2z"/>
		<path class="st9" d="M280.1,337.3c0-2.4,1.5-4.3,4-4.3c2.5,0,4,1.9,4,4.3s-1.5,4.3-4,4.3C281.6,341.6,280.1,339.7,280.1,337.3z
			 M286.5,337.3c0-1.7-0.9-3-2.5-3c-1.5,0-2.4,1.2-2.4,3s0.9,3,2.4,3C285.6,340.2,286.5,339,286.5,337.3z"/>
		<path class="st9" d="M297,336.3v5.1h-1.5v-4.8c0-1.6-0.6-2.3-1.8-2.3c-1.4,0-2.2,1-2.2,2.7v4.4H290v-8.2h1.5v1.4
			c0.5-1.1,1.4-1.6,2.7-1.6C295.9,333,297,334.2,297,336.3z"/>
		<path class="st9" d="M299.5,339.4h1.9l-1.6,4.4h-1.2L299.5,339.4z"/>
		<path class="st9" d="M314.7,331.4h-3.4v10h-1.6v-10h-3.3v-1.5h8.4V331.4z"/>
		<path class="st9" d="M319.4,333.5v1.4c-0.4-0.3-0.8-0.4-1.3-0.4c-1,0-1.7,0.9-1.7,2.5v4.4h-1.5v-8.2h1.5v1.6
			c0.4-1.1,1.1-1.8,2-1.8C318.7,333.1,319,333.2,319.4,333.5z"/>
		<path class="st9" d="M320.7,330.7c0-0.5,0.4-0.9,1-0.9c0.6,0,1,0.4,1,0.9s-0.4,1-1,1C321.2,331.7,320.7,331.3,320.7,330.7z
			 M321,333.2h1.5v8.2H321V333.2z"/>
		<path class="st9" d="M331.2,336.4v5h-1.5v-1.1c-0.4,0.8-1.2,1.3-2.3,1.3c-1.6,0-2.8-1.2-2.8-2.7c0-1.6,1.2-2.7,3-2.7
			c1,0,1.8,0.4,2.2,1v-0.7c0-1.4-0.9-2.3-2.2-2.3c-1,0-1.8,0.4-2.5,1.1v-1.5c0.7-0.5,1.6-0.9,2.7-0.9
			C329.8,333,331.2,334.2,331.2,336.4z M329.7,338.8c0-0.8-0.7-1.5-1.8-1.5c-1.2,0-1.8,0.6-1.8,1.5c0,0.9,0.6,1.5,1.8,1.5
			C329,340.4,329.7,339.7,329.7,338.8z"/>
		<path class="st9" d="M333.6,329.6h1.5v11.8h-1.5V329.6z"/>
		<path class="st9" d="M350,333.5c0,2.2-1.4,3.7-4,3.7h-2.1v4.1h-1.6v-11.4h4.1C348.6,329.9,350,331.4,350,333.5z M348.3,333.5
			c0-1.4-0.8-2.2-2.3-2.2h-2.2v4.5h2C347.5,335.9,348.3,335,348.3,333.5z"/>
		<path class="st9" d="M351.8,329.6h1.5v11.8h-1.5V329.6z"/>
		<path class="st9" d="M362.8,337.6h-5.9c0.1,1.7,1.2,2.7,3,2.7c1,0,2-0.4,2.6-0.9v1.4c-0.6,0.5-1.7,0.8-2.8,0.8
			c-2.6,0-4.4-1.7-4.4-4.4c0-2.5,1.4-4.3,4-4.3c2.1,0,3.5,1.3,3.5,3.5V337.6z M356.9,336.4h4.4c0-1.4-0.8-2.1-2.1-2.1
			C357.9,334.3,357.2,335.2,356.9,336.4z"/>
		<path class="st9" d="M370.9,336.4v5h-1.5v-1.1c-0.4,0.8-1.2,1.3-2.3,1.3c-1.6,0-2.8-1.2-2.8-2.7c0-1.6,1.2-2.7,3-2.7
			c1,0,1.8,0.4,2.2,1v-0.7c0-1.4-0.9-2.3-2.2-2.3c-1,0-1.8,0.4-2.5,1.1v-1.5c0.7-0.5,1.6-0.9,2.7-0.9
			C369.6,333,370.9,334.2,370.9,336.4z M369.4,338.8c0-0.8-0.7-1.5-1.8-1.5c-1.2,0-1.8,0.6-1.8,1.5c0,0.9,0.6,1.5,1.8,1.5
			C368.7,340.4,369.4,339.7,369.4,338.8z"/>
		<path class="st9" d="M380.7,329.6v11.8h-1.5v-1.7c-0.4,1-1.3,1.9-2.8,1.9c-2.1,0-3.6-1.7-3.6-4.3c0-2.6,1.7-4.4,3.7-4.4
			c1.2,0,2.1,0.5,2.7,1.7v-5H380.7z M379.2,337.2c0-1.7-0.9-2.9-2.4-2.9c-1.5,0-2.5,1.2-2.5,3c0,1.8,0.9,2.9,2.4,2.9
			C378.3,340.2,379.2,339,379.2,337.2z"/>
		<path class="st9" d="M383,330.7c0-0.5,0.4-0.9,1-0.9c0.6,0,1,0.4,1,0.9s-0.4,1-1,1C383.5,331.7,383,331.3,383,330.7z M383.3,333.2
			h1.5v8.2h-1.5V333.2z"/>
		<path class="st9" d="M394.4,336.3v5.1h-1.5v-4.8c0-1.6-0.6-2.3-1.8-2.3c-1.4,0-2.2,1-2.2,2.7v4.4h-1.5v-8.2h1.5v1.4
			c0.5-1.1,1.4-1.6,2.7-1.6C393.3,333,394.4,334.2,394.4,336.3z"/>
		<path class="st9" d="M404.1,333.2v7.4c0,2.5-1.6,4.1-4.1,4.1c-1.2,0-2.2-0.3-2.9-0.9v-1.5c0.7,0.8,1.7,1.1,2.8,1.1
			c2,0,2.7-1.2,2.7-3v-1c-0.6,1.2-1.4,1.8-2.7,1.8c-2.2,0-3.6-1.6-3.6-4c0-2.4,1.5-4.2,3.7-4.2c1.3,0,2.1,0.6,2.5,1.7v-1.5H404.1z
			 M402.6,337c0-1.6-1-2.7-2.4-2.7c-1.5,0-2.4,1.2-2.4,2.8c0,1.6,0.9,2.7,2.3,2.7C401.6,339.8,402.6,338.7,402.6,337z"/>
		<path class="st9" d="M406.6,339.4h1.9l-1.6,4.4h-1.2L406.6,339.4z"/>
		<path class="st9" d="M415.3,329.9h3.9c3.6,0,5.5,2.3,5.5,5.7s-2,5.7-5.8,5.7h-3.6V329.9z M418.9,339.9c2.8,0,4.2-1.7,4.2-4.3
			c0-2.6-1.2-4.3-4-4.3h-2.1v8.5H418.9z"/>
		<path class="st9" d="M426.3,337.3c0-2.4,1.5-4.3,4-4.3c2.5,0,4,1.9,4,4.3s-1.5,4.3-4,4.3C427.8,341.6,426.3,339.7,426.3,337.3z
			 M432.7,337.3c0-1.7-0.9-3-2.5-3c-1.5,0-2.4,1.2-2.4,3s0.9,3,2.4,3C431.8,340.2,432.7,339,432.7,337.3z"/>
		<path class="st9" d="M435.6,337.3c0-2.5,1.7-4.3,4.2-4.3c1.2,0,2,0.3,2.5,0.7v1.6c-0.8-0.7-1.5-0.9-2.5-0.9
			c-1.7,0-2.8,1.2-2.8,2.9s1,3,3,3c0.9,0,1.8-0.3,2.4-0.8v1.5c-0.8,0.5-1.6,0.7-2.6,0.7C437.3,341.6,435.6,339.7,435.6,337.3z"/>
		<path class="st9" d="M449.4,341.4l-3.5-4v4h-1.5v-11.8h1.5v7l3.2-3.4h2l-3.8,3.7l4.1,4.5H449.4z"/>
		<path class="st9" d="M459.2,337.6h-5.9c0.1,1.7,1.2,2.7,3,2.7c1,0,2-0.4,2.6-0.9v1.4c-0.6,0.5-1.7,0.8-2.8,0.8
			c-2.6,0-4.4-1.7-4.4-4.4c0-2.5,1.4-4.3,4-4.3c2.1,0,3.5,1.3,3.5,3.5V337.6z M453.3,336.4h4.4c0-1.4-0.8-2.1-2.1-2.1
			C454.3,334.3,453.5,335.2,453.3,336.4z"/>
		<path class="st9" d="M465.8,334.5h-2.2v6.9h-1.5v-6.9h-2v-1.3h2v-2l1.5-0.5v2.5h2.2V334.5z"/>
		<path class="st9" d="M121.4,360.1c0-3.6,2.5-6.1,6-6.1c1.5,0,2.8,0.5,3.5,1v1.7c-0.8-0.6-1.8-1.2-3.4-1.2c-2.7,0-4.4,1.9-4.4,4.5
			c0,2.6,1.7,4.5,4.4,4.5c1.4,0,2.6-0.6,3.4-1.2v1.6c-0.9,0.7-2.2,1.1-3.5,1.1C123.6,366.1,121.4,363.5,121.4,360.1z"/>
		<path class="st9" d="M139.3,362.8h-4.6l-1,3h-1.6l3.9-11.4h2.1l3.9,11.4h-1.7L139.3,362.8z M138.8,361.5l-1.9-5.7l-1.8,5.7H138.8z
			"/>
		<path class="st9" d="M143.1,364.8v-1.7c1,0.9,2.2,1.5,3.6,1.5c1.5,0,2.2-0.6,2.2-1.7c0-0.9-0.5-1.3-2.1-2l-1.1-0.5
			c-1.7-0.7-2.5-1.7-2.5-3.2c0-1.9,1.4-3.2,3.7-3.2c1.6,0,2.7,0.6,3.2,1.1v1.7c-0.9-0.8-1.8-1.3-3.2-1.3c-1.4,0-2.1,0.6-2.1,1.6
			c0,0.9,0.7,1.4,1.9,2l1.1,0.5c1.9,0.9,2.7,1.8,2.7,3.2c0,2-1.5,3.3-3.8,3.3C145.5,366.1,144.2,365.7,143.1,364.8z"/>
		<path class="st9" d="M160,364.4v1.4h-7.1v-11.4h7v1.4h-5.5v3.3h5.1v1.4h-5.1v3.9H160z"/>
		<path class="st9" d="M165.9,360.1c0-3.6,2.5-6.1,6-6.1c1.5,0,2.8,0.5,3.5,1v1.7c-0.8-0.6-1.8-1.2-3.4-1.2c-2.7,0-4.4,1.9-4.4,4.5
			c0,2.6,1.7,4.5,4.4,4.5c1.4,0,2.6-0.6,3.4-1.2v1.6c-0.9,0.7-2.2,1.1-3.5,1.1C168.1,366.1,165.9,363.5,165.9,360.1z"/>
		<path class="st9" d="M183.7,362.8h-4.6l-1,3h-1.6l3.9-11.4h2.1l3.9,11.4h-1.7L183.7,362.8z M183.3,361.5l-1.9-5.7l-1.8,5.7H183.3z
			"/>
		<path class="st9" d="M196,358c0,2.2-1.4,3.7-4,3.7h-2.1v4.1h-1.6v-11.4h4.1C194.6,354.4,196,355.8,196,358z M194.4,358
			c0-1.4-0.8-2.2-2.3-2.2h-2.2v4.5h2C193.6,360.3,194.4,359.4,194.4,358z"/>
		<path class="st9" d="M205.1,355.8h-3.4v10h-1.6v-10h-3.3v-1.5h8.4V355.8z"/>
		<path class="st9" d="M206.9,354.4h1.6v11.4h-1.6V354.4z"/>
		<path class="st9" d="M210.8,360.1c0-3.4,2.4-6,5.7-6s5.7,2.6,5.7,6c0,3.4-2.4,6-5.7,6S210.8,363.5,210.8,360.1z M220.6,360.1
			c0-2.6-1.6-4.5-4.1-4.5s-4.1,1.9-4.1,4.5c0,2.6,1.6,4.5,4.1,4.5S220.6,362.7,220.6,360.1z"/>
		<path class="st9" d="M234,354.4v11.4h-2.2l-5.7-10v10h-1.5v-11.4h2.4l5.4,9.6v-9.6H234z"/>
		<path class="st9" d="M236.6,359.1c0-0.6,0.5-1.1,1.1-1.1c0.6,0,1.1,0.5,1.1,1.1c0,0.7-0.5,1.1-1.1,1.1
			C237.1,360.2,236.6,359.7,236.6,359.1z M236.6,364.9c0-0.6,0.5-1.1,1.1-1.1c0.6,0,1.1,0.5,1.1,1.1c0,0.7-0.5,1.1-1.1,1.1
			C237.1,366.1,236.6,365.6,236.6,364.9z"/>
		<path class="st9" d="M253.5,362.5c0,1.9-1.3,3.3-3.8,3.3h-4v-11.4h4.3c1.9,0,3.1,1.3,3.1,2.9c0,1.1-0.6,2-1.6,2.4
			C252.8,360.1,253.5,361.2,253.5,362.5z M247.2,355.8v3.5h2.5c1.2,0,1.7-0.7,1.7-1.7c0-1.1-0.7-1.8-1.9-1.8H247.2z M251.9,362.5
			c0-1.1-0.7-1.9-2.1-1.9h-2.5v3.9h2.3C251.1,364.4,251.9,363.6,251.9,362.5z"/>
		<path class="st9" d="M259.3,360.1c0-3.6,2.5-6.1,6-6.1c1.5,0,2.8,0.5,3.5,1v1.7c-0.8-0.6-1.8-1.2-3.4-1.2c-2.7,0-4.4,1.9-4.4,4.5
			c0,2.6,1.7,4.5,4.4,4.5c1.4,0,2.6-0.6,3.4-1.2v1.6c-0.9,0.7-2.2,1.1-3.5,1.1C261.5,366.1,259.3,363.5,259.3,360.1z"/>
		<path class="st9" d="M270.1,361.7c0-2.4,1.5-4.3,4-4.3c2.5,0,4,1.9,4,4.3s-1.5,4.3-4,4.3C271.6,366.1,270.1,364.2,270.1,361.7z
			 M276.5,361.7c0-1.7-0.9-3-2.5-3c-1.5,0-2.4,1.2-2.4,3s0.9,3,2.4,3C275.6,364.7,276.5,363.5,276.5,361.7z"/>
		<path class="st9" d="M280,354.1h1.5v11.8H280V354.1z"/>
		<path class="st9" d="M284.1,354.1h1.5v11.8h-1.5V354.1z"/>
		<path class="st9" d="M295,362h-5.9c0.1,1.7,1.2,2.7,3,2.7c1,0,2-0.4,2.6-0.9v1.4c-0.6,0.5-1.7,0.8-2.8,0.8c-2.6,0-4.4-1.7-4.4-4.4
			c0-2.5,1.4-4.3,4-4.3c2.1,0,3.5,1.3,3.5,3.5V362z M289.2,360.9h4.4c0-1.4-0.8-2.1-2.1-2.1C290.1,358.8,289.4,359.6,289.2,360.9z"
			/>
		<path class="st9" d="M296.4,361.7c0-2.5,1.7-4.3,4.2-4.3c1.2,0,2,0.3,2.5,0.7v1.6c-0.8-0.7-1.5-0.9-2.5-0.9
			c-1.7,0-2.8,1.2-2.8,2.9s1,3,3,3c0.9,0,1.8-0.3,2.4-0.8v1.5c-0.8,0.5-1.6,0.7-2.6,0.7C298.1,366.1,296.4,364.2,296.4,361.7z"/>
		<path class="st9" d="M309.9,358.9h-2.2v6.9h-1.5v-6.9h-2v-1.3h2v-2l1.5-0.5v2.5h2.2V358.9z"/>
		<path class="st9" d="M311.1,355.2c0-0.5,0.4-0.9,1-0.9c0.6,0,1,0.4,1,0.9s-0.4,1-1,1C311.6,356.1,311.1,355.7,311.1,355.2z
			 M311.4,357.7h1.5v8.2h-1.5V357.7z"/>
		<path class="st9" d="M323.3,361.7c0,2.6-1.7,4.4-3.7,4.4c-1.2,0-2.2-0.7-2.7-1.7v1.5h-1.5v-11.8h1.5v5.2c0.5-1,1.4-1.9,2.9-1.9
			C321.9,357.4,323.3,359.3,323.3,361.7z M321.8,361.7c0-1.7-1-2.9-2.4-2.9c-1.5,0-2.5,1.3-2.5,3c0,1.7,0.9,2.9,2.4,2.9
			S321.8,363.5,321.8,361.7z"/>
		<path class="st9" d="M325.3,354.1h1.5v11.8h-1.5V354.1z"/>
		<path class="st9" d="M336.2,362h-5.9c0.1,1.7,1.2,2.7,3,2.7c1,0,2-0.4,2.6-0.9v1.4c-0.6,0.5-1.7,0.8-2.8,0.8
			c-2.6,0-4.4-1.7-4.4-4.4c0-2.5,1.4-4.3,4-4.3c2.1,0,3.5,1.3,3.5,3.5V362z M330.4,360.9h4.4c0-1.4-0.8-2.1-2.1-2.1
			C331.3,358.8,330.6,359.6,330.4,360.9z"/>
		<path class="st9" d="M337.7,365.1v-1.4c0.8,0.7,1.8,1.1,2.8,1.1c1,0,1.7-0.4,1.7-1.2c0-0.5-0.2-0.9-1-1.1l-1.6-0.5
			c-1.3-0.4-1.9-1.2-1.9-2.2c0-1.4,1.1-2.3,3-2.3c1.1,0,1.9,0.3,2.6,0.8v1.5c-0.7-0.6-1.7-0.9-2.6-0.9c-1,0-1.5,0.3-1.5,0.9
			c0,0.5,0.3,0.9,1,1l1.5,0.4c1.5,0.4,2.1,1.2,2.1,2.4c0,1.6-1.2,2.6-3,2.6C339.5,366.1,338.6,365.8,337.7,365.1z"/>
		<path class="st9" d="M345.5,363.9h1.9l-1.6,4.4h-1.2L345.5,363.9z"/>
		<path class="st9" d="M354.2,354.4h1.6v11.4h-1.6V354.4z"/>
		<path class="st9" d="M365.5,360.7v5.1H364V361c0-1.6-0.6-2.3-1.8-2.3c-1.4,0-2.2,1-2.2,2.7v4.4h-1.5v-8.2h1.5v1.4
			c0.5-1.1,1.4-1.6,2.7-1.6C364.4,357.4,365.5,358.6,365.5,360.7z"/>
		<path class="st9" d="M367.3,361.7c0-2.5,1.7-4.3,4.2-4.3c1.2,0,2,0.3,2.5,0.7v1.6c-0.8-0.7-1.5-0.9-2.5-0.9
			c-1.7,0-2.8,1.2-2.8,2.9s1,3,3,3c0.9,0,1.8-0.3,2.4-0.8v1.5c-0.8,0.5-1.6,0.7-2.6,0.7C369.1,366.1,367.3,364.2,367.3,361.7z"/>
		<path class="st9" d="M375.7,364.9c0-0.6,0.5-1.1,1.1-1.1c0.6,0,1.1,0.5,1.1,1.1c0,0.7-0.5,1.1-1.1,1.1
			C376.2,366.1,375.7,365.6,375.7,364.9z"/>
		<path class="st9" d="M390.8,357.7l-3.2,8.2h-1.4l-3.2-8.2h1.6l2.3,6.3l2.3-6.3H390.8z"/>
		<path class="st9" d="M391.1,364.9c0-0.6,0.5-1.1,1.1-1.1c0.6,0,1.1,0.5,1.1,1.1c0,0.7-0.5,1.1-1.1,1.1
			C391.6,366.1,391.1,365.6,391.1,364.9z"/>
		<path class="st9" d="M406,365.8l-4.5-5.4v5.4h-1.6v-11.4h4.4c2.1,0,3.4,1.4,3.4,3.3c0,1.9-1.4,3.2-3.7,3.2h-0.3l4.3,4.9H406z
			 M401.5,359.7h2.2c1.6,0,2.4-0.7,2.4-2c0-1.2-0.7-1.9-2.1-1.9h-2.5V359.7z"/>
		<path class="st9" d="M416.5,362h-5.9c0.1,1.7,1.2,2.7,3,2.7c1,0,2-0.4,2.6-0.9v1.4c-0.6,0.5-1.7,0.8-2.8,0.8
			c-2.6,0-4.4-1.7-4.4-4.4c0-2.5,1.4-4.3,4-4.3c2.1,0,3.5,1.3,3.5,3.5V362z M410.6,360.9h4.4c0-1.4-0.8-2.1-2.1-2.1
			C411.5,358.8,410.8,359.6,410.6,360.9z"/>
		<path class="st9" d="M425.5,360.7v5.1H424V361c0-1.6-0.6-2.3-1.8-2.3c-1.4,0-2.2,1-2.2,2.7v4.4h-1.5v-8.2h1.5v1.4
			c0.5-1.1,1.4-1.6,2.7-1.6C424.3,357.4,425.5,358.6,425.5,360.7z"/>
		<path class="st9" d="M433.9,360.9v5h-1.5v-1.1c-0.4,0.8-1.2,1.3-2.3,1.3c-1.6,0-2.8-1.2-2.8-2.7c0-1.6,1.2-2.7,3-2.7
			c1,0,1.8,0.4,2.2,1V361c0-1.4-0.9-2.3-2.2-2.3c-1,0-1.8,0.4-2.5,1.1v-1.5c0.7-0.5,1.6-0.9,2.7-0.9
			C432.6,357.4,433.9,358.7,433.9,360.9z M432.5,363.3c0-0.8-0.7-1.5-1.8-1.5c-1.2,0-1.8,0.6-1.8,1.5c0,0.9,0.6,1.5,1.8,1.5
			C431.8,364.9,432.5,364.2,432.5,363.3z"/>
		<path class="st9" d="M436.1,355.2c0-0.5,0.4-0.9,1-0.9c0.6,0,1,0.4,1,0.9s-0.4,1-1,1C436.6,356.1,436.1,355.7,436.1,355.2z
			 M436.4,357.7h1.5v8.2h-1.5V357.7z"/>
		<path class="st9" d="M439.9,365.1v-1.4c0.8,0.7,1.8,1.1,2.8,1.1c1,0,1.7-0.4,1.7-1.2c0-0.5-0.2-0.9-1-1.1l-1.6-0.5
			c-1.3-0.4-1.9-1.2-1.9-2.2c0-1.4,1.1-2.3,3-2.3c1.1,0,1.9,0.3,2.6,0.8v1.5c-0.7-0.6-1.7-0.9-2.6-0.9c-1,0-1.5,0.3-1.5,0.9
			c0,0.5,0.3,0.9,1,1l1.5,0.4c1.5,0.4,2.1,1.2,2.1,2.4c0,1.6-1.2,2.6-3,2.6C441.7,366.1,440.8,365.8,439.9,365.1z"/>
		<path class="st9" d="M447.2,365.1v-1.4c0.8,0.7,1.8,1.1,2.8,1.1c1,0,1.7-0.4,1.7-1.2c0-0.5-0.2-0.9-1-1.1l-1.6-0.5
			c-1.3-0.4-1.9-1.2-1.9-2.2c0-1.4,1.1-2.3,3-2.3c1.1,0,1.9,0.3,2.6,0.8v1.5c-0.7-0.6-1.7-0.9-2.6-0.9c-1,0-1.5,0.3-1.5,0.9
			c0,0.5,0.3,0.9,1,1l1.5,0.4c1.5,0.4,2.1,1.2,2.1,2.4c0,1.6-1.2,2.6-3,2.6C449.1,366.1,448.1,365.8,447.2,365.1z"/>
		<path class="st9" d="M461.2,360.9v5h-1.5v-1.1c-0.4,0.8-1.2,1.3-2.3,1.3c-1.6,0-2.8-1.2-2.8-2.7c0-1.6,1.2-2.7,3-2.7
			c1,0,1.8,0.4,2.2,1V361c0-1.4-0.9-2.3-2.2-2.3c-1,0-1.8,0.4-2.5,1.1v-1.5c0.7-0.5,1.6-0.9,2.7-0.9
			C459.9,357.4,461.2,358.7,461.2,360.9z M459.7,363.3c0-0.8-0.7-1.5-1.8-1.5c-1.2,0-1.8,0.6-1.8,1.5c0,0.9,0.6,1.5,1.8,1.5
			C459,364.9,459.7,364.2,459.7,363.3z"/>
		<path class="st9" d="M470.6,360.7v5.1h-1.5V361c0-1.6-0.6-2.3-1.8-2.3c-1.4,0-2.2,1-2.2,2.7v4.4h-1.5v-8.2h1.5v1.4
			c0.5-1.1,1.4-1.6,2.7-1.6C469.5,357.4,470.6,358.6,470.6,360.7z"/>
		<path class="st9" d="M472.4,361.7c0-2.5,1.7-4.3,4.2-4.3c1.2,0,2,0.3,2.5,0.7v1.6c-0.8-0.7-1.5-0.9-2.5-0.9
			c-1.7,0-2.8,1.2-2.8,2.9s1,3,3,3c0.9,0,1.8-0.3,2.4-0.8v1.5c-0.8,0.5-1.6,0.7-2.6,0.7C474.1,366.1,472.4,364.2,472.4,361.7z"/>
		<path class="st9" d="M488.1,362h-5.9c0.1,1.7,1.2,2.7,3,2.7c1,0,2-0.4,2.6-0.9v1.4c-0.6,0.5-1.7,0.8-2.8,0.8
			c-2.6,0-4.4-1.7-4.4-4.4c0-2.5,1.4-4.3,4-4.3c2.1,0,3.5,1.3,3.5,3.5V362z M482.3,360.9h4.4c0-1.4-0.8-2.1-2.1-2.1
			C483.2,358.8,482.5,359.6,482.3,360.9z"/>
		<path class="st9" d="M504.8,359.5v0.8c0,3.7-2,5.8-5.2,5.8c-3.5,0-5.8-2.6-5.8-6c0-3.3,2.2-6.1,6.1-6.1c1.8,0,3.1,0.6,4,1.3v1.7
			c-0.8-0.7-2.1-1.5-4-1.5c-3,0-4.4,2-4.4,4.5c0,2.7,1.6,4.6,4.2,4.6c2.3,0,3.6-1.4,3.7-3.7h-5.8l0.3-1.4H504.8z"/>
		<path class="st9" d="M511.3,357.9v1.4c-0.4-0.3-0.8-0.4-1.3-0.4c-1,0-1.7,0.9-1.7,2.5v4.4h-1.5v-8.2h1.5v1.6
			c0.4-1.1,1.1-1.8,2-1.8C510.6,357.5,511,357.6,511.3,357.9z"/>
		<path class="st9" d="M512.1,361.7c0-2.4,1.5-4.3,4-4.3c2.5,0,4,1.9,4,4.3s-1.5,4.3-4,4.3C513.6,366.1,512.1,364.2,512.1,361.7z
			 M518.5,361.7c0-1.7-0.9-3-2.5-3c-1.5,0-2.4,1.2-2.4,3s0.9,3,2.4,3C517.6,364.7,518.5,363.5,518.5,361.7z"/>
		<path class="st9" d="M528.9,357.7v8.2h-1.5v-1.5c-0.5,1.1-1.4,1.7-2.5,1.7c-1.8,0-2.9-1.1-2.9-3.2v-5.2h1.5v4.8
			c0,1.5,0.7,2.3,1.9,2.3c1.3,0,2.1-1,2.1-2.8v-4.3H528.9z"/>
		<path class="st9" d="M539.2,361.7c0,2.6-1.7,4.4-3.7,4.4c-1.2,0-2.2-0.6-2.7-1.6v4.4h-1.5v-11.3h1.5v1.7c0.5-1,1.4-1.9,2.9-1.9
			C537.8,357.4,539.2,359.3,539.2,361.7z M537.7,361.7c0-1.7-1-2.9-2.4-2.9c-1.5,0-2.5,1.3-2.5,3c0,1.7,0.9,2.9,2.4,2.9
			S537.7,363.5,537.7,361.7z"/>
		<path class="st9" d="M122.2,378.8h3.9c3.6,0,5.5,2.3,5.5,5.7s-2,5.7-5.8,5.7h-3.6V378.8z M125.8,388.8c2.8,0,4.2-1.7,4.2-4.3
			c0-2.6-1.2-4.3-4-4.3h-2.1v8.5H125.8z"/>
		<path class="st9" d="M133.3,384.5c0-3.4,2.4-6,5.7-6s5.7,2.6,5.7,6c0,3.4-2.4,6-5.7,6S133.3,388,133.3,384.5z M143,384.5
			c0-2.6-1.6-4.5-4.1-4.5s-4.1,1.9-4.1,4.5c0,2.6,1.6,4.5,4.1,4.5S143,387.1,143,384.5z"/>
		<path class="st9" d="M146.3,384.6c0-3.6,2.5-6.1,6-6.1c1.5,0,2.8,0.5,3.5,1v1.7c-0.8-0.6-1.8-1.2-3.4-1.2c-2.7,0-4.4,1.9-4.4,4.5
			c0,2.6,1.7,4.5,4.4,4.5c1.4,0,2.6-0.6,3.4-1.2v1.6c-0.9,0.7-2.2,1.1-3.5,1.1C148.5,390.6,146.3,388,146.3,384.6z"/>
		<path class="st9" d="M164.7,390.3l-4.9-5.7v5.7h-1.6v-11.4h1.6v5.1l4.8-5.1h2.1l-5.3,5.3l5.4,6.1H164.7z"/>
		<path class="st9" d="M175.6,388.8v1.4h-7.1v-11.4h7v1.4h-5.5v3.3h5.1v1.4h-5.1v3.9H175.6z"/>
		<path class="st9" d="M185.1,380.3h-3.4v10h-1.6v-10h-3.3v-1.5h8.4V380.3z"/>
		<path class="st9" d="M200,378.8v11.4h-2.2l-5.7-10v10h-1.5v-11.4h2.4l5.4,9.6v-9.6H200z"/>
		<path class="st9" d="M203.1,386v-7.2h1.6v7.2c0,2,1.2,3.1,2.9,3.1s2.9-1.1,2.9-3.1v-7.2h1.6v7.2c0,2.8-1.8,4.5-4.5,4.5
			S203.1,388.8,203.1,386z"/>
		<path class="st9" d="M225.8,390.3l-0.7-10.1l-3.2,10.1H220l-3.2-10.2l-0.6,10.2h-1.5l0.7-11.4h2.5l3,9.6l3.1-9.6h2.4l0.9,11.4
			H225.8z"/>
		<path class="st9" d="M238,387c0,1.9-1.3,3.3-3.8,3.3h-4v-11.4h4.3c1.9,0,3.1,1.3,3.1,2.9c0,1.1-0.6,2-1.6,2.4
			C237.3,384.5,238,385.6,238,387z M231.7,380.2v3.5h2.5c1.2,0,1.7-0.7,1.7-1.7c0-1.1-0.7-1.8-1.9-1.8H231.7z M236.4,386.9
			c0-1.1-0.7-1.9-2.1-1.9h-2.5v3.9h2.3C235.6,388.8,236.4,388.1,236.4,386.9z"/>
		<path class="st9" d="M247.5,388.8v1.4h-7.1v-11.4h7v1.4H242v3.3h5.1v1.4H242v3.9H247.5z"/>
		<path class="st9" d="M256.1,390.3l-4.5-5.4v5.4h-1.6v-11.4h4.4c2.1,0,3.4,1.4,3.4,3.3c0,1.9-1.4,3.2-3.7,3.2h-0.3l4.3,4.9H256.1z
			 M251.7,384.1h2.2c1.6,0,2.4-0.7,2.4-2c0-1.2-0.7-1.9-2.1-1.9h-2.5V384.1z"/>
		<path class="st9" d="M259.8,383.5c0-0.6,0.5-1.1,1.1-1.1c0.6,0,1.1,0.5,1.1,1.1c0,0.7-0.5,1.1-1.1,1.1
			C260.3,384.6,259.8,384.1,259.8,383.5z M259.8,389.4c0-0.6,0.5-1.1,1.1-1.1c0.6,0,1.1,0.5,1.1,1.1c0,0.7-0.5,1.1-1.1,1.1
			C260.3,390.5,259.8,390,259.8,389.4z"/>
		<path class="st9" d="M268.3,384.8c0-3.5,1.6-5.7,4.1-5.7c2.6,0,4.2,2.2,4.2,5.7c0,3.5-1.6,5.6-4.2,5.6
			C269.9,390.5,268.3,388.3,268.3,384.8z M275,384.9c0-2.6-0.9-4.3-2.6-4.3c-1.6,0-2.5,1.7-2.5,4.2c0,2.6,0.9,4.2,2.5,4.2
			C274.1,389.1,275,387.4,275,384.9z"/>
		<path class="st9" d="M286.3,386.6c0,2.2-1.6,3.9-4,3.9c-2.3,0-4-1.5-4-5.2c0-3.9,1.9-6.2,4.8-6.2c1,0,1.9,0.3,2.6,0.8v1.6
			c-0.5-0.5-1.5-1-2.6-1c-2,0-3.3,1.6-3.3,4.2c0.5-1.1,1.5-1.8,2.9-1.8C284.9,383,286.3,384.5,286.3,386.6z M284.7,386.7
			c0-1.4-1-2.4-2.4-2.4c-1.4,0-2.4,1-2.4,2.4c0,1.4,1,2.5,2.4,2.5C283.7,389.1,284.7,388.2,284.7,386.7z"/>
		<path class="st9" d="M288.2,384.1h5.3v1.5h-5.3V384.1z"/>
		<path class="st9" d="M295.4,384.6c0-3.6,2.5-6.1,6-6.1c1.5,0,2.8,0.5,3.5,1v1.7c-0.8-0.6-1.8-1.2-3.4-1.2c-2.7,0-4.4,1.9-4.4,4.5
			c0,2.6,1.7,4.5,4.4,4.5c1.4,0,2.6-0.6,3.4-1.2v1.6c-0.9,0.7-2.2,1.1-3.5,1.1C297.6,390.6,295.4,388,295.4,384.6z"/>
		<path class="st9" d="M316,378.8l-4.1,11.4h-1.8l-4.1-11.4h1.7l3.3,9.6l3.3-9.6H316z"/>
		<path class="st9" d="M317,383.7h5.3v1.5H317V383.7z"/>
		<path class="st9" d="M328.3,379.4v10.9h-1.5v-9.1l-2.9,2v-1.6l3.2-2.2H328.3z"/>
		<path class="st9" d="M334.7,379.4v10.9h-1.5v-9.1l-2.9,2v-1.6l3.2-2.2H334.7z"/>
		<path class="st9" d="M341.1,379.4v10.9h-1.5v-9.1l-2.9,2v-1.6l3.2-2.2H341.1z"/>
		<path class="st9" d="M350.9,386.7c0,2.1-1.6,3.8-4.1,3.8c-1.1,0-2.2-0.3-3-0.9V388c0.7,0.7,1.8,1.1,2.8,1.1c1.8,0,2.7-1,2.7-2.3
			c0-1.3-0.8-2.3-2.6-2.3c-1.2,0-2,0.4-2.8,0.7v-5.8h6.4v1.4h-4.9v2.7c0.6-0.2,1.2-0.3,2-0.3C349.6,383.3,350.9,384.9,350.9,386.7z"
			/>
		<path class="st9" d="M121.4,409c0-3.6,2.5-6.1,6-6.1c1.5,0,2.8,0.5,3.5,1v1.7c-0.8-0.6-1.8-1.2-3.4-1.2c-2.7,0-4.4,1.9-4.4,4.5
			c0,2.6,1.7,4.5,4.4,4.5c1.4,0,2.6-0.6,3.4-1.2v1.6c-0.9,0.7-2.2,1.1-3.5,1.1C123.6,415,121.4,412.4,121.4,409z"/>
		<path class="st9" d="M139.3,411.7h-4.6l-1,3h-1.6l3.9-11.4h2.1l3.9,11.4h-1.7L139.3,411.7z M138.9,410.4l-1.9-5.7l-1.8,5.7H138.9z
			"/>
		<path class="st9" d="M143.2,413.7V412c1,0.9,2.2,1.5,3.6,1.5c1.5,0,2.2-0.6,2.2-1.7c0-0.9-0.5-1.3-2.1-2l-1.1-0.5
			c-1.7-0.7-2.5-1.7-2.5-3.2c0-1.9,1.4-3.2,3.7-3.2c1.6,0,2.7,0.6,3.2,1.1v1.7c-0.9-0.8-1.8-1.3-3.2-1.3c-1.4,0-2.1,0.6-2.1,1.6
			c0,0.9,0.7,1.4,1.9,2l1.1,0.5c1.9,0.9,2.7,1.8,2.7,3.2c0,2-1.5,3.3-3.8,3.3C145.6,415,144.3,414.6,143.2,413.7z"/>
		<path class="st9" d="M160.1,413.3v1.4H153v-11.4h7v1.4h-5.5v3.3h5.1v1.4h-5.1v3.9H160.1z"/>
		<path class="st9" d="M166.1,409c0-3.6,2.5-6.1,6-6.1c1.5,0,2.8,0.5,3.5,1v1.7c-0.8-0.6-1.8-1.2-3.4-1.2c-2.7,0-4.4,1.9-4.4,4.5
			c0,2.6,1.7,4.5,4.4,4.5c1.4,0,2.6-0.6,3.4-1.2v1.6c-0.9,0.7-2.2,1.1-3.5,1.1C168.3,415,166.1,412.4,166.1,409z"/>
		<path class="st9" d="M177.9,403.3h1.6v11.4h-1.6V403.3z"/>
		<path class="st9" d="M189.7,404.7h-3.4v10h-1.6v-10h-3.3v-1.5h8.4V404.7z"/>
		<path class="st9" d="M198.7,413.3v1.4h-7.1v-11.4h7v1.4h-5.5v3.3h5.1v1.4h-5.1v3.9H198.7z"/>
		<path class="st9" d="M200.4,409c0-3.3,1.5-5.8,3.1-7.4h1.8c-1.8,1.5-3.3,4-3.3,7.4c0,3.4,1.5,5.9,3.3,7.7h-1.8
			C202.1,415.3,200.4,412.7,200.4,409z"/>
		<path class="st9" d="M205.7,413.7V412c1,0.9,2.2,1.5,3.6,1.5c1.5,0,2.2-0.6,2.2-1.7c0-0.9-0.5-1.3-2.1-2l-1.1-0.5
			c-1.7-0.7-2.5-1.7-2.5-3.2c0-1.9,1.4-3.2,3.7-3.2c1.6,0,2.7,0.6,3.2,1.1v1.7c-0.9-0.8-1.8-1.3-3.2-1.3c-1.4,0-2.1,0.6-2.1,1.6
			c0,0.9,0.7,1.4,1.9,2l1.1,0.5c1.9,0.9,2.7,1.8,2.7,3.2c0,2-1.5,3.3-3.8,3.3C208.1,415,206.8,414.6,205.7,413.7z"/>
		<path class="st9" d="M218.4,409.3c0,3.3-1.5,5.8-3.1,7.4h-1.8c1.8-1.5,3.3-4,3.3-7.4c0-3.4-1.5-5.9-3.3-7.7h1.8
			C216.6,403,218.4,405.6,218.4,409.3z"/>
		<path class="st9" d="M220.2,407.9c0-0.6,0.5-1.1,1.1-1.1c0.6,0,1.1,0.5,1.1,1.1c0,0.7-0.5,1.1-1.1,1.1
			C220.7,409.1,220.2,408.6,220.2,407.9z M220.2,413.8c0-0.6,0.5-1.1,1.1-1.1c0.6,0,1.1,0.5,1.1,1.1c0,0.7-0.5,1.1-1.1,1.1
			C220.7,414.9,220.2,414.5,220.2,413.8z"/>
		<path class="st9" d="M235.4,413.3v1.4h-6.7v-1.3l3.3-3.2c1.3-1.3,1.7-2.2,1.7-3.1c0-1.2-0.8-2-2.2-2c-1.2,0-2.2,0.6-2.8,1.3v-1.6
			c0.8-0.7,1.8-1.1,3.1-1.1c2.2,0,3.5,1.3,3.5,3.3c0,1.4-0.6,2.6-2,3.9l-2.6,2.5H235.4z"/>
		<path class="st9" d="M237.1,409.3c0-3.5,1.6-5.7,4.1-5.7c2.6,0,4.2,2.2,4.2,5.7c0,3.5-1.6,5.6-4.2,5.6
			C238.7,414.9,237.1,412.8,237.1,409.3z M243.9,409.3c0-2.6-0.9-4.3-2.6-4.3c-1.6,0-2.5,1.7-2.5,4.2c0,2.6,0.9,4.2,2.5,4.2
			C242.9,413.5,243.9,411.9,243.9,409.3z"/>
		<path class="st9" d="M247.2,409.3c0-3.5,1.6-5.7,4.1-5.7c2.6,0,4.2,2.2,4.2,5.7c0,3.5-1.6,5.6-4.2,5.6
			C248.8,414.9,247.2,412.8,247.2,409.3z M254,409.3c0-2.6-0.9-4.3-2.6-4.3c-1.6,0-2.5,1.7-2.5,4.2c0,2.6,0.9,4.2,2.5,4.2
			C253,413.5,254,411.9,254,409.3z"/>
		<path class="st9" d="M264.9,411.7c0,1.8-1.5,3.2-3.8,3.2c-2.3,0-3.8-1.4-3.8-3.2c0-1.3,0.8-2.3,2.1-2.8c-1.1-0.4-1.8-1.3-1.8-2.4
			c0-1.6,1.4-3,3.5-3c2.1,0,3.5,1.4,3.5,3c0,1.1-0.7,2-1.8,2.4C264.1,409.4,264.9,410.4,264.9,411.7z M263.3,411.6
			c0-1.1-0.8-2-2.2-2c-1.4,0-2.2,0.9-2.2,2c0,1.1,0.8,2,2.2,2C262.5,413.6,263.3,412.7,263.3,411.6z M259.1,406.7c0,1,0.7,1.8,2,1.8
			c1.2,0,2-0.8,2-1.8c0-1-0.8-1.7-2-1.7S259.1,405.7,259.1,406.7z"/>
		<path class="st9" d="M271.5,410.5v-7.2h1.6v7.2c0,2,1.2,3.1,2.9,3.1s2.9-1.1,2.9-3.1v-7.2h1.6v7.2c0,2.8-1.8,4.5-4.5,4.5
			S271.5,413.3,271.5,410.5z"/>
		<path class="st9" d="M282.3,413.8c0-0.6,0.5-1.1,1.1-1.1c0.6,0,1.1,0.5,1.1,1.1c0,0.7-0.5,1.1-1.1,1.1
			C282.8,414.9,282.3,414.5,282.3,413.8z"/>
		<path class="st9" d="M286.3,413.7V412c1,0.9,2.2,1.5,3.6,1.5c1.5,0,2.2-0.6,2.2-1.7c0-0.9-0.5-1.3-2.1-2l-1.1-0.5
			c-1.7-0.7-2.5-1.7-2.5-3.2c0-1.9,1.4-3.2,3.7-3.2c1.6,0,2.7,0.6,3.2,1.1v1.7c-0.9-0.8-1.8-1.3-3.2-1.3c-1.4,0-2.1,0.6-2.1,1.6
			c0,0.9,0.7,1.4,1.9,2l1.1,0.5c1.9,0.9,2.7,1.8,2.7,3.2c0,2-1.5,3.3-3.8,3.3C288.7,415,287.3,414.6,286.3,413.7z"/>
		<path class="st9" d="M295.3,413.8c0-0.6,0.5-1.1,1.1-1.1c0.6,0,1.1,0.5,1.1,1.1c0,0.7-0.5,1.1-1.1,1.1
			C295.8,414.9,295.3,414.5,295.3,413.8z"/>
		<path class="st9" d="M304.2,403.3h3.9c3.6,0,5.5,2.3,5.5,5.7c0,3.4-2,5.7-5.8,5.7h-3.6V403.3z M307.8,413.3c2.8,0,4.2-1.7,4.2-4.3
			c0-2.6-1.2-4.3-4-4.3h-2.1v8.5H307.8z"/>
		<path class="st9" d="M315.4,404.1c0-0.5,0.4-0.9,1-0.9c0.6,0,1,0.4,1,0.9c0,0.5-0.4,1-1,1C315.9,405,315.4,404.6,315.4,404.1z
			 M315.7,406.5h1.5v8.2h-1.5V406.5z"/>
		<path class="st9" d="M319.3,414v-1.4c0.8,0.7,1.8,1.1,2.8,1.1c1,0,1.7-0.4,1.7-1.2c0-0.5-0.2-0.9-1-1.1l-1.6-0.5
			c-1.3-0.4-1.9-1.2-1.9-2.2c0-1.4,1.1-2.3,3-2.3c1.1,0,1.9,0.3,2.6,0.8v1.5c-0.7-0.6-1.7-0.9-2.6-0.9c-1,0-1.5,0.3-1.5,0.9
			c0,0.5,0.3,0.9,1,1l1.5,0.4c1.5,0.4,2.1,1.2,2.1,2.4c0,1.6-1.2,2.6-3,2.6C321.1,414.9,320.1,414.6,319.3,414z"/>
		<path class="st9" d="M331.9,407.8h-2.2v6.9h-1.5v-6.9h-2v-1.3h2v-2l1.5-0.5v2.5h2.2V407.8z"/>
		<path class="st9" d="M332.4,413.8c0-0.6,0.5-1.1,1.1-1.1c0.6,0,1.1,0.5,1.1,1.1c0,0.7-0.5,1.1-1.1,1.1
			C332.8,414.9,332.4,414.5,332.4,413.8z"/>
		<path class="st9" d="M348.1,413.2v1.5h-6.8v-11.4h1.6v9.9H348.1z"/>
		<path class="st9" d="M357.1,413.3v1.4h-7.1v-11.4h7v1.4h-5.5v3.3h5.1v1.4h-5.1v3.9H357.1z"/>
		<path class="st9" d="M365.7,414.7l-2.8-4.8l-2.8,4.8h-1.9l3.7-6l-3.5-5.4h1.9l2.7,4.3l2.7-4.3h1.9l-3.6,5.4l3.7,6H365.7z"/>
		<path class="st9" d="M369.5,403.3h1.6v11.4h-1.6V403.3z"/>
		<path class="st9" d="M373.6,413.7V412c1,0.9,2.2,1.5,3.6,1.5c1.5,0,2.2-0.6,2.2-1.7c0-0.9-0.5-1.3-2.1-2l-1.1-0.5
			c-1.7-0.7-2.5-1.7-2.5-3.2c0-1.9,1.4-3.2,3.7-3.2c1.6,0,2.7,0.6,3.2,1.1v1.7c-0.9-0.8-1.8-1.3-3.2-1.3c-1.4,0-2.1,0.6-2.1,1.6
			c0,0.9,0.7,1.4,1.9,2l1.1,0.5c1.9,0.9,2.7,1.8,2.7,3.2c0,2-1.5,3.3-3.8,3.3C376,415,374.6,414.6,373.6,413.7z"/>
		<path class="st9" d="M393.8,411.6c0,1.9-1.5,3.4-3.9,3.4c-1.2,0-2.1-0.3-3-0.8v-1.6c0.5,0.5,1.4,1,2.8,1c1.6,0,2.5-0.8,2.5-2
			c0-0.9-0.5-1.8-2.4-1.8h-2.2l0.2-1.3h1.9c1.6,0,2.1-0.8,2.1-1.8c0-1-0.7-1.6-2.3-1.6c-1.4,0-2.3,0.6-2.7,1v-1.5
			c0.9-0.6,1.8-0.9,2.9-0.9c2.2,0,3.5,1.2,3.5,2.8c0,1.1-0.6,2.2-1.8,2.4C393,409.2,393.8,410.3,393.8,411.6z"/>
		<path class="st9" d="M403.3,408.9c0,4-1.9,6.1-4.6,6.1c-1.1,0-1.9-0.3-2.8-1v-1.6c0.7,0.7,1.6,1.1,2.6,1.1c1.9,0,3.1-1.2,3.2-4.5
			c-0.6,1.3-1.6,1.9-2.9,1.9c-2.1,0-3.5-1.5-3.5-3.5c0-2.1,1.6-3.8,3.9-3.8C401.6,403.6,403.3,405.1,403.3,408.9z M401.7,407.3
			c0-1.4-1-2.4-2.4-2.4c-1.3,0-2.3,1-2.3,2.4c0,1.3,0.9,2.2,2.2,2.2C400.7,409.6,401.7,408.6,401.7,407.3z"/>
		<path class="st9" d="M412,403.8v1.4l-5.1,9.5h-1.8l5.3-9.5h-5.6v-1.4H412z"/>
		<path class="st9" d="M413.2,409.3c0-3.5,1.6-5.7,4.1-5.7c2.6,0,4.2,2.2,4.2,5.7c0,3.5-1.6,5.6-4.2,5.6
			C414.8,414.9,413.2,412.8,413.2,409.3z M420,409.3c0-2.6-0.9-4.3-2.6-4.3c-1.6,0-2.5,1.7-2.5,4.2c0,2.6,0.9,4.2,2.5,4.2
			C419,413.5,420,411.9,420,409.3z"/>
		<path class="st9" d="M430.1,403.8v1.4l-5.1,9.5h-1.8l5.3-9.5h-5.6v-1.4H430.1z"/>
		<path class="st9" d="M430.1,412.7h1.9l-1.6,4.4h-1.2L430.1,412.7z"/>
		<path class="st9" d="M444.9,413.3v1.4h-6.7v-1.3l3.3-3.2c1.3-1.3,1.7-2.2,1.7-3.1c0-1.2-0.8-2-2.2-2c-1.2,0-2.2,0.6-2.8,1.3v-1.6
			c0.8-0.7,1.8-1.1,3.1-1.1c2.2,0,3.5,1.3,3.5,3.3c0,1.4-0.6,2.6-2,3.9l-2.6,2.5H444.9z"/>
		<path class="st9" d="M446.6,409.3c0-3.5,1.6-5.7,4.1-5.7c2.6,0,4.2,2.2,4.2,5.7c0,3.5-1.6,5.6-4.2,5.6
			C448.2,414.9,446.6,412.8,446.6,409.3z M453.4,409.3c0-2.6-0.9-4.3-2.6-4.3c-1.6,0-2.5,1.7-2.5,4.2c0,2.6,0.9,4.2,2.5,4.2
			C452.5,413.5,453.4,411.9,453.4,409.3z"/>
		<path class="st9" d="M456.8,409.3c0-3.5,1.6-5.7,4.1-5.7c2.6,0,4.2,2.2,4.2,5.7c0,3.5-1.6,5.6-4.2,5.6
			C458.4,414.9,456.8,412.8,456.8,409.3z M463.5,409.3c0-2.6-0.9-4.3-2.6-4.3c-1.6,0-2.5,1.7-2.5,4.2c0,2.6,0.9,4.2,2.5,4.2
			C462.6,413.5,463.5,411.9,463.5,409.3z"/>
		<path class="st9" d="M474.8,411c0,2.2-1.6,3.9-4,3.9c-2.3,0-4-1.5-4-5.2c0-3.9,1.9-6.2,4.8-6.2c1,0,1.9,0.3,2.6,0.8v1.6
			c-0.5-0.5-1.5-1-2.6-1c-2,0-3.3,1.6-3.3,4.2c0.5-1.1,1.5-1.8,2.9-1.8C473.4,407.5,474.8,408.9,474.8,411z M473.2,411.1
			c0-1.4-1-2.4-2.4-2.4c-1.4,0-2.4,1-2.4,2.4c0,1.4,1,2.5,2.4,2.5C472.2,413.6,473.2,412.6,473.2,411.1z"/>
	</g>
</g>
<g>
</g>
<g>
</g>
<g>
</g>
<g>
</g>
<g>
</g>
<g>
</g>
</svg>
