<?xml version="1.0" encoding="utf-8"?>
<!-- Generator: Adobe Illustrator 21.1.0, SVG Export Plug-In . SVG Version: 6.00 Build 0)  -->
<svg version="1.1" id="Layer_1" xmlns="http://www.w3.org/2000/svg" xmlns:xlink="http://www.w3.org/1999/xlink" x="0px" y="0px"
	 viewBox="0 0 240.1 240.1" style="enable-background:new 0 0 240.1 240.1;" xml:space="preserve">
<style type="text/css">
	.st0{fill:none;}
	.st1{fill:#FFFFFF;}
	.st2{fill:#B78D59;}
	.st3{fill:#FFFFFF;stroke:#1E305E;stroke-miterlimit:10;}
	.st4{fill:#1E305E;}
</style>
<g>
	<rect class="st0" width="240.1" height="240.1"/>
	<g>
		<path class="st1" d="M44,68.3c-1.9,0-3.5-1.6-3.5-3.5s1.6-3.5,3.5-3.5h154c1.9,0,3.5,1.6,3.5,3.5s-1.6,3.5-3.5,3.5H44z"/>
		<path class="st2" d="M198,61.8c1.7,0,3,1.3,3,3s-1.3,3-3,3H44c-1.7,0-3-1.3-3-3s1.3-3,3-3H198 M198,60.8H44c-2.2,0-4,1.8-4,4
			s1.8,4,4,4h154c2.2,0,4-1.8,4-4S200.2,60.8,198,60.8L198,60.8z"/>
	</g>
	<g>
		<path class="st1" d="M44,123.5c-1.9,0-3.5-1.6-3.5-3.5s1.6-3.5,3.5-3.5h154c1.9,0,3.5,1.6,3.5,3.5s-1.6,3.5-3.5,3.5H44z"/>
		<path class="st2" d="M198,117c1.7,0,3,1.3,3,3s-1.3,3-3,3H44c-1.7,0-3-1.3-3-3s1.3-3,3-3H198 M198,116H44c-2.2,0-4,1.8-4,4
			s1.8,4,4,4h154c2.2,0,4-1.8,4-4S200.2,116,198,116L198,116z"/>
	</g>
	<g>
		<path class="st3" d="M157.5,45.3h27.1c10.2,0,18.5,8.3,18.5,18.5v0c0,10.2-8.3,18.5-18.5,18.5h-27.1c-10.2,0-18.5-8.3-18.5-18.5v0
			C139,53.6,147.3,45.3,157.5,45.3z"/>
		
			<rect x="161.8" y="54.6" transform="matrix(0.7071 -0.7071 0.7071 0.7071 5.0007 139.6018)" class="st4" width="18.4" height="18.4"/>
	</g>
	<g>
		<path class="st1" d="M44,180.7c-1.9,0-3.5-1.6-3.5-3.5s1.6-3.5,3.5-3.5h154c1.9,0,3.5,1.6,3.5,3.5s-1.6,3.5-3.5,3.5H44z"/>
		<path class="st2" d="M198,174.2c1.7,0,3,1.3,3,3s-1.3,3-3,3H44c-1.7,0-3-1.3-3-3s1.3-3,3-3H198 M198,173.2H44c-2.2,0-4,1.8-4,4
			s1.8,4,4,4h154c2.2,0,4-1.8,4-4S200.2,173.2,198,173.2L198,173.2z"/>
	</g>
	<path class="st3" d="M107.5,157.7h27.1c10.2,0,18.5,8.3,18.5,18.5l0,0c0,10.2-8.3,18.5-18.5,18.5h-27.1c-10.2,0-18.5-8.3-18.5-18.5
		l0,0C89,166,97.3,157.7,107.5,157.7z"/>
	
		<rect x="111.8" y="167" transform="matrix(0.7071 -0.7071 0.7071 0.7071 -89.1499 137.177)" class="st4" width="18.4" height="18.4"/>
	<g>
		<path class="st3" d="M57.7,101.5h27.8c10.2,0,18.5,8.3,18.5,18.5v0.7c0,9.8-7.9,17.7-17.7,17.7H58.5c-10.2,0-18.5-8.2-18.5-18.4
			v-0.8C40,109.4,47.9,101.5,57.7,101.5L57.7,101.5z"/>
		
			<rect x="62.8" y="110.8" transform="matrix(0.7071 -0.7071 0.7071 0.7071 -63.7519 86.0612)" class="st4" width="18.4" height="18.4"/>
	</g>
</g>
<g>
</g>
<g>
</g>
<g>
</g>
<g>
</g>
<g>
</g>
<g>
</g>
</svg>
