<?xml version="1.0" encoding="utf-8"?>
<!-- Generator: Adobe Illustrator 21.1.0, SVG Export Plug-In . SVG Version: 6.00 Build 0)  -->
<svg version="1.1" id="Layer_1" xmlns="http://www.w3.org/2000/svg" xmlns:xlink="http://www.w3.org/1999/xlink" x="0px" y="0px"
	 viewBox="0 0 421 720.5" style="enable-background:new 0 0 421 720.5;" xml:space="preserve">
<style type="text/css">
	.st0{fill:#FFFFFF;}
	.st1{fill:none;stroke:#1E305E;stroke-miterlimit:10;}
	.st2{fill:#8D9394;}
	.st3{fill:#1E305E;}
	.st4{fill:#86CCA6;}
	.st5{fill:none;stroke:#1E305E;stroke-width:1.5;stroke-miterlimit:10;}
	.st6{fill:#B78D59;}
	.st7{fill:none;stroke:#B78D59;stroke-miterlimit:10;}
	.st8{fill:#FFFFFF;stroke:#B78D59;stroke-miterlimit:10;}
</style>
<rect x="48.5" y="48.5" class="st0" width="324" height="126"/>
<rect x="48.5" y="186.5" class="st0" width="324" height="126"/>
<rect x="48.5" y="324.5" class="st0" width="324" height="396"/>
<polyline class="st1" points="0.5,719.9 0.5,0.5 420.5,0.5 420.5,719.9 "/>
<g>
	<g>
		<g>
			<path class="st2" d="M73.5,83.3v-1.9c1.4,1.1,3,1.7,4.9,1.7c2,0,3.1-0.7,3.1-2.1c0-0.9-0.5-1.4-2.2-1.9l-2.7-0.7
				c-2.2-0.6-3-1.8-3-3.2c0-2.1,1.8-3.6,4.9-3.6c2,0,3.4,0.6,4.4,1.3v1.8c-1.2-1-2.6-1.5-4.4-1.5c-1.9,0-3.1,0.7-3.1,1.8
				c0,0.8,0.5,1.3,1.9,1.7l2.8,0.7c2.4,0.7,3.3,1.8,3.3,3.4c0,2.3-1.9,3.8-4.9,3.8C76.6,84.8,74.8,84.2,73.5,83.3z"/>
			<path class="st2" d="M96,75.9c0,2.3-1.7,3.8-4.6,3.8h-3.6v4.8h-1.8V72h5.8C94.4,72,96,73.6,96,75.9z M94.2,75.9
				c0-1.5-1-2.3-2.7-2.3h-3.6v4.6h3.4C93.1,78.2,94.2,77.4,94.2,75.9z"/>
			<path class="st2" d="M107.8,82.9v1.6h-9.3V72h9.2v1.6h-7.4v3.5h6.9v1.6h-6.9v4.2H107.8z"/>
			<path class="st2" d="M109.5,78.3c0-3.9,3-6.7,7.2-6.7c1.9,0,3.5,0.5,4.6,1.4v1.9c-1.2-0.9-2.6-1.6-4.5-1.6
				c-3.3,0-5.4,2.1-5.4,4.9c0,2.8,2.1,4.9,5.4,4.9c1.8,0,3.4-0.6,4.6-1.7v1.8c-1.3,1.1-2.9,1.6-4.8,1.6
				C112.2,84.9,109.5,82,109.5,78.3z"/>
			<path class="st2" d="M124.2,72h1.8v12.5h-1.8V72z"/>
			<path class="st2" d="M137.3,81.1h-5.9l-1.3,3.4h-1.9l5-12.5h2.4l4.9,12.5h-1.9L137.3,81.1z M136.8,79.6l-2.4-6.1l-2.4,6.1H136.8z
				"/>
			<path class="st2" d="M151.7,82.8v1.7h-8.8V72h1.8v10.8H151.7z"/>
			<path class="st2" d="M161.2,73.6h-4.4v10.9h-1.8V73.6h-4.4V72h10.5V73.6z"/>
			<path class="st2" d="M174,72l-5.2,8.1v4.4H167v-4.4l-5.1-8.1h2l3.9,6.4l4-6.4H174z"/>
		</g>
	</g>
</g>
<g>
	<g>
		<path class="st3" d="M113.2,118.7h-5l-1.1,3.3h-1.8l4.2-12.5h2.3l4.2,12.5h-1.8L113.2,118.7z M112.7,117.3l-2-6.2l-2,6.2H112.7z"
			/>
		<path class="st3" d="M117.1,117.5c0-2.7,1.9-4.7,4.6-4.7c1.3,0,2.1,0.3,2.8,0.7v1.8c-0.8-0.7-1.7-1-2.7-1c-1.8,0-3,1.3-3,3.2
			c0,1.9,1.1,3.3,3.2,3.3c1,0,2-0.4,2.6-0.9v1.6c-0.9,0.6-1.8,0.8-2.9,0.8C118.9,122.3,117.1,120.3,117.1,117.5z"/>
		<path class="st3" d="M125.9,117.5c0-2.7,1.9-4.7,4.6-4.7c1.3,0,2.1,0.3,2.8,0.7v1.8c-0.8-0.7-1.7-1-2.7-1c-1.8,0-3,1.3-3,3.2
			c0,1.9,1.1,3.3,3.2,3.3c1,0,2-0.4,2.6-0.9v1.6c-0.9,0.6-1.8,0.8-2.9,0.8C127.7,122.3,125.9,120.3,125.9,117.5z"/>
		<path class="st3" d="M134.7,117.6c0-2.7,1.7-4.7,4.3-4.7c2.7,0,4.4,2.1,4.4,4.7c0,2.7-1.7,4.7-4.4,4.7
			C136.4,122.3,134.7,120.3,134.7,117.6z M141.7,117.6c0-1.9-1-3.2-2.7-3.2c-1.7,0-2.6,1.3-2.6,3.2c0,1.9,1,3.2,2.6,3.2
			C140.7,120.8,141.7,119.5,141.7,117.6z"/>
		<path class="st3" d="M152.9,113.1v8.9h-1.6v-1.7c-0.5,1.2-1.5,1.9-2.8,1.9c-2,0-3.2-1.2-3.2-3.5v-5.7h1.6v5.3
			c0,1.7,0.7,2.5,2.1,2.5c1.5,0,2.3-1.1,2.3-3.1v-4.7H152.9z"/>
		<path class="st3" d="M163.1,116.5v5.6h-1.6v-5.2c0-1.8-0.6-2.5-2-2.5c-1.5,0-2.4,1.1-2.4,2.9v4.8h-1.6v-8.9h1.6v1.5
			c0.5-1.2,1.5-1.8,2.9-1.8C161.9,112.9,163.1,114.2,163.1,116.5z"/>
		<path class="st3" d="M170.7,114.5h-2.4v7.5h-1.6v-7.5h-2.2v-1.4h2.2v-2.2l1.6-0.5v2.8h2.4V114.5z"/>
		<path class="st3" d="M172,110.4c0-0.6,0.5-1,1.1-1c0.6,0,1.1,0.4,1.1,1s-0.5,1.1-1.1,1.1C172.5,111.5,172,111,172,110.4z
			 M172.2,113.1h1.6v8.9h-1.6V113.1z"/>
		<path class="st3" d="M184.1,116.5v5.6h-1.6v-5.2c0-1.8-0.6-2.5-2-2.5c-1.5,0-2.4,1.1-2.4,2.9v4.8h-1.6v-8.9h1.6v1.5
			c0.5-1.2,1.5-1.8,2.9-1.8C182.9,112.9,184.1,114.2,184.1,116.5z"/>
		<path class="st3" d="M194.5,113.1v8.1c0,2.8-1.8,4.5-4.5,4.5c-1.3,0-2.3-0.3-3.2-1V123c0.8,0.8,1.8,1.2,3.1,1.2
			c2.1,0,2.9-1.4,2.9-3.3v-1.1c-0.6,1.3-1.5,2-2.9,2c-2.4,0-3.9-1.8-3.9-4.4c0-2.6,1.6-4.5,4.1-4.5c1.4,0,2.2,0.6,2.8,1.9v-1.6
			H194.5z M192.9,117.3c0-1.8-1.1-3-2.6-3c-1.6,0-2.6,1.3-2.6,3.1c0,1.7,0.9,2.9,2.5,2.9C191.8,120.3,192.9,119.1,192.9,117.3z"/>
	</g>
</g>
<rect x="78.4" y="108.7" class="st4" width="13.4" height="13.4"/>
<polyline class="st5" points="81,116.7 84.1,118.8 89.2,111.6 "/>
<g>
	<g>
		<g>
			<path class="st3" d="M113.2,145.4h-5l-1.1,3.3h-1.8l4.2-12.5h2.3l4.2,12.5h-1.8L113.2,145.4z M112.7,144l-2-6.2l-2,6.2H112.7z"/>
			<path class="st3" d="M126.4,144.2c0,2.9-1.9,4.8-4.1,4.8c-1.3,0-2.4-0.7-2.9-1.7v4.9h-1.6v-12.3h1.6v1.8c0.5-1.1,1.5-2.1,3.1-2.1
				C124.9,139.5,126.4,141.6,126.4,144.2z M124.8,144.3c0-1.9-1-3.2-2.7-3.2c-1.7,0-2.7,1.4-2.7,3.3c0,1.8,1,3.2,2.6,3.2
				C123.7,147.5,124.8,146.2,124.8,144.3z"/>
			<path class="st3" d="M137.1,144.2c0,2.9-1.9,4.8-4.1,4.8c-1.3,0-2.4-0.7-2.9-1.7v4.9h-1.6v-12.3h1.6v1.8c0.5-1.1,1.5-2.1,3.1-2.1
				C135.5,139.5,137.1,141.6,137.1,144.2z M135.4,144.3c0-1.9-1-3.2-2.7-3.2c-1.7,0-2.7,1.4-2.7,3.3c0,1.8,1,3.2,2.6,3.2
				C134.3,147.5,135.4,146.2,135.4,144.3z"/>
			<path class="st3" d="M144,140.1v1.6c-0.4-0.3-0.9-0.4-1.4-0.4c-1.1,0-1.9,1-1.9,2.7v4.8h-1.6v-8.9h1.6v1.8
				c0.4-1.2,1.2-1.9,2.1-1.9C143.3,139.6,143.7,139.8,144,140.1z"/>
			<path class="st3" d="M152.3,143.3v5.4h-1.6v-1.2c-0.4,0.9-1.3,1.5-2.5,1.5c-1.8,0-3.1-1.3-3.1-2.9c0-1.7,1.3-2.9,3.2-2.9
				c1.1,0,2,0.5,2.4,1.1v-0.8c0-1.6-0.9-2.5-2.4-2.5c-1.1,0-2,0.4-2.8,1.2v-1.7c0.7-0.6,1.7-1,3-1
				C150.9,139.5,152.3,140.9,152.3,143.3z M150.7,146c0-0.9-0.7-1.6-2-1.6c-1.3,0-2,0.6-2,1.6c0,1,0.7,1.7,2,1.7
				C149.9,147.7,150.7,146.9,150.7,146z"/>
			<path class="st3" d="M154.5,137.1c0-0.6,0.5-1,1.1-1c0.6,0,1.1,0.4,1.1,1s-0.5,1.1-1.1,1.1C155,138.2,154.5,137.7,154.5,137.1z
				 M154.7,139.8h1.6v8.9h-1.6V139.8z"/>
			<path class="st3" d="M158.5,147.9v-1.6c0.9,0.7,2,1.2,3.1,1.2c1.1,0,1.8-0.5,1.8-1.3c0-0.5-0.2-1-1.1-1.2l-1.7-0.5
				c-1.4-0.4-2.1-1.3-2.1-2.4c0-1.5,1.2-2.5,3.2-2.5c1.2,0,2.1,0.4,2.8,0.8v1.6c-0.8-0.7-1.8-1-2.8-1c-1.1,0-1.6,0.4-1.6,1
				c0,0.5,0.4,0.9,1.1,1.1l1.6,0.4c1.6,0.4,2.2,1.4,2.2,2.6c0,1.7-1.3,2.8-3.3,2.8C160.5,149,159.4,148.7,158.5,147.9z"/>
			<path class="st3" d="M173.7,143.3v5.4h-1.6v-1.2c-0.4,0.9-1.3,1.5-2.5,1.5c-1.8,0-3.1-1.3-3.1-2.9c0-1.7,1.3-2.9,3.2-2.9
				c1.1,0,2,0.5,2.4,1.1v-0.8c0-1.6-0.9-2.5-2.4-2.5c-1.1,0-2,0.4-2.8,1.2v-1.7c0.7-0.6,1.7-1,3-1
				C172.3,139.5,173.7,140.9,173.7,143.3z M172.1,146c0-0.9-0.7-1.6-2-1.6c-1.3,0-2,0.6-2,1.6c0,1,0.7,1.7,2,1.7
				C171.3,147.7,172.1,146.9,172.1,146z"/>
			<path class="st3" d="M176.2,135.9h1.6v12.8h-1.6V135.9z"/>
		</g>
	</g>
</g>
<rect x="78.4" y="135.4" class="st1" width="13.4" height="13.4"/>
<g>
	<g>
		<g>
			<g>
				<path class="st3" d="M274.4,118.5c0,2-1.5,3.6-4.1,3.6h-4.4v-12.5h4.7c2.1,0,3.4,1.4,3.4,3.2c0,1.2-0.6,2.2-1.8,2.6
					C273.6,115.7,274.4,117,274.4,118.5z M267.6,111.1v3.8h2.7c1.3,0,1.9-0.8,1.9-1.9c0-1.2-0.7-2-2-2H267.6z M272.6,118.4
					c0-1.2-0.8-2.1-2.3-2.1h-2.7v4.2h2.5C271.8,120.5,272.6,119.7,272.6,118.4z"/>
				<path class="st3" d="M283.3,116.6v5.4h-1.6v-1.2c-0.4,0.9-1.3,1.5-2.5,1.5c-1.8,0-3.1-1.3-3.1-2.9c0-1.7,1.3-2.9,3.2-2.9
					c1.1,0,2,0.5,2.4,1.1v-0.8c0-1.6-0.9-2.5-2.4-2.5c-1.1,0-2,0.4-2.8,1.2v-1.7c0.7-0.6,1.7-1,3-1
					C281.9,112.9,283.3,114.2,283.3,116.6z M281.7,119.3c0-0.9-0.7-1.6-2-1.6c-1.3,0-2,0.6-2,1.6c0,1,0.7,1.7,2,1.7
					C280.9,121,281.7,120.3,281.7,119.3z"/>
				<path class="st3" d="M293.4,116.5v5.6h-1.6v-5.2c0-1.8-0.6-2.5-2-2.5c-1.5,0-2.4,1.1-2.4,2.9v4.8h-1.6v-8.9h1.6v1.5
					c0.5-1.2,1.5-1.8,2.9-1.8C292.2,112.9,293.4,114.2,293.4,116.5z"/>
				<path class="st3" d="M301.3,122l-3.8-4.4v4.4h-1.6v-12.8h1.6v7.6l3.4-3.7h2.2l-4.2,4l4.4,4.9H301.3z"/>
				<path class="st3" d="M304.6,110.4c0-0.6,0.5-1,1.1-1c0.6,0,1.1,0.4,1.1,1s-0.5,1.1-1.1,1.1C305.1,111.5,304.6,111,304.6,110.4z
					 M304.9,113.1h1.6v8.9h-1.6V113.1z"/>
				<path class="st3" d="M316.8,116.5v5.6h-1.6v-5.2c0-1.8-0.6-2.5-2-2.5c-1.5,0-2.4,1.1-2.4,2.9v4.8h-1.6v-8.9h1.6v1.5
					c0.5-1.2,1.5-1.8,2.9-1.8C315.6,112.9,316.8,114.2,316.8,116.5z"/>
				<path class="st3" d="M327.2,113.1v8.1c0,2.8-1.8,4.5-4.5,4.5c-1.3,0-2.3-0.3-3.2-1V123c0.8,0.8,1.8,1.2,3.1,1.2
					c2.1,0,2.9-1.4,2.9-3.3v-1.1c-0.6,1.3-1.5,2-2.9,2c-2.4,0-3.9-1.8-3.9-4.4c0-2.6,1.6-4.5,4.1-4.5c1.4,0,2.2,0.6,2.8,1.9v-1.6
					H327.2z M325.5,117.3c0-1.8-1.1-3-2.6-3c-1.6,0-2.6,1.3-2.6,3.1c0,1.7,0.9,2.9,2.5,2.9C324.5,120.3,325.5,119.1,325.5,117.3z"/>
			</g>
		</g>
	</g>
	<rect x="237.6" y="108.7" class="st1" width="13.4" height="13.4"/>
	<g>
		<g>
			<g>
				<path class="st3" d="M274.4,145.2c0,2-1.5,3.6-4.1,3.6h-4.4v-12.5h4.7c2.1,0,3.4,1.4,3.4,3.2c0,1.2-0.6,2.2-1.8,2.6
					C273.6,142.4,274.4,143.7,274.4,145.2z M267.6,137.8v3.8h2.7c1.3,0,1.9-0.8,1.9-1.9c0-1.2-0.7-2-2-2H267.6z M272.6,145.1
					c0-1.2-0.8-2.1-2.3-2.1h-2.7v4.2h2.5C271.8,147.2,272.6,146.4,272.6,145.1z"/>
				<path class="st3" d="M284.1,139.8v8.9h-1.6v-1.7c-0.5,1.2-1.5,1.9-2.8,1.9c-2,0-3.2-1.2-3.2-3.5v-5.7h1.6v5.3
					c0,1.7,0.7,2.5,2.1,2.5c1.5,0,2.3-1.1,2.3-3.1v-4.7H284.1z"/>
				<path class="st3" d="M286.2,147.9v-1.6c0.9,0.7,2,1.2,3.1,1.2c1.1,0,1.8-0.5,1.8-1.3c0-0.5-0.2-1-1.1-1.2l-1.7-0.5
					c-1.4-0.4-2.1-1.3-2.1-2.4c0-1.5,1.2-2.5,3.2-2.5c1.2,0,2.1,0.4,2.8,0.8v1.6c-0.8-0.7-1.8-1-2.8-1c-1.1,0-1.6,0.4-1.6,1
					c0,0.5,0.4,0.9,1.1,1.1l1.6,0.4c1.6,0.4,2.2,1.4,2.2,2.6c0,1.7-1.3,2.8-3.3,2.8C288.2,149,287.2,148.7,286.2,147.9z"/>
				<path class="st3" d="M294.4,137.1c0-0.6,0.5-1,1.1-1c0.6,0,1.1,0.4,1.1,1s-0.5,1.1-1.1,1.1C294.9,138.2,294.4,137.7,294.4,137.1
					z M294.7,139.8h1.6v8.9h-1.6V139.8z"/>
				<path class="st3" d="M306.6,143.1v5.6h-1.6v-5.2c0-1.8-0.6-2.5-2-2.5c-1.5,0-2.4,1.1-2.4,2.9v4.8h-1.6v-8.9h1.6v1.5
					c0.5-1.2,1.5-1.8,2.9-1.8C305.4,139.5,306.6,140.9,306.6,143.1z"/>
				<path class="st3" d="M316.6,144.6h-6.4c0.1,1.9,1.3,2.9,3.2,2.9c1.1,0,2.2-0.4,2.9-1v1.6c-0.7,0.5-1.8,0.9-3.1,0.9
					c-2.9,0-4.8-1.9-4.8-4.8c0-2.7,1.6-4.7,4.4-4.7c2.3,0,3.8,1.4,3.8,3.8V144.6z M310.2,143.3h4.8c0-1.5-0.9-2.3-2.3-2.3
					C311.3,141,310.5,141.9,310.2,143.3z"/>
				<path class="st3" d="M318.3,147.9v-1.6c0.9,0.7,2,1.2,3.1,1.2c1.1,0,1.8-0.5,1.8-1.3c0-0.5-0.2-1-1.1-1.2l-1.7-0.5
					c-1.4-0.4-2.1-1.3-2.1-2.4c0-1.5,1.2-2.5,3.2-2.5c1.2,0,2.1,0.4,2.8,0.8v1.6c-0.8-0.7-1.8-1-2.8-1c-1.1,0-1.6,0.4-1.6,1
					c0,0.5,0.4,0.9,1.1,1.1l1.6,0.4c1.6,0.4,2.2,1.4,2.2,2.6c0,1.7-1.3,2.8-3.3,2.8C320.2,149,319.2,148.7,318.3,147.9z"/>
				<path class="st3" d="M326.3,147.9v-1.6c0.9,0.7,2,1.2,3.1,1.2c1.1,0,1.8-0.5,1.8-1.3c0-0.5-0.2-1-1.1-1.2l-1.7-0.5
					c-1.4-0.4-2.1-1.3-2.1-2.4c0-1.5,1.2-2.5,3.2-2.5c1.2,0,2.1,0.4,2.8,0.8v1.6c-0.8-0.7-1.8-1-2.8-1c-1.1,0-1.6,0.4-1.6,1
					c0,0.5,0.4,0.9,1.1,1.1l1.6,0.4c1.6,0.4,2.2,1.4,2.2,2.6c0,1.7-1.3,2.8-3.3,2.8C328.3,149,327.2,148.7,326.3,147.9z"/>
			</g>
		</g>
	</g>
	<rect x="237.6" y="135.4" class="st1" width="13.4" height="13.4"/>
</g>
<g>
	<g>
		<g>
			<path class="st2" d="M83.1,220.8v1.7h-8.8V210h1.8v10.8H83.1z"/>
			<path class="st2" d="M83.7,216.3c0-3.7,2.9-6.6,6.9-6.6c4,0,6.9,2.9,6.9,6.6s-2.9,6.6-6.9,6.6C86.6,222.9,83.7,219.9,83.7,216.3z
				 M95.6,216.3c0-2.8-2-4.9-5-4.9c-3.1,0-5.1,2.1-5.1,4.9s2,4.9,5.1,4.9C93.7,221.2,95.6,219.1,95.6,216.3z"/>
			<path class="st2" d="M99.3,216.3c0-3.9,3-6.7,7.2-6.7c1.9,0,3.5,0.5,4.6,1.4v1.9c-1.2-0.9-2.6-1.6-4.5-1.6
				c-3.3,0-5.4,2.1-5.4,4.9c0,2.8,2.1,4.9,5.4,4.9c1.8,0,3.4-0.6,4.6-1.7v1.8c-1.3,1.1-2.9,1.6-4.8,1.6
				C102,222.9,99.3,220,99.3,216.3z"/>
			<path class="st2" d="M121.6,219.1h-5.9l-1.3,3.4h-1.9l5-12.5h2.4l4.9,12.5h-1.9L121.6,219.1z M121,217.6l-2.4-6.1l-2.4,6.1H121z"
				/>
			<path class="st2" d="M134.9,211.6h-4.4v10.9h-1.8v-10.9h-4.4V210h10.5V211.6z"/>
			<path class="st2" d="M137.1,210h1.8v12.5h-1.8V210z"/>
			<path class="st2" d="M141.6,216.3c0-3.7,2.9-6.6,6.9-6.6c4,0,6.9,2.9,6.9,6.6s-2.9,6.6-6.9,6.6
				C144.5,222.9,141.6,219.9,141.6,216.3z M153.6,216.3c0-2.8-2-4.9-5-4.9c-3.1,0-5.1,2.1-5.1,4.9s2,4.9,5.1,4.9
				C151.6,221.2,153.6,219.1,153.6,216.3z"/>
			<path class="st2" d="M169.5,210v12.5h-2.4l-7.2-10.9v10.9h-1.7V210h2.6l7,10.6V210H169.5z"/>
		</g>
	</g>
</g>
<g>
	<g>
		<g>
			<path class="st3" d="M116.8,248.5V261h-2.4l-6.2-10.9V261h-1.6v-12.5h2.6l5.9,10.5v-10.5H116.8z"/>
			<path class="st3" d="M119.2,256.5c0-2.7,1.7-4.7,4.3-4.7c2.7,0,4.4,2.1,4.4,4.7c0,2.7-1.7,4.7-4.4,4.7
				C120.8,261.3,119.2,259.2,119.2,256.5z M126.1,256.5c0-1.9-1-3.2-2.7-3.2c-1.7,0-2.6,1.3-2.6,3.2c0,1.9,1,3.2,2.6,3.2
				C125.2,259.8,126.1,258.4,126.1,256.5z"/>
			<path class="st3" d="M134.8,252.3v1.6c-0.4-0.3-0.9-0.4-1.4-0.4c-1.1,0-1.9,1-1.9,2.7v4.8h-1.6v-8.9h1.6v1.8
				c0.4-1.2,1.2-1.9,2.1-1.9C134.1,251.9,134.4,252,134.8,252.3z"/>
			<path class="st3" d="M142,253.5h-2.4v7.5H138v-7.5h-2.2v-1.4h2.2v-2.2l1.6-0.5v2.8h2.4V253.5z"/>
			<path class="st3" d="M151.2,255.4v5.6h-1.6v-5.2c0-1.8-0.6-2.5-2-2.5c-1.5,0-2.4,1.1-2.4,2.9v4.8h-1.6v-12.8h1.6v5.4
				c0.5-1.1,1.5-1.7,2.9-1.7C150,251.8,151.2,253.1,151.2,255.4z"/>
			<path class="st3" d="M161.3,256.8h-6.4c0.1,1.9,1.3,2.9,3.2,2.9c1.1,0,2.2-0.4,2.9-1v1.6c-0.7,0.5-1.8,0.9-3.1,0.9
				c-2.9,0-4.8-1.9-4.8-4.8c0-2.7,1.6-4.7,4.4-4.7c2.3,0,3.8,1.4,3.8,3.8V256.8z M154.9,255.6h4.8c0-1.5-0.9-2.3-2.3-2.3
				C155.9,253.3,155.1,254.2,154.9,255.6z"/>
			<path class="st3" d="M170.1,255.6v5.4h-1.6v-1.2c-0.4,0.9-1.3,1.5-2.5,1.5c-1.8,0-3.1-1.3-3.1-2.9c0-1.7,1.3-2.9,3.2-2.9
				c1.1,0,2,0.5,2.4,1.1v-0.8c0-1.6-0.9-2.5-2.4-2.5c-1.1,0-2,0.4-2.8,1.2v-1.7c0.7-0.6,1.7-1,3-1
				C168.6,251.8,170.1,253.2,170.1,255.6z M168.5,258.2c0-0.9-0.7-1.6-2-1.6c-1.3,0-2,0.6-2,1.6c0,1,0.7,1.7,2,1.7
				C167.7,259.9,168.5,259.2,168.5,258.2z"/>
			<path class="st3" d="M172.1,260.2v-1.6c0.9,0.7,2,1.2,3.1,1.2c1.1,0,1.8-0.5,1.8-1.3c0-0.5-0.2-1-1.1-1.2l-1.7-0.5
				c-1.4-0.4-2.1-1.3-2.1-2.4c0-1.5,1.2-2.5,3.2-2.5c1.2,0,2.1,0.4,2.8,0.8v1.6c-0.8-0.7-1.8-1-2.8-1c-1.1,0-1.6,0.4-1.6,1
				c0,0.5,0.4,0.9,1.1,1.1l1.6,0.4c1.6,0.4,2.2,1.4,2.2,2.6c0,1.7-1.3,2.8-3.3,2.8C174.1,261.3,173,260.9,172.1,260.2z"/>
			<path class="st3" d="M185.8,253.5h-2.4v7.5h-1.6v-7.5h-2.2v-1.4h2.2v-2.2l1.6-0.5v2.8h2.4V253.5z"/>
		</g>
	</g>
</g>
<rect x="78.4" y="247.6" class="st1" width="13.4" height="13.4"/>
<g>
	<g>
		<path class="st3" d="M105.9,286.6v-1.8c1.1,1,2.3,1.6,3.9,1.6c1.6,0,2.4-0.7,2.4-1.9c0-1-0.5-1.4-2.3-2.2l-1.2-0.5
			c-1.8-0.8-2.8-1.9-2.8-3.4c0-2.1,1.5-3.5,4-3.5c1.7,0,2.9,0.6,3.5,1.2v1.9c-0.9-0.9-2-1.5-3.5-1.5c-1.5,0-2.3,0.6-2.3,1.7
			c0,1,0.7,1.5,2.1,2.1l1.2,0.6c2.1,0.9,2.9,1.9,2.9,3.5c0,2.2-1.6,3.6-4.1,3.6C108.5,288,107,287.6,105.9,286.6z"/>
		<path class="st3" d="M115.5,283.2c0-2.7,1.7-4.7,4.3-4.7c2.7,0,4.4,2.1,4.4,4.7c0,2.7-1.7,4.7-4.4,4.7
			C117.2,288,115.5,285.9,115.5,283.2z M122.5,283.2c0-1.9-1-3.2-2.7-3.2c-1.7,0-2.6,1.3-2.6,3.2c0,1.9,1,3.2,2.6,3.2
			C121.5,286.5,122.5,285.1,122.5,283.2z"/>
		<path class="st3" d="M133.7,278.8v8.9h-1.6V286c-0.5,1.2-1.5,1.9-2.8,1.9c-2,0-3.2-1.2-3.2-3.5v-5.7h1.6v5.3
			c0,1.7,0.7,2.5,2.1,2.5c1.5,0,2.3-1.1,2.3-3.1v-4.7H133.7z"/>
		<path class="st3" d="M141.5,280.2h-2.4v7.5h-1.6v-7.5h-2.2v-1.4h2.2v-2.2l1.6-0.5v2.8h2.4V280.2z"/>
		<path class="st3" d="M150.7,282.1v5.6h-1.6v-5.2c0-1.8-0.6-2.5-2-2.5c-1.5,0-2.4,1.1-2.4,2.9v4.8H143v-12.8h1.6v5.4
			c0.5-1.1,1.5-1.7,2.9-1.7C149.5,278.5,150.7,279.8,150.7,282.1z"/>
		<path class="st3" d="M160.8,283.5h-6.4c0.1,1.9,1.3,2.9,3.2,2.9c1.1,0,2.2-0.4,2.9-1v1.6c-0.7,0.5-1.8,0.9-3.1,0.9
			c-2.9,0-4.8-1.9-4.8-4.8c0-2.7,1.6-4.7,4.4-4.7c2.3,0,3.8,1.4,3.8,3.8V283.5z M154.4,282.3h4.8c0-1.5-0.9-2.3-2.3-2.3
			C155.4,280,154.6,280.9,154.4,282.3z"/>
		<path class="st3" d="M169.5,282.3v5.4h-1.6v-1.2c-0.4,0.9-1.3,1.5-2.5,1.5c-1.8,0-3.1-1.3-3.1-2.9c0-1.7,1.3-2.9,3.2-2.9
			c1.1,0,2,0.5,2.4,1.1v-0.8c0-1.6-0.9-2.5-2.4-2.5c-1.1,0-2,0.4-2.8,1.2v-1.7c0.7-0.6,1.7-1,3-1
			C168.1,278.5,169.5,279.9,169.5,282.3z M167.9,284.9c0-0.9-0.7-1.6-2-1.6c-1.3,0-2,0.6-2,1.6c0,1,0.7,1.7,2,1.7
			C167.1,286.6,167.9,285.9,167.9,284.9z"/>
		<path class="st3" d="M171.5,286.9v-1.6c0.9,0.7,2,1.2,3.1,1.2c1.1,0,1.8-0.5,1.8-1.3c0-0.5-0.2-1-1.1-1.2l-1.7-0.5
			c-1.4-0.4-2.1-1.3-2.1-2.4c0-1.5,1.2-2.5,3.2-2.5c1.2,0,2.1,0.4,2.8,0.8v1.6c-0.8-0.7-1.8-1-2.8-1c-1.1,0-1.6,0.4-1.6,1
			c0,0.5,0.4,0.9,1.1,1.1l1.6,0.4c1.6,0.4,2.2,1.4,2.2,2.6c0,1.7-1.3,2.8-3.3,2.8C173.5,288,172.5,287.6,171.5,286.9z"/>
		<path class="st3" d="M185.3,280.2h-2.4v7.5h-1.6v-7.5H179v-1.4h2.2v-2.2l1.6-0.5v2.8h2.4V280.2z"/>
	</g>
</g>
<g>
	<g>
		<g>
			<path class="st3" d="M265.2,258.8V257c1.1,1,2.3,1.6,3.9,1.6c1.6,0,2.4-0.7,2.4-1.9c0-1-0.5-1.4-2.3-2.2L268,254
				c-1.8-0.8-2.8-1.9-2.8-3.4c0-2.1,1.5-3.5,4-3.5c1.7,0,2.9,0.6,3.5,1.2v1.9c-0.9-0.9-2-1.5-3.5-1.5c-1.5,0-2.3,0.6-2.3,1.7
				c0,1,0.7,1.5,2.1,2.1l1.2,0.6c2.1,0.9,2.9,1.9,2.9,3.5c0,2.2-1.6,3.6-4.1,3.6C267.8,260.2,266.4,259.8,265.2,258.8z"/>
			<path class="st3" d="M274.9,255.4c0-2.7,1.7-4.7,4.3-4.7c2.7,0,4.4,2.1,4.4,4.7c0,2.7-1.7,4.7-4.4,4.7
				C276.5,260.1,274.9,258.1,274.9,255.4z M281.9,255.4c0-1.9-1-3.2-2.7-3.2c-1.7,0-2.6,1.3-2.6,3.2c0,1.9,1,3.2,2.6,3.2
				C280.9,258.6,281.9,257.3,281.9,255.4z"/>
			<path class="st3" d="M293,251v8.9h-1.6v-1.7c-0.5,1.2-1.5,1.9-2.8,1.9c-2,0-3.2-1.2-3.2-3.5V251h1.6v5.3c0,1.7,0.7,2.5,2.1,2.5
				c1.5,0,2.3-1.1,2.3-3.1V251H293z"/>
			<path class="st3" d="M300.8,252.3h-2.4v7.5h-1.6v-7.5h-2.2V251h2.2v-2.2l1.6-0.5v2.8h2.4V252.3z"/>
			<path class="st3" d="M310,254.3v5.6h-1.6v-5.2c0-1.8-0.6-2.5-2-2.5c-1.5,0-2.4,1.1-2.4,2.9v4.8h-1.6V247h1.6v5.4
				c0.5-1.1,1.5-1.7,2.9-1.7C308.8,250.7,310,252,310,254.3z"/>
			<path class="st3" d="M324.4,251l-2.9,8.9H320l-2.2-7.2l-2.3,7.2h-1.5l-2.7-8.9h1.8l1.7,6.6l2.1-6.6h1.8l2.1,6.6l1.9-6.6H324.4z"
				/>
			<path class="st3" d="M333.4,255.7H327c0.1,1.9,1.3,2.9,3.2,2.9c1.1,0,2.2-0.4,2.9-1v1.6c-0.7,0.5-1.8,0.9-3.1,0.9
				c-2.9,0-4.8-1.9-4.8-4.8c0-2.7,1.6-4.7,4.4-4.7c2.3,0,3.8,1.4,3.8,3.8V255.7z M327,254.5h4.8c0-1.5-0.9-2.3-2.3-2.3
				C328,252.2,327.2,253.1,327,254.5z"/>
			<path class="st3" d="M335,259.1v-1.6c0.9,0.7,2,1.2,3.1,1.2c1.1,0,1.8-0.5,1.8-1.3c0-0.5-0.2-1-1.1-1.2l-1.7-0.5
				c-1.4-0.4-2.1-1.3-2.1-2.4c0-1.5,1.2-2.5,3.2-2.5c1.2,0,2.1,0.4,2.8,0.8v1.6c-0.8-0.7-1.8-1-2.8-1c-1.1,0-1.6,0.4-1.6,1
				c0,0.5,0.4,0.9,1.1,1.1l1.6,0.4c1.6,0.4,2.2,1.4,2.2,2.6c0,1.7-1.3,2.8-3.3,2.8C337,260.1,336,259.8,335,259.1z"/>
			<path class="st3" d="M348.8,252.3h-2.4v7.5h-1.6v-7.5h-2.2V251h2.2v-2.2l1.6-0.5v2.8h2.4V252.3z"/>
		</g>
	</g>
</g>
<rect x="237.7" y="246.5" class="st1" width="13.4" height="13.4"/>
<g>
	<g>
		<g>
			<path class="st3" d="M281.2,274.1l-3.3,12.5h-2.2l-2.8-10.9l-2.8,10.9H268l-3.2-12.5h1.8l2.4,10.6l2.7-10.6h2.3l2.7,10.6
				l2.6-10.6H281.2z"/>
			<path class="st3" d="M289.9,282.4h-6.4c0.1,1.9,1.3,2.9,3.2,2.9c1.1,0,2.2-0.4,2.9-1v1.6c-0.7,0.5-1.8,0.9-3.1,0.9
				c-2.9,0-4.8-1.9-4.8-4.8c0-2.7,1.6-4.7,4.4-4.7c2.3,0,3.8,1.4,3.8,3.8V282.4z M283.5,281.2h4.8c0-1.5-0.9-2.3-2.3-2.3
				C284.6,278.9,283.8,279.8,283.5,281.2z"/>
			<path class="st3" d="M291.6,285.8v-1.6c0.9,0.7,2,1.2,3.1,1.2c1.1,0,1.8-0.5,1.8-1.3c0-0.5-0.2-1-1.1-1.2l-1.7-0.5
				c-1.4-0.4-2.1-1.3-2.1-2.4c0-1.5,1.2-2.5,3.2-2.5c1.2,0,2.1,0.4,2.8,0.8v1.6c-0.8-0.7-1.8-1-2.8-1c-1.1,0-1.6,0.4-1.6,1
				c0,0.5,0.4,0.9,1.1,1.1l1.6,0.4c1.6,0.4,2.2,1.4,2.2,2.6c0,1.7-1.3,2.8-3.3,2.8C293.6,286.8,292.5,286.5,291.6,285.8z"/>
			<path class="st3" d="M305.3,279h-2.4v7.5h-1.6V279h-2.2v-1.4h2.2v-2.2l1.6-0.5v2.8h2.4V279z"/>
		</g>
	</g>
</g>
<rect x="237.7" y="273.2" class="st1" width="13.4" height="13.4"/>
<g>
	<g>
		<g>
			<path class="st2" d="M71.3,354.7c0-3.9,3-6.7,7.2-6.7c1.9,0,3.5,0.5,4.6,1.4v1.9c-1.2-0.9-2.6-1.6-4.5-1.6
				c-3.3,0-5.4,2.1-5.4,4.9c0,2.8,2.1,4.9,5.4,4.9c1.8,0,3.4-0.6,4.6-1.7v1.8c-1.3,1.1-2.9,1.6-4.8,1.6
				C74,361.3,71.3,358.4,71.3,354.7z"/>
			<path class="st2" d="M97.2,348.4v12.5h-1.8v-5.6h-7.7v5.6h-1.8v-12.5h1.8v5.3h7.7v-5.3H97.2z"/>
			<path class="st2" d="M108.6,357.5h-5.9l-1.3,3.4h-1.9l5-12.5h2.4l4.9,12.5h-1.9L108.6,357.5z M108,356l-2.4-6.1l-2.4,6.1H108z"/>
			<path class="st2" d="M121.9,360.9l-6-5.7v5.7h-1.8v-12.5h6.1c2.3,0,3.9,1.5,3.9,3.6c0,2.2-1.5,3.7-4.2,3.7h-1.2l5.8,5.2H121.9z
				 M115.9,354.4h3.8c1.7,0,2.6-0.8,2.6-2.2c0-1.3-0.9-2.1-2.4-2.1h-4V354.4z"/>
			<path class="st2" d="M135.8,350.1h-4.4v10.9h-1.8v-10.9h-4.4v-1.6h10.5V350.1z"/>
			<path class="st2" d="M149.9,360.9l-6-5.7v5.7h-1.8v-12.5h6.1c2.3,0,3.9,1.5,3.9,3.6c0,2.2-1.5,3.7-4.2,3.7h-1.2l5.8,5.2H149.9z
				 M144,354.4h3.8c1.7,0,2.6-0.8,2.6-2.2c0-1.3-0.9-2.1-2.4-2.1h-4V354.4z"/>
			<path class="st2" d="M164.3,359.3v1.6H155v-12.5h9.2v1.6h-7.4v3.5h6.9v1.6h-6.9v4.2H164.3z"/>
			<path class="st2" d="M178,348.4l-5.1,12.5h-2l-5.1-12.5h1.9l4.2,10.6l4.2-10.6H178z"/>
			<path class="st2" d="M180.3,348.4h1.8v12.5h-1.8V348.4z"/>
			<path class="st2" d="M195.1,359.3v1.6h-9.3v-12.5h9.2v1.6h-7.4v3.5h6.9v1.6h-6.9v4.2H195.1z"/>
			<path class="st2" d="M214.7,348.4l-3.6,12.5h-2.2l-3.2-10.9l-3.3,10.9h-2.3l-3.4-12.5h1.9l2.7,10.6l3.2-10.6h2.4L210,359
				l2.8-10.6H214.7z"/>
			<path class="st2" d="M223.4,350.1v3.5h6.9v1.6h-6.9v5.8h-1.8v-12.5h9.2v1.6H223.4z"/>
			<path class="st2" d="M242.6,359.3v1.6h-9.3v-12.5h9.2v1.6h-7.4v3.5h6.9v1.6h-6.9v4.2H242.6z"/>
			<path class="st2" d="M254.8,359.3v1.6h-9.3v-12.5h9.2v1.6h-7.4v3.5h6.9v1.6h-6.9v4.2H254.8z"/>
		</g>
	</g>
</g>
<g>
	<g>
		<g>
			<path class="st6" d="M134.8,402.8v-1.4c-0.8,0-1.6-0.3-2-0.6l0.3-0.9c0.5,0.3,1.2,0.6,1.9,0.6c0.9,0,1.6-0.5,1.6-1.3
				c0-0.7-0.5-1.2-1.5-1.6c-1.4-0.5-2.2-1.2-2.2-2.3c0-1.1,0.8-2,2-2.2v-1.4h0.8v1.3c0.8,0,1.3,0.2,1.7,0.5l-0.3,0.9
				c-0.3-0.2-0.8-0.5-1.7-0.5c-1,0-1.4,0.6-1.4,1.2c0,0.7,0.5,1,1.7,1.5c1.4,0.6,2.1,1.3,2.1,2.4c0,1.1-0.7,2-2.1,2.3v1.4H134.8z"/>
			<path class="st6" d="M142.2,392.7v8.9h-1.2v-7.4l-2.4,1.6v-1.3l2.6-1.8H142.2z"/>
			<path class="st6" d="M150.1,398.7c0,1.8-1.3,3.1-3.3,3.1c-0.9,0-1.8-0.3-2.5-0.8v-1.3c0.6,0.6,1.5,0.9,2.3,0.9
				c1.4,0,2.2-0.8,2.2-1.9c0-1.1-0.7-1.9-2.1-1.9c-0.9,0-1.7,0.3-2.3,0.6v-4.8h5.2v1.2h-4v2.2c0.5-0.2,1-0.3,1.6-0.3
				C149.1,395.9,150.1,397.2,150.1,398.7z"/>
			<path class="st6" d="M151.4,397.2c0-2.9,1.3-4.7,3.4-4.7c2.1,0,3.4,1.8,3.4,4.7c0,2.9-1.3,4.6-3.4,4.6
				C152.7,401.8,151.4,400,151.4,397.2z M156.9,397.2c0-2.1-0.7-3.5-2.1-3.5c-1.3,0-2.1,1.4-2.1,3.5c0,2.1,0.7,3.5,2.1,3.5
				C156.1,400.6,156.9,399.3,156.9,397.2z"/>
		</g>
	</g>
	<g>
		<g>
			<path class="st6" d="M195.5,402.8v-1.4c-0.8,0-1.6-0.3-2-0.6l0.3-0.9c0.5,0.3,1.2,0.6,1.9,0.6c0.9,0,1.6-0.5,1.6-1.3
				c0-0.7-0.5-1.2-1.5-1.6c-1.4-0.5-2.2-1.2-2.2-2.3c0-1.1,0.8-2,2-2.2v-1.4h0.8v1.3c0.8,0,1.3,0.2,1.7,0.5l-0.3,0.9
				c-0.3-0.2-0.8-0.5-1.7-0.5c-1,0-1.4,0.6-1.4,1.2c0,0.7,0.5,1,1.7,1.5c1.4,0.6,2.1,1.3,2.1,2.4c0,1.1-0.7,2-2.1,2.3v1.4H195.5z"/>
			<path class="st6" d="M205.1,400.4v1.2h-5.5v-1.1l2.7-2.6c1.1-1,1.4-1.8,1.4-2.6c0-1-0.6-1.7-1.8-1.7c-1,0-1.8,0.5-2.3,1.1v-1.4
				c0.7-0.6,1.5-0.9,2.5-0.9c1.8,0,2.9,1.1,2.9,2.7c0,1.1-0.5,2.1-1.7,3.2l-2.1,2H205.1z"/>
			<path class="st6" d="M206.4,397.2c0-2.9,1.3-4.7,3.4-4.7c2.1,0,3.4,1.8,3.4,4.7c0,2.9-1.3,4.6-3.4,4.6
				C207.7,401.8,206.4,400,206.4,397.2z M211.9,397.2c0-2.1-0.7-3.5-2.1-3.5c-1.3,0-2.1,1.4-2.1,3.5c0,2.1,0.7,3.5,2.1,3.5
				C211.1,400.6,211.9,399.3,211.9,397.2z"/>
			<path class="st6" d="M214.6,397.2c0-2.9,1.3-4.7,3.4-4.7c2.1,0,3.4,1.8,3.4,4.7c0,2.9-1.3,4.6-3.4,4.6
				C215.9,401.8,214.6,400,214.6,397.2z M220.1,397.2c0-2.1-0.7-3.5-2.1-3.5c-1.3,0-2.1,1.4-2.1,3.5c0,2.1,0.7,3.5,2.1,3.5
				C219.4,400.6,220.1,399.3,220.1,397.2z"/>
		</g>
	</g>
	<line class="st7" x1="76.3" y1="416.2" x2="342.5" y2="416.2"/>
	<rect x="139.5" y="409.5" class="st6" width="13.4" height="13.4"/>
	<g>
		<g>
			<g>
				<path class="st3" d="M71.3,439.7v-1.4c-0.8,0-1.6-0.3-2-0.6l0.3-0.9c0.5,0.3,1.2,0.6,1.9,0.6c0.9,0,1.6-0.5,1.6-1.3
					c0-0.7-0.5-1.2-1.5-1.6c-1.4-0.5-2.2-1.2-2.2-2.3c0-1.1,0.8-2,2-2.2v-1.4h0.8v1.3c0.8,0,1.3,0.2,1.7,0.5l-0.3,0.9
					c-0.3-0.2-0.8-0.5-1.7-0.5c-1,0-1.4,0.6-1.4,1.2c0,0.7,0.5,1,1.7,1.5c1.4,0.6,2.1,1.3,2.1,2.4c0,1.1-0.7,2-2.1,2.3v1.4H71.3z"/>
				<path class="st3" d="M78.7,429.6v8.9h-1.2v-7.4l-2.4,1.6v-1.3l2.6-1.8H78.7z"/>
				<path class="st3" d="M80.7,434.1c0-2.9,1.3-4.7,3.4-4.7c2.1,0,3.4,1.8,3.4,4.7c0,2.9-1.3,4.6-3.4,4.6
					C82,438.7,80.7,436.9,80.7,434.1z M86.1,434.1c0-2.1-0.7-3.5-2.1-3.5c-1.3,0-2.1,1.4-2.1,3.5c0,2.1,0.7,3.5,2.1,3.5
					C85.4,437.5,86.1,436.2,86.1,434.1z"/>
				<path class="st3" d="M88.9,434.1c0-2.9,1.3-4.7,3.4-4.7c2.1,0,3.4,1.8,3.4,4.7c0,2.9-1.3,4.6-3.4,4.6
					C90.2,438.7,88.9,436.9,88.9,434.1z M94.4,434.1c0-2.1-0.7-3.5-2.1-3.5c-1.3,0-2.1,1.4-2.1,3.5c0,2.1,0.7,3.5,2.1,3.5
					C93.7,437.5,94.4,436.2,94.4,434.1z"/>
			</g>
		</g>
	</g>
	<g>
		<g>
			<g>
				<path class="st3" d="M259.4,439.7v-1.4c-0.8,0-1.6-0.3-2-0.6l0.3-0.9c0.5,0.3,1.2,0.6,1.9,0.6c0.9,0,1.6-0.5,1.6-1.3
					c0-0.7-0.5-1.2-1.5-1.6c-1.4-0.5-2.2-1.2-2.2-2.3c0-1.1,0.8-2,2-2.2v-1.4h0.8v1.3c0.8,0,1.3,0.2,1.7,0.5l-0.3,0.9
					c-0.3-0.2-0.8-0.5-1.7-0.5c-1,0-1.4,0.6-1.4,1.2c0,0.7,0.5,1,1.7,1.5c1.4,0.6,2.1,1.3,2.1,2.4c0,1.1-0.7,2-2.1,2.3v1.4H259.4z"
					/>
				<path class="st3" d="M269.1,437.3v1.2h-5.5v-1.1l2.7-2.6c1.1-1,1.4-1.8,1.4-2.6c0-1-0.6-1.7-1.8-1.7c-1,0-1.8,0.5-2.3,1.1v-1.4
					c0.7-0.6,1.5-0.9,2.5-0.9c1.8,0,2.9,1.1,2.9,2.7c0,1.1-0.5,2.1-1.7,3.2l-2.1,2H269.1z"/>
				<path class="st3" d="M276.4,435.6c0,1.8-1.3,3.1-3.3,3.1c-0.9,0-1.8-0.3-2.5-0.8v-1.3c0.6,0.6,1.5,0.9,2.3,0.9
					c1.4,0,2.2-0.8,2.2-1.9c0-1.1-0.7-1.9-2.1-1.9c-0.9,0-1.7,0.3-2.3,0.6v-4.8h5.2v1.2h-4v2.2c0.5-0.2,1-0.3,1.6-0.3
					C275.3,432.8,276.4,434.1,276.4,435.6z"/>
				<path class="st3" d="M277.7,434.1c0-2.9,1.3-4.7,3.4-4.7c2.1,0,3.4,1.8,3.4,4.7c0,2.9-1.3,4.6-3.4,4.6
					C279,438.7,277.7,436.9,277.7,434.1z M283.1,434.1c0-2.1-0.7-3.5-2.1-3.5c-1.3,0-2.1,1.4-2.1,3.5c0,2.1,0.7,3.5,2.1,3.5
					C282.4,437.5,283.1,436.2,283.1,434.1z"/>
			</g>
		</g>
	</g>
	<g>
		<g>
			<g>
				<path class="st3" d="M323.3,439.7v-1.4c-0.8,0-1.6-0.3-2-0.6l0.3-0.9c0.5,0.3,1.2,0.6,1.9,0.6c0.9,0,1.6-0.5,1.6-1.3
					c0-0.7-0.5-1.2-1.5-1.6c-1.4-0.5-2.2-1.2-2.2-2.3c0-1.1,0.8-2,2-2.2v-1.4h0.8v1.3c0.8,0,1.3,0.2,1.7,0.5l-0.3,0.9
					c-0.3-0.2-0.8-0.5-1.7-0.5c-1,0-1.4,0.6-1.4,1.2c0,0.7,0.5,1,1.7,1.5c1.4,0.6,2.1,1.3,2.1,2.4c0,1.1-0.7,2-2.1,2.3v1.4H323.3z"
					/>
				<path class="st3" d="M333.2,435.9c0,1.6-1.3,2.8-3.2,2.8c-0.9,0-1.7-0.2-2.4-0.7v-1.3c0.4,0.4,1.1,0.8,2.3,0.8
					c1.3,0,2-0.6,2-1.7c0-0.7-0.4-1.5-1.9-1.5h-1.8l0.2-1h1.6c1.3,0,1.7-0.6,1.7-1.5c0-0.8-0.6-1.3-1.8-1.3c-1.1,0-1.8,0.5-2.2,0.8
					v-1.3c0.7-0.5,1.5-0.7,2.4-0.7c1.8,0,2.9,1,2.9,2.3c0,0.9-0.5,1.8-1.5,2C332.6,434,333.2,434.9,333.2,435.9z"/>
				<path class="st3" d="M334.6,434.1c0-2.9,1.3-4.7,3.4-4.7c2.1,0,3.4,1.8,3.4,4.7c0,2.9-1.3,4.6-3.4,4.6
					C335.9,438.7,334.6,436.9,334.6,434.1z M340.1,434.1c0-2.1-0.7-3.5-2.1-3.5c-1.3,0-2.1,1.4-2.1,3.5c0,2.1,0.7,3.5,2.1,3.5
					C339.3,437.5,340.1,436.2,340.1,434.1z"/>
				<path class="st3" d="M342.8,434.1c0-2.9,1.3-4.7,3.4-4.7c2.1,0,3.4,1.8,3.4,4.7c0,2.9-1.3,4.6-3.4,4.6
					C344.2,438.7,342.8,436.9,342.8,434.1z M348.3,434.1c0-2.1-0.7-3.5-2.1-3.5c-1.3,0-2.1,1.4-2.1,3.5c0,2.1,0.7,3.5,2.1,3.5
					C347.6,437.5,348.3,436.2,348.3,434.1z"/>
			</g>
		</g>
	</g>
	<rect x="202.7" y="409.5" class="st6" width="13.4" height="13.4"/>
	<rect x="76.3" y="409.5" class="st8" width="13.4" height="13.4"/>
	<rect x="265.9" y="409.5" class="st8" width="13.4" height="13.4"/>
	<rect x="329.1" y="409.5" class="st8" width="13.4" height="13.4"/>
	<rect x="152.9" y="412.9" class="st6" width="49.8" height="6.6"/>
</g>
<g>
	<g>
		<g>
			<g>
				<path class="st2" d="M72.3,576.1h5.5c4.3,0,6.5,2.6,6.5,6.2c0,3.7-2.5,6.3-7,6.3h-5V576.1z M77.2,587c3.3,0,5.2-1.7,5.2-4.7
					c0-2.7-1.5-4.6-4.8-4.6H74v9.3H77.2z"/>
				<path class="st2" d="M96.4,587v1.6h-9.3v-12.5h9.2v1.6h-7.4v3.5h6.9v1.6h-6.9v4.2H96.4z"/>
				<path class="st2" d="M109.3,580c0,2.3-1.7,3.8-4.6,3.8h-3.6v4.8h-1.8v-12.5h5.8C107.6,576.1,109.3,577.7,109.3,580z M107.4,580
					c0-1.5-1-2.3-2.7-2.3h-3.6v4.6h3.4C106.4,582.3,107.4,581.5,107.4,580z"/>
				<path class="st2" d="M110.8,582.4c0-3.7,2.9-6.6,6.9-6.6c4,0,6.9,2.9,6.9,6.6s-2.9,6.6-6.9,6.6
					C113.6,589,110.8,586.1,110.8,582.4z M122.7,582.4c0-2.8-2-4.9-5-4.9c-3.1,0-5.1,2.1-5.1,4.9s2,4.9,5.1,4.9
					C120.8,587.3,122.7,585.2,122.7,582.4z"/>
				<path class="st2" d="M126.6,587.4v-1.9c1.4,1.1,3,1.7,4.9,1.7c2,0,3.1-0.7,3.1-2.1c0-0.9-0.5-1.4-2.2-1.9l-2.7-0.7
					c-2.2-0.6-3-1.8-3-3.2c0-2.1,1.8-3.6,4.9-3.6c2,0,3.4,0.6,4.4,1.3v1.8c-1.2-1-2.6-1.5-4.4-1.5c-1.9,0-3.1,0.7-3.1,1.8
					c0,0.8,0.5,1.3,1.9,1.7l2.8,0.7c2.4,0.7,3.3,1.8,3.3,3.4c0,2.3-1.9,3.8-4.9,3.8C129.6,588.9,127.9,588.4,126.6,587.4z"/>
				<path class="st2" d="M139.1,576.1h1.8v12.5h-1.8V576.1z"/>
				<path class="st2" d="M153.6,577.7h-4.4v10.9h-1.8v-10.9h-4.4v-1.6h10.5V577.7z"/>
				<path class="st2" d="M155.8,576.1h1.8v12.5h-1.8V576.1z"/>
				<path class="st2" d="M160.4,582.4c0-3.7,2.9-6.6,6.9-6.6c4,0,6.9,2.9,6.9,6.6s-2.9,6.6-6.9,6.6
					C163.2,589,160.4,586.1,160.4,582.4z M172.3,582.4c0-2.8-2-4.9-5-4.9c-3.1,0-5.1,2.1-5.1,4.9s2,4.9,5.1,4.9
					C170.3,587.3,172.3,585.2,172.3,582.4z"/>
				<path class="st2" d="M188.2,576.1v12.5h-2.4l-7.2-10.9v10.9h-1.7v-12.5h2.6l7,10.6v-10.6H188.2z"/>
				<path class="st2" d="M198.7,577.7v3.5h6.9v1.6h-6.9v5.8h-1.8v-12.5h9.2v1.6H198.7z"/>
				<path class="st2" d="M217.9,587v1.6h-9.3v-12.5h9.2v1.6h-7.4v3.5h6.9v1.6h-6.9v4.2H217.9z"/>
				<path class="st2" d="M230.1,587v1.6h-9.3v-12.5h9.2v1.6h-7.4v3.5h6.9v1.6h-6.9v4.2H230.1z"/>
			</g>
		</g>
	</g>
	<g>
		<g>
			<g>
				<path class="st6" d="M134.8,630.2v-1.4c-0.8,0-1.6-0.3-2-0.6l0.3-0.9c0.5,0.3,1.2,0.6,1.9,0.6c0.9,0,1.6-0.5,1.6-1.3
					c0-0.7-0.5-1.2-1.5-1.6c-1.4-0.5-2.2-1.2-2.2-2.3c0-1.1,0.8-2,2-2.2v-1.4h0.8v1.3c0.8,0,1.3,0.2,1.7,0.5l-0.3,0.9
					c-0.3-0.2-0.8-0.5-1.7-0.5c-1,0-1.4,0.6-1.4,1.2c0,0.7,0.5,1,1.7,1.5c1.4,0.6,2.1,1.3,2.1,2.4c0,1.1-0.7,2-2.1,2.3v1.4H134.8z"
					/>
				<path class="st6" d="M142.2,620.1v8.9h-1.2v-7.4l-2.4,1.6V622l2.6-1.8H142.2z"/>
				<path class="st6" d="M150.1,626.2c0,1.8-1.3,3.1-3.3,3.1c-0.9,0-1.8-0.3-2.5-0.8v-1.3c0.6,0.6,1.5,0.9,2.3,0.9
					c1.4,0,2.2-0.8,2.2-1.9c0-1.1-0.7-1.9-2.1-1.9c-0.9,0-1.7,0.3-2.3,0.6v-4.8h5.2v1.2h-4v2.2c0.5-0.2,1-0.3,1.6-0.3
					C149.1,623.3,150.1,624.6,150.1,626.2z"/>
				<path class="st6" d="M151.4,624.6c0-2.9,1.3-4.7,3.4-4.7c2.1,0,3.4,1.8,3.4,4.7c0,2.9-1.3,4.6-3.4,4.6
					C152.7,629.2,151.4,627.5,151.4,624.6z M156.9,624.6c0-2.1-0.7-3.5-2.1-3.5c-1.3,0-2.1,1.4-2.1,3.5c0,2.1,0.7,3.5,2.1,3.5
					C156.1,628.1,156.9,626.7,156.9,624.6z"/>
			</g>
		</g>
		<g>
			<g>
				<path class="st6" d="M195.5,630.2v-1.4c-0.8,0-1.6-0.3-2-0.6l0.3-0.9c0.5,0.3,1.2,0.6,1.9,0.6c0.9,0,1.6-0.5,1.6-1.3
					c0-0.7-0.5-1.2-1.5-1.6c-1.4-0.5-2.2-1.2-2.2-2.3c0-1.1,0.8-2,2-2.2v-1.4h0.8v1.3c0.8,0,1.3,0.2,1.7,0.5l-0.3,0.9
					c-0.3-0.2-0.8-0.5-1.7-0.5c-1,0-1.4,0.6-1.4,1.2c0,0.7,0.5,1,1.7,1.5c1.4,0.6,2.1,1.3,2.1,2.4c0,1.1-0.7,2-2.1,2.3v1.4H195.5z"
					/>
				<path class="st6" d="M205.1,627.9v1.2h-5.5V628l2.7-2.6c1.1-1,1.4-1.8,1.4-2.6c0-1-0.6-1.7-1.8-1.7c-1,0-1.8,0.5-2.3,1.1v-1.4
					c0.7-0.6,1.5-0.9,2.5-0.9c1.8,0,2.9,1.1,2.9,2.7c0,1.1-0.5,2.1-1.7,3.2l-2.1,2H205.1z"/>
				<path class="st6" d="M206.4,624.6c0-2.9,1.3-4.7,3.4-4.7c2.1,0,3.4,1.8,3.4,4.7c0,2.9-1.3,4.6-3.4,4.6
					C207.7,629.2,206.4,627.5,206.4,624.6z M211.9,624.6c0-2.1-0.7-3.5-2.1-3.5c-1.3,0-2.1,1.4-2.1,3.5c0,2.1,0.7,3.5,2.1,3.5
					C211.1,628.1,211.9,626.7,211.9,624.6z"/>
				<path class="st6" d="M214.6,624.6c0-2.9,1.3-4.7,3.4-4.7c2.1,0,3.4,1.8,3.4,4.7c0,2.9-1.3,4.6-3.4,4.6
					C215.9,629.2,214.6,627.5,214.6,624.6z M220.1,624.6c0-2.1-0.7-3.5-2.1-3.5c-1.3,0-2.1,1.4-2.1,3.5c0,2.1,0.7,3.5,2.1,3.5
					C219.4,628.1,220.1,626.7,220.1,624.6z"/>
			</g>
		</g>
		<line class="st7" x1="76.3" y1="643.6" x2="342.5" y2="643.6"/>
		<rect x="139.5" y="636.9" class="st6" width="13.4" height="13.4"/>
		<g>
			<g>
				<g>
					<path class="st3" d="M71.3,667.1v-1.4c-0.8,0-1.6-0.3-2-0.6l0.3-0.9c0.5,0.3,1.2,0.6,1.9,0.6c0.9,0,1.6-0.5,1.6-1.3
						c0-0.7-0.5-1.2-1.5-1.6c-1.4-0.5-2.2-1.2-2.2-2.3c0-1.1,0.8-2,2-2.2v-1.4h0.8v1.3c0.8,0,1.3,0.2,1.7,0.5l-0.3,0.9
						c-0.3-0.2-0.8-0.5-1.7-0.5c-1,0-1.4,0.6-1.4,1.2c0,0.7,0.5,1,1.7,1.5c1.4,0.6,2.1,1.3,2.1,2.4c0,1.1-0.7,2-2.1,2.3v1.4H71.3z"
						/>
					<path class="st3" d="M78.7,657v8.9h-1.2v-7.4l-2.4,1.6v-1.3l2.6-1.8H78.7z"/>
					<path class="st3" d="M80.7,661.5c0-2.9,1.3-4.7,3.4-4.7c2.1,0,3.4,1.8,3.4,4.7c0,2.9-1.3,4.6-3.4,4.6
						C82,666.1,80.7,664.4,80.7,661.5z M86.1,661.5c0-2.1-0.7-3.5-2.1-3.5c-1.3,0-2.1,1.4-2.1,3.5c0,2.1,0.7,3.5,2.1,3.5
						C85.4,665,86.1,663.6,86.1,661.5z"/>
					<path class="st3" d="M88.9,661.5c0-2.9,1.3-4.7,3.4-4.7c2.1,0,3.4,1.8,3.4,4.7c0,2.9-1.3,4.6-3.4,4.6
						C90.2,666.1,88.9,664.4,88.9,661.5z M94.4,661.5c0-2.1-0.7-3.5-2.1-3.5c-1.3,0-2.1,1.4-2.1,3.5c0,2.1,0.7,3.5,2.1,3.5
						C93.7,665,94.4,663.6,94.4,661.5z"/>
				</g>
			</g>
		</g>
		<g>
			<g>
				<g>
					<path class="st3" d="M259.4,667.1v-1.4c-0.8,0-1.6-0.3-2-0.6l0.3-0.9c0.5,0.3,1.2,0.6,1.9,0.6c0.9,0,1.6-0.5,1.6-1.3
						c0-0.7-0.5-1.2-1.5-1.6c-1.4-0.5-2.2-1.2-2.2-2.3c0-1.1,0.8-2,2-2.2v-1.4h0.8v1.3c0.8,0,1.3,0.2,1.7,0.5l-0.3,0.9
						c-0.3-0.2-0.8-0.5-1.7-0.5c-1,0-1.4,0.6-1.4,1.2c0,0.7,0.5,1,1.7,1.5c1.4,0.6,2.1,1.3,2.1,2.4c0,1.1-0.7,2-2.1,2.3v1.4H259.4z"
						/>
					<path class="st3" d="M269.1,664.8v1.2h-5.5v-1.1l2.7-2.6c1.1-1,1.4-1.8,1.4-2.6c0-1-0.6-1.7-1.8-1.7c-1,0-1.8,0.5-2.3,1.1v-1.4
						c0.7-0.6,1.5-0.9,2.5-0.9c1.8,0,2.9,1.1,2.9,2.7c0,1.1-0.5,2.1-1.7,3.2l-2.1,2H269.1z"/>
					<path class="st3" d="M276.4,663.1c0,1.8-1.3,3.1-3.3,3.1c-0.9,0-1.8-0.3-2.5-0.8v-1.3c0.6,0.6,1.5,0.9,2.3,0.9
						c1.4,0,2.2-0.8,2.2-1.9c0-1.1-0.7-1.9-2.1-1.9c-0.9,0-1.7,0.3-2.3,0.6V657h5.2v1.2h-4v2.2c0.5-0.2,1-0.3,1.6-0.3
						C275.3,660.2,276.4,661.5,276.4,663.1z"/>
					<path class="st3" d="M277.7,661.5c0-2.9,1.3-4.7,3.4-4.7c2.1,0,3.4,1.8,3.4,4.7c0,2.9-1.3,4.6-3.4,4.6
						C279,666.1,277.7,664.4,277.7,661.5z M283.1,661.5c0-2.1-0.7-3.5-2.1-3.5c-1.3,0-2.1,1.4-2.1,3.5c0,2.1,0.7,3.5,2.1,3.5
						C282.4,665,283.1,663.6,283.1,661.5z"/>
				</g>
			</g>
		</g>
		<g>
			<g>
				<g>
					<path class="st3" d="M323.3,667.1v-1.4c-0.8,0-1.6-0.3-2-0.6l0.3-0.9c0.5,0.3,1.2,0.6,1.9,0.6c0.9,0,1.6-0.5,1.6-1.3
						c0-0.7-0.5-1.2-1.5-1.6c-1.4-0.5-2.2-1.2-2.2-2.3c0-1.1,0.8-2,2-2.2v-1.4h0.8v1.3c0.8,0,1.3,0.2,1.7,0.5l-0.3,0.9
						c-0.3-0.2-0.8-0.5-1.7-0.5c-1,0-1.4,0.6-1.4,1.2c0,0.7,0.5,1,1.7,1.5c1.4,0.6,2.1,1.3,2.1,2.4c0,1.1-0.7,2-2.1,2.3v1.4H323.3z"
						/>
					<path class="st3" d="M333.2,663.4c0,1.6-1.3,2.8-3.2,2.8c-0.9,0-1.7-0.2-2.4-0.7v-1.3c0.4,0.4,1.1,0.8,2.3,0.8
						c1.3,0,2-0.6,2-1.7c0-0.7-0.4-1.5-1.9-1.5h-1.8l0.2-1h1.6c1.3,0,1.7-0.6,1.7-1.5c0-0.8-0.6-1.3-1.8-1.3c-1.1,0-1.8,0.5-2.2,0.8
						v-1.3c0.7-0.5,1.5-0.7,2.4-0.7c1.8,0,2.9,1,2.9,2.3c0,0.9-0.5,1.8-1.5,2C332.6,661.4,333.2,662.3,333.2,663.4z"/>
					<path class="st3" d="M334.6,661.5c0-2.9,1.3-4.7,3.4-4.7c2.1,0,3.4,1.8,3.4,4.7c0,2.9-1.3,4.6-3.4,4.6
						C335.9,666.1,334.6,664.4,334.6,661.5z M340.1,661.5c0-2.1-0.7-3.5-2.1-3.5c-1.3,0-2.1,1.4-2.1,3.5c0,2.1,0.7,3.5,2.1,3.5
						C339.3,665,340.1,663.6,340.1,661.5z"/>
					<path class="st3" d="M342.8,661.5c0-2.9,1.3-4.7,3.4-4.7c2.1,0,3.4,1.8,3.4,4.7c0,2.9-1.3,4.6-3.4,4.6
						C344.2,666.1,342.8,664.4,342.8,661.5z M348.3,661.5c0-2.1-0.7-3.5-2.1-3.5c-1.3,0-2.1,1.4-2.1,3.5c0,2.1,0.7,3.5,2.1,3.5
						C347.6,665,348.3,663.6,348.3,661.5z"/>
				</g>
			</g>
		</g>
		<rect x="202.7" y="636.9" class="st6" width="13.4" height="13.4"/>
		<rect x="76.3" y="636.9" class="st8" width="13.4" height="13.4"/>
		<rect x="265.9" y="636.9" class="st8" width="13.4" height="13.4"/>
		<rect x="329.1" y="636.9" class="st8" width="13.4" height="13.4"/>
		<rect x="152.9" y="640.3" class="st6" width="49.8" height="6.6"/>
	</g>
</g>
<g>
	<g>
		<g>
			<g>
				<path class="st2" d="M83.3,463.6h-4.4v10.9h-1.8v-10.9h-4.4V462h10.5V463.6z"/>
				<path class="st2" d="M93.2,474.5l-6-5.7v5.7h-1.8V462h6.1c2.3,0,3.9,1.5,3.9,3.6c0,2.2-1.5,3.7-4.2,3.7H90l5.8,5.2H93.2z
					 M87.2,467.9H91c1.7,0,2.6-0.8,2.6-2.2c0-1.3-0.9-2.1-2.4-2.1h-4V467.9z"/>
				<path class="st2" d="M98.3,462h1.8v12.5h-1.8V462z"/>
				<path class="st2" d="M111.5,471.1h-5.9l-1.3,3.4h-1.9l5-12.5h2.4l4.9,12.5h-1.9L111.5,471.1z M110.9,469.6l-2.4-6.1l-2.4,6.1
					H110.9z"/>
				<path class="st2" d="M125.8,472.8v1.7H117V462h1.8v10.8H125.8z"/>
				<path class="st2" d="M140.5,463.6h-4.4v10.9h-1.8v-10.9H130V462h10.5V463.6z"/>
				<path class="st2" d="M152,472.9v1.6h-9.3V462h9.2v1.6h-7.4v3.5h6.9v1.6h-6.9v4.2H152z"/>
				<path class="st2" d="M154.1,473.3v-1.9c1.4,1.1,3,1.7,4.9,1.7c2,0,3.1-0.7,3.1-2.1c0-0.9-0.5-1.4-2.2-1.9l-2.7-0.7
					c-2.2-0.6-3-1.8-3-3.2c0-2.1,1.8-3.6,4.9-3.6c2,0,3.4,0.6,4.4,1.3v1.8c-1.2-1-2.6-1.5-4.4-1.5c-1.9,0-3.1,0.7-3.1,1.8
					c0,0.8,0.5,1.3,1.9,1.7l2.8,0.7c2.4,0.7,3.3,1.8,3.3,3.4c0,2.3-1.9,3.8-4.9,3.8C157.2,474.8,155.4,474.2,154.1,473.3z"/>
				<path class="st2" d="M175.5,463.6h-4.4v10.9h-1.8v-10.9H165V462h10.5V463.6z"/>
				<path class="st2" d="M177.7,462h1.8v12.5h-1.8V462z"/>
				<path class="st2" d="M196.4,474.5l-0.9-11l-4.1,11h-2l-4.1-11.1l-0.9,11.1h-1.7l1-12.5h2.8l3.8,10.4l3.9-10.4h2.7l1.2,12.5
					H196.4z"/>
				<path class="st2" d="M200.4,468.3c0-3.7,2.9-6.6,6.9-6.6c4,0,6.9,2.9,6.9,6.6s-2.9,6.6-6.9,6.6
					C203.3,474.9,200.4,471.9,200.4,468.3z M212.4,468.3c0-2.8-2-4.9-5-4.9c-3.1,0-5.1,2.1-5.1,4.9s2,4.9,5.1,4.9
					C210.4,473.2,212.4,471.1,212.4,468.3z"/>
				<path class="st2" d="M228.3,462v12.5H226l-7.2-10.9v10.9H217V462h2.6l7,10.6V462H228.3z"/>
				<path class="st2" d="M242.8,462l-5.2,8.1v4.4h-1.8v-4.4l-5.1-8.1h2l3.9,6.4l4-6.4H242.8z"/>
				<path class="st2" d="M251.1,463.6v3.5h6.9v1.6h-6.9v5.8h-1.8V462h9.2v1.6H251.1z"/>
				<path class="st2" d="M270.3,472.9v1.6H261V462h9.2v1.6h-7.4v3.5h6.9v1.6h-6.9v4.2H270.3z"/>
				<path class="st2" d="M282.5,472.9v1.6h-9.3V462h9.2v1.6H275v3.5h6.9v1.6H275v4.2H282.5z"/>
			</g>
		</g>
	</g>
	<g>
		<g>
			<g>
				<path class="st6" d="M134.8,515.9v-1.4c-0.8,0-1.6-0.3-2-0.6l0.3-0.9c0.5,0.3,1.2,0.6,1.9,0.6c0.9,0,1.6-0.5,1.6-1.3
					c0-0.7-0.5-1.2-1.5-1.6c-1.4-0.5-2.2-1.2-2.2-2.3c0-1.1,0.8-2,2-2.2V505h0.8v1.3c0.8,0,1.3,0.2,1.7,0.5l-0.3,0.9
					c-0.3-0.2-0.8-0.5-1.7-0.5c-1,0-1.4,0.6-1.4,1.2c0,0.7,0.5,1,1.7,1.5c1.4,0.6,2.1,1.3,2.1,2.4c0,1.1-0.7,2-2.1,2.3v1.4H134.8z"
					/>
				<path class="st6" d="M142.2,505.9v8.9h-1.2v-7.4l-2.4,1.6v-1.3l2.6-1.8H142.2z"/>
				<path class="st6" d="M150.1,511.9c0,1.8-1.3,3.1-3.3,3.1c-0.9,0-1.8-0.3-2.5-0.8v-1.3c0.6,0.6,1.5,0.9,2.3,0.9
					c1.4,0,2.2-0.8,2.2-1.9c0-1.1-0.7-1.9-2.1-1.9c-0.9,0-1.7,0.3-2.3,0.6v-4.8h5.2v1.2h-4v2.2c0.5-0.2,1-0.3,1.6-0.3
					C149.1,509.1,150.1,510.4,150.1,511.9z"/>
				<path class="st6" d="M151.4,510.3c0-2.8,1.3-4.7,3.4-4.7c2.1,0,3.4,1.8,3.4,4.7c0,2.9-1.3,4.6-3.4,4.6
					C152.7,515,151.4,513.2,151.4,510.3z M156.9,510.4c0-2.1-0.7-3.5-2.1-3.5c-1.3,0-2.1,1.4-2.1,3.5c0,2.1,0.7,3.5,2.1,3.5
					C156.1,513.8,156.9,512.5,156.9,510.4z"/>
			</g>
		</g>
		<g>
			<g>
				<path class="st6" d="M195.5,515.9v-1.4c-0.8,0-1.6-0.3-2-0.6l0.3-0.9c0.5,0.3,1.2,0.6,1.9,0.6c0.9,0,1.6-0.5,1.6-1.3
					c0-0.7-0.5-1.2-1.5-1.6c-1.4-0.5-2.2-1.2-2.2-2.3c0-1.1,0.8-2,2-2.2V505h0.8v1.3c0.8,0,1.3,0.2,1.7,0.5l-0.3,0.9
					c-0.3-0.2-0.8-0.5-1.7-0.5c-1,0-1.4,0.6-1.4,1.2c0,0.7,0.5,1,1.7,1.5c1.4,0.6,2.1,1.3,2.1,2.4c0,1.1-0.7,2-2.1,2.3v1.4H195.5z"
					/>
				<path class="st6" d="M205.1,513.6v1.2h-5.5v-1.1l2.7-2.6c1.1-1,1.4-1.8,1.4-2.6c0-1-0.6-1.7-1.8-1.7c-1,0-1.8,0.5-2.3,1.1v-1.4
					c0.7-0.6,1.5-0.9,2.5-0.9c1.8,0,2.9,1.1,2.9,2.7c0,1.1-0.5,2.1-1.7,3.2l-2.1,2H205.1z"/>
				<path class="st6" d="M206.4,510.3c0-2.8,1.3-4.7,3.4-4.7c2.1,0,3.4,1.8,3.4,4.7c0,2.9-1.3,4.6-3.4,4.6
					C207.7,515,206.4,513.2,206.4,510.3z M211.9,510.4c0-2.1-0.7-3.5-2.1-3.5c-1.3,0-2.1,1.4-2.1,3.5c0,2.1,0.7,3.5,2.1,3.5
					C211.1,513.8,211.9,512.5,211.9,510.4z"/>
				<path class="st6" d="M214.6,510.3c0-2.8,1.3-4.7,3.4-4.7c2.1,0,3.4,1.8,3.4,4.7c0,2.9-1.3,4.6-3.4,4.6
					C215.9,515,214.6,513.2,214.6,510.3z M220.1,510.4c0-2.1-0.7-3.5-2.1-3.5c-1.3,0-2.1,1.4-2.1,3.5c0,2.1,0.7,3.5,2.1,3.5
					C219.4,513.8,220.1,512.5,220.1,510.4z"/>
			</g>
		</g>
		<line class="st7" x1="76.3" y1="529.4" x2="342.5" y2="529.4"/>
		<rect x="139.5" y="522.7" class="st6" width="13.4" height="13.4"/>
		<g>
			<g>
				<g>
					<path class="st3" d="M71.3,552.8v-1.4c-0.8,0-1.6-0.3-2-0.6l0.3-0.9c0.5,0.3,1.2,0.6,1.9,0.6c0.9,0,1.6-0.5,1.6-1.3
						c0-0.7-0.5-1.2-1.5-1.6c-1.4-0.5-2.2-1.2-2.2-2.3c0-1.1,0.8-2,2-2.2v-1.4h0.8v1.3c0.8,0,1.3,0.2,1.7,0.5l-0.3,0.9
						c-0.3-0.2-0.8-0.5-1.7-0.5c-1,0-1.4,0.6-1.4,1.2c0,0.7,0.5,1,1.7,1.5c1.4,0.6,2.1,1.3,2.1,2.4c0,1.1-0.7,2-2.1,2.3v1.4H71.3z"
						/>
					<path class="st3" d="M78.7,542.8v8.9h-1.2v-7.4l-2.4,1.6v-1.3l2.6-1.8H78.7z"/>
					<path class="st3" d="M80.7,547.2c0-2.8,1.3-4.7,3.4-4.7c2.1,0,3.4,1.8,3.4,4.7c0,2.9-1.3,4.6-3.4,4.6
						C82,551.9,80.7,550.1,80.7,547.2z M86.1,547.3c0-2.1-0.7-3.5-2.1-3.5c-1.3,0-2.1,1.4-2.1,3.5c0,2.1,0.7,3.5,2.1,3.5
						C85.4,550.7,86.1,549.4,86.1,547.3z"/>
					<path class="st3" d="M88.9,547.2c0-2.8,1.3-4.7,3.4-4.7c2.1,0,3.4,1.8,3.4,4.7c0,2.9-1.3,4.6-3.4,4.6
						C90.2,551.9,88.9,550.1,88.9,547.2z M94.4,547.3c0-2.1-0.7-3.5-2.1-3.5c-1.3,0-2.1,1.4-2.1,3.5c0,2.1,0.7,3.5,2.1,3.5
						C93.7,550.7,94.4,549.4,94.4,547.3z"/>
				</g>
			</g>
		</g>
		<g>
			<g>
				<g>
					<path class="st3" d="M259.4,552.8v-1.4c-0.8,0-1.6-0.3-2-0.6l0.3-0.9c0.5,0.3,1.2,0.6,1.9,0.6c0.9,0,1.6-0.5,1.6-1.3
						c0-0.7-0.5-1.2-1.5-1.6c-1.4-0.5-2.2-1.2-2.2-2.3c0-1.1,0.8-2,2-2.2v-1.4h0.8v1.3c0.8,0,1.3,0.2,1.7,0.5l-0.3,0.9
						c-0.3-0.2-0.8-0.5-1.7-0.5c-1,0-1.4,0.6-1.4,1.2c0,0.7,0.5,1,1.7,1.5c1.4,0.6,2.1,1.3,2.1,2.4c0,1.1-0.7,2-2.1,2.3v1.4H259.4z"
						/>
					<path class="st3" d="M269.1,550.5v1.2h-5.5v-1.1l2.7-2.6c1.1-1,1.4-1.8,1.4-2.6c0-1-0.6-1.7-1.8-1.7c-1,0-1.8,0.5-2.3,1.1v-1.4
						c0.7-0.6,1.5-0.9,2.5-0.9c1.8,0,2.9,1.1,2.9,2.7c0,1.1-0.5,2.1-1.7,3.2l-2.1,2H269.1z"/>
					<path class="st3" d="M276.4,548.8c0,1.8-1.3,3.1-3.3,3.1c-0.9,0-1.8-0.3-2.5-0.8v-1.3c0.6,0.6,1.5,0.9,2.3,0.9
						c1.4,0,2.2-0.8,2.2-1.9c0-1.1-0.7-1.9-2.1-1.9c-0.9,0-1.7,0.3-2.3,0.6v-4.8h5.2v1.2h-4v2.2c0.5-0.2,1-0.3,1.6-0.3
						C275.3,546,276.4,547.3,276.4,548.8z"/>
					<path class="st3" d="M277.7,547.2c0-2.8,1.3-4.7,3.4-4.7c2.1,0,3.4,1.8,3.4,4.7c0,2.9-1.3,4.6-3.4,4.6
						C279,551.9,277.7,550.1,277.7,547.2z M283.1,547.3c0-2.1-0.7-3.5-2.1-3.5c-1.3,0-2.1,1.4-2.1,3.5c0,2.1,0.7,3.5,2.1,3.5
						C282.4,550.7,283.1,549.4,283.1,547.3z"/>
				</g>
			</g>
		</g>
		<g>
			<g>
				<g>
					<path class="st3" d="M323.3,552.8v-1.4c-0.8,0-1.6-0.3-2-0.6l0.3-0.9c0.5,0.3,1.2,0.6,1.9,0.6c0.9,0,1.6-0.5,1.6-1.3
						c0-0.7-0.5-1.2-1.5-1.6c-1.4-0.5-2.2-1.2-2.2-2.3c0-1.1,0.8-2,2-2.2v-1.4h0.8v1.3c0.8,0,1.3,0.2,1.7,0.5l-0.3,0.9
						c-0.3-0.2-0.8-0.5-1.7-0.5c-1,0-1.4,0.6-1.4,1.2c0,0.7,0.5,1,1.7,1.5c1.4,0.6,2.1,1.3,2.1,2.4c0,1.1-0.7,2-2.1,2.3v1.4H323.3z"
						/>
					<path class="st3" d="M333.2,549.1c0,1.6-1.3,2.8-3.2,2.8c-0.9,0-1.7-0.2-2.4-0.7v-1.3c0.4,0.4,1.1,0.8,2.3,0.8
						c1.3,0,2-0.6,2-1.7c0-0.7-0.4-1.5-1.9-1.5h-1.8l0.2-1h1.6c1.3,0,1.7-0.6,1.7-1.5c0-0.8-0.6-1.3-1.8-1.3c-1.1,0-1.8,0.5-2.2,0.8
						v-1.3c0.7-0.5,1.5-0.7,2.4-0.7c1.8,0,2.9,1,2.9,2.3c0,0.9-0.5,1.8-1.5,2C332.6,547.1,333.2,548.1,333.2,549.1z"/>
					<path class="st3" d="M334.6,547.2c0-2.8,1.3-4.7,3.4-4.7c2.1,0,3.4,1.8,3.4,4.7c0,2.9-1.3,4.6-3.4,4.6
						C335.9,551.9,334.6,550.1,334.6,547.2z M340.1,547.3c0-2.1-0.7-3.5-2.1-3.5c-1.3,0-2.1,1.4-2.1,3.5c0,2.1,0.7,3.5,2.1,3.5
						C339.3,550.7,340.1,549.4,340.1,547.3z"/>
					<path class="st3" d="M342.8,547.2c0-2.8,1.3-4.7,3.4-4.7c2.1,0,3.4,1.8,3.4,4.7c0,2.9-1.3,4.6-3.4,4.6
						C344.2,551.9,342.8,550.1,342.8,547.2z M348.3,547.3c0-2.1-0.7-3.5-2.1-3.5c-1.3,0-2.1,1.4-2.1,3.5c0,2.1,0.7,3.5,2.1,3.5
						C347.6,550.7,348.3,549.4,348.3,547.3z"/>
				</g>
			</g>
		</g>
		<rect x="202.7" y="522.7" class="st6" width="13.4" height="13.4"/>
		<rect x="76.3" y="522.7" class="st8" width="13.4" height="13.4"/>
		<rect x="265.9" y="522.7" class="st8" width="13.4" height="13.4"/>
		<rect x="329.1" y="522.7" class="st8" width="13.4" height="13.4"/>
		<rect x="152.9" y="526.1" class="st6" width="49.8" height="6.6"/>
	</g>
</g>
<rect x="78.4" y="274.3" class="st4" width="13.4" height="13.4"/>
<polyline class="st5" points="80.9,282.2 84,284.3 89.1,277.1 "/>
<g>
</g>
<g>
</g>
<g>
</g>
<g>
</g>
<g>
</g>
<g>
</g>
</svg>
