<?xml version="1.0" encoding="utf-8"?>
<!-- Generator: Adobe Illustrator 21.1.0, SVG Export Plug-In . SVG Version: 6.00 Build 0)  -->
<svg version="1.1" id="Layer_1" xmlns="http://www.w3.org/2000/svg" xmlns:xlink="http://www.w3.org/1999/xlink" x="0px" y="0px"
	 viewBox="0 0 240.1 240.1" style="enable-background:new 0 0 240.1 240.1;" xml:space="preserve">
<style type="text/css">
	.st0{fill:#B78D59;}
	.st1{fill:none;}
	.st2{fill:#FFFFFF;stroke:#1E305E;stroke-miterlimit:10;}
	.st3{fill:#FFFFFF;}
	.st4{fill:#1E305E;}
</style>
<g>
	<g>
		<path class="st0" d="M120,54.4c36.2,0,65.6,29.4,65.6,65.6s-29.4,65.6-65.6,65.6S54.4,156.2,54.4,120S83.9,54.4,120,54.4
			 M120,53.4c-36.8,0-66.6,29.8-66.6,66.6s29.8,66.6,66.6,66.6s66.6-29.8,66.6-66.6S156.8,53.4,120,53.4L120,53.4z"/>
	</g>
	<rect class="st1" width="240.1" height="240.1"/>
	<circle class="st2" cx="120" cy="120" r="26.5"/>
	<path class="st3" d="M108.5,131.6L108.5,131.6c-6.4-6.4-6.4-16.7,0-23.1l0,0c6.4-6.4,16.7-6.4,23.1,0l0,0c6.4,6.4,6.4,16.7,0,23.1
		l0,0C125.2,137.9,114.8,137.9,108.5,131.6z"/>
	
		<rect x="110.7" y="110.7" transform="matrix(0.7071 -0.7071 0.7071 0.7071 -49.7222 120.04)" class="st4" width="18.7" height="18.7"/>
	<g>
		<path class="st3" d="M90.6,123.7H40.1c-2,0-3.6-1.6-3.6-3.6s1.6-3.6,3.6-3.6h50.5v-10.4l14,14l-14,13.9V123.7z"/>
		<path class="st0" d="M91.1,107.3l12.8,12.8l-12.8,12.7v-8.7v-1h-1h-50c-1.7,0-3.1-1.4-3.1-3.1c0-1.7,1.4-3.1,3.1-3.1h50h1v-1
			V107.3 M90.1,104.9V116h-50c-2.3,0-4.1,1.8-4.1,4.1s1.8,4.1,4.1,4.1h50v11.1l15.2-15.1L90.1,104.9L90.1,104.9z"/>
	</g>
	<g>
		<path class="st3" d="M135.5,120.1l14-14v10.4H200c2,0,3.6,1.6,3.6,3.6s-1.6,3.6-3.6,3.6h-50.5V134L135.5,120.1z"/>
		<path class="st0" d="M149,107.3v8.7v1h1h50c1.7,0,3.1,1.4,3.1,3.1c0,1.7-1.4,3.1-3.1,3.1h-50h-1v1v8.7l-12.8-12.7L149,107.3
			 M150,104.9l-15.2,15.2l15.2,15.1v-11.1h50c2.3,0,4.1-1.8,4.1-4.1s-1.8-4.1-4.1-4.1h-50V104.9L150,104.9z"/>
	</g>
</g>
<g>
</g>
<g>
</g>
<g>
</g>
<g>
</g>
<g>
</g>
<g>
</g>
</svg>
