<?xml version="1.0" encoding="utf-8"?>
<!-- Generator: Adobe Illustrator 21.1.0, SVG Export Plug-In . SVG Version: 6.00 Build 0)  -->
<svg version="1.1" id="Layer_1" xmlns="http://www.w3.org/2000/svg" xmlns:xlink="http://www.w3.org/1999/xlink" x="0px" y="0px"
	 viewBox="0 0 71.5 108.2" style="enable-background:new 0 0 71.5 108.2;" xml:space="preserve">
<style type="text/css">
	.st0{fill:none;stroke:#1E305E;stroke-width:1.5;stroke-miterlimit:10;}
	.st1{fill:none;stroke:#B78D5A;stroke-width:1.5;stroke-miterlimit:10;}
</style>
<g>
	<g>
		<path class="st0" d="M29,9.9c0,0.1,0,0.2,0,0.3"/>
		<path class="st0" d="M38.1,0.8c-5,0-9.1,4.3-9.1,9.3h-9.4v10.9h36V10.1"/>
		<polyline class="st0" points="38.9,107.4 0.8,107.4 0.8,17.1 19.2,17.1 		"/>
		<path class="st0" d="M42.2,10.1c0,0,0-0.1,0-0.1c0-2.3-1.9-4.2-4.2-4.2c-2.3,0-4.2,1.9-4.2,4.2"/>
	</g>
	<g>
		<polyline class="st1" points="20.2,48.4 55.9,48.4 55.9,39.6 		"/>
	</g>
	<g>
		<polyline class="st1" points="20.2,64.9 55.9,64.9 55.9,56.1 		"/>
	</g>
	<g>
		<polyline class="st1" points="20.2,81.4 55.9,81.4 55.9,72.6 		"/>
	</g>
</g>
<g>
</g>
<g>
</g>
<g>
</g>
<g>
</g>
<g>
</g>
<g>
</g>
</svg>
