<?xml version="1.0" encoding="utf-8"?>
<!-- Generator: Adobe Illustrator 21.1.0, SVG Export Plug-In . SVG Version: 6.00 Build 0)  -->
<svg version="1.1" id="Layer_1" xmlns="http://www.w3.org/2000/svg" xmlns:xlink="http://www.w3.org/1999/xlink" x="0px" y="0px"
	 viewBox="0 0 120.8 107.1" style="enable-background:new 0 0 120.8 107.1;" xml:space="preserve">
<style type="text/css">
	.st0{fill:none;stroke:#B78D5A;stroke-width:1.5;stroke-linejoin:bevel;stroke-miterlimit:10;}
	.st1{fill:none;stroke:#B78D5A;stroke-width:1.5;stroke-miterlimit:10;}
	.st2{fill:none;stroke:#1E305E;stroke-width:1.5;stroke-miterlimit:10;}
</style>
<g>
	<polyline class="st0" points="70.4,77.8 60.4,37.3 46.4,93.8 60.4,93.8 	"/>
	<path class="st1" d="M86.6,90"/>
	<g>
		<circle class="st1" cx="60.4" cy="23.4" r="13.9"/>
		<circle class="st1" cx="60.4" cy="23.4" r="11"/>
	</g>
	<polyline class="st1" points="59.9,93.8 33.5,93.8 33.5,103.2 87.1,103.2 87.1,93.8 	"/>
	<line class="st2" x1="33.5" y1="106.3" x2="87.1" y2="106.3"/>
	<line class="st1" x1="87" y1="94" x2="78.6" y2="94"/>
	<g>
		<g>
			<polyline class="st2" points="30.4,40.5 23.2,23.4 9.2,56.8 			"/>
			<path class="st1" d="M23.1,56.8H0.8c0,12.4,10.1,22.5,22.5,22.5c12.4,0,22.5-10.1,22.5-22.5h-8.4"/>
		</g>
		<line class="st1" x1="46.6" y1="23.2" x2="0.4" y2="23.2"/>
		<path class="st2" d="M24,75.6c9.2,0,16.8-6.8,18.3-15.7h-8.6"/>
		<path class="st1" d="M23.2,75.6"/>
		<path class="st1" d="M32.9,59.9"/>
		<line class="st1" x1="23.2" y1="13.8" x2="23.2" y2="23.2"/>
	</g>
	<g>
		<g>
			<polyline class="st2" points="90.4,40.5 97.6,23.4 111.6,56.8 			"/>
			<path class="st1" d="M97.7,56.8H120c0,12.4-10.1,22.5-22.5,22.5c-12.4,0-22.5-10.1-22.5-22.5h8.4"/>
		</g>
		<line class="st1" x1="74.2" y1="23.2" x2="120.4" y2="23.2"/>
		<path class="st2" d="M96.8,75.6c-9.2,0-16.8-6.8-18.3-15.7h8.6"/>
		<path class="st1" d="M97.6,75.6"/>
		<path class="st1" d="M87.9,59.9"/>
		<line class="st1" x1="97.6" y1="13.8" x2="97.6" y2="23.2"/>
	</g>
	<line class="st1" x1="60.4" y1="0" x2="60.4" y2="9.4"/>
</g>
<g>
</g>
<g>
</g>
<g>
</g>
<g>
</g>
<g>
</g>
<g>
</g>
</svg>
