<?xml version="1.0" encoding="utf-8"?>
<!-- Generator: Adobe Illustrator 21.1.0, SVG Export Plug-In . SVG Version: 6.00 Build 0)  -->
<svg version="1.1" id="Layer_1" xmlns="http://www.w3.org/2000/svg" xmlns:xlink="http://www.w3.org/1999/xlink" x="0px" y="0px"
	 viewBox="0 0 91.9 86.1" style="enable-background:new 0 0 91.9 86.1;" xml:space="preserve">
<style type="text/css">
	.st0{fill:none;stroke:#B78D59;stroke-width:1.5;stroke-miterlimit:10;}
	.st1{fill-rule:evenodd;clip-rule:evenodd;fill:none;stroke:#1E305E;stroke-width:1.5;stroke-miterlimit:10;}
	.st2{fill-rule:evenodd;clip-rule:evenodd;fill:none;stroke:#B78D59;stroke-width:1.5;stroke-miterlimit:10;}
</style>
<g>
	<line class="st0" x1="70.8" y1="24.3" x2="91.5" y2="12.3"/>
	<line class="st0" x1="69.2" y1="40.9" x2="90.2" y2="40.9"/>
	<line class="st0" x1="70.4" y1="57.3" x2="78.2" y2="61.8"/>
	<path class="st1" d="M57.1,33.6l0-22l-9.6,0c0,0-12.6,3.9-12.8,36.9c0.2,33,12.8,36.9,12.8,36.9l9.6,0l0-22l-8.7,0l0-14.9"/>
	<line class="st2" x1="53.1" y1="30.8" x2="53.1" y2="15.9"/>
	<line class="st2" x1="53.1" y1="81.6" x2="53.1" y2="66.7"/>
	<path class="st2" d="M41.4,5.8l-9.6,0c0,0-12.6,3.9-12.8,36.9"/>
	<path class="st2" d="M23.1,0.7l-9.6,0c0,0-12.6,3.9-12.8,36.9"/>
</g>
<g>
</g>
<g>
</g>
<g>
</g>
<g>
</g>
<g>
</g>
<g>
</g>
</svg>
