<?xml version="1.0" encoding="utf-8"?>
<!-- Generator: Adobe Illustrator 21.1.0, SVG Export Plug-In . SVG Version: 6.00 Build 0)  -->
<svg version="1.1" id="Layer_1" xmlns="http://www.w3.org/2000/svg" xmlns:xlink="http://www.w3.org/1999/xlink" x="0px" y="0px"
	 viewBox="0 0 89.6 117.1" style="enable-background:new 0 0 89.6 117.1;" xml:space="preserve">
<style type="text/css">
	.st0{fill:none;stroke:#1E315E;stroke-width:1.5;stroke-miterlimit:10;}
	.st1{fill:none;stroke:#B78D5A;stroke-width:1.5;stroke-miterlimit:10;}
</style>
<g>
	<polyline class="st0" points="72.9,70.6 88.9,74.6 88.9,101.7 	"/>
	<g>
		<g>
			<path class="st0" d="M16.6,20.4c-2.1,11.1,1.5,29.5,6.1,37.1h20.6"/>
			<polyline class="st1" points="56.5,66.4 73.4,70.6 73.2,105.3 			"/>
			<line class="st0" x1="9.6" y1="20.4" x2="44.2" y2="20.4"/>
			<polyline class="st0" points="49.9,76.8 63.9,7.9 11.9,0.7 			"/>
			<path class="st0" d="M44.9,33c2.9-2.6,8.3-1.7,8.3,3.3c0,3.9-4.1,7.1-7.3,7.9"/>
			<g>
				<polyline class="st1" points="33.3,93.6 21,88.1 23.4,66.6 36.7,64.4 				"/>
				<line class="st1" x1="34.2" y1="89.6" x2="32.6" y2="97.6"/>
			</g>
			<g>
				<polyline class="st1" points="46.1,96.3 59.4,95.9 63.6,76.3 				"/>
				<line class="st1" x1="46.7" y1="92.2" x2="45.1" y2="100.3"/>
			</g>
			<circle class="st1" cx="72.8" cy="110.9" r="5.4"/>
		</g>
		<polyline class="st0" points="18.2,66.6 0.8,71.4 1,81.6 		"/>
	</g>
</g>
<g>
</g>
<g>
</g>
<g>
</g>
<g>
</g>
<g>
</g>
<g>
</g>
</svg>
