<?xml version="1.0" encoding="utf-8"?>
<!-- Generator: Adobe Illustrator 21.1.0, SVG Export Plug-In . SVG Version: 6.00 Build 0)  -->
<svg version="1.1" id="Layer_1" xmlns="http://www.w3.org/2000/svg" xmlns:xlink="http://www.w3.org/1999/xlink" x="0px" y="0px"
	 viewBox="0 0 111.9 98.3" style="enable-background:new 0 0 111.9 98.3;" xml:space="preserve">
<style type="text/css">
	.st0{fill:none;stroke:#B78D5A;stroke-width:1.5;stroke-miterlimit:10;}
	.st1{display:none;fill:none;stroke:#B78D5A;stroke-width:1.5;stroke-miterlimit:10;}
	.st2{fill:#FFFFFF;stroke:#1E315E;stroke-width:1.5;stroke-miterlimit:10;}
	.st3{fill:#FFFFFF;stroke:#B78D5A;stroke-width:1.5;stroke-miterlimit:10;}
</style>
<g>
	<polyline class="st0" points="96.6,18.2 110.8,32.5 86.1,57.2 	"/>
	<path class="st1" d="M65.7,95.5"/>
	<path class="st0" d="M80.6,51.9"/>
	<g>
		<g>
			<g>
				<path class="st2" d="M61.8,86.4c2.5,2.5,2.5,6.5,0,8.9c-2.5,2.5-6.5,2.5-8.9,0"/>
				<path class="st2" d="M52.8,95.4"/>
				<path class="st2" d="M64.8,71.6l5.9,5.9c2.5,2.5,2.5,6.5,0,8.9s-6.5,2.5-8.9,0l-5.9-5.9"/>
				<path class="st2" d="M10.8,19.8L29.6,1.1l58,57.6l1,1c2.5,2.5,2.5,6.5,0,8.9s-6.5,2.5-8.9,0"/>
				<line class="st2" x1="52.9" y1="95.5" x2="0.5" y2="43.5"/>
				<path class="st2" d="M73.7,62.6l5.9,5.9c2.5,2.5,2.5,6.5,0,8.9s-6.5,2.5-8.9,0l-5.9-5.9"/>
			</g>
		</g>
	</g>
	<path class="st3" d="M83.2,36.4c-8,5.3-13.4,6.3-20.2,2.5c-3.2-1.8-7.8-4.3-12.4-3.1c-4.1,1.1-10.2,5.9-13.1,7.5
		c-2.9,1.6-6.8,2.1-8.4,0.9C26.5,42.1,26.6,37,33,31c5.4-5,13.1-8.8,21.5-11.6c8.1-2.7,20.4-10.9,25.6-17.4"/>
	<g>
		<path class="st3" d="M11.9,60c2.5-2.5,6.5-2.5,8.9,0s2.5,6.5,0,8.9s-6.5,2.5-8.9,0S9.4,62.5,11.9,60"/>
		<path class="st3" d="M26.7,63c2.5-2.5,6.5-2.5,8.9,0s2.5,6.5,0,8.9l-5.9,5.9c-2.5,2.5-6.5,2.5-8.9,0s-2.5-6.5,0-8.9L26.7,63z"/>
		<ellipse transform="matrix(0.7071 -0.7071 0.7071 0.7071 -51.9064 57.2398)" class="st3" cx="43.1" cy="91.3" rx="6.3" ry="6.3"/>
		<path class="st3" d="M35.7,71.9c2.5-2.5,6.5-2.5,8.9,0s2.5,6.5,0,8.9l-5.9,5.9c-2.5,2.5-6.5,2.5-8.9,0s-2.5-6.5,0-8.9L35.7,71.9z"
			/>
	</g>
</g>
<g>
</g>
<g>
</g>
<g>
</g>
<g>
</g>
<g>
</g>
<g>
</g>
</svg>
