<?xml version="1.0" encoding="utf-8"?>
<!-- Generator: Adobe Illustrator 21.1.0, SVG Export Plug-In . SVG Version: 6.00 Build 0)  -->
<svg version="1.1" id="Layer_1" xmlns="http://www.w3.org/2000/svg" xmlns:xlink="http://www.w3.org/1999/xlink" x="0px" y="0px"
	 viewBox="0 0 170.1 78" style="enable-background:new 0 0 170.1 78;" xml:space="preserve">
<style type="text/css">
	.st0{clip-path:url(#SVGID_2_);}
	.st1{fill:none;stroke:#B78D59;stroke-width:1.5;stroke-miterlimit:10;}
	.st2{fill:none;stroke:#1E305E;stroke-width:1.5;stroke-miterlimit:10;}
</style>
<g>
	<g>
		<g>
			<g>
				<defs>
					<rect id="SVGID_1_" y="44.7" width="52.6" height="33.4"/>
				</defs>
				<clipPath id="SVGID_2_">
					<use xlink:href="#SVGID_1_"  style="overflow:visible;"/>
				</clipPath>
				<g class="st0">
					<g>
						<path class="st1" d="M46.8,40.5c1.5,3,2.3,6.4,2.3,10C49.1,62.9,39,73,26.6,73S4,62.9,4,50.5c0-3.6,0.8-7,2.3-10l2.3-4.9h35.1
							L46.8,40.5z"/>
					</g>
					<circle class="st1" cx="26.6" cy="50.2" r="13.3"/>
				</g>
			</g>
		</g>
	</g>
	<path class="st2" d="M168.3,38.1l-10.6-10.6H88v0C84.5,12.2,70.8,0.8,54.5,0.8c-19,0-34.4,15.4-34.4,34.4c0,1,0.1,2,0.1,3H36
		c-0.4-0.9-0.6-1.9-0.6-3c0-4.2,3.4-7.6,7.6-7.6c4.2,0,7.6,3.4,7.6,7.6c0,1.1-0.2,2.1-0.6,3H168.3z"/>
	<path class="st1" d="M54.5,74.9c14.9,0,27.7-9.6,32.4-22.9h28.8l9.6,9.6l13.4-13.4l7.6,7.6h11.5l11.5-11.5"/>
</g>
<g>
</g>
<g>
</g>
<g>
</g>
<g>
</g>
<g>
</g>
<g>
</g>
</svg>
