<?xml version="1.0" encoding="utf-8"?>
<!-- Generator: Adobe Illustrator 21.1.0, SVG Export Plug-In . SVG Version: 6.00 Build 0)  -->
<svg version="1.1" id="Layer_1" xmlns="http://www.w3.org/2000/svg" xmlns:xlink="http://www.w3.org/1999/xlink" x="0px" y="0px"
	 viewBox="0 0 240.1 240.1" style="enable-background:new 0 0 240.1 240.1;" xml:space="preserve">
<style type="text/css">
	.st0{fill:none;}
	.st1{fill:#B78D59;}
	.st2{fill:#FFFFFF;}
	.st3{fill:#1E305E;}
	.st4{fill:#FFFFFF;stroke:#1E305E;stroke-miterlimit:10;}
</style>
<g>
	<rect class="st0" width="240.1" height="240.1"/>
	<g>
		<path class="st1" d="M120,54.4c36.2,0,65.6,29.4,65.6,65.6s-29.4,65.6-65.6,65.6S54.4,156.2,54.4,120S83.9,54.4,120,54.4
			 M120,53.4c-36.8,0-66.6,29.8-66.6,66.6s29.8,66.6,66.6,66.6s66.6-29.8,66.6-66.6S156.8,53.4,120,53.4L120,53.4z"/>
	</g>
	<g>
		<rect x="66" y="66.3" class="st2" width="15.8" height="15.8"/>
		<path class="st1" d="M81.3,66.8v14.8H66.5V66.8H81.3 M82.3,65.8H65.5v16.8h16.8V65.8L82.3,65.8z"/>
	</g>
	<g>
		<rect x="66" y="157.9" class="st2" width="15.8" height="15.8"/>
		<path class="st1" d="M81.3,158.4v14.8H66.5v-14.8H81.3 M82.3,157.4H65.5v16.8h16.8V157.4L82.3,157.4z"/>
	</g>
	<g>
		
			<rect x="46.7" y="112.2" transform="matrix(0.7071 -0.7071 0.7071 0.7071 -68.9028 73.7341)" class="st2" width="15.8" height="15.8"/>
		<path class="st1" d="M54.6,109.6L65,120l-10.4,10.4L44.1,120L54.6,109.6 M54.6,108.2L42.7,120l11.9,11.9L66.4,120L54.6,108.2
			L54.6,108.2z"/>
	</g>
	<g>
		<rect x="158.3" y="66.3" class="st2" width="15.8" height="15.8"/>
		<path class="st1" d="M173.6,66.8v14.8h-14.8V66.8H173.6 M174.6,65.8h-16.8v16.8h16.8V65.8L174.6,65.8z"/>
	</g>
	<g>
		<rect x="158.3" y="157.9" class="st2" width="15.8" height="15.8"/>
		<path class="st1" d="M173.6,158.4v14.8h-14.8v-14.8H173.6 M174.6,157.4h-16.8v16.8h16.8V157.4L174.6,157.4z"/>
	</g>
	<g>
		
			<rect x="177.6" y="112.2" transform="matrix(0.7071 -0.7071 0.7071 0.7071 -30.5407 166.3506)" class="st2" width="15.8" height="15.8"/>
		<path class="st1" d="M185.5,109.6L196,120l-10.4,10.4L175.1,120L185.5,109.6 M185.5,108.2L173.7,120l11.9,11.9l11.9-11.9
			L185.5,108.2L185.5,108.2z"/>
	</g>
	<g>
		
			<rect x="112.2" y="177.3" transform="matrix(0.7071 -0.7071 0.7071 0.7071 -95.7701 139.1218)" class="st2" width="15.8" height="15.8"/>
		<path class="st1" d="M120,174.7l10.4,10.4L120,195.6l-10.4-10.4L120,174.7 M120,173.3l-11.9,11.9L120,197l11.9-11.9L120,173.3
			L120,173.3z"/>
	</g>
	
		<rect x="110.8" y="42.8" transform="matrix(0.7071 -0.7071 0.7071 0.7071 -1.62 100.1126)" class="st3" width="18.4" height="18.4"/>
	<line class="st4" x1="120" y1="70.5" x2="120" y2="93.5"/>
	<circle class="st4" cx="120.1" cy="120" r="26.5"/>
	<g>
		<path class="st4" d="M101.6,66.3V38.6c0-10.2,8.3-18.5,18.5-18.5h0.7c9.8,0,17.7,7.9,17.7,17.7v27.8c0,10.2-8.2,18.5-18.4,18.5
			h-0.8C109.5,84,101.6,76.1,101.6,66.3L101.6,66.3z"/>
		
			<rect x="110.9" y="42.8" transform="matrix(0.7071 -0.7071 0.7071 0.7071 -1.6059 100.1282)" class="st3" width="18.4" height="18.4"/>
	</g>
</g>
<g>
</g>
<g>
</g>
<g>
</g>
<g>
</g>
<g>
</g>
<g>
</g>
</svg>
