<svg id="Layer_1" xmlns="http://www.w3.org/2000/svg" viewBox="0 0 112.5 101.8"><style>.st0{fill:#b78d59}.st1{fill:#1e305e}</style><path class="st0" d="M56.2 18.3C33.6 18.3 12.6 29.5 0 48.4c.1.4.1.7.2 1l.1.7.2-.3c12.3-19 33.1-30.3 55.8-30.3S99.7 30.9 112 49.9l.2.3.1-.7c.1-.3.1-.7.2-1.1-12.6-18.9-33.6-30.1-56.3-30.1z"/><path class="st0" d="M76.9 34.4h-1.3v.2c.5 1.7.7 3.5.7 5.3 0 11.1-9 20.1-20.1 20.1s-20.1-9-20.1-20.1c0-1.8.2-3.6.7-5.3v-.2h-1.3v.1c-.5 1.8-.7 3.6-.7 5.4 0 11.8 9.6 21.4 21.4 21.4s21.4-9.6 21.4-21.4c0-1.9-.2-3.7-.7-5.5z"/><path class="st0" d="M45.9 34.4h-1.4v.1c-.7 1.6-1.1 3.4-1.1 5.2 0 7.1 5.8 12.9 12.9 12.9 7.1 0 12.9-5.8 12.9-12.9 0-1.8-.4-3.5-1.1-5.2v-.1h-1.4l.1.2c.8 1.6 1.2 3.3 1.2 5.1 0 6.4-5.2 11.6-11.6 11.6-6.4 0-11.6-5.2-11.6-11.6 0-1.8.4-3.5 1.2-5.1l-.1-.2z"/><path class="st1" d="M27 56.5c4.5 7.8 11.8 13.4 20.5 15.7h.1L48 71h-.1c-8.4-2.2-15.4-7.6-19.7-15.1-9-15.5-3.7-35.4 11.8-44.4 2.5-1.4 5.1-2.5 7.8-3.3h.1L47.6 7h-.1c-2.8.8-5.6 1.9-8.1 3.4-7.8 4.5-13.4 11.8-15.7 20.5S22.6 48.7 27 56.5z"/><path class="st1" d="M86.2 76.5l-1.7 1.3-4.6-6.4c10-7.5 16-19.3 16-31.8C95.9 17.8 78.1 0 56.2 0S16.6 17.8 16.6 39.6s17.8 39.6 39.6 39.6c8.1 0 16-2.5 22.6-7.1l4.6 6.4-1.7 1.2 15.8 22 4.5-3.2-15.8-22zm-30-75.3c21.2 0 38.4 17.2 38.4 38.4S77.4 78 56.2 78 17.9 60.8 17.9 39.6 35.1 1.2 56.2 1.2zM97.8 100L83.5 80l2.5-1.8 14.4 20-2.6 1.8z"/></svg>