<?xml version="1.0" encoding="utf-8"?>
<!-- Generator: Adobe Illustrator 21.1.0, SVG Export Plug-In . SVG Version: 6.00 Build 0)  -->
<svg version="1.1" id="Layer_1" xmlns="http://www.w3.org/2000/svg" xmlns:xlink="http://www.w3.org/1999/xlink" x="0px" y="0px"
	 viewBox="0 0 99.6 120" style="enable-background:new 0 0 99.6 120;" xml:space="preserve">
<style type="text/css">
	.st0{fill:#1E305E;}
	.st1{fill:#B78D59;}
	.st2{fill:none;stroke:#1E305E;stroke-miterlimit:10;}
</style>
<g>
	<rect x="55.8" y="101.5" class="st0" width="18.3" height="1"/>
	<rect x="49.3" class="st1" width="1" height="20"/>
	<rect x="76.9" y="34.1" transform="matrix(0.8661 -0.4999 0.4999 0.8661 -5.3869 49.098)" class="st1" width="24" height="1"/>
	<rect x="77" y="56.7" class="st1" width="21" height="1"/>
	<rect x="2" y="56.7" class="st1" width="21" height="1"/>
	<rect x="10.1" y="22.6" transform="matrix(0.5 -0.866 0.866 0.5 -24.646 26.5179)" class="st1" width="1" height="24"/>
	<path class="st0" d="M53,72.5H36.1L36,72.2c-5.5-8.9-7.1-19.1-5-30.3l1,0.2c-2.1,10.8-0.5,20.7,4.7,29.4H53V72.5z"/>
	<rect x="25" y="41.5" class="st0" width="28" height="1"/>
	<polygon class="st0" points="62.8,79.1 62.7,80.1 88.5,86.5 88.5,108 89.5,108 89.5,85.8 	"/>
	<rect x="13" y="75.4" transform="matrix(0.8661 -0.4999 0.4999 0.8661 -35.5774 18.9047)" class="st1" width="9" height="1"/>
	<rect x="81.6" y="71.4" transform="matrix(0.5 -0.866 0.866 0.5 -24.646 109.0177)" class="st1" width="1" height="9"/>
	<polygon class="st0" points="27,26 27,27 67.4,32.6 58.4,84 59.4,84 68.6,31.7 	"/>
	<path class="st2" d="M33.7,65.1"/>
	<path class="st0" d="M58.6,50.9c-1-0.4-2.2-0.4-3.3,0.1v1.1c0.9-0.6,2-0.7,2.9-0.3c1,0.5,1.6,1.6,1.6,3.1c0,2.8-2.2,5.1-4.5,5.8
		v1.1c2.7-0.7,5.5-3.4,5.5-6.8C60.7,52.9,59.9,51.5,58.6,50.9z"/>
	<polygon class="st0" points="16.5,85.8 16.5,108 17.5,108 17.5,86.5 38.4,81.3 35.3,98.8 51.7,120 53,120 36.3,98.6 39.6,80 	"/>
</g>
<g>
</g>
<g>
</g>
<g>
</g>
<g>
</g>
<g>
</g>
<g>
</g>
</svg>
