<?xml version="1.0" encoding="utf-8"?>
<!-- Generator: Adobe Illustrator 21.1.0, SVG Export Plug-In . SVG Version: 6.00 Build 0)  -->
<svg version="1.1" id="Layer_1" xmlns="http://www.w3.org/2000/svg" xmlns:xlink="http://www.w3.org/1999/xlink" x="0px" y="0px"
	 viewBox="0 0 112.2 101.5" style="enable-background:new 0 0 112.2 101.5;" xml:space="preserve">
<style type="text/css">
	.st0{fill:#B78D59;}
	.st1{fill:#1E305E;}
</style>
<g>
	<path class="st0" d="M56.1,18.3c-22.7,0-43.5,11.2-56.1,30c0.1,0.5,0.2,1,0.3,1.4c12.3-19,33.2-30.4,55.9-30.4S99.6,30.7,112,49.7
		c0.1-0.5,0.2-1,0.3-1.4C99.6,29.5,78.8,18.3,56.1,18.3z"/>
	<g>
		<path class="st0" d="M76.4,39.7c0,11.2-9.1,20.3-20.3,20.3c-11.2,0-20.3-9.1-20.3-20.3c0-1.8,0.2-3.6,0.7-5.4h-1
			c-0.5,1.7-0.7,3.5-0.7,5.4c0,11.7,9.5,21.3,21.3,21.3s21.3-9.5,21.3-21.3c0-1.8-0.2-3.6-0.7-5.4h-1C76.1,36.1,76.4,37.9,76.4,39.7
			z"/>
		<path class="st0" d="M67.9,39.5c0,6.5-5.3,11.8-11.8,11.8c-6.5,0-11.8-5.3-11.8-11.8c0-1.8,0.4-3.6,1.2-5.1h-1.1
			c-0.7,1.6-1.1,3.3-1.1,5.1c0,7,5.7,12.8,12.8,12.8s12.8-5.7,12.8-12.8c0-1.8-0.4-3.6-1.1-5.1h-1.1C67.4,35.9,67.9,37.7,67.9,39.5z
			"/>
	</g>
	<g>
		<path class="st1" d="M27.9,55.8c-9-15.6-3.6-35.5,11.9-44.5c2.5-1.4,5.1-2.5,7.9-3.3l-0.3-1c-2.8,0.8-5.5,1.9-8.1,3.4
			c-16,9.3-21.6,29.8-12.3,45.9c4.5,7.8,11.7,13.3,20.4,15.6l0.3-1C39.3,68.7,32.2,63.3,27.9,55.8z"/>
		<path class="st1" d="M86,76.5l-1.7,1.3l-4.7-6.6c9.7-7.2,16-18.7,16-31.7C95.6,17.7,77.9,0,56.1,0C34.3,0,16.6,17.7,16.6,39.5
			S34.3,79,56.1,79c8.4,0,16.2-2.7,22.7-7.2l4.7,6.6l-1.7,1.2l15.7,21.8l4.3-3.1L86,76.5z M17.6,39.5C17.6,18.3,34.9,1,56.1,1
			s38.5,17.3,38.5,38.5S77.3,78,56.1,78S17.6,60.7,17.6,39.5z M83.2,79.9l2.7-1.9l14.5,20.2l-2.7,1.9L83.2,79.9z"/>
	</g>
</g>
<g>
</g>
<g>
</g>
<g>
</g>
<g>
</g>
<g>
</g>
<g>
</g>
</svg>
