<svg id="Layer_1" xmlns="http://www.w3.org/2000/svg" viewBox="0 0 99.9 120.2"><style>.st0{fill:#b78d59}.st1{fill:#1e305e}</style><path class="st0" d="M49.3 0h1.2v20.2h-1.2z"/><path class="st0" d="M49.5.1h1v20h-1z"/><path transform="rotate(-30 89.11 34.732)" class="st0" d="M77 34.1h24.2v1.2H77z"/><path transform="rotate(-29.991 89.118 34.726)" class="st0" d="M77.1 34.2h24v1h-24z"/><path class="st0" d="M77 56.7h21.2v1.2H77z"/><path class="st0" d="M77.2 56.8h21v1h-21z"/><path class="st0" d="M2 56.7h21.2v1.2H2z"/><path class="st0" d="M2.2 56.8h21v1h-21z"/><path transform="rotate(-60 10.813 34.729)" class="st0" d="M10.2 22.6h1.2v24.2h-1.2z"/><path transform="rotate(-60 10.813 34.729)" class="st0" d="M10.3 22.7h1v24h-1z"/><path transform="rotate(-30 17.661 75.978)" class="st0" d="M13 75.4h9.3v1.2H13z"/><path transform="rotate(-29.991 17.67 75.981)" class="st0" d="M13.2 75.5h9v1h-9z"/><path transform="rotate(-60 82.26 75.98)" class="st0" d="M81.6 71.4h1.2v9.3h-1.2z"/><path transform="rotate(-60 82.26 75.98)" class="st0" d="M81.8 71.5h1v9h-1z"/><path class="st1" d="M55.8 101.5h18.6v1.2H55.8z"/><path class="st1" d="M36 72.4l.2.3h17.1v-1.2H36.9c-5.1-8.5-6.7-18.1-4.8-28.7h21.2v-1.2H25v1.2h5.8c-1.9 10.9-.1 20.9 5.2 29.6z"/><path class="st1" d="M62.9 79.1l-.2 1.2 25.8 6.5v21.4h1.3V85.8z"/><path class="st1" d="M58.4 84.2h1.3l9.2-52.5L27 25.9v1.3l40.4 5.6z"/><path class="st1" d="M61 55c0-2-.8-3.5-2.2-4.1-.5-.2-1-.3-1.5-.3-.6 0-1.3.1-1.9.4h-.1v1.4l.2-.1c.6-.3 1.2-.5 1.8-.5.4 0 .7.1 1 .2 1 .4 1.5 1.5 1.5 3 0 2.8-2.2 5-4.4 5.7h-.1V62h.2c2.7-.8 5.5-3.5 5.5-7z"/><path class="st1" d="M40 79.9l-23.5 5.9v22.4h1.3V86.8l20.6-5.2L35.3 99l16.5 21.2h1.6L36.6 98.6z"/></svg>