<?xml version="1.0" encoding="utf-8"?>
<!-- Generator: Adobe Illustrator 21.1.0, SVG Export Plug-In . SVG Version: 6.00 Build 0)  -->
<svg version="1.1" id="Layer_1" xmlns="http://www.w3.org/2000/svg" xmlns:xlink="http://www.w3.org/1999/xlink" x="0px" y="0px"
	 viewBox="0 0 109 117.1" style="enable-background:new 0 0 109 117.1;" xml:space="preserve">
<style type="text/css">
	.st0{fill:#B78D59;}
	.st1{fill:none;stroke:#FFFFFF;stroke-width:6;stroke-miterlimit:10;}
	.st2{fill:none;stroke:#B78D59;stroke-miterlimit:10;}
	.st3{fill:#1E305E;}
	.st4{fill:none;stroke:#1E305E;stroke-miterlimit:10;}
</style>
<g>
	<polygon class="st0" points="82.3,76.2 82.2,77.2 108,83.7 108,105.1 109,105.1 109,82.9 	"/>
	<path class="st0" d="M77.9,48c-1-0.4-2.2-0.4-3.3,0.1v1.1c0.9-0.6,2-0.7,2.9-0.3c1,0.5,1.6,1.6,1.6,3.1c0,2.8-2.2,5.1-4.5,5.8v1.1
		c2.7-0.7,5.5-3.4,5.5-6.8C80.1,50.1,79.3,48.6,77.9,48z"/>
	<path class="st0" d="M78.6,77.2l1,0.2L88.1,29l-0.3-0.2c-6.9-3.4-13.8-5.4-21.3-6v1c7.2,0.6,13.9,2.5,20.5,5.8L78.6,77.2z"/>
	<path class="st1" d="M35.2,62.2"/>
	<path class="st2" d="M35.2,62.2"/>
	<path class="st0" d="M59.8,48c-1-0.4-2.2-0.4-3.3,0.1v1.1c0.9-0.6,2-0.7,2.9-0.3c1,0.5,1.6,1.6,1.6,3.1c0,2.8-2.2,5.1-4.5,5.8v1.1
		c2.7-0.7,5.5-3.4,5.5-6.8C62,50.1,61.2,48.6,59.8,48z"/>
	<path class="st3" d="M24.7,13l-6.5-6.5L24.7,0l6.5,6.5L24.7,13z M19.6,6.5l5.1,5.1l5.1-5.1l-5.1-5.1L19.6,6.5z"/>
	<path class="st0" d="M46.8,10.5l-4-4l4-4l4,4L46.8,10.5z M44.2,6.5l2.6,2.6l2.6-2.6l-2.6-2.6L44.2,6.5z"/>
	<path class="st0" d="M66.5,10.5l-4-4l4-4l4,4L66.5,10.5z M63.9,6.5l2.6,2.6l2.6-2.6l-2.6-2.6L63.9,6.5z"/>
	<polygon class="st0" points="64.3,76.2 64.2,77.2 90,83.7 90,105.1 91,105.1 91,82.9 	"/>
	<path class="st0" d="M60.6,77.2l1,0.2L70.1,29l-0.3-0.2c-8.9-4.6-28.9-8.7-41.2-7.2v1c12-1.5,31.4,2.5,40.4,7L60.6,77.2z"/>
	<path class="st1" d="M17.2,62.2"/>
	<rect x="39.3" y="98.6" class="st3" width="18.3" height="1"/>
	<path class="st3" d="M36.5,39.6v-1h-28v1h5.9c-2,11-0.3,21,5.1,29.7l0.1,0.2h16.9v-1H20.2c-5.1-8.5-6.8-18.3-4.8-29H36.5z"/>
	<polygon class="st3" points="10.5,23.1 10.5,24.1 50.9,29.7 41.9,81.1 42.9,81.1 52.1,28.9 	"/>
	<path class="st4" d="M17.2,62.2"/>
	<path class="st3" d="M42.1,48c-1-0.4-2.2-0.4-3.3,0.1v1.1c0.9-0.6,2-0.7,2.9-0.3c1,0.5,1.6,1.6,1.6,3.1c0,2.8-2.2,5.1-4.5,5.8v1.1
		c2.7-0.7,5.5-3.4,5.5-6.8C44.2,50.1,43.4,48.6,42.1,48z"/>
	<polygon class="st3" points="0,82.9 0,105.1 1,105.1 1,83.7 21.9,78.5 18.8,96 35.2,117.1 36.5,117.1 19.8,95.7 23.1,77.1 	"/>
	<polygon class="st3" points="46.3,76.2 46.2,77.2 72,83.7 72,105.1 73,105.1 73,82.9 	"/>
</g>
<g>
</g>
<g>
</g>
<g>
</g>
<g>
</g>
<g>
</g>
<g>
</g>
</svg>
