<?xml version="1.0" encoding="utf-8"?>
<!-- Generator: Adobe Illustrator 21.1.0, SVG Export Plug-In . SVG Version: 6.00 Build 0)  -->
<svg version="1.1" id="Layer_1" xmlns="http://www.w3.org/2000/svg" xmlns:xlink="http://www.w3.org/1999/xlink" x="0px" y="0px"
	 viewBox="0 0 174.5 22.2" style="enable-background:new 0 0 174.5 22.2;" xml:space="preserve">
<style type="text/css">
	.st0{fill:#86CCA6;}
</style>
<g>
	<path class="st0" d="M20.3,22.2h-1c0-5-4.1-9.1-9.1-9.1c-5,0-9.1,4.1-9.1,9.1H0C0,16.6,4.5,12,10.1,12S20.3,16.6,20.3,22.2z"/>
	<path class="st0" d="M10.1,10.6c-2.9,0-5.3-2.4-5.3-5.3S7.2,0,10.1,0c2.9,0,5.3,2.4,5.3,5.3S13.1,10.6,10.1,10.6z M10.1,1
		C7.8,1,5.8,2.9,5.8,5.3s1.9,4.3,4.3,4.3c2.4,0,4.3-1.9,4.3-4.3S12.5,1,10.1,1z"/>
</g>
<g>
	<path class="st0" d="M58.8,22.2h-1c0-5-4.1-9.1-9.1-9.1c-5,0-9.1,4.1-9.1,9.1h-1c0-5.6,4.5-10.1,10.1-10.1S58.8,16.6,58.8,22.2z"/>
	<path class="st0" d="M48.7,10.6c-2.9,0-5.3-2.4-5.3-5.3S45.8,0,48.7,0C51.6,0,54,2.4,54,5.3S51.6,10.6,48.7,10.6z M48.7,1
		c-2.4,0-4.3,1.9-4.3,4.3s1.9,4.3,4.3,4.3c2.4,0,4.3-1.9,4.3-4.3S51.1,1,48.7,1z"/>
</g>
<g>
	<path class="st0" d="M97.4,22.2h-1c0-5-4.1-9.1-9.1-9.1c-5,0-9.1,4.1-9.1,9.1h-1c0-5.6,4.5-10.1,10.1-10.1
		C92.8,12,97.4,16.6,97.4,22.2z"/>
	<path class="st0" d="M87.2,10.6c-2.9,0-5.3-2.4-5.3-5.3S84.3,0,87.2,0c2.9,0,5.3,2.4,5.3,5.3S90.2,10.6,87.2,10.6z M87.2,1
		c-2.4,0-4.3,1.9-4.3,4.3s1.9,4.3,4.3,4.3s4.3-1.9,4.3-4.3S89.6,1,87.2,1z"/>
</g>
<g>
	<path class="st0" d="M135.9,22.2h-1c0-5-4.1-9.1-9.1-9.1s-9.1,4.1-9.1,9.1h-1c0-5.6,4.5-10.1,10.1-10.1S135.9,16.6,135.9,22.2z"/>
	<path class="st0" d="M125.8,10.6c-2.9,0-5.3-2.4-5.3-5.3s2.4-5.3,5.3-5.3s5.3,2.4,5.3,5.3S128.7,10.6,125.8,10.6z M125.8,1
		c-2.4,0-4.3,1.9-4.3,4.3s1.9,4.3,4.3,4.3s4.3-1.9,4.3-4.3S128.2,1,125.8,1z"/>
</g>
<g>
	<path class="st0" d="M174.5,22.2h-1c0-5-4.1-9.1-9.1-9.1s-9.1,4.1-9.1,9.1h-1c0-5.6,4.5-10.1,10.1-10.1S174.5,16.6,174.5,22.2z"/>
	<path class="st0" d="M164.4,10.6c-2.9,0-5.3-2.4-5.3-5.3s2.4-5.3,5.3-5.3s5.3,2.4,5.3,5.3S167.3,10.6,164.4,10.6z M164.4,1
		C162,1,160,2.9,160,5.3s1.9,4.3,4.3,4.3s4.3-1.9,4.3-4.3S166.7,1,164.4,1z"/>
</g>
<g>
</g>
<g>
</g>
<g>
</g>
<g>
</g>
<g>
</g>
<g>
</g>
</svg>
