<svg version="1.1" id="Layer_1" xmlns="http://www.w3.org/2000/svg" x="0" y="0" viewBox="0 0 240 52.8" xml:space="preserve"><style>.st0{fill:#1e305e}</style><path class="st0" d="M0 8.2h10.1v36.2H20v7.9H0V8.2m23.7 18c0-4.6 3-5.5 9.9-5.5 8.1 0 11.5 1.2 11.5 8.8v22.8h-8.7v-2.6h-.1c-2 2.6-3.1 3.1-6.5 3.1-6.2 0-7.5-3.7-7.5-10.1 0-7.6 2.9-9.5 7.8-9.5 2.2 0 4.3.6 6 2v-6.9c0-1-.8-1.5-2.3-1.5-1.3 0-2.2.4-2.2 1.6v1.7h-7.9v-3.9m8.1 17.2c.1 2 .5 2.6 2.2 2.6 1.9 0 2.2-1 2.2-2.3v-2.5c0-1.6-.4-2.3-2.2-2.3-1.5 0-2.2.5-2.2 2.6v1.9zm14.5-22.2h8.5l2.8 25.4h.1l2.8-25.4h12.8l2.8 25.4h.1l2.9-25.4h8.4l-4.6 31.1H69.5L67 27.7h-.2l-2.5 24.6H50.9l-4.6-31.1"/><path class="st0" d="M90.6 16.1h-7.1V8.2h24.3v7.9h-7.1v36.2H90.6V16.1"/><path class="st0" d="M103.8 21.2h8.7v3.1h.1c1.2-2.9 2.7-3.6 6.2-3.6 3.2 0 5.2.8 5.3 4.6v8.4h-7.6v-4.6c0-1-.9-1.2-1.8-1.2-1 0-1.8.4-1.8 1.6v22.8h-9V21.2m23.1-13h9v7.2h-9V8.2m0 13h9v31.1h-9V21.2zm12.2-13h9V24h.1c1.5-2.1 3.4-3.2 6.7-3.2 3.8 0 6.8 1.5 6.8 6.3v17.3c0 6.3-1.8 8.5-7.4 8.5-3.1 0-4.7-.5-6.5-3.7h-.1v3.2h-8.6V8.2m9 35.7c0 1.2.7 1.7 2.1 1.7 1.3 0 2.1-.5 2.1-1.7V29.6c0-1.2-.7-1.7-2.1-1.7-1.3 0-2.1.6-2.1 1.7v14.3zm16.7-22.7h9v22.3c0 1.3.6 2.1 2.3 2.1 1.6 0 2.2-.8 2.2-2.1V21.2h9v31.1h-9v-3.4h-.1c-1.3 2.7-3.4 3.9-6.3 3.9-4 0-7.1-1.8-7.1-7.1V21.2m25.7 0h9v3.4h.1c1.3-2.7 3.4-3.9 6.3-3.9 4 0 7.1 1.8 7.1 7.1v24.5h-9V30.1c0-1.3-.6-2.1-2.3-2.1-1.6 0-2.2.8-2.2 2.1v22.3h-9V21.2m25.6 9.4c0-8.4 4.1-9.9 11.9-9.9 9.9 0 11.9 3.7 11.9 8.6V39h-14.4v5.2c0 1.6.4 2.1 2.7 2.1 1.8 0 2.6-.4 2.6-2.2v-1.5h9.2v1.8c0 6.5-2.7 8.4-11.9 8.4-7.7 0-11.9-1.5-11.9-9.9V30.6m9.3 2.6h5v-4.6c0-1.3-.4-1.8-2.5-1.8s-2.5.5-2.5 1.8v4.6zM19 6.4V5.3c0-1.5-.3-2.2-.7-2.2-.7 0-.9.7-.9 1.8v8.5c0 1 .2 1.5.8 1.5.8 0 .8-1.4.8-2.5v-1.6h2.3v2.1c0 2.9-.9 5-3.3 5-2.1 0-2.9-2-2.9-5.5v-7c0-3.7 1-5.5 3-5.5 1.9 0 3.1 1.5 3.1 5v1.4H19zm3.3 2.4c0-3.3 1.1-4.4 2.7-4.4 1.8 0 2.7 1.5 2.7 4.4V14c-.1 2.9-1.1 4-2.7 4-1.5 0-2.7-1-2.7-4V8.8zm2.1 5.4c0 .7.2 1.1.6 1.1.4 0 .6-.4.6-1.1V8.5c0-.8-.1-1.5-.6-1.5s-.6.7-.6 1.5v5.7zm6.3-9.5v1.6c.2-1 .8-2 1.4-2 1 0 1.8.9 1.8 2.7v10.5h-2V8.4c0-.6-.2-1.1-.5-1-.4 0-.6.4-.6 1v9.1h-2V4.7h1.9zm6.4 0v1.6c.2-1 .8-2 1.4-2 1 0 1.8.9 1.8 2.7v10.5h-2V8.4c0-.6-.2-1.1-.5-1-.4 0-.6.4-.6 1v9.1h-2V4.7h1.9zm6.5 7V14c0 .7.2 1.3.6 1.3.8.1.7-1.1.7-2.2h2c.1 3.3-.9 4.8-2.7 4.8-1.5 0-2.7-1-2.7-4V8.8c0-3.3 1.2-4.4 2.7-4.4 1.4 0 2.7.9 2.7 3.7v3.7h-3.3zM45 9.3V8.1c0-.5-.2-1.3-.7-1.3-.6 0-.7.8-.7 1.7v.8H45zm6.4.2v-.2c0-.5 0-1-.1-1.5S51 7 50.7 7c-.5 0-.6.7-.6 1.6v5.3c0 .8.1 1.5.7 1.5.8 0 .6-2 .6-3h2c0 .8-.1 2.4-.2 3-.3 1.6-1 2.3-1.9 2.5-.2 0-.4.1-.7.1-1.5 0-2.5-1-2.5-4V8.8c0-3.3.9-4.4 2.5-4.4 2 0 2.8 1.6 2.7 5.1h-1.9zM54 7.4V4.7h.8V1.1h2v3.7h1v2.6h-1v6.7c0 .7.2.9.4.9.2-.1.3 0 .5 0v2.6c-.4.1-.9.2-1.3.2-1.1 0-1.7-1-1.7-2.9V7.4H54zm4.9-3.9V.4h2v3.1h-2zm0 14V4.7h2v12.8h-2zm6.7-8v-.2c0-.5 0-1-.1-1.5S65.3 7 65 7c-.5 0-.6.7-.6 1.6v5.3c0 .8.1 1.5.7 1.5.8 0 .6-2 .6-3h2c0 .8-.1 2.4-.2 3-.3 1.6-1 2.3-1.9 2.5-.2 0-.4.1-.7.1-1.5 0-2.5-1-2.5-4V8.8c0-3.3.9-4.4 2.5-4.4 2 0 2.8 1.6 2.7 5.1h-2zm6.3 8V16c-.2 1-.8 2-1.4 2-1.2 0-1.8-1-1.8-2.7V4.7h2v9.2c0 .6.1 1.1.5 1.1s.6-.4.6-1.1V4.7h2v12.8h-1.9zm2.8-10.1V4.7h.8V1.1h2v3.7h1v2.6h-1v6.7c0 .7.2.9.4.9.2-.1.3 0 .5 0v2.6c-.4.1-.9.2-1.3.2-1.1 0-1.7-1-1.7-2.9V7.4h-.7z"/></svg>