<svg xmlns="http://www.w3.org/2000/svg" viewBox="0 0 240 51.7"><path d="M239.8 38.2c-.2 0-.3.2-.4.5-.1.4-.4 1-.8 1.5-.8 1-2.8 1.1-4.6 1.1-2.7 0-3.1-.2-3.7-.8-.6-.6-.8-2.4-.8-7.6v-6.3c0-5.5 0-6.5.1-7.6.1-1.2.4-1.8 1.4-2 .4-.1.9-.1 1.2-.1.1 0 .3-.1.3-.2 0-.2-.2-.3-.6-.3-1.1 0-4.2.1-4.3.1-.2 0-2.9-.1-4.5-.1-.4 0-.6.1-.6.3 0 .1.1.2.3.2.3 0 .9 0 1.2.1 1.2.2 1.4.8 1.5 2 .1 1.1.1 2.1.1 7.6v6.2c0 3.4 0 5.7-.2 7.2-.1 1-.4 1.5-1.1 1.9-.6.3-2.1.3-2.7.1-.7-.2-1.7-.4-2.9-3.6-2.1-5.4-7.8-19.9-8.4-21.2-.4-1.1-.6-1.3-.8-1.3-.2 0-.4.2-.8 1.4l-8.8 21.9c-.7 1.7-1.3 3.1-3 3.3-.3 0-.8.1-1 .1-.2 0-.3.1-.3.2 0 .2.2.3.7.3 1.7 0 3.6-.1 4-.1.4 0 3.1.1 3.9.1.3 0 .5-.1.5-.3 0-.1-.1-.2-.4-.2h-.3c-.6 0-1.7-.4-1.8-1.2-.1-.6 0-1.2.5-2.3l1.7-4.9c.1-.2.2-.3.4-.3h7.7c.2 0 .2.1.3.2l2.3 6.3c.2.6.2 1.3-.4 1.7-.7.4-2 .5-2.1.5-.1 0-.3.1-.3.3 0 .2.2.2.9.2.9 0 3.6-.1 4.8-.1 1.9 0 5 .1 5 .1 1.1 0 3.8-.1 5-.1 2 0 4.4.1 9.4.1 1.9 0 1.9-.1 2.2-.9.3-1 .5-3 .5-3.3-.1-.4-.1-.7-.3-.7M211.7 32h-6.3c-.2 0-.2-.1-.1-.3l3.1-8.2c.2-.5.4-.5.5 0l2.9 8.2c.1.2.1.3-.1.3M89.4 16.5c-1.1 0-4.4.1-4.6.1-.2 0-2.6-.1-4.2-.1-.4 0-.6.1-.6.3 0 .1.1.2.3.2.3 0 .9 0 1.2.1 1.2.2 1.5.7 1.6 1.9.1 1.1.1 2.9.1 8.4v9.4c0 9.1-1.1 10.6-3.5 13.2-.3.3-.8.7-1.2 1-.3.2-.5.3-.5.5 0 .1.1.2.2.2s.2 0 .2-.1c.4-.2.9-.6 1.4-.9 2.9-2 5.5-4.4 6.3-6.1.9-1.9.9-4 1-9.4v-7.7c0-5.5 0-7.2.1-8.4.1-1.4.4-1.8 1.6-2 .4-.1.6-.1.9-.1.1 0 .3-.1.3-.2-.1-.2-.2-.3-.6-.3m15.4-.5c-9.7 0-13.9 8.3-13.9 14 0 6.3 4 13.6 13.7 13.6 8.5 0 14.1-5.9 14.1-14.1-.1-8.2-6-13.5-13.9-13.5m.7 25.6c-6.2.4-10.3-4.6-10.3-12.8 0-7.3 3.7-10.8 9.3-11 5.6-.2 9.6 4.2 9.7 12.1.2 10.1-5.5 11.6-8.7 11.7m40.1-25.1c-1.1 0-3 .1-3.3.1-.2 0-2.1-.1-3.7-.1-.4 0-.6.1-.6.3 0 .1.1.2.3.2.3 0 .9 0 1.2.1 1.2.2 1.4.8 1.5 2 .1 1.1.1 2.1.1 7.6v4.4c0 3.6 0 6.5-1.5 8.3-1.4 1.7-3.5 2.1-5.8 2.1-2 0-3.7-.1-5.4-1.7-1.5-1.4-1.8-3.3-1.8-8.4v-4.9c0-5.5 0-6.4.1-7.5.1-1.2.5-1.8 1.4-2 .4-.1.8-.1 1-.1.1 0 .3-.1.3-.2 0-.2-.2-.3-.6-.3-1.1 0-4.5.1-4.8.1-.3 0-2.5-.1-4.1-.1-.4 0-.6.1-.6.3 0 .1.1.2.3.2.3 0 .9 0 1.2.1 1.2.2 1.4.8 1.5 2 .1 1.1 0 1.8 0 7.3v6.5c0 4.7 1 6.8 2.7 8.5 2.5 2.4 6.5 2.3 8.3 2.3 3.5 0 6-.7 7.8-2.6 2.1-2.2 2.4-5.2 2.4-10.6v-3.8c0-5.5 0-6.5.1-7.6.1-1.2.4-1.8 1.3-2 .4-.1.6-.1.9-.1.1 0 .3-.1.3-.2.1-.1-.1-.2-.5-.2m52 .5c.2 0 .4-.1.4-.2 0-.2-.2-.2-.6-.2-1.4 0-2.9.1-3.7.1-.8 0-2.5-.1-4.1-.1-.4 0-.7 0-.7.2 0 .1 0 .2.3.2s1.1 0 1.7.2c1.1.3 1.3 1.1 1.4 3.3l.1 14.6v.6c-.1-.1-.3-.4-.4-.5-1.2-1.3-3.8-3.8-7.4-7.5-5.5-5.8-9.3-10.1-9.9-10.6-.4-.4-.9-1.1-1.2-1.1-.3 0-.4.3-.4 1.6v20.3c0 3.2-.4 4.2-1.2 4.3-1 .1-1.9-.4-3.5-2.3-2-2.3-6.7-10.8-6.7-10.8 3.8-2.2 4.8-3.9 4.8-6.5 0-2.4-1.6-4.2-2.4-4.8-1.9-1.3-4.6-1.4-6.8-1.4-1.1 0-4.9.1-5.3.1-.2 0-2.4-.1-4-.1-.4 0-.6.1-.6.3 0 .1.1.2.3.2.3 0 .9 0 1.2.1 1.2.2 1.4.8 1.5 2 .1 1.1.1 2.1.1 7.6v6.2c0 3.4 0 6.2-.2 7.6-.1 1-.4 1.6-.9 1.9-.3.1-1.4.2-1.7.2-.2 0-.4.1-.4.2 0 .2.2.3.6.3.6 0 4-.1 4.5-.1s3 .1 4.9.1c.4 0 .6-.1.6-.3 0-.1-.1-.2-.3-.2-.3 0-1.1-.1-1.6-.1-1-.1-1.3-.9-1.4-1.9-.2-1.5-.2-5.4-.2-8.7v-1c0-.2.1-.3.2-.3h2.8c.2 0 .4.1.5.3.7.9 2 3.7 3.4 6.2 1.9 3.3 3 4.6 4.5 5.4 1.6.9 3.9.7 5.9.7 0 0 2-.1 2.7-.1.9 0 2.6.1 4 .1.4 0 .6-.1.6-.3 0-.1-.1-.2-.3-.2-.3 0-1.1 0-1.8-.2-1-.3-1.3-1.2-1.4-4.1l-.3-14.1-.1-.4c0 .1.2.3.3.4 1.3 1.4 4.3 4.5 8.2 8.7 3.8 4.1 7.3 7.6 8.1 8.3 1.9 1.9 2.3 2.3 2.6 2.3.3 0 .3-.2.3-2.5l.1-20.6c0-2.1.1-2.9 1.3-3.1.7-.3 1.5-.3 1.6-.3m-36.9 11.2c-.8.6-2 .8-2.8.8-1.8 0-2.7 0-3.1-.3-.2-.1-.3-.3-.3-.5v-9.6c0-.2.1-.4.3-.4.4-.1 1.3-.2 2.4-.2 3.4 0 5.1 2.4 5.2 6 0 1.7-.5 3.4-1.7 4.2M77.1.1c-.1 0-.5.2-1.5.2h-5.7c-.2 0-.8 0-1.2-.1-.5 0-.7-.2-.8-.2-.1 0-.1.1-.2.3 0 .2-.3 1.6-.3 1.7 0 .1 0 .1.1.1s.1 0 .2-.2c0-.1.1-.2.3-.5.3-.4.6-.5 1.6-.5h1.8v6.5c0 1.5 0 2.7-.1 3.4-.1.5-.1.7-.4.8-.2.1-.7.1-.8.1-.1 0-.1 0-.1.1s.1.1.3.1h4.3c.2 0 .2 0 .2-.1 0 0 0-.1-.1-.1s-.5 0-.7-.1c-.5-.1-.6-.4-.6-.9-.1-.7-.1-1.9-.1-3.4V1H75c1.5 0 1.8.3 1.9.8V2c0 .2 0 .3.1.3s.1-.1.1-.2V.2c.1 0 .1-.1 0-.1M13.4 10.9c-.1.5-.1.7-.4.8-.1.1-.6.1-.7.1-.1 0-.1 0-.1.1s.1.1.3.1h4.3c.2 0 .3 0 .3-.1 0 0 0-.1-.1-.1s-.5 0-.7-.1c-.5-.1-.6-.4-.6-.9-.1-.7-.1-1.9-.1-3.4V6c0-.1 0-.1.1-.1h6.1s.1 0 .1.1v1.5c0 1.5 0 2.7-.1 3.4-.1.5-.1.8-.5.9-.1 0-.5.1-.6.1-.1 0-.1 0-.1.1s.1.1.3.1h4.2c.2 0 .3 0 .3-.1 0 0 0-.1-.1-.1s-.5 0-.7-.1c-.5-.1-.6-.4-.6-.9-.1-.7-.1-1.9-.1-3.4V1.4c0-.5.2-.8.6-.9h.4c.1 0 .1 0 .1-.1s-.1-.1-.2-.1h-3.9c-.2 0-.3 0-.3.1s.1.1.1.1h.5c.5.1.6.4.7.9v3.7c0 .1 0 .1-.1.1h-6.1s-.1 0-.1-.1V1.4c0-.5.2-.8.6-.9h.4c.1 0 .1 0 .1-.1s-.1-.1-.2-.1h-3.9c-.2 0-.3 0-.3.1s.1.1.1.1h.5c.5.1.6.4.7.9v6.2c-.1 1.4-.1 2.7-.2 3.3M27.5.4h.5c.5.1.6.4.7.9v6.2c0 1.5 0 2.7-.1 3.4-.1.5-.1.8-.5.9-.1 0-.5.1-.7.1-.1 0-.1 0-.1.1s.1.1.3.1h1.7c1 0 2.9.1 4.7.1.6 0 .7 0 .8-.4.1-.3.2-1.4.2-1.5 0-.1 0-.2-.1-.2s-.1.1-.1.2c-.2.5-.3.7-.7.9-.4.2-1.1.2-1.5.2-1.8 0-2.1-.2-2.1-1.3v-4c0-.1 0-.1.1-.1.3 0 2.1 0 2.5.1.6.1.9.3.9.5.1.2.1.4.1.5 0 .1 0 .1.1.1s.1-.2.1-.3v-1c0-.5.1-.9.1-1 0-.1 0-.1-.1-.1s-.1.1-.2.2c-.1.2-.4.2-.7.2h-2.8c-.1 0-.1 0-.1-.2V1.1c0-.1 0-.2.1-.2H33c.8.1 1.1.3 1.2.5.1.2.1.3.1.5 0 .1 0 .2.1.2s.1-.1.1-.2c0-.2 0-.6.1-.8 0-.4.1-.9.1-1 0-.1 0-.1-.1-.1s-.1.1-.2.1-.4.1-.7.1h-6.3c-.2 0-.3 0-.3.1.2.1.3.1.4.1m15 11.7h3.4c.2 0 .3 0 .3-.1s0-.1-.1-.1-.5 0-.8-.1c-.4-.1-.6-.5-.6-1.8 0 0-.1-6-.1-6.3 0-.3-.1-.6-.1-.6.1.1.2.3.3.4.2.2 2.2 2.3 3.9 4 1.7 1.8 3.8 3.6 4 3.8.8.8 1 1 1.1 1 .1 0 .1-.1.1-1.1V2c0-.9.1-1.3.6-1.4h.5c.1 0 .2 0 .2-.1s-.1-.1-.3-.1h-3.1c-.2 0-.3 0-.3.1s0 .1.1.1.5 0 .8.1c.4-.1.6.3.6 1.3v6.7c0 .4.1.6.1.6-.1-.1-.1-.2-.3-.4l-3.2-3.2C47.1 3.1 44.7.8 44.5.5c-.3-.2-.5-.5-.6-.5-.2 0-.2.2-.2.8v9c0 1.4-.1 1.9-.5 2-.2.1-.7.1-.8.1-.1 0-.1 0-.1.1 0 0 .1.1.2.1m57.7 0h3.4c.2 0 .3 0 .3-.1s0-.1-.1-.1-.5 0-.8-.1c-.4-.1-.6-.5-.6-1.8 0 0-.1-6-.1-6.3 0-.3-.1-.6-.1-.6.1.1.2.3.3.4.2.2 2.2 2.3 3.9 4 1.7 1.8 3.8 3.6 4 3.8.8.8 1 1 1.1 1 .1 0 .1-.1.1-1.1V2c0-.9.1-1.3.6-1.4h.5c.1 0 .2 0 .2-.1s-.1-.1-.3-.1h-3.1c-.2 0-.3 0-.3.1s0 .1.1.1.5 0 .8.1c.5.1.6.5.6 1.5v6.7c0 .4.1.6.1.6-.1-.1-.1-.2-.3-.4l-3.2-3.2c-2.5-2.6-4.9-4.9-5.1-5.2-.2-.2-.4-.5-.5-.5-.2 0-.2.2-.2.8v9c0 1.4-.1 1.9-.5 2-.2.1-.7.1-.8.1-.1 0-.1 0-.1.1-.1-.2 0-.1.1-.1m13.2 0h3.1c.1 0 .2 0 .2-.1s0-.1-.2-.1h-.2c-.3 0-.7-.1-.7-.5 0-.3.1-.6.2-1l1-2.6c0-.1.1-.1.2-.1h3.5c.1 0 .1 0 .1.1l1.2 3.1c.1.4 0 .6-.3.7-.3.1-.8.2-.8.2-.1 0-.1 0-.1.1s.2.1.5.1c.5 0 1.2 0 2-.1 1 0 2.1.1 2.2.1.2 0 .3 0 .3-.1s-.1-.1-.2-.1c-.2 0-.4 0-.6-.1-.3-.1-.8-.4-1.3-1.7-1-2.4-3.7-8.8-4-9.4-.2-.5-.3-.6-.3-.6-.1 0-.2.1-.3.6l-4 9.7c-.3.8-.6 1.4-1.3 1.5h-.5c-.1 0-.1 0-.1.1.1.1.2.2.4.2m4-5.3l1.4-3.6c.1-.2.2-.2.2 0l1.4 3.6c0 .1 0 .1-.1.1h-2.9s-.1-.1 0-.1m-61.7 5.3h3.1c.1 0 .2 0 .2-.1s0-.1-.2-.1h-.2c-.3 0-.7-.1-.7-.5 0-.3.1-.6.2-1l1-2.6c0-.1.1-.1.2-.1h3.5c.1 0 .1 0 .1.1l1.2 3.1c.1.4 0 .6-.3.7-.3.1-.8.2-.8.2-.1 0-.1 0-.1.1s.2.1.5.1c.5 0 1.2 0 2-.1 1 0 2.1.1 2.2.1.2 0 .3 0 .3-.1s-.1-.1-.2-.1c-.2 0-.4 0-.6-.1-.3-.1-.8-.4-1.3-1.7-1-2.4-3.7-8.8-4-9.4 0-.5-.1-.6-.2-.6s-.2.1-.3.6l-4 9.7c-.3.8-.6 1.4-1.3 1.5h-.5c-.1 0-.1 0-.1.1s.1.2.3.2m4-5.3L61 3.2c.1-.2.2-.2.2 0l1.4 3.6c0 .1 0 .1-.1.1h-2.9c.1 0 0-.1.1-.1M.6 2.2c.1 0 .1 0 .2-.2 0-.1.1-.2.3-.5.3-.4.6-.5 1.6-.5h1.8v6.5c0 1.5 0 2.7-.1 3.4-.1.5-.1.7-.4.8-.2.1-.7.1-.8.1-.1 0-.1 0-.1.1s.1.1.2.1h4.3c.2 0 .2 0 .2-.1 0 0 0-.1-.1-.1s-.5 0-.7-.1c-.5-.1-.6-.4-.6-.9-.1-.5-.1-1.8-.1-3.3V1H8c1.5 0 1.8.3 1.9.8V2c0 .2 0 .3.1.3s.1-.1.1-.2V.2c0-.1 0-.2-.1-.2s-.5.2-1.5.2H2.9c-.2 0-.8 0-1.2-.1C1.3.2 1.1 0 1 0 .9 0 .8.1.8.3.8.5.5 1.9.5 2c0 .2 0 .2.1.2m78.6 9.9h4.3c.2 0 .2 0 .2-.1 0 0 0-.1-.1-.1s-.5 0-.7-.1c-.5-.1-.6-.4-.6-.9-.1-.7-.1-1.9-.1-3.4V1.4c0-.5.2-.8.6-.9h.5c.1 0 .1 0 .1-.1s-.1-.1-.3-.1h-3.7c-.2 0-.3 0-.3.1s.1.1.1.1c.1 0 .3 0 .5.1.3.1.5.3.5.9v6.2c0 1.5 0 2.7-.1 3.4-.1.5-.2.7-.4.8-.2.1-.7.1-.8.1-.1 0-.1 0-.1.1.1-.1.2 0 .4 0m12.7.2c3.8 0 6.4-2.4 6.3-6.4-.1-3.5-2.7-5.9-6.3-5.9-4.3 0-6.1 3.4-6.2 6.1 0 2.9 1.9 6.2 6.2 6.2M91.7.7c2.5-.1 4.4 1.9 4.4 5.7 0 4.6-2.5 5.2-3.9 5.2-2.8.1-4.5-2.1-4.5-5.8.1-3.5 1.6-5 4-5.1m34.8-.3h.5c.5.1.6.4.7.9v6.2c0 1.5 0 2.7-.1 3.4-.1.5-.1.6-.4.8-.2.1-.5.1-.6.1-.1 0-.1 0-.1.1s.1.1.3.1h1.7c.9 0 2.1.1 4.4.1.8 0 .9-.1 1-.4.1-.5.2-1.4.2-1.6 0-.2 0-.2-.1-.2s-.1.1-.1.2c0 .3-.2.5-.4.8-.4.5-1.3.4-2.1.4-1.2 0-1.3-.1-1.5-.4-.3-.3-.3-1-.3-3.3V1.4c0-.5.2-.8.6-.9h.5c.1 0 .1 0 .1-.1s-.1-.1-.3-.1h-4c-.2 0-.3 0-.3.1h.3M39.8 42.3c-.4 0-.9 0-1.4-.2-.7-.2-1.8-.8-3-3.9-2.2-5.3-7.9-19.9-8.4-21.2-.4-1.1-.6-1.3-.8-1.3-.2 0-.4.2-.8 1.4 0 0-8.5 21-8.5 21.1-.2.6-.6 1.5-1.3 2.1-1 .9-2.3.9-4.1.9-2.7 0-3.3-.3-3.8-.9-.7-1-.7-2.4-.7-7.6v-6.3c0-5.5 0-6.5.1-7.6.1-1.2.4-1.8 1.4-2 .4-.1.9-.1 1.2-.1.1 0 .3-.1.3-.2 0-.2-.2-.3-.6-.3-1.1 0-4.2.1-4.3.1-.2 0-2.9-.1-4.5-.1-.4 0-.6.1-.6.3 0 .1.1.2.3.2.3 0 .9 0 1.2.1 1.2.2 1.4.8 1.5 2 .1 1.1.1 2.1.1 7.6v6.2c0 3.4 0 6.2-.2 7.6-.1 1-.3 1.8-1 1.9-.3.1-.7.1-1.1.1-.2 0-.3.1-.3.2 0 .2.2.3.6.3 1.1 0 3.6-.1 3.9-.1 2 0 2 .1 6.4.1 1 0 4.6-.1 5.7-.1.4 0 2.7.1 3.6.1.3 0 .5-.1.5-.3 0-.1-.1-.2-.4-.2l-.5-.1c-.6-.1-1.4-.5-1.5-1.2 0-.5.1-1.1.5-2.3l1.8-4.9c.1-.2.2-.3.4-.3H29c.2 0 .2.1.3.2l2.4 6.3c.2.7 0 1.6-.9 1.9-.7.2-1.4.3-1.7.3-.1 0-.2.1-.2.2 0 .2.2.2.8.2.9 0 4.3-.1 5.5-.1 1.9 0 3.8.1 4.2.1.4 0 .7-.1.7-.3.1.2-.1.1-.3.1M28.5 31.8h-6.3c-.1 0-.2-.1-.1-.3l3.1-8.2c.2-.5.4-.5.5 0l2.9 8.2c0 .2 0 .3-.1.3m44.9-15.6c-1.1 0-2.6.1-2.9.1-.3 0-2.4-.1-4.1-.1-.4 0-.6.1-.6.2s.1.2.3.2c1.6 0 1.9.4 2 1.1.1.4 0 1-.4 2.3-1.6 4.8-3.9 11.7-5.2 15.3h-.1L55.2 17c-.4-1.2-.6-1.7-.9-1.7-.2 0-.4.2-.9 1.6l-6.9 18.4h-.1c-.5-1.9-4.2-12.3-5-14.6-.5-1.5-.8-2.3-.8-3 0-.5.2-.7.5-.8.4-.2 1.2-.2 1.5-.2.2 0 .4 0 .4-.2 0-.1-.1-.2-.6-.2-1.8 0-4.3.1-4.6.1-.4 0-2.5-.1-4.3-.1-.4 0-.6.1-.6.2 0 .2.1.2.3.2.2 0 1.1 0 1.6.2.9.4 1.3 1 2 3L44 40c.8 2.4 1 3.3 1.5 3.3.4 0 .6-.4 1.1-1.9 1.3-3.3 5.6-15 6.9-18.4h.1l7.1 18.4c.5 1.3.7 1.9 1.1 1.8.3 0 .3-.4.7-1.2.4-1 .8-2.1 1.5-4.2 2.4-6.9 4.5-12.5 6.3-17.2.7-1.9 1.2-3.4 2.3-3.8.4-.1 1.1-.2 1.2-.2.2 0 .3-.1.3-.3-.2 0-.4-.1-.7-.1" fill="#1e305e"/></svg>