<svg xmlns="http://www.w3.org/2000/svg" viewBox="0 0 240 28.1"><path d="M232.4 21.8c-.2.2.3.8.5.6.2-.2 1.1-.8 1.1-.8s2.4 2.2 2.7 2.2c.3 0 2.9-3.5 3.2-3.9.3-.4-.3-.8-.5-.5l-.8.8-1-.7V.9c0-.3-.5 0-.6.1-.1.1-3 2-3.2 2.2-.2.1-.3.2-.3.4v17c.1.1-.9 1-1.1 1.2zm1.5-18l.3-.1V21l2.2 2-.2.2-2.3-2V3.8zm-11 20c.2 0 3-3.5 3.2-3.4v1s2.9 2.4 3.2 2.4c.2 0 3-4 3.2-4.2.2-.2-.2-.5-.4-.3s-.8.9-.8.9l-1-1.1v-8.7c0-.3.8-.8 1.1-1 .2-.2-.1-.6-.2-.5-.1.1-1 .8-1.1.8-.1 0-2.7-2.3-2.9-2.3-.2 0-2.3 2.5-4.5 2.6h-.9s.7-1.2.1-1.9c-.4-.4-.8-.4-1.3-.1-.5.3-.4 1.5 0 1.9.2.2 3.1 3.7 3 3.7-2.5.1-3.4 1.4-3.7 2-.3.7-.4 2.8 0 4.3.4 2 2.8 3.9 3 3.9zm2.3-14.1l1.5 1.5v9.9l2.5 2-.2.2-2.6-2.1v-9.9L225 9.8l.2-.1zm-.6 5.1c.4.4.5-.1-.2-.7-.2-.2-3.1-3.7-3.1-3.7s1.1.1 2.1-.1c.8-.1 1.2-.4 1.2-.4l1.4 1.5v8.3s-.9.9-1.1.9c-.9-.5-2.2-2-2.3-4.2.1-2.6 1.5-2.2 2-1.6zm-3 7c.5.5 1.4 1.2 1.4 1.2l-.2.3s-1-.8-1.5-1.4c-.6-.7-1-1.6-.9-1.7 0-.1.3.7 1.2 1.6zM0 22.7C0 25.1 2.2 27 4.1 27c2 0 4.2-1.5 4.7-2s.1-.8-.6-.3c-1.2.9-4.6 2.5-6.2.5-1.5-2 .4-3.1 1-3.1 1.8-.1 2.6 2 2.6 2L9 20.7c.7-.7.4-1.1-.6-.3 0 0-1-1.4-2.3-1.6v-1.9c0-1.4 2.6-1.9 3-.5.3.9 1.1 7.6 7 7.4V7.5s3.9-.9 3-5.3c-.1-1.2-.4.8-2.3.9-1.3 0-1.8-.2-2.2-1-.3-.5-.4-.5-1.1.6-.4.6-1.8 2.4-2.1 2.7-.3.4-.2.7.4.2l.1-.1c1 1.4 2.7 2 3.6 2.2v2.9c0 1.1-2.4 1.3-2.9 0-.4-1.2-2-7.3-5-8.2C2.1.6.2 4 .6 6.6c.1.4.4.5.4 0 0-.7 1.1-1.5 2.6-1.3v5.2s-4.2.7-2.7 4.8c0 0 .6-1.4 2.7-1v4.2S0 18.7 0 22.7zM12.4 5.3l.2-.3c.7.9 3.8 3.2 5.9-.2-2 4-5.4 1.3-6.1.5zM2 13.8c.3-.5 1.1-.5 1.5-.4v.2c-.3-.1-.7-.3-1.5.2zm4.1-3.9c.4-.1.7-.4.7-.7 0-.4-.4-.7-.9-.7s-.9.3-.9.7c0-.1.1.4.4.5l.2.1v8.7c-.4-.3-1.4-.2-1.4-.2V5.4C5.1 5.5 6.4 6.7 7 8c.4.7 1.1 3.7 1.2 4.2.1.3-.7.7-1 .7-.3 0-1.1-.3-1.1-.8V9.9zm1.6 5.2c-.8 0-1.6.7-1.6.7v-2.9s.6.4 1.2.4c.7 0 1-.5 1-.5s.2 1.5.5 2.6c.1 0-.2-.2-1.1-.3zm7.8 3c-.8-.5-1.3-2.2-1.4-2.4-.1-.4.2-.5.5-.5s.9.2.9.4v2.5zm-1.2-6.3c.6-.1 1.2-.4 1.2-.4v3.8s-.5-.3-.9-.3c-.3 0-.7.3-.7.3-.3-1.5-.6-3-.8-3.6 0 0 .6.2 1.2.2zM2 5c.8-.6 3-1.1 4.9 1.3 1.8 2.2 2.6 8.5 3.2 10.8.6 2.3 1.7 5.2 4.7 6.2-2.6-.6-4-3-4.8-5.7-.7-2.5-1.4-8.6-3.2-11C5.3 4.6 3.5 4.5 2 5zm3.8 17.8l-.2.2c-.6-1-2-2.2-3.6-1.2 1.3-1.1 3.3-.1 3.8 1zM195 11.7l.4-.4 1 1v8.5l-1 1c-.2.2.2.8.4.6.2-.2.7-.5.7-.5s2.6 2 2.8 2c.2 0 3.8-3.8 3.9-3.9.1-.1-.3-.6-.5-.5l-1 1-1.7-1.2v-6.2s.1-.6.2-.5c2.4 2.2 5.6-.5 5.4-3-.1-2.1-1.8-3.7-3.2-3.8-1.1-.1-2.2.6-2.4.8-.2.2 0 .4.4.2.8-.5 2-1.2 3.4 0 1.6 1.4.4 3.9-1 2.3-.4-.5-.8-1.1-1.1-1.1-.3 0-1.6 2.8-1.6 2.8v-.5s-2.1-2-2.3-2c-.2 0-3 2.9-3.2 3.1-.2.1.2.5.4.3zm5.9.1c1 .9 1.3.8 2.5.6l-.1.1c-.4.3-1.5.7-2.6-.5l.2-.2zm-5.1-.9l1.2 1.2v9.3l2.5 1.9-.2.1-2.5-1.9v-9.3l-1.2-1.1.2-.2zm10.1 1.1c.2-.1.7-.7.7-.7l.5.6v7.7c0 .7-1.1.9-1.1 1.1 0 .2 1.1 1.1 1.6 1.6s1.5 1.6 1.6 1.6c.1 0 .8-.9 1.4-1.6.7-.8 1.4-1.4 1.4-1.5 0-.1-.7-.3-.7-1.1v-7.5c.1-.2.6-.7.6-.7l1.5 1.6v6.5c0 1.7 1.1 3 1.3 3.2.2.2 1.3 1.2 1.5 1.2.2 0 3-2.9 3.2-3.1.2-.2-.2-.5-.4-.3-.1.1-.5.5-.6.5-.2-.1-.9-.9-.9-1.1v-8.5l1-1c.2-.2-.2-.8-.4-.6-.2.2-.7.5-.7.5s-2.6-2-2.8-2c-.4 0-3 3-3.3 3.2v-1.2s-2.6-2-2.8-2c-.2 0-2.9 3.5-3 3.7-.1-.3.2 0 .4-.1zm6.4-1.1l1.7 1.8v6.8s0 1.1.6 2.1c.4.6 1.3 1.6 1.3 1.6s-.9-.6-1.5-1.5c-.4-.6-.7-1.7-.7-2.3v-6.6l-1.6-1.7.2-.2zm-5.3-.1l.6.8v8.1s0 .5-.3.8c-.2.1-.4.3-.4.3l2.4 2.4-.2.2-2.6-2.5s.3-.2.6-.5c.2-.1.2-.3.2-.7v-7.9l-.5-.7.2-.3zM88.7 20.6c0 .1 1.2 1.3 1.5 1.7.4.4 1.3 1.6 1.6 1.6.2 0 .8-.9 1.4-1.7.6-.8 1.3-1.4 1.3-1.6 0-.3-1-.5-1-1.6v-2.5c1.2.4 1.5 3.8 1.8 5 .3 1.1 1.7 2.5 1.9 2.5.3 0 3.6-3.7 4.1-4.1.4-.4-.2-.9-.6-.5-.4.4-1.1 1.2-1.1 1.2-.5.4-.7-3.5-1.5-4.9-1.1-2.1-2.9-2.5-2.9-3 0-.9.6-1.4 1.1-1.4.5 0 1.3.6.9 1.9 0 .1.3.2.3.2l2.6-4.4c-.8-1-3.3-1.1-4.8.3-.9.9-1.1 5.5-1.9 5.7-.1 0 0-12.1 0-12.5 0-.4.1-.8-.2-.8-.3 0-3.4 1.9-3.4 2.1V19c0 1-1.1 1.4-1.1 1.6zm8.2-9.9c.7.2.8.6.8.6l-.2.3s-.1-.5-.7-.7c-.4-.2-.7 0-.8-.1 0-.1.6-.2.9-.1zm-1.8 6.8c.1.4.4 1.6.6 3 .2 1.1.5 1.9 1.4 2.6l-.1.1s-1.1-.7-1.5-2.6c-.4-2.2-.5-2.4-.7-3.2-.2-.8-1-1.1-1-1.2 0-.1 1 .3 1.3 1.3zm-4.9 1.7V4l.3-.1v15.3s0 .5-.3.9c-.1.2-.5.5-.5.5l2.2 2.4-.1.2-2.4-2.6s.3-.2.5-.5c.1-.2.3-.5.3-.9zm16.5.8c-1.8 1.5-3.1 5 .5 6.5 4.4 1.8 7.9-.2 9.2-1.5.3-.3 0-.5-.3-.3s-2 2.1-5.9 2c-2.1-.1-4.8-1.3-4.5-3.3.3-2.1 4.8-2.7 7-1.6 3 1.5 3.3 2 3.6 2 .3.1.3.1.5-.1s3.1-3.4 3.4-3.7c.4-.5 0-1-.5-.6-.4.4-.7.8-.7.8s-.6-.8-1.7-1.5-3-1-3-1V2s1.9.8 2.3 4.1c.1.7.1 3.3-.4 3.9-.3.4 0 .7.3.4l4.5-4.5c.3-.3-.1-1.6-.9-2.3-1.9-1.9-5.8-3.4-9.1-.7-1.7 1.4-3 3.4-3 6.3v1.3s-4.2.7-2.7 4.8c0 0 .6-1.4 2.7-1v2.1c0 .7 0 1.7-.3 1.8-.3.1-.2.7.2.5.2-.1 1.5-.6 2.6-1.2 1.6-.9 1.9-3.2 1.9-4.6V5.4c0-2.8 1.5-3.3 1.5-3.3v15.7c-2.5 0-5.2.6-7.2 2.2zm10.9-13.8c.1.8-.1 2.4-.1 2.4l-.4.3s.2-1.2.1-2.3c-.1-2-.7-2.9-.7-3 .2 0 .9.9 1.1 2.6zm-11.7 8s0 .1 0 0c.8-1.1 1.8-1 2.3-.9v.3c-.2 0-1.2-.2-2.3.6zm3.1 1.1c0 1.4-.4 1.8-.4 1.8V9.2c0-1.2.4-2.3.4-2.3v8.4zm7.8 7.8l-.3.3s-2.6-1.6-3.3-1.9c-2.3-.9-4-.6-4-.5 0-.1 2.3-.7 4.8.5.8.4 2.8 1.6 2.8 1.6zM49.5 7.8s-2.3-1.9-.2-3.2c1.3-.9 3 .3 3 2.2v4.4s-4.2.7-2.7 4.8c0 0 .6-1.5 2.7-1v6.4c-2.7.9-3.7 4.9.6 6.5 3.4 1.3 6.9-1.2 9.1-2.3 1.8-.9 2.9.3 1.9.9-.3.2-1.1.4-1.4.3-.2-.1-.3.3-.1.4 1.1.1 2-.3 2.4-1.1.6-1.1-.6-2.4-3.2-2.5-4.1-.2-6.1 1.3-8.3 1.3-2.5 0-2.3-3.1-.5-3 3.3.1 3.4 1.5 7.6 1.5 3.1 0 4.9-3.2 4.9-4.4V4.7c0-.3-4.4-3.5-4.6-3.5-.2 0-2.5 2.8-2.5 2.8V1.7h-.5v2.8S56.3 6.2 56.3 6c0-1.5-.7-4.8-4.6-4.8-2.7 0-4.5 2.3-4.4 4 .2 1.9 1.3 2.6 2.2 2.6zm1.1 6.6c.3-.5 1-.6 1.5-.4v.2c-.3-.1-.7-.3-1.5.2zm7.3 12.3c.8-.4 2-.9 2.8-1.3 1.1-.6 2-.6 2-.6 0 .1-1 .2-2.6 1.2-.5.3 0 .1-1.9.9-2.4 1.1-3.5.9-3.5.8 0-.1.7.2 3.2-1zm1.5-23.3l2.4 2.7v13.3c0 .7-.3 1.1-.3 1.1s.1-.4.1-.9V6.2l-2.3-2.7.1-.1zm-1.1 1.2l.7-.8 2.3 2.6v4c0 .8-.8 1.3-1.4 1.3-.6 0-1.5-.6-1.5-1.1-.1-.5-.1-6-.1-6zm0 6.8s.8.6 1.5.6 1.4-.6 1.4-.6v3s-.7-.6-1.5-.6-1.5.7-1.5.7v-3.1zm0 4.1c0-.8.9-1.3 1.5-1.3.7 0 1.5.4 1.5 1.1V20c0 1.2-1.1 3.1-2.9 2.6-.1-.1-.1-6.5-.1-7.1zm-.5-10.3v17.3c-.8-.2-1.4-.4-1.4-.4V6.7l1.4-1.5zM51.5 4c.4.2 1.3 1.2 1.3 2.3v15h-.3V6.4c0-1.2-.9-2.1-1.5-2.4-.8-.4-1.8.1-1.8.1.1.1 1-.8 2.3-.1zm129.9 7.7c.2-.2.5-.4.5-.4l1 .9v8.5l-1 1c-.2.2.2.8.4.6.2-.2.7-.5.7-.5s2.6 2 2.8 2c.4 0 3.1-3 3.3-3.2v1.2s2.6 2 2.8 2c.3 0 3.8-3.8 3.9-3.9.1-.1-.3-.6-.5-.5-.2.1-1.1.9-1.1.9l-1.5-.9v-8.8l.7-.7c.1-.1-.2-.5-.3-.4l-.7.7S189.7 8 189.6 8c-.3 0-2.4 2.9-2.4 2.9-.3.3.1.8.4.5l.5-.5 1.1 1v7.5c-.1.2-.9.9-.9.9l-1.7-.7v-9.4s-2.1-2-2.3-2c-.2 0-3 2.9-3.2 3.1-.3.2.1.6.3.4zm6.8-1.1l.2-.2 1.3 1.2v9.9l2.3 1.7-.2.2-2.3-1.8v-9.9l-1.3-1.1zm-5.9.2l1.1 1.1v9.3l2.3 1.8-.2.2-2.4-1.8V12l-1.1-1.1.3-.1zM66.6 22.6c.2-.1 1-.9 1-.9s3.2 2.2 3.5 2.2c.3 0 3-2.7 5.8-2.9v-9.7s.8-.6 1.1-.8c.2-.1-.3-.5-.5-.4-.1.1-1 .7-1 .7 0 .1-2.6-2.4-2.9-2.4-.3 0-2.7 2.4-6.6 3.3v9.4l-.9.9c-.1.3.3.8.5.6zm4.7-11.9l2.8 1.7v8.8l-.3.1v-8.8L71 10.8l.3-.1zm-.5.4l2.7 1.7v8.9l-2.7-1.9v-8.7zm-3.3 1.1l.3-.1V21l3.5 2.3-.2.2-3.5-2.3v-9zm11.3-.5l.4-.4 1 1v8.5l-1 1c-.2.2.2.8.4.6.2-.2.7-.5.7-.5s2.6 2 2.8 2c.2 0 3.8-3.8 3.9-3.9.1-.1-.3-.6-.5-.5-.2.2-.9 1-.9 1l-1.8-.8v-6.6s.1-.6.2-.5c2.4 2.2 5.6-.5 5.4-3-.1-2.1-1.8-3.7-3.2-3.8-1.1-.1-2.2.6-2.4.8-.2.2 0 .4.4.2.8-.5 2-1.2 3.4 0 1.6 1.4.4 3.9-1 2.3-.4-.5-.8-1.1-1.1-1.1-.3 0-1.6 2.8-1.6 2.8v-.5s-2.1-2-2.3-2c-.2 0-3 2.9-3.2 3.1-.2.1.2.5.4.3zm5.8.1c1 .9 1.3.8 2.5.6l-.1.1c-.4.3-1.5.7-2.6-.5l.2-.2zm-5-.9l1.2 1.2v9.3l2.5 1.9-.2.1-2.5-1.9v-9.3L79.4 11l.2-.1zm45.3 2.8c-2.5.1-3.4 1.4-3.7 2-.3.7-.4 2.8 0 4.3.5 1.8 2.9 3.8 3.1 3.7.2 0 3-3.5 3.2-3.4v1s2.9 2.4 3.2 2.4c.2 0 3-4 3.2-4.2.2-.2-.2-.5-.4-.3s-.8.9-.8.9l-1-1.1v-8.7c0-.3.8-.8 1.1-1 .2-.2-.1-.6-.2-.5-.1.1-1 .8-1.1.8-.1 0-2.7-2.3-2.9-2.3-.2 0-2.3 2.5-4.5 2.6h-.9s.7-1.2.1-1.9c-.4-.4-.8-.4-1.3-.1-.5.3-.4 1.5 0 1.9.1.5 3 3.9 2.9 3.9zm-.8 9.5s-1-.8-1.5-1.4c-.6-.7-1-1.6-.9-1.7.1 0 .4.8 1.3 1.6.5.5 1.4 1.2 1.4 1.2l-.3.3zm2.5-13.5l1.5 1.5v9.9l2.5 2-.2.2-2.6-2.1v-9.9l-1.4-1.5.2-.1zm-1.7.7c.8-.1 1.2-.4 1.2-.4l1.4 1.5v8.3s-.9.9-1.1.9c-.9-.5-2.2-2-2.2-4.2-.1-2.7 1.3-2.2 1.9-1.7.4.4.5-.1-.2-.7-.2-.2-3.1-3.7-3.1-3.7s1 .2 2.1 0zM18.4 21.2s-.7 1-1 1.2c-.3.2.3.6.4.4.1-.2 1-.8 1-.8l3.1 1.9 4.2-4.2c.1-.2-.3-.6-.5-.4l-1.5 1.5-.1-.1-1.9-1.6v-1.9l4.8-4-2.2-4.9-3.2 1.5-3.1.9v10.5zm4.2-11.1l1.8 4.4-.2.2-1.8-4.5.2-.1zm-.5.6l1.7 4.4-1.7 1.4v-5.8zm-3.3.4h.2v10.2l3 1.9-.2.2-3.1-1.9V11.1zM135 20.8s-.6.7-.7.8c-.1.1.1.5.3.3l.7-.7s3 2.2 3.2 2.3c.2.1.4.2.6-.1.2-.2 1.7-2.1 1.9-2.3.3.2 3.6 2.5 3.8 2.5.2 0 .3-.1.4-.2 1.3-1.9 1.7-2.5 5.2-2.9v-10s-3.3-2.6-3.5-2.6c-.2 0-1.8 2.6-2.4 3.2v-.4c-.2-.1-3.3-3-3.4-3-.2 0-2.2 3.3-2.2 3.3-.1.1 0-1.5 0-1.5l-.3-.1c-2.7-1.2-.8-4.9-.8-4.9-1.8.4-6 4.1-2.8 7.3v9zm10.8-10.4l1.5 1.5v8.6l-.3.1V12l-1.4-1.5.2-.1zm-1.1 1.6l.8-1.1 1.3 1.4v8.6l-2.1-1.7V12zm-4.6-1.6l1.5 1.6v8.8l3.2 2.2-.2.2-3.3-2.2v-8.8l-1.4-1.5.2-.3zm-1.2 1.8l.8-1.3 1.3 1.4v8.1l-.4.5-1.8-1.4v-7.3zm-4.5-2.5c0 1 .8 1.6 1.2 1.8v9.1l3 2.3-.2.2-3.1-2.3v-9.1c-.5-.3-1.2-1.5-.9-2zm25.1 8.9c-.9 0-3.1.3-4.1 1.9-.7 1.1-1.3 4.8 2.2 6.3 3.8 1.6 6.2.8 7.3.5 1.1-.4 2.5-1.5 2.8-1.9.3-.4 0-.5-.3-.2-.9.8-2.7 2.4-5.8 2.2-3.1-.2-4.9-1.6-5.3-2.3-1.6-2.7.8-3.8 2.3-3 1.8.9 3.7 1.9 5.7 1.9 3.9-.1 4.7-4.1 4.7-5.1 0-.6-.4-.4-.5-.1-.2 1-2.3 1.7-3.8.9-1.7-.8-3.2-1.1-4.2-1.1 0 0 .6-.6.6-1.6V8.6c0-.6.4-1.9 1.2-2.5.4.1 1 .4 1.3.4 2.5.2 4.1-.5 5.3-1.5.9-.8 1.3-4.6 1.3-4.9 0-.2-.4-.1-.4 0s-.4 1.2-1.1 2c-1.2 1.4-4.6 0-5.6-.3-3-1.2-4.7-1.3-6.6 0-2 1.3-2.1 4.6-.3 5.7 1.5 1 3.6-.4 3.9-.6.2-.1 0-.5-.3-.4-.3.1-.8.6-2 .7-1.3.1-1.8-1.2-1.8-1.6 0-.5.6-1.4 1.8-1.4 1.5 0 2.5 1.1 3.9 1.7-.2.3-1.2 1.1-1.2 3.4v.4s-4.8.7-3.1 5.5c0 0 .6-1.8 3.1-1.3V17c.1.5-.2 1.6-1 1.6zm3.1 4.5c.9.3 2.6.4 4-.4.5-.3.8-.5.1.1-1.1 1-3.1.9-4.2.6-1.4-.4-3.6-1.7-4-1.7-1-.2-.3-.3.5-.1.8.2 1.6.8 3.6 1.5zm-2.3-18.5c-2.2-1.3-3.3-.6-3.3-.7 0-.1 1.2-.7 2.8.1 1.1.6 1.4.8 2.5 1.4 1.4.7 3.2.6 3.2.7 0 .1-1.9.2-2.7-.1-1-.5-1.6-.9-2.5-1.4zm-2 9.3c.7-1 2-.9 2.3-.7v.3c-.2 0-1.2-.4-2.3.4zm11.2 7.1l-.9.9c-.3.3.2.8.4.7.2-.1 1-.9 1-.9s3.2 2.2 3.5 2.2c.3 0 3-2.7 5.8-2.9v-9.7s.8-.6 1.1-.8c.2-.1-.3-.5-.5-.4-.1.1-1 .7-1 .7 0 .1-2.6-2.4-2.9-2.4-.3 0-2.7 2.4-6.6 3.3l.1 9.3zm4.3-10.4l2.8 1.7v8.8l-.3.1v-8.8l-2.8-1.7.3-.1zm-.6.4l2.7 1.7v8.9l-2.7-1.9V11zm-3.3 1l.3-.1v8.9l3.5 2.3-.2.2L170 21v-9zM28.3 20.9s-.6.7-.7.8c-.1.1.1.5.3.3l.7-.7s3 2.2 3.2 2.3c.2.1.4.2.6-.1.2-.2 1.7-2.1 1.9-2.3.3.2 3.6 2.5 3.8 2.5.2 0 .3-.1.4-.2 1.3-1.9 1.7-2.5 5.2-3v-10s-3.3-2.6-3.5-2.6c-.2 0-1.8 2.6-2.4 3.2v-.4c-.2-.1-3.3-3-3.4-3-.2 0-2.2 3.3-2.2 3.3-.1.1 0-1.5 0-1.5l-.3-.1c-2.7-1.2-.8-4.9-.8-4.9-1.8.4-6 4.1-2.8 7.3v9.1zm10.8-10.3l1.5 1.5v8.6l-.3.1v-8.6L39 10.8l.1-.2zM38 12.2l.8-1.1 1.3 1.4V21L38 19.4v-7.2zm-4.7-1.6l1.5 1.6V21l3.2 2.2v.1l-3.3-2.2v-8.8l-1.4-1.5v-.2zm-1.1 1.7L33 11l1.3 1.4v8.1l-.3.5-1.8-1.4v-7.3zm-4.5-2.4c0 1 .8 1.6 1.2 1.8v9.1l3 2.3-.2.2-3.1-2.3v-9.1c-.5-.3-1.2-1.5-.9-2zm135.2 8.4c-.2 0-.2.4.1.4h1c1.4 0 3.1-.7 3.1-3.2V10c0-.9.3-3.1 1.5-3.1.2 0 .1-.4 0-.4-1.1 0-3.1-.3-4.1.8-1 1.1-.8 2.2-.8 3.1v5.7c.1 1.8-.6 2.2-.8 2.2zm1.6-10v6.8c.1 1.8-.3 1.9-.3 1.9v-6.1c-.1-2.1.3-2.6.3-2.6z" fill="#1e305e"/></svg>