<svg xmlns="http://www.w3.org/2000/svg" viewBox="0 0 240 28.4"><path d="M0 1.9h8.1v25.8h1.3V1.9h8V.6H0zm43.8 12.4h8.6v-1.4h-8.6v-11h12.3V.6H42.5v27.1h13.8v-1.4H43.8zm-7.1-1.4H22.5V.6h-1.4v27.1h1.4V14.3h14.2v13.4h1.4V.6h-1.4zm197.1 2.8c4-1.1 5.4-3.8 5.4-7.2 0-7.3-5.9-7.9-10.5-7.9h-9.2v27.1h6.2V16.6h2.1l5.4 11.1h6.8l-6.2-12zm-3.1-3.7c-.9.3-1.4.3-5 .3V4.8c3.5 0 4.3 0 5.2.3 1.2.4 1.9 1.4 1.9 3.2 0 1.6-.1 3-2.1 3.7zM79.8 8.5c0-7.3-5.9-7.9-10.5-7.9h-9.2v27.1h6.2V16.6h2.1l5.4 11.1h6.8l-6.2-12c4-1.2 5.4-3.8 5.4-7.2zM71.3 12c-.9.3-1.4.3-5 .3V4.8c3.5 0 4.3 0 5.2.3 1.2.4 1.9 1.4 1.9 3.2 0 1.6-.1 3-2.1 3.7zM180.3.6h-6.9v27.1c4.7 0 8.8 0 9.6-.1 2.3-.2 4-.4 6.1-1.4 3.1-1.5 3.9-4.8 3.9-7.8v-4.6c0-6.1-.5-8-1.7-9.7-1.6-2.3-4-3.5-11-3.5zm6.4 16.6c0 5.2-2.6 5.6-5.1 5.6h-1.8V5.4c3.3 0 4.7 0 5.9 1.7 1 1.3 1 3.6 1 6.8v3.3zm-97.4-1h8.8v-4.9h-8.9V5.5h12.9V.6H83v27.1h20v-5.1H89.3zm80.1-7.7c0-7.3-5.9-7.9-10.5-7.9h-9.2v27.1h6.2V16.6h2.1l5.4 11.1h6.8l-6.2-12c3.9-1.2 5.4-3.8 5.4-7.2zm-8.6 3.5c-.9.3-1.4.3-5 .3V4.8c3.5 0 4.3 0 5.2.3 1.2.4 1.9 1.4 1.9 3.2.1 1.6-.1 3-2.1 3.7zm42 4.2h8.8v-4.9h-8.9V5.5h12.9V.6h-19.1v27.1h20v-5.1h-13.7zm-88.2 7.2c-3.5 0-3.5-2.8-3.5-4.3V8.7c0-.7 0-2.1 1-3 .6-.6 1.6-.8 2.4-.8 3.1 0 3.2 3 3.2 4.3h6.2c-.1-2.2-.4-5.5-2.9-7.4-2-1.5-4.5-1.8-6.2-1.8-6.6 0-10.1 3.5-10.1 9.7v8.2c0 5.5 1.5 7.1 2.7 8.2 1.8 1.7 4.1 2.4 7.4 2.4 1.2 0 4.2-.3 6.2-1.8 2.4-1.8 2.8-3.8 3-4.8.2-1.1.2-1.4.3-3.3H118c-.1 2.8-.9 4.8-3.4 4.8zM136.4.1c-2.7 0-5.4.7-7.1 2.6-2 2.1-2.5 4.7-2.5 7.5v7.3c0 1.2.1 3.5.7 5.5 1.4 4.6 6 5.5 8.8 5.5 1.8 0 5.2-.3 7.6-2.7 1.8-1.8 2.4-4.3 2.4-8.1v-6.6c0-4.4-.9-6.8-2.5-8.4-1.9-2-4.5-2.6-7.4-2.6zm3.4 18.5c0 1.9 0 4.9-3.4 4.9-2.8 0-3.4-2-3.4-4.9V9.2c0-1.1 0-4.2 3.5-4.2 3.3 0 3.3 2.3 3.3 4.2v9.4z" fill="#1e305e"/></svg>