<svg xmlns="http://www.w3.org/2000/svg" viewBox="0 0 240 45.9"><path d="M88 8.1c0-1.7.5-3.9 2.7-3.9 2.5 0 4.4 2.7 6.5 16h.9V2.9h-.6l-3 2.7c-1-1.6-2.4-2.7-4.5-2.7-3 0-7.2 2.9-7.2 9.5 0 9.7 10.9 18.8 10.9 27.4 0 4-.6 5-3.1 5-3.4 0-5.6-4.9-7.2-17.2h-.8v16.8h-2.3l-5.7-41h-4.2l-6.7 38.4c-.2 1.1-.5 1.7-.9 2.1l-6.6-23.7 4.6-13.9c.6-1.6 1.3-1.9 2.8-2v-.9h-7.2v.9c1.4 0 2.6.5 2.6 2.3 0 .2-.1 1-.3 1.7l-3 9.9h-.1l-3.8-14H54v-.8H22.7V0H0v19.4h.9C2.9 6.2 5 .9 7.4.9h.1v43.4H4.9v1h13v-1h-2.6V.9h.1c2.4.1 4.4 5.3 6.5 18.5h.9V4.3h2.1v40.1h-2.2v.9h19.8V28.4h-.9c-.3 2.4-.6 4.1-1.9 8.9-1.6 6.4-3 7.1-6 7.1H32v-20c3.3.3 4.2 2.8 5 10.4h.6V13.4h-.8c-.4 7.7-1.9 9.6-4.8 10.1V4.3h3c3.7 0 4.7 3.4 6.7 15h.8v-15h2.3L51 26.6l-5.2 14.8c-.6 1.6-1 2.8-2.9 3v.9h7.7v-.9c-1.7-.1-3.2-.8-3.2-2.7 0-.3.1-.6.2-1.4l3.8-11.5h.1l4.3 15.7h-2.2v.9h14v-.9c-1 0-2.8-.5-2.6-1.9l.8-5.8h6.8l.9 7.7H71v.9h11.7v.6h.6l3.2-2.4c1.2 1.7 3.1 2.4 5.2 2.4 5.2 0 8-4.2 8-9C99.7 26.3 88 15.4 88 8.1zM65.9 35.8L69.5 15h.1l2.7 20.8h-6.4zM142 3.4h-4.2l-6.7 38.4c-.2 1.3-.6 1.9-1.1 2.2V27.2h-.9c-3.1 16-4.3 17.1-8.5 17.1h-2.1V1h2.6V0h-12.7v1h2.4v43.3h-2.4v1h26.5v-.9c-1 0-2.8-.5-2.6-1.9l.8-5.8h6.8l.9 7.7h-2.3v.9h11.4v-.9h-2.1l-5.8-41zm-8.7 32.4L137 15h.1l2.7 20.8h-6.5zm61.2-32.4h-5.6v.9c1.7 0 2.8.7 2.8 2.5 0 .6-.1 1.1-.5 2.9l-3.5 13.2h-.1L183 4.3h2.2v-.9h-14v.9c1.6.1 2.8.3 2.4 3.3l-3.1 23.9h-.1l-3.2-27.3h2v-.8h-10.5v.9h1.8l.5 3.9-3.4 23.4h-.1l-3.3-27.3h2.3v-.9h-10.4v.9h1.3l5.7 41h3.9l4.4-31.7h.1l4.4 31.7h3.8l5.4-38.8c.1-.6.3-1.1.7-1.5l5.2 19.8v19.7h-2.4v.9h12.1v-.9h-2.5V25l5.4-19.1c.4-1.4 1.5-1.6 2.1-1.6h1v40.1h-2.2v.9h19.8V28.4h-.9c-.3 2.4-.6 4.1-1.9 8.9-1.6 6.4-3 7.1-6 7.1h-1.7v-20c3.3.3 4.2 2.8 5 10.4h.6V13.4h-.8c-.4 7.7-1.9 9.6-4.8 10.1V4.3h3c3.7 0 4.7 3.4 6.7 15h.8V3.4h-19.8zm45.5 35h-.9c-.3 4-.8 5.3-2.1 5.3-.8 0-1.2-1-1.2-3.3v-5.7c0-7-2.1-8.8-7.1-10.6V24c5.2-1.6 7.4-5.1 7.4-10.6 0-5.2-3.3-10-10.7-10h-9.8v.9h2.2v40.1h-2.2v.9h11.6v-.9h-2.3v-20c2.9 0 4.1.5 4.1 4.2v11.7c0 3.7 1.7 5.4 5.5 5.4 2.9 0 5.6-.9 5.5-7.3zm-15.1-14.8V4.3c2.6 0 3.8.3 3.8 2.8v13.7c-.1 2-.7 2.8-3.8 2.8z" fill="#1e305e"/></svg>