<svg class="icon search-search" xmlns="http://www.w3.org/2000/svg" viewBox="0 0 114.1 120.2"><path class="blue-stroke" d="M79.8 89.6l5.3 7.3"/><g id="mid"><path class="gold-stroke" d="M113.6 60.6C101.7 51.2 80.8 45 57.1 45S12.4 51.2.5 60.6"/><clipPath id="eye-mid-clip"><path id="eye-mid-clippath" d="M32.5 52.8H81v12.7H32.5z"/></clipPath><g clip-path="url(#eye-mid-clip)"><path class="gold-stroke" d="M75.7 48.9c1.4 2.8 2.2 5.9 2.2 9.2 0 11.5-9.3 20.8-20.8 20.8s-20.8-9.3-20.8-20.8c0-3.3.8-6.4 2.2-9.2l2.1-4.5h32.3l2.8 4.5z"/><circle class="gold-stroke" cx="57.1" cy="57.9" r="12.3"/></g></g><g id="open"><clipPath id="eye-open-clip"><path id="eye-open-clippath" d="M32.5 52.8H81v30.8H32.5z"/></clipPath><g clip-path="url(#eye-open-clip)"><path class="gold-stroke" d="M75.7 48.9c1.4 2.8 2.2 5.9 2.2 9.2 0 11.5-9.3 20.8-20.8 20.8s-20.8-9.3-20.8-20.8c0-3.3.8-6.4 2.2-9.2l2.1-4.5h32.3l2.8 4.5z"/><circle class="gold-stroke" cx="57.1" cy="57.9" r="12.3"/></g><clipPath id="eyelid-open-clip"><circle id="eyelid-open-clippath" cx="57.1" cy="57.9" r="56.8"/></clipPath><path clip-path="url(#eyelid-open-clip)" class="gold-stroke" d="M113.6 68.4C101.7 49.7 80.8 37.3 57 37.3S12.4 49.7.5 68.4"/></g><path id="closed" class="gold-stroke" d="M0 57.9h113.8"/><circle class="blue-stroke" cx="57.1" cy="57.9" r="39"/><path class="blue-stroke" d="M48.5 89.9c-8.2-2.2-15.5-7.5-20.1-15.4-9.1-15.8-3.7-36.1 12.1-45.2 2.6-1.5 5.2-2.6 8-3.3"/><path class="blue-stroke" d="M83.445 98.152l3.492-2.51 15.117 21.03-3.492 2.51z"/></svg>