<svg id="Layer_1" xmlns="http://www.w3.org/2000/svg" viewBox="0 0 109 117.1"><style>.st0{fill:#b78d59}.st1,.st2{fill:none;stroke-miterlimit:10}.st1{stroke-width:6;stroke:#fff}.st2{stroke:#b78d59}.st3{fill:#1e305e}.st4{fill:none;stroke:#1e305e;stroke-miterlimit:10}</style><path class="st0" d="M82.3 76.2l-.1 1 25.8 6.5v21.4h1V82.9z"/><path class="st0" d="M77.9 48c-1-.4-2.2-.4-3.3.1v1.1c.9-.6 2-.7 2.9-.3 1 .5 1.6 1.6 1.6 3.1 0 2.8-2.2 5.1-4.5 5.8v1.1c2.7-.7 5.5-3.4 5.5-6.8 0-2-.8-3.5-2.2-4.1z"/><path class="st0" d="M78.6 77.2l1 .2L88.1 29l-.3-.2c-6.9-3.4-13.8-5.4-21.3-6v1c7.2.6 13.9 2.5 20.5 5.8l-8.4 47.6z"/><path class="st0" d="M59.8 48c-1-.4-2.2-.4-3.3.1v1.1c.9-.6 2-.7 2.9-.3 1 .5 1.6 1.6 1.6 3.1 0 2.8-2.2 5.1-4.5 5.8v1.1c2.7-.7 5.5-3.4 5.5-6.8 0-2-.8-3.5-2.2-4.1z"/><path class="st3" d="M24.7 13l-6.5-6.5L24.7 0l6.5 6.5-6.5 6.5zm-5.1-6.5l5.1 5.1 5.1-5.1-5.1-5.1-5.1 5.1z"/><path class="st0" d="M46.8 10.5l-4-4 4-4 4 4-4 4zm-2.6-4l2.6 2.6 2.6-2.6-2.6-2.6-2.6 2.6z"/><path class="st0" d="M66.5 10.5l-4-4 4-4 4 4-4 4zm-2.6-4l2.6 2.6 2.6-2.6-2.6-2.6-2.6 2.6z"/><path class="st0" d="M64.3 76.2l-.1 1L90 83.7v21.4h1V82.9z"/><path class="st0" d="M60.6 77.2l1 .2L70.1 29l-.3-.2c-8.9-4.6-28.9-8.7-41.2-7.2v1c12-1.5 31.4 2.5 40.4 7l-8.4 47.6z"/><path class="st3" d="M39.3 98.6h18.3v1H39.3z"/><path class="st3" d="M36.5 39.6v-1h-28v1h5.9c-2 11-.3 21 5.1 29.7l.1.2h16.9v-1H20.2c-5.1-8.5-6.8-18.3-4.8-29h21.1z"/><path class="st3" d="M10.5 23.1v1l40.4 5.6-9 51.4h1l9.2-52.2z"/><path class="st3" d="M42.1 48c-1-.4-2.2-.4-3.3.1v1.1c.9-.6 2-.7 2.9-.3 1 .5 1.6 1.6 1.6 3.1 0 2.8-2.2 5.1-4.5 5.8v1.1c2.7-.7 5.5-3.4 5.5-6.8-.1-2-.9-3.5-2.2-4.1z"/><path class="st3" d="M0 82.9v22.2h1V83.7l20.9-5.2L18.8 96l16.4 21.1h1.3L19.8 95.7l3.3-18.6z"/><path class="st3" d="M46.3 76.2l-.1 1L72 83.7v21.4h1V82.9z"/></svg>