<svg class="icon search-retain" xmlns="http://www.w3.org/2000/svg" viewBox="0 0 99.9 120.2"><g id="person"><path class="blue-fill" d="M55.8 101.5h18.6v1.2H55.8z"/><path class="blue-fill" d="M36 72.4l.2.3h17.1v-1.2H36.9c-5.1-8.5-6.7-18.1-4.8-28.7h21.2v-1.2H25v1.2h5.8c-1.9 10.9-.1 20.9 5.2 29.6z"/><path class="blue-fill" d="M62.9 79.1l-.2 1.2 25.8 6.5v21.4h1.3V85.8z"/><path class="blue-fill" d="M58.4 84.2h1.3l9.2-52.5L27 25.9v1.3l40.4 5.6z"/><path class="blue-fill" d="M61 55c0-2-.8-3.5-2.2-4.1-.5-.2-1-.3-1.5-.3-.6 0-1.3.1-1.9.4h-.1v1.4l.2-.1c.6-.3 1.2-.5 1.8-.5.4 0 .7.1 1 .2 1 .4 1.5 1.5 1.5 3 0 2.8-2.2 5-4.4 5.7h-.1V62h.2c2.7-.8 5.5-3.5 5.5-7z"/><path class="blue-fill" d="M40 79.9l-23.5 5.9v22.4h1.3V86.8l20.6-5.2L35.3 99l16.5 21.2h1.6L36.6 98.6z"/></g><path class="gold-stroke long" d="M50 20.2V0"/><path class="gold-stroke medium" d="M77 57.3h21.3"/><path class="gold-stroke medium" d="M23.3 57.3H2"/><path class="gold-stroke longest" d="M21.3 40.8L.3 28.7"/><path class="gold-stroke longest" d="M78.6 40.8l21-12.1"/><path class="gold-stroke short" d="M78.3 73.7l8 4.6"/><path class="gold-stroke short" d="M21.7 73.7l-8 4.6"/></svg>