<svg id="Layer_1" xmlns="http://www.w3.org/2000/svg" viewBox="0 0 109.2 117.4"><style>.st0{fill:#b78d59}.st1{fill:#1e305e}</style><path class="st0" d="M82.4 76.3l-.2 1.2L108 84v21.4h1.2V83z"/><path class="st0" d="M74.7 57.9l-.1 1.3h.2c2.7-.7 5.5-3.5 5.5-7 0-2-.8-3.5-2.2-4.1-.5-.2-1-.3-1.5-.3-.6 0-1.3.1-1.9.4h-.1v1.4l.2-.1c.6-.3 1.2-.5 1.8-.5.4 0 .7.1 1 .2 1 .4 1.5 1.5 1.5 3 0 2.8-2.3 5-4.4 5.7z"/><path class="st0" d="M66.5 22.8v1.3h.1c7.1.6 13.8 2.5 20.4 5.7l-8.4 47.7 1.2.3 8.5-48.7-.4-.2c-6.9-3.4-13.9-5.4-21.3-6l-.1-.1z"/><path class="st0" d="M60 48.1c-.5-.2-1-.3-1.5-.3-.6 0-1.3.1-1.9.4h-.1v1.4l.2-.1c.6-.3 1.2-.5 1.8-.5.4 0 .7.1 1 .2 1 .4 1.5 1.5 1.5 3 0 2.8-2.2 5-4.4 5.7h-.1v1.3h.2c2.7-.7 5.5-3.5 5.5-7 0-2-.8-3.5-2.2-4.1z"/><path class="st0" d="M51.2 6.7L47 2.5l-4.2 4.1 4.2 4.1 4.2-4zM47 4.3l2.4 2.4L47 9.1l-2.4-2.4L47 4.3z"/><path class="st0" d="M70.8 6.7l-4.2-4.1-4.2 4.1 4.2 4.1 4.2-4.1zm-4.2-2.4L69 6.7l-2.4 2.4-2.4-2.4 2.4-2.4z"/><path class="st0" d="M64.2 77.5L90 84v21.4h1.2V83l-26.8-6.7z"/><path class="st0" d="M69.9 28.9c-8.1-4.2-24.1-7.6-35.7-7.6-2 0-4 .1-5.6.3h-.1v1.3h.1c1.7-.2 3.6-.3 5.7-.3 11.1 0 26.6 3.2 34.6 7.2l-8.4 47.7 1.2.3 8.5-48.7-.3-.2z"/><path class="st1" d="M31.5 6.7L24.8 0l-6.7 6.7 6.7 6.7 6.7-6.7zm-6.7-4.9l4.9 4.9-4.9 4.9-4.9-4.9 4.9-4.9z"/><path class="st1" d="M39.3 98.7h18.6v1.2H39.3z"/><path class="st1" d="M19.5 69.6l.2.3h17.1v-1.2H20.4c-5.1-8.5-6.7-18.1-4.8-28.7h21.2v-1.2H8.5V40h5.8c-1.9 10.9-.2 20.9 5.2 29.6z"/><path class="st1" d="M41.9 81.4h1.2l9.3-52.5-41.9-5.8v1.3L50.9 30z"/><path class="st1" d="M44.5 52.2c0-2-.8-3.5-2.2-4.1-.5-.2-1-.3-1.5-.3-.6 0-1.3.1-1.9.4h-.1v1.4l.2-.1c.6-.3 1.2-.5 1.8-.5.4 0 .7.1 1 .2 1 .4 1.5 1.5 1.5 3 0 2.8-2.2 5-4.4 5.7h-.1v1.3h.2c2.7-.8 5.5-3.5 5.5-7z"/><path class="st1" d="M23.4 77.1L0 83v22.4h1.2V84l20.6-5.2-3.1 17.4 16.6 21.2h1.5L20.1 95.8z"/><path class="st1" d="M46.4 76.3l-.2 1.2L72 84v21.4h1.2V83z"/></svg>